<svg version="1.1" xmlns="http://www.w3.org/2000/svg" xmlns:xlink="http://www.w3.org/1999/xlink" width="61.5" height="46.25" viewBox="0,0,61.5,46.25"><defs><linearGradient x1="320" y1="157.875" x2="320" y2="202.125" gradientUnits="userSpaceOnUse" id="color-1"><stop offset="0" stop-color="#ffd7a9"/><stop offset="1" stop-color="#d2af8d"/></linearGradient></defs><g transform="translate(-289.25,-156.875)"><g data-paper-data="{&quot;isPaintingLayer&quot;:true}" fill-rule="nonzero" stroke-linecap="butt" stroke-linejoin="miter" stroke-miterlimit="10" stroke-dasharray="" stroke-dashoffset="0" style="mix-blend-mode: normal"><path d="M290.25,202.125v-44.25h59.5v44.25z" fill="url(#color-1)" stroke="#c5a682" stroke-width="2"/><g fill="#44392d" stroke="none" stroke-width="0.5"><path d="M339.35355,189.10355c-1.13684,1.06714 -0.52505,2.82185 -0.00398,4.36329c1.35684,-0.18762 2.84564,-0.20232 4.15043,-0.21684l0.67688,0c0.17329,-1.45395 0.58309,-2.9198 0.18751,-4.49319c-0.96832,-1.92519 -3.01095,-0.64349 -4.91828,0.01795zM339.83319,195.40477c0.02724,1.04261 -0.29613,2.10251 -0.33029,3.16748c0.66997,0.1319 1.33734,0.21192 1.8573,0.03102c0.75736,-0.1858 2.74601,0.12638 3.15317,-0.80148c0.159,-0.36235 -0.26091,-2.14335 -0.34025,-2.63837c-0.04897,-0.3055 -0.06766,-0.60968 -0.06558,-0.91342h-0.60754c-1.17254,-0.01803 -2.5046,0.23069 -3.78549,0.39665c0.06815,0.27353 0.11268,0.52867 0.11868,0.75812zM338.83347,195.42856c0.00944,-0.25298 -0.08566,-0.46508 -0.21498,-0.66695c-0.5378,0.03863 -1.05426,0.04226 -1.53192,-0.01806c-1.43005,-0.18061 -2.01817,-1.04228 -3.58507,-0.26973c-0.00461,0.01914 -0.00933,0.03844 -0.01416,0.05789c-0.09907,0.58933 -0.63343,2.55225 -0.50879,3.0734c0.02828,0.11823 0.94784,0.96377 1.08782,0.98265c1.06352,0.14347 2.59283,-0.48495 3.81624,-0.33532c0.197,0.02409 0.40832,0.06312 0.628,0.10847c0.05275,-0.99839 0.28587,-1.94046 0.32287,-2.93235zM338.00646,193.66342c-0.20673,-1.29216 -0.38393,-3.28805 0.19203,-4.58059c-1.26665,0.13409 -2.31997,-0.58304 -3.57972,-0.78247c0.74526,1.19793 -0.92788,0.73441 -1.51127,1.5189c-0.09484,0.12753 0.35655,1.46973 0.38604,1.68398c0.10189,0.74022 0.19532,1.25308 0.17436,1.84028c0.86278,-0.29449 1.98078,-0.50728 2.6901,-0.22213c0.68014,0.27342 0.60816,0.90538 1.4971,0.65006c0.05393,-0.01549 0.10838,-0.0305 0.16329,-0.04505c-0.00455,-0.02071 -0.00854,-0.0417 -0.01195,-0.06298zM333.14645,187.39645c0.23313,-0.23313 0.46626,-0.15881 0.59802,-0.08114c0.12682,-0.06531 0.25553,-0.06531 0.25553,-0.06531c1.46262,0 2.81426,1.01477 4.10558,0.83708c2.76558,-0.38056 5.5947,-2.8994 7.1967,0.32278c0.57197,2.29713 -0.50518,4.50844 -0.14207,6.59338c0.09795,0.5624 0.54579,2.51132 0.32641,3.0283c-0.74175,1.74796 -2.46321,1.17775 -3.84683,1.53185c-1.48398,0.47764 -3.64731,-0.31339 -5.30646,-0.31339c-0.68463,0 -1.80719,0.43468 -2.3997,0.32891c-0.48149,-0.08595 -1.79331,-1.21802 -1.91218,-1.68402c-0.16113,-0.6317 0.375,-2.89084 0.48667,-3.56605c0.35744,-1.43934 -0.95408,-3.7986 -0.2823,-4.98144c0.52934,-0.93203 2.097,-0.3101 1.25395,-0.91052l-0.33333,-0.33333c0,0 -0.35355,-0.35355 0,-0.70711z"/><path d="M336.64101,190.59189c0.15811,0.47434 -0.31623,0.63246 -0.31623,0.63246l-0.57802,0.18587c-0.19336,0.00215 -0.38673,0.0043 -0.58009,0.00646c0,0 -0.5,0 -0.5,-0.5c0,-0.5 0.5,-0.5 0.5,-0.5c0.13997,0.00215 0.27994,0.0043 0.41991,0.00646l0.42198,-0.14746c0,0 0.47434,-0.15811 0.63246,0.31623z"/><path d="M340.09178,191.74272c-0.1395,-0.02254 -0.42511,-0.11482 -0.42511,-0.49272c0,-0.5 0.5,-0.5 0.5,-0.5l0.58269,0.22265c0.21873,0.48034 0.81771,-2.29447 2.41731,-2.38932c0,0 0.5,0 0.5,0.5c0,0.5 -0.5,0.5 -0.5,0.5c-1.50885,-0.17976 -1.13214,4.43906 -3.07489,2.15938z"/><path d="M337.0541,196.16853c0.12936,-0.25186 0.4459,-0.25186 0.4459,-0.25186l0.44402,0.91603c-0.92608,0.54864 -1.82471,0.39455 -2.72137,-0.16667c0,0 -0.41603,-0.27735 -0.13868,-0.69338c0.27735,-0.41603 0.69338,-0.13868 0.69338,-0.13868c0.34925,0.25733 0.85822,0.43878 1.27675,0.33455z"/><path d="M343.33333,196.91667c0,0.5 -0.5,0.5 -0.5,0.5l-0.44402,-0.08397c-0.5,-0.33333 -1,-0.66667 -1.5,-1c0,0 -0.41603,-0.27735 -0.13868,-0.69338c0.27735,-0.41603 0.69338,-0.13868 0.69338,-0.13868c0.5,0.33333 1,0.66667 1.5,1l-0.11068,-0.08397c0,0 0.5,0 0.5,0.5z"/><path d="M342.66667,195.08333c0,-0.27614 0.22386,-0.5 0.5,-0.5c0.27614,0 0.5,0.22386 0.5,0.5c0,0.27614 -0.22386,0.5 -0.5,0.5c-0.27614,0 -0.5,-0.22386 -0.5,-0.5z"/><path d="M322.11591,195.73997c-0.03529,0.00649 -0.07383,0.01003 -0.11591,0.01003c-0.5,0 -0.5,-0.5 -0.5,-0.5c0.03863,-2.54567 3.72989,-4.5623 5.82903,-2.70982c1.69034,1.49172 1.73209,3.74218 -0.53403,4.19307c-1.87659,0.60572 -3.44425,0.76282 -4.67909,-0.99328zM322.52017,194.72973c0.00003,0.00003 0.00005,0.00005 0.00005,0.00005l0.39581,0.40954c0.91961,1.43885 2.1618,1.13298 3.62231,0.62743c3.68257,-0.74015 -3.57212,-5.18096 -4.01816,-1.03702z"/><path d="M324.64459,193.93912c0.06893,0.019 0.15095,0.0541 0.21882,0.1189l0.40748,0.27166c0.13785,0.08903 0.2291,0.24402 0.2291,0.42033c0,0.27614 -0.22386,0.5 -0.5,0.5c-0.05938,0 -0.11635,-0.01035 -0.16919,-0.02935l-0.97799,-0.326c-0.20431,-0.06283 -0.35282,-0.25307 -0.35282,-0.47799c0,-0.27614 0.22386,-0.5 0.5,-0.5l0.39656,0c0.09242,-0.01627 0.18013,0.00003 0.24803,0.02245z"/></g></g></g></svg>