<svg version="1.1" xmlns="http://www.w3.org/2000/svg" xmlns:xlink="http://www.w3.org/1999/xlink" width="45" height="45" viewBox="0,0,45,45"><g transform="translate(-297.5,-157.5)"><g data-paper-data="{&quot;isPaintingLayer&quot;:true}" fill-rule="nonzero" stroke-linejoin="miter" stroke-miterlimit="10" stroke-dasharray="" stroke-dashoffset="0" style="mix-blend-mode: normal"><g stroke="#000000" stroke-width="2" stroke-linecap="butt"><path d="M298.5,201.5v-43h43v43z" fill="#bbbbbb"/><path d="M299.75,200.25v-40.5h40.5v40.5z" fill="none"/><path d="M305.125,201.375c-3.58985,0 -6.5,-2.91015 -6.5,-6.5v-29.75c0,-3.58985 2.91015,-6.5 6.5,-6.5h29.75c3.58985,0 6.5,2.91015 6.5,6.5v29.75c0,3.58985 -2.91015,6.5 -6.5,6.5z" fill="#bbbbbb"/></g><g fill="none" stroke-width="2"><g stroke="#ff0000"><path d="M304.21873,196.07622h31.75144" stroke-linecap="round"/><path d="M334.90233,194.31987l3.02249,1.74504l-3.02249,1.74503z" stroke-linecap="butt"/></g><g stroke="#04ff00"><path d="M303.97448,196.19834v-31.75144" stroke-linecap="round"/><path d="M302.07518,165.21256l1.74504,-3.02249l1.74504,3.02249z" stroke-linecap="butt"/></g></g><path d="M316.71875,185.68329l-3.28125,-5.68329l3.28125,-5.68329h6.5625l3.28125,5.68329l-3.28125,5.68329z" fill-opacity="0.03137" fill="#ffffff" stroke="none" stroke-width="0" stroke-linecap="butt"/></g></g></svg>