<svg version="1.1" xmlns="http://www.w3.org/2000/svg" xmlns:xlink="http://www.w3.org/1999/xlink" width="1101" height="237.05615" viewBox="0,0,1101,237.05615"><defs><radialGradient cx="381.8884" cy="219.93968" r="13.40409" gradientUnits="userSpaceOnUse" id="color-1"><stop offset="0" stop-color="#2dff00"/><stop offset="1" stop-color="#2dff00" stop-opacity="0"/></radialGradient><radialGradient cx="381.54273" cy="219.82445" r="8.21913" gradientUnits="userSpaceOnUse" id="color-2"><stop offset="0" stop-color="#ffffff"/><stop offset="1" stop-color="#ffffff" stop-opacity="0"/></radialGradient><linearGradient x1="381.8884" y1="208.80161" x2="381.8884" y2="231.07775" gradientUnits="userSpaceOnUse" id="color-3"><stop offset="0" stop-color="#2dff00"/><stop offset="1" stop-color="#00ff8d"/></linearGradient><linearGradient x1="374.66262" y1="218.57243" x2="374.66262" y2="229.096" gradientUnits="userSpaceOnUse" id="color-4"><stop offset="0" stop-color="#ffffff" stop-opacity="0"/><stop offset="1" stop-color="#ffffff"/></linearGradient><radialGradient cx="383.07902" cy="218.59543" r="6.91329" gradientUnits="userSpaceOnUse" id="color-5"><stop offset="0" stop-color="#22b700"/><stop offset="1" stop-color="#22b700" stop-opacity="0"/></radialGradient></defs><g transform="translate(130.5961,3.71238)"><g data-paper-data="{&quot;isPaintingLayer&quot;:true}" fill-rule="nonzero" stroke-linejoin="miter" stroke-miterlimit="10" stroke-dasharray="" stroke-dashoffset="0" style="mix-blend-mode: normal"><text transform="translate(250.72376,210.18115) scale(1.30676,1.30676) skewX(-12.46043)" font-size="40" xml:space="preserve" fill="#ff0000" fill-rule="nonzero" stroke="#b80000" stroke-width="2" stroke-linecap="butt" stroke-linejoin="miter" stroke-miterlimit="10" stroke-dasharray="" stroke-dashoffset="0" font-family="Arcade" font-weight="normal" text-anchor="start" style="mix-blend-mode: normal"><tspan x="0" dy="0">&amp;BOX</tspan></text><text transform="translate(246.10458,225.79006) scale(0.40706,0.40706) skewX(-10.87681)" font-size="40" xml:space="preserve" fill="#ff0000" fill-rule="nonzero" stroke="#b80000" stroke-width="2" stroke-linecap="butt" stroke-linejoin="miter" stroke-miterlimit="10" stroke-dasharray="" stroke-dashoffset="0" font-family="Arcade" font-weight="normal" text-anchor="start" style="mix-blend-mode: normal"><tspan x="0" dy="0">Based</tspan></text><g><g><path d="M368.4843,219.93968c0,-7.40288 6.00122,-13.40409 13.40409,-13.40409c7.40288,0 13.40409,6.00122 13.40409,13.40409c0,7.40288 -6.00122,13.40409 -13.40409,13.40409c-7.40288,0 -13.40409,-6.00122 -13.40409,-13.40409z" fill="url(#color-1)" stroke="none" stroke-width="0" stroke-linecap="butt"/><path d="M373.3236,219.82445c0,-4.5393 3.67983,-8.21913 8.21913,-8.21913c4.5393,0 8.21913,3.67983 8.21913,8.21913c0,4.5393 -3.67983,8.21913 -8.21913,8.21913c-4.5393,0 -8.21913,-3.67983 -8.21913,-8.21913z" fill="url(#color-2)" stroke="none" stroke-width="0" stroke-linecap="butt"/><path d="M374.66785,208.8016l7.06691,0.38407l4.60886,12.05985l0.84495,-9.37135l4.99293,0.61452l-2.30443,18.58906l-4.3016,-0.46088l-6.14515,-16.82233l-1.90115,15.91016l-5.9339,-0.74894z" fill="url(#color-3)" stroke="#22b700" stroke-width="1" stroke-linecap="round"/><path d="M372.33259,228.53269l1.53628,-9.96025l0.94738,7.45098l2.17641,3.07257z" fill="url(#color-4)" stroke="none" stroke-width="0" stroke-linecap="butt"/><path d="M374.66785,208.80161l7.06691,0.38407l4.60886,12.05985l0.84495,-9.37134l4.99293,0.61451l-2.30443,18.58906l-4.3016,-0.46088l-6.14515,-16.82233l-1.90115,15.91016l-5.9339,-0.74894z" fill="none" stroke="#22b700" stroke-width="0.15" stroke-linecap="round"/><path d="M386.03636,225.50872l-5.9147,-13.82658" fill="none" stroke="url(#color-5)" stroke-width="0.5" stroke-linecap="round"/></g><text transform="translate(394.89145,225.64736) rotate(0.34826) scale(0.3181,0.36519) skewX(-13.01009)" font-size="40" xml:space="preserve" fill="#51ff00" fill-rule="nonzero" stroke="#22b700" stroke-width="2" stroke-linecap="butt" stroke-linejoin="miter" stroke-miterlimit="10" stroke-dasharray="" stroke-dashoffset="0" font-family="Archivo Black" font-weight="normal" text-anchor="start" style="mix-blend-mode: normal"><tspan x="0" dy="0">ENGINE</tspan></text></g><text transform="translate(332.40172,225.79006) scale(0.40706,0.40706) skewX(-10.87681)" font-size="40" xml:space="preserve" fill="#ff0000" fill-rule="nonzero" stroke="#b80000" stroke-width="2" stroke-linecap="butt" stroke-linejoin="miter" stroke-miterlimit="10" stroke-dasharray="" stroke-dashoffset="0" font-family="Arcade" font-weight="normal" text-anchor="start" style="mix-blend-mode: normal"><tspan x="0" dy="0">on</tspan></text><text transform="translate(969.6539,28.17793) scale(0.5,0.5)" font-size="40" xml:space="preserve" fill="#ff0000" fill-rule="nonzero" stroke="none" stroke-width="1" stroke-linecap="butt" stroke-linejoin="miter" stroke-miterlimit="10" stroke-dasharray="" stroke-dashoffset="0" font-family="Arcade" font-weight="normal" text-anchor="end" style="mix-blend-mode: normal"><tspan x="0" dy="0">i eat ass, i eat a lot of ass, i like ass, ass,aass,ass</tspan></text><path d="M28.31431,13.53006h8.88941c3.50678,0 6.34958,2.8428 6.34958,6.34958v0c0,3.50678 -2.8428,6.34958 -6.34958,6.34958v0h-8.88941v22.85849c-0.08767,3.06843 -2.64619,5.48481 -5.71462,5.39714c-3.06843,-0.08767 -5.48481,-2.64619 -5.39714,-5.71462c-0.08767,-2.2794 -2.00656,-4.05616 -4.28597,-3.96849c-2.2794,0.08767 -4.05616,2.00656 -3.96849,4.28597c-0.08767,2.98076 -2.57512,5.32607 -5.55588,5.2384c-2.98076,-0.08767 -5.32607,-2.57512 -5.2384,-5.55588v-11.74672h-3.49227c-1.90487,0 -2.22235,-0.31748 -2.22235,-2.22235v-19.6837c0,-1.90487 0.31748,-2.22235 2.22235,-2.22235h3.49227c0.17534,-8.24092 6.99807,-14.77937 15.23899,-14.60403c8.24092,0.17534 14.77937,6.99807 14.60403,15.23899" fill="#ff0000" stroke="#b80000" stroke-width="4" stroke-linecap="butt"/><path d="M430.31431,13.53006h8.88941c3.50678,0 6.34958,2.8428 6.34958,6.34958v0c0,3.50678 -2.8428,6.34958 -6.34958,6.34958v0h-8.88941v22.85848c-0.08767,3.06843 -2.64619,5.48482 -5.71462,5.39715c-3.06843,-0.08767 -5.48482,-2.6462 -5.39715,-5.71462c-0.08767,-2.2794 -2.00656,-4.05616 -4.28597,-3.96849c-2.2794,0.08767 -4.05615,2.00656 -3.96848,4.28596c-0.08767,2.98076 -2.57512,5.32608 -5.55588,5.23841c-2.98076,-0.08767 -5.32607,-2.57512 -5.2384,-5.55588v-11.74672h-3.49227c-1.90488,0 -2.22236,-0.31748 -2.22236,-2.22235v-19.68369c0,-1.90488 0.31748,-2.22235 2.22236,-2.22235h3.49227c0.17534,-8.24093 6.99806,-14.77937 15.23899,-14.60403c8.24093,0.17534 14.77937,6.99807 14.60403,15.23899" fill="#ff0000" stroke="#b80000" stroke-width="4" stroke-linecap="butt"/><path d="M672.31431,13.53006h8.88941c3.50678,0 6.34958,2.8428 6.34958,6.34958v0c0,3.50678 -2.8428,6.34958 -6.34958,6.34958v0h-8.88941v22.85849c-0.08767,3.06843 -2.64619,5.48482 -5.71462,5.39715c-3.06843,-0.08767 -5.48482,-2.64619 -5.39715,-5.71462c-0.08767,-2.2794 -2.00656,-4.05616 -4.28596,-3.96849c-2.2794,0.08767 -4.05615,2.00656 -3.96849,4.28596c-0.08767,2.98076 -2.57513,5.32608 -5.55588,5.23841c-2.98076,-0.08767 -5.32607,-2.57512 -5.2384,-5.55588v-11.74672h-3.49227c-1.90488,0 -2.22236,-0.31748 -2.22236,-2.22236v-19.68369c0,-1.90488 0.31748,-2.22235 2.22236,-2.22235h3.49227c0.17534,-8.24093 6.99806,-14.77937 15.23899,-14.60403c8.24092,0.17534 14.77937,6.99807 14.60403,15.23899" fill="#ff0000" stroke="#b80000" stroke-width="4" stroke-linecap="butt"/><path d="M768.31431,13.53006h8.88941c3.50677,0 6.34958,2.8428 6.34958,6.34958v0c0,3.50678 -2.84281,6.34958 -6.34958,6.34958v0h-8.88941v22.85849c-0.08767,3.06843 -2.64619,5.48482 -5.71462,5.39715c-3.06843,-0.08767 -5.48482,-2.64619 -5.39715,-5.71462c-0.08767,-2.2794 -2.00656,-4.05616 -4.28597,-3.96849c-2.2794,0.08767 -4.05615,2.00656 -3.96848,4.28596c-0.08767,2.98076 -2.57512,5.32608 -5.55588,5.23841c-2.98076,-0.08767 -5.32607,-2.57512 -5.2384,-5.55588v-11.74672h-3.49227c-1.90487,0 -2.22235,-0.31748 -2.22235,-2.22236v-19.68369c0,-1.90488 0.31748,-2.22235 2.22235,-2.22235h3.49227c0.17534,-8.24093 6.99806,-14.77937 15.23899,-14.60403c8.24092,0.17534 14.77937,6.99807 14.60403,15.23899" fill="#ff0000" stroke="#b80000" stroke-width="4" stroke-linecap="butt"/><path d="M853.31431,13.53006h8.88941c3.50677,0 6.34958,2.8428 6.34958,6.34958v0c0,3.50678 -2.84281,6.34958 -6.34958,6.34958v0h-8.88941v22.85849c-0.08767,3.06843 -2.64619,5.48482 -5.71462,5.39715c-3.06843,-0.08767 -5.48482,-2.64619 -5.39715,-5.71462c-0.08767,-2.2794 -2.00656,-4.05616 -4.28597,-3.96849c-2.2794,0.08767 -4.05615,2.00656 -3.96848,4.28596c-0.08767,2.98076 -2.57512,5.32608 -5.55588,5.23841c-2.98076,-0.08767 -5.32607,-2.57512 -5.2384,-5.55588v-11.74672h-3.49227c-1.90487,0 -2.22235,-0.31748 -2.22235,-2.22236v-19.68369c0,-1.90488 0.31748,-2.22235 2.22235,-2.22235h3.49227c0.17534,-8.24093 6.99806,-14.77937 15.23899,-14.60403c8.24092,0.17534 14.77937,6.99807 14.60403,15.23899" fill="#ff0000" stroke="#b80000" stroke-width="4" stroke-linecap="butt"/></g></g></svg>