<svg version="1.1" xmlns="http://www.w3.org/2000/svg" xmlns:xlink="http://www.w3.org/1999/xlink" width="66.06047" height="82.4292" viewBox="0,0,66.06047,82.4292"><g transform="translate(-286.79415,-138.67809)"><g data-paper-data="{&quot;isPaintingLayer&quot;:true}" fill="#9966ff" fill-rule="nonzero" stroke="#000000" stroke-width="2" stroke-linecap="butt" stroke-linejoin="miter" stroke-miterlimit="10" stroke-dasharray="" stroke-dashoffset="0" style="mix-blend-mode: normal"><path d="M338.01808,161.48939c0.24766,-11.79509 -8.98767,-21.56035 -20.62769,-21.81131c-11.64002,-0.25096 -21.27688,9.10741 -21.52454,20.9025h-4.93271c-2.69057,0 -3.139,0.4544 -3.139,3.18082v28.17294c0,2.72641 0.44843,3.18082 3.139,3.18082h4.93271v16.81288c-0.12383,4.26631 3.18884,7.82656 7.39906,7.95204c4.21022,0.12548 7.72366,-3.23133 7.84749,-7.49764c-0.12383,-3.26247 2.38577,-6.00895 5.60535,-6.13443c3.21958,-0.12548 5.92995,2.41756 6.05378,5.68003c-0.12383,4.39179 3.28923,8.05376 7.62328,8.17924c4.33405,0.12548 7.94787,-3.33305 8.0717,-7.72484v-32.71696h5.41955v0c4.9532,0 8.96856,-4.06886 8.96856,-9.08804v0c0,-5.01919 -4.01536,-9.08804 -8.96856,-9.08804h-5.41955z"/></g></g></svg>