<svg version="1.1" xmlns="http://www.w3.org/2000/svg" xmlns:xlink="http://www.w3.org/1999/xlink" width="77.91627" height="82.01454" viewBox="0,0,77.91627,82.01454"><defs><linearGradient x1="320" y1="194.09865" x2="320" y2="217.95813" gradientUnits="userSpaceOnUse" id="color-1"><stop offset="0" stop-color="#ef65ff"/><stop offset="1" stop-color="#8fb04f"/></linearGradient></defs><g transform="translate(-281.04187,-136.94359)"><g data-paper-data="{&quot;isPaintingLayer&quot;:true}" fill-rule="nonzero" stroke-width="2" stroke-linejoin="miter" stroke-miterlimit="10" stroke-dasharray="" stroke-dashoffset="0" style="mix-blend-mode: normal"><path d="M320,196.43899v-32.87797" fill="none" stroke="#ff0000" stroke-linecap="round"/><path d="M282.04187,217.95813v-23.85948h75.91627v23.85948z" fill="url(#color-1)" stroke="#8e5b83" stroke-linecap="butt"/><path d="M300.53705,212.14534v-12.23389h38.9259v12.23389z" fill="#131313" stroke="#000000" stroke-linecap="butt"/><path d="M346.37088,138.01209l-26.43937,26.43937l-26.30238,-26.30238" fill="none" stroke="#ff0000" stroke-linecap="round"/><path d="M352.06835,142.87529c0,2.7237 -14.5973,4.9317 -32.60399,4.9317c-18.00669,0 -32.60399,-2.208 -32.60399,-4.9317c0,-2.7237 14.5973,-4.9317 32.60399,-4.9317c18.00669,0 32.60399,2.208 32.60399,4.9317z" fill="none" stroke="#ff0000" stroke-linecap="butt"/><path d="M348.78055,154.65656c0,2.26975 -12.87997,4.10975 -28.76823,4.10975c-15.88825,0 -28.76823,-1.84 -28.76823,-4.10975c0,-2.26975 12.87997,-4.10975 28.76823,-4.10975c15.88825,0 28.76823,1.84 28.76823,4.10975z" fill="none" stroke="#ff0000" stroke-linecap="butt"/><path d="M329.05377,172.73945c0,1.8158 -3.98666,3.2878 -8.90445,3.2878c-4.91779,0 -8.90445,-1.472 -8.90445,-3.2878c0,-1.8158 3.98666,-3.2878 8.90445,-3.2878c4.91779,0 8.90445,1.472 8.90445,3.2878z" fill="none" stroke="#ff0000" stroke-linecap="butt"/></g></g></svg>