<svg version="1.1" xmlns="http://www.w3.org/2000/svg" xmlns:xlink="http://www.w3.org/1999/xlink" width="45.8" height="45.8" viewBox="0,0,45.8,45.8"><g transform="translate(-297.1,-157.1)"><g data-paper-data="{&quot;isPaintingLayer&quot;:true}" fill="none" fill-rule="nonzero" stroke="#63451e" stroke-width="2" stroke-linecap="butt" stroke-linejoin="miter" stroke-miterlimit="10" stroke-dasharray="" stroke-dashoffset="0" style="mix-blend-mode: normal"><path d="M303.55022,201.9c-3.01007,0 -5.45022,-2.44015 -5.45022,-5.45022v-32.89955c0,-3.01008 2.44015,-5.45022 5.45022,-5.45022h32.89955c3.01007,0 5.45023,2.44015 5.45023,5.45022v32.89955c0,3.01008 -2.44015,5.45022 -5.45023,5.45022z"/><path d="M298.1,201.9v-43.8h43.8v43.8z"/><path d="M306.4,201.1c-4.14213,0 -7.5,-3.35787 -7.5,-7.5v-27.2c0,-4.14213 3.35787,-7.5 7.5,-7.5h27.2c4.14213,0 7.5,3.35787 7.5,7.5v27.2c0,4.14213 -3.35787,7.5 -7.5,7.5z"/></g></g></svg>