<svg version="1.1" xmlns="http://www.w3.org/2000/svg" xmlns:xlink="http://www.w3.org/1999/xlink" width="82.41831" height="101.14882" viewBox="0,0,82.41831,101.14882"><g transform="translate(-279.03365,-144.84171)"><g data-paper-data="{&quot;isPaintingLayer&quot;:true}" fill-rule="nonzero" stroke="none" stroke-linecap="butt" stroke-linejoin="miter" stroke-miterlimit="10" stroke-dasharray="" stroke-dashoffset="0" style="mix-blend-mode: normal"><path d="M360.81551,238.21793c1.42528,1.20168 0.13726,3.90709 -0.7608,5.54078c-2.22585,4.04911 -81.02106,1.3514 -81.02106,1.3514l0.46635,-7.7976v-2c0,-5.98036 -0.35789,-11.77143 1.07464,-17.60634c1.08773,-4.34288 2.17716,-9.45137 4.17957,-13.49204c0.53366,-1.07687 1.46097,-1.92581 2,-3c0.50907,-1.01448 0.53662,-2.2418 1.11916,-3.21595c0.48388,-0.80916 1.51493,-1.19155 2,-2c0.13028,-0.21713 0.22415,-0.45104 0.29917,-0.69363c-0.01271,-0.00882 -0.02511,-0.01756 -0.03718,-0.02619c-0.88132,-0.26258 -1.81511,-0.42626 -2.55399,-0.95734c-4.25035,-3.05497 -7.07387,-12.06089 -2.98883,-16.38568c0.88353,-0.93538 2.34001,-1.0708 3.51001,-1.6062c0,0 0.12679,-0.04876 0.33262,-0.094c-0.3396,-3.39655 -0.09893,-7.03544 0.01455,-10.38527c-1.60283,-1.76413 -1.33175,-6.2358 -0.93686,-7.81792c1.41067,-5.65193 8.30867,-6.66376 12.5949,-3.60217c0.25342,0.18101 0.51114,0.4711 0.76198,0.81913c0.32038,-1.20365 0.76176,-2.37758 1.18788,-3.54844c0.38661,-1.06229 0.58553,-2.78692 1.15401,-3.77229c3.78361,-6.55826 8.52811,6.21415 9.77993,8.2036c0.40758,0.64774 1.49316,-0.40784 2.25844,-0.41303c1.83329,-0.01243 3.66682,-0.0236 5.5,0c1.2018,0.01547 2.73133,0.4922 3.88015,0.69574c0.45317,0.08029 1.2189,0.84575 1.32227,0.39729c0.27177,-1.17896 0.34642,-1.66812 0.52378,-2.46869c0.2102,-0.94883 2.62299,-13.99374 6.29463,-7.87434c1.77164,2.95274 2.01095,6.6174 3.73033,9.71359c0.36242,0.65264 1.09794,-1.03549 1.75259,-1.39427c1.72364,-0.94465 4.89646,-0.75902 6.37384,0.58406c8.50099,7.72818 1.33559,25.67868 -2.41618,34.18063c-0.50437,1.14296 -1.04263,4.28055 -1.66934,6.65744c0.53927,0.50981 1.05471,1.0397 1.48603,1.64053c0.82251,1.14575 0.94901,2.71892 1.84609,3.80727c1.91318,2.32108 5.3599,3.456 7.15391,6.19273c2.82955,4.31643 2.36552,5.18292 4.06249,9.8029c1.35811,3.69745 2.81842,7.39736 3.39068,11.35342c0.26659,1.84292 0.28098,3.75534 0.89044,5.51489l1,3c0,0 0.05772,0.17317 0.09518,0.44152c0.12006,0.0753 0.23639,0.15986 0.34862,0.25448zM315.1776,220.45722c5.46442,2.68408 5.3408,15.14445 4.96445,20.11794c1.28204,0.51555 2.83699,0.49784 4.14935,0.89127c1.90495,0.57108 4.51708,0.02675 6.51659,-0.05525c-0.69906,-1.93124 -2.30494,-7.18614 -3.09426,-9.0873c-1.85641,-4.47131 -1.21371,-9.31745 -1.21371,-14.01138c0,0 0,-2.5 2.5,-2.5c2.5,0 2.5,2.5 2.5,2.5c0,3.8192 -0.82191,8.37779 0.78629,11.98862c0.94172,2.11442 2.33958,4.02962 3.08542,6.22081c0,0 0.63535,4.67892 0.83129,5.43135c4.17365,0 15.07305,0 16.07305,0c0,0 3.50484,0.12231 3.18039,-0.88127c-0.32445,-1.00358 -1.35082,-7.00845 -1.50322,-8.05507c-3.81322,0.18175 -7.39845,-0.14686 -11.20002,-0.89468c-2.56987,-0.50553 -5.02935,-0.8988 -6.36286,-3.69036c-1.11489,-2.33389 -0.44765,-5.15773 -0.84835,-7.71301c-0.43375,-2.76605 -3.43717,-4.3765 -4.33385,-7.129c-1.05389,-3.23507 -0.76131,-8.18366 2.05331,-10.49791c1.52358,-1.25272 3.41971,-1.36638 5.26119,-1.35056c-0.15857,-0.33808 -0.33575,-0.66458 -0.55075,-0.96715c-0.26403,-0.37157 -0.57146,-0.70614 -0.89913,-1.02347c-0.95269,-0.00339 -1.42493,-0.59431 -1.61257,-1.45221c-0.07695,-0.07196 -0.15303,-0.14465 -0.22796,-0.21833c0,0 -1.76777,-1.76777 0,-3.53553c0.18553,-0.18553 0.37107,-0.33212 0.55456,-0.4459c0.13146,-0.57862 0.26864,-1.09845 0.37225,-1.4952c2.21006,-8.46281 6.72921,-15.27905 6.92429,-24.31424c0.06561,-3.03905 0.28017,-8.59786 -1.75,-8.90399c-2.54654,-0.38399 -1.66713,5.06339 -4.31033,5.59203c-2.84067,0.56814 -2.65471,-2.16801 -3.55344,-3.86582c-0.78918,-1.49085 -1.98304,-6.1135 -2.36948,-4.47152c-0.70821,3.00915 -0.23656,5.30791 -3.21033,6.2609c-1.8259,0.58514 -5.39637,-2.09485 -7.44752,-2.18224c-1.89576,-0.08077 -3.84514,-0.35414 -5.69184,0.08191c-1.45587,0.34376 -2.94321,1.59851 -4.35196,1.09539c-2.23802,-0.79929 -2.02988,-6.68631 -3.89017,-7.90394c-0.93796,-0.61392 -0.7547,2.11959 -0.97368,3.219c-0.41704,2.09382 -0.80496,5.00623 -2.39619,6.59834c-0.45142,0.65023 -1.20352,1.07596 -2.05506,1.07596c-1.38071,0 -2.5,-1.11929 -2.5,-2.5c0,-0.22154 0.02882,-0.43636 0.08291,-0.6409c-2.15853,-1.94621 -1.34228,-5.01459 -5.50133,-3.79775c-1.33238,0.38982 -1.28207,1.64963 -1.0127,3.09331c1.34778,0.61643 1.34778,2.27243 1.34778,2.27243c0,4.80815 -1.09455,11.41138 0.63308,15.97862c1.3314,3.51974 6.02385,5.86044 5.3448,10.35321c-0.35331,2.33758 -2.87201,3.74276 -4.18828,5.72348c7.36033,-1.00574 15.33223,-1.85557 22.10817,1.40243c4.21,2.02424 7.2908,7.33667 3.34541,11.48426c-3.71938,3.91 -12.5613,1.9443 -17.18148,1.49661c-2.89167,-0.2802 -4.07112,-1.00417 -6.1832,0.86834c-3.20111,4.34467 -4.61885,6.45806 -10.37851,6.54304h-0.6c0,0 -0.22093,0 -0.53143,-0.06567c-0.14907,0.62169 -0.29579,1.23119 -0.4432,1.82201c-1.33093,5.21486 -0.95064,16.05165 -0.92651,21.41471c4.1685,0 8.33698,0.27605 12.50548,0.27605c0.28411,-0.35508 0.56954,-6.35043 0.56954,-6.35043l2.35516,-1.41501c0.94405,-6.11641 0.57095,-12.34814 0.57095,-18.53165c0,0 0,-2.5 2.5,-2.5c2.5,0 2.5,2.5 2.5,2.5c0,2.03423 0.0193,4.02434 0.01219,5.99147c3.11411,-0.33859 6.76444,-1.2717 9.66541,0.15324zM292.19057,190.69079l0.64619,0.4413c0.77838,-0.60747 1.49566,-1.23634 1.68536,-2.15143c0.11825,-0.57039 -0.46554,-1.0719 -0.76791,-1.56979c-1.30182,-2.1436 -3.36767,-3.86295 -4.2433,-6.21306c-0.01,-0.02685 -0.01993,-0.05374 -0.02979,-0.08068c-4.05611,1.44127 -0.7437,8.62496 2.70945,9.57365z" fill="#000000" stroke-width="0.5"/><path d="M315.16723,220.50613c-2.90097,-1.42494 -6.56804,-0.49873 -9.68215,-0.16014c0.00711,-1.96713 -0.01815,-3.96176 -0.01815,-5.99599c0,0 -0.00561,-2.50582 -2.50561,-2.50582c-2.5,0 -2.42307,2.43612 -2.42307,2.43612c0,6.18351 0.35973,12.40407 -0.58432,18.52048l-2.35381,1.41581c0,0 -0.33534,6.08196 -0.61945,6.43704c-4.1685,0 -8.34537,-0.28173 -12.51387,-0.28173c-0.02413,-5.36306 -0.41507,-16.21223 0.91586,-21.42709c0.14741,-0.59082 0.29327,-1.20178 0.44234,-1.82347c0.3105,0.06567 0.61839,0.0163 0.61839,0.0163l0.5998,-0.00034c5.75966,-0.08498 7.09063,-2.14867 10.29174,-6.49334c2.11208,-1.87251 3.37567,-1.20228 6.26734,-0.92208c4.62018,0.44769 13.41773,2.39278 17.13711,-1.51722c3.94539,-4.14759 0.82287,-9.43083 -3.38713,-11.45507c-6.77594,-3.258 -14.75204,-2.39267 -22.11237,-1.38693c1.31627,-1.98072 3.83835,-3.39949 4.19166,-5.73707c0.67905,-4.49277 -4.00759,-6.84398 -5.33899,-10.36372c-1.72763,-4.56724 -0.6229,-11.18093 -0.6229,-15.98908c0,0 0.00027,-1.6562 -1.34751,-2.27263c-0.26937,-1.44368 -0.31742,-2.7051 1.01496,-3.09492c4.15905,-1.21684 3.34528,1.84998 5.50381,3.79619c-0.05409,0.20454 -0.03179,0.50531 -0.03179,0.72685c0,1.38071 1.06873,2.41373 2.44944,2.41373c0.85154,0 1.60633,-0.42716 2.05775,-1.07739c1.59123,-1.59211 1.98456,-4.5068 2.4016,-6.60062c0.21898,-1.09941 0.03778,-3.8336 0.97574,-3.21968c1.86029,1.21763 1.65396,7.10413 3.89198,7.90342c1.40875,0.50312 2.90197,-0.75282 4.35784,-1.09658c1.8467,-0.43605 3.80368,-0.16316 5.69944,-0.08239c2.05115,0.08739 5.63201,2.76861 7.45791,2.18347c2.97377,-0.95299 2.5041,-3.25126 3.21231,-6.26041c0.38644,-1.64198 1.5845,2.982 2.37368,4.47285c0.89873,1.69781 0.71854,4.4365 3.55921,3.86836c2.6432,-0.52864 1.76505,-5.97535 4.31159,-5.59136c2.03017,0.30613 1.82212,5.86925 1.75651,8.9083c-0.19508,9.03519 -4.69749,15.87523 -6.90755,24.33804c-0.10361,0.39675 -0.23969,0.92043 -0.37115,1.49905c-0.18349,0.11378 -0.36881,0.26131 -0.55434,0.44684c-1.76777,1.76776 0.00118,3.54684 0.00118,3.54684c0.07493,0.07368 0.151,0.14707 0.22795,0.21903c0.18764,0.8579 0.65961,1.45292 1.6123,1.45631c0.32767,0.31733 0.63477,0.65441 0.8988,1.02598c0.215,0.30257 0.39177,0.63133 0.55034,0.96941c-1.84148,-0.01582 -3.73997,0.10587 -5.26355,1.35859c-2.81462,2.31425 -3.12464,7.28536 -2.07075,10.52043c0.89668,2.7525 3.89915,4.36362 4.3329,7.12967c0.4007,2.55528 -0.31849,5.29384 0.7964,7.62773c1.33351,2.79156 3.78897,3.18725 6.35884,3.69278c3.80157,0.74782 7.37974,1.08212 11.19296,0.90037c0.1524,1.04662 1.24533,7.12601 1.56978,8.12959c0.32445,1.00358 -3.18258,0.88297 -3.18258,0.88297c-1,0 -11.91168,0.0066 -16.08533,0.0066c-0.19594,-0.75243 -0.86715,-5.52469 -0.86715,-5.52469c-0.74584,-2.19119 -2.14295,-4.10668 -3.08467,-6.2211c-1.6082,-3.61083 -0.79313,-8.1662 -0.79313,-11.9854c0,0 0.04721,-2.41188 -2.45279,-2.41188c-2.5,0 -2.50728,2.50299 -2.50728,2.50299c0,4.69393 -0.66899,9.44369 1.18742,13.915c0.78932,1.90116 2.41832,7.25335 3.11738,9.18459c-1.99951,0.082 -4.6188,0.62757 -6.52375,0.05649c-1.31236,-0.39343 -2.87205,-0.37547 -4.15409,-0.89102c0.37635,-4.97349 0.48938,-17.43495 -4.97504,-20.11903z" data-paper-data="{&quot;noHover&quot;:false,&quot;origItem&quot;:[&quot;Path&quot;,{&quot;applyMatrix&quot;:true,&quot;segments&quot;:[[[315.1776,220.45722],[0,0],[5.46442,2.68408]],[[320.14205,240.57517],[0.37635,-4.97349],[1.28204,0.51555]],[[324.2914,241.46643],[-1.31236,-0.39343],[1.90495,0.57108]],[[330.808,241.41118],[-1.99951,0.082],[-0.69906,-1.93124]],[[327.71373,232.32388],[0.78932,1.90116],[-1.85641,-4.47131]],[[326.50002,218.3125],[0,4.69393],[0,0]],[[329.00002,215.8125],[-2.5,0],[2.5,0]],[[331.50002,218.3125],[0,0],[0,3.8192]],[[332.28631,230.30112],[-1.6082,-3.61083],[0.94172,2.11442]],[[335.37173,236.52193],[-0.74584,-2.19119],[0,0]],[[336.20302,241.95329],[-0.19594,-0.75243],[4.17365,0]],[[352.27608,241.95329],[-1,0],[0,0]],[[355.45647,241.07202],[0.32445,1.00358],[-0.32445,-1.00358]],[[353.95325,233.01694],[0.1524,1.04662],[-3.81322,0.18175]],[[342.75323,232.12226],[3.80157,0.74782],[-2.56987,-0.50553]],[[336.39037,228.4319],[1.33351,2.79156],[-1.11489,-2.33389]],[[335.54202,220.71889],[0.4007,2.55528],[-0.43375,-2.76605]],[[331.20817,213.58989],[0.89668,2.7525],[-1.05389,-3.23507]],[[333.26148,203.09198],[-2.81462,2.31425],[1.52358,-1.25272]],[[338.52267,201.74142],[-1.84148,-0.01582],[-0.15857,-0.33808]],[[337.97192,200.77427],[0.215,0.30257],[-0.26403,-0.37157]],[[337.07279,199.7508],[0.32767,0.31733],[-0.95269,-0.00339]],[[335.46022,198.29859],[0.18764,0.8579],[-0.07695,-0.07196]],[[335.23226,198.08026],[0.07493,0.07368],[0,0]],[[335.23226,194.54473],[-1.76777,1.76776],[0.18553,-0.18553]],[[335.78682,194.09883],[-0.18349,0.11378],[0.13146,-0.57862]],[[336.15907,192.60363],[-0.10361,0.39675],[2.21006,-8.46281]],[[343.08336,168.28939],[-0.19508,9.03519],[0.06561,-3.03905]],[[341.33336,159.3854],[2.03017,0.30613],[-2.54654,-0.38399]],[[337.02303,164.97743],[2.6432,-0.52864],[-2.84067,0.56814]],[[333.46959,161.11161],[0.89873,1.69781],[-0.78918,-1.49085]],[[331.10011,156.64009],[0.38644,-1.64198],[-0.70821,3.00915]],[[327.88978,162.90099],[2.97377,-0.95299],[-1.8259,0.58514]],[[320.44226,160.71875],[2.05115,0.08739],[-1.89576,-0.08077]],[[314.75042,160.80066],[1.8467,-0.43605],[-1.45587,0.34376]],[[310.39846,161.89605],[1.40875,0.50312],[-2.23802,-0.79929]],[[306.50829,153.99211],[1.86029,1.21763],[-0.93796,-0.61392]],[[305.53461,157.21111],[0.21898,-1.09941],[-0.41704,2.09382]],[[303.13842,163.80945],[1.59123,-1.59211],[-0.45142,0.65023]],[[301.08336,164.88541],[0.85154,0],[-1.38071,0]],[[298.58336,162.38541],[0,1.38071],[0,-0.22154]],[[298.66627,161.74451],[-0.05409,0.20454],[-2.15853,-1.94621]],[[293.16494,157.94676],[4.15905,-1.21684],[-1.33238,0.38982]],[[292.15224,161.04007],[-0.26937,-1.44368],[1.34778,0.61643]],[[293.50002,163.3125],[0,0],[0,4.80815]],[[294.1331,179.29112],[-1.72763,-4.56724],[1.3314,3.51974]],[[299.4779,189.64433],[0.67905,-4.49277],[-0.35331,2.33758]],[[295.28962,195.36781],[1.31627,-1.98072],[7.36033,-1.00574]],[[317.39779,196.77024],[-6.77594,-3.258],[4.21,2.02424]],[[320.7432,208.2545],[3.94539,-4.14759],[-3.71938,3.91]],[[303.56172,209.75111],[4.62018,0.44769],[-2.89167,-0.2802]],[[297.37852,210.61945],[2.11208,-1.87251],[-3.20111,4.34467]],[[287.00001,217.16249],[5.75966,-0.08498],[0,0]],[286.40001,217.16249],[[285.86858,217.09682],[0.3105,0.06567],[-0.14907,0.62169]],[[285.42538,218.91883],[0.14741,-0.59082],[-1.33093,5.21486]],[[284.49887,240.33354],[-0.02413,-5.36306],[4.1685,0]],[[297.00435,240.60959],[-4.1685,0],[0.28411,-0.35508]],[297.57389,234.25916],[[299.92905,232.84415],[0,0],[0.94405,-6.11641]],[[300.5,214.3125],[0,6.18351],[0,0]],[[303,211.8125],[-2.5,0],[2.5,0]],[[305.5,214.3125],[0,0],[0,2.03423]],[[305.51219,220.30397],[0.00711,-1.96713],[3.11411,-0.33859]],[[315.1776,220.45721],[-2.90097,-1.42494],[0,0]]],&quot;closed&quot;:true,&quot;fillColor&quot;:[0,0,0,1]}]}" fill="#ffffff" stroke-width="0.5"/><path d="M292.20243,190.73935c-3.45315,-0.94869 -6.79259,-8.2286 -2.73648,-9.66987c0.00986,0.02694 0.01983,0.05382 0.02983,0.08067c0.87563,2.35011 3.00169,4.13876 4.30351,6.28236c0.30237,0.49789 0.87959,1.00966 0.76134,1.58005c-0.1897,0.91509 -0.92889,1.55923 -1.70727,2.1667l-0.65092,-0.43989z" data-paper-data="{&quot;noHover&quot;:false,&quot;origItem&quot;:[&quot;Path&quot;,{&quot;applyMatrix&quot;:true,&quot;segments&quot;:[[584.38114,381.38158],[[585.67352,382.26418],[0,0],[1.55676,-1.21494]],[[589.04424,377.96132],[-0.3794,1.83018],[0.2365,-1.14078]],[[587.50842,374.82174],[0.60474,0.99578],[-2.60364,-4.2872]],[[579.02182,362.39562],[1.75126,4.70022],[-0.02,-0.0537]],[[578.96224,362.23426],[0.01972,0.05388],[-8.11222,2.88254]],[[584.38114,381.38156],[-6.9063,-1.89738],[0,0]]],&quot;closed&quot;:true,&quot;fillColor&quot;:[0,0,0,1],&quot;strokeWidth&quot;:0.5}]}" fill="#ff6cbf" stroke-width="0.25"/></g></g></svg>