<svg version="1.1" xmlns="http://www.w3.org/2000/svg" xmlns:xlink="http://www.w3.org/1999/xlink" width="105.45056" height="146.16957" viewBox="0,0,105.45056,146.16957"><g transform="translate(-267.01581,-96.20168)"><g data-paper-data="{&quot;isPaintingLayer&quot;:true}" fill-rule="nonzero" stroke="none" stroke-linecap="butt" stroke-linejoin="miter" stroke-miterlimit="10" stroke-dasharray="" stroke-dashoffset="0" style="mix-blend-mode: normal"><path d="M337.18732,143.25322c1.64407,-7.39408 1.27067,-16.44139 -6.80307,-19.81851c-0.33399,-0.1397 -5.18273,-0.72132 -5.83393,-0.80272l-0.97751,-0.01575c0,0 -1.07228,0.03721 -1.81019,0.70051c-1.76056,0.00715 -3.80405,-0.02008 -4.14767,0.1284c-1.34272,0.5802 -3.60519,3.45873 -4.63697,4.69649c-2.80115,3.36033 -5.24575,6.73631 -4.91854,11.40703c0.07693,1.09804 0.2244,2.24707 0.53999,3.27364c-3.67579,-0.13938 -7.44499,-0.29528 -11.02997,-0.40457c-0.81757,-0.02492 -4.27408,-0.01521 -4.83693,-1.33021c-0.80286,-1.8757 1.49781,-7.13599 1.92029,-8.91158c1.72091,-7.23256 4.68628,-14.83338 7.17059,-21.87653c1.01836,-2.88711 1.53054,-6.89649 4.88014,-8.13857c5.63972,-2.09129 19.63855,-1.27873 26.61485,0.18161c5.16541,1.08128 13.68454,8.14064 15.09253,13.44397c0.63045,2.37462 1.17876,8.69383 1.2461,10.71148c0.13272,3.97666 -0.43977,7.2233 0.19532,10.82218c0.21346,1.20959 0.31142,2.37884 0.4638,3.59269c0.01376,0.10966 0.28366,1.8919 0.22007,1.89466c-4.93373,0.21384 -8.90171,-0.16365 -13.3489,0.44579z" data-paper-data="{&quot;noHover&quot;:false,&quot;origItem&quot;:[&quot;Path&quot;,{&quot;applyMatrix&quot;:true,&quot;segments&quot;:[[[700.99105,285.55674],[-9.86746,0.42769],[0.12719,-0.00551]],[[700.54859,281.77083],[0.02753,0.21931],[-0.30474,-2.4277]],[[699.61662,274.59283],[0.42691,2.41918],[-1.27019,-7.19775]],[[699.21526,252.98039],[0.26545,7.95331],[-0.13468,-4.03531]],[[696.72455,231.59577],[1.26089,4.74924],[-2.81599,-10.60666]],[[666.58568,204.77083],[10.33083,2.16255],[-13.95259,-2.92069]],[[613.46683,204.40188],[11.27944,-4.18258],[-6.69921,2.48417]],[[603.73263,220.65018],[2.03672,-5.77421],[-4.96862,14.08631]],[[589.3993,264.31684],[3.44183,-14.46512],[-0.84497,3.55118]],[[585.54859,282.12005],[-1.60571,-3.7514],[1.12571,2.62999]],[[595.21526,284.77083],[-1.63513,-0.04985],[7.16995,0.21859]],[[617.2519,285.55981],[-7.35159,-0.27876],[-0.63116,-2.05314]],[[616.05768,279.17638],[0.15385,2.19608],[-0.65442,-9.34144]],[[625.87415,256.34074],[-5.60231,6.72066],[2.06357,-2.47551]],[[635.13517,246.92227],[-2.68545,1.16039],[0.68725,-0.29696]],[[643.50827,246.53493],[-3.52112,0.0143],[1.47582,-1.3266]],[647.04859,245.20833],[[649.0021,245.24694],[0,0],[1.30239,0.1628]],[[660.86739,246.8842],[-0.66798,-0.2794],[16.14747,6.75422]],[[674.43409,286.58682],[3.28815,-14.78817],[8.89438,-1.21886]]],&quot;closed&quot;:true}]}" fill="#ffffff" stroke-width="0.5"/><path d="M361.40054,184.34053c1.82859,-0.16187 4.00363,-0.2707 5.20861,-1.95733c1.72845,-2.41932 0.94081,-6.24262 -1.93431,-7.16235c-0.97537,-0.31201 -3.46192,0.58411 -4.11775,0.76918c0,0 -0.16384,0.04468 -0.41776,0.06806c-0.00533,0.72897 -0.00675,1.33445 0.00739,1.65673c0.08408,1.91548 0.56236,4.49784 0.522,6.7661zM366.12375,170.43539c6.22765,1.81137 8.11254,9.78611 4.56569,14.83765c-2.11992,3.01926 -5.43605,3.67798 -8.79139,4.04267l-1.00847,0.21386c0,0 -1.03954,0.20791 -1.90013,-0.32399c-0.30926,0.3982 -0.62331,0.79407 -0.89534,1.21034c-2.11225,1.19754 -4.47413,2.06642 -6.88027,2.39232c-7.23212,0.97957 -12.90687,-2.40252 -16.85973,-7.57473c-0.59298,1.9253 -0.98563,3.95113 -0.73133,5.73156c0.69953,4.89764 4.75787,10.66144 8.23534,14.03825c1.34775,1.30874 3.51218,1.64732 5.30084,2.42417c3.16919,-5.16693 9.71856,-12.82596 15.4097,-6.45125v0.00002c0.83057,0.93033 1.30563,2.14834 1.70808,3.32876c1.07938,3.16594 1.55783,8.56694 1.09604,11.88614c-0.38461,2.76452 -1.86851,5.32476 -2.54521,7.98144c-0.43769,1.71833 -0.03148,3.58795 -0.51145,5.29495c-0.7799,2.77372 -1.71376,3.64886 -3.33376,5.81052c-3.98294,3.48412 -9.01315,5.53963 -14.46018,4.22012c-1.70013,-0.41184 -3.16265,-1.53325 -4.84127,-2.0255l0.21837,0.10543c0,0 -1.70481,0 -2.29881,-1.40781c-3.2316,-0.19635 -6.82007,-2.3324 -9.03806,-3.72966c-2.14496,-1.35126 -5.53759,-2.9918 -7.11183,-5.04646c-2.03119,-2.65107 -3.12591,-6.18639 -3.87951,-9.76996c-1.07235,2.70998 -1.75478,6.0769 -3.29516,8.51822c-2.35279,3.72889 -7.70726,8.76709 -12.15386,9.64056c-0.05969,0.01172 -0.11937,0.02283 -0.17904,0.03332l-0.70592,1.20662c-7.0785,4.93447 -14.06457,6.40611 -22.54452,4.61487c-7.89452,-5.10507 -11.5266,-12.09911 -11.54329,-21.5597c-0.00443,-2.51275 -0.47471,-5.88689 0.37695,-8.28652c2.09799,-5.91135 9.10893,-10.83357 14.77756,-6.08767c0.82801,0.69323 1.69449,2.2332 2.39969,3.62175c2.25992,-0.54025 4.8797,0.21582 7.20193,-1.16614c5.08841,-3.02812 7.88819,-8.70105 10.52812,-13.73918c1.30509,-2.49068 2.68169,-4.30006 3.33248,-6.6142c-4.83283,1.07902 -11.27777,-0.15254 -15.68999,-0.61748c-1.22347,-0.77556 -5.20914,-3.06638 -5.76208,-4.4683c-0.1776,-0.45028 -0.26274,-0.91633 -0.28356,-1.39226h-0.38109c-2.89637,-0.07403 -4.11467,0.38178 -6.51777,-1.98223c-2.73251,-2.68806 -3.27574,-9.73051 -1.39594,-13.02011c0.58195,-1.01839 1.66838,-1.65204 2.55932,-2.41493c2.87904,-2.46524 6.53325,-4.73416 10.41872,-2.45935c0.00452,0.00265 0.00903,0.0053 0.01353,0.00797c0.52154,-1.14385 1.24492,-2.16591 2.29048,-2.96485c1.54168,-1.17804 3.89195,-0.50008 5.68889,-1.23191c2.39545,-0.97559 3.90572,-2.47358 5.8187,-4.08521c2.28385,-1.92407 4.28021,-2.75702 5.69911,-5.13875c-5.26611,0.2669 -12.01989,0.5155 -16.04062,-1.65354c-0.93088,-0.50218 -3.74086,-1.08829 -4.09692,-2.2498c-1.90942,-6.22858 1.95721,-15.2183 4.3287,-20.95591c4.12059,-9.96936 4.50062,-27.65929 19.31856,-26.95756c4.36853,0.20688 8.73297,0.5042 13.10349,0.66346c6.82524,0.24872 11.3527,0.66587 17.38812,4.09727c1.64688,0.93632 2.99805,2.84551 4.24764,4.23288c9.43938,10.48006 7.95329,16.0272 8.13432,30.46295c0.04111,3.27809 1.71495,6.74274 0.90273,9.99161c-1.11541,4.46162 -12.60645,2.24972 -15.88304,2.37813c-0.748,0.02931 -2.54192,0.6331 -3.83334,0.50379c-0.16923,0.68407 -0.35813,1.35919 -0.68223,1.97392c7.07003,3.69461 11.75903,9.86571 17.46189,15.44567c1.14972,1.12494 3.31911,0.28504 4.69369,1.12042c1.2564,0.76357 2.24042,2.06777 2.75367,3.4455c0.02779,0.0746 0.05016,0.21023 0.06807,0.39378c1.99535,-0.56843 3.82608,-1.13833 6.03469,-0.49593zM287.17591,167.36298c-1.9212,-2.9202 -5.32834,-1.37964 -7.11291,1.46749c-0.6863,1.09493 -0.21171,2.58167 -0.16681,3.87312c0.10194,2.93218 0.8574,3.74811 3.7531,3.62453h1.25c0,0 0.01776,0 0.05027,0.0015c0.37741,-1.90572 1.31135,-3.66714 1.76231,-5.55736c0.24169,-1.01304 0.40092,-2.13517 0.56751,-3.29075c-0.06768,-0.07252 -0.10347,-0.11853 -0.10347,-0.11853zM345.7764,234.65806c3.50063,0.91542 7.00416,-0.56028 9.53982,-2.77988c2.34909,-3.12843 1.76937,-5.29863 2.65479,-8.89452c0.829,-3.36677 2.63501,-6.20505 2.4314,-9.781c-0.13242,-2.3257 -0.24779,-5.10553 -0.88056,-7.35142c-0.2487,-0.8827 -0.5428,-2.18648 -1.44693,-2.33999c-0.89524,-0.152 -2.14594,1.1271 -2.60137,1.50898c-2.08484,1.74812 -3.33081,3.65691 -4.63885,6.02201c0,0 -0.3561,0.64097 -1.02972,1.0358c-0.0708,0.46414 -0.15178,0.9275 -0.1832,1.37005c-0.18623,2.62269 -0.85664,5.408 -1.59947,7.91672c-0.65087,1.77809 -1.58146,3.44155 -2.31964,5.1852c-1.00207,2.36698 -1.17987,4.97697 -2.58904,6.98268c0.86834,0.43218 1.72997,0.88143 2.66279,1.12537zM278.99478,209.45233c-2.5079,-2.4139 -5.95447,1.66167 -6.72244,3.91233c-0.6359,1.86362 -0.11936,4.78464 -0.12305,6.71348c-0.01399,7.3052 2.49408,12.77687 8.45671,16.9403c5.53812,0.99603 10.17367,0.23309 14.85004,-2.18738c-2.0308,-0.90467 -3.90265,-2.2501 -5.47405,-3.6401c-2.68701,-2.37682 -4.64402,-5.20388 -6.54931,-8.20669c-1.02238,-2.45293 -3.1678,-6.79452 -2.44513,-9.90076c-0.44792,-0.92639 -1.56939,-3.22367 -1.99277,-3.63118zM327.64805,190.06573c-4.26213,0.42621 -9.0731,1.42767 -13.34551,0.73824c-1.35586,-0.21879 -2.69386,-0.63773 -4.04866,-0.84852c-0.80733,2.2566 -2.0674,4.25683 -3.38883,6.78045c-2.69756,5.15168 -5.38364,9.87219 -9.81125,13.71643c-2.01093,1.74597 -3.1853,2.62712 -5.81004,3.3041c-0.96411,0.24866 -1.97508,0.27855 -2.96993,0.3186c-0.79653,0.03207 -2.21133,-0.65611 -2.38847,0.12114c-0.39718,1.74272 1.34515,4.95026 1.98054,6.47583c1.58652,2.48399 3.23667,4.81328 5.45069,6.79331c0.69569,0.62217 1.39953,1.2453 2.18008,1.75698c1.54536,1.01305 2.94501,1.45618 4.24504,1.47945c0.36677,-0.15981 0.809,-0.2354 1.32213,-0.12176c2.65549,-0.53832 4.92539,-2.77292 7.26651,-5.21692c2.67272,-2.79017 3.29793,-6.48212 4.76327,-10.00133c2.24876,-5.40069 3.60385,-10.79252 5.14375,-16.44139l0.18121,-1.65229c0,0 0.31009,-2.48069 2.79078,-2.17061c2.48069,0.31009 2.17061,2.79078 2.17061,2.79078l-0.31879,2.34771c-0.73432,2.69132 -1.43198,5.33005 -2.19857,7.94023c0.18849,0.38663 0.24633,0.70476 0.24633,0.70476c0.84513,4.64913 1.2779,11.4965 4.23902,15.38115c1.20441,1.58004 4.27147,2.92959 5.88817,3.95354c1.39472,0.88335 5.47993,3.75794 7.38899,2.83193c0.89408,-0.43368 1.53544,-3.38273 1.64073,-3.72396c0.82005,-2.65752 2.06891,-4.9222 3.01041,-7.53213c0.71928,-2.35857 0.69155,-4.73382 1.40053,-7.08328c0.10266,-0.34021 0.72918,-0.62696 0.53302,-0.92327c-0.22803,-0.34446 -0.83129,-0.03305 -1.23216,-0.13284c-2.80996,-0.6995 -3.25762,-0.90038 -5.53723,-2.99914c-4.30125,-3.96002 -8.98619,-11.0745 -9.76466,-16.96175c-0.07056,-0.53358 -0.10517,-1.07441 -0.10872,-1.61974zM324.1524,157.7036c-0.00103,-0.87516 -0.00207,-1.75031 -0.0031,-2.62547c0,0 0,-0.02104 0.00193,-0.05926c-0.4836,-0.04661 -0.9666,-0.1149 -1.44737,-0.20393c0.06172,0.67895 0.12345,1.3579 0.18517,2.03685l0.12529,1.1253c0.35931,-0.02392 0.72865,-0.01727 1.10802,0.02319zM318.16459,159.60421l-0.25502,-2.29974c-0.08333,-0.91667 -0.16667,-1.83333 -0.25,-2.75c0,0 -0.06143,-0.67573 0.23175,-1.35513c-1.79939,-0.88971 -3.47173,-2.06466 -4.91044,-3.46374c-1.87845,3.43536 -4.22703,4.73436 -7.20751,7.24315c-2.29369,1.93069 -4.2995,3.7775 -7.1813,4.91479c-1.04142,0.411 -2.13234,0.71635 -3.23792,0.89285c-0.51946,0.08293 -1.14464,-0.42984 -1.57319,-0.12477c-0.47944,0.34131 -0.39989,1.1071 -0.58941,1.66427c-0.88509,2.60206 -0.98282,4.94108 -1.60484,7.55808c-0.6143,2.58457 -1.34916,5.23723 -1.96495,7.8141c-0.10785,0.45133 -0.7691,0.7929 -0.63712,1.23778c0.11025,0.37164 0.77027,0.16215 1.10858,0.35141c0.58528,0.32743 1.08623,0.78686 1.62934,1.18029c3.40988,0.17093 6.75927,0.35181 10.17673,0.36056c0.91513,0.00234 3.0064,0.14858 3.97958,-0.28227c4.74717,-2.10166 6.43671,-9.52048 7.31897,-13.95803l1.05772,-2.04595c0,0 0.11689,-0.19481 0.33891,-0.43174c0.81496,-1.96129 2.06445,-4.20717 3.74445,-5.84349c-0.14202,-0.37161 -0.17434,-0.66245 -0.17434,-0.66245zM332.89929,166.57814l-0.01027,1.02366c0.29649,3.28508 1.20329,6.91672 2.72877,10.19188c0.09954,0.07825 0.1994,0.16683 0.29926,0.26669c0.63024,0.63024 0.8111,1.26048 0.78289,1.81062c2.9451,5.06571 7.56103,8.76019 13.88478,7.97702c1.41123,-0.17478 2.86296,-0.44236 4.11973,-1.10768c2.01445,-2.85465 0.37108,-8.49665 0.44483,-11.91219c0.0235,-1.08843 0.95864,-3.10267 -0.11803,-3.26393c-0.76013,-0.11385 -1.56805,0.40993 -2.2993,0.17322c-3.61245,-1.16939 -4.64599,-3.94366 -7.09351,-6.38463c-4.32626,-4.31466 -8.94648,-8.94654 -14.67257,-11.25987c-0.60682,0.24508 -1.2266,0.44304 -1.85539,0.59613c0.03881,0.23352 0.03881,0.38908 0.03881,0.38908c-0.00103,0.95818 -0.00207,1.91636 -0.0031,2.87453l-0.2593,2.62423c0,0 -0.00737,0.0737 -0.03226,0.19445c0.94768,1.10495 1.75229,2.37304 2.54894,3.47304c1.49573,0.55868 1.49573,2.33375 1.49573,2.33375zM319.38194,145.26738c0.04435,-0.02217 0.08781,-0.04171 0.1304,-0.05878c-0.09429,-0.16727 -0.15472,-0.38168 -0.15472,-0.65652c0,-1.25 1.25,-1.25 1.25,-1.25c2.15856,0.03341 5.75891,1.13018 5.74952,4.04865c-0.00419,1.30116 -0.72836,2.41109 -1.73952,3.04013c1.67821,0.19635 3.31223,-0.06557 4.72252,-0.94013c1.12029,-1.0582 1.68634,-2.62655 2.13407,-4.10112c1.43968,-4.74154 3.92213,-14.76146 -2.85933,-17.25004c-0.87601,-0.32147 -1.81377,-0.37481 -2.75793,-0.40418c-0.72704,0.57545 -1.666,0.57545 -1.666,0.57545c-1.57126,0 -3.2615,-0.79927 -4.70996,-0.1903c-1.30854,0.55014 -1.79427,2.20013 -2.70282,3.29076c-1.99872,2.39928 -3.92534,4.55122 -3.75843,7.91551c0.07266,1.46461 0.62868,2.96724 1.51518,4.37645c1.60176,-2.5267 3.16842,-5.08844 4.89654,-7.51502c0.28662,-0.40247 2.58331,-2.17055 2.59572,-2.51114c0.02708,-0.74289 -1.22751,-0.8684 -1.70321,-1.43965c-0.5044,-0.60571 -0.92929,-1.27344 -1.39394,-1.91016c0,0 -0.73521,-1.01092 0.27571,-1.74613c1.01092,-0.73521 1.74613,0.27571 1.74613,0.27571c0.58355,0.80536 3.56311,3.61144 3.56952,4.65019c0.012,1.94602 -2.1326,2.81242 -3.07094,4.15553c-1.84907,2.64666 -3.53915,5.41991 -5.28775,8.14289c1.06058,1.13915 2.32105,2.14956 3.6728,2.93786c-0.10734,-0.18419 -0.22253,-0.36024 -0.35482,-0.5177l-0.65776,-1.24121c0,0 -0.55902,-1.11803 0.55902,-1.67705zM321.05899,145.82641l0.34224,0.75879c0.4845,0.58545 0.73793,1.3396 1.22596,1.92211c0.36439,0.43493 1.23255,-0.95131 1.23091,-1.0872c-0.01414,-1.17673 -1.7734,-1.53842 -2.80571,-1.60621c0.0044,0.00811 0.0066,0.01251 0.0066,0.01251zM332.63095,123.05614c2.45513,-0.99765 6.10694,-0.46351 8.33558,-0.50404c2.28809,-0.04161 4.49526,-1.18225 6.78085,-1.18225c0.46889,0 0.97865,0.00267 1.46551,0.06818c-0.22609,-2.17449 -0.52747,-4.42298 -0.85062,-5.64014c-1.408,-5.30333 -9.90402,-12.33119 -15.06943,-13.41247c-6.97629,-1.46035 -20.91971,-2.27576 -26.55943,-0.18447c-3.3496,1.24209 -3.84874,5.23704 -4.8671,8.12415c-1.20864,3.42656 -2.53021,6.97489 -3.76692,10.54832c0.14218,-0.02801 0.28684,-0.05152 0.43377,-0.07075c3.73654,-0.48918 8.94254,1.77627 12.11984,2.49074c1.47224,0.33106 4.04794,0.30223 5.20089,1.51616c0.62327,-0.62668 1.22818,-1.13863 1.71369,-1.34842c0.34362,-0.14848 2.42599,-0.18652 4.18655,-0.19367c0.73791,-0.6633 1.77016,-0.6633 1.77016,-0.6633l0.97676,0.01931c0.65119,0.0814 5.59865,0.67893 5.93264,0.81863c0.30815,0.12889 0.60506,0.2661 0.89104,0.4112c0.37385,-0.33791 0.81619,-0.59806 1.30621,-0.79718z" fill="#000000" stroke-width="0.5"/><path d="M360.64068,184.52233c0.04036,-2.26826 -0.45329,-4.91683 -0.53737,-6.83231c-0.01415,-0.32229 -0.00432,-0.93865 0.00101,-1.66762c0.25392,-0.02337 0.4203,-0.07038 0.4203,-0.07038c0.65583,-0.18506 3.18392,-1.09234 4.15929,-0.78033c2.87513,0.91973 3.69045,4.82609 1.962,7.24541c-1.20498,1.68662 -3.44042,1.80563 -5.26901,1.9675z" data-paper-data="{&quot;noHover&quot;:false,&quot;origItem&quot;:[&quot;Path&quot;,{&quot;applyMatrix&quot;:true,&quot;segments&quot;:[[[361.40054,184.34053],[0,0],[1.82859,-0.16187]],[[366.60915,182.38321],[-1.20498,1.68662],[1.72845,-2.41932]],[[364.67483,175.22086],[2.87513,0.91973],[-0.97537,-0.31201]],[[360.55709,175.99003],[0.65583,-0.18506],[0,0]],[[360.13932,176.05809],[0.25392,-0.02337],[-0.00533,0.72897]],[[360.14672,177.71483],[-0.01415,-0.32229],[0.08408,1.91548]],[[360.66872,184.48093],[0.04036,-2.26826],[0,0]]],&quot;closed&quot;:true}]}" fill="#ffd67d" stroke-width="0.5"/><path d="M287.31572,167.44716c-0.16659,1.15558 -0.31236,2.30752 -0.55405,3.32056c-0.45096,1.89022 -1.4213,3.70435 -1.79871,5.61008c-0.03252,-0.0015 -0.0507,-0.00138 -0.0507,-0.00138l-1.26142,0.00169c-2.8957,0.12358 -3.6982,-0.72159 -3.80014,-3.65377c-0.0449,-1.29146 -0.51585,-2.82627 0.17045,-3.9212c1.78457,-2.84713 5.26886,-4.39578 7.19006,-1.47558c0,0 0.03684,0.0471 0.10452,0.11961z" data-paper-data="{&quot;noHover&quot;:false,&quot;origItem&quot;:[&quot;Path&quot;,{&quot;applyMatrix&quot;:true,&quot;segments&quot;:[[[287.17591,167.36298],[0,0],[-1.9212,-2.9202]],[[280.063,168.83047],[1.78457,-2.84713],[-0.6863,1.09493]],[[279.89619,172.70359],[-0.0449,-1.29146],[0.10194,2.93218]],[[283.64929,176.32813],[-2.8957,0.12358],[0,0]],[284.89929,176.32813],[[284.94957,176.32962],[-0.03252,-0.0015],[0.37741,-1.90572]],[[286.71188,170.77227],[-0.45096,1.89022],[0.24169,-1.01304]],[[287.27939,167.48151],[-0.16659,1.15558],[-0.06768,-0.07252]]],&quot;closed&quot;:true}]}" fill="#ffd67d" stroke-width="0.5"/><path d="M324.14232,158.04611c-0.37937,-0.04046 -0.78143,-0.0446 -1.14074,-0.02068l-0.15114,-1.14185c-0.06172,-0.67895 -0.10556,-1.43521 -0.16728,-2.11416c0.48077,0.08903 1.00756,0.15849 1.49116,0.2051c-0.00193,0.03822 -0.00118,0.05966 -0.00118,0.05966c0.00103,0.87516 0.00262,1.83791 0.00365,2.71307z" data-paper-data="{&quot;noHover&quot;:false,&quot;origItem&quot;:[&quot;Path&quot;,{&quot;applyMatrix&quot;:true,&quot;segments&quot;:[[[648.30479,315.40719],[0,0],[-0.00206,-1.75032]],[[648.29859,310.15625],[0.00206,1.75032],[0,0]],[[648.30245,310.03773],[-0.00386,0.07644],[-0.9672,-0.09322]],[[645.40771,309.62987],[0.96154,0.17806],[0.12344,1.3579]],[[645.77805,313.70357],[-0.12344,-1.3579],[0,0]],[[646.02863,315.95417],[0,0],[0.71862,-0.04784]],[[648.24467,316.00055],[-0.75874,-0.08092],[0,0]]],&quot;closed&quot;:true,&quot;fillColor&quot;:[0,0,0,1],&quot;strokeWidth&quot;:0.5}]}" fill="#3a7fb5" stroke-width="0.25"/><path d="M332.85411,166.55673c0,0 0.00275,-1.7801 -1.49298,-2.33879c-0.79665,-1.1 -1.59857,-2.37199 -2.54624,-3.47694c0.02489,-0.12075 0.03257,-0.19485 0.03257,-0.19485l0.26328,-2.62875c0.00103,-0.95817 0.00572,-1.91968 0.00675,-2.87786c0,0 0.0004,-0.15588 -0.03841,-0.3894c0.62879,-0.15309 1.25217,-0.3537 1.85899,-0.59878c5.72609,2.31333 10.39956,6.94375 14.72582,11.25841c2.44752,2.44097 3.50548,5.26168 7.11793,6.43107c0.73125,0.23671 1.53924,-0.28836 2.29937,-0.17451c1.07667,0.16126 0.13952,2.18756 0.11602,3.27599c-0.07375,3.41554 1.55268,9.08258 -0.46177,11.93723c-1.25677,0.66532 -2.71738,0.93851 -4.12861,1.11329c-6.32375,0.78317 -10.98848,-2.91386 -13.93358,-7.97957c0.02821,-0.55014 -0.15951,-1.18559 -0.78975,-1.81583c-0.09986,-0.09986 -0.20126,-0.18989 -0.30079,-0.26814c-1.52548,-3.27516 -2.44419,-6.95954 -2.74068,-10.24462l0.01207,-1.02796z" data-paper-data="{&quot;noHover&quot;:false,&quot;origItem&quot;:[&quot;Path&quot;,{&quot;applyMatrix&quot;:true,&quot;segments&quot;:[[665.79857,333.15627],[[665.77803,335.20359],[0,0],[0.59298,6.57016]],[[671.23557,355.58735],[-3.05096,-6.55032],[0.19908,0.1565]],[[671.83409,356.12073],[-0.19972,-0.19972],[1.26048,1.26048]],[[673.39987,359.74197],[0.05642,-1.10028],[5.8902,10.13142]],[[701.16943,375.69601],[-12.6475,1.56634],[2.82246,-0.34956]],[[709.40889,373.48065],[-2.51354,1.33064],[4.0289,-5.7093]],[[710.29855,349.65627],[-0.1475,6.83108],[0.047,-2.17686]],[[710.06249,343.12841],[2.15334,0.32252],[-1.52026,-0.2277]],[[705.46389,343.47485],[1.4625,0.47342],[-7.2249,-2.33878]],[[691.27687,330.70559],[4.89504,4.88194],[-8.65252,-8.62932]],[[661.93173,308.18585],[11.45218,4.62666],[-1.21364,0.49016]],[[658.22095,309.37811],[1.25758,-0.30618],[0.07762,0.46704]],[[658.29857,310.15627],[0,0],[-0.00206,1.91636]],[[658.29237,315.90533],[0.00206,-1.91634],[0,0]],[657.77377,321.15379],[[657.70925,321.54269],[0.04978,-0.2415],[1.89536,2.2099]],[[662.80713,328.48877],[-1.5933,-2.2],[2.99146,1.11736]],[665.79859,333.15627]],&quot;closed&quot;:true,&quot;fillColor&quot;:[0,0,0,1],&quot;strokeWidth&quot;:0.5}]}" fill="#3a7fb5" stroke-width="0.25"/><path d="M318.20998,159.58324c0,0 0.03317,0.29279 0.17519,0.6644c-1.68,1.63632 -2.92575,3.90034 -3.74071,5.86163c-0.22202,0.23693 -0.33892,0.43375 -0.33892,0.43375l-1.05909,2.05646c-0.88226,4.43755 -2.61363,11.89423 -7.3608,13.99589c-0.97318,0.43085 -3.07651,0.2848 -3.99164,0.28245c-3.41746,-0.00875 -6.79125,-0.19912 -10.20113,-0.37005c-0.54311,-0.39343 -1.04792,-0.85602 -1.6332,-1.18345c-0.33831,-0.18926 -1.00018,0.01847 -1.11043,-0.35317c-0.13198,-0.44488 0.5285,-0.78724 0.63635,-1.23857c0.61579,-2.57687 1.34143,-5.24305 1.95574,-7.82762c0.62202,-2.617 0.71598,-4.98629 1.60107,-7.58835c0.18952,-0.55717 0.11218,-1.33098 0.59162,-1.67229c0.42855,-0.30507 1.0546,0.2055 1.57406,0.12257c1.10558,-0.1765 2.20482,-0.49519 3.24624,-0.90619c2.8818,-1.13729 4.93644,-3.00004 7.23013,-4.93073c2.98048,-2.50879 5.34251,-3.8026 7.22096,-7.23796c1.43871,1.39908 3.12331,2.58374 4.9227,3.47346c-0.29318,0.6794 -0.23023,1.35686 -0.23023,1.35686c0.08333,0.91667 0.17065,1.83878 0.25398,2.75545l0.25813,2.30548z" data-paper-data="{&quot;noHover&quot;:false,&quot;origItem&quot;:[&quot;Path&quot;,{&quot;applyMatrix&quot;:true,&quot;segments&quot;:[[636.32917,319.20841],[[635.81913,314.60893],[0,0],[-0.16666,-1.83334]],[[635.31913,309.10893],[0.16666,1.83334],[0,0]],[[635.78263,306.39867],[-0.58636,1.3588],[-3.59878,-1.77942]],[[625.96175,299.47119],[2.87742,2.79816],[-3.7569,6.87072]],[[611.54673,313.95749],[5.96096,-5.01758],[-4.58738,3.86138]],[[597.18413,323.78707],[5.7636,-2.27458],[-2.08284,0.822]],[[590.70829,325.57277],[2.21116,-0.353],[-1.03892,0.16586]],[[587.56191,325.32323],[0.8571,-0.61014],[-0.95888,0.68262]],[[586.38309,328.65177],[0.37904,-1.11434],[-1.77018,5.20412]],[[583.17341,343.76793],[1.24404,-5.234],[-1.2286,5.16914]],[[579.24351,359.39613],[1.23158,-5.15374],[-0.2157,0.90266]],[[577.96927,361.87169],[-0.26396,-0.88976],[0.2205,0.74328]],[[580.18643,362.57451],[-0.67662,-0.37852],[1.17056,0.65486]],[[583.44511,364.93509],[-1.08622,-0.78686],[6.81976,0.34186]],[[603.79857,365.65621],[-6.83492,-0.0175],[1.83026,0.00468]],[[611.75773,365.09167],[-1.94636,0.8617],[9.49434,-4.20332]],[[626.39567,337.17561],[-1.76452,8.8751],[0,0]],[628.51111,333.08371],[[629.18893,332.22023],[-0.44404,0.47386],[1.62992,-3.92258]],[[636.67783,320.53325],[-3.36,3.27264],[-0.28404,-0.74322]],[636.32915,319.20835]],&quot;closed&quot;:true,&quot;fillColor&quot;:[0,0,0,1],&quot;strokeWidth&quot;:0.5}]}" fill="#3a7fb5" stroke-width="0.25"/><path d="M328.59384,190.02922c0.00355,0.54533 0.0399,1.08732 0.11046,1.6209c0.77847,5.88725 5.48469,13.03856 9.78594,16.99858c2.27961,2.09876 2.72742,2.30572 5.53737,3.00522c0.40087,0.09979 1.00413,-0.21148 1.23216,0.13298c0.19616,0.29631 -0.43045,0.58467 -0.53311,0.92488c-0.70898,2.34946 -0.68366,4.73683 -1.40294,7.0954c-0.9415,2.60993 -2.19641,4.88689 -3.01646,7.54441c-0.10529,0.34123 -0.75064,3.29541 -1.64472,3.7291c-1.90906,0.92601 -5.99843,-1.9444 -7.39315,-2.82775c-1.6167,-1.02395 -4.74617,-2.45146 -5.95058,-4.0315c-2.96112,-3.88465 -3.41253,-10.67672 -4.25766,-15.32585c0,0 -0.05558,-0.31215 -0.24407,-0.69878c0.76659,-2.61018 1.48039,-5.22912 2.21472,-7.92043l0.32191,-2.34562c0,0 0.31916,-2.47628 -2.16153,-2.78637c-2.48069,-0.31008 -2.78416,2.17253 -2.78416,2.17253l-0.18191,1.65213c-1.5399,5.64887 -2.86092,10.94749 -5.10968,16.34818c-1.46534,3.51921 -2.13527,7.3006 -4.808,10.09077c-2.34112,2.444 -4.61842,4.67416 -7.27391,5.21248c-0.51313,-0.11364 -0.95692,-0.03923 -1.32369,0.12058c-1.30003,-0.02327 -2.70542,-0.47168 -4.25078,-1.48473c-0.78055,-0.51168 -1.48759,-1.13861 -2.18328,-1.76078c-2.21402,-1.98003 -3.87133,-4.32244 -5.45785,-6.80643c-0.63539,-1.52557 -2.38038,-4.74419 -1.9832,-6.48691c0.17714,-0.77725 1.69117,-0.10143 2.4877,-0.1335c0.99485,-0.04005 1.90664,-0.05715 2.87075,-0.30581c2.62474,-0.67698 3.79869,-1.56497 5.80962,-3.31094c4.42761,-3.84424 7.13716,-8.60675 9.83472,-13.75843c1.32143,-2.52362 2.59562,-4.52991 3.40295,-6.78651c1.3548,0.21079 2.70209,0.62826 4.05795,0.84706c4.27241,0.68943 9.1119,-0.30519 13.37403,-0.7314z" data-paper-data="{&quot;noHover&quot;:false,&quot;origItem&quot;:[&quot;Path&quot;,{&quot;applyMatrix&quot;:true,&quot;segments&quot;:[[[655.29609,380.13145],[0,0],[-8.52426,0.85242]],[[628.60507,381.60793],[8.54482,1.37886],[-2.71172,-0.43758]],[[620.50775,379.91089],[2.7096,0.42158],[-1.61466,4.5132]],[[613.73009,393.47179],[2.64286,-5.04724],[-5.39512,10.30336]],[[594.10759,420.90465],[8.85522,-7.68848],[-4.02186,3.49194]],[[582.48751,427.51285],[5.24948,-1.35396],[-1.92822,0.49732]],[[576.54765,428.15005],[1.9897,-0.0801],[-1.59306,0.06414]],[[571.77071,428.39233],[0.35428,-1.5545],[-0.79436,3.48544]],[[575.73179,441.34399],[-1.27078,-3.05114],[3.17304,4.96798]],[[586.63317,454.93061],[-4.42804,-3.96006],[1.39138,1.24434]],[[590.99333,458.44457],[-1.5611,-1.02336],[3.09072,2.0261]],[[599.48341,461.40347],[-2.60006,-0.04654],[0.73354,-0.31962]],[[602.12767,461.15995],[-1.02626,-0.22728],[5.31098,-1.07664]],[[616.66069,450.72611],[-4.68224,4.888],[5.34544,-5.58034]],[[626.18723,430.72345],[-2.93068,7.03842],[4.49752,-10.80138]],[[636.47473,397.84067],[-3.0798,11.29774],[0,0]],[636.83715,394.53609],[[642.41871,390.19487],[-4.96138,-0.62016],[4.96138,0.62018]],[646.75993,395.77643],[[646.12235,400.47185],[0,0],[-1.46864,5.38264]],[[641.72521,416.35231],[1.53318,-5.22036],[0.37698,0.77326]],[[642.21787,417.76183],[0,0],[1.69026,9.29826]],[[650.69591,448.52413],[-5.92224,-7.7693],[2.40882,3.16008]],[[662.47225,456.43121],[-3.2334,-2.0479],[2.78944,1.7667]],[[677.25023,462.09507],[-3.81812,1.85202],[1.78816,-0.86736]],[[680.53169,454.64715],[-0.21058,0.68246],[1.6401,-5.31504]],[[686.55251,439.58289],[-1.883,5.21986],[1.43856,-4.71714]],[[689.35357,425.41633],[-1.41796,4.69892],[0.20532,-0.68042]],[[690.41961,423.56979],[0.39232,0.59262],[-0.45606,-0.68892]],[[687.95529,423.30411],[0.80174,0.19958],[-5.61992,-1.399]],[[676.88083,417.30583],[4.55922,4.19752],[-8.6025,-7.92004]],[[657.35151,383.38233],[1.55694,11.7745],[-0.14112,-1.06716]],[[657.13407,380.14285],[0.0071,1.09066],[0,0]]],&quot;closed&quot;:true,&quot;fillColor&quot;:[0,0,0,1],&quot;strokeWidth&quot;:0.5}]}" fill="#3a7fb5" stroke-width="0.25"/><path d="M343.08774,233.57549c1.40917,-2.00571 1.58098,-4.61995 2.58305,-6.98694c0.73818,-1.74365 1.65727,-3.42076 2.30814,-5.19884c0.74283,-2.50872 1.43919,-5.36578 1.62542,-7.98848c0.03142,-0.44256 0.11658,-0.90726 0.18738,-1.3714c0.67362,-0.39483 1.03731,-1.03727 1.03731,-1.03727c1.30804,-2.3651 2.57231,-4.27259 4.65715,-6.02071c0.45543,-0.38187 1.71213,-1.65899 2.60737,-1.50699c0.90413,0.1535 1.20469,1.46043 1.45338,2.34314c0.63277,2.2459 0.76408,5.0404 0.8965,7.3661c0.20361,3.57595 -1.60069,6.46875 -2.42969,9.83552c-0.88542,3.59589 -0.33494,5.78829 -2.68403,8.91672c-2.53565,2.21959 -6.07077,3.69377 -9.5714,2.77835c-0.93282,-0.24393 -1.80223,-0.69702 -2.67057,-1.12919z" data-paper-data="{&quot;noHover&quot;:false,&quot;origItem&quot;:[&quot;Path&quot;,{&quot;applyMatrix&quot;:true,&quot;segments&quot;:[[[345.7764,234.65805],[-0.93282,-0.24393],[3.50063,0.91542]],[[355.31622,231.87818],[-2.53565,2.21959],[2.34909,-3.12843]],[[357.971,222.98366],[-0.88542,3.59589],[0.829,-3.36677]],[[360.4024,213.20266],[0.20361,3.57595],[-0.13242,-2.3257]],[[359.52184,205.85124],[0.63277,2.2459],[-0.2487,-0.8827]],[[358.07491,203.51125],[0.90413,0.1535],[-0.89524,-0.152]],[[355.47354,205.02022],[0.45543,-0.38187],[-2.08484,1.74812]],[[350.83469,211.04223],[1.30804,-2.3651],[0,0]],[[349.80497,212.07804],[0.67362,-0.39483],[-0.0708,0.46414]],[[349.62177,213.44809],[0.03142,-0.44256],[-0.18623,2.62269]],[[348.02229,221.36481],[0.74283,-2.50872],[-0.65087,1.77809]],[[345.70265,226.55001],[0.73818,-1.74365],[-1.00207,2.36698]],[[343.11361,233.53269],[1.40917,-2.00571],[0.86834,0.43218]]],&quot;closed&quot;:true}]}" fill="#1b0000" stroke-width="0.5"/><path d="M281.00068,213.13175c-0.72267,3.10625 1.4569,7.41586 2.47928,9.8688c1.90528,3.0028 3.78443,5.77404 6.47144,8.15086c1.5714,1.39 3.50919,2.81034 5.54,3.715c-4.67637,2.42048 -9.35812,3.19686 -14.89624,2.20083c-5.96263,-4.16343 -8.50824,-9.69648 -8.49425,-17.00167c0.00369,-1.92884 -0.50256,-4.86967 0.13335,-6.73329c0.76797,-2.25065 4.2363,-6.34111 6.74421,-3.92721c0.42338,0.40751 1.57431,2.80029 2.02223,3.72668z" data-paper-data="{&quot;noHover&quot;:false,&quot;origItem&quot;:[&quot;Path&quot;,{&quot;applyMatrix&quot;:true,&quot;segments&quot;:[[[278.99479,209.45232],[0.42338,0.40751],[-2.5079,-2.4139]],[[272.27235,213.36465],[0.76797,-2.25065],[-0.6359,1.86362]],[[272.14929,220.07813],[0.00369,-1.92884],[-0.01399,7.3052]],[[280.606,237.01843],[-5.96263,-4.16343],[5.53812,0.99603]],[[295.45604,234.83104],[-4.67637,2.42048],[-2.0308,-0.90467]],[[289.98199,231.19095],[1.5714,1.39],[-2.68701,-2.37682]],[[283.43269,222.98426],[1.90528,3.0028],[-1.02238,-2.45293]],[[280.98756,213.0835],[-0.72267,3.10625],[-0.44792,-0.92639]]],&quot;closed&quot;:true}]}" fill="#1b0000" stroke-width="0.5"/><path d="M323.90752,147.42777c0.00163,0.13589 -0.9094,1.56404 -1.27379,1.12911c-0.48803,-0.58251 -0.79113,-1.4115 -1.27563,-1.99696l-0.33471,-0.76861c0,0 -0.00212,-0.00448 -0.00653,-0.01259c1.03231,0.06779 2.87652,0.47232 2.89066,1.64905z" data-paper-data="{&quot;noHover&quot;:false,&quot;origItem&quot;:[&quot;Path&quot;,{&quot;applyMatrix&quot;:true,&quot;segments&quot;:[[[642.10479,291.62777],[2.06462,0.13559],[0.0088,0.01622]],[642.11799,291.6528],[[642.80248,293.17037],[0,0],[0.96901,1.17091]],[[645.25439,297.01459],[-0.97606,-1.16503],[0.72878,0.86987]],[[647.71622,294.8402],[0.00327,0.27177],[-0.02828,-2.35345]]],&quot;closed&quot;:true}]}" fill="#5f1111" stroke-width="0.5"/><path d="M318.84666,146.90043l0.65234,1.2387c0.13229,0.15746 0.21325,0.42742 0.32058,0.61162c-1.35175,-0.7883 -2.63221,-1.81131 -3.69279,-2.95047c1.7486,-2.72298 3.43736,-5.5644 5.28643,-8.21106c0.93835,-1.34311 3.10764,-2.12773 3.09564,-4.07375c-0.0064,-1.03875 -2.96333,-3.84427 -3.54687,-4.64963c0,0 -0.7281,-1.01295 -1.73902,-0.27773c-1.01092,0.73521 -0.31423,1.65396 -0.31423,1.65396c0.46465,0.63672 0.89231,1.30324 1.39671,1.90895c0.4757,0.57125 1.75824,0.79231 1.73116,1.53519c-0.01241,0.34059 -2.27955,2.0909 -2.56617,2.49337c-1.72812,2.42658 -3.37778,4.98066 -4.97954,7.50736c-0.8865,-1.40921 -1.44847,-2.93446 -1.52113,-4.39907c-0.16691,-3.36429 1.77806,-5.55601 3.77679,-7.9553c0.90855,-1.09063 1.4104,-2.74943 2.71894,-3.29957c1.44846,-0.60896 3.15937,0.1881 4.73063,0.1881c0,0 0.94569,0.00117 1.67273,-0.57428c0.94416,0.02936 1.89257,0.08665 2.76858,0.40811c6.78146,2.48858 4.31652,12.58305 2.87684,17.32459c-0.44773,1.47457 -1.02798,3.0558 -2.14827,4.114c-1.41029,0.87456 -3.06339,1.14323 -4.7416,0.94688c1.01115,-0.62905 1.71009,-1.83498 1.71428,-3.13614c0.00939,-2.91847 -3.59766,-3.92557 -5.75622,-3.95897c0,0 -1.1968,-0.0846 -1.1968,1.1654c0,0.27484 0.05746,0.48739 0.15175,0.65466c-0.04259,0.01707 -0.13671,0.12282 -0.18106,0.145c-1.11803,0.55902 -0.5097,1.59009 -0.5097,1.59009z" data-paper-data="{&quot;noHover&quot;:false,&quot;origItem&quot;:[&quot;Path&quot;,{&quot;applyMatrix&quot;:true,&quot;segments&quot;:[[[638.76389,290.53477],[-2.23607,1.11803],[0.08869,-0.04435]],[[639.02469,290.41721],[-0.08517,0.03414],[-0.18857,-0.33454]],[[638.71526,289.10417],[0,0.54968],[0,-2.5]],[[641.21526,286.60417],[0,0],[4.31711,0.06681]],[[652.71429,294.70147],[0.01878,-5.83694],[-0.00837,2.60232]],[[649.23526,300.78174],[2.02231,-1.25809],[3.35642,0.3927]],[[658.68029,298.90147],[-2.82058,1.74912],[2.24058,-2.1164]],[[662.94843,290.69922],[-0.89546,2.94915],[2.87937,-9.48308]],[[657.22978,256.19913],[13.56292,4.97716],[-1.75202,-0.64293]],[[651.71392,255.39078],[1.88832,0.05873],[-1.45408,1.15089]],[[648.38192,256.54167],[0,0],[-3.14253,0]],[[638.96201,256.16106],[2.89692,-1.21793],[-2.61708,1.10028]],[[633.55636,262.74259],[1.8171,-2.18126],[-3.99745,4.79857]],[[626.0395,278.57362],[-0.33382,-6.72859],[0.14533,2.92922]],[[629.06986,287.32652],[-1.773,-2.81842],[3.20351,-5.0534]],[[638.86293,272.29649],[-3.45623,4.85316],[0.57325,-0.80494]],[[644.05438,267.27421],[-0.02483,0.68118],[0.05415,-1.48577]],[[640.64796,264.39491],[0.95139,1.1425],[-1.0088,-1.21143]],[[637.86008,260.5746],[0.92929,1.27344],[0,0]],[[638.41149,257.08233],[-2.02184,1.47043],[2.02184,-1.47043]],[[641.90376,257.63374],[0,0],[1.16709,1.61072]],[[649.0428,266.93412],[-0.01281,-2.07751],[0.024,3.89203]],[[642.90091,275.24518],[1.8767,-2.68621],[-3.69814,5.29333]],[[632.32541,291.53097],[3.49719,-5.44597],[2.12116,2.27831]],[[639.67102,297.40668],[-2.70351,-1.57659],[-0.21467,-0.36838]],[[638.96137,296.37129],[0.26459,0.31491],[0,0]],[637.64585,293.88887]],&quot;closed&quot;:true}]}" fill="#ffd67d" stroke-width="0.5"/><path d="M307.65735,113.79951c0.61071,-2.76951 1.04549,-7.35097 5.20028,-5.60158c1.15639,0.4869 1.36283,1.75559 2.23796,2.48459c0.58873,0.49043 0.52158,-1.50583 1.08239,-2.02796c0.89387,-0.83222 2.07598,-1.67587 3.42376,-1.40632c1.72826,0.34565 4.90009,9.11198 3.90862,10.42189c-0.91456,1.2083 -4.09287,2.13138 -4.7569,-0.0347c-0.17823,-0.58141 0.10943,-1.9973 -0.45343,-1.7671c-1.53123,0.62627 -1.54262,2.52596 -3.85532,1.94778c-0.97631,-0.24408 -1.26983,-2.56637 -2.16421,-2.10502c-0.28015,0.14451 -0.20821,0.5956 -0.33206,0.88548c-0.13165,0.30814 -3.7882,7.46427 -5.60965,4.27673c-0.73685,-0.43488 -1.23117,-1.23699 -1.23117,-2.15454c0,-0.93151 0.50946,-1.74403 1.26495,-2.17413c0.57146,-0.97626 1.11816,-1.98955 1.28477,-2.74513z" fill="#000000" stroke-width="0.5"/><path d="M337.40103,105.79863c2.25912,1.63159 2.75967,4.94994 2.53993,7.5868c-0.13365,1.60383 -3.22039,4.31654 -5.39084,4.71748c-0.06339,0.43807 -0.19296,0.80382 -0.42166,1.03252c-4.97121,4.97121 -4.8746,-4.99231 -5.30748,-7.26296c-0.22607,-1.1859 -1.63727,-2.41434 -1.04662,-3.46724c-0.00005,-0.00659 -0.00007,-0.01319 -0.00007,-0.0198c0,-1.38071 1.11929,-2.5 2.5,-2.5c0.42649,0 0.82803,0.10679 1.17934,0.2951c1.57308,-1.37323 3.95254,-1.82262 5.94739,-0.3819zM334.74109,110.30034c-0.03337,-0.10054 -0.07857,-0.15807 -0.13384,-0.18124c-0.15987,0.41398 -0.42675,0.77473 -0.76674,1.04834c0.06327,0.40683 0.12073,0.81974 0.17561,1.23027c0.59026,-0.68353 0.96177,-1.38369 0.72496,-2.09737z" fill="#000000" stroke-width="0.5"/><path d="M328.37987,147.7225c-1.17041,0.4389 -1.60932,-0.73151 -1.60932,-0.73151l-0.52785,-1.41633c-0.45201,-2.02451 -1.56022,-4.64296 -1.71741,-6.63936c-0.25223,-3.20343 2.68911,-6.08996 4.69845,-8.10043c0,0 0.88388,-0.88388 1.76777,0c0.88388,0.88388 0,1.76777 0,1.76777c-1.41982,1.41899 -4.2272,3.86639 -3.96821,6.2329c0.20764,1.89727 1.19257,4.11132 1.61592,6.02731l0.47215,1.25034c0,0 0.4389,1.17041 -0.73151,1.60932z" fill="#000000" stroke-width="0.5"/></g></g></svg>