<svg version="1.1" xmlns="http://www.w3.org/2000/svg" xmlns:xlink="http://www.w3.org/1999/xlink" width="29.23062" height="40" viewBox="0,0,29.23062,40"><g transform="translate(-317.13468,-163.91249)"><g data-paper-data="{&quot;isPaintingLayer&quot;:true}" fill-opacity="0.50196" fill="#ff1414" fill-rule="nonzero" stroke="none" stroke-width="1" stroke-linecap="butt" stroke-linejoin="miter" stroke-miterlimit="10" stroke-dasharray="" stroke-dashoffset="0" style="mix-blend-mode: normal"><path d="M331.89302,163.91249c1.52723,0 1.87631,0.01455 1.91994,0.06788c0.03879,0.04848 0.19393,0.06788 0.57695,0.06788c0.40241,0 0.53332,0.01455 0.5818,0.07272c0.04363,0.04848 0.15515,0.07272 0.36363,0.07272c0.20848,0 0.31999,0.02424 0.36363,0.07272c0.04363,0.04848 0.15515,0.07272 0.36363,0.07272c0.20848,0 0.31999,0.02424 0.36363,0.07272c0.03879,0.04363 0.14545,0.07272 0.2909,0.07272c0.14545,0 0.25211,0.02909 0.2909,0.07272c0.03879,0.04363 0.14545,0.07272 0.2909,0.07272c0.14545,0 0.25211,0.02909 0.2909,0.07272c0.03879,0.04848 0.14545,0.07272 0.29575,0.07272c0.1406,0 0.25696,0.02909 0.30544,0.07272c0.03879,0.03879 0.13575,0.07272 0.21333,0.07272c0.07757,0 0.16969,0.03394 0.20363,0.07272c0.03394,0.03879 0.1309,0.07272 0.21817,0.07272c0.08727,0 0.18424,0.03394 0.21817,0.07272c0.03394,0.03879 0.1309,0.07272 0.21817,0.07272c0.08727,0 0.18424,0.03394 0.21817,0.07272c0.03394,0.03879 0.12121,0.07272 0.19878,0.07272c0.13575,0 0.50423,0.16484 0.55756,0.24727c0.01455,0.02424 0.08727,0.04363 0.16484,0.04363c0.16969,0 0.80967,0.31514 0.95512,0.47029c0.05818,0.06303 0.1406,0.11151 0.17939,0.11151c0.04363,0 0.17454,0.09697 0.3006,0.21817c0.12121,0.12121 0.25211,0.21817 0.2909,0.21817c0.09212,0 1.91025,1.81813 1.91025,1.91509c0,0.03879 0.08242,0.15515 0.18424,0.25696c0.17939,0.17939 0.39756,0.53816 0.39756,0.64968c0,0.03394 0.04848,0.10666 0.11151,0.16c0.06303,0.05333 0.2909,0.45574 0.50908,0.89209c0.31514,0.63029 0.39756,0.83391 0.39756,1.00845c0,0.14545 0.02424,0.21817 0.07272,0.23757c0.04848,0.01939 0.07272,0.09697 0.07272,0.21333c0,0.10182 0.03394,0.20848 0.07272,0.24242c0.03879,0.03394 0.07272,0.12606 0.07272,0.20363c0,0.07757 0.03394,0.17454 0.07272,0.21333c0.04848,0.04848 0.07272,0.16969 0.07272,0.36363c0,0.19393 0.02424,0.31514 0.07272,0.36363c0.05818,0.05818 0.07272,0.21333 0.07272,0.7418c0,0.53816 0.01455,0.68362 0.07272,0.7321c0.05818,0.04848 0.07272,0.17939 0.07272,0.60604c0,0.42665 -0.01455,0.55756 -0.07272,0.60604c-0.05818,0.04848 -0.07272,0.18424 -0.07272,0.65453c0,0.47029 -0.01455,0.60604 -0.07272,0.65453c-0.04363,0.03879 -0.07272,0.14545 -0.07272,0.2909c0,0.14545 -0.02909,0.25211 -0.07272,0.2909c-0.04363,0.03879 -0.07272,0.14545 -0.07272,0.28605c0,0.12606 -0.03394,0.27151 -0.07272,0.32484c-0.03879,0.04848 -0.07272,0.1406 -0.07272,0.19878c0,0.11636 -0.17454,0.47999 -0.24727,0.52847c-0.02424,0.01455 -0.04363,0.09697 -0.04363,0.18909c0,0.08727 -0.03394,0.19393 -0.07272,0.23757c-0.03879,0.03879 -0.07272,0.09212 -0.07272,0.12121c0,0.09697 -0.21333,0.46544 -0.32484,0.56241c-0.06303,0.05333 -0.11151,0.12606 -0.11151,0.16c0,0.08727 -0.19878,0.44605 -0.32484,0.5818c-0.06303,0.06788 -0.11151,0.14545 -0.11151,0.17454c0,0.02909 -0.05818,0.11636 -0.12606,0.19393c-0.10182,0.11151 -0.14545,0.1309 -0.20848,0.09212c-0.06788,-0.04363 -0.07757,-0.19878 -0.09212,-1.26057c-0.0097,-1.03755 0,-1.22178 0.06303,-1.27511c0.04848,-0.04363 0.07272,-0.1503 0.07272,-0.35878c0,-0.18909 0.02424,-0.33454 0.07272,-0.39756c0.03879,-0.04848 0.07272,-0.1503 0.07272,-0.21817c0,-0.06788 0.03394,-0.16484 0.07272,-0.21817c0.03879,-0.04848 0.07272,-0.12606 0.07272,-0.16969c0,-0.04363 0.03394,-0.09212 0.07272,-0.11151c0.04363,-0.01455 0.07272,-0.08727 0.07272,-0.18909c0,-0.09212 0.03394,-0.19393 0.07272,-0.22787c0.04848,-0.04363 0.07272,-0.15515 0.07272,-0.36363c0,-0.20848 0.02424,-0.31999 0.07272,-0.36363c0.06303,-0.05333 0.07272,-0.2812 0.07272,-1.51268c0,-1.24117 -0.0097,-1.44965 -0.07272,-1.47389c-0.03879,-0.01939 -0.07272,-0.06788 -0.07272,-0.11151c0,-0.04363 -0.03394,-0.12121 -0.07272,-0.16969c-0.03879,-0.05333 -0.07272,-0.12606 -0.07272,-0.16c0,-0.06303 -0.45089,-0.54786 -0.50423,-0.54786c-0.03879,0 -0.95028,0.91634 -0.95028,0.95512c0,0.01455 0.06788,0.09212 0.14545,0.16969c0.08242,0.07272 0.14545,0.16969 0.14545,0.21333c0,0.03879 0.03394,0.10666 0.07272,0.14545c0.05818,0.06303 0.07272,0.24242 0.07272,0.98421c0,0.75149 -0.01455,0.92603 -0.07272,0.97452c-0.04848,0.04363 -0.07272,0.15515 -0.07272,0.36363c0,0.20848 -0.02424,0.31999 -0.07272,0.36363c-0.03879,0.03394 -0.07272,0.1309 -0.07272,0.21333c0,0.08727 -0.03394,0.19878 -0.07272,0.25211c-0.03879,0.04848 -0.07272,0.1503 -0.07272,0.21817c0,0.06788 -0.03394,0.16484 -0.07272,0.21817c-0.03879,0.04848 -0.07272,0.1503 -0.07272,0.21817c0,0.06788 -0.03394,0.16484 -0.07272,0.21817c-0.03879,0.04848 -0.07272,0.18424 -0.07272,0.2909c0,0.11636 -0.02909,0.22787 -0.07272,0.26181c-0.05818,0.04848 -0.07272,0.17939 -0.07272,0.5818c0,0.40241 -0.01455,0.53332 -0.07272,0.5818c-0.05818,0.04848 -0.07272,0.18424 -0.07272,0.63029c0,0.44605 0.01455,0.5818 0.07272,0.63029c0.05818,0.04848 0.07272,0.18424 0.07272,0.65453c0,0.47029 0.01455,0.60604 0.07272,0.65453c0.05333,0.04363 0.07272,0.16 0.07272,0.43635c0,0.27636 0.01939,0.39271 0.07272,0.43635c0.04848,0.04363 0.07272,0.15515 0.07272,0.36363c0,0.20848 0.02424,0.31999 0.07272,0.36363c0.05333,0.04363 0.07272,0.16 0.07272,0.43635c0,0.27636 0.01939,0.39271 0.07272,0.43635c0.05333,0.04363 0.07272,0.16969 0.07272,0.50908c0,0.33938 0.01939,0.46544 0.07272,0.50908c0.09212,0.07757 0.09212,0.26181 0,0.33938c-0.05818,0.04848 -0.07272,0.18424 -0.07272,0.65937c0,0.46544 -0.01455,0.61089 -0.07272,0.66907c-0.03879,0.03879 -0.07272,0.13575 -0.07272,0.21333c0,0.07757 -0.03394,0.16969 -0.07272,0.20363c-0.03879,0.03394 -0.07272,0.12121 -0.07272,0.19878c0,0.27636 -0.45089,1.0133 -0.62059,1.0133c-0.03879,0 -0.13575,0.06788 -0.21333,0.14545c-0.07272,0.07757 -0.17939,0.14545 -0.22787,0.14545c-0.05333,0 -0.10182,0.01939 -0.11151,0.03879c-0.02909,0.07757 -0.4315,0.25211 -0.57695,0.25211c-0.08242,0 -0.15515,0.02909 -0.17454,0.07272c-0.03394,0.09212 -0.31999,0.21817 -0.49453,0.21817c-0.06788,0 -0.16969,0.03394 -0.21817,0.07272c-0.05333,0.03879 -0.1503,0.07272 -0.21817,0.07272c-0.06788,0 -0.16969,0.03394 -0.21817,0.07272c-0.05333,0.03879 -0.16,0.07272 -0.23757,0.07272c-0.09697,0 -0.18909,0.04848 -0.28605,0.14545c-0.09212,0.09697 -0.18424,0.14545 -0.2812,0.14545c-0.10666,0 -0.20363,0.05818 -0.37332,0.21817c-0.12121,0.12121 -0.24727,0.21817 -0.27636,0.21817c-0.02909,0 -0.12606,0.06788 -0.21817,0.14545c-0.08727,0.08242 -0.18909,0.14545 -0.22302,0.14545c-0.08242,0 -0.84846,0.76604 -0.84846,0.84846c0,0.03879 -0.06303,0.13575 -0.14545,0.20848c-0.07757,0.07757 -0.14545,0.18424 -0.14545,0.24242c0,0.05333 -0.03394,0.10666 -0.07272,0.12606c-0.04363,0.01455 -0.07272,0.08727 -0.07272,0.18909c0,0.09212 -0.03394,0.19393 -0.07272,0.22787c-0.04848,0.04363 -0.07272,0.15515 -0.07272,0.36363c0,0.20848 -0.02424,0.31999 -0.07272,0.36363c-0.05333,0.04363 -0.07272,0.15515 -0.07272,0.40241c0,0.2909 0.02424,0.37817 0.14545,0.60119c0.1406,0.24727 0.14545,0.27636 0.14545,0.85815v0.60119l-0.1406,0.04848c-0.07757,0.02909 -0.19393,0.12606 -0.26666,0.21333c-0.09697,0.1309 -0.20848,0.19878 -0.52362,0.30544c-0.40241,0.13575 -0.52362,0.16 -0.88725,0.18424l-0.19393,0.0097v-1.09088c0,-0.60119 -0.01939,-1.11997 -0.03879,-1.14906c-0.05333,-0.08242 -0.58665,-0.08242 -0.64968,-0.00485c-0.02909,0.03879 -0.05333,0.53816 -0.05333,1.19269c-0.00485,0.62543 -0.01939,1.14906 -0.03394,1.1733c-0.01455,0.02424 -0.26666,0.03879 -0.55756,0.03879c-0.4315,-0.00485 -0.54786,0.0097 -0.62059,0.07272c-0.09212,0.08242 -0.63998,0.12121 -0.63998,0.04363c0,-0.01939 -0.00485,-0.54786 -0.00485,-1.1733c-0.00485,-0.68846 -0.02424,-1.1636 -0.05333,-1.20239c-0.03394,-0.03394 -0.16969,-0.05818 -0.36363,-0.05818c-0.34908,0 -0.36363,0.01939 -0.36363,0.35393c0.01455,1.6145 0.00485,2.046 -0.03394,2.08479c-0.02424,0.02424 -0.26181,0.02909 -0.56726,0.0097c-0.2909,-0.01455 -0.63029,-0.02909 -0.75634,-0.03394c-0.1309,-0.00485 -0.23272,-0.02424 -0.23272,-0.04363c0,-0.01939 -0.09212,-0.04363 -0.20363,-0.05333l-0.20848,-0.01455l-0.02424,-1.21208l-0.02424,-1.21208l-0.2812,-0.01455c-0.42181,-0.01939 -0.43635,0.00485 -0.40241,0.62059c0.01455,0.2812 0.01455,0.77089 -0.0097,1.09088l-0.03394,0.5818l-0.13575,0.01455c-0.07757,0.0097 -0.18909,-0.01939 -0.25211,-0.05818c-0.06303,-0.04363 -0.1503,-0.07757 -0.18424,-0.07757c-0.03879,0 -0.09697,-0.03394 -0.1309,-0.07272c-0.03394,-0.03879 -0.11636,-0.07272 -0.18909,-0.07272c-0.06788,0 -0.16969,-0.03394 -0.21817,-0.07272c-0.05333,-0.03879 -0.1309,-0.07272 -0.17939,-0.07272c-0.04363,0 -0.09212,-0.03394 -0.11151,-0.07272c-0.01455,-0.03879 -0.07757,-0.07272 -0.1406,-0.07272c-0.06788,0 -0.14545,-0.03394 -0.17939,-0.07272c-0.03394,-0.03879 -0.09697,-0.07272 -0.14545,-0.07272c-0.12606,0 -0.14545,-0.09212 -0.14545,-0.69331c0,-0.52362 0.00485,-0.55271 0.14545,-0.76119c0.07757,-0.12121 0.14545,-0.27636 0.14545,-0.34423c0,-0.06788 0.02909,-0.16484 0.06788,-0.21333c0.05818,-0.08242 0.05818,-0.10666 0,-0.18909c-0.04363,-0.06303 -0.06788,-0.22787 -0.06788,-0.4412c-0.00485,-0.22302 -0.02909,-0.37332 -0.07272,-0.4315c-0.03879,-0.05333 -0.07272,-0.1406 -0.07272,-0.19393c0,-0.15515 -0.32484,-0.77089 -0.53332,-1.00361c-0.10666,-0.11636 -0.19393,-0.23757 -0.19393,-0.27151c0,-0.08242 -0.46544,-0.54786 -0.54786,-0.54786c-0.03879,0 -0.14545,-0.06303 -0.23272,-0.14545c-0.09212,-0.07757 -0.18909,-0.14545 -0.21817,-0.14545c-0.02909,0 -0.10666,-0.04848 -0.17454,-0.11151c-0.06788,-0.06303 -0.31029,-0.20848 -0.53816,-0.31999c-0.23272,-0.11151 -0.4315,-0.22302 -0.44605,-0.24727c-0.01455,-0.02909 -0.10182,-0.04848 -0.18909,-0.04848c-0.09212,0 -0.18909,-0.03394 -0.22302,-0.07272c-0.03394,-0.03879 -0.1309,-0.07272 -0.22302,-0.07272c-0.08727,0 -0.18909,-0.03394 -0.23272,-0.07272c-0.03879,-0.03879 -0.13575,-0.07272 -0.21817,-0.07272c-0.07757,0 -0.17454,-0.03394 -0.21817,-0.07272c-0.03879,-0.03879 -0.12606,-0.07272 -0.18909,-0.07272c-0.12606,0 -0.81937,-0.32484 -0.84846,-0.39756c-0.0097,-0.01939 -0.05818,-0.03879 -0.11151,-0.03879c-0.12606,0 -0.67877,-0.55756 -0.80967,-0.81452c-0.05818,-0.11151 -0.10666,-0.26666 -0.10666,-0.34423c0,-0.07757 -0.03394,-0.16484 -0.07272,-0.19878c-0.03879,-0.03394 -0.07272,-0.11636 -0.07272,-0.18909c0,-0.06788 -0.03394,-0.16969 -0.07272,-0.21817c-0.05333,-0.06788 -0.07272,-0.22302 -0.07272,-0.54301c0,-0.33454 -0.01939,-0.46059 -0.07272,-0.50423c-0.05333,-0.04848 -0.07272,-0.16969 -0.07272,-0.53332c0,-0.36363 0.01939,-0.48483 0.07272,-0.53332c0.05333,-0.04363 0.07272,-0.16 0.07272,-0.43635c0,-0.27636 0.01939,-0.39271 0.07272,-0.43635c0.04848,-0.04363 0.07272,-0.15515 0.07272,-0.36363c0,-0.20848 0.02424,-0.31999 0.07272,-0.36363c0.04848,-0.04363 0.07272,-0.15515 0.07272,-0.36363c0,-0.20848 0.02424,-0.31999 0.07272,-0.36363c0.05333,-0.04363 0.07272,-0.16969 0.07272,-0.50908c0,-0.33938 0.01939,-0.46544 0.07272,-0.50908c0.05818,-0.04848 0.07272,-0.20848 0.07272,-0.8727c0,-0.66422 0.01455,-0.82422 0.07272,-0.8727c0.03879,-0.03394 0.07272,-0.12121 0.07272,-0.19393c0,-0.07272 -0.03394,-0.16 -0.07272,-0.19393c-0.05818,-0.04848 -0.07272,-0.18424 -0.07272,-0.65453c0,-0.47029 -0.01455,-0.60604 -0.07272,-0.65453c-0.04363,-0.03394 -0.07272,-0.14545 -0.07272,-0.26181c0,-0.10666 -0.03394,-0.24242 -0.07272,-0.2909c-0.03879,-0.05333 -0.07272,-0.1503 -0.07272,-0.21817c0,-0.06788 -0.03394,-0.16969 -0.07272,-0.21817c-0.03879,-0.05333 -0.07272,-0.1503 -0.07272,-0.21817c0,-0.06788 -0.03394,-0.16969 -0.07272,-0.21817c-0.03879,-0.05333 -0.07272,-0.1503 -0.07272,-0.21817c0,-0.06788 -0.03394,-0.16969 -0.07272,-0.21817c-0.04848,-0.06303 -0.07272,-0.20848 -0.07272,-0.39756c0,-0.20363 -0.02424,-0.31514 -0.07272,-0.35878c-0.05818,-0.04848 -0.07272,-0.22787 -0.07272,-1.023c0,-0.89694 0.00485,-0.97452 0.10666,-1.16845c0.05818,-0.11636 0.12606,-0.21817 0.14545,-0.22302c0.01939,-0.0097 0.03879,-0.07757 0.03879,-0.14545c0,-0.09697 -0.09697,-0.22787 -0.37332,-0.50423c-0.21333,-0.21333 -0.41696,-0.37817 -0.47029,-0.37817c-0.10666,0 -0.31999,0.17939 -0.31999,0.26666c0,0.02909 -0.06788,0.1309 -0.14545,0.21817c-0.08242,0.08727 -0.14545,0.19878 -0.14545,0.24727c0,0.04363 -0.03394,0.09212 -0.07272,0.11151c-0.05333,0.01939 -0.07272,0.10666 -0.07272,0.33454c0,0.21817 -0.02424,0.32969 -0.07272,0.37332c-0.10666,0.08727 -0.10666,1.1733 0,1.26057c0.05818,0.04848 0.07272,0.17939 0.07272,0.5818c0,0.40241 0.01455,0.53332 0.07272,0.5818c0.04363,0.03394 0.07272,0.14545 0.07272,0.26181c0,0.10666 0.03394,0.24242 0.07272,0.2909c0.03879,0.05333 0.07272,0.1503 0.07272,0.21817c0,0.06788 0.03394,0.16969 0.07272,0.21817c0.03879,0.05333 0.07272,0.1503 0.07272,0.21817c0,0.06788 0.03394,0.16969 0.07272,0.21817c0.03879,0.05333 0.07272,0.1503 0.07272,0.21817c0,0.06788 0.03394,0.16969 0.07272,0.21817c0.04848,0.06303 0.07272,0.20848 0.07272,0.39756c0,0.20363 0.02424,0.31514 0.07272,0.35878c0.10666,0.08727 0.10666,2.13812 0.00485,2.23024c-0.03879,0.02909 -0.07757,0.1406 -0.08727,0.24727c-0.01455,0.20363 -0.09697,0.26181 -0.13575,0.09697c-0.01455,-0.05333 -0.07272,-0.1503 -0.1309,-0.21817c-0.05818,-0.06788 -0.16484,-0.24242 -0.23272,-0.38787c-0.06788,-0.1503 -0.14545,-0.2812 -0.17454,-0.29575c-0.02424,-0.01939 -0.04363,-0.08242 -0.04363,-0.1503c0,-0.06788 -0.03394,-0.1309 -0.07272,-0.14545c-0.03879,-0.01939 -0.07272,-0.07757 -0.07272,-0.1406c0,-0.05818 -0.03394,-0.13575 -0.07272,-0.16969c-0.03879,-0.03394 -0.07272,-0.10182 -0.07272,-0.1503c0,-0.04848 -0.01939,-0.09697 -0.04363,-0.11151c-0.08242,-0.05333 -0.24727,-0.42181 -0.24727,-0.55756c0,-0.07757 -0.03394,-0.16484 -0.07272,-0.19878c-0.03879,-0.03394 -0.07272,-0.13575 -0.07272,-0.22787c0,-0.10182 -0.02909,-0.17454 -0.07272,-0.18909c-0.04848,-0.01939 -0.07272,-0.09697 -0.07272,-0.21333c0,-0.10182 -0.03394,-0.20848 -0.07272,-0.24242c-0.04363,-0.03879 -0.07272,-0.14545 -0.07272,-0.2909c0,-0.14545 -0.02909,-0.25211 -0.07272,-0.2909c-0.04363,-0.03879 -0.07272,-0.14545 -0.07272,-0.2909c0,-0.14545 -0.02909,-0.25211 -0.07272,-0.2909c-0.05333,-0.04363 -0.07272,-0.16 -0.07272,-0.43635c0,-0.26666 -0.01939,-0.39271 -0.06788,-0.4315c-0.05818,-0.04848 -0.07272,-0.30544 -0.07272,-1.48359c0,-1.17815 0.01455,-1.43511 0.07272,-1.48359c0.04363,-0.03879 0.06788,-0.15515 0.06788,-0.35878c0,-0.20848 0.02424,-0.31999 0.07272,-0.36363c0.04363,-0.03879 0.07272,-0.14545 0.07272,-0.28605c0,-0.12606 0.03394,-0.27151 0.07272,-0.32484c0.03879,-0.04848 0.07272,-0.1503 0.07272,-0.21817c0,-0.07272 0.03394,-0.15515 0.07272,-0.18909c0.03879,-0.03394 0.07272,-0.12606 0.07272,-0.20363c0,-0.07757 0.06788,-0.25696 0.14545,-0.40241c0.08242,-0.14545 0.14545,-0.2909 0.14545,-0.32969c0,-0.03879 0.03394,-0.08242 0.07272,-0.10182c0.04363,-0.01455 0.07272,-0.08727 0.07272,-0.19393c0,-0.11151 0.03879,-0.20848 0.11151,-0.2812c0.05818,-0.06303 0.19878,-0.29575 0.31514,-0.52362c0.11151,-0.22787 0.2909,-0.50908 0.39756,-0.63029c0.10666,-0.12121 0.19393,-0.24242 0.19393,-0.27151c0,-0.02909 0.16484,-0.22302 0.36363,-0.4315c0.19878,-0.20848 0.36363,-0.40241 0.36363,-0.4315c0,-0.06788 0.53816,-0.61089 0.61089,-0.61089c0.03394,0 0.19393,-0.1309 0.35878,-0.2909c0.16484,-0.16 0.32969,-0.2909 0.37332,-0.2909c0.03879,0 0.1503,-0.08242 0.24727,-0.18424c0.17939,-0.18424 0.53332,-0.39756 0.66422,-0.39756c0.03879,0 0.07272,-0.01939 0.07272,-0.04848c0,-0.02424 0.05333,-0.05818 0.12121,-0.07757c0.06303,-0.01455 0.1406,-0.05818 0.17454,-0.09697c0.02909,-0.03879 0.10666,-0.06788 0.16969,-0.06788c0.05818,0 0.12121,-0.01939 0.13575,-0.04363c0.05818,-0.08727 0.71756,-0.39271 0.85331,-0.39271c0.07757,0 0.1503,-0.01939 0.16484,-0.04363c0.06303,-0.10182 0.43635,-0.24727 0.63029,-0.24727c0.1309,0 0.23272,-0.02909 0.27151,-0.07272c0.03394,-0.03879 0.1309,-0.07272 0.21817,-0.07272c0.08727,0 0.18424,-0.03394 0.21817,-0.07272c0.03394,-0.03879 0.1309,-0.07272 0.21817,-0.07272c0.08727,0 0.18424,-0.03394 0.21817,-0.07272c0.03394,-0.04363 0.14545,-0.07272 0.26181,-0.07272c0.10666,0 0.24242,-0.03394 0.2909,-0.07272c0.06303,-0.04848 0.20848,-0.07272 0.39756,-0.07272c0.20363,0 0.31514,-0.02424 0.35878,-0.07272c0.04363,-0.04848 0.15515,-0.07272 0.36363,-0.07272c0.20848,0 0.31999,-0.02424 0.36363,-0.07272c0.04363,-0.05333 0.16969,-0.07272 0.50908,-0.07272c0.33938,0 0.46544,-0.01939 0.50908,-0.07272c0.04848,-0.05818 0.18424,-0.07272 0.65453,-0.07272c0.44605,0 0.60604,-0.01455 0.64968,-0.06788c0.04363,-0.05333 0.39271,-0.06788 1.91994,-0.06788zM327.91738,179.73262c-0.65937,-0.01455 -1.29451,0.01939 -1.35754,0.07272c-0.02909,0.02424 -0.2909,0.05818 -0.5818,0.07757c-0.29575,0.01939 -0.55756,0.05333 -0.5915,0.07757c-0.02909,0.02424 -0.25696,0.05818 -0.50908,0.07272c-0.24727,0.01455 -0.47514,0.04848 -0.50423,0.07272c-0.02909,0.01939 -0.23272,0.05333 -0.45089,0.07272c-0.21817,0.01455 -0.40726,0.04848 -0.42181,0.07272c-0.01455,0.01939 -0.07757,0.03879 -0.1406,0.03879c-0.06303,0 -0.30544,0.09697 -0.54301,0.21817c-0.31029,0.16 -0.47514,0.2812 -0.60604,0.4412c-0.10182,0.12606 -0.18424,0.25696 -0.18424,0.2909c0,0.03879 -0.01939,0.06788 -0.04363,0.06788c-0.02424,0 -0.09212,0.07757 -0.15515,0.17454c-0.09212,0.15515 -0.11151,0.26181 -0.1309,0.8727c-0.02424,0.79998 0.02909,1.16845 0.24242,1.56116c0.07272,0.1406 0.13575,0.29575 0.13575,0.34908c0,0.05333 0.06788,0.21817 0.14545,0.36363c0.08242,0.14545 0.14545,0.31029 0.14545,0.35878c0,0.12121 0.24727,0.5915 0.32484,0.62059c0.03394,0.01455 0.06303,0.05818 0.06303,0.09697c0,0.04363 0.20363,0.2812 0.45089,0.53332c0.33938,0.34908 0.52847,0.49938 0.78058,0.62543c0.18909,0.09212 0.38302,0.16484 0.4412,0.16484c0.05818,0 0.14545,0.03394 0.19878,0.07272c0.1309,0.10182 1.3139,0.10182 1.44481,0c0.05333,-0.03879 0.15515,-0.07272 0.22787,-0.07272c0.08727,0 0.19878,-0.06303 0.32969,-0.18909c0.11151,-0.10666 0.24242,-0.20363 0.2909,-0.22302c0.10182,-0.02909 0.4412,-0.38302 0.4412,-0.45574c0,-0.02424 0.1503,-0.20363 0.33938,-0.40241c0.18424,-0.19393 0.35393,-0.39756 0.36847,-0.45089c0.01939,-0.05333 0.09697,-0.16969 0.16969,-0.25696c0.07757,-0.08727 0.1406,-0.18909 0.1406,-0.22302c0,-0.03879 0.02909,-0.07757 0.06303,-0.09212c0.03394,-0.0097 0.10182,-0.10666 0.15515,-0.20848c0.05333,-0.10182 0.13575,-0.22302 0.18424,-0.27636c0.04848,-0.04848 0.12121,-0.16 0.15515,-0.24727c0.03879,-0.08727 0.10182,-0.18909 0.14545,-0.22302c0.10182,-0.08727 0.41211,-0.7224 0.41211,-0.84846c0,-0.05818 0.03394,-0.14545 0.07272,-0.19878c0.08242,-0.11151 0.10666,-1.35269 0.02424,-1.40117c-0.02424,-0.01455 -0.04848,-0.08242 -0.04848,-0.1406c0,-0.06303 -0.08727,-0.28605 -0.18909,-0.49453c-0.20363,-0.40241 -0.48968,-0.7224 -0.78058,-0.86785c-0.12121,-0.05818 -0.30544,-0.08727 -0.65453,-0.09697zM335.08322,179.74231c-0.17939,0.01939 -0.25211,0.06788 -0.62059,0.4315c-0.61089,0.60604 -0.63029,0.66422 -0.63029,1.7648v0.89694l0.25211,0.51392c0.13575,0.27636 0.29575,0.54786 0.34908,0.59635c0.05818,0.05333 0.10182,0.12121 0.10182,0.15515c0,0.03394 0.06303,0.13575 0.1406,0.22302c0.07272,0.08727 0.1503,0.20848 0.16969,0.26181c0.01939,0.05818 0.08242,0.16 0.1503,0.23272c0.06303,0.06788 0.12606,0.16 0.1406,0.20848c0.01455,0.04848 0.11636,0.17939 0.21817,0.2909c0.10666,0.11151 0.20363,0.24727 0.21817,0.29575c0.01939,0.05333 0.2812,0.34423 0.5818,0.65453c0.45089,0.45574 0.62059,0.5915 0.90664,0.7321c0.34908,0.17454 0.35878,0.17454 0.95997,0.17454c0.46059,-0.00485 0.63513,-0.01939 0.70301,-0.07272c0.05333,-0.03879 0.1406,-0.07272 0.19878,-0.07272c0.05818,0 0.26666,-0.07757 0.46544,-0.17454c0.29575,-0.14545 0.45089,-0.27151 0.8824,-0.71756c0.49938,-0.50908 0.71271,-0.81452 0.71271,-1.00845c0,-0.04363 0.06788,-0.20848 0.14545,-0.35393c0.08242,-0.14545 0.14545,-0.31029 0.14545,-0.36363c0,-0.05333 0.06788,-0.21817 0.14545,-0.36363c0.08242,-0.14545 0.14545,-0.31514 0.14545,-0.37817c0,-0.05818 0.04363,-0.17454 0.09697,-0.25211c0.05333,-0.08242 0.09697,-0.20363 0.09697,-0.27636c0,-0.07272 0.02424,-0.14545 0.04848,-0.16c0.05818,-0.03879 0.06303,-0.73695 0.00485,-0.77089c-0.01939,-0.01455 -0.05333,-0.1309 -0.07272,-0.26181c-0.01455,-0.1309 -0.07272,-0.32484 -0.12121,-0.4315c-0.11151,-0.22302 -0.71756,-0.863 -0.8727,-0.91149c-0.05818,-0.01455 -0.16,-0.08242 -0.23272,-0.1503c-0.06788,-0.06303 -0.18424,-0.11636 -0.25211,-0.11636c-0.07272,0 -0.16969,-0.02909 -0.22302,-0.06788c-0.05333,-0.03394 -0.29575,-0.07757 -0.54786,-0.09212c-0.25211,-0.01455 -0.47999,-0.04848 -0.50908,-0.07272c-0.03394,-0.02424 -0.23272,-0.05818 -0.4412,-0.07757c-0.20848,-0.01455 -0.40726,-0.04848 -0.43635,-0.07272c-0.02909,-0.01939 -0.32484,-0.05333 -0.65453,-0.07272c-0.32969,-0.01455 -0.62543,-0.04848 -0.65453,-0.07272c-0.05818,-0.04848 -1.39147,-0.10182 -1.71146,-0.06788zM331.26758,185.70577c-0.07757,0.01455 -0.22787,0.11151 -0.34908,0.23757c-0.12121,0.11636 -0.24727,0.21333 -0.2812,0.21333c-0.09212,0 -0.70786,0.60604 -0.70786,0.69816c0,0.03879 -0.06303,0.1406 -0.1406,0.21817c-0.07272,0.07757 -0.1503,0.19878 -0.16969,0.26666c-0.01455,0.06788 -0.05333,0.12606 -0.07757,0.12606c-0.02909,0 -0.04848,0.05333 -0.04848,0.12121c0,0.06788 -0.03394,0.13575 -0.07272,0.1503c-0.03879,0.01939 -0.07272,0.06788 -0.07272,0.11636c0,0.04848 -0.03394,0.12121 -0.07272,0.16484c-0.03879,0.03879 -0.07272,0.11636 -0.07272,0.17454c0,0.05333 -0.03394,0.11151 -0.07272,0.12606c-0.04848,0.01939 -0.07272,0.09697 -0.07272,0.21817c0,0.12121 -0.02909,0.19878 -0.08242,0.22787c-0.07272,0.04363 -0.08242,0.18909 -0.08242,1.4642c-0.00485,1.29935 0,1.41571 0.08242,1.45935c0.04363,0.02909 0.08242,0.10182 0.08242,0.16484c0,0.06788 0.01939,0.12121 0.04848,0.12121c0.02424,0 0.06303,0.05818 0.07757,0.1309c0.06303,0.26181 0.19393,0.32969 0.61089,0.31999l0.37332,-0.00485l0.63029,-0.63513c0.53332,-0.54301 0.64968,-0.63513 0.78058,-0.63513c0.20363,0 0.45089,0.16969 0.88725,0.60604c0.53816,0.53816 0.75149,0.70301 0.90179,0.70301c0.07272,0 0.16,0.02909 0.18909,0.05818c0.04848,0.04848 0.08242,0.04848 0.15515,0c0.05333,-0.02909 0.12606,-0.05818 0.16,-0.05818c0.08727,0 0.39271,-0.32969 0.48968,-0.52847c0.04363,-0.09212 0.07757,-0.24727 0.07757,-0.34423c0,-0.09697 0.03394,-0.21817 0.07272,-0.27151c0.05333,-0.07272 0.06788,-0.27151 0.07272,-0.95028c0,-0.48483 -0.01939,-0.86785 -0.04363,-0.88725c-0.02909,-0.01455 -0.06303,-0.17939 -0.08242,-0.36363c-0.01939,-0.18909 -0.05333,-0.35393 -0.07272,-0.36847c-0.02424,-0.01455 -0.04363,-0.08242 -0.04363,-0.15515c0,-0.07272 -0.04363,-0.19878 -0.09697,-0.27636c-0.05333,-0.08242 -0.09697,-0.18909 -0.09697,-0.24727c0,-0.1503 -0.31514,-0.75149 -0.50423,-0.95028c-0.09212,-0.10182 -0.17939,-0.22302 -0.19393,-0.27151c-0.04363,-0.12606 -0.82422,-0.8824 -0.91634,-0.8824c-0.03879,0 -0.08727,-0.03394 -0.10182,-0.07272c-0.01455,-0.04363 -0.10182,-0.10666 -0.19878,-0.14545c-0.15515,-0.06788 -0.63513,-0.08727 -0.96482,-0.03879z"/><path d="M339.31098,195.29093c0.02909,0.0097 0.05333,0.11151 0.06303,0.23272c0.0097,0.12606 0.04848,0.25211 0.08727,0.2812c0.10182,0.09212 0.10182,2.57932 -0.00485,2.66659c-0.04848,0.04363 -0.07272,0.15515 -0.07272,0.36363c0,0.20848 -0.02424,0.31999 -0.07272,0.36363c-0.03879,0.03394 -0.07272,0.1309 -0.07272,0.21817c0,0.08727 -0.03394,0.18424 -0.07272,0.21817c-0.03879,0.03394 -0.07272,0.12121 -0.07272,0.19393c0,0.16 -0.30544,0.78058 -0.47029,0.95997c-0.05818,0.06788 -0.11151,0.14545 -0.11151,0.17454c0,0.02909 -0.10182,0.16 -0.21817,0.29575c-0.12121,0.1309 -0.21817,0.26181 -0.21817,0.2909c0,0.06303 -0.68846,0.75149 -0.75149,0.75149c-0.02909,0 -0.1406,0.08242 -0.24242,0.18424c-0.20363,0.18909 -0.55756,0.39756 -0.68362,0.39756c-0.03879,0 -0.08242,0.03394 -0.09697,0.07272c-0.01939,0.03879 -0.08242,0.07272 -0.1406,0.07272c-0.06303,0 -0.12606,0.01939 -0.1406,0.04363c-0.04848,0.07272 -0.41211,0.24727 -0.52847,0.24727c-0.05818,0 -0.1503,0.03394 -0.19878,0.07272c-0.05333,0.03879 -0.16484,0.07272 -0.25211,0.07272c-0.08242,0 -0.17939,0.03394 -0.21333,0.07272c-0.03879,0.04363 -0.14545,0.07272 -0.2909,0.07272c-0.14545,0 -0.25211,0.02909 -0.2909,0.07272c-0.04363,0.05333 -0.16,0.07272 -0.43635,0.07272c-0.27636,0 -0.39271,0.01939 -0.43635,0.07272c-0.09212,0.11151 -3.30172,0.11151 -3.39384,0c-0.04363,-0.05333 -0.16,-0.07272 -0.43635,-0.07272c-0.27636,0 -0.39271,-0.01939 -0.43635,-0.07272c-0.03879,-0.04363 -0.14545,-0.07272 -0.2909,-0.07272c-0.14545,0 -0.25211,-0.02909 -0.2909,-0.07272c-0.03879,-0.04363 -0.14545,-0.07272 -0.28605,-0.07272c-0.12606,0 -0.27151,-0.03394 -0.32484,-0.07272c-0.04848,-0.03879 -0.1406,-0.07272 -0.19393,-0.07272c-0.17939,0 -1.09088,-0.48968 -1.28966,-0.68846c-0.10182,-0.10182 -0.21333,-0.18424 -0.24242,-0.18424c-0.07272,0 -0.91149,-0.82422 -0.91149,-0.89694c0,-0.02424 -0.08727,-0.14545 -0.19878,-0.26666c-0.10666,-0.12121 -0.24727,-0.33454 -0.31514,-0.47029c-0.06788,-0.1406 -0.1406,-0.26666 -0.16969,-0.2812c-0.02424,-0.01939 -0.04363,-0.08242 -0.04363,-0.1503c0,-0.06788 -0.03394,-0.1309 -0.07272,-0.14545c-0.03879,-0.01939 -0.07272,-0.08242 -0.07272,-0.1406c0,-0.06303 -0.01939,-0.12606 -0.04363,-0.1406c-0.10182,-0.06303 -0.24727,-0.43635 -0.24727,-0.63029c0,-0.1309 -0.02909,-0.23272 -0.07272,-0.27151c-0.04848,-0.04363 -0.07272,-0.15515 -0.07272,-0.36363c0,-0.20848 -0.02424,-0.31999 -0.07272,-0.36363c-0.10666,-0.09212 -0.10666,-2.28357 0,-2.37569c0.03879,-0.03394 0.07272,-0.1406 0.07272,-0.24242v-0.17939l0.25696,-0.02909c0.13575,-0.0097 0.26666,-0.01455 0.2909,0c0.01939,0.0097 0.03394,0.13575 0.03394,0.27636c0,0.16969 0.02424,0.2812 0.07272,0.31999c0.05333,0.04363 0.07272,0.16969 0.07272,0.50908c0,0.33938 0.01939,0.46544 0.07272,0.50908c0.04848,0.03879 0.07272,0.1503 0.07272,0.33454c0.00485,0.16 0.03394,0.31029 0.07272,0.36363c0.03879,0.05333 0.07272,0.12121 0.07272,0.15515c0,0.08242 0.75634,0.84361 0.83876,0.84361c0.03879,0 0.14545,0.06303 0.23272,0.14545c0.09212,0.07757 0.20363,0.14545 0.24727,0.14545c0.04363,0 0.09697,0.02424 0.11151,0.04848c0.01455,0.02909 0.07272,0.04848 0.12606,0.04848c0.09212,0 0.09212,-0.02909 0.06303,-1.00845c-0.03879,-1.21208 -0.04363,-1.20239 0.40726,-0.97936c0.16484,0.07757 0.30544,0.14545 0.31999,0.14545c0.01455,0 0.12121,0.06303 0.23272,0.1406c0.16484,0.11636 0.27636,0.1503 0.53332,0.16484c0.22787,0.01455 0.34908,0.04848 0.41696,0.11151c0.11636,0.11636 0.18909,0.5915 0.23272,1.58541c0.03394,0.68846 0.03879,0.7224 0.14545,0.76119c0.05818,0.02424 0.12121,0.06788 0.1406,0.09212c0.04848,0.07757 0.24727,0.06303 0.31999,-0.02424c0.07272,-0.08727 0.07757,-0.31999 0.04363,-1.44965l-0.02424,-0.77573l0.20848,-0.01455c0.13575,-0.0097 0.25696,0.01455 0.33454,0.06303c0.09697,0.06303 0.19878,0.07757 0.44605,0.05818c0.17454,-0.0097 0.47999,0 0.67392,0.02909l0.34908,0.05333l0.0097,0.63029c0.00485,0.34908 0.0097,0.85331 0.0097,1.11997l0.00485,0.48483h0.41211h0.41211l-0.01455,-0.33938c-0.00485,-0.18909 -0.02909,-0.68362 -0.04848,-1.10542c-0.03394,-0.75634 -0.03394,-0.77089 0.07272,-0.86785c0.12606,-0.11636 0.49938,-0.1406 0.61574,-0.04363c0.05333,0.04363 0.1309,0.04363 0.32969,0.00485c0.21333,-0.04848 0.58665,-0.07272 0.78543,-0.05333c0.03394,0.00485 0.01455,1.1539 -0.03394,2.04115l-0.0097,0.21817l0.24727,0.01455c0.17454,0.0097 0.26181,-0.00485 0.31029,-0.06303c0.03394,-0.03879 0.09212,-0.07272 0.12606,-0.07272c0.1309,0 0.15515,-0.23757 0.1309,-1.24602l-0.02909,-1.0133l0.1406,-0.09212c0.09697,-0.06303 0.23757,-0.09697 0.46544,-0.10182c0.24242,-0.00485 0.37332,-0.03879 0.50908,-0.12121c0.10182,-0.06303 0.19393,-0.1309 0.19878,-0.1503c0.03394,-0.07272 0.5915,-0.32484 0.66422,-0.3006c0.05818,0.02424 0.07272,0.12121 0.07272,0.41211c0,0.20848 0.03394,0.50423 0.07272,0.65937c0.05333,0.18909 0.06788,0.38302 0.04848,0.59635c-0.03394,0.37332 0.01939,0.49453 0.16969,0.39756c0.05333,-0.02909 0.1309,-0.05818 0.16969,-0.05818c0.08727,0 0.99391,-0.91149 0.99391,-1.00361c0,-0.03394 0.06788,-0.12121 0.14545,-0.19393c0.13575,-0.12121 0.14545,-0.14545 0.14545,-0.49938c0,-0.27636 0.01939,-0.39271 0.07272,-0.43635c0.05333,-0.04363 0.07272,-0.16969 0.07272,-0.50908c0,-0.33454 0.01939,-0.46544 0.07272,-0.50908c0.03879,-0.02909 0.07272,-0.16484 0.08242,-0.30544l0.01455,-0.24727l0.21817,-0.05818c0.12121,-0.03394 0.24242,-0.05333 0.26666,-0.04848z"/></g></g></svg>