<svg version="1.1" xmlns="http://www.w3.org/2000/svg" xmlns:xlink="http://www.w3.org/1999/xlink" width="674" height="390.36163" viewBox="0,0,674,390.36163"><g transform="translate(24.5,16.58899)"><g data-paper-data="{&quot;isPaintingLayer&quot;:true}" fill-rule="nonzero" stroke-linecap="butt" stroke-linejoin="miter" stroke-miterlimit="10" stroke-dasharray="" stroke-dashoffset="0" style="mix-blend-mode: normal"><path d="M-24.5,368.41101v-385h674v385z" fill="#06001b" stroke="#ff7b00" stroke-width="0"/><path d="M150.14924,318.28184c0.02087,-0.07247 0.04324,-0.14225 0.06698,-0.20944c-1.84599,-0.83172 -3.58132,-2.03853 -5.03064,-2.91054c-5.56491,-3.34823 -11.23081,-6.41239 -16.55793,-10.06638c2.0451,6.79609 3.87507,13.59659 5.38864,20.56087c0.41034,2.98958 0.97984,5.77724 0.09655,8.29362c0.63111,1.32753 1.29539,2.6396 1.98294,3.9386c1.38447,2.81329 1.94266,3.53427 2.64451,6.63241c0.92705,4.09223 1.44627,9.60206 -0.83548,13.35966c-2.7603,4.54569 -8.77048,7.03031 -13.59485,8.64728c-11.62473,3.89621 -22.59507,6.03768 -34.8795,6.39065c-3.48156,0.10003 -6.96434,0.16422 -10.44723,0.19151c-5.08393,0.36424 -12.59825,2.12809 -16.63662,-2.20887c-0.89907,-0.96554 -0.96353,-5.55583 -1.02353,-6.9531c-0.24197,-5.63525 -1.08085,-14.34279 3.3197,-18.51472c4.26766,-4.04593 10.20797,-4.00329 15.76333,-4.38242c-1.01754,-3.15651 0.26983,-7.17186 1.27433,-10.15809c2.50231,-5.19939 4.48975,-10.43703 6.13239,-15.96209c0.96359,-3.24108 2.75745,-7.19079 2.53321,-10.59546c-0.47091,-7.14999 -2.79309,-13.97907 -3.64885,-21.07413c-0.221,0.31702 -0.45779,0.6204 -0.71062,0.90598c0.18918,0.65395 0.03251,1.2774 -0.15193,1.71295c0.09778,2.15049 0.24378,3.77126 -0.94735,5.98392c-2.9321,5.44671 -11.47707,8.95332 -17.14256,9.75961c-1.4836,0.21114 -5.01664,0.8089 -6.53599,0.52092c-2.0307,-0.3849 -3.54873,-2.12005 -5.31426,-3.19466c-0.89861,-0.54694 -2.12904,-0.43723 -2.9686,-1.07112c-0.82071,-0.61966 -1.00656,-1.84379 -1.78386,-2.51711c-0.75032,-0.64995 -1.99829,-0.59649 -2.66235,-1.33435c-2.5303,-2.81155 -2.25523,-3.78419 -2.10706,-6.57478c-1.74871,-0.79093 -3.21273,-1.95927 -3.98575,-3.71094c-1.95497,-4.42997 1.219,-7.18688 3.19516,-10.55168c1.8466,-3.14421 3.42049,-6.51398 5.22096,-9.69874c5.16358,-5.21202 12.58413,-10.52316 16.14595,-16.98903c1.06275,-1.92924 1.32918,-4.20795 2.20395,-6.22939c3.88128,-8.96899 7.26221,-16.46777 6.99367,-26.46595l-0.75389,-0.20038c0,0 -1.64124,-0.44916 -1.91616,-1.94625c-2.31576,0.40562 -5.1044,0.54997 -6.35083,0.90191c-6.12849,1.7304 -11.94923,3.23789 -18.28746,1.58546c-3.77224,-0.98345 -4.93821,-0.73996 -6.72876,-4.57013c-0.57424,-1.22835 -0.59273,-4.5472 -0.64789,-5.9945c-1.79514,-12.85439 -4.33996,-26.82783 2.62172,-38.64103c0.74891,-1.27081 2.70154,-4.87457 3.68115,-5.76096c1.24444,-1.12601 2.86881,-1.74474 4.26075,-2.68231c3.51373,-2.36676 5.94374,-4.28707 9.9941,-5.58115c0,0 0.88068,-0.27524 1.76004,0.02366c2.24761,-0.23 4.64543,-0.40292 6.7294,-0.95744c10.81896,-2.87882 22.25521,-7.09747 32.22465,-0.06649c2.70135,1.90514 3.1402,1.66684 5.39687,4.68007c2.51143,3.35339 5.01954,7.53319 6.98728,11.2345c4.05567,6.89427 6.79809,14.03646 8.2425,21.92277c0.22554,1.23143 0.9468,6.60762 0.56417,7.33247c-0.735,1.39234 -2.43469,2.06931 -3.88023,2.69317c-4.50621,1.94477 -10.95782,1.84824 -15.83411,2.52428l-0.12063,0.01673c0.71815,2.3993 1.56422,5.72452 1.14861,6.93178c-0.06983,0.20285 -0.14859,0.40211 -0.23531,0.59793c5.0975,4.0482 8.89762,9.33075 14.37823,12.96166c1.72499,1.14281 4.16061,4.03141 6.17926,4.48077c3.37513,0.75132 6.57405,-2.27263 8.23619,-4.86956c1.4015,-2.18971 1.55688,-6.21383 2.34892,-8.62364c0.49086,-0.19191 0.96287,-0.36913 1.42065,-0.53249c-1.06059,-3.81536 -2.57777,-7.37356 -0.21056,-11.21407c4.13935,-6.71558 16.5787,-10.00695 22.2413,-3.5609c2.96496,3.37517 2.94751,10.84836 2.71488,15.05197l-0.44646,0.43936c3.02977,3.20978 5.01778,9.25257 4.98833,13.07721c-0.01638,2.12673 -0.95189,4.14625 -1.37147,6.23125c-0.9649,4.79488 -0.53188,9.35512 -3.83084,13.47682c-2.66717,3.33234 -7.39842,6.47955 -10.86382,8.87038c-0.64155,0.37553 -1.31372,0.73775 -2.01098,1.08154c-0.10805,1.08063 -0.98859,1.81683 -0.98859,1.81683l-1.28455,0.84454c-1.48543,2.6275 -3.36457,4.47995 -5.17325,6.8798c-0.31062,0.35841 -0.62732,0.71227 -0.94991,1.06151l0.12866,0.05836c9.55535,5.53421 20.48985,8.17654 30.13209,13.51198c1.66244,0.91989 4.22799,1.84755 6.32485,3.10823c0.99829,-3.51623 2.93011,-6.83902 5.74743,-9.08533c5.6771,-4.52648 17.21111,-3.93323 21.87062,1.80827c2.33458,2.8767 2.62934,6.43559 3.09059,9.94473c0.46478,3.536 -0.21268,5.87675 -1.34172,9.22042c-3.16811,11.98522 -10.57123,26.59704 -22.53667,31.84425c-1.02576,0.44982 -2.21813,0.31756 -3.31933,0.52221c-4.30442,0.79996 -7.78697,1.67098 -12.30025,0.94774c-4.77423,-0.76506 -9.81873,-3.02569 -14.17052,-5.12523l-2.06426,-0.55543c0,0 -2.5172,-0.72509 -1.79211,-3.24229zM169.01788,322.03375c3.90431,0.64747 6.8159,-0.29246 10.55451,-0.93723c0.78975,-0.1362 1.65728,0.05746 2.38908,-0.2692c3.61935,-1.61559 6.24403,-4.75247 8.75558,-7.62666c5.09948,-5.83581 8.63251,-13.29582 10.59717,-20.81551c1.42185,-4.20409 2.41733,-10.49559 -0.77992,-14.33521c-2.83496,-3.40454 -11.16215,-3.94791 -14.49694,-1.08357c-3.10524,2.66718 -4.86549,7.10929 -4.6201,11.05456c0,0 0.09148,1.94064 -1.55439,2.55817c-1.59247,3.33292 -5.19465,6.38317 -7.22898,8.40351c-4.43842,4.33511 -6.44054,10.43959 -10.95115,14.77102c-1.1042,1.06033 -2.76242,2.99552 -4.28526,4.14313c3.64112,1.73258 7.73601,3.49283 11.62041,4.13699zM84.46395,345.9169c-5.25072,0.72509 -11.90005,-0.30407 -16.27392,3.37204c-1.48354,1.24687 -1.21619,1.73228 -1.33431,3.62108c-0.22495,3.59717 -0.45216,7.21329 -0.29829,10.81498c0.03931,0.92012 0.13467,1.83901 0.12743,2.75995c-0.00332,0.42225 -0.4641,0.96481 -0.15904,1.25677c2.15829,2.06565 9.76792,0.30958 12.24986,0.13338c13.30467,-0.11016 26.27509,-0.57286 38.99782,-4.72542c4.7879,-1.56272 12.70023,-3.28521 15.63194,-7.95304c1.56101,-2.48543 0.81081,-6.88092 0.2224,-9.53061c-0.53891,-2.42678 -1.0737,-3.13724 -2.19589,-5.39062c-0.35596,-0.67341 -0.70573,-1.35027 -1.0483,-2.03077c-2.52707,1.42674 -6.31722,2.31465 -8.69689,3.17973c-9.4391,3.43137 -19.87525,5.83444 -29.93548,4.65249c-1.11229,-0.13068 -3.79208,-0.46826 -5.8246,-0.82443c-0.65223,0.55212 -1.46273,0.66448 -1.46273,0.66448zM128.71385,298.70581c6.03557,4.56581 12.68653,8.04413 19.16593,11.96278c0.50018,0.3025 5.03147,3.75435 6.47806,3.05795c1.58628,-0.76364 2.43223,-2.5478 3.7069,-3.76215c4.46956,-4.25804 6.50222,-10.3072 10.8799,-14.70168c1.71942,-1.70274 3.8022,-3.53294 5.25633,-5.45522c0.57129,-0.75521 1.71567,-1.84384 1.14531,-2.59976c-1.19841,-1.58829 -5.55436,-2.79391 -7.24025,-3.72827c-9.664,-5.35602 -20.60619,-8.0346 -30.21561,-13.55916l-1.57835,-0.69466c-10.09149,8.59609 -24.01885,13.38256 -37.25626,12.39394c-2.55045,-0.19047 -5.00968,-1.07488 -7.41048,-2.04825c0.31605,8.33232 3.60113,16.21445 3.93385,24.51347c0.08539,2.12977 -0.63243,4.22575 -1.19347,6.28206c-2.12561,7.79078 -4.30491,15.19767 -7.8557,22.50847c-0.34897,1.02645 -2.61047,6.5759 -0.49672,7.20316c10.75202,3.19069 23.66905,0.13224 33.85773,-3.57587c2.1612,-0.78656 4.29778,-1.6392 6.44629,-2.45978c0.45046,-0.17205 1.22019,-0.34843 1.87578,-0.6784c-0.09229,-0.73253 0.04345,-1.7376 1.18622,-2.42591c-0.08415,-1.47778 -0.44367,-3.67021 -0.54102,-4.3641c-1.77062,-8.10428 -3.97834,-15.98005 -6.45241,-23.89591l-0.41284,-1.18118c0,0 -0.86162,-2.4738 1.61217,-3.33541c1.04188,-0.36289 1.79779,-0.13413 2.3238,0.25228c1.37806,-0.77263 2.78488,0.29161 2.78488,0.29161zM52.11645,290.25613c0.69942,0.56088 1.76266,0.54429 2.43986,1.1318c0.69823,0.60576 0.79373,1.75416 1.53034,2.31263c0.71798,0.54434 1.80883,0.33922 2.5806,0.80415c1.20154,0.72383 2.01438,2.29033 3.40523,2.47246c5.03794,0.65969 11.04276,-1.83145 14.98211,-4.77387c1.17287,-0.87605 2.53547,-1.66212 3.27608,-2.92488c0.32908,-0.56108 0.37482,-1.47562 0.34505,-2.3309c-1.86822,0.37079 -3.84588,0.45803 -5.61212,0.7029c-6.50496,0.90184 -12.778,2.00975 -19.35973,1.57121c-1.24081,-0.08267 -2.73746,-0.18453 -4.28271,-0.41057c0.02158,0.5336 0.18916,1.03921 0.69529,1.44508zM156.50554,203.63268c-0.11112,-0.83481 -0.17317,-2.94454 -0.89727,-3.74259c-3.3487,-3.69069 -9.49353,-0.7596 -12.48756,1.73457c-0.8604,0.71676 -1.83999,1.43899 -1.94513,2.68106c-0.132,1.5594 0.74153,3.78447 1.37508,5.63174c1.71032,-0.27937 3.48388,-0.3812 5.63895,-0.36398c2.68774,0.02149 6.01404,-0.54956 8.92975,-0.06786c-0.03867,-1.97137 -0.33983,-3.81467 -0.61382,-5.87294zM88.44178,240.27011c0.67504,-1.54698 1.13078,-3.20951 2.02512,-4.64093c0.80393,-1.28672 1.76194,-2.30035 2.83173,-3.10761c-2.23489,-5.1372 -4.28543,-10.42147 -5.8233,-15.77104c0,0 -0.13987,-0.48705 -0.08236,-1.09423c-2.04518,-0.18525 -4.07738,-0.50477 -5.99295,-0.82745c0.03519,4.70535 -0.42664,9.88943 -1.72607,14.29584c-1.3667,4.63453 -3.81588,8.86042 -5.72576,13.25841c-0.92727,2.13525 -1.23747,4.53516 -2.36865,6.56975c-3.76107,6.76484 -11.07598,12.34905 -16.5983,17.69913c-2.20872,4.101 -4.31376,8.25094 -6.87219,12.13417c-0.25667,0.38958 -1.49879,1.85621 -1.00886,2.66795c1.49779,2.48156 6.70935,2.3919 8.95174,2.54001c7.05045,0.46569 13.91736,-0.94307 20.88694,-1.89288c3.0988,-0.4223 5.88378,-0.39924 6.4787,-3.85427c1.45122,-11.29379 6.81468,-22.34384 5.23523,-33.73638l-0.28779,-2.07578c0,0 -0.01022,-0.07376 -0.01479,-0.19811c-0.32877,-0.97969 0.09156,-1.96655 0.09156,-1.96655zM107.09305,228.73099l3.41805,0.86316c0,0 1.73476,0.58624 1.81335,2.22884l0.16928,0.42408c3.01488,6.60468 6.71069,10.55303 12.63442,14.51041c1.97905,1.32211 3.99472,3.72484 6.01208,4.81257c4.95654,2.67248 12.49226,0.23005 16.83304,-2.34965c3.04671,-2.07733 7.22969,-4.82316 9.58026,-7.71593c2.65076,-3.26219 2.03526,-7.42388 2.79155,-11.24276c0.38269,-1.93236 1.23687,-3.28654 1.26923,-5.24219c0.04999,-3.02188 -1.91745,-8.13258 -4.31047,-10.06674c-1.1961,-0.96675 -2.70681,-0.10015 -3.93851,-0.04996c-4.55467,0.1856 -8.87193,-0.0162 -13.40586,0.48886c0.02488,7.6823 -6.74633,17.16707 -15.61335,14.99824c-2.55257,-0.62435 -3.70282,-2.29013 -5.65644,-3.76951c-2.51776,-1.90658 -5.17957,-3.33983 -7.54274,-5.48743c-3.24882,-2.95244 -5.87781,-6.37491 -9.31008,-9.10895c-0.02472,0.02447 -0.04944,0.04889 -0.07417,0.07325c-0.61333,0.60431 -1.27477,1.11946 -1.97586,1.55612c2.06857,4.97253 3.30036,10.29135 5.29154,15.33819c0.67779,-0.0845 1.35111,-0.16859 2.01469,-0.26059zM94.88248,215.47255c-0.73228,0.1342 -1.48146,0.22502 -2.24179,0.27978c1.43815,4.91454 3.32157,9.77382 5.37664,14.49907c0.58261,-0.17105 1.17663,-0.31799 1.77816,-0.44698c-1.73344,-4.75546 -2.91838,-9.73807 -4.91301,-14.33186zM92.95997,180.19154c7.10228,-1.70934 13.06808,-5.394 20.06952,-7.21142c-0.75774,-1.54334 -1.58619,-3.06973 -2.48552,-4.59278c-1.8782,-3.57068 -4.27799,-7.40816 -6.62924,-10.67916c-7.77192,-10.81206 -21.81203,-5.32878 -32.14382,-2.63966c-2.85036,0.74188 -6.17941,0.87143 -9.09344,1.27543c0,0 -0.14713,0.0204 -0.37617,0.01645c-2.81509,1.0967 -4.58546,2.65864 -7.36586,4.49471c-1.14481,0.756 -2.50082,1.20437 -3.53878,2.10146c-2.41405,2.08643 -4.47045,7.06436 -5.07941,10.03967c-0.84083,4.1082 -1.67705,8.18764 -1.84643,12.3899c5.80157,-0.39739 11.50639,-1.64607 17.34819,-1.65777c4.44992,-0.00891 8.6302,0.36918 13.08268,-0.25299l0.68609,-0.09512c0.12998,-0.13538 0.26334,-0.27001 0.40017,-0.40391c4.84279,-1.31035 10.57886,-3.27513 15.71277,-2.10342c0.57358,-0.51547 1.25924,-0.6814 1.25924,-0.6814zM77.57484,208.78044l0.83458,0.23731c5.82068,0.90237 14.78225,3.53574 19.86785,-0.83201c3.84158,-3.29933 -0.03823,-8.71982 -1.52858,-12.59603c-0.91709,-2.38523 -1.52689,-5.67096 -3.13671,-7.77309c-3.1275,-4.08392 -10.50044,-1.23039 -14.66138,-0.34808c-0.27976,0.34656 -0.6362,0.57484 -0.95598,0.7231c-2.81405,3.74244 -1.33578,9.82496 -0.76232,14.0018c0.23513,1.71257 0.7862,4.53204 0.34255,6.587z" fill="#000000" stroke="none" stroke-width="0.5"/><path d="M91.7399,180.90773c-5.13391,-1.17172 -10.91338,0.8105 -15.75617,2.12085c-0.13683,0.1339 -0.27143,0.26843 -0.4014,0.40381l-0.68832,0.09484c-4.45247,0.62217 -8.6617,0.22972 -13.11162,0.23863c-5.84181,0.0117 -11.55626,1.24749 -17.35783,1.64488c0.16938,-4.20227 1.00015,-8.2979 1.84098,-12.40611c0.60896,-2.97531 2.66566,-7.97166 5.07971,-10.05809c1.03795,-0.89709 2.3955,-1.35143 3.54031,-2.10742c2.78039,-1.83607 4.55937,-3.41426 7.37446,-4.51096c0.22904,0.00395 0.37659,-0.01699 0.37659,-0.01699c2.91403,-0.404 6.26366,-0.54906 9.11402,-1.29094c10.3318,-2.68912 24.44108,-8.14292 32.213,2.66913c2.35125,3.27099 4.75454,7.12792 6.63274,10.69861c0.89934,1.52305 1.72729,3.05604 2.48503,4.59938c-7.00144,1.81742 -12.97769,5.52693 -20.07998,7.23627c0,0 -0.68792,0.16866 -1.2615,0.68412z" data-paper-data="{&quot;noHover&quot;:false,&quot;origItem&quot;:[&quot;Path&quot;,{&quot;applyMatrix&quot;:true,&quot;segments&quot;:[[[185.91994,360.38308],[0,0],[14.20457,-3.41867]],[[226.05898,345.96024],[-14.00288,3.63484],[-1.51548,-3.08668]],[[221.08793,336.77468],[1.79868,3.0461],[-3.75641,-7.14137]],[[207.82945,315.41636],[4.70251,6.54199],[-15.54384,-21.62411]],[[143.54181,310.13705],[20.66359,-5.37825],[-5.70072,1.48376]],[[125.35492,312.6879],[5.82806,-0.808],[0,0]],[[124.60259,312.72079],[0.45807,0.00791],[-5.63017,2.1934]],[[109.87088,321.71022],[5.56079,-3.67215],[-2.28962,1.51199]],[[102.79333,325.91314],[2.07591,-1.79417],[-4.82811,4.17286]],[[92.63451,345.99249],[1.21792,-5.95062],[-1.68167,8.21641]],[[88.94164,370.77229],[0.33877,-8.40453],[11.60314,-0.79479]],[[123.63803,367.45676],[-11.68361,0.02339],[8.89984,-0.01782]],[[149.80338,366.95078],[-8.90495,1.24434],[0,0]],[[151.17557,366.76054],[0,0],[0.25995,-0.27075]],[[151.97591,365.95271],[-0.27366,0.2678],[9.68559,-2.6207]],[[183.40145,361.74588],[-10.26782,-2.34343],[1.14716,-1.03094]]],&quot;closed&quot;:true}]}" fill="#ffffff" stroke="none" stroke-width="0.5"/><path d="M157.35743,317.93056c1.52284,-1.14761 3.18049,-3.0835 4.28468,-4.14383c4.51062,-4.33143 6.50096,-10.46922 10.93938,-14.80433c2.03433,-2.02034 5.68948,-5.12277 7.28195,-8.45569c1.64587,-0.61753 1.56159,-2.55759 1.56159,-2.55759c-0.24538,-3.94527 1.52142,-8.38596 4.62667,-11.05314c3.33479,-2.86435 11.68453,-2.30781 14.51949,1.09673c3.19725,3.83961 2.21498,10.15294 0.79312,14.35703c-1.96466,7.51969 -5.51576,15.03658 -10.61525,20.87239c-2.51155,2.87419 -5.163,6.02172 -8.78235,7.63731c-0.73181,0.32666 -1.60504,0.13327 -2.39479,0.26947c-3.73861,0.64477 -6.6719,1.57977 -10.57621,0.93231c-3.8844,-0.64416 -7.99715,-2.41808 -11.63827,-4.15066z" data-paper-data="{&quot;noHover&quot;:false,&quot;origItem&quot;:[&quot;Path&quot;,{&quot;applyMatrix&quot;:true,&quot;segments&quot;:[[[338.03575,644.06749],[-7.76879,-1.28832],[7.80863,1.29493]],[[359.14477,642.19303],[-7.47721,1.28953],[1.57949,-0.2724]],[[363.92294,641.65462],[-1.46361,0.65332],[7.23869,-3.23118]],[[381.4341,626.4013],[-5.0231,5.74839],[10.19897,-11.67162]],[[402.62845,584.77028],[-3.92933,15.03938],[2.84371,-8.40818]],[[401.06861,556.09986],[6.39449,7.67923],[-5.66992,-6.80908]],[[372.07473,553.93273],[6.66958,-5.72869],[-6.21049,5.33436]],[[362.83452,576.04185],[-0.49077,-7.89054],[0,0]],[[359.72573,581.15818],[3.29174,-1.23506],[-3.18493,6.66585]],[[345.26776,597.96521],[4.06867,-4.04068],[-8.87684,8.67023]],[[323.36545,627.50725],[9.02123,-8.66285],[-2.20839,2.12066]],[[314.79493,635.79352],[3.04569,-2.29523],[7.28224,3.46516]]],&quot;closed&quot;:true}]}" fill="#150808" stroke="none" stroke-width="0.5"/><path d="M85.88336,345.22295c2.03252,0.35617 4.71984,0.68496 5.83213,0.81564c10.06023,1.18195 20.57695,-1.21008 30.01605,-4.64144c2.37967,-0.86507 6.17117,-1.75063 8.69824,-3.17737c0.34258,0.6805 0.69387,1.36044 1.04984,2.03385c1.12219,2.25338 1.65994,2.97208 2.19885,5.39885c0.58841,2.64969 1.34038,7.05948 -0.22063,9.54491c-2.93171,4.66784 -10.84903,6.41186 -15.63693,7.97458c-12.72273,4.15256 -25.78498,4.62075 -39.08964,4.73091c-2.48194,0.1762 -10.09594,1.92358 -12.25423,-0.14207c-0.30506,-0.29197 0.15514,-0.83607 0.15846,-1.25833c0.00724,-0.92093 -0.08932,-1.84366 -0.12863,-2.76378c-0.15387,-3.6017 0.0716,-7.23437 0.29654,-10.83155c0.11812,-1.8888 -0.14856,-2.3802 1.33498,-3.62707c4.37387,-3.67611 11.02937,-2.66412 16.28009,-3.38921c0,0 0.81265,-0.11581 1.46488,-0.66793z" data-paper-data="{&quot;noHover&quot;:false,&quot;origItem&quot;:[&quot;Path&quot;,{&quot;applyMatrix&quot;:true,&quot;segments&quot;:[[[168.92789,691.83379],[0,0],[-10.50144,1.45018]],[[136.38004,698.57787],[8.74774,-7.35222],[-2.96707,2.49374]],[[133.71142,705.82002],[0.23623,-3.7776],[-0.44989,7.19435]],[[133.11485,727.44999],[-0.30775,-7.20339],[0.07862,1.84025]],[[133.3697,732.96988],[0.01449,-1.84187],[-0.00664,0.8445]],[[133.05163,735.48342],[-0.61012,-0.58393],[4.31658,4.13129]],[[157.55135,735.75017],[-4.96389,0.35241],[26.60933,-0.22031]],[[235.547,726.29933],[-25.44547,8.30513],[9.57579,-3.12544]],[[266.81089,710.39325],[-5.86342,9.33567],[3.12202,-4.97085]],[[267.25568,691.33203],[1.17683,5.29938],[-1.07782,-4.85355]],[[262.8639,680.55078],[2.24437,4.50677],[-0.71193,-1.34682]],[[260.7673,676.48925],[0.68515,1.36099],[-5.05415,2.85349]],[[243.37352,682.8487],[4.75933,-1.73015],[-18.8782,6.86273]],[[183.50255,692.15369],[20.12046,2.3639],[-2.22458,-0.26136]],[[171.85335,690.50483],[4.06504,0.71234],[-1.30446,1.10423]]],&quot;closed&quot;:true}]}" fill="#150808" stroke="none" stroke-width="0.5"/><path d="M77.18306,202.21134c-0.57346,-4.17684 -2.03845,-10.31537 0.7756,-14.05781c0.31978,-0.14826 0.6796,-0.37945 0.95937,-0.72602c4.16093,-0.88231 11.59219,-3.74044 14.71969,0.34349c1.60983,2.10213 2.24393,5.41798 3.16102,7.80322c1.49035,3.87621 5.3587,9.34764 1.51712,12.64697c-5.0856,4.36775 -14.12015,1.73846 -19.94083,0.8361l-0.83667,-0.23924c0.44365,-2.05496 -0.12018,-4.89413 -0.35531,-6.60671z" data-paper-data="{&quot;noHover&quot;:false,&quot;origItem&quot;:[&quot;Path&quot;,{&quot;applyMatrix&quot;:true,&quot;segments&quot;:[[[155.14968,417.56088],[0.8873,-4.10991],[0,0]],[[156.81883,418.03551],[0,0],[11.64136,1.80474]],[[196.55453,416.37149],[-10.1712,8.7355],[7.68316,-6.59866]],[[193.49737,391.17943],[2.9807,7.75242],[-1.83418,-4.77047]],[[187.22394,375.63326],[3.21965,4.20425],[-6.25501,-8.16785]],[[157.90118,374.93709],[8.32187,-1.76461],[-0.55953,0.69313]],[[155.98922,376.38328],[0.63956,-0.29652],[-5.62811,7.48487]],[[154.46458,404.38688],[-1.14692,-8.35367],[0.47026,3.42515]]],&quot;closed&quot;:true}]}" fill="#ffcd63" stroke="none" stroke-width="0.5"/><path d="M157.16421,209.5327c-2.91571,-0.4817 -6.29405,0.11417 -8.98179,0.09268c-2.15507,-0.01722 -3.96131,0.06669 -5.67163,0.34607c-0.63355,-1.84727 -1.51958,-4.10789 -1.38757,-5.66729c0.10514,-1.24207 1.09032,-1.98634 1.95073,-2.7031c2.99403,-2.49417 9.22872,-5.43144 12.57743,-1.74075c0.7241,0.79805 0.79508,2.9314 0.9062,3.76621c0.27399,2.05827 0.56797,3.93481 0.60664,5.90618z" data-paper-data="{&quot;noHover&quot;:false,&quot;origItem&quot;:[&quot;Path&quot;,{&quot;applyMatrix&quot;:true,&quot;segments&quot;:[[[313.01108,407.26535],[0.54798,4.11654],[-0.22225,-1.66962]],[[311.21654,399.78018],[1.44819,1.59609],[-6.69741,-7.38138]],[[286.24142,403.24931],[5.98806,-4.98834],[-1.72081,1.43351]],[[282.35116,408.61142],[0.21028,-2.48414],[-0.26401,3.11881]],[[285.10132,419.87491],[-1.2671,-3.69455],[3.42064,-0.55875]],[[296.37922,419.14696],[-4.31013,-0.03445],[5.37547,0.04298]],[[314.23871,419.01123],[-5.83141,-0.96339],[-0.07733,-3.94274]]],&quot;closed&quot;:true}]}" fill="#ffcd63" stroke="none" stroke-width="0.5"/><path d="M51.36975,288.801c1.54525,0.22605 3.04231,0.32598 4.28312,0.40865c6.58172,0.43853 12.95289,-0.68031 19.45785,-1.58215c1.76624,-0.24487 3.74634,-0.32617 5.61456,-0.69696c0.02977,0.85528 -0.01398,1.77743 -0.34306,2.33851c-0.74062,1.26276 -2.10242,2.06033 -3.27529,2.93638c-3.93935,2.94242 -10.03083,5.47101 -15.06877,4.81132c-1.39085,-0.18212 -2.21891,-1.77113 -3.42045,-2.49496c-0.77177,-0.46493 -1.86463,-0.26743 -2.5826,-0.81177c-0.7366,-0.55847 -0.83295,-1.71801 -1.53117,-2.32377c-0.67719,-0.58751 -1.74018,-0.57471 -2.43959,-1.13558c-0.50613,-0.40587 -0.67302,-0.91607 -0.6946,-1.44967z" data-paper-data="{&quot;noHover&quot;:false,&quot;origItem&quot;:[&quot;Path&quot;,{&quot;applyMatrix&quot;:true,&quot;segments&quot;:[[[104.2329,580.51227],[-1.01226,-0.81175],[1.39883,1.12175]],[[109.11261,582.77587],[-1.35438,-1.17503],[1.39645,1.21152]],[[112.17328,587.40113],[-1.4732,-1.11694],[1.43595,1.08868]],[[117.33449,589.00942],[-1.54355,-0.92986],[2.40308,1.44766]],[[124.14496,593.95433],[-2.7817,-0.36425],[10.07587,1.31939]],[[154.10917,584.40659],[-7.8787,5.88484],[2.34573,-1.7521]],[[160.66134,578.55683],[-1.48123,2.52552],[0.65815,-1.12216]],[[161.35144,573.89503],[0.05954,1.71055],[-3.73645,0.74158]],[[150.1272,575.30082],[3.53248,-0.48974],[-13.00993,1.80369]],[[111.40774,578.44325],[13.16345,0.87706],[-2.48161,-0.16534]],[[102.84232,577.6221],[3.09051,0.4521],[0.04316,1.0672]]],&quot;closed&quot;:true}]}" fill="#ffcd63" stroke="none" stroke-width="0.5"/><path d="M105.02606,228.98846c-1.99117,-5.04684 -3.21712,-10.38676 -5.28569,-15.35929c0.70109,-0.43667 1.36418,-0.95475 1.97751,-1.55906c0.02473,-0.02436 0.13898,0.00567 0.1637,-0.0188c3.43227,2.73404 6.06435,6.15064 9.31317,9.10308c2.36317,2.14759 5.02745,3.57417 7.5452,5.48075c1.95363,1.47939 3.00123,3.12893 5.5538,3.75328c8.86702,2.16883 15.71411,-7.36127 15.68924,-15.04357c4.53393,-0.50505 8.86966,-0.28778 13.42433,-0.47338c1.2317,-0.05019 2.74481,-0.91326 3.94091,0.05348c2.39302,1.93416 4.36754,7.06284 4.31755,10.08472c-0.03235,1.95565 -0.88562,3.31902 -1.26831,5.25137c-0.75629,3.81887 -0.14507,8.00197 -2.79583,11.26416c-2.35057,2.89276 -6.54793,5.65793 -9.59464,7.73526c-4.34078,2.5797 -11.91316,5.03436 -16.8697,2.36188c-2.01736,-1.08773 -4.05141,-3.49491 -6.03046,-4.81702c-5.92373,-3.95738 -9.65045,-7.94929 -12.66533,-14.55398l-0.16936,-0.42523c-0.07859,-1.64259 -1.81338,-2.23444 -1.81338,-2.23444l-3.41797,-0.86461c-0.66357,0.092 -1.33696,0.17688 -2.01474,0.26138z" data-paper-data="{&quot;noHover&quot;:false,&quot;origItem&quot;:[&quot;Path&quot;,{&quot;applyMatrix&quot;:true,&quot;segments&quot;:[[[214.18609,457.46197],[-1.32715,0.184],[0,0]],[221.0222,459.18829],[[224.6489,463.64596],[-0.15717,-3.28519],[0,0]],[[224.98746,464.49413],[0,0],[6.02976,13.20937]],[[250.2563,493.51495],[-11.84747,-7.91477],[3.9581,2.64422]],[[262.28047,503.14009],[-4.03472,-2.17546],[9.91308,5.34497]],[[295.94654,498.44079],[-8.68155,5.15941],[6.09342,-4.15466]],[[315.10707,483.00893],[-4.70115,5.78553],[5.30152,-6.52438]],[[320.69018,460.52342],[-1.51259,7.63775],[0.76538,-3.86471]],[[323.22864,450.03903],[-0.06471,3.9113],[0.09999,-6.04377]],[[314.60769,429.90556],[4.78605,3.86832],[-2.3922,-1.93349]],[[306.73067,429.80563],[2.4634,-0.10038],[-9.10934,0.3712]],[[279.91895,430.78334],[9.06786,-1.0101],[0.04975,15.36459]],[[248.69224,460.77982],[17.73404,4.33766],[-5.10514,-1.24869]],[[237.37936,453.24079],[3.90725,2.95877],[-5.03552,-3.81316]],[[222.29387,442.26594],[4.72635,4.29518],[-6.49765,-5.90488]],[[203.67371,424.04805],[6.86453,5.46807],[-0.04944,0.04894]],[[203.52537,424.19454],[0.04945,-0.04872],[-1.22666,1.20862]],[[199.57364,427.30679],[1.40219,-0.87333],[4.13713,9.94507]],[[210.15672,457.98316],[-3.98235,-10.09368],[1.35557,-0.169]]],&quot;closed&quot;:true}]}" fill="#37568c" stroke="none" stroke-width="0.5"/><path d="M99.81946,229.851c-0.60153,0.12899 -1.20718,0.28026 -1.78979,0.45131c-2.05506,-4.72525 -3.97441,-9.68224 -5.41255,-14.59677c0.76032,-0.05476 1.5237,-0.15034 2.25598,-0.28453c1.99463,4.5938 3.21292,9.67453 4.94637,14.42999z" data-paper-data="{&quot;noHover&quot;:false,&quot;origItem&quot;:[&quot;Path&quot;,{&quot;applyMatrix&quot;:true,&quot;segments&quot;:[[[189.76496,430.9451],[3.98926,9.1876],[-1.46456,0.26839]],[[185.28139,431.50465],[1.52065,-0.10951],[2.87629,9.82907]],[[196.03466,460.50279],[-4.11013,-9.4505],[1.16522,-0.3421]],[[199.59098,459.60883],[-1.20306,0.25797],[-3.46688,-9.51093]]],&quot;closed&quot;:true}]}" fill="#37568c" stroke="none" stroke-width="0.5"/><path d="M88.39888,242.21727c0.00457,0.12436 0.01497,0.19856 0.01497,0.19856l0.28945,2.08082c1.57945,11.39254 -3.81103,22.50334 -5.26224,33.79713c-0.59492,3.45503 -3.39112,3.43608 -6.48993,3.85838c-6.96958,0.94982 -13.86757,2.35654 -20.91802,1.89085c-2.24239,-0.14812 -7.46516,-0.06441 -8.96294,-2.54597c-0.48994,-0.81173 0.75134,-2.27896 1.00801,-2.66854c2.55844,-3.88324 4.66049,-8.03553 6.86921,-12.13653c5.52232,-5.35008 12.8222,-10.95542 16.58327,-17.72026c1.13117,-2.03459 1.46214,-4.40914 2.38941,-6.5444c1.90989,-4.39799 4.36353,-8.62132 5.73024,-13.25585c1.29944,-4.40641 1.80215,-9.68672 1.76696,-14.39207c1.91558,0.32268 3.95513,0.64543 6.00032,0.83068c-0.05751,0.60718 0.08308,1.09462 0.08308,1.09462c1.53786,5.34957 3.6056,10.6491 5.84049,15.7863c-1.06979,0.80726 -2.02679,1.82234 -2.83072,3.10906c-0.89434,1.43142 -1.34674,3.09971 -2.02178,4.64669c0,0 -0.41855,0.99085 -0.08978,1.97054z" data-paper-data="{&quot;noHover&quot;:false,&quot;origItem&quot;:[&quot;Path&quot;,{&quot;applyMatrix&quot;:true,&quot;segments&quot;:[[[176.88355,480.54022],[0,0],[1.35008,-3.09396]],[[180.9338,471.25836],[-1.78868,2.86285],[1.60787,-2.57345]],[[186.59726,465.04314],[-2.13958,1.61452],[-4.46979,-10.27441]],[[174.95067,433.50106],[3.07573,10.69914],[0,0]],[[174.78594,431.3126],[-0.11501,1.21436],[-4.09036,-0.3705]],[[162.80004,429.65769],[3.83115,0.64536],[0.07038,9.4107]],[[159.34789,458.24937],[2.59887,-8.81282],[-2.73341,9.26907]],[[147.89637,484.76618],[3.81977,-8.79597],[-1.85453,4.2705]],[[143.15908,497.90568],[2.26235,-4.06918],[-7.52214,13.52968]],[[109.96248,533.30393],[11.04464,-10.70015],[-4.41744,8.202]],[[96.21809,557.57228],[5.11687,-7.76647],[-0.51334,0.77916]],[[94.20038,562.90817],[-0.97987,-1.62347],[2.99557,4.96312]],[[112.10386,567.9882],[-4.48478,-0.29623],[14.1009,0.93139]],[[153.87774,564.20243],[-13.93917,1.89963],[6.19761,-0.84461]],[[166.83513,556.49389],[-1.18984,6.91006],[2.90243,-22.58758]],[[177.30559,489.02112],[3.15891,22.78508],[0,0]],[176.73001,484.86955],[[176.70043,484.47333],[0.00914,0.24871],[-0.65754,-1.95939]]],&quot;closed&quot;:true}]}" fill="#37568c" stroke="none" stroke-width="0.5"/><path d="M125.9552,298.45956c-0.52601,-0.38641 -1.27173,-0.62286 -2.31361,-0.25997c-2.47379,0.86161 -1.59874,3.31383 -1.59874,3.31383l0.41468,1.17359c2.47407,7.91586 4.63047,15.73076 6.40109,23.83504c0.09735,0.69389 0.45721,2.99111 0.54136,4.46888c-1.14276,0.68831 -1.28066,1.69335 -1.18837,2.42589c-0.65559,0.32997 -1.42852,0.50617 -1.87897,0.67822c-2.14852,0.82058 -4.29453,1.6715 -6.45574,2.45806c-10.18868,3.7081 -23.13165,6.74991 -33.88367,3.55921c-2.11374,-0.62726 0.14456,-6.1809 0.49353,-7.20736c3.5508,-7.3108 5.72185,-14.73748 7.84747,-22.52827c0.56104,-2.05631 1.27793,-4.1616 1.19254,-6.29136c-0.33272,-8.29902 -3.60939,-16.21013 -3.92544,-24.54244c2.40081,0.97337 4.86187,1.85511 7.41233,2.04559c13.23741,0.98862 27.21773,-3.81797 37.30922,-12.41406l1.58082,0.69524c9.60942,5.52456 20.58483,8.22968 30.24883,13.5857c1.68589,0.93436 6.04468,2.14649 7.24308,3.73478c0.57036,0.75592 -0.57329,1.84672 -1.14458,2.60192c-1.45413,1.92227 -3.53572,3.75702 -5.25514,5.45977c-4.37768,4.39448 -6.41034,10.46549 -10.8799,14.72353c-1.27467,1.21435 -2.1231,3.00674 -3.70938,3.77038c-1.44659,0.69639 -6.07584,-2.79263 -6.57602,-3.09513c-6.4794,-3.91865 -13.07794,-7.32667 -19.11352,-11.89247c0,0 -1.38379,-1.07117 -2.76185,-0.29854z" data-paper-data="{&quot;noHover&quot;:false,&quot;origItem&quot;:[&quot;Path&quot;,{&quot;applyMatrix&quot;:true,&quot;segments&quot;:[[[257.42769,597.41162],[0,0],[12.07115,9.13161]],[[295.75954,621.33718],[-12.95879,-7.8373],[1.00036,0.605]],[[308.71566,627.45308],[-2.89318,1.39279],[3.17256,-1.52728]],[[316.12946,619.92878],[-2.54934,2.4287],[8.93912,-8.51609]],[[337.88926,590.52542],[-8.75536,8.78896],[3.43884,-3.40549]],[[348.40191,579.61499],[-2.90826,3.84454],[1.14258,-1.51042]],[[350.69252,574.41548],[1.14072,1.51183],[-2.39681,-3.17658]],[[336.21202,566.95893],[3.37178,1.86872],[-19.328,-10.71204]],[[275.7808,539.84062],[19.21885,11.04912],[0,0]],[[272.6241,538.4513],[0,0],[-20.18297,17.19217]],[[198.11157,563.23917],[26.47482,1.97724],[-5.10091,-0.38095]],[[183.2906,559.14267],[4.80162,1.94674],[0.6321,16.66464]],[[191.15831,608.16961],[-0.66545,-16.59804],[0.17078,4.25953]],[[188.77137,620.73373],[1.12208,-4.11262],[-4.25123,15.58157]],[[173.05996,665.75067],[7.1016,-14.6216],[-0.69793,2.05291]],[[172.06651,680.15699],[-4.22749,-1.25452],[21.50404,6.38138]],[[239.78196,673.00525],[-20.37735,7.41621],[4.32241,-1.57311]],[[252.67454,668.08569],[-4.29703,1.64117],[0.90091,-0.34409]],[[256.4261,666.72889],[-1.31118,0.65993],[-0.18458,-1.46507]],[[258.79853,661.87708],[-2.28552,1.37661],[-0.16829,-2.95555]],[[257.71649,653.14887],[0.19471,1.38778],[-3.54124,-16.20856]],[[244.81167,605.35704],[4.94814,15.83173],[0,0]],[243.98598,602.99467],[[247.21033,596.32385],[-4.94759,1.72323],[2.08376,-0.72577]],[[251.85793,596.82841],[-1.05202,-0.77281],[2.75612,-1.54526]]],&quot;closed&quot;:true}]}" fill="#00338c" stroke="none" stroke-width="0.5"/><path d="M84.75406,207.94764c-2.43001,0.97831 -3.40831,-1.45171 -3.40831,-1.45171l-0.97146,-2.62241c-0.51561,-3.71912 -1.03124,-7.43823 -1.54685,-11.15735c0,0 -0.35974,-2.59473 2.235,-2.95446c2.59474,-0.35974 2.95447,2.235 2.95447,2.235c0.51561,3.71912 1.03123,7.43823 1.54685,11.15735l0.64201,1.38527c0,0 0.9783,2.43001 -1.45171,3.40832z" fill="#000000" stroke="none" stroke-width="0.5"/><path d="M94.94546,207.06363c-2.43001,0.97831 -3.40832,-1.4517 -3.40832,-1.4517l-0.53285,-1.42255c-1.00912,-4.66419 -2.82994,-8.98585 -3.49866,-13.73419c0,0 -0.35974,-2.59473 2.235,-2.95446c2.59474,-0.35974 2.95446,2.235 2.95446,2.235c0.62652,4.60172 2.43596,8.81337 3.42819,13.3383l0.27388,0.58129c0,0 0.9783,2.43001 -1.45171,3.40832z" fill="#000000" stroke="none" stroke-width="0.5"/><path d="M81.39555,178.0003c-2.43001,0.97831 -3.40832,-1.45171 -3.40832,-1.45171l-0.86525,-2.16405c-0.58745,-1.78845 -1.2238,-3.56103 -1.88836,-5.32242c0.18256,2.23121 -0.12556,4.59622 -3.26467,5.29296c-1.45849,0.32372 -3.72477,-1.00927 -5.37907,-2.78434c0.07617,3.01785 0.11523,6.02794 0.23444,9.05629c0,0 0.09976,2.61765 -2.51789,2.71741c-2.61765,0.09976 -2.71742,-2.51789 -2.71742,-2.51789c-0.18192,-4.91984 -0.207,-9.79137 -0.41987,-14.72618l0.11228,-0.24829l-0.08512,-0.01319l0.40968,-2.64449c0.14981,-1.14011 1.04375,-2.0863 2.23795,-2.25186c0.91493,-0.12685 1.78493,0.23519 2.3461,0.8865l1.85363,2.08903l-0.05615,0.04982c0.57082,0.43417 1.12458,0.89252 1.61216,1.35799c-0.07335,-2.49842 0.29051,-6.07436 3.51335,-6.19733c5.60335,-0.2138 7.74638,9.85201 8.98602,13.61981l0.74822,1.84363c0,0 0.9783,2.43001 -1.45171,3.40832z" fill="#000000" stroke="none" stroke-width="0.5"/><path d="M92.48519,163.09288c0.29956,-3.75879 -2.70551,-3.63803 -4.83963,-2.40871c0.84274,2.05827 1.38669,4.12675 1.79726,6.24411c1.52841,-0.8486 2.87812,-1.77446 3.04237,-3.8354zM86.38072,155.00493c5.58073,-2.31292 11.78981,2.31417 11.33736,8.34316c-0.34925,4.65388 -3.17544,6.64454 -6.75472,8.71971l-0.66879,0.33303c0.06781,0.49812 0.13593,1.00031 0.20618,1.50702l0.03597,0.25948c0,0 0.35974,2.59473 -2.235,2.95446c-2.59473,0.35974 -2.95446,-2.235 -2.95446,-2.235l-0.03597,-0.25947c-0.6731,-4.85498 -0.98847,-9.32719 -3.32816,-13.70906c0,0 -1.22481,-2.31557 1.09077,-3.54038c0.16264,-0.08603 0.31991,-0.15459 0.47175,-0.20772c0.93041,-0.74711 1.73649,-1.70991 2.83509,-2.16522z" fill="#000000" stroke="none" stroke-width="0.5"/><path d="M135.16667,140.27084c0,-9.66499 7.83501,-17.5 17.5,-17.5c9.66499,0 17.5,7.83501 17.5,17.5c0,9.66499 -7.83501,17.5 -17.5,17.5c-9.66499,0 -17.5,-7.83501 -17.5,-17.5z" fill="none" stroke="#ff7b00" stroke-width="5"/><path d="M163.90381,145.08403c0.6868,2.40381 -1.71701,3.09061 -1.71701,3.09061l-3.89794,0.60368c-1.25041,-0.5973 -2.8691,-0.7232 -3.75122,-1.79191c-0.81625,-0.98891 -0.53736,-2.50775 -0.82847,-3.75653c-0.10207,-0.43783 -0.20346,-0.86961 -0.30321,-1.29733c-1.40919,2.01243 -2.98463,3.76956 -4.13819,4.93939l-0.06273,1.0228c0,0 -0.79056,2.37171 -3.16227,1.58114c-2.37171,-0.79057 -1.58114,-3.16228 -1.58114,-3.16228l1.27061,-2.97719c2.01848,-1.98303 3.45225,-4.30668 4.9029,-6.75633c0.01253,-0.02116 1.39244,-2.9709 1.324,-3.15473c-0.12502,-0.33584 -0.59269,0.45937 -0.94781,0.50733c-0.93969,0.1269 -1.89644,0.00322 -2.84466,0.00483c0,0 -2.5,0 -2.5,-2.5c0,-2.5 2.5,-2.5 2.5,-2.5c1.62355,0.00249 6.52067,-0.26045 7.54086,1.17882c0.62814,0.88617 0.95012,1.86087 1.0357,2.88474c0.20487,0.45941 0.24437,0.85434 0.24437,0.85434c0.28699,2.93151 1.28415,5.57493 1.63656,8.45638c0.06414,0.52445 -0.49079,1.16337 -0.1618,1.5768c0.3312,0.41622 1.05475,0.13872 1.58212,0.20809l0.76872,-0.72965c0,0 2.40381,-0.6868 3.09061,1.71701z" fill="#ff7b00" stroke="none" stroke-width="0.5"/><path d="M526.22785,253.0459l-0.37928,-2.31503c-3.3706,-6.88626 -6.1944,-14.06406 -9.54616,-20.97474c-0.24307,-0.50116 -0.48347,-0.99122 -0.72041,-1.47288c-5.14822,0.4766 -10.93743,-0.37869 -14.75889,-3.40412c-6.52956,-5.16941 -8.66362,-13.76535 -12.08418,-20.8965l-0.9254,-1.57674c0,0 -1.25603,-2.16157 0.90555,-3.4176c2.16158,-1.25602 3.4176,0.90555 3.4176,0.90555l1.11196,1.92949c3.07599,6.43494 4.95076,14.32331 10.66352,19.12416c2.22725,1.87172 5.89045,1.81072 8.57628,2.31033c0.26147,0.04864 0.51031,0.08869 0.74912,0.12061c-1.01837,-2.29192 -1.88024,-4.61542 -2.48688,-7.31622c-0.83398,0.43366 -1.68041,0.856 -2.54087,1.26827l-1.57674,0.92541c0,0 -2.16157,1.25602 -3.4176,-0.90556c-1.25603,-2.16157 0.90555,-3.4176 0.90555,-3.4176l1.92949,-1.11196c5.59184,-2.67578 10.5369,-5.78254 15.35174,-9.77759c0,0 1.92567,-1.59429 3.51997,0.33138c1.59429,1.92568 -0.33138,3.51997 -0.33138,3.51997c-0.93309,0.77096 -1.87129,1.51211 -2.8177,2.22597c1.72952,2.49262 3.65458,4.8604 5.29784,7.41117c0.31439,-0.26435 0.63022,-0.52853 0.94852,-0.79155c0.63964,-0.52856 2.83346,-2.22225 3.36839,-3.05494c1.60923,-2.50499 0.76083,-6.23094 0.40467,-8.91551c-0.87794,-6.6175 -4.07244,-16.36301 -10.75728,-19.09399c0,0 -2.28718,-1.00939 -1.27778,-3.29656c1.00939,-2.28717 3.29656,-1.27778 3.29656,-1.27778c8.35109,3.87479 12.52275,14.30553 13.69101,22.98073c0.54224,4.0265 1.15523,8.54551 -1.1143,12.24849c-0.93626,1.52761 -3.04939,3.12189 -4.42268,4.2609c-0.57361,0.47575 -1.13963,0.94866 -1.70296,1.4163c3.98707,8.31186 7.92107,16.54664 11.91503,24.88693l-0.1166,-0.25789c0,0 1.59429,1.92568 -0.33138,3.51997c-1.92567,1.59429 -3.51997,-0.33139 -3.51997,-0.33139l-0.54175,-0.77139c-3.82847,-7.99685 -7.61289,-15.8811 -11.42125,-23.84878c-1.51486,1.12516 -3.09076,2.17502 -4.81585,3.10619c0.04345,0.08903 0.08698,0.17848 0.13057,0.26835c3.45665,7.12712 6.44298,14.47007 9.80716,21.62836l0.54269,2.98014c0,0 0.42883,2.46294 -2.03411,2.89178c-2.46294,0.42883 -2.89178,-2.03411 -2.89178,-2.03411zM518.43855,222.79169c0.0978,-0.02801 0.19732,-0.05673 0.29872,-0.08614c1.59829,-0.86193 3.05579,-1.88101 4.45954,-2.97438c-1.64248,-2.69825 -3.69375,-5.1494 -5.50763,-7.73175c-0.82856,0.54461 -1.66621,1.07214 -2.51488,1.58409c0.25941,0.44655 0.34012,0.84965 0.34012,0.84965c0.62108,3.18544 1.67215,5.74639 2.92414,8.35854z" data-paper-data="{&quot;index&quot;:null}" fill="#53a94e" stroke="none" stroke-width="0.5"/><path d="M561.98857,301.64558c0.06807,2.49908 -2.43101,2.56714 -2.43101,2.56714l-2.86837,0.04791c-1.38825,0.4968 -2.7765,0.99361 -4.16475,1.49041c-11.28481,6.04019 -22.57538,12.02641 -34.02369,17.75056c-3.51115,1.75557 -10.64443,7.40901 -14.83308,4.00384c-1.12189,-0.91204 -0.62354,-2.83353 -0.73224,-4.27528c-0.36534,-4.84584 -0.02024,-5.13243 0.91191,-9.59402c1.65517,-7.9222 4.27053,-16.16561 5.10753,-24.2083c0.3361,-3.22963 -0.01343,-6.49415 -0.01343,-9.74123c0.2575,-1.0643 0.96874,-2.11561 0.77249,-3.19288c-0.08655,-0.47508 -0.76579,0.60616 -1.20863,0.79875c-1.41246,0.61425 -2.88541,1.07883 -4.33103,1.61034c-3.20616,1.1788 -6.48199,2.18324 -9.79829,3.00248c-11.45928,2.83078 -20.9009,12.303 -31.43078,17.57227c-1.38796,0.69455 -9.46582,4.87259 -10.49351,4.6986c-1.89752,-0.32126 -3.72604,-2.25547 -4.00371,-4.15986c-0.31323,-2.14823 1.58153,-4.04802 2.5216,-6.00486c1.97872,-4.11889 5.82445,-8.29003 7.1772,-12.63682c0.44341,-1.42481 0.23335,-2.97529 0.35002,-4.46293c0.24318,-2.67498 -0.16725,-7.00669 0.90461,-10.04879c-2.18989,1.5397 -4.90469,2.26345 -7.37996,3.31907c-4.63243,1.97559 -9.23254,4.01263 -13.95384,5.77271c-7.67636,2.86172 -15.76601,7.00601 -23.74604,8.82066c-0.18561,0.04221 -9.89716,0.9254 -10.28694,0.95733c-3.17225,0.25985 -8.05827,1.62894 -10.33543,-2.22423c-0.99955,-1.69133 -0.33393,-3.91782 -0.37258,-5.88205c-0.05954,-3.02614 0.32021,-6.04501 0.4922,-9.06685c1.83247,-4.66584 4.09219,-9.35871 5.62437,-14.13027c0.98779,-3.07621 1.01466,-6.26112 2.27,-9.15184c-0.2378,0.25493 -0.48117,0.50505 -0.72043,0.75708c-1.13277,1.19321 -2.35481,2.29954 -3.48648,3.49378c-2.27806,2.40402 -4.43052,4.92403 -6.64609,7.38577c-7.48018,8.31131 -16.53593,17.97587 -27.27683,21.64575c0,0 -2.37171,0.79058 -3.16228,-1.58113c-0.79057,-2.37171 1.58114,-3.16228 1.58114,-3.16228c4.86521,-1.57317 7.56356,-4.14614 11.54202,-7.32891c6.35053,-5.08042 11.5032,-10.59004 16.9443,-16.63471c3.25385,-3.61479 3.46039,-3.97176 6.96439,-7.3495c1.11741,-1.07715 1.91819,-2.77012 3.42078,-3.15882c8.24932,-2.13395 6.05734,2.49835 5.31693,7.73238c-0.42232,2.98535 -1.05117,5.95646 -1.97017,8.82807c-1.4864,4.64456 -3.67228,9.20846 -5.51736,13.72403c-0.02013,0.46571 -0.29726,7.14866 -0.3781,8.1239c-0.08672,1.04611 -0.65323,2.11548 -0.37257,3.12696c0.12364,0.44557 0.87762,0.36958 1.33991,0.35918c3.10469,-0.06981 6.17569,-0.66434 9.26905,-0.93844c6.54566,-0.58001 12.24941,-3.2541 18.38993,-5.54113c7.79357,-2.90271 15.46991,-5.92212 23.10948,-9.17698c2.62353,-1.11776 5.03306,-2.74332 7.73519,-3.65479c1.76349,-0.59485 3.96659,-2.55427 5.4102,-1.37965c1.77044,1.44056 1.04401,4.46619 1.18311,6.74442c0.00137,0.0225 -0.90432,9.97591 -0.91306,10.07199c-0.18511,1.832 -0.00819,3.73784 -0.55534,5.496c-0.10236,0.32891 -4.80137,8.64164 -5.11437,9.19754c-0.80851,1.4359 -1.56731,2.90096 -2.42579,4.30755c-0.61637,1.00989 -3.02702,3.57668 -2.06669,2.88565c3.26941,-2.3526 6.89212,-3.73852 10.35792,-5.72396c5.7339,-3.28476 11.2536,-7.03682 16.85786,-10.53949c2.46506,-1.54066 4.7042,-3.53704 7.41139,-4.59595c0.79274,-0.31008 8.8997,-2.19394 9.94664,-2.51475c0.61037,-0.18703 9.28437,-3.44376 9.63695,-3.48741c1.87414,-0.23208 4.39709,-0.92821 5.64412,0.48994c1.50797,1.71489 0.51499,4.53807 0.77248,6.80712c0,0.32988 0.00426,10.08884 -0.01342,10.25878c-0.85454,8.21133 -3.4746,16.63871 -5.18781,24.72028c-0.48898,2.30662 -0.093,7.27053 -1.34355,9.06637c0.15304,-0.16518 0.34512,-0.35546 0.4674,-0.4275c1.2711,-0.74903 2.61358,-1.36986 3.92848,-2.03902c2.97077,-1.51183 5.96285,-2.98143 8.94427,-4.47213c10.02729,-5.01364 19.87641,-10.35767 29.77531,-15.61954c1.75598,-0.60996 3.51196,-1.21992 5.26794,-1.82989l3.64136,-0.1294c0,0 2.49907,-0.06807 2.56714,2.431z" fill="#0052ff" stroke="none" stroke-width="0.5"/><path d="M259.73719,17.74338c0.35045,1.30631 1.02532,2.68102 0.3925,3.78974c-0.91048,1.59517 -3.04167,2.11381 -4.74471,2.8017c-2.36945,0.95707 -4.96055,1.23148 -7.45081,1.80498c-0.61626,0.14193 -1.23913,0.31741 -1.86557,0.42915c0.66208,0.38311 1.31119,0.79296 2.01922,1.07702c1.14694,0.46016 2.43245,0.52643 3.56232,1.02701c1.78116,0.78912 3.26497,2.14423 5.01234,3.00559c1.18586,0.58456 2.75248,0.63828 3.60889,1.64552c2.25436,2.65142 1.10125,9.72885 1.5785,13.02548c0.21738,1.52414 0.77342,2.74045 0.41865,4.01196c0.13854,-0.26851 0.28054,-0.53068 0.3765,-0.68474c0.54925,-0.88176 1.04514,-1.79577 1.55266,-2.70219c1.45299,-2.59501 2.82649,-5.1513 4.15141,-7.80598c0.61562,-1.23349 0.80882,-2.86752 1.94329,-3.65077c4.66359,-3.21979 9.70562,0.62967 13.43155,3.32723c-0.19296,-1.1478 -0.27782,-2.20941 -0.3214,-2.52199c-0.84103,-6.03245 2.35501,-9.04789 5.84828,-13.52447c0.92744,-0.92905 1.71922,-2.01988 2.74597,-2.83052c-4.16147,0.35021 -9.34692,-1.0906 -13.09055,-1.80931c-1.51297,-0.29047 -5.21649,-0.81942 -6.4037,-1.61609c-3.13328,-2.10256 -5.28632,-6.42404 -8.40503,-8.86049c-0.92194,-0.72025 -1.56503,-1.95478 -2.69862,-2.24412c-0.6968,-0.17786 -0.28105,1.42045 -0.27699,2.13958c0.01436,2.54167 0.00311,5.08376 0.00311,7.62547v0.25c0,0 0,1.68862 -1.38781,2.29025zM255.90778,8.53228c0.09244,-3.68018 0.98764,-7.20281 4.94334,-8.0641c1.35058,-0.29407 2.59739,0.96596 3.82538,1.60045c2.49692,1.29014 5.08619,3.61938 7.00481,5.65614c1.33734,1.41969 1.97464,3.51139 3.56617,4.6388c1.27311,0.90184 3.0643,0.58877 4.5963,0.88392c3.19294,0.61513 6.37978,1.06231 9.60113,1.47621c1.18307,0.15201 2.47115,-0.16471 3.56482,0.31137c2.03573,0.88615 4.81009,1.57372 5.56356,3.66219c0.6207,1.72048 -4.5768,6.4149 -5.57409,7.4104c-1.79574,2.31721 -4.67386,4.42042 -4.88079,7.52698c-0.24271,3.64364 4.01382,10.77226 -0.87435,13.41261c-1.49819,0.80924 -3.14501,-1.34717 -4.57702,-2.26847c-2.56151,-1.64799 -4.91719,-4.52699 -7.91721,-5.60392c-1.80412,-0.64764 -2.73473,4.12528 -3.16142,4.94056c-2.03722,3.89255 -6.91415,15.8716 -13.23912,10.59753c-1.10775,-0.9237 -0.68917,-2.80258 -0.95741,-4.21975c-0.21521,-1.13697 -0.32783,-2.29099 -0.49176,-3.43648c-0.32018,-2.26873 -0.52749,-4.56234 -0.52513,-6.85355c0.00086,-0.83456 -0.01171,-1.66943 0.01216,-2.50366c0.01069,-0.37353 0.38073,-0.88074 0.09146,-1.11731c-0.49647,-0.40601 -1.2946,-0.11888 -1.89111,-0.35448c-1.80359,-0.71233 -3.21052,-2.21844 -4.98766,-2.99441c-3.11644,-1.36077 -5.74434,-0.5637 -8.28518,-3.80598c-1.26156,-1.60984 -2.5393,-3.86844 -1.93547,-5.82254c0.46213,-1.49556 2.81721,-1.3939 4.31046,-1.86342c2.06806,-0.65026 4.2286,-0.95856 6.3364,-1.46539c1.26496,-0.30417 2.55455,-0.49722 3.83895,-0.70449c0.5813,-0.09381 1.49716,0.33093 1.75528,-0.1983c0.25349,-0.51972 -0.79983,-0.89273 -0.9509,-1.4509c-0.66216,-2.44649 -0.53981,-4.52318 -0.54441,-6.96911c0,0 0,-1.99547 1.78278,-2.42085z" fill="#000000" stroke="none" stroke-width="0.5"/><path d="M261.09818,15.41093l0.00038,-0.25024c0,-2.5417 0.01957,-5.08796 0.0052,-7.62963c-0.00407,-0.71913 -0.41777,-2.31818 0.27903,-2.14032c1.13359,0.28934 1.78091,1.52264 2.70285,2.24289c3.11871,2.43646 5.29823,6.7587 8.43151,8.86126c1.18721,0.79667 4.91172,1.33833 6.42469,1.6288c3.74363,0.71871 8.94073,2.17832 13.10221,1.82811c-1.02675,0.81064 -1.81731,1.90556 -2.74475,2.83461c-3.49327,4.47658 -6.69467,7.52954 -5.85363,13.56199c0.04358,0.31258 0.1254,1.37877 0.31836,2.52656c-3.72593,-2.69756 -8.79989,-6.52757 -13.46348,-3.30778c-1.13447,0.78325 -1.33885,2.41786 -1.95447,3.65135c-1.32491,2.65468 -2.70767,5.20953 -4.16066,7.80454c-0.50752,0.90642 -1.00519,1.81994 -1.55444,2.7017c-0.09596,0.15406 -0.23832,0.41613 -0.37686,0.68464c0.35477,-1.27152 -0.20498,-2.4891 -0.42236,-4.01324c-0.47725,-3.29664 0.6515,-10.39432 -1.60286,-13.04573c-0.85641,-1.00725 -2.42835,-1.07267 -3.61421,-1.65724c-1.74737,-0.86135 -3.23332,-2.22886 -5.01448,-3.01798c-1.12988,-0.50058 -2.41543,-0.56968 -3.56237,-1.02984c-0.70802,-0.28406 -1.35706,-0.69621 -2.01914,-1.07932c0.62643,-0.11174 1.24938,-0.28849 1.86565,-0.43041c2.49025,-0.5735 5.08281,-0.85638 7.45226,-1.81345c1.70304,-0.68789 3.84194,-1.22298 4.75241,-2.81815c0.63282,-1.10872 -0.03513,-2.49123 -0.38558,-3.79754c1.38781,-0.60163 1.39476,-2.29558 1.39476,-2.29558z" data-paper-data="{&quot;noHover&quot;:false,&quot;origItem&quot;:[&quot;Path&quot;,{&quot;applyMatrix&quot;:true,&quot;segments&quot;:[[[519.47438,35.48676],[2.77562,-1.20326],[0.7009,2.61262]],[[520.25938,43.06623],[1.26564,-2.21743],[-1.82095,3.19034]],[[510.76995,48.66963],[3.40608,-1.37578],[-4.7389,1.91413]],[[495.86833,52.27958],[4.98051,-1.147],[-1.23253,0.28385]],[[492.1372,53.13788],[1.25287,-0.22348],[1.32416,0.76621]],[[496.17563,55.29193],[-1.41605,-0.56812],[2.29388,0.92031]],[[503.30028,57.34595],[-2.25976,-1.00116],[3.56232,1.57824]],[[513.32496,63.35713],[-3.49474,-1.72271],[2.37173,1.16913]],[[520.54275,66.64818],[-1.71282,-2.0145],[4.50872,5.30283]],[[523.69975,92.69914],[-0.9545,-6.59327],[0.43476,3.04827]],[[524.53704,100.72306],[0.70954,-2.54303],[0.27708,-0.53702]],[[525.29005,99.35357],[-0.19193,0.30812],[1.0985,-1.76352]],[[528.39536,93.94919],[-1.01504,1.81284],[2.90597,-5.19002]],[[536.69817,78.33724],[-2.64983,5.30936],[1.23124,-2.46699]],[[540.58476,71.03569],[-2.26894,1.5665],[9.32718,-6.43958]],[[567.44786,77.69015],[-7.45185,-5.39512],[-0.38592,-2.2956]],[[566.80505,72.64618],[0.08716,0.62515],[-1.68207,-12.0649]],[[578.50161,45.59724],[-6.98653,8.95315],[1.85489,-1.85811]],[[583.99356,39.9362],[-2.0535,1.62128],[-8.32295,0.70042]],[[557.81246,36.31757],[7.48725,1.43743],[-3.02595,-0.58094]],[[545.00506,33.0854],[2.37442,1.59333],[-6.26655,-4.20511]],[[528.195,15.36441],[6.23742,4.87291],[-1.84388,-1.44051]],[[522.79776,10.87616],[2.26718,0.57868],[-1.39361,-0.35571]],[[522.24379,15.15532],[-0.00813,-1.43827],[0.02873,5.08333]],[[522.25,30.40625],[0,-5.0834],[0,0]],[522.25,30.90625]],&quot;closed&quot;:true}]}" fill="#ffaf00" stroke="none" stroke-width="0.5"/><path d="M270.99304,32.6892c-2.23607,1.11803 -3.35411,-1.11803 -3.35411,-1.11803l-0.26393,-0.61803c-2.72336,-3.66735 -3.85269,-6.00319 -4.24264,-10.55826c0,0 -0.19174,-2.49263 2.3009,-2.68437c2.49264,-0.19174 2.68437,2.3009 2.68437,2.3009c0.24217,3.67734 1.01211,4.98281 3.25736,7.94174l0.73607,1.38197c0,0 1.11804,2.23607 -1.11803,3.3541z" fill="#000000" stroke="none" stroke-width="0.5"/><path d="M276.55348,30.52432c-2.32119,0.92847 -3.24966,-1.39272 -3.24966,-1.39272l-0.99331,-2.48344c-0.81643,-1.96775 -1.53334,-3.98287 -2.09741,-6.03723c0,0 -0.6578,-2.41191 1.75411,-3.0697c2.41191,-0.6578 3.0697,1.75411 3.0697,1.75411c0.50378,1.86123 1.15806,3.68411 1.90259,5.46277l1.00669,2.51656c0,0 0.92847,2.32119 -1.39272,3.24967z" fill="#000000" stroke="none" stroke-width="0.5"/><text transform="translate(134.5,104.66101) scale(1.2584,1.2584)" font-size="40" xml:space="preserve" fill="#ffffff" fill-rule="nonzero" stroke="none" stroke-width="1" stroke-linecap="butt" stroke-linejoin="miter" stroke-miterlimit="10" stroke-dasharray="" stroke-dashoffset="0" font-family="&quot;Microsoft YaHei&quot;, &quot;微软雅黑&quot;, STXihei, &quot;华文细黑&quot;" font-weight="normal" text-anchor="start" style="mix-blend-mode: normal"><tspan x="0" dy="0">Shred-out</tspan></text><text transform="translate(181.5,152.66101) scale(1.2584,1.2584)" font-size="40" xml:space="preserve" fill="#ffffff" fill-rule="nonzero" stroke="none" stroke-width="1" stroke-linecap="butt" stroke-linejoin="miter" stroke-miterlimit="10" stroke-dasharray="" stroke-dashoffset="0" font-family="&quot;Microsoft YaHei&quot;, &quot;微软雅黑&quot;, STXihei, &quot;华文细黑&quot;" font-weight="normal" text-anchor="start" style="mix-blend-mode: normal"><tspan x="0" dy="0">server</tspan></text></g></g></svg>