<svg version="1.1" xmlns="http://www.w3.org/2000/svg" xmlns:xlink="http://www.w3.org/1999/xlink" width="342.577" height="140.53391" viewBox="0,0,342.577,140.53391"><g transform="translate(-140.19668,-120.65625)"><g data-paper-data="{&quot;isPaintingLayer&quot;:true}" fill-rule="nonzero" stroke-linejoin="miter" stroke-miterlimit="10" stroke-dasharray="" stroke-dashoffset="0" style="mix-blend-mode: normal"><path d="M167.25,135.65625l-0.5,-14h40l1,13l53,-1.5l2.5,3.5h27l3,-2h47.5l6,-11l41.5,0.5l16.5,16l69.5,-2.5l7.5,15l-8.5,85.5l-20.5,-0.5l-26,-60l-30,-4.5l-7.5,21.5l-63.5,-5l-5,10.5h-5l27.5,58.5l-36,1.5l-13,-58l-36,-1.5l-12,-8l-22.5,-1v19.5l-74.5,-22.5l-8,-23l8.5,-27z" fill="#434343" stroke="#000000" stroke-width="0" stroke-linecap="round"/><path d="M315.25,199.65625l27.5,59l-36.5,0.5l-12,-58" fill="#1a1a1c" stroke="#000000" stroke-width="0" stroke-linecap="round"/><path d="M246.75,192.15625l77.5,-2.5l-4,9.5l-29,2l-34,-0.5z" fill="#0e0c0c" stroke="#0e0c0c" stroke-width="0.5" stroke-linecap="round"/><path d="M263.75,151.65625v-14h27v14z" fill="#1a1a1c" stroke="#151212" stroke-width="0" stroke-linecap="butt"/><path d="M474.25,137.15625l7.5,15.5l-8.5,85l-21,-0.5l-26,-59.5l-29.5,-5l7,-32.5z" fill="#0e0c0c" stroke="#000000" stroke-width="0.5" stroke-linecap="round"/><path d="M167.25,135.65625l-0.5,-14h40l1,13l53,-1.5l2.5,3.5h27l3,-2h47.5l6,-11l41.5,0.5l16.5,16l69.5,-2.5l7.5,15l-8.5,85.5l-20.5,-0.5l-26,-60l-30,-4.5l-7.5,21.5l-63.5,-5l-5,10.5h-5l27.5,58.5l-36,1.5l-13,-58l-36,-1.5l-12,-8l-22.5,-1v19.5l-74.5,-22.5l-8,-23l8.5,-27z" fill="none" stroke="#000000" stroke-width="2" stroke-linecap="round"/><path d="M379.75,139.15625h-31" fill="none" stroke="#000000" stroke-width="5" stroke-linecap="round"/><path d="M146.91667,181.15625l66,-1.5l10.66667,11.33333l-0.66667,19.66667l-73,-22.5z" fill="#0e0c0c" stroke="#0e0c0c" stroke-width="0" stroke-linecap="round"/></g></g></svg>