<svg version="1.1" xmlns="http://www.w3.org/2000/svg" xmlns:xlink="http://www.w3.org/1999/xlink" width="688.67268" height="386.23493" viewBox="0,0,688.67268,386.23493"><g transform="translate(25.08708,0.72915)"><g data-paper-data="{&quot;isPaintingLayer&quot;:true}" fill-rule="nonzero" stroke-linejoin="miter" stroke-miterlimit="10" stroke-dasharray="" stroke-dashoffset="0" style="mix-blend-mode: normal"><path d="" fill="#101010" stroke="none" stroke-width="0" stroke-linecap="butt"/><g fill="none" stroke="#404040" stroke-width="5" stroke-linecap="round"><path d="M16.21236,155.19793v-42"/><path d="M626.29991,155.19793v-45"/><path d="M81.04959,110.19793v46"/><path d="M-22.58708,109.19793c0,0 433.45409,0 553.89528,0c58.29895,0 129.7774,0 129.7774,0"/><path d="M180.77545,154.04168v-44"/><path d="M129.93481,112.04168v43"/><path d="M237.63669,154.54168v-44.5"/><path d="M295.83581,155.54168v-45"/><path d="M344.00064,110.04168v46"/><path d="M400.19291,155.04168v-45.5"/><path d="M467.75743,109.54168v47"/><path d="M516.5912,157.04168v-46.5"/><path d="M566.76285,157.04168v-47.5"/></g><path d="M313.77417,25.66237l11.98258,0.48305l188.68768,354.85585l-376.87687,4.50451z" fill-opacity="0.25098" fill="#ffffff" stroke-opacity="0.25098" stroke="#ffffff" stroke-width="0" stroke-linecap="round"/><path d="M320.16668,15.27085l14.66667,12.66667h-31.66667l16.66667,-13.33334v-14.33333" fill="#000000" stroke="#000000" stroke-width="2" stroke-linecap="round"/></g></g></svg>