<svg version="1.1" xmlns="http://www.w3.org/2000/svg" xmlns:xlink="http://www.w3.org/1999/xlink" width="32.90608" height="27.6013" viewBox="0,0,32.90608,27.6013"><g transform="translate(-303.54696,-166.19935)"><g data-paper-data="{&quot;isPaintingLayer&quot;:true}" fill="#ff6f00" fill-rule="nonzero" stroke="none" stroke-width="0.5" stroke-linecap="butt" stroke-linejoin="miter" stroke-miterlimit="10" stroke-dasharray="" stroke-dashoffset="0" style="mix-blend-mode: normal"><path d="M307.55539,166.96922c0.12403,-0.03538 0.22143,-0.03538 0.22143,-0.03538c1.6732,0 3.42265,0.01435 5.09173,0.15121c0.25006,0.0205 0.49147,0.10148 0.73809,0.14762c0.39519,0.07394 0.93805,-0.1029 1.18727,0.21259c0.63451,0.80323 0.15486,1.69215 -0.13184,2.41982c-0.61352,1.55713 -1.82886,2.90835 -2.34076,4.51591c-0.23214,0.729 -0.11595,1.68495 -0.11595,2.44323c0,1.24807 -0.09253,2.53296 -0.00251,3.77718c0.09694,1.34008 0.33924,2.79811 0.143,4.14893c-0.13293,0.915 -0.58218,1.83101 -0.93136,2.68124c-0.08301,0.20212 -0.16305,0.40569 -0.25576,0.60355c-0.03067,0.06545 -0.17013,0.13969 -0.11358,0.18472c0.09232,0.07352 0.23812,-0.01566 0.35399,0.00674c0.37628,0.07275 0.74224,0.19171 1.11578,0.27741c0.88466,0.20296 1.58131,0.2514 2.49519,0.27725c0.25089,0.0071 0.51639,0.14571 0.75087,0.05618c0.66247,-0.25294 1.04612,-1.86939 1.19494,-2.31985c0.24697,-1.09707 0.17491,-1.88582 0.27205,-2.97568c0.11463,-1.2861 0.4797,-2.6734 0.32952,-3.97478c-0.03375,-0.29242 -0.37031,-0.23104 -0.55346,-0.237c-0.83016,-0.02698 -2.14142,-0.02786 -2.7955,-0.64034c-1.07424,-1.00591 -0.66079,-3.2083 0.39528,-3.95793c1.07425,-0.76254 2.3501,-0.33823 3.50341,-0.10757c0.13557,0.05242 0.27705,0.22295 0.40672,0.15727c0.31655,-0.16036 0.49186,-0.51276 0.7581,-0.74734c0.83035,-0.7316 1.79129,-1.3467 2.70711,-1.95579c1.68488,-1.12057 3.14302,-2.58174 4.92162,-3.57376c0.90023,-0.5021 1.90624,-0.82476 2.80473,-1.32856c1.15877,-0.64974 2.02838,-0.97676 3.38669,-0.97676c0.58906,0.11629 1.16985,0.27727 1.74051,0.46399c0.3591,0.11749 0.8343,0.05958 1.0789,0.34755c0.29865,0.35162 0.28623,0.88176 0.35294,1.33825c0.1185,0.81094 0.13248,2.22676 -0.20129,3.00045c-0.13901,0.32224 -0.45096,0.55075 -0.58601,0.87467c-0.11381,0.27299 -0.02705,0.6038 -0.1437,0.87559c-0.44585,1.03878 -0.78046,0.9751 -1.01282,1.85661c-0.38517,1.46124 -0.41936,2.95377 -0.56569,4.43814c-0.16408,1.66442 -0.60705,3.22994 -1.22346,4.76914c-0.37791,1.09135 -0.2243,2.13637 -0.2502,3.28895c-0.00501,0.22304 -0.18478,0.6292 0.03485,0.66839c0.62281,0.11114 1.58126,-0.15555 2.20242,-0.21494c0.40357,-0.03859 0.89453,-0.31837 1.21426,-0.06911c1.6318,1.27213 0.08359,2.24501 -0.66091,3.17671c-0.59429,0.74372 -1.12733,1.6636 -2.00921,2.11381c-1.40946,0.71955 -3.16958,0.52823 -4.69219,0.52149c-0.82556,-0.17439 -1.57891,-0.62439 -2.29012,-1.07841c-0.82059,-0.52384 -1.72078,-1.07344 -2.14901,-2.01194c-0.53389,-1.17006 -0.50714,-2.58824 -0.50714,-3.84409c0,-2.41226 0.52341,-4.6686 1.05671,-6.97475c0.24867,-1.07532 0.31539,-2.19734 0.42305,-3.28359c0.02602,-0.26248 0.08072,-0.52015 0.15026,-0.7752c-0.72125,0.46342 -1.41509,0.97614 -2.18175,1.35852c-0.15819,0.0789 -0.41474,-0.02249 -0.51602,0.1224c-0.53997,0.77256 0.2103,2.04178 0.32092,2.7966c0.1955,1.33401 0.32944,2.60313 0.30397,3.95129c-0.00705,0.37318 0.07189,0.76236 -0.03788,1.11911c-0.03444,0.11193 -0.87318,1.23805 -1.00698,1.40537c-1.0164,1.27098 -2.08534,2.26959 -3.32503,3.33131c-1.18863,1.19023 -2.3628,2.5152 -3.87081,3.31695c-1.41043,0.74988 -2.47203,0.71861 -4.01157,0.71765c-1.70313,-0.00107 -3.26163,-0.06732 -4.69276,-1.01129c-0.3778,-0.2492 -1.20503,-0.65725 -1.48338,-1.02528c-0.41167,-0.5443 -0.46693,-1.28799 -0.60095,-1.95714c-0.05204,-0.25982 -0.24956,-0.47707 -0.29524,-0.73809c-0.17593,-1.00543 -0.01332,-2.21506 -0.01332,-3.23955c0,-0.94419 -0.24066,-2.28681 0.03788,-3.18576c0.28183,-0.90955 1.23158,-1.33329 1.46352,-2.31977c0.64852,-2.7583 0.10156,-5.53323 0.42123,-8.29564c0.17413,-1.50471 0.72695,-2.93206 0.88642,-4.43538l0.8814,-0.65851c0,0 0.0974,0 0.22143,0.03538z"/></g></g></svg>