<svg version="1.1" xmlns="http://www.w3.org/2000/svg" xmlns:xlink="http://www.w3.org/1999/xlink" width="42.89711" height="17.74588" viewBox="0,0,42.89711,17.74588"><g transform="translate(-298.55514,-171.13128)"><g data-paper-data="{&quot;isPaintingLayer&quot;:true}" fill-rule="nonzero" stroke-linejoin="miter" stroke-miterlimit="10" stroke-dasharray="" stroke-dashoffset="0" style="mix-blend-mode: normal"><path d="M340.13104,173.49708l1.05789,3.36036l-0.99566,2.86253l-9.2721,2.8003v-2.42693l-2.8003,0.12445l-1.4935,0.99566l-4.48048,0.18668l-1.61795,7.21855l-4.48048,-0.18669l3.42259,-7.28078h-0.62229l-0.62229,-1.30681l-7.90307,0.62229l-0.93343,-2.67584l-3.73373,0.56006l-3.2359,7.46746l-2.55138,0.06223l-1.05789,-10.64114l0.93343,-1.86686l8.64981,0.31114l2.05355,-1.99132l5.165,-0.06223l0.74675,1.36904h5.91174l0.37337,0.24891h3.36036l0.31114,-0.4356l6.59626,0.18669l0.12446,-1.61795h4.97831l-0.06223,1.74241z" fill="#434343" stroke="#000000" stroke-width="0" stroke-linecap="round"/><path d="M322.14689,181.27569l-1.49349,7.21855l-4.54271,-0.06223l3.42258,-7.34301" fill="#1a1a1c" stroke="#000000" stroke-width="0" stroke-linecap="round"/><path d="M326.75183,181.21346l-4.23156,0.06223l-3.60927,-0.24892l-0.49783,-1.18235l9.64548,0.31114z" fill="#0e0c0c" stroke="#0e0c0c" stroke-width="0.5" stroke-linecap="round"/><path d="M322.5825,175.11503v-1.74241h3.36036v1.74241z" fill="#1a1a1c" stroke="#151212" stroke-width="0" stroke-linecap="butt"/><path d="M308.51877,173.68377l0.8712,4.04488l-3.6715,0.62229l-3.2359,7.40523l-2.61361,0.06223l-1.05789,-10.57891l0.93343,-1.92909z" fill="#0e0c0c" stroke="#000000" stroke-width="0.5" stroke-linecap="round"/><path d="M340.13104,173.49708l1.05789,3.36036l-0.99566,2.86253l-9.2721,2.8003v-2.42693l-2.8003,0.12445l-1.4935,0.99566l-4.48048,0.18668l-1.61795,7.21855l-4.48048,-0.18669l3.42259,-7.28078h-0.62229l-0.62229,-1.30681l-7.90307,0.62229l-0.93343,-2.67584l-3.73373,0.56006l-3.2359,7.46746l-2.55138,0.06223l-1.05789,-10.64114l0.93343,-1.86686l8.64981,0.31114l2.05355,-1.99132l5.165,-0.06223l0.74675,1.36904h5.91174l0.37337,0.24891h3.36036l0.31114,-0.4356l6.59626,0.18669l0.12446,-1.61795h4.97831l-0.06223,1.74241z" fill="none" stroke="#000000" stroke-width="0.5" stroke-linecap="round"/><path d="M311.05237,173.55931h3.85819" fill="none" stroke="#000000" stroke-width="1" stroke-linecap="round"/><path d="M340.1103,179.65774l-9.08541,2.8003l-0.08297,-2.44767l1.32755,-1.41052l8.21421,0.18669z" fill="#0e0c0c" stroke="#0e0c0c" stroke-width="0" stroke-linecap="round"/></g></g></svg>