<svg version="1.1" xmlns="http://www.w3.org/2000/svg" xmlns:xlink="http://www.w3.org/1999/xlink" width="89.45105" height="44.71875" viewBox="0,0,89.45105,44.71875"><g transform="translate(-279.5823,-165.53125)"><g data-paper-data="{&quot;isPaintingLayer&quot;:true}" fill-rule="nonzero" stroke-linejoin="miter" stroke-miterlimit="10" stroke-dasharray="" stroke-dashoffset="0" style="mix-blend-mode: normal"><path d="M288.28334,190v-20h80.5v20z" fill="#141414" stroke="#000000" stroke-width="0.5" stroke-linecap="butt"/><path d="M279.8323,169.98125v-4.2h4.2v4.2z" fill="#151515" stroke="#000000" stroke-width="0.5" stroke-linecap="butt"/><text transform="translate(281.20548,168.67472) scale(0.06232,0.06232)" font-size="40" xml:space="preserve" fill="#ffffff" fill-rule="nonzero" stroke="none" stroke-width="1" stroke-linecap="butt" stroke-linejoin="miter" stroke-miterlimit="10" stroke-dasharray="" stroke-dashoffset="0" font-family="Malgun Gothic" font-weight="normal" text-anchor="start" style="mix-blend-mode: normal"><tspan x="0" dy="0">1</tspan></text><path d="M284.06307,169.98125v-4.2h4.2v4.2z" fill="#141414" stroke="#000000" stroke-width="0.5" stroke-linecap="butt"/><text transform="translate(285.43625,168.67472) scale(0.06232,0.06232)" font-size="40" xml:space="preserve" fill="#ffffff" fill-rule="nonzero" stroke="none" stroke-width="1" stroke-linecap="butt" stroke-linejoin="miter" stroke-miterlimit="10" stroke-dasharray="" stroke-dashoffset="0" font-family="Malgun Gothic" font-weight="normal" text-anchor="start" style="mix-blend-mode: normal"><tspan x="0" dy="0">2</tspan></text><path d="M288.28335,210v-20h80.5v20z" fill="#353535" stroke="#000000" stroke-width="0.5" stroke-linecap="butt"/><path d="M279.83231,174.28125v-4.2h4.2v4.2z" fill="#151515" stroke="#000000" stroke-width="0.5" stroke-linecap="butt"/><path d="M288.26308,169.98125v-4.2h4.2v4.2z" fill="#ffffff" stroke="#000000" stroke-width="0.5" stroke-linecap="butt"/><text transform="translate(289.63625,168.67472) scale(0.06232,0.06232)" font-size="40" xml:space="preserve" fill="#141414" fill-rule="nonzero" stroke="none" stroke-width="1" stroke-linecap="butt" stroke-linejoin="miter" stroke-miterlimit="10" stroke-dasharray="" stroke-dashoffset="0" font-family="Malgun Gothic" font-weight="normal" text-anchor="start" style="mix-blend-mode: normal"><tspan x="0" dy="0">3</tspan></text><path d="M284.03232,174.28125v-4.2h4.2v4.2z" fill="#151515" stroke="#000000" stroke-width="0.5" stroke-linecap="butt"/><path d="M284.03232,178.48125v-4.2h4.2v4.2z" fill="#151515" stroke="#000000" stroke-width="0.5" stroke-linecap="butt"/><path d="M365.14287,199.36608l2.42857,3.85715l-0.28571,5l-4.42857,0.42857l-2,-1.71428l0.58053,-0.9651l-1.86625,-5.46347c0,0 -0.90795,0.11024 -1.69464,-0.19371c-1.15994,-0.44816 -4.59107,-2.23487 -4.59107,-2.23487l-4.71429,-0.42857l-8.57142,1.71429l-0.71429,-1.28572h-5.57142l-5.42858,1.14286l-2.14285,-0.42857v-0.85715h-9.42857l0.28571,-2h8.71429h-10.14286l0.28572,-2.57143l2,-0.14285l0.42857,-1.28572l1.14286,0.28572l0.14285,0.85714l18.85715,-0.28571l2,-1l6.71429,-0.14286l0.42857,1l2.57143,0.14286l0.14285,-1h1.14286l0.28572,1l7.57142,-0.14286l4.85715,1.42857l1.85715,1.14286l0.57142,2.28571z" data-paper-data="{&quot;index&quot;:null}" fill="none" stroke="#ffffff" stroke-width="0.5" stroke-linecap="round"/><path d="M292.56308,169.98125v-4.2h4.2v4.2z" fill="#141414" stroke="#000000" stroke-width="0.5" stroke-linecap="butt"/><text transform="translate(293.93626,168.67472) scale(0.06232,0.06232)" font-size="40" xml:space="preserve" fill="#ffffff" fill-rule="nonzero" stroke="none" stroke-width="1" stroke-linecap="butt" stroke-linejoin="miter" stroke-miterlimit="10" stroke-dasharray="" stroke-dashoffset="0" font-family="Malgun Gothic" font-weight="normal" text-anchor="start" style="mix-blend-mode: normal"><tspan x="0" dy="0">4</tspan></text><g fill="none" stroke="#ffffff" stroke-linecap="round"><path d="M366.08,173.3104l0.93343,1.92909l-1.05789,10.57891l-2.61361,-0.06223l-3.2359,-7.40523l-3.6715,-0.62229l0.8712,-4.04488z" data-paper-data="{&quot;index&quot;:null}" stroke-width="0.5"/><path d="M327.87147,173.12369l-0.06223,-1.74241h4.97831l0.12446,1.61795l6.59626,-0.18669l0.31114,0.4356h3.36036l0.37337,-0.24891h5.91174l0.74675,-1.36904l5.165,0.06223l2.05355,1.99132l8.64981,-0.31114l0.93343,1.86686l-1.05789,10.64114l-2.55138,-0.06223l-3.2359,-7.46746l-3.73373,-0.56006l-0.93343,2.67584l-7.90307,-0.62229l-0.62229,1.30681h-0.62229l3.42259,7.28078l-4.48048,0.18669l-1.61795,-7.21855l-4.48048,-0.18668l-1.4935,-0.99566l-2.8003,-0.12445v2.42693l-9.2721,-2.8003l-0.99566,-2.86253l1.05789,-3.36036z" data-paper-data="{&quot;index&quot;:null}" stroke-width="0.5"/><path d="M354.77213,173.55931h-3.85819" data-paper-data="{&quot;index&quot;:null}" stroke-width="1"/></g><path d="M279.83232,178.48125v-4.2h4.2v4.2z" fill="#151515" stroke="#000000" stroke-width="0.5" stroke-linecap="butt"/></g></g></svg>