<svg version="1.1" xmlns="http://www.w3.org/2000/svg" xmlns:xlink="http://www.w3.org/1999/xlink" width="199.75405" height="169.56094" viewBox="0,0,199.75405,169.56094"><g transform="translate(-221.0157,-95.30303)"><g data-paper-data="{&quot;isPaintingLayer&quot;:true}" stroke="none" stroke-linecap="butt" stroke-linejoin="miter" stroke-miterlimit="10" stroke-dasharray="" stroke-dashoffset="0" style="mix-blend-mode: normal"><path d="M401.83759,127.48963c1.19944,0.33207 3.31446,1.95227 3.70545,2.84761c0.18726,0.42844 0.59402,1.12383 0.89713,1.54379c0.83791,1.1605 1.75766,3.07563 2.15814,4.53524c0.19774,0.72156 0.6369,2.02374 0.96398,2.86815c1.47908,3.82055 1.45946,3.8246 1.46695,8.56896c0.00799,4.97057 0.0913,4.69557 -1.89013,5.43711c-2.17369,0.81344 -6.79388,0.69444 -9.12686,-0.23885c-0.93279,-0.37351 -2.56534,-2.41995 -2.93436,-3.68931c-1.77071,-6.09062 -1.87303,-8.94595 -0.51379,-14.96166c0.94877,-4.19956 2.58921,-6.75936 4.50773,-7.08394c0.04694,-0.00799 0.39272,0.06952 0.76574,0.17289" data-paper-data="{&quot;noHover&quot;:false,&quot;origItem&quot;:[&quot;Path&quot;,{&quot;applyMatrix&quot;:true,&quot;segments&quot;:[[[401.84325,127.53929],[0,0],[-0.37302,-0.10337]],[[401.08024,127.36601],[0.04694,-0.00799],[-1.91852,0.32458]],[[396.60104,134.43436],[0.94877,-4.19956],[-1.35924,6.01571]],[[397.10689,149.32159],[-1.77071,-6.09062],[0.36902,1.26936]],[[400.02511,153.00332],[-0.93279,-0.37351],[2.33298,0.93329]],[[409.11834,153.24501],[-2.17369,0.81344],[1.98143,-0.74154]],[[410.99291,147.81903],[0.00799,4.97057],[-0.00749,-4.74436]],[[409.51333,139.29457],[1.47908,3.82055],[-0.32708,-0.84441]],[[408.55907,136.44726],[0.19774,0.72156],[-0.40048,-1.45961]],[[406.42334,131.92811],[0.83791,1.1605],[-0.30311,-0.41996]],[[405.53249,130.38611],[0.18726,0.42844],[-0.39099,-0.89534]],[[401.84327,127.5393],[1.19944,0.33207],[0,0]]],&quot;fillColor&quot;:[0,0,0,1]}]}" fill="#ffffff" fill-rule="nonzero" stroke-width="0.5"/><path d="M236.44031,117.5512c1.74374,0.90433 3.40417,1.97384 4.13223,2.66195c0.37302,0.35254 0.96675,0.79775 1.27186,0.95105c2.13524,1.07411 3.20533,4.86466 3.84999,13.65978c0.13982,1.91202 0.36788,4.8483 0.50571,6.52663c0.21522,2.63009 0.2197,3.66729 0.02495,7.51132l-0.22616,4.45941l-0.62007,0.90049c-1.18946,1.72726 -1.19602,2.83554 -0.02454,4.15384c0.39549,0.44542 0.82651,0.96098 0.95784,1.14624c0.6981,0.98522 1.59754,0.82956 2.35856,-0.37338c0.59223,-0.93579 0.94216,-1.0897 4.32028,-1.88667c2.14073,-0.50485 2.86152,-0.61478 3.22205,-0.48795l0.51044,0.18188l0.0048,2.36859c0.00649,3.26377 0.84877,6.25876 2.41624,8.60373c0.26266,0.39299 0.57135,0.93134 0.6857,1.1965c0.34505,0.79897 2.43207,2.97581 3.33789,3.48215c0.4664,0.26116 1.29537,0.74912 1.84217,1.08568c0.56477,0.34805 1.40671,0.68981 1.95001,0.79268c0.52532,0.09937 1.53703,0.33192 2.24761,0.51668c1.65785,0.43094 3.71696,0.43026 5.65445,0.00681c0.81494,-0.17777 2.0544,-0.37501 2.75399,-0.43693c0.69909,-0.06192 1.80574,-0.2582 2.45839,-0.43597c1.95297,-0.53131 4.90708,-0.96091 8.0545,-1.16764c7.89927,-0.51933 7.8321,-0.51068 10.17606,-2.17602c1.04415,-0.74254 1.14211,-0.90274 1.79276,-2.93311c0.67563,-2.11027 0.73165,-3.39082 0.19934,-4.75655c-0.2352,-0.60272 -0.51978,-1.39316 -0.63363,-1.75469c-0.11335,-0.36203 -0.47672,-0.9574 -0.80679,-1.32292c-1.12255,-1.24239 -0.72924,-1.31875 3.56221,-0.67808c4.72189,0.70509 8.45215,1.04212 11.4278,1.04212c3.12745,0 3.33013,0.04847 4.38177,1.06266c0.52033,0.50235 1.36342,1.06752 2.076,1.3941c1.88606,0.86488 2.23769,1.56435 1.6864,3.381c-1.06462,3.51046 1.41559,7.70088 4.98697,8.43043c0.80795,0.16479 1.77538,0.43549 2.14839,0.59828c1.28184,0.55928 4.97703,0.55676 6.52902,-0.00601c0.69909,-0.25367 1.52701,-0.53893 1.90003,-0.64629c1.27735,-0.36802 3.41351,-2.70069 4.67338,-5.10907c0.5418,-1.03566 3.52357,-1.99709 4.52827,-1.45979c0.52332,0.28014 0.65091,0.62877 1.2756,3.48057c0.28613,1.30531 0.86444,3.407 1.28539,4.66587c0.42046,1.25937 0.96136,2.97885 1.20154,3.81827c0.24019,0.83891 0.61862,1.88812 0.84134,2.32954c0.68361,1.35475 1.10329,2.54495 1.27457,3.60857c0.19824,1.23091 1.19652,3.38213 1.73383,3.73418c0.21422,0.14032 0.64255,0.60765 0.95165,1.03809c1.16599,1.6239 -1.00082,1.47507 23.86149,1.53549c24.92024,0.05992 22.29082,-0.1473 22.60042,1.83113c0.10237,0.65266 0.29402,1.55551 0.42685,2.00543c0.21322,0.72456 0.20862,0.9533 -0.04006,1.98796c-0.27964,1.16699 -0.27979,1.17315 0.17412,2.57384c0.99521,3.07252 1.15395,6.55084 0.63313,13.78498c-0.18127,2.51774 -0.4122,5.87706 -0.51157,7.46201c-0.18276,2.91123 -0.49054,6.01202 -0.61688,6.21675c-0.03745,0.06092 -0.25548,1.23294 -0.48418,2.60317c-0.62269,3.73566 -0.12161,3.47621 -5.87566,3.05126c-1.90254,-0.14032 -5.29076,-0.32172 -7.52936,-0.40411c-4.34188,-0.15979 -4.89359,-0.29072 -5.19869,-1.04474c-0.21223,-0.52432 -0.77605,-3.26853 -0.94433,-4.59781c-0.06542,-0.51284 -0.33547,-1.96189 -0.60062,-3.22076c-1.06113,-5.04197 -1.35599,-7.34647 -1.69205,-13.30775c-0.42495,-7.54673 -0.94764,-9.13924 -4.0706,-12.46344c-2.07881,-2.21214 -2.29471,-2.35933 -4.12185,-2.54459c-0.81644,-0.08289 -1.95499,-0.35498 -2.7999,-0.66907c-3.19387,-1.18746 -5.2895,-0.20483 -7.06221,3.30662c-1.30381,2.58216 -1.19749,3.56249 0.95872,8.71932c0.28563,0.68361 0.60284,1.75236 0.70521,2.37456c0.47938,2.91872 0.84796,4.04415 2.0534,6.2503c1.79867,3.29274 2.28541,4.30476 2.603,5.40634c0.15979,0.55378 0.61441,1.65622 1.0109,2.44869c0.39649,0.79247 0.85361,1.91736 1.0164,2.49861c0.20024,0.71457 0.56358,1.40141 1.12085,2.11998c1.69131,2.17818 1.3137,2.8485 -2.46141,4.37702c-1.58645,0.64267 -3.78116,1.92195 -5.66722,3.30316c-0.58824,0.43044 -1.54262,0.96226 -2.12037,1.18098c-0.57725,0.21872 -1.5466,0.63365 -2.15282,0.92178c-1.79767,0.85389 -2.35626,0.65266 -3.53873,-1.10956c-1.0841,-1.61541 -2.18265,-4.42144 -2.33545,-5.96594c-0.11935,-1.20644 -0.23994,-1.48289 -1.38646,-3.18768c-0.29312,-0.43594 -0.58535,-1.06953 -0.64877,-1.40809c-0.06342,-0.33806 -0.42368,-1.30863 -0.80069,-2.15653c-0.37651,-0.8479 -0.86671,-2.13997 -1.08842,-2.87102c-0.50435,-1.66085 -0.91975,-2.60775 -1.75917,-4.01144c-0.36203,-0.60622 -0.78377,-1.59769 -0.93657,-2.2039c-0.32658,-1.29682 -1.40062,-4.26911 -2.02032,-5.59439c-0.23969,-0.51334 -0.43677,-1.22508 -0.43777,-1.58212c-0.001,-0.35754 -0.24161,-1.19502 -0.53373,-1.86166c-0.51833,-1.17997 -0.53069,-1.26039 -0.4408,-3.08253c0.06941,-1.41517 0.03167,-2.01242 -0.15209,-2.45085c-0.13433,-0.31859 -0.31407,-1.07147 -0.39946,-1.67419c-0.28413,-2.0049 -1.23658,-2.83295 -3.53511,-3.05666c-0.87986,-0.08539 -2.13441,-0.28621 -2.78757,-0.4475c-0.99971,-0.24718 -2.07188,-0.2913 -6.78528,-0.29779c-6.99744,-0.00999 -6.62774,0.1157 -6.8944,-2.88941c-0.10037,-1.12854 -0.33743,-2.28284 -0.6735,-3.29903c-0.28463,-0.85989 -0.51865,-1.72127 -0.51865,-1.91502c0,-0.75602 -0.46472,-1.27626 -1.77153,-1.99333c-0.71757,-0.39349 -1.81028,-1.1836 -2.42499,-1.75835c-1.14202,-1.06762 -3.4118,-2.72099 -4.43597,-3.24431c-0.45741,-0.2337 -0.91959,-0.28622 -2.3088,-0.24078l-1.68632,0.05043l-1.5085,1.00666c-0.82943,0.55528 -2.17128,1.63936 -2.98073,2.41436c-1.04465,1.00021 -1.78375,1.54719 -2.54726,1.88974c-0.69959,0.31409 -1.24112,0.6991 -1.54922,1.10258c-0.26016,0.34156 -0.85262,0.81249 -1.31652,1.04719c-0.4634,0.2352 -1.26592,0.69748 -1.78325,1.02855c-0.51683,0.33057 -1.41109,0.77096 -1.93242,0.95022c-1.37422,0.47289 -2.44713,1.22805 -3.26557,2.28368c-0.71857,0.9268 -1.65428,1.464 -4.13706,2.37931c-0.36453,0.13433 -0.97643,0.55469 -1.41336,0.96316c-0.43693,0.40897 -1.03325,0.86622 -1.32487,1.01702c-0.64516,0.33357 -0.76207,0.54185 -1.5101,2.71254c-0.9278,2.69201 -0.97481,5.53286 -0.16236,10.35511c0.32957,1.95846 0.64801,4.32231 0.70943,5.2546c0.06142,0.93279 0.21494,2.1146 0.34177,2.62794c0.59972,2.42586 1.47593,7.26122 1.69165,9.32355c0.13133,1.25937 0.35363,3.01357 0.49545,3.89942c0.14182,0.88585 0.30638,2.46142 0.3668,3.50108l0.10952,1.88988l-0.48061,0.50363l-0.45898,0.45837l-5.29022,-0.06627c-5.8694,-0.0734 -6.06554,-0.10911 -6.61084,-1.18721c-0.55978,-1.10507 -1.46533,-3.71015 -1.65358,-4.75729c-0.11335,-0.62769 -0.46401,-1.5585 -0.8555,-2.26958c-0.80196,-1.45761 -1.40893,-3.03176 -1.76797,-4.58824c-0.14731,-0.63767 -0.504,-1.77089 -0.79262,-2.51693c-0.40997,-1.06163 -0.55455,-1.7631 -0.65942,-3.22271c-0.10936,-1.52153 -0.24399,-2.14724 -0.72687,-3.39213c-0.32558,-0.83941 -0.67525,-1.97581 -0.77612,-2.5246c-0.10087,-0.54879 -0.48459,-1.92361 -0.85161,-3.05315c-0.79597,-2.44783 -0.97162,-3.44662 -1.19183,-6.80477c-0.33057,-5.03898 -1.05677,-6.27982 -3.60597,-6.15348c-2.0119,0.10037 -2.39411,1.03499 -1.59214,3.61564c0.19824,0.63917 0.5324,1.77168 0.74263,2.51771c0.21023,0.74603 0.68856,2.0816 1.06357,2.96945c0.37452,0.88785 0.88018,2.40109 1.12337,3.36434c0.24368,0.96325 0.59019,2.10585 0.77096,2.53929c0.63967,1.53401 1.53055,3.91898 1.53055,4.09675c0,0.28763 0.68252,1.5467 1.19136,2.19686c0.25667,0.32808 0.55892,0.90139 0.67178,1.27441c0.11335,0.37302 0.50228,1.33311 0.86581,2.13407c0.63018,1.3907 0.66671,1.57097 0.82101,3.98385c0.08888,1.3907 0.28139,2.96593 0.4287,3.50174c1.35724,4.9446 0.64197,6.25633 -3.81726,7.11422c-0.90183,0.17328 -3.73845,1.01146 -6.30313,1.86286l-4.66344,1.54803l-2.4092,0.13949l-2.40918,0.14l-1.83024,0.85027c-1.0067,0.46739 -2.3262,0.93905 -2.93241,1.04791c-0.60622,0.10936 -1.49773,0.3204 -1.9806,0.4692c-1.25537,0.3865 -1.39628,0.28542 -2.96175,-2.12496c-0.38151,-0.58824 -0.90674,-1.65689 -1.16591,-2.37446c-0.25916,-0.71807 -0.74099,-1.99254 -1.06957,-2.83195c-0.47588,-1.21543 -0.62265,-1.87175 -0.71853,-3.222c-0.0794,-1.11606 -0.22952,-1.91252 -0.43875,-2.32848c-0.17477,-0.34755 -0.43519,-1.13644 -0.57801,-1.75265c-0.14282,-0.6157 -0.56416,-1.88324 -0.93568,-2.81553c-0.37152,-0.93279 -0.86332,-2.41869 -1.09253,-3.30155c-0.41147,-1.58295 -0.76852,-2.43492 -1.67485,-3.9964c-0.25417,-0.43743 -0.67992,-1.60711 -0.94558,-2.59783l-0.48356,-1.80214l0.34146,-1.2067c0.42745,-1.51005 0.25665,-3.2483 -0.56878,-5.80898c-0.74903,-2.32299 -1.67179,-5.56296 -1.67179,-5.87106c0,-0.49486 -0.44706,-1.46971 -0.94691,-2.06344c-0.75702,-0.90033 -0.78883,-1.16568 -0.93265,-7.83904c-0.08839,-4.11168 -0.23136,-7.08964 -0.39465,-8.22567c-0.21822,-1.51704 -0.25636,-5.25958 -0.26236,-25.24221l-0.00494,-23.45993l0.41711,-1.21621c0.2292,-0.66913 0.49664,-1.72228 0.59351,-2.33948c0.20324,-1.29033 0.41794,-1.9358 1.23688,-3.72099c0.32308,-0.70509 0.71587,-1.66781 0.87267,-2.1387c0.1563,-0.47089 0.53654,-1.15336 0.84464,-1.51589c0.3081,-0.36303 0.80671,-1.00356 1.10832,-1.42302c0.89135,-1.24189 2.8345,-3.18877 3.26394,-3.27017c0.97723,-0.18576 1.51572,-0.09312 2.5399,0.43769" data-paper-data="{&quot;noHover&quot;:false,&quot;origItem&quot;:[&quot;Path&quot;,{&quot;applyMatrix&quot;:true,&quot;segments&quot;:[[[150.944,54.88802],[0,0],[-2.051,-1.063]],[[145.858,54.01102],[1.957,-0.372],[-0.86,0.163]],[[139.323,60.55802],[1.785,-2.487],[-0.604,0.84]],[[137.104,63.40702],[0.617,-0.727],[-0.617,0.726]],[[135.413,66.44202],[0.313,-0.943],[-0.314,0.943]],[[133.666,70.72402],[0.647,-1.412],[-1.64,3.575]],[[131.19,78.17402],[0.407,-2.584],[-0.194,1.236]],[[130.002,82.85802],[0.459,-1.34],[0,0]],[129.167,85.29302],[[129.181,132.26302],[0,0],[0.012,40.017]],[[129.708,182.79902],[-0.437,-3.038],[0.327,2.275]],[[130.498,199.26702],[-0.177,-8.234],[0.288,13.364]],[[132.365,214.96102],[-1.516,-1.803],[1.001,1.189]],[[134.261,219.09202],[0,-0.991],[0,0.617]],[[137.608,230.84602],[-1.5,-4.652],[1.653,5.128]],[[138.746,242.47602],[0.856,-3.024],[0,0]],[138.062,244.89202],[[139.03,248.50002],[0,0],[0.532,1.984]],[[140.923,253.70102],[-0.509,-0.876],[1.815,3.127]],[[144.276,261.70202],[-0.824,-3.17],[0.459,1.768]],[[146.463,268.31202],[-0.744,-1.868],[0.744,1.867]],[[148.336,273.94902],[-0.286,-1.233],[0.286,1.234]],[[149.493,277.45802],[-0.35,-0.696],[0.419,0.833]],[[150.371,282.12002],[-0.159,-2.235],[0.192,2.704]],[[151.809,288.57102],[-0.953,-2.434],[0.658,1.681]],[[153.95,294.24102],[-0.519,-1.438],[0.519,1.437]],[[156.284,298.99502],[-0.764,-1.178],[3.135,4.827]],[[162.214,303.24902],[-2.514,0.774],[0.967,-0.298]],[[166.18,302.30902],[-1.214,0.219],[1.214,-0.218]],[[172.052,300.21002],[-2.016,0.936],[0,0]],[175.717,298.50702],[180.541,298.22602],[185.365,297.94602],[[194.703,294.84502],[0,0],[5.136,-1.705]],[[207.324,291.11302],[-1.806,0.347],[8.93,-1.718]],[[214.901,276.94002],[2.718,9.902],[-0.295,-1.073]],[[214.041,269.92602],[0.178,2.785],[-0.309,-4.832]],[[212.395,261.94602],[1.262,2.785],[-0.728,-1.604]],[[210.66,257.67102],[0.227,0.747],[-0.226,-0.747]],[[209.314,255.11802],[0.514,0.657],[-1.019,-1.302]],[[206.927,250.71702],[0,0.576],[0,-0.356]],[[203.86,242.51002],[1.281,3.072],[-0.362,-0.868]],[[202.315,237.42302],[0.488,1.929],[-0.487,-1.929]],[[200.064,230.68302],[0.75,1.778],[-0.751,-1.778]],[[197.933,224.73402],[0.421,1.494],[-0.421,-1.494]],[[196.445,219.69002],[0.397,1.28],[-1.606,-5.168]],[[199.728,212.41702],[-4.029,0.201],[5.105,-0.253]],[[206.947,224.73402],[-0.662,-10.091],[0.441,6.725]],[[209.331,238.35602],[-1.594,-4.902],[0.735,2.262]],[[211.035,244.46802],[-0.202,-1.099],[0.202,1.099]],[[212.588,249.52202],[-0.652,-1.681],[0.967,2.493]],[[214.042,256.31302],[-0.219,-3.047],[0.21,2.923]],[[215.361,262.76502],[-0.821,-2.126],[0.578,1.494]],[[216.947,267.80402],[-0.295,-1.277],[0.719,3.117]],[[220.485,276.99002],[-1.606,-2.919],[0.784,1.424]],[[222.197,281.53402],[-0.227,-1.257],[0.377,2.097]],[[225.506,291.05902],[-1.121,-2.213],[1.092,2.159]],[[238.741,293.43402],[-11.754,-0.147],[0,0]],[249.332,293.56502],[250.251,292.64702],[251.169,291.72802],[[250.949,287.94302],[0,0],[-0.121,-2.082]],[[250.213,280.93102],[0.284,1.774],[-0.284,-1.774]],[[249.219,273.12102],[0.263,2.522],[-0.432,-4.13]],[[245.826,254.44602],[1.201,4.858],[-0.254,-1.028]],[[245.14,249.18202],[0.123,1.868],[-0.123,-1.867]],[[243.716,238.65602],[0.66,3.922],[-1.627,-9.657]],[[244.035,217.91102],[-1.858,5.391],[1.498,-4.347]],[[247.058,212.47702],[-1.292,0.668],[0.584,-0.302]],[[249.711,210.44002],[-0.875,0.819],[0.875,-0.818]],[[252.629,208.46302],[-0.73,0.269],[4.972,-1.833]],[[260.826,203.74602],[-1.439,1.856],[1.639,-2.114]],[[267.454,199.12602],[-2.752,0.947],[1.044,-0.359]],[[271.235,197.26902],[-1.035,0.662],[1.036,-0.663]],[[274.806,195.20902],[-0.928,0.471],[0.929,-0.47]],[[277.442,193.11102],[-0.521,0.684],[0.617,-0.808]],[[280.544,190.90202],[-1.401,0.629],[1.529,-0.686]],[[285.644,187.11502],[-2.092,2.003],[1.621,-1.552]],[[291.611,182.27302],[-1.661,1.112],[0,0]],[294.631,180.25202],[[298.107,180.13702],[0,0],[2.782,-0.091]],[[302.727,180.60702],[-0.916,-0.468],[2.051,1.048]],[[311.541,187.08002],[-2.287,-2.138],[1.231,1.151]],[[316.39,190.60602],[-1.437,-0.788],[2.617,1.436]],[[320,194.67602],[0,-1.514],[0,0.388]],[[321.036,198.51302],[-0.57,-1.722],[0.673,2.035]],[[322.381,205.12202],[-0.201,-2.26],[0.534,6.018]],[[336.129,210.82802],[-14.013,-0.02],[9.439,0.013]],[[349.711,211.43102],[-2.002,-0.495],[1.308,0.323]],[[355.292,212.32902],[-1.762,-0.171],[4.603,0.448]],[[362.453,218.50802],[-0.569,-4.015],[0.171,1.207]],[[363.252,221.86202],[-0.269,-0.638],[0.368,0.878]],[[363.555,226.77202],[0.139,-2.834],[-0.18,3.649]],[[364.436,232.94702],[-1.038,-2.363],[0.585,1.335]],[[365.504,236.67602],[-0.002,-0.716],[0.002,0.715]],[[366.38,239.84502],[-0.48,-1.028],[1.241,2.654]],[[370.424,251.05002],[-0.654,-2.597],[0.306,1.214]],[[372.299,255.46402],[-0.725,-1.214],[1.681,2.811]],[[375.821,263.49802],[-1.01,-3.326],[0.444,1.464]],[[378,269.24802],[-0.754,-1.698],[0.755,1.698]],[[379.603,273.56702],[-0.127,-0.677],[0.127,0.678]],[[380.902,276.38702],[-0.587,-0.873],[2.296,3.414]],[[383.678,282.77102],[-0.239,-2.416],[0.306,3.093]],[[388.354,294.71902],[-2.171,-3.235],[2.368,3.529]],[[395.382,296.86002],[-3.6,1.71],[1.214,-0.577]],[[399.692,295.01502],[-1.156,0.438],[1.157,-0.438]],[[403.937,292.65102],[-1.178,0.862],[3.777,-2.766]],[[415.283,286.03902],[-3.177,1.287],[7.56,-3.061]],[[420.21,277.27602],[3.387,4.362],[-1.116,-1.439]],[[417.965,273.03102],[0.401,1.431],[-0.326,-1.164]],[[415.929,268.02802],[0.794,1.587],[-0.794,-1.587]],[[413.904,263.12502],[0.32,1.109],[-0.636,-2.206]],[[408.69,252.30002],[3.602,6.594],[-2.414,-4.418]],[[404.576,239.78602],[0.96,5.845],[-0.205,-1.246]],[[403.163,235.03202],[0.572,1.369],[-4.318,-10.327]],[[401.24,217.57702],[-2.611,5.171],[3.55,-7.032]],[[415.381,210.96002],[-6.396,-2.378],[1.692,0.629]],[[420.988,212.30002],[-1.635,-0.166],[3.659,0.371]],[[429.338,217.42502],[-4.163,-4.43],[6.254,6.657]],[[437.487,242.39102],[-0.851,-15.113],[0.673,11.938]],[[440.872,269.04702],[-2.125,-10.097],[0.531,2.521]],[[442.074,275.49802],[-0.131,-1.027],[0.337,2.662]],[[443.964,284.70702],[-0.425,-1.05],[0.611,1.51]],[[454.295,286.73902],[-8.695,-0.32],[4.483,0.165]],[[469.372,287.55002],[-3.81,-0.281],[11.523,0.851]],[[481.137,281.44202],[-1.247,7.481],[0.458,-2.744]],[[482.106,276.23002],[-0.075,0.122],[0.253,-0.41]],[[483.34,263.78302],[-0.366,5.83],[0.199,-3.174]],[[484.363,248.84302],[-0.363,5.042],[1.043,-14.487]],[[483.093,221.24402],[1.993,6.153],[-0.909,-2.805]],[[482.744,216.09102],[-0.56,2.337],[0.498,-2.072]],[[482.824,212.11102],[0.427,1.451],[-0.266,-0.901]],[[481.969,208.09602],[0.205,1.307],[-0.62,-3.962]],[[436.808,204.44702],[49.905,0.12],[-49.789,-0.121]],[[388.926,201.34902],[2.335,3.252],[-0.619,-0.862]],[[387.02,199.27102],[0.429,0.281],[-1.076,-0.705]],[[383.547,191.79702],[0.397,2.465],[-0.343,-2.13]],[[380.994,184.57502],[1.369,2.713],[-0.446,-0.884]],[[379.309,179.91302],[0.481,1.68],[-0.481,-1.681]],[[376.903,172.27202],[0.842,2.522],[-0.843,-2.521]],[[374.33,162.93502],[0.573,2.614],[-1.251,-5.711]],[[371.777,155.97002],[1.048,0.561],[-2.012,-1.076]],[[362.803,158.86002],[1.085,-2.074],[-2.523,4.823]],[[353.446,169.09802],[2.558,-0.737],[-0.747,0.215]],[[349.543,170.41202],[1.4,-0.508],[-3.108,1.127]],[[336.469,170.42802],[2.567,1.12],[-0.747,-0.326]],[[332.168,169.23402],[1.618,0.33],[-7.152,-1.461]],[[322.203,152.37702],[-2.132,7.03],[1.104,-3.638]],[[318.834,145.61002],[3.777,1.732],[-1.427,-0.654]],[[314.683,142.82002],[1.042,1.006],[-2.106,-2.031]],[[305.92,140.69302],[6.263,0],[-5.959,0]],[[283.059,138.59902],[9.456,1.412],[-8.594,-1.283]],[[275.931,139.95302],[-2.248,-2.488],[0.661,0.732]],[[277.547,142.60202],[-0.227,-0.725],[0.228,0.724]],[[278.817,146.11502],[-0.471,-1.207],[1.066,2.735]],[[278.424,155.63402],[1.353,-4.226],[-1.303,4.066]],[[274.839,161.50002],[2.091,-1.487],[-4.694,3.335]],[[254.465,165.84602],[15.819,-1.04],[-6.303,0.414]],[[238.336,168.18002],[3.911,-1.064],[-1.307,0.356]],[[233.413,169.05202],[1.4,-0.124],[-1.401,0.124]],[[227.898,169.92602],[1.632,-0.356],[-3.88,0.848]],[[216.475,169.90202],[3.32,0.863],[-1.423,-0.37]],[[211.974,168.86702],[1.052,0.199],[-1.088,-0.206]],[[208.069,167.27902],[1.131,0.697],[-1.095,-0.674]],[[204.38,165.10402],[0.934,0.523],[-1.814,-1.014]],[[197.696,158.12802],[0.691,1.6],[-0.229,-0.531]],[[196.323,155.73102],[0.526,0.787],[-3.139,-4.696]],[[191.486,138.49502],[0.013,6.536],[0,0]],[191.477,133.75002],[[190.548,133.42202],[0,0],[-0.722,-0.254]],[[184.096,134.39802],[4.287,-1.011],[-6.765,1.596]],[[175.445,138.17402],[1.186,-1.874],[-1.524,2.409]],[[170.626,138.89302],[1.398,1.973],[-0.263,-0.371]],[[168.708,136.59702],[0.792,0.892],[-2.346,-2.64]],[[168.758,128.27602],[-2.382,3.459],[0,0]],[170,126.47202],[[170.454,117.53902],[0,0],[0.39,-7.698]],[[170.406,102.49302],[0.431,5.267],[-0.276,-3.361]],[[169.395,89.42002],[0.28,3.829],[-1.291,-17.613]],[[161.688,62.06102],[4.276,2.151],[-0.611,-0.307]],[[159.219,60.21902],[0.747,0.706],[-1.458,-1.378]],[[150.944,54.88802],[3.492,1.811],[0,0]]],&quot;fillColor&quot;:[0,0,0,1]}]}" fill="#ffffff" fill-rule="nonzero" stroke-width="0.5"/><path d="M389.20241,105.37056c0.18226,0.17827 0.23158,0.66522 0.20312,2.01797c-0.05343,2.55869 0.2274,2.96712 2.03506,2.97611c1.43464,0.00699 1.92337,-0.33808 2.07518,-1.57997c0.21472,-1.75523 0.37692,-2.37266 0.65506,-2.54643c0.42645,-0.26566 0.50747,-0.08816 0.66177,1.45684c0.40697,4.06524 0.75185,4.91465 2.11009,5.22075c1.15251,0.26016 1.73972,0.01649 2.4503,-1.01767c1.27735,-1.86059 4.01552,-4.4715 6.56522,-6.26268c1.22441,-0.86039 5.70788,-0.63657 6.58075,0.32768c0.7725,0.85389 1.10744,3.84719 0.55216,4.94377c-1.30082,2.56967 -2.81686,3.85762 -4.85622,4.1068c-2.56568,0.31359 -3.64168,1.47362 -3.05694,3.29926c0.54529,1.70329 1.27287,2.02733 3.12647,1.38916c2.3155,-0.79647 2.62272,-0.50448 2.81697,2.66792c0.0789,1.28484 0.34891,3.83477 0.59809,5.6629c0.25817,1.89305 0.40262,3.53061 0.33471,3.80126l-0.16426,0.49566l-0.83308,-0.82022c-0.45841,-0.45142 -1.26639,-1.43435 -1.7967,-2.18637c-0.53031,-0.75203 -1.38949,-1.78484 -1.91081,-2.29817c-0.52133,-0.51284 -1.23383,-1.28945 -1.58387,-1.72788c-3.06903,-3.83753 -10.12523,-2.04279 -10.80435,2.74601c-0.09638,0.68112 -0.33918,1.66585 -0.57837,2.23611c-3.19237,7.60715 -2.07032,20.20243 2.17518,24.45243c4.72788,4.73287 10.46544,4.91351 16.27342,0.54167c0.83991,-0.63218 1.69187,-1.11572 1.83419,-1.08875c0.86438,0.16529 1.36498,5.1138 1.52528,15.0025c0.07291,4.49168 0.18409,8.25576 0.24901,8.36112c0.17877,0.28913 -0.26389,5.77835 -0.51556,6.40004c-0.38151,0.94228 -1.39557,1.42338 -3.54279,1.67855c-1.03117,0.12284 -2.26854,0.34282 -2.74892,0.48813c-4.96757,1.50505 -10.13345,1.94911 -22.9104,1.9571c-8.16044,0.00549 -8.2607,-0.00628 -9.76825,-1.24168c-0.59173,-0.48537 -1.39937,-0.98884 -1.79336,-1.11868c-0.52882,-0.17477 -1.0811,-0.62144 -2.11027,-1.71053c-0.78049,-0.82543 -1.7304,-1.64425 -2.15785,-1.86047c-0.41996,-0.21223 -1.18423,-0.6705 -1.69706,-1.01755c-0.51284,-0.34755 -1.46817,-0.8964 -2.12082,-1.21899c-0.65315,-0.32258 -2.11009,-1.09464 -3.23614,-1.71434c-3.75963,-2.06982 -5.98618,-2.73133 -8.9014,-2.63995c-2.04635,0.06392 -2.12904,0.00527 -2.28235,-1.60314c-0.06392,-0.67213 -0.4998,-2.9414 -0.96619,-5.03969c-0.74853,-3.36914 -0.87139,-4.19499 -1.03468,-7.04031c-0.22721,-3.96087 -0.21945,-4.0056 1.00647,-4.69771c1.60492,-0.90583 5.00699,-4.3929 5.68161,-5.82155c1.47859,-3.12845 0.14606,-7.31126 -2.72423,-8.54617c-1.52503,-0.65615 -1.81687,-1.32727 -1.94321,-4.43725c-0.09937,-2.45332 -0.18607,-2.7576 -1.43845,-4.9203c-0.51284,-0.88635 -1.0402,-1.82308 -1.17253,-2.08175c-0.33956,-0.66214 -0.30334,-1.89695 0.07068,-2.47521c0.17128,-0.26366 0.55987,-0.85085 0.86297,-1.30326c0.62369,-0.93079 0.66487,-1.22998 0.27987,-2.04143c-0.56077,-1.18197 -3.83132,-2.95428 -5.44972,-2.95428c-3.03108,0 -1.90173,-4.39112 1.37353,-5.34338c1.6973,-0.49336 4.55573,-0.42163 5.79213,0.14763c1.07661,0.49486 3.16291,1.30492 4.15562,1.61352c0.32608,0.10187 1.2424,0.56635 2.03488,1.03324c3.23082,1.90204 5.40424,1.04276 4.23525,-1.67472c-0.30261,-0.70309 -0.514,-0.93148 -1.1357,-1.28303c-0.42994,-0.24319 -1.2538,-0.7424 -1.83155,-1.10942c-0.57775,-0.36702 -1.39313,-0.77088 -1.81309,-0.89721c-2.47779,-0.74603 -1.75662,-1.70221 2.30762,-2.89516c0.78448,-0.2307 1.55951,0.47959 2.07434,1.90175c0.97773,2.7025 1.72079,3.40608 3.35717,3.18686c2.01639,-0.27065 2.22713,-2.35915 0.40848,-4.30963c-0.48387,-0.51933 -1.00738,-1.1856 -1.16367,-1.48021c-0.1563,-0.29512 -0.63084,-0.75217 -1.0543,-1.01583c-0.81345,-0.50634 -3.00568,-3.2918 -3.00568,-3.81163c0,-0.83192 0.88873,-0.89174 1.79306,-0.11973c0.36653,0.3126 0.92374,0.70041 1.23734,0.8617c0.31359,0.16179 1.0503,0.62145 1.63604,1.02243c0.58574,0.40098 1.4745,0.86107 1.97385,1.02186c0.49935,0.16129 1.08976,0.40676 1.31148,0.54608c0.40697,0.25567 2.59022,0.70857 3.46458,0.71955c0.86288,0.01099 1.33076,-0.66881 1.20343,-1.75141c-0.13333,-1.13203 0.11765,-1.35392 1.83592,-1.62707c0.62519,-0.09937 2.4974,-0.53196 4.15675,-0.9614c4.50167,-1.16399 8.41346,-1.59337 9.02767,-0.99215" data-paper-data="{&quot;noHover&quot;:false,&quot;origItem&quot;:[&quot;Path&quot;,{&quot;applyMatrix&quot;:true,&quot;segments&quot;:[[[456.814,30.51302],[0,0],[-1.23,-1.204]],[[438.746,32.50102],[9.015,-2.331],[-3.323,0.86]],[[430.427,34.42602],[1.252,-0.199],[-3.441,0.547]],[[426.753,37.68402],[-0.267,-2.267],[0.255,2.168]],[[424.345,41.19102],[1.728,0.022],[-1.751,-0.022]],[[417.411,39.74902],[0.815,0.512],[-0.444,-0.279]],[[414.786,38.65502],[1,0.323],[-1,-0.322]],[[410.835,36.60802],[1.173,0.803],[-1.173,-0.803]],[[407.56,34.56002],[0.628,0.324],[-0.628,-0.323]],[[405.083,32.83402],[0.734,0.626],[-1.811,-1.546]],[[401.494,33.07302],[0,-1.666],[0,1.041]],[[407.472,40.61502],[-1.629,-1.014],[0.848,0.528]],[[409.584,42.64902],[-0.313,-0.591],[0.313,0.59]],[[411.915,45.61302],[-0.969,-1.04],[3.642,3.906]],[[411.137,54.33502],[4.038,-0.542],[-3.277,0.439]],[[404.416,47.95202],[1.958,5.412],[-1.031,-2.848]],[[400.263,44.14302],[1.571,-0.462],[-8.139,2.389]],[[395.589,49.85602],[-4.962,-1.494],[0.841,0.253]],[[399.221,51.65202],[-1.157,-0.735],[1.157,0.735]],[[402.89,53.87302],[-0.861,-0.487],[1.245,0.704]],[[405.216,56.52802],[-0.606,-1.408],[2.341,5.442]],[[396.74,59.87802],[6.47,3.809],[-1.587,-0.935]],[[392.666,57.80802],[0.653,0.204],[-1.988,-0.618]],[[384.346,54.57502],[2.156,0.991],[-2.476,-1.14]],[[372.75,54.27602],[3.399,-0.988],[-6.559,1.907]],[[370.003,64.97202],[-6.07,0],[3.241,0]],[[380.916,70.88902],[-1.123,-2.367],[0.771,1.625]],[[380.357,74.97502],[1.249,-1.864],[-0.607,0.906]],[[378.63,77.58302],[0.343,-0.528],[-0.749,1.158]],[[378.49,82.53702],[-0.68,-1.326],[0.265,0.518]],[[380.839,86.70402],[-1.027,-1.775],[2.508,4.331]],[[383.722,96.55102],[-0.199,-4.913],[0.253,6.228]],[[387.615,105.43002],[-3.054,-1.314],[5.748,2.473]],[[393.07,122.52702],[2.961,-6.265],[-1.351,2.861]],[[381.69,134.17802],[3.214,-1.814],[-2.455,1.386]],[[379.672,143.58002],[-0.455,-7.932],[0.327,5.698]],[[381.739,157.67102],[-1.499,-6.747],[0.934,4.202]],[[383.67,167.75902],[-0.128,-1.346],[0.307,3.221]],[[388.238,170.96702],[-4.098,0.128],[5.838,-0.183]],[[406.054,176.24702],[-7.529,-4.145],[2.255,1.241]],[[412.53,179.67802],[-1.308,-0.646],[1.307,0.646]],[[416.774,182.11802],[-1.027,-0.696],[1.027,0.695]],[[420.17,184.15502],[-0.841,-0.425],[0.856,0.433]],[[424.488,187.88002],[-1.563,-1.653],[2.061,2.181]],[[428.711,191.30502],[-1.059,-0.35],[0.789,0.26]],[[432.3,193.54502],[-1.185,-0.972],[3.019,2.474]],[[451.85,196.03202],[-16.342,0.011],[25.587,-0.016]],[[497.708,192.12202],[-9.948,3.014],[0.962,-0.291]],[[503.211,191.14602],[-2.065,0.246],[4.3,-0.511]],[[510.303,187.78702],[-0.764,1.887],[0.504,-1.245]],[[511.332,174.97402],[0.358,0.579],[-0.13,-0.211]],[[510.829,158.23602],[0.146,8.995],[-0.321,-19.803]],[[507.768,128.20802],[1.731,0.331],[-0.285,-0.054]],[[504.192,130.41202],[1.682,-1.266],[-11.631,8.755]],[[471.51,129.29202],[9.468,9.478],[-8.502,-8.511]],[[467.166,80.38402],[-6.393,15.234],[0.479,-1.142]],[[468.388,75.82902],[-0.193,1.364],[1.36,-9.59]],[[490.032,70.33702],[-6.146,-7.685],[0.701,0.878]],[[493.206,73.80002],[-1.044,-1.027],[1.044,1.028]],[[497.035,78.40602],[-1.062,-1.506],[1.062,1.506]],[[500.635,82.78802],[-0.918,-0.904],[0,0]],[502.304,84.43202],[[502.542,83.48102],[0,0],[0.136,-0.542]],[[501.874,75.87302],[0.517,3.791],[-0.499,-3.661]],[[500.68,64.53802],[0.158,2.573],[-0.389,-6.353]],[[495.042,59.19902],[4.637,-1.595],[-3.712,1.278]],[[488.784,56.42002],[1.092,3.411],[-1.171,-3.656]],[[494.972,49.73802],[-5.138,0.628],[4.084,-0.499]],[[504.63,41.58802],[-2.605,5.146],[1.112,-2.196]],[[503.527,31.69002],[1.547,1.71],[-1.748,-1.931]],[[490.353,31.03702],[2.452,-1.723],[-5.106,3.587]],[[477.208,43.58002],[2.558,-3.726],[-1.423,2.071]],[[472.303,45.61902],[2.308,0.521],[-2.72,-0.613]],[[468.082,35.16602],[0.815,8.141],[-0.309,-3.094]],[[466.758,32.24902],[0.854,-0.532],[-0.557,0.348]],[[465.479,37.25402],[0.43,-3.515],[-0.304,2.487]],[[461.292,40.51302],[2.873,0.014],[-3.62,-0.018]],[[457.22,34.55402],[-0.107,5.124],[0.057,-2.709]],[[456.814,30.51302],[0.365,0.357],[0,0]]],&quot;fillColor&quot;:[0,0,0,1]}]}" fill="#ffffff" fill-rule="nonzero" stroke-width="0.5"/><path d="M388.45294,161.20968c2.47579,0.39798 6.1464,1.15555 10.57267,2.16425c0.45791,0.10436 0.48565,0.44358 0.08517,1.05828c-0.66564,1.02168 -0.24515,6.87679 0.5628,7.83655c0.86089,1.02318 3.05231,0.99412 3.82431,-0.04354c0.50585,-0.68012 0.60501,-4.13613 0.17706,-6.18497c-0.32208,-1.544 -0.21739,-1.72542 0.62552,-1.73091c3.3222,-0.02197 7.05,8.85079 4.07834,9.70668c-0.98223,0.28263 -2.52683,0.80886 -3.54452,1.20435c-0.60572,0.23569 -1.90703,0.73224 -2.88975,1.10076c-2.03736,0.76301 -2.35185,0.91859 -3.33208,1.61619c-1.28034,0.91082 -7.07192,0.98395 -11.68994,0.13755c-0.93279,-0.17128 -2.12316,-0.36067 -2.636,-0.41959c-0.76451,-0.08789 -5.59109,-1.56953 -9.00217,-2.75599c-0.41946,-0.14581 -1.39814,-0.44686 -2.17414,-0.66557c-0.7755,-0.21872 -1.72988,-0.5994 -2.11987,-0.84309c-5.82046,-3.63879 -7.68423,-5.93288 -6.63608,-8.14252c0.35654,-0.75053 5.66068,-3.48285 7.9642,-4.09905c2.11027,-0.56477 12.45824,-0.5301 16.13448,0.06064" data-paper-data="{&quot;noHover&quot;:false,&quot;origItem&quot;:[&quot;Path&quot;,{&quot;applyMatrix&quot;:true,&quot;segments&quot;:[[[455.314,142.33602],[0,0],[-7.362,-1.183]],[[423.056,142.19102],[4.226,-1.131],[-4.613,1.234]],[[407.113,150.38402],[0.714,-1.503],[-2.099,4.425]],[[420.402,166.66902],[-11.656,-7.287],[0.781,0.488]],[[424.646,168.35302],[-1.553,-0.438],[1.554,0.438]],[[428.998,169.68102],[-0.84,-0.292],[6.831,2.376]],[[446.995,175.17302],[-1.531,-0.176],[1.027,0.118]],[[452.258,176.01102],[-1.868,-0.343],[9.248,1.695]],[[475.628,175.75702],[-2.564,1.824],[1.963,-1.397]],[[482.296,172.52902],[-4.08,1.528],[1.968,-0.738]],[[488.081,170.33002],[-1.213,0.472],[2.038,-0.792]],[[495.178,167.92302],[-1.967,0.566],[5.951,-1.714]],[[487.012,148.50902],[6.653,-0.044],[-1.688,0.011]],[[485.856,151.95002],[-0.645,-3.092],[0.857,4.103]],[[485.502,164.35402],[1.013,-1.362],[-1.546,2.078]],[[477.745,164.42402],[1.724,2.049],[-1.618,-1.922]],[[476.621,148.76002],[-1.333,2.046],[0.802,-1.231]],[[476.452,146.64402],[0.917,0.209],[-8.864,-2.02]],[[455.314,142.33602],[4.958,0.797],[0,0]]],&quot;fillColor&quot;:[0,0,0,1]}]}" fill="#ff6cbf" fill-rule="nonzero" stroke-width="0.5"/><path d="M393.62339,95.97466l0.34256,-0.67163h3.29473h3.29523l0.27764,0.58474c0.1523,0.32208 0.22071,0.67712 0.1513,0.78948c-0.0764,0.12334 -0.05493,0.16029 0.05443,0.09238c0.11086,-0.06841 0.22471,0.1508 0.29512,0.56727l0.11485,0.67912l4.43626,0.002c2.43984,0.001 4.72338,0.04944 5.07493,0.10736c0.68062,0.11235 7.19868,5.59076 7.9542,5.96827c0.386,0.19275 0.70409,0.56577 1.01269,1.18846c0.24718,0.49935 0.53331,0.99122 0.63568,1.09358c0.31509,0.31509 0.25217,7.48281 -0.06791,7.74847c-0.13982,0.11585 -0.25467,0.40847 -0.25467,0.64966c0,0.4609 -1.07511,1.72427 -1.4676,1.72427c-0.27814,0 -1.07561,0.80096 -1.07561,1.0801c0,0.11935 -0.19475,0.40048 -0.43294,0.62419c-0.43094,0.40448 -0.43244,0.41796 -0.33956,2.53022c0.05143,1.16799 0.11285,2.56268 0.13632,3.09899c0.02347,0.53631 0.08988,0.97474 0.14731,0.97474c0.05743,0 0.1513,0.51533 0.20873,1.14452c0.05793,0.62968 0.19525,1.52602 0.3061,1.99242c0.12783,0.5398 0.20573,2.57167 0.21472,5.59526c0.00749,2.61162 0.05593,4.7858 0.10786,4.83274c0.09887,0.08888 0.67363,3.7082 0.6936,4.36485c0.00599,0.20923 0.0794,0.33856 0.16279,0.28663c0.14331,-0.08839 0.24518,1.07561 0.16928,1.9345c-0.01997,0.22321 0.03745,0.35204 0.13083,0.29412c0.10187,-0.06292 0.20024,0.47538 0.25317,1.38321c0.12933,2.22212 0.17977,2.66405 0.31459,2.76542c0.06791,0.05093 0.13832,0.67662 0.1568,1.3907c0.01848,0.71408 0.09687,1.25937 0.17378,1.21193c0.0769,-0.04744 0.13982,0.28413 0.13982,0.73705c0,0.45341 0.08289,0.90683 0.18376,1.0077c0.11885,0.11885 0.16329,0.96076 0.12684,2.3919c-0.03096,1.21443 0.001,2.17269 0.07091,2.12924c0.16479,-0.10187 0.16229,28.1141 -0.0025,28.35529c-0.06841,0.10037 -0.39149,0.32857 -0.71807,0.50734c-0.32608,0.17877 -1.17448,0.85989 -1.88506,1.51354c-1.86758,1.71728 -2.37193,2.05784 -2.73895,1.84661c-0.11435,-0.06591 -0.1523,-0.05793 -0.08389,0.01798c0.18726,0.20673 -0.40048,0.58374 -0.91981,0.58974c-0.25117,0.003 -0.50335,0.08139 -0.56127,0.17477c-0.05743,0.09338 -0.37452,0.16978 -0.70409,0.16978c-0.33007,0 -0.80246,0.10636 -1.05014,0.23669c-0.74004,0.39 -1.84511,0.66464 -2.17019,0.5403c-0.16728,-0.06442 -0.24219,-0.05543 -0.16628,0.01947c0.0759,0.0749 -0.3845,0.25767 -1.02268,0.40697l-1.16,0.27065l0.02647,1.83013c0.01498,1.03716 0.11385,1.99392 0.2282,2.20714c0.13133,0.24518 0.16479,0.75452 0.09687,1.45961c-0.1513,1.55998 -0.14282,2.10577 0.05593,3.62631c0.50435,3.862 0.54879,5.07343 0.33906,9.1911c-0.11535,2.25758 -0.25867,4.07423 -0.31909,4.03677c-0.06042,-0.03695 -0.0764,0.80546 -0.03545,1.87208c0.05293,1.38171 0.01448,2.0119 -0.13433,2.19066c-0.20324,0.24518 -0.56826,12.25364 -0.50634,16.66393c0.01698,1.20943 -0.03446,1.73775 -0.17028,1.73775c-0.10686,0 -0.14831,0.0749 -0.09188,0.16628c0.1583,0.25617 -0.19974,0.80146 -1.11356,1.6963c-0.45891,0.44942 -0.83442,0.92281 -0.83442,1.05214c0,0.28114 -0.56577,1.42166 -0.89834,1.81116c-0.12983,0.1518 -0.40248,0.62869 -0.60572,1.05913c-0.20324,0.43094 -0.52033,0.91931 -0.70459,1.08609c-0.18426,0.16678 -0.33457,0.49636 -0.33457,0.73205c0,0.43993 -0.58974,1.21393 -0.9248,1.21393c-0.19575,0 -0.771,0.59673 -0.771,0.80046c0,0.21223 -1.24988,1.40418 -1.47259,1.40418c-0.11935,0 -0.57975,0.34705 -1.02268,0.7715c-0.94777,0.90832 -2.53522,1.71628 -3.60883,1.83712c-0.41946,0.04694 -1.56398,0.23819 -2.54321,0.42445c-2.5512,0.48587 -5.88288,0.34256 -7.09232,-0.30461c-0.19025,-0.10187 -0.58924,-0.18526 -0.88585,-0.18526c-0.63668,0 -1.8566,-1.09558 -1.8566,-1.66734c0,-0.19275 -0.34655,-0.71657 -0.77,-1.16449c-0.61221,-0.64716 -0.85489,-1.09109 -1.18596,-2.17019c-0.2292,-0.74603 -0.60172,-1.72077 -0.82843,-2.1657c-0.22671,-0.44492 -0.4614,-1.03566 -0.52232,-1.3123c-0.06092,-0.27664 -0.18077,-0.54629 -0.26715,-0.59972c-0.08589,-0.05293 -0.1563,-0.31659 -0.1563,-0.58524c0,-0.26865 -0.0764,-0.53581 -0.16978,-0.59323c-0.09288,-0.05793 -0.16928,-0.25317 -0.16928,-0.43394c0,-0.18127 -0.0764,-0.32907 -0.16978,-0.32907c-0.09338,0 -0.16928,0.26416 -0.16928,0.58724c0,0.32308 -0.19075,0.9293 -0.42395,1.34676c-0.25417,0.45541 -0.42395,1.02967 -0.42395,1.43514c0,0.45341 -0.20374,1.05513 -0.6202,1.83213c-0.35554,0.66364 -0.67712,1.55499 -0.75402,2.08979c-0.0739,0.51284 -0.18626,1.18646 -0.24918,1.49656c-0.14581,0.71707 -1.6214,2.23361 -2.17369,2.23361c-0.21372,0 -0.61071,0.19075 -0.88186,0.42345c-0.27115,0.2332 -0.65266,0.42395 -0.8484,0.42395c-0.19525,0 -0.5388,0.15979 -0.76301,0.35404c-0.45341,0.39399 -1.70429,1.0027 -2.05983,1.0027c-0.12634,0 -0.30211,0.06841 -0.39049,0.1523c-0.08888,0.08389 -0.4664,0.19375 -0.83941,0.24468c-0.37302,0.05093 -0.93729,0.14531 -1.25338,0.20973c-0.40947,0.08339 -0.5408,0.06192 -0.45641,-0.0754c0.0804,-0.12983 -0.0804,-0.19225 -0.49436,-0.19225c-0.41446,0 -0.57526,0.06242 -0.49486,0.19225c0.08289,0.13433 -0.02996,0.16279 -0.37152,0.09488c-1.57995,-0.31409 -2.28504,-0.52882 -2.55769,-0.77899c-0.16828,-0.1548 -0.89734,-0.57575 -1.6199,-0.93629c-0.72207,-0.36003 -1.39919,-0.75802 -1.50405,-0.88485c-0.10536,-0.12684 -0.3825,-0.2302 -0.6157,-0.2302c-0.52832,0 -3.26028,-2.77591 -3.26278,-3.31521c-0.001,-0.19125 -0.3885,-0.78149 -0.86089,-1.3113c-0.47239,-0.53031 -0.81145,-1.04165 -0.75303,-1.13603c0.05842,-0.09488 0.03845,-0.17228 -0.04494,-0.17228c-0.19724,0 -1.22541,-1.58844 -1.22541,-1.89355c0,-0.12933 -0.2287,-0.67612 -0.50834,-1.21543c-0.28014,-0.5393 -0.50884,-1.23141 -0.50884,-1.53751c0,-0.34505 -0.13133,-0.67612 -0.34505,-0.86937c-0.19625,-0.17777 -0.30211,-0.42445 -0.24568,-0.57226c0.05493,-0.14282 0.04744,-0.20723 -0.01648,-0.14331c-0.1573,0.1573 -1.08859,-1.03216 -1.08859,-1.3902c0,-0.1558 -0.1553,-0.60572 -0.34555,-0.99921c-0.19025,-0.39399 -0.29262,-0.80146 -0.2282,-0.90583c0.06741,-0.10936 0.04195,-0.14381 -0.05992,-0.0809c-0.22071,0.13682 -0.94677,-1.35774 -0.78598,-1.61791c0.06342,-0.10287 0.03895,-0.13982 -0.05443,-0.08189c-0.17827,0.10986 -0.45941,-0.35105 -0.65315,-1.07011c-0.21372,-0.79347 -1.32528,-2.96566 -1.7787,-3.476c-0.25317,-0.28463 -0.6197,-1.06912 -0.83242,-1.78069c-0.20873,-0.69909 -0.72007,-1.98143 -1.13603,-2.84881c-0.43643,-0.90932 -0.79996,-1.94348 -0.85889,-2.44334c-0.05693,-0.47888 -0.35654,-1.35425 -0.67063,-1.95597c-0.3121,-0.59872 -0.52432,-1.159 -0.47139,-1.24439c0.05243,-0.08489 0.01099,-0.1548 -0.09238,-0.1548c-0.52083,0 -0.84391,-1.74924 -1.04315,-5.6422c-0.01298,-0.25867 -0.06292,-0.43144 -0.11086,-0.3835c-0.0769,0.0769 -0.68511,-0.9248 -0.97424,-1.60442c-0.37352,-0.87836 -0.5438,-1.17448 -1.03216,-1.79268c-0.29961,-0.38001 -0.59872,-0.99022 -0.66514,-1.35674c-0.06591,-0.36603 -0.20523,-0.773 -0.3101,-0.90333c-0.11485,-0.14381 -0.22321,-1.37522 -0.27415,-3.11846l-0.08489,-2.88077l-1.35674,-0.42295c-0.74603,-0.2327 -1.64187,-0.45891 -1.99142,-0.50285c-0.387,-0.04844 -0.59173,-0.14881 -0.52432,-0.25817c0.0754,-0.12184 -0.20823,-0.14581 -0.89085,-0.0749c-0.55129,0.05693 -1.44363,0.04344 -1.98393,-0.03046c-0.89734,-0.12234 -1.44213,-0.001 -0.9263,0.20723c0.11685,0.04694 -1.29183,0.09188 -3.13045,0.09937c-3.0126,0.01198 -3.33318,-0.01398 -3.23831,-0.26116c0.08539,-0.22271 0.04494,-0.24319 -0.21772,-0.10936c-0.35354,0.18077 -2.65356,-0.04494 -3.15991,-0.3101c-0.16229,-0.08489 -0.50535,-0.1538 -0.76301,-0.1538c-0.77799,0.0005 -3.26028,-0.38201 -3.19237,-0.49136c0.03495,-0.05643 -2.07781,-0.0799 -4.69442,-0.05243c-3.14892,0.03346 -4.81776,-0.00949 -4.93511,-0.12684c-0.10636,-0.10636 -1.13203,-0.17827 -2.55969,-0.17977c-1.3103,-0.0015 -2.29453,-0.05892 -2.18717,-0.12734c0.10736,-0.06841 -0.49885,-0.14431 -1.34726,-0.16878c-0.8489,-0.02447 -1.58545,-0.10936 -1.63688,-0.18876c-0.14481,-0.22321 -1.76521,-0.42645 -1.62739,-0.20424c0.06891,0.11186 -0.05143,0.18276 -0.3111,0.18276c-0.2332,0 -0.47139,-0.0764 -0.52882,-0.16978c-0.17477,-0.28213 -4.80728,-0.21872 -5.0959,0.06991c-0.13133,0.13133 -0.30161,0.26516 -0.37801,0.29662c-0.0764,0.03196 -0.47189,0.70609 -0.87886,1.49906l-0.73954,1.44113l-0.09937,2.58615c-0.05493,1.42216 -0.03845,2.60613 0.03645,2.63109c0.0749,0.02447 0.21522,0.84491 0.3126,1.82214c0.09687,0.97773 0.25417,1.94199 0.35005,2.14323c0.09588,0.20074 0.12234,0.44892 0.05942,0.55079c-0.06342,0.10237 -0.04195,0.18576 0.04744,0.18576c0.22271,0 0.46889,2.07981 0.71757,6.06065c0.01298,0.20923 0.08389,0.34356 0.1573,0.29811c0.12634,-0.0779 0.21672,0.28413 0.43444,1.73775c0.05243,0.34955 0.16329,0.78848 0.24618,0.97474c0.11785,0.26416 0.27964,5.43796 0.34405,10.98528c0.003,0.25966 0.0789,0.42695 0.16878,0.37152c0.10287,-0.06342 0.16329,1.35075 0.16329,3.81906c0,2.15571 -0.06542,3.87948 -0.14481,3.83004c-0.0799,-0.04894 -0.14781,0.11835 -0.1513,0.37152c-0.05293,3.90145 -0.27415,5.70811 -0.83292,6.7997c-0.3116,0.60821 -0.56677,1.2369 -0.56677,1.39669c0,0.15979 -0.05842,0.31609 -0.13033,0.34705c-0.07141,0.03146 -0.37302,0.43843 -0.67063,0.90433c-0.75402,1.18297 -1.70829,2.11976 -2.1592,2.11976c-0.20823,0 -0.59972,0.19075 -0.87087,0.42345c-0.27115,0.2332 -0.57476,0.42395 -0.67513,0.42395c-0.10037,0 -0.36153,0.19125 -0.58075,0.42445c-0.21872,0.2327 -0.4644,0.42345 -0.54529,0.42345c-0.0809,0 -0.23919,0.0754 -0.35204,0.16728c-0.94378,0.7695 -1.32878,1.03616 -1.98893,1.37772c-0.41746,0.21572 -0.98323,0.59972 -1.25737,0.8534c-0.60721,0.56127 -2.24509,1.38571 -2.4733,1.24489c-0.09088,-0.05643 -0.16529,-0.02147 -0.16529,0.0774c0,0.09887 -0.11186,0.17927 -0.24918,0.17927c-0.13682,0 -0.51583,0.14981 -0.84191,0.33307c-0.65615,0.36852 -2.37243,0.85389 -3.01909,0.85389c-0.5398,0 -1.48508,0.47389 -1.48508,0.74404c0,0.11535 -0.2342,0.43394 -0.52083,0.70808c-0.28613,0.27365 -0.63268,0.72706 -0.7705,1.0067c-0.24668,0.50085 -1.84112,1.86509 -2.18068,1.86509c-0.09538,0 -0.17378,0.08539 -0.17378,0.19025c0,0.33806 -1.73076,1.75822 -2.27605,1.86708c-0.29062,0.05842 -0.56976,0.17228 -0.6197,0.25367c-0.13133,0.21223 -13.92847,0.19075 -14.0603,-0.02197c-0.05743,-0.09338 -0.25267,-0.16978 -0.43394,-0.16978c-0.18077,0 -0.32907,-0.0804 -0.32907,-0.17927c0,-0.09887 -0.06591,-0.13882 -0.14631,-0.08888c-0.24918,0.1538 -1.43364,-0.51983 -2.05784,-1.16999c-0.58025,-0.60472 -1.18147,-0.95826 -2.03487,-1.19645c-0.76301,-0.21272 -1.69531,-1.46311 -1.69531,-2.27356c0,-0.17577 -0.20973,-0.48437 -0.4664,-0.68561c-0.25667,-0.20124 -0.35204,-0.3071 -0.21173,-0.23569c0.21972,0.11235 0.22221,0.09088 0.01798,-0.16129c-0.12983,-0.15979 -0.26965,-0.25717 -0.3111,-0.21622c-0.1563,0.1563 -0.72456,-0.49636 -0.72456,-0.83192c0,-0.19325 -0.34755,-0.69011 -0.775,-1.10707c-0.42645,-0.41546 -0.9303,-1.09908 -1.11955,-1.51853c-0.18975,-0.41996 -0.57426,-1.0047 -0.85489,-1.29982c-0.31309,-0.32907 -0.4599,-0.6172 -0.38001,-0.74653c0.0789,-0.12783 0.06042,-0.16728 -0.04744,-0.10087c-0.09737,0.05992 -0.30411,-0.15879 -0.4599,-0.48687c-0.1553,-0.32758 -0.56427,-0.775 -0.90882,-0.99371c-0.86538,-0.54979 -2.06732,-2.31051 -2.06732,-3.02758c0,-0.30261 -0.72906,-1.75323 -1.06462,-2.11876c-0.19225,-0.20973 -0.29961,-0.43094 -0.23869,-0.49186c0.06142,-0.06142 -0.00599,-0.19724 -0.14981,-0.30211c-0.34555,-0.25267 -0.56776,-1.19695 -0.73055,-3.10848c-0.10786,-1.25937 -0.20673,-1.64737 -0.50135,-1.96096c-0.20174,-0.21472 -0.36702,-0.50984 -0.36702,-0.65615c0,-0.14581 -0.26566,-0.78948 -0.59024,-1.43015c-0.32458,-0.64067 -0.59173,-1.26786 -0.59323,-1.3937c-0.002,-0.12584 -0.10536,-0.46889 -0.2297,-0.76301c-0.45391,-1.07061 -0.66015,-1.74025 -0.81694,-2.65356c-0.08839,-0.51284 -0.386,-1.38421 -0.66114,-1.93549c-0.27514,-0.55179 -0.4664,-1.03716 -0.42495,-1.0786c0.04195,-0.04195 -0.13582,-0.25417 -0.39449,-0.47189c-0.51284,-0.43144 -1.03666,-1.80217 -1.03666,-2.71249c0,-0.3101 -0.08189,-0.6142 -0.18127,-0.67612c-0.09987,-0.06142 -0.14282,-0.21223 -0.09538,-0.33507c0.04694,-0.12284 -0.02397,-0.26516 -0.1583,-0.31659c-0.13383,-0.05143 -0.24368,-0.21772 -0.24368,-0.37002c0,-0.1518 -0.10187,-0.51683 -0.22621,-0.81045c-0.42245,-0.99721 -0.65066,-1.71828 -0.94827,-2.99562c-0.16329,-0.70109 -0.3855,-1.44014 -0.49386,-1.64237c-0.10786,-0.20224 -0.19675,-0.51334 -0.19675,-0.6916c0,-0.17827 -0.1528,-0.4624 -0.34006,-0.63168c-0.4609,-0.41696 -0.79048,-1.11356 -0.93679,-1.97944c-0.06691,-0.39649 -0.34755,-1.16499 -0.62369,-1.70829c-0.44193,-0.86987 -0.51334,-1.21942 -0.59773,-2.9367c-0.05293,-1.07161 -0.16079,-1.98893 -0.24019,-2.03786c-0.0789,-0.04894 -0.14381,-0.43693 -0.14381,-0.86138c0,-0.49486 -0.15031,-1.05563 -0.41696,-1.55848c-0.45741,-0.86188 -0.93978,-2.58765 -0.93978,-3.36265c0,-0.27065 -0.06492,-0.56477 -0.14431,-0.65365c-0.41796,-0.4664 -0.73105,-2.3954 -0.6966,-4.29344c0.01947,-1.0846 -0.02297,-16.76529 -0.09488,-34.84689c-0.14731,-37.08299 -0.19025,-35.49355 1.04015,-38.21752c0.22271,-0.49186 0.40448,-1.04065 0.40448,-1.21892c0,-0.17877 0.0764,-0.37202 0.16978,-0.42944c0.09288,-0.05793 0.16928,-0.21023 0.16928,-0.33956c0,-0.12883 0.17178,-0.52432 0.38151,-0.87886c0.20973,-0.35404 0.47089,-1.10207 0.58075,-1.66285c0.34106,-1.74574 0.42845,-2.02588 0.74254,-2.37493c0.16778,-0.18676 0.35704,-0.54929 0.42046,-0.80596c0.17128,-0.68961 0.62369,-1.50355 1.14602,-2.06033c0.25367,-0.27065 0.63218,-0.84291 0.84141,-1.27185c0.37551,-0.76801 0.90133,-1.35624 1.22392,-1.36723c0.09088,-0.003 0.63268,-0.46889 1.20394,-1.03516c1.14502,-1.13503 1.43314,-1.24938 3.80258,-1.50905c2.57517,-0.28213 5.82546,0.31959 6.35527,1.17648c0.05543,0.08988 0.82543,0.52083 1.71079,0.95726c0.88535,0.43643 1.65685,0.87037 1.71528,0.96475c0.06591,0.10686 0.01648,0.11735 -0.13233,0.02746c-0.20274,-0.12234 -0.20374,-0.10087 -0.00699,0.14132c0.12684,0.1568 0.30261,0.24069 0.39049,0.18676c0.29112,-0.18027 4.03877,3.57587 4.04027,4.04976c0.0005,0.16579 0.11935,0.34755 0.26466,0.40298c0.29911,0.11485 0.84441,1.2384 0.98173,2.02488c0.05093,0.28913 0.28713,0.95177 0.52532,1.47259c0.23819,0.52083 0.43344,1.06212 0.43344,1.20244c0,0.14032 0.0764,0.30211 0.16928,0.36003c0.09737,0.05992 0.16978,0.93079 0.16978,2.03437c0,1.23191 0.06791,1.97245 0.18826,2.04635c0.11036,0.06841 0.14981,0.35404 0.09488,0.6921c-0.05143,0.31659 -0.03296,0.5383 0.04145,0.49236c0.17228,-0.10636 0.3895,2.65207 0.25667,3.26178c-0.0774,0.35504 -0.05892,0.40148 0.0809,0.20523c0.13183,-0.18626 0.18127,0.27165 0.18326,1.70429c0.0015,1.22491 0.0739,2.02987 0.19375,2.14972c0.12933,0.12883 0.16678,0.82843 0.11635,2.15321c-0.04145,1.0791 -0.02297,1.96196 0.04095,1.96196c0.06392,0 0.17028,0.76351 0.23669,1.6963c0.14182,2.00441 -0.05892,7.4913 -0.26965,7.36097c-0.20224,-0.12534 -0.18376,0.65715 0.02896,1.21643l0.17527,0.4609l2.58565,-0.10087c1.42216,-0.05593 2.79788,-0.18176 3.05754,-0.28064c0.65216,-0.24818 4.23602,-0.21672 8.67327,0.0759c2.05184,0.13532 5.7905,0.25117 8.30824,0.25717c2.51824,0.00599 5.15083,0.08389 5.84993,0.17328c0.69959,0.08888 4.4767,0.23619 8.39313,0.32758c6.78921,0.1578 11.65691,0.49835 12.33353,0.86288c0.16179,0.08739 0.65765,0.16628 1.10207,0.17527c0.66614,0.01398 0.73355,0.04145 0.3835,0.1568c-0.33806,0.11186 -0.25267,0.14082 0.42395,0.14232c0.96325,0.002 7.69953,0.769 8.98687,1.02268c1.22841,0.24219 17.15529,0.22721 18.65135,-0.01798c0.65315,-0.10636 1.70679,-0.19675 2.34147,-0.20024c0.63468,-0.00399 1.01618,-0.05593 0.8479,-0.11635c-0.16878,-0.06042 0.49436,-0.16529 1.47359,-0.2332c0.97923,-0.06841 2.3145,-0.20074 2.96766,-0.29412c0.65266,-0.09388 1.43914,-0.16279 1.74824,-0.1533c0.33656,0.01049 0.51933,-0.05093 0.45641,-0.1533c-0.05892,-0.09488 0.06741,-0.17028 0.28613,-0.17028c0.39299,0 2.32199,-0.38151 3.27426,-0.64716l0.50834,-0.14182l-0.04744,-8.97338c-0.05543,-10.51339 0.04944,-9.59108 -1.15351,-10.15985c-0.72606,-0.34356 -0.92081,-0.51284 -0.83841,-0.72756c0.05892,-0.1543 0.05393,-0.22671 -0.01198,-0.16079c-0.06542,0.06542 -0.21972,-0.01298 -0.34256,-0.17477c-0.26516,-0.34905 -0.31809,-2.68103 -0.06442,-2.83783c0.09288,-0.05743 0.16928,-0.22771 0.16928,-0.37801c0,-0.15031 0.12334,-0.40947 0.27365,-0.57575c0.25567,-0.28213 0.21672,-0.35754 -0.59323,-1.14652c-0.47688,-0.4649 -0.86738,-0.95576 -0.86738,-1.09209c0,-0.13582 -0.10287,-0.28663 -0.2282,-0.33457c-0.3086,-0.11835 -0.99771,-1.61341 -0.8524,-1.84861c0.06342,-0.10287 0.03895,-0.13982 -0.05443,-0.08189c-0.3051,0.18826 -0.89984,-1.40668 -0.89884,-2.40988c0.0005,-0.33557 0.1528,-0.86039 0.33906,-1.16549c0.18626,-0.3056 0.33856,-0.63168 0.33856,-0.72506c0,-0.09288 0.3051,-0.65266 0.67812,-1.24339c0.37302,-0.59074 0.67812,-1.19445 0.67812,-1.34226c0,-0.14781 0.0764,-0.31559 0.16978,-0.37302c0.09338,-0.05793 0.16928,-0.23969 0.16928,-0.40448c0,-0.40597 0.76651,-1.10707 1.03117,-0.94378c0.13333,0.08239 0.16479,0.05842 0.08739,-0.06691c-0.06641,-0.10786 -0.03246,-0.19575 0.0754,-0.19575c0.10786,0 0.51284,-0.33407 0.90033,-0.74204c0.44243,-0.4664 0.92231,-0.78898 1.29283,-0.86937c0.32358,-0.07041 0.87537,-0.3086 1.22591,-0.52981c0.35005,-0.22121 0.71008,-0.40248 0.79996,-0.40248c0.08988,0 0.43194,-0.1583 0.76101,-0.35254c0.32857,-0.19375 0.68811,-0.29662 0.79897,-0.2282c0.11785,0.0734 0.1563,0.05243 0.09338,-0.04994c-0.06342,-0.10187 0.22521,-0.25966 0.6941,-0.37951c0.44143,-0.11285 0.97973,-0.27564 1.19695,-0.36253c0.21672,-0.08639 0.47638,-0.10636 0.57725,-0.04444c0.10886,0.06741 0.13383,0.03396 0.06192,-0.08239c-0.06641,-0.10786 -0.03246,-0.19575 0.0754,-0.19575c0.10786,0 0.52582,-0.34905 0.9288,-0.7755c0.79547,-0.84241 1.80217,-1.25987 3.03357,-1.25837c1.89605,0.002 2.61961,-0.75003 1.95896,-2.03736c-0.07241,-0.14082 -0.09488,-0.48437 -0.04944,-0.76301c0.06342,-0.39099 0.04095,-0.44892 -0.09787,-0.25267c-0.13532,0.19075 -0.18077,-0.01298 -0.18276,-0.81544c-0.002,-0.76601 0.05293,-1.03516 0.19325,-0.94877c0.12434,0.0774 0.14931,0.04644 0.06841,-0.08489c-0.18925,-0.3066 0.56627,-2.25059 0.81494,-2.09728c0.08988,0.05543 0.10337,0.00749 0.03146,-0.10936c-0.12933,-0.20873 0.50185,-1.03117 0.79098,-1.03117c0.0809,0 0.3076,-0.14931 0.50385,-0.33207c0.4654,-0.43394 1.89255,-0.63118 3.97336,-0.54979c0.71707,0.02846 1.01169,0.14581 1.69531,0.67563c0.45541,0.35304 1.28534,0.86738 1.84511,1.14352c0.91032,0.44942 2.50975,1.66784 2.37143,1.80666c-0.02996,0.02946 0.23719,0.05393 0.59373,0.05393c0.35654,0 0.6152,-0.05293 0.57476,-0.11785c-0.03995,-0.06492 0.17727,-0.19375 0.48287,-0.28663c1.07711,-0.32658 2.0893,-0.71158 2.78739,-1.06113c0.39399,-0.19675 0.79897,-0.29562 0.91631,-0.22271c0.12484,0.0774 0.16728,0.06042 0.10436,-0.04195c-0.11335,-0.18276 1.79168,-0.55878 2.83133,-0.55878c0.32658,0 0.64516,-0.08339 0.70808,-0.18576c0.06342,-0.10237 0.33457,-0.1538 0.60222,-0.11435c0.26815,0.03945 0.44742,0.03096 0.39798,-0.01798c-0.11785,-0.11785 2.23061,-0.73055 2.91622,-0.76052c0.29412,-0.01298 0.49935,-0.0809 0.45591,-0.1508c-0.04294,-0.06991 0.22671,-0.12684 0.59972,-0.12684c0.37302,0 0.71757,-0.06392 0.76551,-0.14132c0.10187,-0.16479 2.06283,-0.44792 4.93461,-0.71208c1.11955,-0.10287 2.53072,-0.26366 3.13694,-0.35704c0.60622,-0.09288 1.23041,-0.18077 1.3867,-0.19425c0.1563,-0.01348 0.25567,-0.07091 0.22071,-0.12684c-0.03446,-0.05643 0.08539,-0.20973 0.26715,-0.34056c0.19225,-0.13882 0.33007,-0.43643 0.33007,-0.71557c0,-0.26316 0.1538,-0.78049 0.34256,-1.14951M399.62512,104.22299c-0.40448,-0.1553 -0.50235,-0.13033 -0.80745,0.20723c-0.65915,0.72806 -0.05343,1.36973 0.66064,0.69909c0.47888,-0.44992 0.52931,-0.75952 0.14681,-0.90633M389.19712,105.39496c-0.6142,-0.60122 -4.52065,-0.17128 -9.02232,0.99271c-1.65935,0.42944 -3.52893,0.86188 -4.15412,0.96126c-1.71828,0.27315 -1.96795,0.49486 -1.83462,1.62689c0.12734,1.0826 -0.33956,1.76222 -1.20244,1.75123c-0.87437,-0.01099 -3.05554,-0.4644 -3.46252,-0.72007c-0.22171,-0.13932 -0.81145,-0.385 -1.3108,-0.54629c-0.49935,-0.16079 -1.3872,-0.6212 -1.97295,-1.02218c-0.58574,-0.40098 -1.32179,-0.86089 -1.63538,-1.02268c-0.31359,-0.16129 -0.87037,-0.54929 -1.2369,-0.86188c-0.90433,-0.772 -1.79218,-0.71258 -1.79218,0.11935c0,0.51983 2.17169,3.25978 2.98514,3.76612c0.42345,0.26366 0.89834,0.72057 1.05463,1.01569c0.1563,0.29462 0.68012,0.96076 1.16399,1.48008c1.81865,1.95047 1.62789,4.08471 -0.3885,4.35536c-1.63638,0.21922 -2.37842,-0.48487 -3.35615,-3.18737c-0.51483,-1.42216 -1.28933,-2.13274 -2.07382,-1.90204c-4.06424,1.19296 -4.81177,2.10677 -2.33398,2.85281c0.41996,0.12634 1.2359,0.52981 1.81365,0.89684c0.57775,0.36702 1.40218,0.86588 1.83213,1.10906c0.6217,0.35154 0.85889,0.62269 1.1615,1.32578c1.16899,2.71748 -1.0017,3.57487 -4.23252,1.67283c-0.79247,-0.4669 -1.70829,-0.93179 -2.03437,-1.03366c-0.99271,-0.3086 -3.07802,-1.11955 -4.15462,-1.61441c-1.2364,-0.56926 -4.0932,-0.64267 -5.7905,-0.14931c-3.27526,0.95227 -4.4028,5.34109 -1.37172,5.34109c1.6184,0 4.88867,1.7727 5.44944,2.95467c0.385,0.81145 0.34455,1.10956 -0.27914,2.04036c-0.30311,0.45241 -0.69111,1.03866 -0.86238,1.30231c-0.37402,0.57825 -0.40947,1.81165 -0.06991,2.4738c0.13233,0.25867 0.66015,1.19445 1.17298,2.08081c1.25238,2.1627 1.34026,2.46381 1.43964,4.91713c0.12634,3.10997 0.41896,3.77761 1.94398,4.43376c2.87028,1.2349 4.20256,5.409 2.72397,8.53745c-0.67463,1.42865 -4.07772,4.91214 -5.68264,5.81797c-1.22591,0.6921 -1.2349,0.73405 -1.0077,4.69492c0.16329,2.84532 0.28363,3.66725 1.03216,7.03639c0.4664,2.09828 0.90033,4.36535 0.96425,5.03748c0.1533,1.60842 0.2347,1.66584 2.28105,1.60193c2.91523,-0.09138 5.13685,0.56677 8.89648,2.63659c1.12604,0.6197 2.58066,1.3907 3.23381,1.71328c0.65266,0.32258 1.60642,0.87087 2.11926,1.21842c0.51284,0.34705 1.27585,0.80496 1.6958,1.01718c0.42745,0.21622 1.37572,1.03466 2.15621,1.86009c1.02917,1.08909 1.57995,1.53551 2.10877,1.71029c0.39399,0.12983 1.20045,0.63318 1.79218,1.11855c1.50755,1.2354 1.60193,1.24739 9.76236,1.24189c12.77696,-0.00799 17.93178,-0.44742 22.89935,-1.95247c0.48038,-0.14531 1.71678,-0.36453 2.74794,-0.48737c2.14722,-0.25517 3.15991,-0.73505 3.54142,-1.67733c0.25167,-0.6217 0.6926,-6.10909 0.51383,-6.39822c-0.06492,-0.10536 -0.17827,-3.86649 -0.25117,-8.35818c-0.16029,-9.8887 -0.66414,-14.8293 -1.52852,-14.99459c-0.14232,-0.02697 -0.94578,0.46839 -1.78569,1.10058c-5.80798,4.37184 -11.59199,4.1736 -16.31987,-0.55928c-4.2455,-4.25 -5.36156,-16.81523 -2.16919,-24.42238c0.23919,-0.57026 0.51383,-1.59344 0.61021,-2.27456c0.67912,-4.7888 7.73898,-6.57998 10.80801,-2.74245c0.35005,0.43843 1.06362,1.21643 1.58495,1.72926c0.52133,0.51334 1.38171,1.548 1.91202,2.30002c0.53031,0.75203 1.33927,1.73675 1.79767,2.18817l0.83342,0.82094l0.11885,-0.47489c0.06791,-0.27065 -0.0754,-1.90603 -0.33357,-3.79908c-0.24918,-1.82813 -0.51733,-4.37534 -0.59623,-5.66017c-0.19425,-3.17239 -0.49985,-3.46252 -2.81536,-2.66605c-1.8536,0.63817 -2.57966,0.31559 -3.12495,-1.3877c-0.58474,-1.82564 0.52432,-3.02309 3.09,-3.33668c2.03936,-0.24918 3.52194,-1.50006 4.82276,-4.06973c0.55528,-1.09658 0.22171,-4.08871 -0.55079,-4.9426c-0.87287,-0.96425 -5.35407,-1.18646 -6.57848,-0.32608c-2.5497,1.79118 -5.28666,4.4028 -6.564,6.26339c-0.71058,1.03416 -1.29682,1.27834 -2.44933,1.01818c-1.35824,-0.3061 -1.7008,-1.15451 -2.10777,-5.21974c-0.1543,-1.545 -0.2347,-1.72227 -0.66114,-1.45661c-0.27814,0.17378 -0.42395,0.74404 -0.63867,2.49926c-0.1518,1.24189 -0.65615,1.63438 -2.09079,1.62739c-1.80766,-0.00899 -2.0868,-0.41696 -2.03337,-2.97565c0.02846,-1.35275 -0.02047,-1.83962 -0.20274,-2.01789M236.45987,117.5667c-1.02417,-0.53081 -1.56248,-0.62369 -2.53971,-0.43793c-0.42944,0.08139 -2.37193,2.02738 -3.26328,3.26927c-0.30161,0.41946 -0.79996,1.05963 -1.10807,1.42266c-0.3081,0.36253 -0.68811,1.04465 -0.84441,1.51554c-0.1568,0.47089 -0.54929,1.43314 -0.87237,2.13823c-0.81894,1.78519 -1.03316,2.42985 -1.2364,3.72018c-0.09687,0.6172 -0.36403,1.66984 -0.59323,2.33897l-0.41696,1.21593l0.00699,23.45463c0.00599,19.98263 0.04494,23.71829 0.26316,25.23533c0.16329,1.13603 0.3061,4.11168 0.39449,8.22335c0.14381,6.67336 0.17527,6.93652 0.93229,7.83685c0.49985,0.59373 0.94677,1.56797 0.94677,2.06283c0,0.3081 0.92231,3.54641 1.67134,5.8694c0.82543,2.56068 0.99571,4.29744 0.56826,5.80748l-0.34156,1.20644l0.48337,1.80167c0.26566,0.99072 0.69111,2.1597 0.94528,2.59714c0.90633,1.56148 1.26287,2.41238 1.67433,3.99533c0.2292,0.88286 0.72057,2.36793 1.09209,3.30073c0.37152,0.93229 0.79247,2.19915 0.93529,2.81486c0.14282,0.6162 0.40298,1.40468 0.57775,1.75223c0.20923,0.41596 0.35904,1.21193 0.43843,2.32799c0.09588,1.35025 0.24219,2.0059 0.71807,3.22133c0.32857,0.83941 0.80995,2.11326 1.06912,2.83133c0.25916,0.71757 0.78399,1.78569 1.16549,2.37393c1.56547,2.41038 1.70579,2.51075 2.96117,2.12425c0.48287,-0.14881 1.37422,-0.36003 1.98044,-0.46939c0.60622,-0.10886 1.92551,-0.58075 2.9322,-1.04814l1.83013,-0.8504l2.40888,-0.14032l2.40888,-0.13982l4.66296,-1.5485c2.56468,-0.8514 5.40051,-1.69031 6.30234,-1.86359c4.45923,-0.85789 5.14084,-2.13274 3.7836,-7.07734c-0.14731,-0.53581 -0.34056,-2.11177 -0.42944,-3.50247c-0.1543,-2.41288 -0.19175,-2.59414 -0.82194,-3.98484c-0.36353,-0.80096 -0.75303,-1.76172 -0.86638,-2.13474c-0.11285,-0.37302 -0.41546,-0.94677 -0.67213,-1.27485c-0.50884,-0.65016 -1.19196,-1.91003 -1.19196,-2.19765c0,-0.17777 -0.89185,-2.56418 -1.53152,-4.09819c-0.18077,-0.43344 -0.52782,-1.57696 -0.7715,-2.54021c-0.24319,-0.96325 -0.74953,-2.47779 -1.12404,-3.36564c-0.37501,-0.88785 -0.85389,-2.22462 -1.06412,-2.97065c-0.21023,-0.74603 -0.54479,-1.87957 -0.74304,-2.51874c-0.80196,-2.58066 -0.37252,-3.53143 1.63938,-3.6318c2.5492,-0.12634 3.27426,1.11156 3.60483,6.15054c0.22021,3.35815 0.39449,4.35436 1.19046,6.80219c0.36702,1.12954 0.75003,2.50326 0.8509,3.05205c0.10087,0.54879 0.44992,1.68432 0.7755,2.52373c0.48287,1.24489 0.6167,1.86958 0.72606,3.39111c0.10486,1.45961 0.24868,2.1602 0.65865,3.22183c0.28863,0.74603 0.64467,1.87857 0.79197,2.51624c0.35904,1.55648 0.96475,3.12945 1.76671,4.58706c0.39149,0.71108 0.74154,1.64138 0.85489,2.26906c0.18826,1.04714 1.09259,3.65127 1.65236,4.75634c0.54529,1.0781 0.73954,1.11256 6.60894,1.18596l5.28865,0.06542l0.45891,-0.45841l0.45841,-0.45891l-0.10986,-1.89005c-0.06042,-1.03965 -0.22571,-2.61561 -0.36752,-3.50147c-0.14182,-0.88585 -0.36503,-2.64058 -0.49636,-3.89995c-0.21572,-2.06233 -1.09458,-6.89957 -1.69431,-9.32543c-0.12684,-0.51334 -0.28114,-1.6958 -0.34256,-2.6286c-0.06142,-0.93229 -0.38151,-3.29773 -0.71108,-5.2562c-0.81245,-4.82226 -0.76851,-7.66707 0.15929,-10.35909c0.74803,-2.17069 0.86438,-2.37992 1.50955,-2.71349c0.29162,-0.1508 0.88785,-0.60821 1.32478,-1.01718c0.43693,-0.40847 1.09259,-0.8529 1.45711,-0.98722c2.48279,-0.91531 3.37463,-1.42865 4.0932,-2.35545c0.81844,-1.05563 1.93549,-1.83413 3.30972,-2.30701c0.52133,-0.17927 1.37122,-0.59673 1.88806,-0.9273c0.51733,-0.33107 1.31979,-0.79347 1.78319,-1.02867c0.4639,-0.2347 1.05613,-0.70609 1.3163,-1.04764c0.3081,-0.40348 0.8494,-0.78898 1.54899,-1.10307c0.76351,-0.34256 1.50206,-0.89085 2.5467,-1.89105c0.80945,-0.775 2.15022,-1.86259 2.97964,-2.41787l1.50805,-1.00919l1.73575,-0.05743c1.3892,-0.04544 1.84961,0.001 2.30701,0.2347c1.02417,0.52332 3.25928,2.1647 4.4013,3.23232c0.6147,0.57476 1.70379,1.36723 2.42137,1.76072c1.30681,0.71707 1.80267,1.27635 1.80267,2.03237c0,0.19375 0.2327,1.05613 0.51733,1.91602c0.33606,1.01618 0.57126,2.17169 0.67163,3.30023c0.26665,3.00511 -0.13233,2.83932 6.86511,2.84931c4.7134,0.00649 5.78251,0.05393 6.78222,0.30111c0.65315,0.16129 1.90703,0.36303 2.78689,0.44842c2.29852,0.22371 3.29174,1.0806 3.57587,3.08551c0.08539,0.60272 0.26466,1.35624 0.39898,1.67483c0.18376,0.43843 0.22071,1.03666 0.1513,2.45183c-0.08988,1.82214 -0.0784,1.90354 0.43993,3.08351c0.29212,0.66664 0.53231,1.50455 0.53331,1.86209c0.001,0.35704 0.19774,1.06912 0.43743,1.58245c0.6197,1.32528 1.69281,4.29844 2.01939,5.59526c0.1528,0.60622 0.57426,1.59793 0.93629,2.20415c0.83941,1.40368 1.25438,2.35096 1.75872,4.01181c0.22171,0.73105 0.71158,2.02338 1.08809,2.87128c0.37701,0.8479 0.73705,1.81865 0.80046,2.15671c0.06342,0.33856 0.35554,0.97224 0.64866,1.40818c1.14652,1.70479 1.26686,1.98143 1.38621,3.18787c0.1528,1.5445 1.25088,4.35087 2.33498,5.96628c1.18247,1.76222 1.71178,1.92301 3.50946,1.06912c0.60622,-0.28813 1.57496,-0.70259 2.15221,-0.92131c0.57775,-0.21872 1.53152,-0.75003 2.11976,-1.18047c1.88606,-1.38121 4.07922,-2.65906 5.66566,-3.30173c3.77511,-1.52852 4.15163,-2.19765 2.46031,-4.37583c-0.55728,-0.71857 -0.92081,-1.40518 -1.12105,-2.11976c-0.16279,-0.58125 -0.6202,-1.70579 -1.01668,-2.49827c-0.39649,-0.79247 -0.8514,-1.89455 -1.01119,-2.44833c-0.31759,-1.10157 -0.80496,-2.11276 -2.60363,-5.4055c-1.20544,-2.20614 -1.57496,-3.33019 -2.05434,-6.24891c-0.10237,-0.62219 -0.41996,-1.69031 -0.70559,-2.37393c-2.15621,-5.15682 -2.26407,-6.13406 -0.96026,-8.71622c1.7727,-3.51145 3.86749,-4.49168 7.06136,-3.30422c0.84491,0.31409 1.98343,0.58624 2.79988,0.66913c1.82713,0.18526 2.09079,0.34705 4.1696,2.55919c3.12296,3.3242 3.64428,4.92013 4.06923,12.46686c0.33606,5.96128 0.62919,8.26879 1.69031,13.31077c0.26516,1.25887 0.53481,2.70849 0.60022,3.22133c0.16828,1.32928 0.73155,4.07423 0.94378,4.59855c0.3051,0.75402 0.81694,0.85489 5.15882,1.01469c2.2386,0.08239 5.62622,0.26466 7.52875,0.40498c5.75405,0.42495 5.2522,0.68561 5.87489,-3.05005c0.2287,-1.37023 0.44642,-2.54171 0.48387,-2.60263c0.12634,-0.20473 0.43344,-3.30422 0.6162,-6.21545c0.09937,-1.58495 0.32957,-4.9426 0.51084,-7.46034c0.52083,-7.23413 0.36103,-10.70914 -0.63418,-13.78166c-0.45391,-1.40069 -0.45391,-1.40618 -0.17427,-2.57317c0.24868,-1.03466 0.25317,-1.26287 0.03995,-1.98743c-0.13283,-0.44992 -0.32458,-1.35225 -0.42695,-2.0049c-0.3096,-1.97844 2.36893,-1.76222 -22.5513,-1.82214c-24.86231,-0.06042 -22.74405,0.0769 -23.91004,-1.547c-0.3091,-0.43044 -0.73755,-0.89734 -0.95177,-1.03766c-0.5373,-0.35204 -1.53601,-2.50126 -1.73425,-3.73217c-0.17128,-1.06362 -0.59123,-2.25158 -1.27485,-3.60633c-0.22271,-0.44143 -0.60122,-1.48907 -0.84141,-2.32799c-0.24019,-0.83941 -0.78099,-2.55619 -1.20144,-3.81556c-0.42096,-1.25887 -0.99871,-3.35715 -1.28484,-4.66246c-0.62469,-2.85181 -0.75153,-3.19786 -1.27485,-3.478c-1.0047,-0.5373 -3.9394,0.40747 -4.4812,1.44313c-1.25987,2.40838 -3.3951,4.74436 -4.67245,5.11238c-0.37302,0.10736 -1.24988,0.40248 -1.94898,0.65615c-1.55199,0.56277 -5.24671,0.56727 -6.52855,0.00799c-0.37302,-0.16279 -1.33977,-0.43144 -2.14772,-0.59623c-3.57138,-0.72956 -6.04068,-4.90715 -4.97606,-8.4176c0.55129,-1.81665 0.20374,-2.51424 -1.68232,-3.37913c-0.71258,-0.32658 -1.55249,-0.89085 -2.07282,-1.3932c-1.05164,-1.01419 -1.24838,-1.06212 -4.37583,-1.06212c-2.97565,0 -6.69383,-0.34056 -11.41572,-1.04565c-4.29144,-0.64067 -4.68194,-0.56627 -3.55939,0.67612c0.33007,0.36553 0.6936,0.96076 0.80696,1.32279c0.11385,0.36153 0.39898,1.15151 0.63418,1.75423c0.53231,1.36573 0.47938,2.64308 -0.19625,4.75335c-0.65066,2.03037 -0.74603,2.18667 -1.79018,2.92921c-2.34397,1.66534 -2.27456,1.65086 -10.17383,2.17019c-3.14743,0.20673 -6.1011,0.63418 -8.05407,1.16549c-0.65266,0.17777 -1.75922,0.37352 -2.45832,0.43544c-0.69959,0.06192 -1.93899,0.25867 -2.75393,0.43643c-1.93749,0.42345 -4.04626,0.41896 -5.70412,-0.01198c-0.71058,-0.18476 -1.72227,-0.41746 -2.24759,-0.51683c-0.5433,-0.10287 -1.38521,-0.44492 -1.94998,-0.79297c-0.54679,-0.33656 -1.37572,-0.82493 -1.84212,-1.08609c-0.90583,-0.50634 -2.99263,-2.68452 -3.33768,-3.48349c-0.11435,-0.26516 -0.42295,-0.80396 -0.68561,-1.19695c-1.56747,-2.34496 -2.40888,-5.34308 -2.41537,-8.60686l-0.00449,-2.36943l-0.4639,-0.16379c-0.36053,-0.12684 -1.0811,-0.01748 -3.22183,0.48737c-3.37813,0.79697 -3.72767,0.94977 -4.31991,1.88556c-0.76101,1.20294 -1.70829,1.34426 -2.40638,0.35904c-0.13133,-0.18526 -0.56227,-0.70109 -0.95776,-1.14652c-1.17148,-1.31829 -1.16449,-2.42786 0.02497,-4.15512l0.6202,-0.90083l0.22671,-4.46072c0.19475,-3.84402 0.19125,-4.88318 -0.02397,-7.51327c-0.13782,-1.67833 -0.36503,-4.61602 -0.50485,-6.52805c-0.64467,-8.79511 -1.71328,-12.5877 -3.84852,-13.66181c-0.3051,-0.1533 -0.85989,-0.56727 -1.2329,-0.91981c-0.72806,-0.68811 -2.38841,-1.75772 -4.13215,-2.66205M376.86159,122.42441c3.4795,-0.99421 6.49359,-0.0774 7.71152,2.34596c0.3865,0.769 1.01219,1.91202 1.3902,2.54021c0.76651,1.27285 1.0806,2.07881 1.96546,5.04147c1.47609,4.9436 1.7008,7.1088 1.545,14.86625c-0.10337,5.15033 -0.08639,5.76454 0.16928,6.2594c0.28114,0.5438 0.28014,0.64816 -0.02647,2.55519c-0.13083,0.81395 -0.01947,0.86838 3.10748,1.51254c2.47629,0.51034 3.21634,0.6172 6.96299,1.0047c2.65756,0.27464 4.88867,1.18147 7.49729,3.04706c0.88635,0.63368 2.16669,1.50905 2.84532,1.94598c2.17468,1.39819 2.8593,2.51075 3.53542,5.74107c0.76551,3.65527 0.47189,4.84922 -1.75922,7.15673c-1.12654,1.16549 -1.45661,1.40418 -2.30152,1.66584c-2.60363,0.80546 -3.31221,1.28584 -4.0153,2.72148c-0.52083,1.06362 -0.82793,1.21892 -3.22133,1.63588c-6.65938,1.159 -15.36511,0.62669 -22.03547,-1.34776c-1.543,-0.45641 -3.26328,-0.92281 -3.82305,-1.03616c-1.10707,-0.22371 -1.74274,-0.50435 -2.57067,-1.13353c-0.29512,-0.22421 -1.14352,-0.65965 -1.88606,-0.96825c-0.74254,-0.3086 -1.83662,-0.90183 -2.43135,-1.31929c-1.5485,-1.08609 -2.88277,-1.79118 -3.82405,-2.02138c-1.63988,-0.40098 -1.83762,-0.59823 -3.60683,-3.59435c-2.01639,-3.41558 -2.13923,-5.46093 -0.44992,-7.47432c0.3825,-0.45591 1.0012,-1.33228 1.37522,-1.94698c0.73355,-1.20694 2.51874,-2.72198 3.64428,-3.093c0.32608,-0.10736 1.34626,-0.49336 2.26657,-0.85739c2.2421,-0.88735 3.34068,-1.13104 5.98226,-1.32828c3.61132,-0.26915 3.7861,-0.86738 0.72256,-2.47729c-1.18746,-0.62419 -1.8501,-1.24189 -1.8501,-1.72477c0,-0.14182 -0.26566,-0.73305 -0.59074,-1.3138c-0.32458,-0.58075 -0.8474,-1.80916 -1.161,-2.72947c-0.31409,-0.91981 -0.94178,-2.703 -1.39519,-3.96187l-0.82443,-2.28904l-0.00649,-4.75884l-0.00649,-4.75884l1.27135,-2.59714c2.66255,-5.43746 3.66276,-6.69883 5.7935,-7.30804M381.22544,126.89464c-2.22712,-1.47359 -5.03698,-0.10986 -6.69583,3.25029l-0.58724,1.18946l0.04644,3.20335c0.05343,3.67824 0.09737,3.79059 1.25587,3.2408c1.84112,-0.87387 2.51774,-0.21272 3.98884,3.89895c1.03366,2.89026 1.10407,4.245 0.26316,5.08542c-1.41517,1.41567 -3.11497,0.3126 -4.02329,-2.61162c-0.58125,-1.87108 -0.88386,-2.40988 -1.18547,-2.11276c-0.388,0.38201 -0.3845,1.4661 0.00849,2.52174c0.20773,0.55928 0.6177,1.70379 0.91032,2.54321c1.1555,3.31221 3.38412,5.29964 6.68385,5.95978c3.0096,0.60272 2.99962,0.6217 3.14193,-5.91934c0.11086,-5.0999 0.0744,-5.94081 -0.56677,-13.17345c-0.31359,-3.53642 -1.36673,-5.83545 -3.2403,-7.07584M401.84325,127.53929c-0.37302,-0.10337 -0.71607,-0.18127 -0.76301,-0.17328c-1.91852,0.32458 -3.53043,2.86879 -4.4792,7.06835c-1.35924,6.01571 -1.26486,8.79661 0.50585,14.88723c0.36902,1.26936 1.98543,3.30822 2.91822,3.68173c2.33298,0.93329 6.91954,1.05513 9.09323,0.24169c1.98143,-0.74154 1.88256,-0.45541 1.87457,-5.42598c-0.00749,-4.74436 -0.0005,-4.70391 -1.47958,-8.52446c-0.32708,-0.84441 -0.75652,-2.12575 -0.95426,-2.84731c-0.40048,-1.45961 -1.29782,-3.35865 -2.13573,-4.51915c-0.30311,-0.41996 -0.70359,-1.11356 -0.89085,-1.542c-0.39099,-0.89534 -2.48978,-2.51474 -3.68922,-2.84681M404.82839,138.29238c1.25837,-1.43364 2.40189,-0.42445 3.3976,2.99812c0.72306,2.48678 0.83642,4.58307 0.29062,5.37604c-1.10058,1.59893 -2.8558,0.79347 -2.8593,-1.3118c-0.0025,-1.33927 -0.32758,-2.89825 -0.84041,-4.02978c-0.73804,-1.62789 -0.73605,-2.18118 0.01149,-3.03257M295.57184,152.5614c0.16329,-0.04245 0.02946,-0.0774 -0.29662,-0.0774c-0.32658,0 -0.4599,0.03495 -0.29712,0.0774c0.16329,0.04294 0.43044,0.04294 0.59373,0M388.44809,161.23418c-3.67624,-0.59074 -13.99788,-0.63718 -16.10815,-0.07241c-2.30352,0.6162 -7.60465,3.34068 -7.96119,4.0912c-1.04814,2.20964 0.81544,4.49318 6.63591,8.13197c0.39,0.24368 1.34376,0.62219 2.11926,0.84091c0.776,0.21872 1.75373,0.51733 2.17319,0.66314c3.41108,1.18646 8.22235,2.65456 8.98687,2.74245c0.51284,0.05892 1.69531,0.24718 2.6281,0.41846c4.61802,0.8464 10.38955,0.78399 11.66989,-0.12684c0.98023,-0.6976 1.29233,-0.8489 3.32969,-1.61191c0.98273,-0.36852 2.28304,-0.86238 2.88876,-1.09808c1.01768,-0.39549 2.56168,-0.91931 3.54391,-1.20194c2.97165,-0.85589 -0.75552,-9.71642 -4.07772,-9.69445c-0.84291,0.00549 -0.89934,0.17427 -0.57725,1.71828c0.42795,2.04885 0.32907,5.51386 -0.17677,6.19398c-0.772,1.03766 -3.0126,1.05813 -3.87349,0.03495c-0.80795,-0.95976 -1.22691,-6.8002 -0.56127,-7.82187c0.40048,-0.6147 0.37352,-0.95227 -0.08439,-1.05663c-4.42627,-1.00869 -8.07954,-1.75323 -10.55533,-2.15121M379.29195,161.96822c1.73276,-0.95826 3.12645,0.52931 3.89695,4.15912c0.76002,3.57887 0.24918,4.96607 -1.82813,4.96807c-1.56647,0.0015 -1.84261,-0.44093 -2.81985,-4.51565c-0.81794,-3.41208 -0.75902,-3.77661 0.75103,-4.61153M227.99682,163.71197c0.39948,-0.12684 0.88136,-0.19824 1.07061,-0.15929c0.18975,0.03895 1.02068,0.14781 1.84661,0.24169c1.69281,0.19225 2.03137,0.39599 2.33348,1.40518c0.10886,0.36303 0.49136,0.99371 0.8499,1.40119c2.12125,2.40988 1.21842,4.50167 -1.71728,3.97735c-0.88935,-0.15929 -1.34875,-0.16279 -1.93549,-0.01498c-2.51774,0.63418 -4.1681,-0.62419 -3.36414,-2.56418c0.4659,-1.12355 0.4629,-1.28933 -0.03795,-2.23161c-0.61221,-1.15151 -0.39099,-1.62889 0.95426,-2.05534M388.3632,172.21995c2.45882,-0.44742 6.952,1.35025 6.952,2.7814c0,1.71927 -1.50705,2.29852 -3.76812,1.44763c-0.60272,-0.22721 -1.58495,-0.4664 -2.18217,-0.53131c-3.03956,-0.33257 -3.81256,-3.18588 -1.0017,-3.69771M367.63254,200.64515c-0.6981,-0.5398 -1.81815,0.18027 -1.81964,1.16999c-0.0005,0.24868 -0.05193,0.58574 -0.11435,0.74853c-0.0779,0.20174 -0.05093,0.25667 0.08439,0.17328c0.12634,-0.0779 0.19874,0.001 0.19874,0.21672c0,0.18626 0.08139,0.3895 0.18077,0.45092c0.09987,0.06142 0.14032,0.21872 0.09038,0.34905c-0.05043,0.13033 -0.01748,0.23719 0.07291,0.23719c0.09038,0 0.16429,0.09638 0.16429,0.21422c0,0.11785 0.45791,1.12754 1.01768,2.24459c0.55928,1.11655 1.01718,2.12924 1.01718,2.25009c0,0.12084 0.19075,0.59623 0.42395,1.05613c0.2332,0.4599 0.42395,0.98722 0.42395,1.17148c0,0.18376 0.0764,0.38151 0.16928,0.43943c0.09338,0.05743 0.16978,0.25317 0.16978,0.43444c0,0.36303 0.386,1.14202 0.97474,1.96645c0.21023,0.29362 0.38151,0.64616 0.38151,0.78399c0,0.47588 0.48337,1.39569 0.98522,1.87357c0.27714,0.26416 0.55029,0.71058 0.60671,0.99172c0.05593,0.28164 0.29312,0.73854 0.52682,1.01618c0.2337,0.27764 0.42495,0.68561 0.42495,0.90583c0,0.22071 0.08289,0.45241 0.18426,0.51483c0.10137,0.06292 0.14681,0.25817 0.10037,0.43394c-0.04594,0.17577 -0.01448,0.32009 0.07041,0.32009c0.08439,0 0.1533,0.18176 0.1533,0.40448c0,0.22221 0.11086,0.6172 0.24568,0.87736c0.24219,0.4669 0.24518,0.4614 0.22521,-0.40997c-0.01099,-0.48537 -0.07191,-0.79897 -0.13532,-0.6966c-0.06292,0.10237 -0.15979,-0.34905 -0.21472,-1.0032c-0.05443,-0.65415 -0.19425,-1.36523 -0.3106,-1.57995c-0.14032,-0.25966 -0.25317,-1.7767 -0.33756,-4.54412c-0.20124,-6.59446 -0.31659,-7.5672 -1.10008,-9.28798c-0.22371,-0.49236 -0.40697,-1.0072 -0.40697,-1.14452c0,-0.13732 -0.0784,-0.24968 -0.17328,-0.24968c-0.09538,0 -0.49636,-0.28613 -0.89035,-0.63618c-0.88436,-0.78448 -1.36224,-1.05813 -1.85909,-1.06512c-0.44542,-0.00599 -1.02767,-0.39599 -0.8529,-0.57126c0.06591,-0.06542 -0.01248,-0.06841 -0.17427,-0.00649c-0.16129,0.06192 -0.388,0.03945 -0.50335,-0.04944M372.95315,236.84328c-0.25867,-0.66764 -0.99821,-0.60721 -2.56318,0.20923c-2.82784,1.47609 -4.5596,2.23261 -5.61423,2.45332c-0.7735,0.16179 -1.40718,0.44043 -2.0883,0.91731c-0.5378,0.37651 -1.37122,0.81345 -1.8516,0.97024c-1.40768,0.4599 -1.80616,0.71358 -1.80616,1.14901c0,1.15451 3.97386,5.76104 5.36605,6.22045c2.21713,0.73205 6.40621,-2.87528 7.45685,-6.42119c0.1568,-0.52981 0.4639,-1.48208 0.68262,-2.11626c0.49086,-1.42416 0.65665,-2.76642 0.41796,-3.38212M396.06423,238.25496c-2.29753,-0.18376 -10.30865,-0.36203 -10.86793,-0.24169c-1.27235,0.27365 -0.57526,5.77902 0.93679,7.39543c3.06953,3.28175 7.80989,1.21493 12.10633,-5.27867c0.83642,-1.26436 0.36403,-1.67184 -2.17518,-1.87507M268.98725,239.24817c-0.20374,-0.38051 -0.55029,-0.40498 -1.27335,-0.08988c-0.3051,0.13283 -1.48308,0.26066 -2.88227,0.3126l-2.36644,0.08789l-2.79788,1.01618c-1.53851,0.55878 -3.05105,1.07111 -3.36065,1.13803c-0.3096,0.06691 -1.48658,0.45741 -2.61561,0.86788c-1.12904,0.41047 -2.66904,0.86138 -3.42157,1.0017c-0.89734,0.16778 -1.89505,0.51833 -2.89525,1.01718c-0.83891,0.41896 -1.98343,0.84541 -2.54221,0.94827c-2.23561,0.41097 -2.15371,1.63438 0.26566,3.98684c1.3887,1.34975 1.69031,1.80017 2.02088,3.0151c0.52732,1.93949 3.52394,5.3331 5.87989,6.65888l1.1585,0.65216l4.22653,0.05293l4.22653,0.05343l1.21942,-0.60222c1.98293,-0.98023 3.40359,-2.69251 3.71819,-4.4807c0.13083,-0.74354 0.43344,-1.73825 0.67313,-2.21114c0.82893,-1.63538 0.93679,-2.56118 0.93978,-8.04159c0.0015,-3.1654 -0.06342,-5.1783 -0.17328,-5.38353M285.28415,240.44613c-0.26466,-0.39649 -9.93114,-0.47089 -10.48343,-0.0804c-0.37152,0.26216 -0.38201,0.35055 -0.39199,3.43905c-0.00949,2.82734 -0.10087,4.21904 -0.43244,6.58847c-0.1578,1.12854 0.19625,1.18946 2.20065,0.37951c0.91132,-0.36802 1.82364,-0.77699 2.02688,-0.90882c0.20324,-0.13133 0.78948,-0.39599 1.30231,-0.58774c2.77091,-1.03516 6.83565,-7.24712 5.77802,-8.83007" fill="#090909" fill-rule="evenodd" stroke-width="1"/><path d="M269.00677,239.2326c0.10986,0.20523 0.17865,2.22499 0.17716,5.3904c-0.003,5.4804 -0.11014,6.42136 -0.93907,8.05674c-0.23969,0.47289 -0.54389,1.47191 -0.67472,2.21545c-0.31459,1.78818 -1.74253,3.50947 -3.72547,4.4897l-1.22165,0.60375l-4.23441,-0.0503l-4.23644,-0.05286l-1.16148,-0.65293c-2.35595,-1.32578 -5.36844,-4.73505 -5.89576,-6.67454c-0.33057,-1.21493 -0.63352,-1.67323 -2.02222,-3.02298c-2.41937,-2.35245 -2.4999,-3.58417 -0.2643,-3.99514c0.55878,-0.10287 1.70503,-0.53324 2.54395,-0.9522c1.00021,-0.49885 2.00206,-0.85494 2.8994,-1.02272c0.75253,-0.14032 2.30173,-0.59712 3.43077,-1.00759c1.12904,-0.41047 2.31492,-0.80246 2.62452,-0.86937c0.3096,-0.06691 1.83087,-0.57753 3.36938,-1.13631l2.80214,-1.01402l2.36941,-0.08568c1.39919,-0.05193 2.57944,-0.17753 2.88455,-0.31035c0.72306,-0.31509 1.07051,-0.28956 1.27425,0.09095" data-paper-data="{&quot;noHover&quot;:false,&quot;origItem&quot;:[&quot;Path&quot;,{&quot;applyMatrix&quot;:true,&quot;segments&quot;:[[[216.083,298.56602],[0,0],[-0.408,-0.762]],[[213.533,298.38602],[1.448,-0.631],[-0.611,0.266]],[[207.761,299.01202],[2.802,-0.104],[0,0]],[203.022,299.18802],[[197.419,301.22302],[0,0],[-3.081,1.119]],[[190.689,303.50202],[0.62,-0.134],[-0.62,0.134]],[[185.451,305.24002],[2.261,-0.822],[-2.261,0.822]],[[178.599,307.24602],[1.507,-0.281],[-1.797,0.336]],[[172.801,309.28302],[2.003,-0.999],[-1.68,0.839]],[[167.71,311.18202],[1.119,-0.206],[-4.477,0.823]],[[168.242,319.16602],[-4.845,-4.711],[2.781,2.703]],[[172.289,325.20402],[-0.662,-2.433],[1.056,3.884]],[[184.064,338.53902],[-4.718,-2.655],[0,0]],[186.384,339.84502],[194.848,339.95102],[203.312,340.05802],[[205.754,338.85202],[0,0],[3.971,-1.963]],[[213.2,329.87902],[-0.63,3.581],[0.262,-1.489]],[[214.548,325.45102],[-0.48,0.947],[1.66,-3.275]],[[216.43,309.34702],[-0.006,10.975],[0.003,-6.339]],[[216.083,298.56602],[0.22,0.411],[0,0]]],&quot;fillColor&quot;:[0,0,0,1]}]}" fill="#ff6cbf" fill-rule="nonzero" stroke-width="0.5"/><path d="M285.30232,240.429c1.05763,1.58295 -3.02662,7.83697 -5.79753,8.87213c-0.51284,0.19175 -1.10619,0.45497 -1.30942,0.5863c-0.20324,0.13183 -1.12136,0.5378 -2.03268,0.90582c-2.00441,0.80995 -2.36351,0.74435 -2.20571,-0.38419c0.33157,-2.36943 0.4188,-3.78541 0.42829,-6.61275c0.00999,-3.0885 0.02709,-3.18682 0.39861,-3.44898c0.55228,-0.39049 10.2538,-0.31481 10.51846,0.08167" data-paper-data="{&quot;noHover&quot;:false,&quot;origItem&quot;:[&quot;Path&quot;,{&quot;applyMatrix&quot;:true,&quot;segments&quot;:[[[248.719,300.96502],[0,0],[-0.53,-0.794]],[[227.725,300.80402],[1.106,-0.782],[-0.744,0.525]],[[226.94,307.69102],[0.02,-6.185],[-0.019,5.662]],[[226.074,320.88502],[0.664,-4.745],[-0.316,2.26]],[[230.481,321.64502],[-4.014,1.622],[1.825,-0.737]],[[234.54,319.82502],[-0.407,0.264],[0.407,-0.263]],[[237.148,318.64802],[-1.027,0.384],[5.549,-2.073]],[[248.719,300.96502],[2.118,3.17],[0,0]]],&quot;fillColor&quot;:[0,0,0,1]}]}" fill="#ff6cbf" fill-rule="nonzero" stroke-width="0.5"/><path d="M396.08245,238.23789c2.53921,0.20324 3.01695,0.61954 2.18053,1.8839c-4.29644,6.49359 -9.08232,8.58055 -12.15185,5.2988c-1.51204,-1.61641 -2.20767,-7.14795 -0.93531,-7.4216c0.55928,-0.12034 8.6091,0.05513 10.90663,0.23889" data-paper-data="{&quot;noHover&quot;:false,&quot;origItem&quot;:[&quot;Path&quot;,{&quot;applyMatrix&quot;:true,&quot;segments&quot;:[[[470.566,296.57702],[0,0],[-4.601,-0.368]],[[448.802,296.09302],[1.12,-0.241],[-2.548,0.548]],[[450.678,310.90302],[-3.028,-3.237],[6.147,6.572]],[[474.922,300.33202],[-8.604,13.004],[1.675,-2.532]],[[470.566,296.57702],[5.085,0.407],[0,0]]],&quot;fillColor&quot;:[0,0,0,1]}]}" fill="#ff6cbf" fill-rule="nonzero" stroke-width="0.5"/><path d="M372.9723,236.82727c0.23869,0.6157 0.07718,1.96534 -0.41369,3.38949c-0.21872,0.63418 -0.5243,1.59389 -0.6811,2.12371c-1.05064,3.54591 -5.27113,7.17856 -7.48826,6.4465c-1.3922,-0.45941 -5.38454,-5.09034 -5.38454,-6.24485c0,-0.43544 0.39915,-0.69456 1.80683,-1.15446c0.48038,-0.1568 1.31721,-0.60168 1.85502,-0.97819c0.68112,-0.47688 1.32626,-0.76496 2.09976,-0.92676c1.05463,-0.22071 2.81117,-0.9738 5.639,-2.44989c1.56497,-0.81644 2.30831,-0.8732 2.56698,-0.20556" data-paper-data="{&quot;noHover&quot;:false,&quot;origItem&quot;:[&quot;Path&quot;,{&quot;applyMatrix&quot;:true,&quot;segments&quot;:[[[424.284,293.75002],[0,0],[-0.518,-1.337]],[[419.151,294.16902],[3.134,-1.635],[-5.663,2.956]],[[407.908,299.08202],[2.112,-0.442],[-1.549,0.324]],[[403.726,300.91902],[1.364,-0.955],[-1.077,0.754]],[[400.018,302.86202],[0.962,-0.314],[-2.819,0.921]],[[396.401,305.16302],[0,-0.872],[0,2.312]],[[407.147,317.62002],[-2.788,-0.92],[4.44,1.466]],[[422.08,304.76102],[-2.104,7.101],[0.314,-1.061]],[[423.447,300.52302],[-0.438,1.27],[0.983,-2.852]],[[424.284,293.75002],[0.478,1.233],[0,0]]],&quot;fillColor&quot;:[0,0,0,1]}]}" fill="#ff6cbf" fill-rule="nonzero" stroke-width="0.5"/></g></g></svg>