<svg version="1.1" xmlns="http://www.w3.org/2000/svg" xmlns:xlink="http://www.w3.org/1999/xlink" width="186.64613" height="155.978" viewBox="0,0,186.64613,155.978"><g transform="translate(-236.56254,-102.51352)"><g data-paper-data="{&quot;isPaintingLayer&quot;:true}" stroke="none" stroke-linecap="butt" stroke-linejoin="miter" stroke-miterlimit="10" stroke-dasharray="" stroke-dashoffset="0" style="mix-blend-mode: normal"><path d="M406.02051,132.81779c4.28221,2.15535 8.20004,12.29536 7.8054,20.20313c-0.11209,2.24408 -0.12501,2.27607 -0.8279,2.61093c-0.30404,0.14525 -0.81627,0.47518 -1.13618,0.73204c-1.73222,1.39222 -4.95121,1.3788 -7.48345,-0.03303c-0.47497,-0.26481 -1.12586,-0.61315 -1.44204,-0.77334c-3.74419,-1.89381 -4.46177,-14.37746 -1.19302,-20.74169c1.28247,-2.49628 2.3236,-2.98113 4.27719,-1.99803" data-paper-data="{&quot;noHover&quot;:false,&quot;origItem&quot;:[&quot;Path&quot;,{&quot;applyMatrix&quot;:true,&quot;segments&quot;:[[[966.45401,156.90104],[0,0],[-8.366,-4.21]],[[948.17601,165.44704],[5.492,-10.69],[-13.998,27.254]],[[953.27401,254.08704],[-16.034,-8.11],[1.354,0.686]],[[959.43601,257.39504],[-2.034,-1.134],[10.844,6.046]],[[991.42201,257.54304],[-7.418,5.962],[1.37,-1.1]],[[996.27801,254.41304],[-1.302,0.622],[3.01,-1.434]],[[999.80801,243.24304],[-0.48,9.61],[1.69,-33.864]],[[966.45401,156.90104],[18.338,9.23],[0,0]]],&quot;fillColor&quot;:[0,0,0,1]}]}" fill="#fbfbfb" fill-rule="nonzero" stroke-width="0.5"/><path d="M393.7012,111.97894c-0.01261,0.3853 -0.07265,1.33015 -0.13337,2.10028c-0.14058,1.78172 0.11899,2.13234 1.59154,2.1599c1.81815,0.03363 2.05149,-0.16708 2.21122,-2.16176c0.09948,-1.24464 0.45227,-2.1206 0.874,-2.16077c0.0822,-0.00794 0.18487,0.65725 0.22737,1.47783c0.06819,1.30442 0.1324,1.56996 0.50649,2.10844c0.31945,0.46003 0.42787,0.80258 0.42787,1.35181c0,2.74848 2.48677,3.14652 3.94531,0.63016c0.99197,-1.7112 2.88471,-3.67694 4.75003,-4.93418l1.57984,-1.06462l1.53986,-0.08466c2.9138,-0.16066 3.79052,0.31299 4.44063,2.39735c0.66879,2.14554 0.57818,2.53447 -1.16618,4.95229c-1.16711,1.61826 -1.88621,2.01545 -4.45862,2.36712c-2.27818,0.31104 -2.85087,2.10284 -1.21626,3.73745c0.77247,0.77247 0.92658,0.79019 2.50747,0.27412c2.36037,-0.7706 2.1135,-1.34539 3.03121,7.00325c0.17841,1.62573 0.38876,3.23763 0.46582,3.57949c0.36615,1.62854 0.04356,2.72607 -0.45616,1.61127c-0.16206,-0.36008 -0.5058,-0.93495 -0.76454,-1.27775c-0.2592,-0.34327 -0.81655,-1.14516 -1.23968,-1.78406c-2.01103,-3.03897 -4.77356,-5.2414 -7.02559,-5.60381c-2.46686,-0.39744 -5.4383,1.1578 -5.95857,3.11606c-0.10228,0.38437 -0.28207,0.90771 -0.43479,1.20755c-3.25801,6.39272 -3.3084,19.7187 -0.09103,22.72171c0.2195,0.20503 0.47926,0.62578 0.57734,0.93402c0.35821,1.12695 2.4212,2.83349 4.34771,3.58121c3.61108,1.40203 7.18698,1.2151 9.75892,-0.51525c0.53662,-0.36055 1.36569,-0.90434 1.84393,-1.20932c0.51607,-0.32926 1.06689,-0.85355 1.35738,-1.29396c0.33299,-0.50393 0.57298,-0.669 0.65471,-0.53683c0.12797,0.20736 0.58702,3.61734 0.76356,5.66621c0.05885,0.6842 0.1686,1.66567 0.24472,2.17894c0.1317,0.89016 0.29791,2.55236 0.61969,6.14663c0.2139,2.38933 0.20391,12.74035 -0.01185,13.31106c-0.18775,0.49599 -0.89731,1.31575 -1.13923,1.31575c-0.0822,0 -0.82211,0.30739 -1.64362,0.68288c-5.16116,2.3571 -11.97088,3.21169 -25.68524,3.21169c-7.30062,0 -6.8453,0.09491 -9.28227,-1.90211c-1.07277,-0.87848 -2.14814,-1.74179 -2.38726,-1.91739c-0.23959,-0.17607 -0.96139,-0.7148 -1.60262,-1.19771c-1.41137,-1.06203 -3.35374,-2.25341 -5.64827,-3.46583c-0.94107,-0.49739 -1.90189,-1.03569 -2.13307,-1.19541c-1.75183,-1.20821 -7.51928,-2.39174 -9.3379,-1.91491c-0.37269,0.09808 -0.43135,0.05999 -0.51588,-0.33418c-0.05277,-0.24472 -0.26504,-1.0104 -0.47146,-1.70161c-0.84766,-2.84001 -1.92983,-9.37987 -2.17175,-13.14694c-0.11022,-1.71774 -0.07381,-1.78621 1.2703,-2.2948c1.03214,-0.3909 2.90117,-1.94526 3.70306,-3.07781c0.34187,-0.48338 0.81141,-1.12334 1.04353,-1.42083c2.28892,-2.93389 1.35639,-6.41436 -2.58395,-9.63034l-0.76211,-0.62251l-0.11088,-1.47566c-0.18121,-2.3954 -0.99597,-4.70094 -2.52222,-7.11735c-0.9803,-1.55241 -0.9053,-3.04771 0.18895,-3.80336c0.75145,-0.5184 1.01431,-1.27393 0.73596,-2.11459c-0.33439,-1.00972 -3.19601,-2.65106 -4.61578,-2.65106c-1.29601,0 -2.96887,-1.48393 -2.2034,-1.95704c0.07286,-0.0453 0.28618,-0.50162 0.47253,-1.01349c0.79909,-2.19131 5.23574,-3.64302 7.48589,-2.44789c0.29937,0.15879 1.26427,0.52544 2.14322,0.81546c1.64722,0.54222 2.93136,1.12079 4.72289,2.13145c2.71438,1.53046 4.83774,0.3149 3.57395,-2.0464c-0.20783,-0.3881 -3.25206,-2.14402 -4.79653,-2.78105c-1.32497,-0.54596 -1.60969,-0.76252 -1.49807,-1.05348c0.09154,-0.23865 3.61389,-1.79161 4.06364,-1.79161c0.48524,0 1.69659,1.65358 2.43543,3.32368c0.48758,1.10266 1.20712,1.65289 2.158,1.65289c1.88213,0 2.56377,-2.35735 1.04918,-3.63188c-0.23772,-0.19989 -0.75081,-0.76838 -1.16133,-1.31714c-0.41052,-0.54829 -1.51063,-1.76708 -2.44469,-2.70814c-2.28238,-2.29873 -2.39945,-2.4939 -1.90673,-2.98662c0.44181,-0.44181 1.05408,-0.28903 2.18523,0.54602c2.06521,1.52439 3.4987,2.30239 6.5386,3.55777c2.87598,1.18719 4.09397,0.56229 3.30609,-1.69721c-0.24519,-0.70382 0.09736,-0.97672 1.65444,-1.31952c4.79641,-1.05642 5.46067,-1.19422 7.78228,-1.62809c2.53131,-0.4731 3.50933,-0.60818 4.2024,-0.58296l0.62244,0.02249l-0.02374,0.69963" data-paper-data="{&quot;noHover&quot;:false,&quot;origItem&quot;:[&quot;Path&quot;,{&quot;applyMatrix&quot;:true,&quot;segments&quot;:[[456.835,33.82952],[456.886,32.33152],[[455.554,32.28352],[0,0],[-1.484,-0.054]],[[446.561,33.53252],[5.42,-1.013],[-4.971,0.929]],[[429.908,37.01852],[10.27,-2.262],[-3.334,0.734]],[[426.368,39.84352],[-0.525,-1.507],[1.687,4.838]],[[419.294,43.47652],[6.158,2.542],[-6.509,-2.688]],[[405.3,35.85652],[4.422,3.264],[-2.422,-1.788]],[[400.623,34.68652],[0.946,-0.946],[-1.055,1.055]],[[404.664,40.99052],[-4.887,-4.922],[2,2.015]],[[409.9,46.78852],[-0.879,-1.174],[0.879,1.175]],[[412.424,49.70152],[-0.509,-0.428],[3.243,2.729]],[[410.181,57.47652],[4.03,0],[-2.036,0]],[[405.562,53.93652],[1.044,2.361],[-1.582,-3.576]],[[400.348,46.81952],[1.039,0],[-0.963,0]],[[391.652,50.65252],[0.196,-0.511],[-0.239,0.623]],[[394.802,52.82652],[-2.837,-1.169],[3.307,1.364]],[[405.126,58.86552],[-0.445,-0.831],[2.706,5.056]],[[397.479,63.24352],[5.812,3.277],[-3.836,-2.164]],[[387.369,58.67752],[3.527,1.161],[-1.882,-0.621]],[[382.781,56.93052],[0.641,0.34],[-4.818,-2.559]],[[366.758,62.16552],[1.711,-4.692],[-0.399,1.096]],[[365.747,64.33452],[0.156,-0.097],[-1.639,1.013]],[[370.383,68.46752],[-2.775,0],[3.04,0]],[[380.348,74.20152],[-0.716,-2.162],[0.596,1.8]],[[378.774,78.72652],[1.609,-1.11],[-2.343,1.618]],[[378.372,86.86552],[-2.099,-3.324],[3.268,5.174]],[[383.776,102.09552],[-0.388,-5.129],[0,0]],[384.014,105.25252],[[385.646,106.58452],[0,0],[8.437,6.886]],[[391.178,127.18452],[4.901,-6.282],[-0.497,0.637]],[[388.943,130.22452],[0.732,-1.035],[-1.717,2.425]],[[381.013,136.81152],[2.21,-0.837],[-2.878,1.089]],[[378.292,141.72252],[-0.236,-3.678],[0.518,8.066]],[[382.932,169.85752],[-1.815,-6.081],[0.442,1.48]],[[383.94,173.49952],[-0.113,-0.524],[0.181,0.844]],[[385.044,174.21452],[-0.798,0.21],[3.894,-1.021]],[[405.028,178.30752],[-3.751,-2.587],[0.495,0.342]],[[409.592,180.86552],[-2.015,-1.065],[4.913,2.596]],[[421.677,188.28352],[-3.022,-2.274],[1.373,1.034]],[[425.106,190.84752],[-0.513,-0.377],[0.512,0.376]],[[430.214,194.95252],[-2.297,-1.881],[5.218,4.276]],[[450.077,199.02552],[-15.632,0],[29.365,0]],[[505.048,192.16052],[-11.051,5.047],[1.759,-0.804]],[[508.566,190.69952],[-0.176,0],[0.518,0]],[[511.004,187.88352],[-0.402,1.062],[0.462,-1.222]],[[511.022,159.39152],[0.458,5.116],[-0.689,-7.696]],[[509.692,146.23652],[0.282,1.906],[-0.163,-1.099]],[[509.167,141.57352],[0.126,1.465],[-0.378,-4.387]],[[507.53,129.44852],[0.274,0.444],[-0.175,-0.283]],[[506.226,130.61852],[0.713,-1.079],[-0.622,0.943]],[[503.319,133.39152],[1.105,-0.705],[-1.024,0.653]],[[499.37,135.98352],[1.149,-0.772],[-5.507,3.705]],[[478.471,137.09452],[7.732,3.002],[-4.125,-1.601]],[[469.072,129.38252],[0.767,2.413],[-0.21,-0.66]],[[467.835,127.38452],[0.47,0.439],[-6.889,-6.43]],[[468.045,78.79052],[-6.976,13.688],[0.327,-0.642]],[[469.038,76.12652],[-0.219,0.823],[1.114,-4.193]],[[481.8,69.45752],[-5.282,-0.851],[4.822,0.776]],[[496.852,81.46752],[-4.306,-6.507],[0.906,1.368]],[[499.508,85.29052],[-0.555,-0.735],[0.554,0.734]],[[501.146,88.02852],[-0.347,-0.771],[1.07,2.387]],[[502.032,84.62052],[0.784,3.487],[-0.165,-0.732]],[[501.037,76.96052],[0.382,3.481],[-1.965,-17.876]],[[494.553,61.97352],[5.054,-1.65],[-3.385,1.105]],[[489.186,61.38852],[1.654,1.654],[-3.5,-3.5]],[[491.857,53.31152],[-4.878,0.666],[5.508,-0.753]],[[501.337,48.31752],[-2.499,3.465],[3.735,-5.177]],[[503.836,37.71552],[1.432,4.594],[-1.392,-4.463]],[[494.332,32.58552],[6.239,-0.344],[0,0]],[491.036,32.76752],[[487.654,35.04752],[0,0],[-3.994,2.692]],[[477.485,45.61352],[2.124,-3.664],[-3.123,5.388]],[[469.042,44.26652],[0,5.885],[0,-1.176]],[[468.127,41.37252],[0.684,0.985],[-0.801,-1.153]],[[467.044,36.85852],[0.146,2.793],[-0.091,-1.757]],[[466.558,33.69452],[0.176,-0.017],[-0.903,0.086]],[[464.719,38.22652],[0.213,-2.665],[-0.342,4.271]],[[459.954,42.95052],[3.893,0.072],[-3.153,-0.059]],[[456.549,38.32652],[-0.301,3.815],[0.13,-1.649]],[[456.835,33.82952],[-0.027,0.825],[0,0]]],&quot;fillColor&quot;:[0.04314,0.04314,0.04314]}]}" fill="#fbfbfb" fill-rule="nonzero" stroke-width="0.5"/><path d="M390.18373,163.46544c0.87989,0.17093 1.98581,0.31071 2.4491,0.31071c0.46329,0 1.25035,0.10644 1.74307,0.23487c0.49272,0.12797 1.19785,0.2349 1.56213,0.2349c0.36475,0 1.17542,0.1042 1.79844,0.22796c0.62255,0.12423 2.0104,0.37672 3.0799,0.55652c1.0695,0.17934 2.37761,0.43088 2.90488,0.55511c0.52728,0.12376 1.35175,0.22697 1.83139,0.22697c3.28183,0 6.9338,4.15271 6.9338,7.87588c0,1.64115 -0.26757,1.88764 -3.65634,3.31723c-0.59873,0.25266 -2.13032,0.79461 -3.40252,1.20093c-1.86252,0.595 -2.44513,0.85504 -2.98314,1.32114c-0.8598,0.74351 -1.79888,0.85237 -6.45004,0.70899c-3.87169,-0.11909 -5.01778,-0.30082 -10.37135,-1.65708c-3.3827,-0.857 -5.17233,-1.53542 -7.37672,-2.77025c-0.62769,-0.35167 -1.39785,-0.68508 -1.71169,-0.73879c-1.61406,-0.27742 -5.90143,-3.76774 -6.38107,-5.19125c-0.43761,-1.29975 0.63789,-3.90895 1.61212,-3.90895c0.11069,0 0.85652,-0.33765 1.65654,-0.7491c1.47208,-0.75659 2.62086,-1.16462 4.87849,-1.72038c1.87606,-0.46143 9.55018,-0.48843 11.883,-0.03541" data-paper-data="{&quot;noHover&quot;:false,&quot;origItem&quot;:[&quot;Path&quot;,{&quot;applyMatrix&quot;:true,&quot;segments&quot;:[[[898.64201,288.14504],[0,0],[-9.99,-1.94]],[[847.82601,288.25104],[8.034,-1.976],[-9.668,2.38]],[[826.94401,295.59904],[6.304,-3.24],[-3.426,1.762]],[[819.85201,298.80104],[0.474,0],[-4.172,0]],[[812.95201,315.52104],[-1.874,-5.566],[2.054,6.096]],[[840.27601,337.72104],[-6.912,-1.188],[1.344,0.23]],[[847.60401,340.87704],[-2.688,-1.506],[9.44,5.288]],[[879.16201,352.69304],[-14.486,-3.67],[22.926,5.808]],[[923.46401,359.77904],[-16.58,-0.51],[19.918,0.614]],[[951.05201,356.77304],[-3.682,3.184],[2.304,-1.996]],[[963.81801,351.13104],[-7.976,2.548],[5.448,-1.74]],[[978.38401,346.00104],[-2.564,1.082],[14.512,-6.122]],[[994.03801,331.81504],[0,7.028],[0,-15.944]],[[964.35201,298.13504],[14.054,0],[-2.054,0]],[[956.51201,297.16904],[2.258,0.53],[-2.258,-0.532]],[[944.08001,294.80504],[4.58,0.768],[-4.58,-0.77]],[[930.90601,292.43904],[2.666,0.532],[-2.668,-0.53]],[[923.21801,291.47304],[1.562,0],[-1.56,0]],[[916.54401,290.47504],[2.11,0.548],[-2.11,-0.55]],[[909.10001,289.47504],[1.984,0],[-1.984,0]],[[898.64201,288.14504],[3.768,0.732],[0,0]]],&quot;fillColor&quot;:[0,0,0,1]}]}" fill="#ff6cbf" fill-rule="nonzero" stroke-width="0.5"/><path d="M398.72317,102.6172c0.05698,-0.05698 1.1064,-0.10368 2.33188,-0.10368h2.22774l0.54222,0.73884c0.45442,0.61928 0.54269,0.87148 0.54596,1.55568l0.00374,0.81637h4.40363c3.6307,0 4.45641,0.04016 4.70533,0.22838c0.1658,0.12563 0.41286,0.23071 0.54876,0.23352c0.13591,0.0028 0.56464,0.35494 0.95274,0.78274c0.3881,0.42733 0.7664,0.77761 0.84066,0.77761c0.36755,0 3.04504,1.47675 3.46724,1.91249c1.45013,1.4959 2.19178,2.35057 2.19178,2.52477c0,0.10788 0.09621,0.23258 0.2139,0.27788c0.11769,0.04483 0.4675,0.59546 0.77761,1.22362c0.97609,1.97554 0.78368,4.94679 -0.40912,6.31799c-0.12703,0.14571 -0.25733,0.34467 -0.28956,0.44275c-0.07052,0.21156 -2.34263,2.59529 -3.05064,3.20009c-0.52448,0.44835 4.42605,44.47627 4.45921,54.61458l0.02242,6.97324l-0.43387,0.687c-0.23865,0.37829 -0.48665,0.68747 -0.5511,0.68794c-0.06398,0 -0.11629,0.10742 -0.11629,0.23865c0,0.8598 -3.47518,3.66059 -5.01825,4.04449c-0.23585,0.05885 -0.4675,0.16907 -0.51467,0.24519c-0.0467,0.07613 -0.21904,0.13824 -0.3825,0.13824c-0.16346,0 -0.54643,0.14011 -0.85093,0.31104c-0.30497,0.17093 -0.71596,0.31104 -0.91445,0.31104c-0.19802,0 -0.58752,0.11349 -0.86541,0.2522c-0.49879,0.24893 -2.31087,0.54783 -2.53691,0.41846c-0.06398,-0.0369 -0.11629,0.00747 -0.11629,0.09808c0,0.0906 -0.21016,0.16439 -0.46703,0.16439h-0.46656v2.80919c0,1.8331 8.23142,31.1729 8.4243,31.44425c0.53288,0.74818 0.55997,4.14116 0.07192,5.12099c-0.30357,0.60948 -0.40772,1.05596 -0.40772,1.75183c0,0.72623 -0.04157,0.8925 -0.18681,0.74725c-0.27275,-0.27321 -0.43527,-0.22838 -0.43527,0.11956c0,0.2083 0.07472,0.27742 0.23352,0.2167c0.12797,-0.04951 0.23305,-0.00981 0.23305,0.08733c0,0.09761 -0.10695,0.2181 -0.23725,0.26808c-0.15132,0.05838 -0.18681,0.15505 -0.09808,0.26761c0.16393,0.2083 -0.15926,2.3515 -0.32972,2.1815c-0.06165,-0.06212 -0.11255,0.13964 -0.11255,0.44835c0,0.30871 -0.07005,0.60434 -0.15552,0.65711c-0.08547,0.05324 -0.15552,0.2181 -0.15552,0.36709c0,0.34047 -0.34981,1.1078 -0.50579,1.10967c-0.06398,0.00047 -0.11676,0.09808 -0.11676,0.2167c0,0.87335 -3.11136,4.76185 -3.81004,4.76185c-0.18775,0 -0.46796,0.14011 -0.62302,0.31104c-0.15459,0.1714 -0.38016,0.31104 -0.50066,0.31104c-0.12049,0 -0.39604,0.21016 -0.61181,0.46703c-0.21624,0.2564 -0.48291,0.46656 -0.59313,0.46656c-0.11022,0 -0.28863,0.10602 -0.39651,0.23632c-0.2933,0.35354 -1.08585,0.67393 -1.78639,0.7225c-0.34233,0.02382 -0.70382,0.15038 -0.80423,0.28115c-0.30871,0.40351 -3.82778,0.3372 -4.63995,-0.0878c-0.34233,-0.17934 -0.69728,-0.29983 -0.78928,-0.26854c-0.09154,0.03129 -0.2947,-0.08453 -0.45162,-0.2578c-0.15692,-0.17327 -0.37269,-0.31478 -0.48057,-0.31478c-0.10742,0 -0.37176,-0.21016 -0.58799,-0.46656c-0.21577,-0.25687 -0.45162,-0.46656 -0.52354,-0.46656c-0.22184,0 -2.84422,-3.09455 -2.84422,-3.35655c0,-0.0481 -0.21016,-0.39277 -0.46703,-0.76546c-0.2564,-0.37316 -0.46656,-0.78088 -0.46656,-0.90604c0,-0.12516 -0.09714,-0.26481 -0.21624,-0.31058c-0.28909,-0.11069 -0.75285,-1.03914 -0.51887,-1.03914c0.09574,0 -0.04951,-0.23071 -0.32319,-0.5128c-0.27321,-0.28209 -0.49692,-0.59827 -0.49692,-0.70195c0,-0.17981 -0.07379,-0.35308 -0.49412,-1.1573c-0.86447,-1.65516 -1.13909,-2.13153 -1.50104,-2.6037c-0.51233,-0.66879 -0.80469,-1.21288 -0.80469,-1.4973c0,-0.11816 -0.07005,-0.2153 -0.15552,-0.2153c-0.08593,0 -0.15552,-0.12937 -0.15552,-0.28722c0,-0.15786 -0.13871,-0.41192 -0.30777,-0.56511c-0.16907,-0.15272 -0.27461,-0.33066 -0.23492,-0.39511c0.0397,-0.06445 -0.03176,-0.20363 -0.15926,-0.30964c-0.1275,-0.10555 -0.23165,-0.28162 -0.23165,-0.39044c0,-0.23585 -0.79862,-1.78172 -1.2423,-2.40521c-0.17233,-0.24192 -0.31291,-0.58192 -0.31291,-0.75612c0,-0.17467 -0.07005,-0.36008 -0.15552,-0.41332c-0.08593,-0.05277 -0.15552,-0.40258 -0.15552,-0.77761c0,-0.37503 -0.07005,-0.72483 -0.15599,-0.77761c-0.08547,-0.05277 -0.15552,-0.19755 -0.15552,-0.32178c0,-0.12423 -0.2097,-0.44508 -0.46656,-0.71362c-0.2564,-0.26901 -0.46656,-0.57585 -0.46656,-0.6828c0,-0.10695 -0.21016,-0.5936 -0.46656,-1.08164c-0.25687,-0.48805 -0.46843,-0.96769 -0.4703,-1.06576c-0.00187,-0.09854 -0.14011,-0.35354 -0.30731,-0.56744c-0.16766,-0.2139 -0.30591,-0.50439 -0.30777,-0.64544c-0.00187,-0.14104 -0.20503,-0.63983 -0.45162,-1.10873c-0.24659,-0.46843 -0.53522,-1.12321 -0.64123,-1.45433c-0.10602,-0.33159 -0.25406,-0.66926 -0.32926,-0.75052c-0.07519,-0.08126 -0.13684,-0.3045 -0.13684,-0.49599c0,-0.19195 -0.07005,-0.39184 -0.15552,-0.44508c-0.08547,-0.05277 -0.15552,-0.22464 -0.15552,-0.38203c0,-0.15739 -0.21016,-0.68513 -0.46656,-1.17318c-0.25687,-0.48805 -0.46703,-1.05502 -0.46703,-1.26005c0,-0.20549 -0.06959,-0.37316 -0.15552,-0.37316c-0.08547,0 -0.15552,-0.17093 -0.15552,-0.3797c0,-0.20876 -0.06959,-0.42313 -0.15552,-0.4759c-0.08547,-0.05277 -0.15552,-0.22231 -0.15552,-0.37643c0,-0.15459 -0.27975,-0.82478 -0.62208,-1.4903c-0.49832,-0.96815 -0.62208,-1.37587 -0.62208,-2.04326c0,-0.45909 -0.06725,-0.83412 -0.14992,-0.83412c-0.22091,0 -2.33889,-5.11726 -2.33889,-5.11726l-0.58332,-0.43481c-0.32085,-0.23912 -0.61835,-0.47964 -0.66132,-0.53428c-0.07239,-0.09341 -0.37362,-0.27181 -1.82749,-1.08351c-0.32085,-0.17934 -0.64964,-0.38904 -0.7309,-0.46656c-0.08126,-0.07753 -0.2947,-0.14104 -0.4745,-0.14104c-0.17981,0 -0.39324,-0.06445 -0.4745,-0.14291c-0.20549,-0.19849 -1.50944,-0.35868 -1.72428,-0.21156c-0.23305,0.16019 -0.83458,1.24183 -0.83458,1.50197c0,0.11255 -0.10275,0.41099 -0.22885,0.66318c-0.24192,0.48524 0.92752,33.31144 0.62676,34.04281c-0.10555,0.25687 -0.16486,0.54783 -0.13124,0.64684c0.03363,0.09948 -0.01261,0.22604 -0.10275,0.28162c-0.09014,0.05558 -0.16393,0.36615 -0.16393,0.69027c0,0.32412 -0.09761,0.79255 -0.21717,1.04054c-0.11909,0.24846 -0.26621,0.87101 -0.32692,1.38335c-0.06025,0.51233 -0.22744,1.10733 -0.37176,1.32216c-0.14385,0.21483 -0.35821,0.58192 -0.47544,0.8159c-0.11769,0.23352 -0.32692,0.54876 -0.46516,0.69961c-0.13871,0.15132 -0.42313,0.52027 -0.63283,0.81964c-0.61181,0.87428 -1.2764,1.55521 -1.51692,1.55521c-0.12283,0 -0.82197,0.55997 -1.55334,1.24464c-0.73184,0.6842 -1.39455,1.24417 -1.47348,1.24417c-0.07893,0 -0.44882,0.21016 -0.82197,0.46656c-0.37316,0.25687 -0.7706,0.46843 -0.88362,0.4703c-0.11302,0.00187 -0.38016,0.14011 -0.59406,0.30777c-0.2139,0.1672 -0.57912,0.30544 -0.8117,0.30731c-0.23305,0.00187 -0.67252,0.14338 -0.97703,0.31478c-0.63002,0.35354 -3.15152,0.47264 -2.9451,0.13871c0.07005,-0.11302 0.00374,-0.13964 -0.19335,-0.07706c-0.16486,0.05231 -0.43621,-0.00794 -0.60294,-0.13404c-0.16673,-0.12563 -0.517,-0.23118 -0.77854,-0.23398c-1.21988,-0.01261 -3.76427,-1.74856 -5.02338,-3.42707c-0.22464,-0.29937 -0.53148,-0.65758 -0.68233,-0.79582c-0.15085,-0.13824 -0.27368,-0.36569 -0.27368,-0.50533c0,-0.13964 -0.07005,-0.25406 -0.15552,-0.25406c-0.08593,0 -0.15739,-0.12236 -0.15926,-0.27228c-0.00187,-0.14992 -0.14011,-0.44742 -0.30777,-0.66085c-0.24005,-0.30731 -0.30497,-0.63796 -0.30731,-1.57062c-0.00234,-0.69074 -0.09434,-1.36933 -0.22231,-1.63321c-0.12049,-0.24846 -0.26714,-0.88923 -0.32645,-1.42398c-0.05931,-0.53475 -0.16206,-0.97189 -0.22885,-0.97189c-0.06632,0 -0.16159,-0.36755 -0.21156,-0.81684c-0.04997,-0.44928 -0.13544,-1.02653 -0.18961,-1.2834c-0.05371,-0.2564 -0.09901,-0.62862 -0.09948,-0.82664c-0.00093,-0.19802 -0.04297,-0.31851 -0.09387,-0.26761c-0.13077,0.13077 -0.48291,-1.282 -0.49132,-1.96994c-0.00374,-0.31665 -0.11255,-0.9817 -0.24192,-1.47769c-0.12937,-0.49645 -0.27461,-1.4973 -0.32319,-2.22447c-0.04857,-0.72717 -0.14758,-1.46181 -0.22044,-1.63321c-0.20409,-0.48104 -0.49318,-3.64471 -0.49785,-5.44978c-0.00234,-0.89717 -0.06585,-1.5851 -0.14151,-1.5384c-0.12236,0.07566 -0.25827,-6.11483 -0.177,-8.06749c0.01868,-0.44975 -0.02896,-0.70802 -0.12049,-0.65197c-0.09341,0.05838 -0.15085,-0.47404 -0.15085,-1.40249c0,-0.82291 0.05231,-1.46367 0.11676,-1.42398c0.06398,0.0397 0.14058,-1.6617 0.17,-3.78061l0.05324,-3.853l-0.45535,-0.32459c-1.14376,-0.81403 -45.45984,-2.96658 -45.45984,-0.75239c0,0.3881 0.07472,0.75192 0.1658,0.80843c0.09154,0.05651 0.13124,0.19382 0.08874,0.30497c-0.04297,0.11162 0.02008,0.33206 0.13964,0.48992c0.12003,0.15786 1.62433,5.0005 1.79106,5.34236c0.16673,0.34233 8.80446,19.95482 8.87872,20.00059c0.07426,0.04624 0.13544,0.24052 0.13544,0.432c0,0.19195 0.05698,0.41519 0.12703,0.49645c0.27134,0.31525 0.8061,5.1691 0.8061,5.3405c0,0.17093 0,1.00458 0,1.65142c0,0.64684 0.03549,2.0073 -0.11816,2.25342c-0.11629,0.18588 -0.19288,0.86307 -0.19288,1.70186c0,0.76593 -0.07005,1.43612 -0.15552,1.48889c-0.08547,0.05277 -0.15552,0.2181 -0.15552,0.36709c0,0.34047 -0.34981,1.1078 -0.50579,1.1092c-0.06398,0.00093 -0.11676,0.09247 -0.11676,0.20409c0,0.29516 -0.75379,1.76164 -1.01859,1.98114c-0.12376,0.10321 -0.22558,0.262 -0.22558,0.35261c0,0.23538 -0.6389,0.88549 -0.87008,0.88549c-0.10648,0 -0.33439,0.22744 -0.50673,0.50579c-0.68093,1.09939 -4.53814,4.57924 -5.95418,5.37225c-0.37409,0.20923 -0.71456,0.42827 -0.75752,0.48618c-0.20129,0.27415 -1.04989,0.73651 -1.38568,0.75472c-0.20643,0.01168 -0.41659,0.08407 -0.46703,0.16159c-0.18074,0.27788 -1.74343,0.5142 -1.90175,0.28816c-0.14805,-0.21156 -0.47964,0.05044 -0.38297,0.30217c0.06538,0.17047 -0.10368,0.21764 -0.77621,0.21764c-0.49132,0 -0.82151,-0.06212 -0.7706,-0.14478c0.13684,-0.22091 -0.2139,-0.37036 -0.43574,-0.18635c-0.19522,0.16206 -0.87942,0.07286 -0.87989,-0.11489c0,-0.05418 -0.2592,-0.11676 -0.57585,-0.13964c-0.31618,-0.02242 -0.62862,-0.1275 -0.69401,-0.23305c-0.06492,-0.10602 -0.27882,-0.19242 -0.47404,-0.19242c-0.72857,0 -2.92221,-1.28714 -2.92221,-1.71494c0,-0.09948 -0.14898,-0.31431 -0.33066,-0.47731c-0.41893,-0.37549 -2.15815,-2.49348 -2.15815,-2.62845c0,-0.05511 -0.19709,-0.39324 -0.43807,-0.75099c-0.24099,-0.35728 -0.5581,-0.90978 -0.70428,-1.22689c-0.14618,-0.31711 -0.32972,-0.61601 -0.40725,-0.66412c-0.25266,-0.15599 -0.62816,-1.05082 -0.62816,-1.4959c0,-0.23865 -0.07005,-0.47684 -0.15552,-0.52961c-0.08547,-0.05277 -0.15552,-0.26294 -0.15552,-0.46656c0,-0.20409 -0.07005,-0.41379 -0.15552,-0.46656c-0.08547,-0.05324 -0.15552,-0.26294 -0.15552,-0.46703c0,-0.20363 -0.07005,-0.41379 -0.15552,-0.46656c-0.08547,-0.05277 -0.15552,-0.36101 -0.15552,-0.68513c0,-0.32412 -0.10929,-0.8075 -0.24239,-1.0751c-0.1331,-0.26714 -0.27882,-0.75005 -0.32365,-1.0737c-0.04437,-0.32319 -0.13871,-0.7281 -0.2097,-0.89903c-0.07099,-0.1714 -0.21483,-0.64544 -0.31992,-1.05409c-0.10555,-0.40865 -0.25173,-0.77994 -0.32552,-0.82571c-0.07379,-0.04577 -0.1345,-0.24986 -0.1345,-0.45349c0,-0.20363 -0.05651,-0.40538 -0.12563,-0.44835c-0.06959,-0.04297 -0.22277,-0.54082 -0.34093,-1.10733c-0.11816,-0.56604 -0.27134,-1.06436 -0.34047,-1.10686c-0.06959,-0.04297 -0.1261,-0.35167 -0.1261,-0.68607c0,-0.33486 -0.14011,-0.85747 -0.31104,-1.16244c-0.17093,-0.3045 -0.31104,-0.82758 -0.31104,-1.16197c0,-0.33439 -0.06538,-0.64871 -0.14525,-0.69774c-0.07986,-0.04951 -0.22231,-0.49132 -0.31618,-0.9817c-0.09434,-0.49038 -0.23912,-1.01299 -0.32178,-1.16151c-0.08266,-0.14852 -0.15038,-0.82711 -0.15038,-1.50758c0,-0.68046 -0.06959,-1.2806 -0.15552,-1.33337c-0.08547,-0.05277 -0.15552,-0.26294 -0.15552,-0.46656c0,-0.20409 -0.07005,-0.41379 -0.15552,-0.46656c-0.08547,-0.05324 -0.15552,-0.33299 -0.15552,-0.62255c0,-0.28909 -0.07005,-0.56931 -0.15552,-0.62208c-0.08547,-0.05277 -0.15552,-0.25547 -0.15552,-0.44975c0,-0.19475 -0.04997,-0.40398 -0.11115,-0.46516c-0.14244,-0.14198 -0.49505,-1.47208 -0.50393,-1.89988c-0.00374,-0.17934 -0.12143,-0.55577 -0.26154,-0.83645c-0.14011,-0.28069 -0.28956,-0.81824 -0.33206,-1.1942c-0.04203,-0.37596 -0.13777,-0.7211 -0.21203,-0.76686c-0.07379,-0.04577 -0.1345,-0.21717 -0.1345,-0.38063c0,-0.16346 -0.14011,-0.54643 -0.31151,-0.85093c-0.17093,-0.30497 -0.31104,-0.72763 -0.31104,-0.94013c0,-0.2125 -0.06725,-0.50813 -0.14992,-0.65665c-0.08266,-0.14852 -0.22744,-0.67112 -0.32178,-1.16151c-0.09434,-0.49038 -0.23632,-0.93219 -0.31618,-0.98123c-0.07986,-0.04951 -0.14525,-0.39651 -0.14525,-0.77153c0,-0.37503 -0.07005,-0.72483 -0.15552,-0.77761c-0.08547,-0.05277 -0.15552,-0.25313 -0.15552,-0.44461c0,-0.19195 -0.06492,-0.41519 -0.14431,-0.49645c-0.07986,-0.08126 -0.17327,-0.39277 -0.20876,-0.69214c-0.03503,-0.29937 -0.07519,6.77568 -0.08874,15.72306c-0.02522,16.58146 -3.86888,26.43067 -4.87627,27.93965c-0.41145,0.61648 -0.74818,1.17458 -0.74818,1.2409c0,0.20923 -2.23895,2.38279 -2.45471,2.38279c-0.11349,0 -0.63189,0.2975 -1.1517,0.66085c-0.51934,0.36382 -1.05689,0.73137 -1.1942,0.81684c-0.13731,0.08547 -0.53101,0.33486 -0.87428,0.55483c-1.61779,1.03354 -1.0463,1.46367 -7.00188,1.50898l-5.75553,-0.42547l-0.82011,-0.62489c-0.45068,-0.34373 -0.87148,-0.62489 -0.93546,-0.62489c-0.06352,0 -0.58099,-0.41986 -1.14936,-0.93313c-0.56884,-0.51327 -1.13021,-0.93313 -1.24791,-0.93313c-0.76686,0 -4.30322,-5.14294 -4.32797,-6.29417c-0.00187,-0.08874 -0.14058,-0.33626 -0.30777,-0.55016c-0.1672,-0.2139 -0.30591,-0.54222 -0.30777,-0.7295c-0.00187,-0.18728 -0.06352,-0.37829 -0.13777,-0.4236c-0.07379,-0.04577 -0.22371,-0.41753 -0.33393,-0.82618c-0.10975,-0.40818 -0.2592,-0.80936 -0.33253,-0.89063c-0.07286,-0.08126 -0.13404,-0.29096 -0.13591,-0.46656c-0.00187,-0.17514 -0.14011,-0.49365 -0.30777,-0.70755c-0.16907,-0.21624 -0.30544,-0.63423 -0.30731,-0.94107c-0.00187,-0.30404 -0.09107,-0.63983 -0.19802,-0.74632c-0.12096,-0.12096 -0.22698,-0.86214 -0.28069,-1.962c-0.04764,-0.97236 -0.16113,-1.86112 -0.25173,-1.97554c-0.09107,-0.11442 -0.20876,-0.52307 -0.26154,-0.90837c-0.05231,-0.38483 -0.16019,-1.01486 -0.23912,-1.39969c-0.35961,-1.75323 -0.4731,-2.58828 -0.38717,-2.85823c0.06025,-0.19055 0.03269,-0.255 -0.07986,-0.18541c-0.15832,0.09808 -0.26154,-1.46601 -0.23211,-3.52141c0.0042,-0.31711 -0.04997,-0.54035 -0.12143,-0.49645c-0.07146,0.04437 -0.12937,-0.05978 -0.12937,-0.23071c0,-0.1714 0.06959,-0.35448 0.15552,-0.40725c0.08547,-0.05324 0.15552,-0.16626 0.15552,-0.25173c0,-0.08547 -0.06679,-0.11442 -0.14805,-0.06445c-0.37549,0.23211 -1.68598,-92.1886 -1.32076,-92.43473c0.0906,-0.06118 0.25266,-0.5992 0.36055,-1.19653c0.10742,-0.59687 0.25126,-1.15684 0.31898,-1.24417c0.06819,-0.08733 0.16439,-0.4236 0.2139,-0.74725c0.04997,-0.32319 0.19942,-0.80656 0.33299,-1.0737c0.1331,-0.26714 0.24239,-0.61088 0.24239,-0.7636c0,-0.15319 0.06959,-0.32132 0.15552,-0.37456c0.08547,-0.05277 0.15552,-0.26247 0.15552,-0.46656c0,-0.20363 0.07005,-0.41379 0.15552,-0.46656c0.08547,-0.05277 0.15552,-0.22978 0.15552,-0.39324c0,-0.16346 0.14198,-0.5497 0.31525,-0.85887c0.17374,-0.30871 0.39231,-0.92332 0.48618,-1.3656c0.09387,-0.44228 0.30217,-0.99011 0.46236,-1.21708c0.16019,-0.22698 0.29143,-0.48945 0.29143,-0.58332c0,-0.09387 0.07005,-0.17047 0.15552,-0.17047c0.08593,0 0.15599,-0.13124 0.15599,-0.29189c0,-0.16066 0.10835,-0.38203 0.24099,-0.49225c0.13217,-0.11022 0.37409,-0.49225 0.53662,-0.84906c0.16253,-0.35728 0.40398,-0.73931 0.53662,-0.84906c0.13264,-0.11022 0.24099,-0.28956 0.24099,-0.39884c0,-0.45676 2.6051,-2.82414 3.75493,-3.41213c1.39922,-0.71549 3.99965,-0.97329 4.9636,-0.49225c0.27882,0.13871 0.59873,0.25266 0.71129,0.25266c0.11255,0 0.45395,0.13964 0.75846,0.31104c0.3045,0.17093 0.67439,0.31244 0.82151,0.31431c0.14711,0.00187 0.44228,0.14058 0.65618,0.30777c0.2139,0.1672 0.44461,0.30591 0.5128,0.30777c1.13722,0.03176 6.6323,5.39701 6.64585,6.48893c0.00187,0.15459 1.96386,6.69208 2.0484,6.63978c0.09714,-0.06025 0.13777,0.71316 0.11255,2.13993c-0.02896,1.64021 0.6389,19.52095 0.61601,20.02067c-0.04016,0.86261 -0.03316,0.87848 0.37829,0.86914c1.39222,-0.03223 85.68613,1.42725 85.81457,1.37354c0.24286,-0.10135 0.36475,-0.13124 1.20727,-0.29189c0.56511,-0.10788 0.57351,-0.11629 0.72156,-0.73511c0.06912,-0.28909 0.04997,-0.40632 -0.05604,-0.34093c-0.15412,0.09527 -0.27835,-11.53146 -0.16953,-15.79965l0.04203,-1.64862l-0.65524,-0.52915c-1.04895,-0.84673 -0.88456,-4.80621 -0.35401,-4.80621c0.34327,0 0.07799,-0.27928 -0.54783,-0.57632c-1.28153,-0.60807 -3.54243,-3.3771 -3.72083,-4.55682c-0.01962,-0.12843 -0.08033,-0.42266 -0.13497,-0.65431c-0.1261,-0.53335 0.84719,-2.57848 1.63648,-3.43875c0.29937,-0.32645 0.65524,-0.83365 0.79068,-1.12695c0.26014,-0.56231 1.04895,-1.46834 1.27873,-1.46834c0.07426,0 0.39371,-0.20596 0.70942,-0.45769c0.66599,-0.53055 10.73517,-5.35824 11.50437,-5.42316c0.45068,-0.03783 0.85747,-0.1303 0.9037,-0.20503c0.04624,-0.07519 0.29003,-0.13637 0.54129,-0.13637c0.53522,0 0.57865,-0.19382 0.14665,-0.65805c-0.1714,-0.18354 -0.31104,-0.4236 -0.31104,-0.53288c0,-0.10975 -0.14011,-0.44882 -0.31151,-0.75332c-0.33299,-0.59313 -0.46143,-2.52243 -0.15552,-2.33329c0.09014,0.05604 0.15552,-0.09387 0.15552,-0.35541c0,-0.74678 0.99711,-2.21092 1.50524,-2.21092c0.05978,0 0.27228,-0.15412 0.47264,-0.34233c0.31945,-0.3003 0.53288,-0.34187 1.72101,-0.33673c1.8798,0.00747 2.59529,0.23118 3.76427,1.17552c0.2975,0.24005 0.59967,0.43667 0.67206,0.43667c0.07192,0 0.4236,0.20176 0.78181,0.44788c1.50898,1.03868 22.40393,-3.24773 23.0419,-3.24773c1.13909,0 1.17131,-0.01074 1.74996,-0.5964c0.8145,-0.82384 1.75604,-2.16235 1.75604,-2.49628c0,-0.15272 0.0467,-0.32412 0.10368,-0.3811M403.64568,110.81499c-0.1345,-0.34981 -1.40156,-0.27975 -1.59865,0.0878c-0.22371,0.41799 -0.20176,1.36933 0.03363,1.45667c0.26901,0.09994 1.66637,-1.27966 1.56502,-1.54447M393.69605,112.00172l0.02382,-0.69961l-0.62208,-0.02242c-0.69307,-0.02522 -1.6687,0.11022 -4.20001,0.58332c-2.32161,0.43387 -2.98106,0.57165 -7.77746,1.62807c-1.55708,0.3428 -1.89848,0.61555 -1.65329,1.31936c0.78788,2.25949 -0.4278,2.88391 -3.30378,1.69672c-3.0399,-1.25538 -4.47042,-2.03439 -6.53563,-3.55877c-1.13115,-0.83505 -1.74249,-0.98824 -2.1843,-0.54643c-0.49272,0.49272 -0.39511,0.64544 1.88727,2.94416c0.93406,0.94107 2.03485,2.15955 2.44537,2.70784c0.41052,0.54876 0.94107,1.16057 1.17879,1.36046c1.51458,1.27453 0.83458,3.63116 -1.04755,3.63116c-0.95087,0 -1.66963,-0.55063 -2.15722,-1.65329c-0.73884,-1.6701 -1.94985,-3.32386 -2.4351,-3.32386c-0.44975,0 -3.96976,1.55148 -4.0613,1.79013c-0.11162,0.29096 0.14618,0.46937 1.47115,1.01532c1.54447,0.63703 4.6138,2.4323 4.82163,2.8204c1.26379,2.36131 -0.857,3.57512 -3.57138,2.04466c-1.79153,-1.01065 -3.07446,-1.59024 -4.72168,-2.13246c-0.87895,-0.29003 -1.84337,-0.65711 -2.14274,-0.8159c-2.25015,-1.19513 -6.68414,0.2536 -7.48323,2.44491c-0.18635,0.51187 -0.39931,0.96769 -0.47217,1.01299c-0.76546,0.4731 0.86914,1.93024 2.16515,1.93024c1.41977,0 4.31957,1.66823 4.65396,2.67795c0.27835,0.84066 0.01635,1.59491 -0.73511,2.11331c-1.09425,0.75566 -1.16804,2.24875 -0.18775,3.80116c1.52626,2.41642 2.34263,4.71748 2.52383,7.11288l0.11115,1.47442l0.76219,0.62208c3.94034,3.21597 4.87253,6.68695 2.58361,9.62083c-0.23211,0.2975 -0.70195,0.9364 -1.04381,1.41977c-0.80189,1.13255 -2.67142,2.68543 -3.70355,3.07633c-1.34411,0.5086 -1.38101,0.57585 -1.27079,2.29359c0.24192,3.76707 1.31936,10.2999 2.16702,13.13991c0.20643,0.69121 0.41799,1.4562 0.47077,1.70093c0.08453,0.39417 0.14291,0.432 0.5156,0.33393c1.81862,-0.47684 7.58131,0.70335 9.33314,1.91156c0.23118,0.15972 1.19046,0.69728 2.13153,1.19466c2.29452,1.21241 4.2327,2.40241 5.64407,3.46443c0.64123,0.48291 1.36186,1.0214 1.60145,1.19747c0.23912,0.1756 1.31282,1.03868 2.38559,1.91716c2.43697,1.99702 1.97601,1.90222 9.27663,1.90222c13.71436,0 20.51199,-0.84906 25.67315,-3.20617c0.82151,-0.37549 1.56082,-0.68233 1.64301,-0.68233c0.24192,0 0.95087,-0.81917 1.13862,-1.31516c0.21577,-0.57071 0.22231,-10.91731 0.00841,-13.30664c-0.32178,-3.59427 -0.48945,-5.25363 -0.62115,-6.14379c-0.07613,-0.51327 -0.18635,-1.49356 -0.24519,-2.17776c-0.17654,-2.04886 -0.63656,-5.45539 -0.76453,-5.66275c-0.08173,-0.13217 -0.27602,0.0425 -0.60901,0.54643c-0.29049,0.44041 -0.84159,0.96582 -1.35766,1.29508c-0.47824,0.30497 -1.30769,0.85 -1.8443,1.21054c-2.57194,1.73035 -6.14939,1.9209 -9.76048,0.51887c-1.9265,-0.74772 -4.03141,-2.4748 -4.38962,-3.60174c-0.09808,-0.30824 -0.35821,-0.7281 -0.57772,-0.93313c-3.21737,-3.00301 -3.15993,-16.30218 0.09808,-22.69489c0.15272,-0.29983 0.36148,-0.8598 0.46376,-1.24417c0.52027,-1.95826 3.49339,-3.51207 5.96025,-3.11463c2.25202,0.36242 5.01871,2.57007 7.02975,5.60904c0.42313,0.6389 0.98123,1.44219 1.24043,1.78546c0.25874,0.3428 0.60294,0.91865 0.765,1.27873c0.49972,1.1148 0.77994,0.0369 0.41379,-1.59164c-0.07706,-0.34187 -0.28629,-1.95172 -0.4647,-3.57746c-0.91772,-8.34864 -0.66785,-7.76999 -3.02823,-6.99939c-1.5809,0.51607 -1.73409,0.49926 -2.50655,-0.27321c-1.63461,-1.63461 -1.03074,-3.46116 1.24744,-3.77221c2.57241,-0.35167 3.26034,-0.71409 4.42745,-2.33235c1.74436,-2.41782 1.8359,-2.80592 1.16711,-4.95146c-0.65011,-2.08436 -1.52486,-2.55653 -4.43866,-2.39587l-1.53933,0.085l-1.5795,1.06483c-1.86532,1.25725 -3.75726,3.22345 -4.74924,4.93465c-1.45854,2.51636 -3.94314,2.11939 -3.94314,-0.62909c0,-0.54923 -0.10788,-0.89156 -0.42733,-1.35159c-0.37409,-0.53849 -0.43761,-0.80376 -0.50579,-2.10818c-0.0425,-0.82057 -0.14478,-1.48562 -0.22698,-1.47769c-0.42173,0.04016 -0.75939,0.87195 -0.85887,2.11658c-0.15972,1.99469 -0.40725,2.23988 -2.2254,2.20625c-1.47255,-0.02755 -1.73082,-0.37783 -1.59024,-2.15955c0.06071,-0.77013 0.12096,-1.71494 0.13357,-2.10024M251.48612,123.42529c-2.5257,-1.37961 -3.76333,-1.08958 -5.34563,1.25351c-0.34654,0.51373 -0.85607,1.18766 -1.13208,1.49823c-1.01766,1.14516 -2.50609,4.65116 -3.676,8.65875l-0.80376,2.75361l-0.0892,5.91074c-0.17747,11.75983 0.06305,37.49837 0.36242,38.73133c0.21343,0.87942 0.28956,2.34636 0.39698,7.62194c0.07332,3.59287 0.21016,9.82259 0.30497,13.84373c0.09481,4.02067 0.24192,10.95047 0.32739,15.39894c0.13544,7.08019 0.3881,11.83549 0.69494,13.10255c0.11909,0.49178 -0.10181,0.4759 9.33454,0.65571c4.70533,0.0892 10.74918,0.24192 13.4304,0.3386c5.96865,0.21577 5.26904,0.61601 6.01816,-3.44155c0.85887,-4.65069 0.8598,-4.84591 0.05651,-13.92172c-0.27975,-3.15993 -0.29703,-3.92259 -0.14805,-6.53283c0.09247,-1.62573 0.14992,-4.67031 0.1275,-6.76634c-0.05978,-5.55533 0.75659,-7.29642 3.06372,-6.53516c1.00131,0.33066 1.39455,1.15637 2.18477,4.59091c0.16019,0.69634 0.41519,1.29554 0.70802,1.66263c0.25173,0.31618 0.45769,0.6459 0.45769,0.73371c0,0.08733 0.20036,0.38904 0.44555,0.67019c0.82011,0.94013 1.10967,1.71213 1.10967,2.95817c0,0.88829 0.10135,1.40016 0.46236,2.33749c0.25406,0.65991 0.50626,1.67337 0.56044,2.25202c0.10555,1.12975 0.41286,2.53831 0.7734,3.54056c0.28956,0.8061 0.90978,4.23317 1.31282,7.25766c0.50112,3.7582 0.89296,5.9028 1.30488,7.1465c1.00552,3.03243 1.81535,5.03926 2.1815,5.40541l0.39324,0.39324l1.13348,-0.26341c0.62302,-0.14478 1.86812,-0.32786 2.76622,-0.40678c1.54167,-0.13544 8.84229,-1.78266 9.79971,-2.21092c0.2139,-0.09574 0.59873,-0.22744 0.8556,-0.29236c2.74427,-0.69401 4.71748,-1.31422 4.97061,-1.56128c0.49739,-0.48618 -0.12843,-2.33422 -2.70878,-8.00211c-2.25669,-4.95613 -3.06839,-6.83359 -3.16086,-7.31043c-0.09948,-0.5142 -3.62182,-8.7601 -4.21916,-9.87723c-0.20596,-0.3853 -0.59313,-1.40716 -0.86074,-2.27164c-0.26761,-0.86401 -0.58706,-1.7042 -0.70989,-1.86625c-0.75659,-0.99945 1.13956,-5.24709 2.59763,-5.81874c0.28255,-0.11069 0.93359,-0.3895 1.44686,-0.61975c1.00739,-0.45255 2.18944,-0.8528 2.9904,-1.01252c0.40351,-0.0808 0.58659,-0.2578 0.93313,-0.9037c0.42266,-0.78695 0.48711,-0.83225 3.07586,-2.17029c3.19776,-1.65282 4.06504,-2.21513 5.31668,-3.44715c0.52868,-0.52027 1.25024,-1.12087 1.60332,-1.33431c0.35308,-0.21343 1.28527,-0.93173 2.07175,-1.59678c4.17199,-3.52655 6.37684,-3.50553 10.80756,0.10228c0.70895,0.57725 1.52159,1.14656 1.80554,1.26519c0.77854,0.32552 2.69523,2.45285 2.91707,3.23792c0.10088,0.35634 0.35448,1.17271 0.56371,1.81441c0.23632,0.72343 0.41986,1.7481 0.48384,2.69804c0.14338,2.1334 -0.36755,1.9676 6.07514,1.9704c7.91897,0.0028 10.45542,0.71409 12.16942,3.41119l0.43948,0.69167l0.00654,8.48595c0.00701,9.04732 0.17467,15.62451 0.43994,17.27407c0.0892,0.55623 0.27602,1.88587 0.41472,2.95537c0.49599,3.82311 0.84953,5.66695 1.12881,5.88646c0.42593,0.33486 3.66619,0.03643 8.19826,-0.75519c0.94107,-0.16439 2.13106,-0.37082 2.64433,-0.45909c0.51327,-0.0878 1.75277,-0.22651 2.75501,-0.30777c2.64059,-0.2139 2.51776,-0.0836 2.40568,-2.55372c-0.13591,-2.98526 -0.93826,-13.05911 -1.18532,-14.8768c-1.24977,-9.1949 -0.03503,-15.91641 3.48452,-19.2879l0.56838,-0.54409l1.81862,0.00887c2.43463,0.01214 5.70245,1.2339 7.17826,2.68356c0.32132,0.31571 1.12321,1.09799 1.78219,1.73876c1.5865,1.54214 4.14537,6.65285 4.24157,7.53274c0.0383,0.34934 0.26901,1.05502 0.5128,1.56876c0.24379,0.51327 0.73884,1.8429 1.09939,2.95537c0.36101,1.112 0.8953,2.53878 1.18813,3.1702c0.66739,1.44079 1.29368,3.29117 1.29368,3.82358c0,0.44321 1.36606,3.55831 2.32161,5.29426c0.32926,0.59873 1.58837,2.9918 2.79798,5.31808c2.59062,4.98369 2.28285,4.75017 4.96547,3.76847c0.45629,-0.1672 1.36653,-0.44788 2.02224,-0.62442c1.94939,-0.52401 6.95129,-1.82656 9.18696,-2.39213c2.46592,-0.62395 2.3884,-0.54222 2.29079,-2.41455c-0.09948,-1.90875 -2.22867,-11.79626 -2.74941,-12.76956c-0.28816,-0.53802 -1.2367,-5.1322 -1.23903,-5.99901c-0.00327,-1.2339 -0.3003,-2.40007 -1.23156,-4.83424c-0.4334,-1.13255 -0.78835,-2.25669 -0.78835,-2.49768c0,-0.24145 -0.10275,-0.57445 -0.22838,-0.74071c-0.12563,-0.16626 -0.23071,-0.54689 -0.23398,-0.84626c-0.0028,-0.29937 -0.21437,-1.05782 -0.46983,-1.68505c-0.45582,-1.11854 -0.64871,-1.9676 -0.94247,-4.14817c-0.1686,-1.24977 -0.39371,-1.50804 -1.22362,-1.40109c-3.52235,0.45209 -20.33499,0.48992 -35.36497,0.0794c-6.29044,-0.17187 -6.17134,-0.14805 -6.93354,-1.38661c-0.26107,-0.425 -0.6048,-0.84206 -0.76266,-0.92659c-0.45816,-0.24519 -1.12928,-1.63975 -1.30021,-2.70084c-0.0864,-0.53615 -0.36849,-1.35999 -0.62722,-1.83029c-1.39035,-2.53037 -4.03795,-10.82531 -4.42138,-13.85447c-0.25547,-2.01851 -0.60948,-2.19411 -2.89606,-1.43845c-1.39642,0.46143 -1.44266,0.50066 -3.40792,2.88952c-0.687,0.83552 -1.61172,1.76304 -2.0554,2.06241c-0.44368,0.2989 -1.21521,0.82011 -1.71494,1.15777c-2.60743,1.76304 -5.7711,1.53887 -10.01174,-0.70849c-3.51394,-1.86252 -4.70907,-4.62407 -3.47751,-8.03713c0.49132,-1.3628 0.37129,-1.78359 -0.61415,-2.14834c-0.38437,-0.14244 -1.18859,-0.44041 -1.78733,-0.66178c-0.83178,-0.30777 -1.22362,-0.5609 -1.65889,-1.07043l-0.57024,-0.66739l-3.1632,-0.17654c-4.53113,-0.25313 -10.91264,-0.86447 -13.62656,-1.30582c-0.85607,-0.13918 -1.59117,-0.03736 -1.59117,0.22044c0,0.02755 0.41005,0.37176 0.91164,0.76593c0.54456,0.4278 0.98917,0.92239 1.10453,1.22829c0.10602,0.28162 0.36989,0.92612 0.58612,1.43238c0.82057,1.91856 0.03456,5.38673 -1.54681,6.82939c-1.89661,1.72941 -4.1533,2.35103 -9.11457,2.50982c-1.73782,0.05604 -3.9749,0.20269 -4.97154,0.32645c-0.99711,0.1233 -2.33142,0.22464 -2.96565,0.22464c-0.98543,0 -1.3287,0.0794 -2.36598,0.54783c-3.64191,1.64442 -6.78502,1.73735 -9.63625,0.28442c-0.72717,-0.37036 -1.69719,-0.74351 -2.15488,-0.82945c-1.67757,-0.31478 -3.75306,-1.93584 -5.08129,-3.96929c-0.90324,-1.38288 -2.20112,-3.94501 -2.40287,-4.7441c-0.09714,-0.38483 -0.38343,-1.28107 -0.63516,-1.99142c-0.54176,-1.52579 -0.58192,-2.50609 -0.14758,-3.60828c0.59079,-1.49823 0.51233,-1.51131 -3.94921,-0.6445c-2.63032,0.51093 -2.84982,0.61508 -3.27389,1.55568c-0.59453,1.31843 -2.0568,1.48889 -2.66581,0.31058c-0.13637,-0.26387 -0.16206,-6.84714 -0.16206,-6.84714c0.22044,-4.23971 0.25874,-8.00771 0.10461,-10.31811c-0.09154,-1.36887 -0.26948,-4.16872 -0.39558,-6.22178c-0.37222,-6.06439 -0.82478,-8.42197 -2.03485,-10.60066c-0.83131,-1.49637 -3.05952,-3.39204 -5.65247,-4.80808M382.45883,127.64725c3.17628,-0.8542 5.83228,0.37596 7.47903,3.4635c2.96284,5.5544 3.99171,11.61599 3.57792,21.07616l-0.15552,3.55317c0,0 -0.67346,4.13836 2.22634,4.55729c8.38087,1.21148 11.91069,2.0101 13.5565,3.06886c0.41472,0.26667 1.31376,0.84906 1.99796,1.29414c0.68467,0.44508 1.46461,0.92098 1.73315,1.05829c1.89941,0.96722 3.97303,6.32733 3.47704,8.98614c-0.51093,2.73867 -2.20532,4.42372 -5.70618,5.67442c-1.7934,0.64123 -1.84851,0.68186 -2.30573,1.71634c-0.69214,1.56455 -3.19963,2.08109 -10.09207,2.07969c-6.22178,-0.0014 -15.49048,-1.75697 -18.91568,-3.58306c-0.29937,-0.15972 -1.2792,-0.63843 -2.17776,-1.0639c-1.94705,-0.92239 -3.2921,-1.72194 -5.30687,-3.15479c-0.82291,-0.58519 -1.56642,-1.0639 -1.65235,-1.0639c-0.33533,0 -2.34543,-2.32535 -2.80499,-3.2454c-1.48282,-2.96751 -1.10686,-4.93044 1.50851,-7.87647c2.70644,-3.04784 6.0345,-4.38495 12.19651,-4.90009c2.53691,-0.21203 2.59389,-0.26854 1.18159,-1.17038c-3.55224,-2.26884 -5.5105,-5.81967 -6.77381,-12.28384c-0.3484,-1.78266 -0.40818,-7.83958 -0.08827,-8.94411c0.82758,-2.85683 2.58221,-6.05085 4.27427,-7.7812c0.52634,-0.53849 1.76117,-1.18953 2.77043,-1.46087M385.51554,131.5577c-3.91699,-1.81815 -7.81856,4.84685 -6.48285,11.07563l0.16766,0.78181l0.50066,-0.65665c1.34552,-1.76398 3.36215,-1.28153 3.74699,0.89717c0.06071,0.34233 0.39044,1.46227 0.73324,2.48881c1.09799,3.28743 0.91351,4.59325 -0.68607,4.84731c-1.33477,0.21203 -1.97554,-0.53428 -2.74614,-3.20056c-1.03587,-3.58446 -1.52579,-4.08792 -1.43752,-1.47769c0.13871,4.10287 2.94136,8.76897 5.50116,9.15894c0.36475,0.05558 1.1559,0.20596 1.7579,0.33346c0.602,0.12797 1.54727,0.2111 2.09977,0.18541l1.00505,-0.04717l0.12516,-3.65545c0.13404,-3.92353 0.0439,-8.35191 -0.19335,-9.48866c-0.08033,-0.38483 -0.19242,-1.57483 -0.24939,-2.64386c-0.20736,-3.89597 -1.90782,-7.7004 -3.84226,-8.5985M406.02193,132.8411c-1.95359,-0.9831 -2.98573,-0.50066 -4.26819,1.99562c-3.26875,6.36423 -2.55372,18.80499 1.19046,20.6988c0.31618,0.16019 0.96395,0.50766 1.43892,0.77247c2.53224,1.41183 5.73701,1.42678 7.46922,0.03456c0.31992,-0.25687 0.82991,-0.58566 1.13395,-0.7309c0.70288,-0.33486 0.71222,-0.36428 0.82431,-2.60837c0.39464,-7.90776 -3.50647,-18.00684 -7.78867,-20.16219M407.98813,142.09391c1.0681,-0.89857 2.23521,-0.24613 2.75875,1.5412c0.17887,0.60994 0.45722,1.52953 0.61882,2.04279c1.15917,3.68394 0.80236,5.43717 -1.10593,5.43717c-0.93266,0 -1.12975,-0.33159 -1.59491,-2.68029c-0.22511,-1.13582 -0.58005,-2.45144 -0.78881,-2.92408c-0.81544,-1.8443 -0.78881,-2.65834 0.11209,-3.4168M390.18678,163.48859c-2.33282,-0.45302 -9.99026,-0.43667 -11.86632,0.02475c-2.25763,0.55577 -3.40419,0.95928 -4.87627,1.71587c-0.80002,0.41145 -1.5454,0.74772 -1.65609,0.74772c-0.97423,0 -2.04886,2.60463 -1.61126,3.90438c0.47964,1.42351 4.76652,4.90663 6.38057,5.18404c0.31384,0.05371 1.08351,0.3853 1.7112,0.73697c2.20439,1.23483 3.98657,1.90222 7.36928,2.75922c5.35357,1.35626 6.47351,1.5356 10.3452,1.65469c4.65116,0.14338 5.58242,0.04157 6.44222,-0.70195c0.53802,-0.4661 1.11854,-0.7225 2.98106,-1.31749c1.27219,-0.40632 2.80265,-0.94527 3.40139,-1.19793c3.38878,-1.42958 3.65545,-1.6715 3.65545,-3.31265c0,-3.72317 -3.65031,-7.8648 -6.93214,-7.8648c-0.47964,0 -1.30348,-0.10181 -1.83076,-0.22558c-0.52728,-0.12423 -1.83356,-0.37269 -2.90306,-0.55203c-1.0695,-0.17981 -2.45378,-0.42827 -3.07633,-0.5525c-0.62302,-0.12376 -1.43052,-0.22558 -1.79527,-0.22558c-0.36428,0 -1.06576,-0.10508 -1.55848,-0.23305c-0.49272,-0.12843 -1.27499,-0.23352 -1.73829,-0.23352c-0.46329,0 -1.56222,-0.13964 -2.4421,-0.31058M384.15368,164.4404c2.07081,-0.82571 3.21971,1.14236 3.68814,6.31706c0.0892,0.99011 -0.3031,1.74249 -1.10873,2.12452c-1.51365,0.71829 -2.79238,-0.425 -2.9946,-2.67795c-0.0439,-0.48571 -0.2522,-1.60799 -0.46283,-2.49441c-0.50393,-2.11752 -0.32319,-2.79004 0.87802,-3.26922M403.34257,166.74193c0.59266,-0.36101 1.50431,-0.3839 2.14227,-0.05418c1.55988,0.80656 1.79573,7.14324 0.29516,7.91944c-1.67197,0.86447 -2.75548,-0.19989 -2.97779,-2.92501c-0.07799,-0.95648 -0.21904,-2.07548 -0.31338,-2.48694c-0.22511,-0.98076 0.13497,-2.01477 0.85373,-2.45331M391.82419,174.36854c0.79535,-0.48478 1.68458,-0.40725 4.54001,0.39511c0.4278,0.12049 1.12601,0.25827 1.55148,0.30637c1.04895,0.11909 1.24837,0.35634 1.24837,1.48656c0,1.91529 -1.1134,2.3515 -3.97303,1.55661c-0.9803,-0.27275 -2.14367,-0.595 -2.58548,-0.71689c-1.75323,-0.48244 -2.18851,-2.16982 -0.78134,-3.02776M412.98115,233.70433c-0.12423,-0.32319 -1.14843,-0.24753 -2.6957,0.20036c-1.87233,0.54176 -2.45144,0.65384 -3.41259,0.66178c-0.89717,0.00701 -6.54871,1.39642 -7.33519,1.80321c-0.53242,0.27555 -0.56184,0.56557 -0.14058,1.39222c0.1714,0.3358 0.31151,0.77854 0.31151,0.98403c0,0.84252 2.5654,4.04962 3.83479,4.7936c1.03447,0.60621 2.51589,0.48711 4.0655,-0.32739c0.61695,-0.32412 1.12134,-0.64497 1.12134,-0.71316c0,-0.06819 0.46049,-0.62582 1.02373,-1.2395c2.05213,-2.23614 3.74605,-6.20217 3.22718,-7.55516M306.84655,235.54863v-1.13115l-0.73884,0.02288c-1.80321,0.05604 -3.48125,0.29983 -4.70533,0.68327c-1.48095,0.4647 -5.645,1.54447 -8.01051,2.07782c-0.8556,0.19242 -2.29032,0.54783 -3.18889,0.78881c-0.8981,0.24099 -1.82562,0.48244 -2.06101,0.53568c-0.70522,0.16066 -0.44695,0.99571 1.54821,5.0089c2.58361,5.19665 6.835,6.21525 10.63569,2.54765c0.60434,-0.58332 1.49637,-1.33244 1.98208,-1.66543c2.34029,-1.60285 4.5386,-5.89813 4.5386,-8.86845M366.86327,235.76814c-0.24706,-0.44181 -2.78023,-0.17233 -8.4682,0.90044c-0.69307,0.13077 -1.52392,0.23772 -1.84664,0.23772c-0.99104,0 -3.88196,0.47544 -4.08232,0.67159c-0.14898,0.14525 -0.1261,0.43574 0.10555,1.35112c0.74538,2.94416 1.99889,5.28819 2.82787,5.28819c0.1658,0 0.58566,0.14478 0.93359,0.32225c0.75892,0.38717 2.5654,0.35728 3.71056,-0.06165c0.3853,-0.14104 0.89483,-0.29423 1.13348,-0.34047c1.75557,-0.34187 6.3745,-7.1395 5.6861,-8.36919M254.50501,236.28094c-3.08007,-0.0822 -6.71964,-0.18635 -8.08851,-0.23071c-2.98853,-0.09761 -3.10949,-0.05698 -2.96051,0.98917c0.22324,1.56969 1.66543,6.45203 2.23474,7.56637c0.17467,0.34233 0.60948,1.30442 0.96629,2.13853c1.14656,2.68076 3.70729,6.07654 5.12613,6.79763c0.90511,0.46003 3.7227,0.63329 6.45483,0.39744c3.5429,-0.30637 6.72291,-3.18001 8.77924,-7.93345c0.37036,-0.8556 0.72436,-1.62527 0.78695,-1.7112c0.33299,-0.45442 2.20625,-6.97697 2.0909,-7.27867c-0.13404,-0.34887 -0.67299,-0.39838 -5.43484,-0.49645c-2.3954,-0.04904 -6.87516,-0.15692 -9.95523,-0.23865" fill="#0b0b0b" fill-rule="evenodd" stroke-width="1"/><path d="M413.00004,233.6906c0.51887,1.35299 -1.17476,5.34607 -3.2269,7.58222c-0.56324,0.61368 -1.02955,1.17714 -1.02955,1.24533c0,0.06819 -0.51028,0.39201 -1.12723,0.71613c-1.54961,0.8145 -3.0494,0.93212 -4.08387,0.32591c-1.26939,-0.74398 -3.84724,-3.97162 -3.84724,-4.81414c0,-0.20549 -0.13988,-0.65164 -0.31128,-0.98744c-0.42126,-0.82664 -0.3907,-1.12125 0.14171,-1.3968c0.78648,-0.40678 6.46433,-1.81129 7.3615,-1.81829c0.96115,-0.00794 1.55129,-0.11468 3.42362,-0.65644c1.54727,-0.44788 2.57501,-0.51967 2.69924,-0.19649" data-paper-data="{&quot;noHover&quot;:false,&quot;origItem&quot;:[&quot;Path&quot;,{&quot;applyMatrix&quot;:true,&quot;segments&quot;:[[[996.25601,588.83504],[0,0],[-0.532,-1.384]],[[984.71201,589.69304],[6.626,-1.918],[-8.018,2.32]],[[970.09801,592.52704],[4.116,-0.034],[-3.842,0.03]],[[938.68601,600.24904],[3.368,-1.742],[-2.28,1.18]],[[938.08401,606.21104],[-1.804,-3.54],[0.734,1.438]],[[939.41801,610.42504],[0,-0.88],[0,3.608]],[[955.84001,630.95304],[-5.436,-3.186],[4.43,2.596]],[[973.25001,629.55104],[-6.636,3.488],[2.642,-1.388]],[[978.05201,626.49704],[0,0.292],[0,-0.292]],[[982.43601,621.18904],[-2.412,2.628],[8.788,-9.576]],[[996.25601,588.83504],[2.222,5.794],[0,0]]],&quot;fillColor&quot;:[0,0,0,1]}]}" fill="#ff6cbf" fill-rule="nonzero" stroke-width="0.5"/><path d="M254.49942,236.25826c3.08007,0.08173 7.58119,0.19507 9.97659,0.24411c4.76185,0.09808 5.30499,0.1527 5.43903,0.50157c0.11536,0.3017 -1.75458,6.83481 -2.08757,7.28923c-0.06258,0.08593 -0.41664,0.85933 -0.787,1.71493c-2.05634,4.75344 -5.25552,7.64788 -8.79842,7.95425c-2.73213,0.23585 -5.56541,0.05985 -6.47052,-0.40017c-1.41884,-0.7211 -3.99098,-4.13319 -5.13754,-6.81395c-0.35681,-0.83412 -0.79193,-1.80105 -0.9666,-2.14338c-0.56931,-1.11434 -2.00814,-6.00787 -2.23138,-7.57756c-0.14898,-1.04615 -0.0256,-1.09008 2.96293,-0.99247c1.36887,0.04437 5.02041,0.14123 8.10048,0.22343" data-paper-data="{&quot;noHover&quot;:false,&quot;origItem&quot;:[&quot;Path&quot;,{&quot;applyMatrix&quot;:true,&quot;segments&quot;:[[[317.60201,599.86904],[0,0],[-13.19,-0.352]],[[282.96401,598.88104],[5.862,0.19],[-12.798,-0.418]],[[270.28601,603.11704],[-0.638,-4.48],[0.956,6.722]],[[279.85601,635.51904],[-2.438,-4.772],[0.748,1.466]],[[283.99401,644.67704],[-1.528,-3.572],[4.91,11.48]],[[305.94601,673.78704],[-6.076,-3.088],[3.876,1.97]],[[333.58801,675.48904],[-11.7,1.01],[15.172,-1.312]],[[371.18401,641.51504],[-8.806,20.356],[1.586,-3.664]],[[374.55401,634.18704],[-0.268,0.368],[1.426,-1.946]],[[383.50801,603.01704],[0.494,1.292],[-0.574,-1.494]],[[360.23401,600.89104],[20.392,0.42],[-10.258,-0.21]],[[317.60201,599.86904],[13.19,0.35],[0,0]]],&quot;fillColor&quot;:[0,0,0,1]}]}" fill="#ff6cbf" fill-rule="nonzero" stroke-width="0.5"/><path d="M306.8665,235.53651c0,2.97032 -2.19838,7.28998 -4.53868,8.89283c-0.48571,0.33299 -1.38511,1.08957 -1.98944,1.67289c-3.8007,3.66759 -8.08703,2.63574 -10.67065,-2.56091c-1.99516,-4.0132 -2.2533,-4.86155 -1.54809,-5.02221c0.23538,-0.05324 1.16411,-0.2978 2.06221,-0.53879c0.89857,-0.24099 2.33834,-0.60339 3.19394,-0.79581c2.36551,-0.53335 6.55844,-1.61569 8.0394,-2.08039c1.22409,-0.38343 2.90767,-0.62213 4.71088,-0.67817l0.73937,-0.02219l0.00106,1.13275" data-paper-data="{&quot;noHover&quot;:false,&quot;origItem&quot;:[&quot;Path&quot;,{&quot;applyMatrix&quot;:true,&quot;segments&quot;:[[541.74801,596.73304],[541.74801,591.88904],[[538.58401,591.98704],[0,0],[-7.722,0.24]],[[518.43401,594.91304],[5.242,-1.642],[-6.342,1.99]],[[484.13001,603.81104],[10.13,-2.284],[-3.664,0.824]],[[470.47401,607.18904],[3.848,-1.032],[-3.846,1.032]],[[461.64801,609.48304],[1.008,-0.228],[-3.02,0.688]],[[468.27801,630.93304],[-8.544,-17.186],[11.064,22.254]],[[513.82401,641.84304],[-16.276,15.706],[2.588,-2.498]],[[522.31201,634.71104],[-2.08,1.426],[10.022,-6.864]],[[541.74801,596.73304],[0,12.72],[0,0]]],&quot;fillColor&quot;:[0,0,0,1]}]}" fill="#ff6cbf" fill-rule="nonzero" stroke-width="0.5"/><path d="M366.88317,235.75593c0.6884,1.22969 -3.94202,8.06131 -5.69759,8.40318c-0.23865,0.04624 -0.75447,0.20089 -1.13977,0.34194c-1.14516,0.41893 -2.96792,0.44413 -3.72684,0.05696c-0.34794,-0.17747 -0.77059,-0.32476 -0.93638,-0.32476c-0.82898,0 -2.08853,-2.36418 -2.83391,-5.30834c-0.23165,-0.91538 -0.25349,-1.20975 -0.10451,-1.355c0.20036,-0.19615 3.09718,-0.68059 4.08822,-0.68059c0.32272,0 1.16176,-0.11198 1.85483,-0.24274c5.68797,-1.07277 8.2489,-1.33246 8.49596,-0.89065" data-paper-data="{&quot;noHover&quot;:false,&quot;origItem&quot;:[&quot;Path&quot;,{&quot;applyMatrix&quot;:true,&quot;segments&quot;:[[[798.76201,597.67304],[0,0],[-1.058,-1.892]],[[762.49801,601.52904],[24.358,-4.594],[-2.968,0.56]],[[754.59001,602.54704],[1.382,0],[-4.244,0]],[[737.10801,605.42304],[0.858,-0.84],[-0.638,0.622]],[[737.56001,611.20904],[-0.992,-3.92],[3.192,12.608]],[[749.67001,633.85504],[-3.55,0],[0.71,0]],[[753.66801,635.23504],[-1.49,-0.76],[3.25,1.658]],[[769.55801,634.97104],[-4.904,1.794],[1.65,-0.604]],[[774.41201,633.51304],[-1.022,0.198],[7.518,-1.464]],[[798.76201,597.67304],[2.948,5.266],[0,0]]],&quot;fillColor&quot;:[0,0,0,1]}]}" fill="#ff6cbf" fill-rule="nonzero" stroke-width="0.5"/><path d="M251.46731,123.41145c2.59295,1.41604 4.85886,3.33927 5.69018,4.83564c1.21008,2.1787 1.66383,4.53443 2.03606,10.59882c0.1261,2.05307 0.3048,4.85151 0.39634,6.22038c0.15412,2.3104 0.11701,6.0756 -0.10343,10.3153c0,0 0.0263,6.58119 0.16268,6.84506c0.60901,1.17832 2.02602,0.99635 2.62055,-0.32208c0.42406,-0.9406 0.6438,-1.04557 3.27411,-1.5565c4.46154,-0.86681 4.58467,-0.84007 3.99387,0.65816c-0.43434,1.10219 -0.39381,2.08119 0.14795,3.60698c0.25173,0.71035 0.53818,1.60589 0.63533,1.99072c0.20176,0.79909 1.49994,3.35948 2.40318,4.74236c1.32824,2.03345 3.40388,3.65298 5.08145,3.96776c0.45769,0.08593 1.42774,0.45875 2.1549,0.82911c2.85122,1.45293 5.94774,1.35686 9.58965,-0.28756c1.03728,-0.46843 1.38058,-0.54831 2.36602,-0.54831c0.63423,0 1.96858,-0.10172 2.96569,-0.22502c0.99664,-0.12376 3.23382,-0.27118 4.97165,-0.32722c4.96127,-0.15879 7.21914,-0.78502 9.11575,-2.51443c1.58137,-1.44266 2.37128,-4.91763 1.55071,-6.83619c-0.21624,-0.50626 -0.47961,-1.15135 -0.58563,-1.43297c-0.11536,-0.30591 -0.52506,-0.76947 -1.06962,-1.19727c-0.50159,-0.39417 -0.94646,-0.76951 -0.94646,-0.79707c0,-0.2578 0.73591,-0.36048 1.59198,-0.2213c2.71392,0.44134 9.10685,1.04634 13.63798,1.29947l3.16777,0.17596l0.57111,0.66738c0.43527,0.50953 0.82992,0.76286 1.6617,1.07064c0.59873,0.22137 1.40609,0.51997 1.79046,0.66242c0.98543,0.36475 1.10766,0.78627 0.61634,2.14907c-1.23156,3.41306 -0.023,6.1881 3.49094,8.05062c4.24064,2.24735 7.35931,2.48274 9.96674,0.71969c0.49972,-0.33766 1.27142,-0.85777 1.7151,-1.15667c0.44368,-0.29937 1.36877,-1.22516 2.05577,-2.06068c1.96527,-2.38886 2.05628,-2.44124 3.4527,-2.90266c2.28658,-0.75566 2.64111,-0.57826 2.89658,1.44024c0.38343,3.02916 3.03119,11.33465 4.42154,13.86502c0.25874,0.4703 0.54056,1.29525 0.62696,1.8314c0.17093,1.06109 0.84163,2.45706 1.29979,2.70225c0.15786,0.08453 0.50146,0.50197 0.76253,0.92697c0.76219,1.23857 0.59892,1.1996 6.88936,1.37147c15.02998,0.41052 31.84181,0.37592 35.36415,-0.07616c0.82991,-0.10695 1.10094,0.15983 1.26954,1.4096c0.29376,2.18057 0.48641,3.03072 0.94223,4.14926c0.25547,0.62722 0.46692,1.3861 0.46973,1.68547c0.00327,0.29937 0.1083,0.6802 0.23393,0.84647c0.12563,0.16626 0.22833,0.49943 0.22833,0.74089c0,0.24099 0.35477,1.36571 0.78818,2.49826c0.93126,2.43416 1.22793,3.60141 1.2312,4.83531c0.00234,0.86681 0.95038,5.46224 1.23854,6.00026c0.52074,0.97329 2.64882,10.86305 2.74829,12.77181c0.09761,1.87233 0.17475,1.79126 -2.29117,2.41521c-2.23568,0.56557 -7.23853,1.86957 -9.18791,2.39358c-0.65571,0.17654 -1.56621,0.45757 -2.0225,0.62477c-2.68262,0.9817 -2.41235,1.18738 -5.00297,-3.79631c-1.20961,-2.32628 -2.46917,-4.71872 -2.79843,-5.31745c-0.95554,-1.73595 -2.32214,-4.85025 -2.32214,-5.29347c0,-0.53242 -0.62672,-2.38208 -1.29411,-3.82287c-0.29283,-0.63143 -0.82747,-2.05757 -1.18849,-3.16957c-0.36055,-1.11247 -0.85594,-2.44145 -1.09973,-2.95472c-0.24379,-0.51373 -0.47469,-1.21904 -0.51299,-1.56838c-0.09621,-0.87989 -2.65585,-5.98878 -4.24236,-7.53091c-0.65898,-0.64077 -1.46102,-1.42266 -1.78233,-1.73837c-1.47582,-1.44966 -4.69967,-2.65566 -7.1343,-2.66781l-1.81872,-0.00859l-0.5685,0.54443c-3.51954,3.3715 -4.73879,10.10026 -3.48902,19.29516c0.24706,1.81768 1.04675,11.89404 1.18265,14.8793c0.11209,2.47013 0.23394,2.34057 -2.40666,2.55447c-1.00225,0.08126 -2.24247,0.22047 -2.75573,0.30827c-0.51327,0.08827 -1.70403,0.29518 -2.64509,0.45958c-4.53207,0.79162 -7.77487,1.09139 -8.2008,0.75652c-0.27928,-0.2195 -0.65252,-2.10569 -1.14851,-5.9288c-0.13871,-1.0695 -0.32589,-2.39895 -0.41509,-2.95519c-0.26527,-1.64955 -0.4369,-8.22422 -0.44391,-17.27154l-0.00947,-8.48319l-0.40459,-0.66062c-1.714,-2.6971 -4.25561,-3.40402 -12.17459,-3.40683c-6.44269,-0.0028 -5.93772,0.16563 -6.0811,-1.96776c-0.06398,-0.94994 -0.26076,-2.01939 -0.49708,-2.74282c-0.20923,-0.6417 -0.44911,-1.41343 -0.54998,-1.76977c-0.22184,-0.78508 -2.14504,-2.91138 -2.92358,-3.2369c-0.28395,-0.11863 -1.10408,-0.68906 -1.81304,-1.26631c-4.43072,-3.60781 -6.60686,-3.66003 -10.77885,-0.13348c-0.78648,0.66505 -1.71907,1.38244 -2.07215,1.59588c-0.35308,0.21343 -1.07494,0.81342 -1.60362,1.33369c-1.25164,1.23203 -2.11922,1.79374 -5.31698,3.44657c-2.58875,1.33804 -2.65338,1.38302 -3.07605,2.16997c-0.34654,0.6459 -0.57024,0.84595 -0.97375,0.92674c-0.80096,0.15972 -1.98323,0.55959 -2.99061,1.01214c-0.51327,0.23025 -1.12333,0.48666 -1.40588,0.59734c-1.45807,0.57165 -3.35541,4.81733 -2.59882,5.81677c0.12283,0.16206 0.44161,1.00132 0.70922,1.86533c0.26761,0.86447 0.65394,1.88529 0.8599,2.27059c0.59733,1.11714 4.11576,9.35936 4.21524,9.87356c0.09247,0.47684 0.90142,2.35255 3.15811,7.30868c2.58034,5.66789 3.18623,7.55808 2.68884,8.04426c-0.25313,0.24706 -2.22779,0.86663 -4.97206,1.56063c-0.25687,0.06492 -0.64192,0.19651 -0.85582,0.29225c-0.95741,0.42827 -8.26041,2.07412 -9.80207,2.20956c-0.8981,0.07893 -2.14379,0.2616 -2.76681,0.40638l-1.1337,0.26326l-0.39339,-0.39335c-0.36615,-0.36615 -1.17735,-2.37407 -2.18287,-5.4065c-0.41192,-1.2437 -0.80532,-3.38976 -1.30644,-7.14796c-0.40305,-3.02449 -1.02489,-6.45341 -1.31445,-7.25951c-0.36055,-1.00225 -0.66866,-2.41189 -0.77421,-3.54164c-0.05418,-0.57865 -0.30688,-1.59286 -0.56094,-2.25277c-0.36101,-0.93733 -0.46286,-1.45 -0.46286,-2.33829c0,-1.24604 -0.2902,-2.01921 -1.11031,-2.95934c-0.24519,-0.28115 -0.4457,-0.58316 -0.4457,-0.67049c0,-0.0878 -0.20612,-0.41786 -0.45785,-0.73404c-0.29283,-0.36709 -0.54814,-0.96699 -0.70834,-1.66333c-0.79022,-3.43454 -1.18423,-4.26227 -2.18554,-4.59293c-2.30713,-0.76126 -3.07986,0.96332 -3.02008,6.51865c0.02242,2.09603 -0.03603,5.13856 -0.1285,6.7643c-0.14898,2.61023 -0.13276,3.37116 0.14699,6.53109c0.80329,9.07581 0.80014,9.26821 -0.05873,13.9189c-0.74912,4.05756 -0.08417,3.68861 -6.05282,3.47285c-2.68122,-0.09668 -8.72652,-0.25121 -13.43185,-0.34041c-9.43636,-0.17981 -9.21624,-0.16509 -9.33533,-0.65687c-0.30684,-1.26705 -0.56088,-6.02486 -0.69632,-13.10504c-0.08547,-4.44847 -0.2339,-11.38174 -0.32871,-15.4024c-0.09481,-4.02113 -0.23239,-10.25441 -0.30572,-13.84728c-0.10742,-5.27558 -0.18372,-6.74458 -0.39715,-7.624c-0.29937,-1.23296 -0.53817,-26.98127 -0.3607,-38.7411l0.08975,-5.91197l0.80407,-2.75423c1.16991,-4.00759 2.65947,-7.51555 3.67713,-8.66071c0.27602,-0.31058 0.78579,-0.98488 1.13233,-1.49861c1.5823,-2.34309 2.82051,-2.63394 5.34621,-1.25433" data-paper-data="{&quot;noHover&quot;:false,&quot;origItem&quot;:[&quot;Path&quot;,{&quot;applyMatrix&quot;:true,&quot;segments&quot;:[[[152.337,58.28952],[0,0],[-5.408,-2.954]],[[140.891,60.97352],[3.388,-5.017],[-0.742,1.1]],[[138.467,64.18152],[0.591,-0.665],[-2.179,2.452]],[[130.596,82.72152],[2.505,-8.581],[0,0]],[128.875,88.61752],[[128.684,101.27352],[0,0],[-0.38,25.18]],[[129.46,184.20452],[-0.641,-2.64],[0.457,1.883]],[[130.31,200.52452],[-0.23,-11.296],[0.157,7.693]],[[130.963,230.16652],[-0.203,-8.61],[0.203,8.609]],[[131.664,263.13852],[-0.183,-9.525],[0.29,15.16]],[[133.152,291.19352],[-0.657,-2.713],[0.255,1.053]],[[153.139,292.59752],[-20.205,-0.385],[10.075,0.191]],[[181.896,293.32252],[-5.741,-0.207],[12.78,0.462]],[[194.782,285.95352],[-1.604,8.688],[1.839,-9.958]],[[194.903,256.14452],[1.72,19.433],[-0.599,-6.766]],[[194.586,242.15652],[-0.319,5.589],[0.198,-3.481]],[[194.859,227.66852],[0.048,4.488],[-0.128,-11.895]],[[201.419,213.67552],[-4.94,-1.63],[2.144,0.708]],[[206.097,223.50552],[-1.692,-7.354],[0.343,1.491]],[[207.613,227.06552],[-0.627,-0.786],[0.539,0.677]],[[208.593,228.63652],[0,-0.188],[0,0.187]],[[209.547,230.07152],[-0.525,-0.602],[1.756,2.013]],[[211.923,236.40552],[0,-2.668],[0,1.902]],[[212.913,241.41052],[-0.773,-2.007],[0.544,1.413]],[[214.113,246.23252],[-0.116,-1.239],[0.226,2.419]],[[215.769,253.81352],[-0.772,-2.146],[0.62,1.726]],[[218.58,269.35352],[-0.863,-6.476],[1.073,8.047]],[[221.374,284.65552],[-0.882,-2.663],[2.153,6.493]],[[226.045,296.22952],[-0.784,-0.784],[0,0]],[226.887,297.07152],[[229.314,296.50752],[0,0],[1.334,-0.31]],[[235.237,295.63652],[-1.923,0.169],[3.301,-0.29]],[[256.22,290.90252],[-2.05,0.917],[0.458,-0.205]],[[258.052,290.27652],[-0.55,0.139],[5.876,-1.486]],[[268.695,286.93352],[-0.542,0.529],[1.065,-1.041]],[[262.895,269.79952],[5.525,12.136],[-4.832,-10.612]],[[256.127,254.14652],[0.198,1.021],[-0.213,-1.101]],[[247.093,232.99752],[1.279,2.392],[-0.441,-0.825]],[[245.25,228.13352],[0.573,1.851],[-0.573,-1.85]],[[243.73,224.13752],[0.263,0.347],[-1.62,-2.14]],[[249.292,211.67852],[-3.122,1.224],[0.605,-0.237]],[[252.39,210.35152],[-1.099,0.493],[2.157,-0.969]],[[258.793,208.18352],[-1.715,0.342],[0.864,-0.173]],[[260.791,206.24852],[-0.742,1.383],[0.905,-1.685]],[[267.377,201.60152],[-5.543,2.865],[6.847,-3.539]],[[278.761,194.22052],[-2.68,2.638],[1.132,-1.114]],[[282.194,191.36352],[-0.756,0.457],[0.756,-0.457]],[[286.63,187.94452],[-1.684,1.424],[8.933,-7.551]],[[309.771,188.16352],[-9.487,-7.725],[1.518,1.236]],[[313.637,190.87252],[-0.608,-0.254],[1.667,0.697]],[[319.883,197.80552],[-0.475,-1.681],[0.216,0.763]],[[321.09,201.69052],[-0.448,-1.374],[0.506,1.549]],[[322.126,207.46752],[-0.137,-2.034],[0.307,4.568]],[[335.134,211.68652],[-13.795,-0.006],[16.956,0.006]],[[361.191,218.99052],[-3.67,-5.775],[0,0]],[362.132,220.47152],[[362.146,238.64152],[0,0],[0.015,19.372]],[[363.088,275.62852],[-0.568,-3.532],[0.191,1.191]],[[363.976,281.95652],[-0.297,-2.29],[1.062,8.186]],[[366.393,294.56052],[-0.598,-0.47],[0.912,0.717]],[[383.947,292.94352],[-9.704,1.695],[2.015,-0.352]],[[389.609,291.96052],[-1.099,0.189],[1.099,-0.188]],[[395.508,291.30152],[-2.146,0.174],[5.654,-0.458]],[[400.659,285.83352],[0.24,5.289],[-0.291,-6.392]],[[398.121,253.97952],[0.529,3.892],[-2.676,-19.688]],[[405.582,212.68052],[-7.536,7.219],[0,0]],[406.799,211.51552],[[410.693,211.53452],[0,0],[5.213,0.026]],[[426.063,217.28052],[-3.16,-3.104],[0.688,0.676]],[[429.879,221.00352],[-1.411,-1.372],[3.397,3.302]],[[438.961,237.13252],[-0.206,-1.884],[0.082,0.748]],[[440.059,240.49152],[-0.522,-1.1],[0.522,1.099]],[[442.413,246.81952],[-0.772,-2.382],[0.773,2.381]],[[444.957,253.60752],[-0.627,-1.352],[1.429,3.085]],[[447.727,261.79452],[0,-1.14],[0,0.949]],[[452.698,273.13052],[-2.046,-3.717],[0.705,1.282]],[[458.689,284.51752],[-2.59,-4.981],[5.547,10.671]],[[469.321,292.58652],[-5.744,2.102],[0.977,-0.358]],[[473.651,291.24952],[-1.404,0.378],[4.174,-1.122]],[[493.322,286.12752],[-4.787,1.211],[5.28,-1.336]],[[498.227,280.95752],[0.209,4.009],[-0.213,-4.087]],[[492.34,253.61552],[1.115,2.084],[-0.617,-1.152]],[[489.687,240.77052],[0.005,1.856],[-0.007,-2.642]],[[487.05,230.41952],[1.994,5.212],[-0.928,-2.425]],[[485.362,225.07152],[0,0.516],[0,-0.517]],[[484.873,223.48552],[0.269,0.356],[-0.269,-0.356]],[[484.372,221.67352],[0.007,0.641],[-0.006,-0.641]],[[483.366,218.06552],[0.547,1.343],[-0.976,-2.395]],[[481.348,209.18352],[0.629,4.669],[-0.361,-2.676]],[[478.728,206.18352],[1.777,-0.229],[-7.542,0.968]],[[403.005,206.35352],[32.182,0.879],[-13.469,-0.368]],[[388.159,203.38452],[1.632,2.652],[-0.559,-0.91]],[[386.526,201.40052],[0.338,0.181],[-0.981,-0.525]],[[383.742,195.61752],[0.366,2.272],[-0.185,-1.148]],[[382.399,191.69852],[0.554,1.007],[-2.977,-5.418]],[[372.932,162.03352],[0.821,6.486],[-0.547,-4.322]],[[366.731,158.95352],[4.896,-1.618],[-2.99,0.988]],[[359.434,165.14052],[4.208,-5.115],[-1.471,1.789]],[[355.033,169.55652],[0.95,-0.641],[-0.95,0.64]],[[351.361,172.03552],[1.07,-0.723],[-5.583,3.775]],[[329.924,170.51852],[9.08,4.812],[-7.524,-3.988]],[[322.478,153.30952],[-2.637,7.308],[1.052,-2.918]],[[321.163,148.70952],[2.11,0.781],[-0.823,-0.305]],[[317.336,147.29252],[1.282,0.474],[-1.781,-0.659]],[[313.784,145.00052],[0.932,1.091],[0,0]],[312.563,143.57152],[[305.79,143.19352],[0,0],[-9.702,-0.542]],[[276.613,140.39752],[5.811,0.945],[-1.833,-0.298]],[[273.206,140.86952],[0,-0.552],[0,0.059]],[[275.158,142.50952],[-1.074,-0.844],[1.166,0.916]],[[277.523,145.13952],[-0.247,-0.655],[0.227,0.603]],[[278.778,148.20652],[-0.463,-1.084],[1.757,4.108]],[[275.466,162.82952],[3.386,-3.089],[-4.061,3.703]],[[255.95,168.20352],[10.623,-0.34],[-3.721,0.12]],[[245.305,168.90252],[2.134,-0.265],[-2.135,0.264]],[[238.955,169.38352],[1.358,0],[-2.11,0]],[[233.889,170.55652],[2.221,-1.003],[-7.798,3.521]],[[213.256,171.16552],[6.105,3.111],[-1.557,-0.793]],[[208.642,169.38952],[0.98,0.184],[-3.592,-0.674]],[[197.762,160.89052],[2.844,4.354],[-1.934,-2.961]],[[192.617,150.73252],[0.432,1.711],[-0.208,-0.824]],[[191.257,146.46852],[0.539,1.521],[-1.16,-3.267]],[[190.941,138.74252],[-0.93,2.36],[1.265,-3.208]],[[182.485,137.36252],[9.553,-1.856],[-5.632,1.094]],[[175.475,140.69352],[0.908,-2.014],[-1.273,2.823]],[[169.767,141.35852],[1.304,2.523],[-0.292,-0.565]],[[169.42,126.69752],[0,0],[0.472,-9.078]],[[169.644,104.60452],[0.33,4.947],[-0.196,-2.931]],[[168.797,91.28252],[0.27,4.396],[-0.797,-12.985]],[[164.44,68.58452],[2.591,4.665],[-1.78,-3.204]],[[152.337,58.28952],[5.552,3.032],[0,0]]],&quot;fillColor&quot;:[0.04314,0.04314,0.04314]}]}" fill="#fbfbfb" fill-rule="nonzero" stroke-width="0.5"/><path d="M243.53593,172.87087c-1.66149,-0.55383 -1.10766,-2.21532 -1.10766,-2.21532l0.33201,-0.84143c0.08799,-0.13983 0.17714,-0.2744 0.2666,-0.40518c-0.13772,-0.09083 -0.28021,-0.17761 -0.42875,-0.25953c0,0 -1.52061,-0.86892 -0.65169,-2.38953c0.86892,-1.52061 2.38953,-0.65169 2.38953,-0.65169c0.15554,0.09104 0.30567,0.18487 0.45144,0.28117c0.12196,-0.298 0.72568,-1.53331 2.19133,-1.04476c1.66149,0.55383 1.10766,2.21532 1.10766,2.21532c-0.14644,0.41428 -0.30884,0.7851 -0.48425,1.13105c0.03303,0.02774 0.06624,0.05548 0.09964,0.08322l0.74693,0.91732c0,0 1.05082,1.40109 -0.35027,2.45191c-1.20006,0.90005 -2.14315,0.00132 -2.38908,-0.27512c-0.15618,0.3563 -0.7692,1.47063 -2.17343,1.00255z" fill="#0b0b0b" fill-rule="nonzero" stroke-width="0.5"/></g></g></svg>