<svg version="1.1" xmlns="http://www.w3.org/2000/svg" xmlns:xlink="http://www.w3.org/1999/xlink" width="10.89979" height="16.45553" viewBox="0,0,10.89979,16.45553"><g transform="translate(-315.01952,-171.76173)"><g data-paper-data="{&quot;isPaintingLayer&quot;:true}" fill-rule="nonzero" stroke-linejoin="miter" stroke-miterlimit="10" stroke-dasharray="" stroke-dashoffset="0" style="mix-blend-mode: normal"><path d="M322.57143,175.63393l-1.04762,-0.7619h-3.52381c0,0 -1.01574,0.41305 -1.43012,0.9989c-0.49265,0.6965 -2.26061,4.97081 -1.23655,7.95348c0.95146,2.77121 1.57143,3.23809 1.57143,3.23809l1.90476,1.04762l2.85714,-0.23809l1.09524,-1.14286l1.14285,-2.38095l0.04762,-5.71429z" fill="#484a39" stroke="#000000" stroke-width="0" stroke-linecap="round"/><path d="M316.95238,175.77679v-0.66666h5.52381v0.66666z" fill="#9fa49b" stroke="#000000" stroke-width="0" stroke-linecap="butt"/><path d="M315.42857,178.44345v-0.47619h8.19048v0.47619z" fill="#888f86" stroke="#000000" stroke-width="0" stroke-linecap="butt"/><path d="M315.76191,178.11012v-0.85715h7.76191v0.85715z" fill="#1f2319" stroke="#000000" stroke-width="0" stroke-linecap="butt"/><path d="M316.38095,186.58631v-0.7619h6.61905v0.7619z" fill="#1f2319" stroke="none" stroke-width="0" stroke-linecap="butt"/><path d="M315.38095,183.01488v-0.61905h8.71429v0.61905z" fill="#60655f" stroke="none" stroke-width="0" stroke-linecap="butt"/><path d="M315.43018,182.63393v-1.28571h8.46812v1.28571z" fill="#161912" stroke="none" stroke-width="0" stroke-linecap="butt"/><path d="M318.2381,175.01488c-2.92491,6.36575 -0.09524,12.61905 -0.09524,12.61905" fill="none" stroke="#000000" stroke-width="0.5" stroke-linecap="round"/><path d="M319.76191,174.91965l0.14285,12.90476" fill="none" stroke="#000000" stroke-width="0.5" stroke-linecap="round"/><path d="M321.15107,175.11012c2.92491,6.36575 0.09524,12.61905 0.09524,12.61905" data-paper-data="{&quot;index&quot;:null}" fill="none" stroke="#000000" stroke-width="0.5" stroke-linecap="round"/><path d="M323.57143,174.15774c0,0 -4.20635,0.54186 -5.57143,0.71429c-1.36508,0.17243 -2.31963,2.43286 -2.61905,3.85714c-0.29942,1.42428 -0.34319,3.14117 0.04762,5.09524c0.39081,1.95407 1.89963,3.99627 2.76191,4.14286c0.86228,0.14659 2.27333,0.27512 3.33333,-0.09524c1.06,-0.37036 2.23091,-2.50351 2.38095,-3.52381c0.15004,-1.0203 -0.33333,-10.19048 -0.33333,-10.19048z" fill="none" stroke="#000000" stroke-width="0.5" stroke-linecap="round"/><path d="M323.85715,184.63393l1.14285,0.42857c0,0 0.71816,-2.56458 0.66667,-4.23809c-0.05149,-1.67352 -0.47111,-3.17321 -1.19048,-5.04762c-0.71937,-1.87441 -2.19047,-3.7619 -2.19047,-3.7619l-5.57143,0.14286l0.23809,1.19048l0.90476,0.04762l0.19047,1.52381c0,0 2.10677,-0.25632 3.42857,-0.04762c1.3218,0.2087 1.77042,1.94443 2.19047,3.66666c0.42006,1.72224 0.19048,6.09524 0.19048,6.09524z" fill="#161912" stroke="#000000" stroke-width="0.5" stroke-linecap="round"/></g></g></svg>