<svg version="1.1" xmlns="http://www.w3.org/2000/svg" xmlns:xlink="http://www.w3.org/1999/xlink" width="52.53346" height="17.51262" viewBox="0,0,52.53346,17.51262"><g transform="translate(-295.31727,-175.64826)"><g data-paper-data="{&quot;isPaintingLayer&quot;:true}" fill-rule="nonzero" stroke="#000000" stroke-width="0.5" stroke-linecap="round" stroke-linejoin="miter" stroke-miterlimit="10" stroke-dasharray="" stroke-dashoffset="0" style="mix-blend-mode: normal"><path d="M296.57141,181.75894l0.57142,-2.28571l1.85715,-1.14286l4.85715,-1.42857l7.57142,0.14286l0.28572,-1h1.14286l0.14285,1l2.57143,-0.14286l0.42857,-1l6.71429,0.14286l2,1l18.85715,0.28571l0.14285,-0.85714l1.14286,-0.28572l0.42857,1.28572l2,0.14285l0.28572,2.57143h-10.14286h8.71429l0.28571,2h-9.42857v0.85715l-2.14285,0.42857l-5.42858,-1.14286h-5.57142l-0.71429,1.28572l-8.57142,-1.71429l-4.71429,0.42857c0,0 -3.43113,1.78671 -4.59107,2.23487c-0.78669,0.30395 -1.69464,0.19371 -1.69464,0.19371l-1.86625,5.46347l0.58053,0.9651l-2,1.71428l-4.42857,-0.42857l-0.28571,-5l2.42857,-3.85715z" fill="#141414"/><path d="M305.89838,183.48521l-1.17888,0.67121l-0.77537,-0.34789l1.41553,-0.95911z" fill="#000000"/></g></g></svg>