<svg version="1.1" xmlns="http://www.w3.org/2000/svg" xmlns:xlink="http://www.w3.org/1999/xlink" width="706.35523" height="372.36713" viewBox="0,0,706.35523,372.36713"><defs><linearGradient x1="469.10477" y1="218.32344" x2="469.10477" y2="280.17797" gradientUnits="userSpaceOnUse" id="color-1"><stop offset="0" stop-color="#0a0a0a"/><stop offset="1" stop-color="#353432"/></linearGradient><linearGradient x1="452.2249" y1="227.12103" x2="452.2249" y2="245.75503" gradientUnits="userSpaceOnUse" id="color-2"><stop offset="0" stop-color="#71716e"/><stop offset="1" stop-color="#5b5c5d"/></linearGradient><linearGradient x1="451.76479" y1="232.06709" x2="451.76479" y2="243.56956" gradientUnits="userSpaceOnUse" id="color-3"><stop offset="0" stop-color="#71716e"/><stop offset="1" stop-color="#5b5c5d"/></linearGradient><linearGradient x1="470.97392" y1="227.12103" x2="470.97392" y2="245.75503" gradientUnits="userSpaceOnUse" id="color-4"><stop offset="0" stop-color="#71716e"/><stop offset="1" stop-color="#5b5c5d"/></linearGradient><linearGradient x1="470.51381" y1="232.06709" x2="470.51381" y2="243.56956" gradientUnits="userSpaceOnUse" id="color-5"><stop offset="0" stop-color="#71716e"/><stop offset="1" stop-color="#5b5c5d"/></linearGradient><radialGradient cx="486.71587" cy="253.45963" r="30.73624" gradientUnits="userSpaceOnUse" id="color-6"><stop offset="0" stop-color="#5bde14" stop-opacity="0.2549"/><stop offset="1" stop-color="#5bde14" stop-opacity="0"/></radialGradient></defs><g transform="translate(32.45,7.05462)"><g data-paper-data="{&quot;isPaintingLayer&quot;:true}" fill-rule="nonzero" stroke-linejoin="miter" stroke-miterlimit="10" stroke-dasharray="" stroke-dashoffset="0" style="mix-blend-mode: normal"><path d="M-32.45,364.94539v-372h704v372z" fill="#333333" stroke="none" stroke-width="0" stroke-linecap="butt"/><path d="M436.23675,285.00001v-99.38132h66.25422v99.38133z" fill="#aba79d" stroke="#000000" stroke-width="2" stroke-linecap="butt"/><path d="M441.80078,280.17797v-61.85452h54.60797v61.85452z" fill="url(#color-1)" stroke="#000000" stroke-width="2" stroke-linecap="butt"/><path d="M479.80207,268.89296c0,-3.85923 3.12851,-6.98776 6.98775,-6.98776c3.85923,0 6.98775,3.12852 6.98775,6.98776c0,3.85923 -3.12852,6.98774 -6.98775,6.98774c-3.85923,0 -6.98775,-3.12851 -6.98775,-6.98774z" fill="#72736f" stroke="#000000" stroke-width="1" stroke-linecap="butt"/><path d="M482.27509,268.89296c0,-2.42989 1.96981,-4.3997 4.39969,-4.3997c2.42989,0 4.3997,1.96981 4.3997,4.3997c0,2.42989 -1.96981,4.39969 -4.3997,4.39969c-2.42989,0 -4.39969,-1.96981 -4.39969,-4.39969z" fill="none" stroke="#000000" stroke-width="1" stroke-linecap="butt"/><path d="M484.69061,269.00799c0,-1.09584 0.88835,-1.98418 1.98418,-1.98418c1.09583,0 1.98417,0.88835 1.98417,1.98418c0,1.09584 -0.88834,1.98417 -1.98417,1.98417c-1.09584,0 -1.98418,-0.88835 -1.98418,-1.98417z" fill="none" stroke="#000000" stroke-width="1" stroke-linecap="butt"/><path d="M446.41615,211.46041v-20.91148h21.73966v20.91148z" fill="#dedede" stroke="#000000" stroke-width="0" stroke-linecap="butt"/><path d="M453.89275,209.82743v-18.01897h7.24655v18.01897z" fill="#dd0202" stroke="none" stroke-width="0" stroke-linecap="butt"/><path d="M448.71664,204.1161v-7.13154h17.48375v7.13154z" fill="#dd0202" stroke="none" stroke-width="0" stroke-linecap="butt"/><path d="M492.08095,192.95869h-20.47439" fill="none" stroke="#000000" stroke-width="2" stroke-linecap="round"/><path d="M471.60655,196.98456h20.47439" fill="none" stroke="#000000" stroke-width="2" stroke-linecap="round"/><path d="M471.60655,201.12545h20.47439" fill="none" stroke="#000000" stroke-width="2" stroke-linecap="round"/><path d="M492.08095,205.38136h-20.47439" fill="none" stroke="#000000" stroke-width="2" stroke-linecap="round"/><path d="M471.60655,209.40723h20.47439" fill="none" stroke="#000000" stroke-width="2" stroke-linecap="round"/><path d="M495.30164,253.28915c-0.0504,4.46388 -3.55338,4.54348 -7.93669,4.54348c-4.38332,0 -7.87368,-0.42271 -7.93671,-4.54348c-0.07003,-4.57875 3.55339,-4.54348 7.93671,-4.54348c4.38333,0 7.98712,0.07757 7.93669,4.54348z" fill="#59df13" stroke="#000000" stroke-width="1" stroke-linecap="butt"/><path d="M465.34592,274.64265v-27.951h11.09167v27.951z" fill="#9b7618" stroke="#000000" stroke-width="0" stroke-linecap="butt"/><path d="M495.0531,191.23333c0,-1.07202 0.86904,-1.94104 1.94104,-1.94104c1.07201,0 1.94104,0.86903 1.94104,1.94104c0,1.07202 -0.86904,1.94104 -1.94104,1.94104c-1.07201,0 -1.94104,-0.86903 -1.94104,-1.94104z" fill="#000000" stroke="none" stroke-width="0.5" stroke-linecap="butt"/><path d="M440.03844,191.52911c0,-1.07202 0.86902,-1.94104 1.94104,-1.94104c1.07202,0 1.94104,0.86903 1.94104,1.94104c0,1.07202 -0.86903,1.94104 -1.94104,1.94104c-1.07202,0 -1.94104,-0.86903 -1.94104,-1.94104z" fill="#000000" stroke="none" stroke-width="0.5" stroke-linecap="butt"/><path d="M446.71193,274.64265v-27.951h11.09166v27.951z" fill="#9b7618" stroke="#000000" stroke-width="0" stroke-linecap="butt"/><path d="M445.49596,276.80142v-2.18547h13.45788v2.18547z" fill="#4d5156" stroke="#000000" stroke-width="0" stroke-linecap="butt"/><path d="M450.67206,231.65928v-10.81233h2.41552v10.81233z" fill="#a8a8a2" stroke="#000000" stroke-width="0" stroke-linecap="butt"/><path d="M464.12995,276.80142v-2.30049h13.45788v2.30049z" fill="#4d5156" stroke="none" stroke-width="0" stroke-linecap="butt"/><path d="M445.38093,245.75503v-18.634h13.68794v18.634z" fill="none" stroke="url(#color-2)" stroke-width="2" stroke-linecap="butt"/><path d="M447.5664,243.56956v-11.50246h8.3968v11.50247z" fill="url(#color-3)" stroke="#5b5c5d" stroke-width="0" stroke-linecap="butt"/><path d="M447.5664,235.4028h8.16675" fill="none" stroke="#000000" stroke-width="1" stroke-linecap="round"/><path d="M469.42109,231.56517v-10.81233h2.41552v10.81233z" fill="#a8a8a2" stroke="#000000" stroke-width="0" stroke-linecap="butt"/><path d="M450.80277,222.98014v-2.3005h44.542v2.3005z" fill="#a8a8a2" stroke="#000000" stroke-width="0" stroke-linecap="butt"/><path d="M464.12995,245.75503v-18.634h13.68794v18.634z" fill="none" stroke="url(#color-4)" stroke-width="2" stroke-linecap="butt"/><path d="M466.31542,243.56956v-11.50246h8.3968v11.50247z" fill="url(#color-5)" stroke="#5b5c5d" stroke-width="0" stroke-linecap="butt"/><path d="M466.31542,235.4028h8.16675" fill="none" stroke="#000000" stroke-width="1" stroke-linecap="round"/><path d="M414.5,364.31252v-96h258.40523v96z" fill="#1a1a1a" stroke="#000000" stroke-width="2" stroke-linecap="butt"/><path d="M455.97963,253.45963c0,-16.97515 13.76108,-30.73624 30.73624,-30.73624c16.97515,0 30.73624,13.76108 30.73624,30.73624c0,16.97515 -13.76108,30.73624 -30.73624,30.73624c-16.97516,0 -30.73624,-13.76108 -30.73624,-30.73624z" fill="url(#color-6)" stroke="#000000" stroke-width="0" stroke-linecap="butt"/></g></g></svg>