<svg version="1.1" xmlns="http://www.w3.org/2000/svg" xmlns:xlink="http://www.w3.org/1999/xlink" width="16.74194" height="47.56143" viewBox="0,0,16.74194,47.56143"><g transform="translate(-313.73173,-156.33441)"><g data-paper-data="{&quot;isPaintingLayer&quot;:true}" fill-rule="nonzero" stroke="#000000" stroke-linejoin="miter" stroke-miterlimit="10" stroke-dasharray="" stroke-dashoffset="0" style="mix-blend-mode: normal"><path d="M324.30556,156.59028c3.25363,-0.11498 3.79911,1.44996 5.83697,5.49155c0.82549,1.63715 -4.8991,-3.29726 -5.75344,-3.09563c-1.03285,0.25753 -3.19185,-0.71738 -3.28071,3.99525c-0.09218,4.88875 -0.28993,29.59699 -0.31262,36.96129c-0.01142,3.707 -6.26798,3.7031 -6.26798,3.7031c0,0 2.87581,-2.00176 3.76389,-3.28646c0.50066,-0.72427 0.41667,-37.58333 0.41667,-37.58333c0,0 0.01422,-5.98847 5.59722,-6.18577z" fill="#4d4d4d" stroke-width="0.5" stroke-linecap="round"/><path d="M318.71429,198.28472l0.2381,-35.33333h1.92063l-0.28571,35.33333z" fill="#7a3838" stroke-width="0" stroke-linecap="butt"/></g></g></svg>