<svg version="1.1" xmlns="http://www.w3.org/2000/svg" xmlns:xlink="http://www.w3.org/1999/xlink" width="240.70841" height="268.9375" viewBox="0,0,240.70841,268.9375"><defs><radialGradient cx="313.25" cy="256.29211" r="68" gradientUnits="userSpaceOnUse" id="color-1"><stop offset="0" stop-color="#330000"/><stop offset="1" stop-color="#330000" stop-opacity="0"/></radialGradient></defs><g transform="translate(-176.0195,-40.20833)"><g data-paper-data="{&quot;isPaintingLayer&quot;:true}" fill-rule="nonzero" stroke-linejoin="miter" stroke-miterlimit="10" stroke-dasharray="" stroke-dashoffset="0" style="mix-blend-mode: normal"><path d="M178.83334,306.64583v-102.66667h235.33333v102.66667z" fill="#5a0900" stroke="#000000" stroke-width="5" stroke-linecap="butt"/><path d="M227.43334,269.83711v-75.66667h136v75.66667z" fill="url(#color-1)" stroke="#000000" stroke-width="0" stroke-linecap="butt"/><g stroke="#000000" stroke-width="5" stroke-linecap="round"><path d="M244.85417,228.38021c0,0 65.79095,-18.09493 70.25,-18.5c4.9398,-0.44873 12.10402,0.42623 20.5,3.5c12.46616,4.56385 11.14598,24.74724 6.75,28.25c-9.59555,7.64581 -83.5,28 -83.5,28l-15,-4.5c0,0 -8.70989,-20.27865 -7,-26.75c1.62817,-6.16207 8,-10 8,-10z" fill="#670a00"/><path d="M259.60417,268.88021c0,0 -1.31158,-17.69807 -3.75,-24.5c-2.43842,-6.80193 -10.5,-15.25 -10.5,-15.25c0,0 -7.46664,4.89757 -7.75,9.75c-0.28336,4.85243 -0.07079,16.56256 5.75,24.5c5.82079,7.93744 16.25,5.5 16.25,5.5z" fill="#725800"/></g><path d="M179.08334,295.4375v-30.66667h234.75v30.66667z" fill="#725800" stroke="#000000" stroke-width="5" stroke-linecap="butt"/><path d="M414.16667,203.10417c1.76002,-0.03196 -35,-14 -35,-14h-165.66667c0,0 -38.84068,13.65621 -34.66666,13.66667c14.54245,0.03645 226.77502,0.48874 235.33333,0.33333z" fill="#000000" stroke="#000000" stroke-width="5" stroke-linecap="round"/><path d="M379.97917,188.70834l-0.5,-103.5l8,-42.5h-175.5l7,46l-2,100z" fill="#5a0900" stroke="#000000" stroke-width="5" stroke-linecap="round"/><path d="M218.47917,178.20834v-56.5h161v56.5z" fill="#725800" stroke="#000000" stroke-width="5" stroke-linecap="butt"/><text transform="translate(231.5,284.67548) scale(0.40094,0.40094)" font-size="40" xml:space="preserve" fill="#000000" fill-rule="nonzero" stroke="none" stroke-width="1" stroke-linecap="butt" stroke-linejoin="miter" stroke-miterlimit="10" stroke-dasharray="" stroke-dashoffset="0" font-family="Sans Serif" font-weight="normal" text-anchor="start" style="mix-blend-mode: normal"><tspan x="0" dy="0">SMOKING KILLS</tspan></text></g></g></svg>