<svg version="1.1" xmlns="http://www.w3.org/2000/svg" xmlns:xlink="http://www.w3.org/1999/xlink" width="705" height="380.87457" viewBox="0,0,705,380.87457"><defs><radialGradient cx="171.83258" cy="231.31992" r="99.5" gradientUnits="userSpaceOnUse" id="color-1"><stop offset="0" stop-color="#a7a7a7"/><stop offset="1" stop-color="#828282"/></radialGradient><radialGradient cx="352.4289" cy="275.78452" r="60.64853" gradientUnits="userSpaceOnUse" id="color-2"><stop offset="0" stop-color="#c27d5a"/><stop offset="1" stop-color="#bd5a39"/></radialGradient><linearGradient x1="392.83976" y1="262.77831" x2="392.83976" y2="267.71233" gradientUnits="userSpaceOnUse" id="color-3"><stop offset="0" stop-color="#082908"/><stop offset="1" stop-color="#184208"/></linearGradient><radialGradient cx="393.53422" cy="274.08252" r="4.48921" gradientUnits="userSpaceOnUse" id="color-4"><stop offset="0" stop-color="#42d663"/><stop offset="1" stop-color="#216310"/></radialGradient><radialGradient cx="395.07079" cy="281.67494" r="5.57123" gradientUnits="userSpaceOnUse" id="color-5"><stop offset="0" stop-color="#84ffff"/><stop offset="1" stop-color="#39c6ef"/></radialGradient><radialGradient cx="395.09505" cy="291.71904" r="5.56143" gradientUnits="userSpaceOnUse" id="color-6"><stop offset="0" stop-color="#efdeff"/><stop offset="1" stop-color="#ce5ade"/></radialGradient><linearGradient x1="389.42826" y1="301.95403" x2="400.67758" y2="301.95403" gradientUnits="userSpaceOnUse" id="color-7"><stop offset="0" stop-color="#a5ffff"/><stop offset="1" stop-color="#18b5ad"/></linearGradient><radialGradient cx="394.62757" cy="310.98652" r="5.68804" gradientUnits="userSpaceOnUse" id="color-8"><stop offset="0" stop-color="#e7ffff"/><stop offset="1" stop-color="#63bd18"/></radialGradient><radialGradient cx="394.73549" cy="321.23203" r="5.68804" gradientUnits="userSpaceOnUse" id="color-9"><stop offset="0" stop-color="#c66b18"/><stop offset="1" stop-color="#b58b64"/></radialGradient><linearGradient x1="395.19209" y1="328.4359" x2="395.19209" y2="333.58504" gradientUnits="userSpaceOnUse" id="color-10"><stop offset="0" stop-color="#292121"/><stop offset="1" stop-color="#5a525a"/></linearGradient></defs><g transform="translate(31.45,7.05464)"><g data-paper-data="{&quot;isPaintingLayer&quot;:true}" fill-rule="nonzero" stroke-linejoin="miter" stroke-miterlimit="10" stroke-dasharray="" stroke-dashoffset="0" style="mix-blend-mode: normal"><path d="M-31.45,364.94537v-372h705v372z" fill="#808080" stroke="none" stroke-width="0" stroke-linecap="butt"/><path d="M18.08258,365.28025v-223h234v223z" fill="#c0c0c0" stroke="#000000" stroke-width="2" stroke-linecap="butt"/><path d="M225.41592,282.40522v-35.66666h23v35.66666z" fill="#272727" stroke="#000000" stroke-width="2" stroke-linecap="butt"/><path d="M228.41592,263.73856c0,-4.78647 3.88019,-8.66667 8.66666,-8.66667c4.78647,0 8.66666,3.8802 8.66666,8.66667c0,4.78647 -3.88019,8.66667 -8.66666,8.66667c-4.78647,0 -8.66666,-3.8802 -8.66666,-8.66667z" fill="#272727" stroke="#000000" stroke-width="2" stroke-linecap="butt"/><path d="M238.84974,261.66185c0.59544,1.34149 2.29997,3.32631 1.40543,4.9299c-0.29727,0.53291 -1.16818,0.35439 -1.75868,0.50828c-1.66561,0.4341 -4.79482,0.965 -5.28143,-1.48929c-0.25957,-1.3092 2.21092,-3.73437 3.09172,-4.50644c0,0 0.06829,-0.05853 0.18145,-0.12001l0.01336,-0.04009c0.12567,-0.40862 0.50614,-0.70565 0.95598,-0.70565c0.37863,0 0.70811,0.21043 0.87787,0.52072l0.49037,0.85815l-0.01423,0.00813z" fill="#000000" stroke="none" stroke-width="0.5" stroke-linecap="butt"/><path d="M46.83258,372.81994v-199h175v199z" fill="url(#color-1)" stroke="#000000" stroke-width="2" stroke-linecap="butt"/><path d="M134.83258,367.81994v-194.5" fill="none" stroke="#000000" stroke-width="2" stroke-linecap="round"/><g><path d="M326.63383,359.39856v-121.29706h79.43093v121.29706z" fill="url(#color-2)" stroke="#000000" stroke-width="2" stroke-linecap="butt"/><path d="M326.96655,358.78408v-1.84714h79.71768v1.84714z" fill="#081008" stroke="none" stroke-width="0" stroke-linecap="butt"/><path d="M355.00424,342.90519v-15.36721h20.48963v15.36721z" fill="#292929" stroke="#000000" stroke-width="2" stroke-linecap="butt"/><path d="M356.02871,341.70998v-9.22033h18.26991v9.22033z" fill="#080000" stroke="none" stroke-width="0" stroke-linecap="butt"/><path d="M386.29499,338.29111v-81.43822h17.49202v81.43822z" fill="#101010" stroke="none" stroke-width="0" stroke-linecap="butt"/><path d="M389.68217,267.71233v-4.93403h6.31555v4.93403z" fill="url(#color-3)" stroke="#000000" stroke-width="1" stroke-linecap="butt"/><path d="M387.77863,276.09692v-7.02158h13.58274v7.02158z" fill="#101018" stroke="none" stroke-width="0" stroke-linecap="butt"/><path d="M389.04482,272.29838v-2.8777h8.86331v2.8777z" fill="#106321" stroke="none" stroke-width="0" stroke-linecap="butt"/><path d="M399.34699,270.91706c0,-0.34965 0.28345,-0.63309 0.63309,-0.63309c0.34965,0 0.63309,0.28345 0.63309,0.63309c0,0.34965 -0.28345,0.63309 -0.63309,0.63309c-0.34965,0 -0.63309,-0.28345 -0.63309,-0.63309z" fill="#941018" stroke="none" stroke-width="0.5" stroke-linecap="butt"/><path d="M389.04482,274.83074v-1.49641h8.97842v1.49641z" fill="url(#color-4)" stroke="none" stroke-width="0" stroke-linecap="butt"/><path d="M389.49957,278.53058v-1.45124h11.14245v1.45124z" fill="#ffffff" stroke="none" stroke-width="0" stroke-linecap="butt"/><path d="M389.49957,285.03033v-6.71079h11.14245v6.71079z" fill="url(#color-5)" stroke="none" stroke-width="0" stroke-linecap="butt"/><path d="M392.09911,283.63056c0.11757,0.29391 -0.17634,0.41147 -0.17634,0.41147l-0.38135,0.12815c-1.91308,-0.01625 -1.65344,-2.96312 0,-3.0072c0,0 0.31655,0 0.31655,0.31655c0,0.31655 -0.31655,0.31655 -0.31655,0.31655c-0.80005,-0.03606 -1.1301,1.7537 0,1.74101l0.14623,-0.08287c0,0 0.29391,-0.11757 0.41147,0.17634z" fill="#ef5a94" stroke="none" stroke-width="0.5" stroke-linecap="butt"/><path d="M393.84326,282.18208c0.14156,-0.28313 0.42469,-0.14156 0.42469,-0.14156l0.31665,0.1909c0.92247,1.32158 -1.3076,2.44341 -2.1373,1.38821c-0.6796,-0.86433 0.40866,-2.33153 1.30906,-2.2413c0,0 0.31224,0.05204 0.2602,0.36428c-0.05204,0.31224 -0.36428,0.2602 -0.36428,0.2602c-0.41664,-0.13939 -0.95155,0.89763 -0.69573,1.24071c0.29056,0.38967 1.70933,-0.08803 1.13368,-0.6166l-0.10541,-0.02013c0,0 -0.28313,-0.14156 -0.14156,-0.42469z" fill="#ef5a94" stroke="none" stroke-width="0.5" stroke-linecap="butt"/><path d="M395.75728,283.80851c-0.27143,-0.16286 -0.10858,-0.4343 -0.10858,-0.4343l0.12534,-0.18789c0.36027,-1.24625 -0.18115,-2.67459 0.39054,-3.85316c0,0 0.14156,-0.28313 0.42469,-0.14156c0.28313,0.14156 0.14156,0.42469 0.14156,0.42469c-0.55251,1.06093 -0.01864,2.57903 -0.34806,3.74397l-0.19121,0.33969c0,0 -0.16286,0.27143 -0.4343,0.10858z" fill="#ef5a94" stroke="none" stroke-width="0.5" stroke-linecap="butt"/><path d="M399.54213,284.47449c-0.30429,0.08722 -0.39152,-0.21708 -0.39152,-0.21708l-0.03842,-0.13401c-0.0538,-0.18869 -0.10271,-0.38324 -0.12695,-0.57908l-0.03136,0.01426l-0.02821,-0.06207c-1.91625,1.68105 -2.37956,-2.44595 -0.05183,-2.06542c0,0 0.31224,0.05204 0.2602,0.36428c-0.05204,0.31224 -0.36428,0.2602 -0.36428,0.2602c-1.07512,-0.18323 -1.25336,1.96427 -0.21385,0.93617l0.13796,-0.27593c0.05076,-0.10707 0.15983,-0.18112 0.2862,-0.18112c0.13065,0 0.24279,0.07914 0.29115,0.19209l0.25901,0.56982l-0.0594,0.027c0.10179,0.20144 0.18785,0.40976 0.24996,0.62536l0.03842,0.13401c0,0 0.08722,0.30429 -0.21708,0.39152z" fill="#ef5a94" stroke="none" stroke-width="0.5" stroke-linecap="butt"/><path d="M389.40707,288.65094v-1.36358h11.20367v1.36358z" fill="#ffffff" stroke="none" stroke-width="0" stroke-linecap="butt"/><path d="M389.53377,295.07929v-6.72053h11.12285v6.72053z" fill="url(#color-6)" stroke="none" stroke-width="0" stroke-linecap="butt"/><path d="M399.68819,291.36759c-0.05204,0.31224 -0.36428,0.2602 -0.36428,0.2602l-0.39614,-0.06711c-1.42364,-0.00319 -3.47249,-0.71179 -4.86208,-0.15796c-1.80485,0.71933 -1.83286,1.44161 -3.96932,0.9965c0,0 -0.3099,-0.06456 -0.24534,-0.37446c0.06456,-0.30989 0.37445,-0.24532 0.37445,-0.24532c2.21725,0.46192 2.08578,-0.85471 4.12996,-1.06074c1.56175,-0.1574 3.09428,0.21463 4.62456,0.21104l0.44799,0.07358c0,0 0.31224,0.05203 0.2602,0.36427z" fill="#ef5a94" stroke="none" stroke-width="0.5" stroke-linecap="butt"/><path d="M399.69249,292.58173c0,0.31655 -0.31655,0.31655 -0.31655,0.31655h-0.14069c-0.73159,0 -1.44705,-0.07035 -2.18065,-0.07035c-2.44967,0 -4.48206,1.33654 -6.89368,1.33654c0,0 -0.31655,0 -0.31655,-0.31655c0,-0.31655 0.31655,-0.31655 0.31655,-0.31655c2.3957,0 4.43913,-1.33654 6.89368,-1.33654c0.7335,0 1.44972,0.07035 2.18065,0.07035h0.14069c0,0 0.31655,0 0.31655,0.31655z" fill="#ef5a94" stroke="none" stroke-width="0.5" stroke-linecap="butt"/><path d="M389.42826,298.88596v-1.36358h11.20367v1.36358z" fill="#ffffff" stroke="none" stroke-width="0" stroke-linecap="butt"/><path d="M389.42826,305.31431v-6.72053h11.24947v6.72053z" fill="url(#color-7)" stroke="none" stroke-width="0" stroke-linecap="butt"/><path d="M395.04339,302.50685c0,0.31655 -0.31655,0.31655 -0.31655,0.31655l-0.37144,-0.00108c-0.66613,-0.13143 -0.78497,-0.31836 -0.97803,-0.96221c-0.01217,-1.54759 2.01533,-3.18239 2.63294,-1.04926c0.2826,0.97605 -0.26227,2.11547 -0.39457,3.06452c0,0 -0.04477,0.31337 -0.35813,0.2686c-0.31337,-0.04477 -0.2686,-0.35813 -0.2686,-0.35813c0.12644,-0.86686 0.62631,-1.91329 0.41118,-2.80599c-0.33129,-1.37475 -1.3881,0.02915 -1.39585,0.79246c0.08677,0.33364 0.0664,0.38407 0.40327,0.41908l0.31922,-0.00108c0,0 0.31655,0 0.31655,0.31655z" fill="#a86fde" stroke="none" stroke-width="0.5" stroke-linecap="butt"/><path d="M389.3015,315.19056v-7.8601h11.37609v7.8601z" fill="url(#color-8)" stroke="none" stroke-width="0" stroke-linecap="butt"/><path d="M389.3015,325.32006v-7.8601h11.37609v7.8601z" fill="url(#color-9)" stroke="none" stroke-width="0" stroke-linecap="butt"/><path d="M391.35113,333.58504v-5.14917h7.68154v5.14917z" fill="url(#color-10)" stroke="#000000" stroke-width="1" stroke-linecap="butt"/><path d="M394.41894,330.90229c0,-0.34965 0.28345,-0.63309 0.63309,-0.63309c0.34965,0 0.63309,0.28345 0.63309,0.63309c0,0.34965 -0.28345,0.63309 -0.63309,0.63309c-0.34965,0 -0.63309,-0.28345 -0.63309,-0.63309z" fill="#4a104a" stroke="none" stroke-width="0.5" stroke-linecap="butt"/><path d="M349.61248,263.98498c-0.20021,-0.6006 0.40041,-0.8008 0.40041,-0.8008l0.63309,-0.21104c0.77331,-0.11649 0.51343,-2.50089 -0.09853,-2.85081c-0.73492,-0.42024 -2.49631,0.61477 -3.16699,0.82448c-3.44413,3.44414 -12.20713,-1.13949 -6.17083,-5.28593c0,0 0.52676,-0.35118 0.87795,0.17559c0.35118,0.52676 -0.17558,0.87795 -0.17558,0.87795c-4.80966,3.074 2.52425,5.43387 4.8028,3.15531c1.06895,-0.37489 3.2177,-1.60146 4.43012,-0.86377c1.72969,1.05243 1.59845,4.46696 -0.09852,5.16839l-0.63309,0.21104c0,0 -0.6006,0.2002 -0.8008,-0.40041z" fill="#ffffff" stroke="none" stroke-width="0.5" stroke-linecap="butt"/><path d="M347.0476,267.37232c0,-0.05285 0.00442,-0.1013 0.01251,-0.14569c-0.88536,-0.55263 -5.29774,-1.69293 -6.10681,-0.88387c-1.20573,1.20574 0.48893,3.77891 1.48286,4.24322c1.90133,0.62837 5.4734,2.41913 7.53464,1.68826c2.00806,-0.71202 -0.96014,-3.70028 -1.72413,-3.91114c-0.23537,-0.15466 -0.47076,-0.30934 -0.70613,-0.46402l0.14014,0.10633c0,0 -0.63309,0 -0.63309,-0.63309zM348.10957,266.82031l0.13334,0.02521c0.18669,0.12671 0.37337,0.2534 0.56006,0.38011c1.96097,0.73381 4.75987,4.77952 1.65237,6.21837c-2.24959,1.04162 -6.38915,-0.97813 -8.50374,-1.68826c-1.6544,-0.86274 -3.78793,-4.41406 -1.89363,-6.30835c1.41794,-1.41795 6.43554,-0.06575 7.76287,0.76503c0,0 0.35187,0.23459 0.28873,0.60788z" fill="#ffffff" stroke="none" stroke-width="0.5" stroke-linecap="butt"/><path d="M357.53237,286.85928c-0.28313,0.56625 -0.84938,0.28312 -0.84938,0.28312l-0.33914,-0.17668c-2.50947,-0.83649 -4.73964,-2.38233 -7.17507,-3.16547c-1.84449,-0.61484 -3.68965,-1.34412 -5.59906,-1.66394c-0.22046,-0.03693 -1.76989,-0.15608 -1.87278,0.09588c-0.23858,0.58421 0.07491,2.18241 0.07491,2.86674c0,0 0,0.63309 -0.63309,0.63309c-0.63309,0 -0.63309,-0.63309 -0.63309,-0.63309c0,-0.77867 -0.34533,-2.81948 0.07491,-3.4642c0.27926,-0.42843 0.72264,-0.67599 1.26895,-0.79251c-1.30881,-2.23775 -2.66124,-6.59566 1.68793,-6.07909c1.62761,0.19331 4.05175,1.81504 5.38189,2.76584c2.19733,0.14019 2.13789,3.60752 2.13789,5.24861v0.21104c0,0 0,0.08561 -0.03148,0.19385c1.88847,0.83877 3.73128,1.91963 5.7185,2.58204l0.50498,0.24539c0,0 0.56626,0.28312 0.28313,0.84938zM349.56915,282.59906c0.07424,0.02594 0.14832,0.0525 0.2223,0.07963c0.00841,-1.06998 0.11919,-4.06308 -1.23905,-3.93784c-2.22154,-1.40192 -9.09176,-4.82421 -6.00876,0.57747c0.22293,0.39058 0.34653,0.83672 0.59907,1.20883c0,0 0.07064,0.10597 0.10104,0.25452c2.24786,0.18099 5.13667,1.42116 6.32541,1.8174z" fill="#ffffff" stroke="none" stroke-width="0.5" stroke-linecap="butt"/><path d="M342.94338,291.59296c0.6039,-0.17857 1.29327,-0.03054 2.01951,0.65543c1.72573,1.63004 2.22372,2.73229 4.95145,3.47701c1.35582,-3.04977 -3.16829,-5.34662 -5.17725,-6.01628c-0.66861,-0.22287 -3.18654,-0.61083 -2.96526,-0.38957c0,0.94908 -0.35034,1.67371 0.70021,1.96365zM341.81329,292.38061c-1.44599,-0.58956 -1.3076,-1.62989 -1.3076,-3.06106c0.29823,-1.73817 2.50005,-1.51278 3.99876,-1.02267c3.18226,1.04067 9.0135,4.39057 6.0074,8.54488c-3.16938,0.22037 -4.77572,-1.66927 -6.44424,-3.69804c-0.28006,-0.34053 -0.53609,-0.46664 -0.76549,-0.44867c-0.13786,0.16758 -0.29583,0.21922 -0.43647,0.22037c-0.56587,0.54266 -0.88276,1.9205 -0.88276,2.31302c0,0 0,0.63309 -0.63309,0.63309c-0.63309,0 -0.63309,-0.63309 -0.63309,-0.63309c0,-0.88384 0.41777,-2.06001 1.09658,-2.84781z" fill="#ffffff" stroke="none" stroke-width="0.5" stroke-linecap="butt"/><path d="M368.56755,264.20947c-0.42469,-0.84938 0.42469,-1.27408 0.42469,-1.27408l0.49407,-0.24337c0.72301,-0.15749 1.09324,-1.35943 0.59474,-1.9714c-0.0839,-0.10299 -3.21569,1.23111 -3.52498,1.26577c-3.73292,0.41841 -8.59137,-0.83969 -5.97263,-5.4432c0,0 0.48858,-0.81431 1.30289,-0.32573c0.81431,0.48858 0.32573,1.30289 0.32573,1.30289c-2.93304,4.5193 5.99255,1.5468 7.32234,1.52083c0.58769,-0.01147 1.28995,-0.15426 1.7508,0.21063c1.92945,1.52771 0.42117,4.46724 -1.09349,5.20365l-0.35005,0.17868c0,0 -0.84938,0.42469 -1.27408,-0.42469z" fill="#ffffff" stroke="none" stroke-width="0.5" stroke-linecap="butt"/><path d="M367.17673,267.93689c-0.68096,-0.41825 -1.09786,-0.74995 -1.92152,-0.8934c-8.37988,-1.45947 1.94675,8.69338 4.56097,4.58388c0.25654,-1.46871 -0.10038,-2.42146 -1.59607,-2.95129l-0.80718,-0.51363c0,0 -0.12063,-0.08043 -0.23621,-0.22556zM368.50375,266.60899l0.42174,0.30364c2.54093,1.09178 3.18525,2.87347 2.62457,5.48996c-2.52888,3.20637 -10.35929,1.24331 -11.48956,-2.87753c-1.00173,-3.6522 2.68041,-4.88408 5.49895,-4.35634c1.2612,0.23614 1.61897,0.56091 2.6578,1.17823c0,0 0.15294,0.09176 0.28649,0.26204z" fill="#ffffff" stroke="none" stroke-width="0.5" stroke-linecap="butt"/><path d="M380.07402,287.84233c0,0.94964 -0.94964,0.94964 -0.94964,0.94964l-0.56372,-0.06792c-2.5302,-1.01225 -5.54642,-1.93418 -7.91244,-3.21472c-1.24747,-0.67517 -2.14025,-1.74793 -3.52783,-2.01157c-2.52026,-0.47885 -4.48466,-1.85676 -5.00247,0.73226c0,0 -0.18624,0.93119 -1.11744,0.74496c-0.93119,-0.18624 -0.74496,-1.11744 -0.74496,-1.11744c0.28354,-1.41765 0.78453,-2.25317 1.55344,-2.68205c-0.72777,-0.13501 -0.72775,-0.93027 -0.72775,-0.93027c0.08905,-1.37938 -1.73006,-3.31301 -0.07449,-4.74399c3.25661,-2.8148 9.59498,3.64724 10.16463,6.37267l0.39351,0.97307c0,0 0.06917,0.17292 0.06967,0.39624c2.587,1.25323 5.14289,2.72215 7.63153,3.71743l-0.14165,-0.06793c0,0 0.94964,0 0.94964,0.94964zM365.37589,281.00095c1.30747,0.23276 2.61439,0.65767 3.91623,1.18846c-0.63906,-1.98748 -4.95474,-6.53763 -7.08128,-5.2194c-0.15868,0.09837 0.76052,3.02166 0.76964,3.2752c0,0 0,0.33898 -0.20253,0.61189c0.7082,-0.10994 1.56774,-0.03954 2.59794,0.14386z" fill="#ffffff" stroke="none" stroke-width="0.5" stroke-linecap="butt"/><path d="M362.13636,295.0174c0,0.52448 -0.42516,0.94964 -0.94964,0.94964c-0.49974,0 -0.90933,-0.38602 -0.94684,-0.87615c-0.19423,-0.06008 -0.38992,-0.20151 -0.53564,-0.49294c-0.42469,-0.84938 0.42469,-1.27408 0.42469,-1.27408l1.06876,-0.43996c-0.64945,-0.86949 -1.12805,-1.79082 -1.34822,-2.67778c-0.89992,-3.62523 2.99503,-3.31864 5.10137,-2.38661c0.95652,0.42324 2.07717,1.16834 2.92556,1.79547c0,0 0.01713,0.01284 0.0443,0.03724c0.22263,0.05745 0.37777,0.1738 0.37777,0.1738l0.89655,0.6754c1.88839,1.93315 2.20082,4.13733 0.58854,6.32487c-2.02181,0.80294 -4.6571,-0.24579 -6.72448,-1.98288c-0.32032,-0.05635 -0.64416,-0.09646 -0.96894,-0.11952c0.03001,0.09242 0.04623,0.19107 0.04623,0.2935zM367.11459,291.30822c-0.22263,-0.05745 -0.37777,-0.1738 -0.37777,-0.1738c-0.54256,-0.41444 -1.19848,-0.65442 -1.79475,-0.98701c-7.30285,-4.07343 0.64205,6.41286 3.68616,5.1714c0.83989,-1.05903 0.17516,-2.56021 -0.67765,-3.38257l-0.79171,-0.59079c0,0 -0.01713,-0.01284 -0.0443,-0.03724z" fill="#ffffff" stroke="none" stroke-width="0.5" stroke-linecap="butt"/><path d="M328.11811,243.37013v-3.03885h76.2245v3.03885z" fill="#ffffff" stroke="none" stroke-width="0" stroke-linecap="butt"/><path d="M328.11811,245.64928v-1.01295h76.2245v1.01295z" fill="#ffffff" stroke="none" stroke-width="0" stroke-linecap="butt"/><path d="M328.37134,250.71402v-1.26619h75.97126v1.26619z" fill="#ffffff" stroke="none" stroke-width="0" stroke-linecap="butt"/><path d="M328.37134,247.92842v-1.01295h75.71803v1.01295z" fill="#ffffff" stroke="none" stroke-width="0" stroke-linecap="butt"/><text transform="translate(340.83523,317.2047) scale(0.4543,0.4543)" font-size="40" xml:space="preserve" fill="#ffffff" fill-rule="nonzero" stroke="none" stroke-width="1" stroke-linecap="butt" stroke-linejoin="miter" stroke-miterlimit="10" stroke-dasharray="" stroke-dashoffset="0" font-family="Sans Serif" font-weight="normal" text-anchor="start" style="mix-blend-mode: normal"><tspan x="0" dy="0">pop</tspan></text><path d="M332.42314,255.27231v91.16552" fill="none" stroke="#ffffff" stroke-width="1" stroke-linecap="round"/><path d="M403.58291,349.09681h-74.38853" fill="none" stroke="#ffffff" stroke-width="1" stroke-linecap="round"/><path d="M332.6764,354.54142v-3.54533" fill="none" stroke="#ffffff" stroke-width="1" stroke-linecap="round"/><path d="M388.45194,258.5644c0,-0.52447 0.42517,-0.94964 0.94964,-0.94964c0.52447,0 0.94964,0.42517 0.94964,0.94964c0,0.52447 -0.42517,0.94964 -0.94964,0.94964c-0.52447,0 -0.94964,-0.42517 -0.94964,-0.94964z" fill="#329e3b" stroke="none" stroke-width="0.5" stroke-linecap="butt"/></g></g></g></svg>