<svg version="1.1" xmlns="http://www.w3.org/2000/svg" xmlns:xlink="http://www.w3.org/1999/xlink" width="81.00002" height="44.71875" viewBox="0,0,81.00002,44.71875"><g transform="translate(-279.5,-165.53125)"><g data-paper-data="{&quot;isPaintingLayer&quot;:true}" fill-rule="nonzero" stroke-linejoin="miter" stroke-miterlimit="10" stroke-dasharray="" stroke-dashoffset="0" style="mix-blend-mode: normal"><path d="M279.75,190v-20h80.5v20z" fill="#353535" stroke="#000000" stroke-width="0.5" stroke-linecap="butt"/><g data-paper-data="{&quot;index&quot;:null}" fill="none" stroke="#ffffff" stroke-width="0.5"><path d="M316.85435,176.54148c0,0 36.85906,0.08399 37.58333,-0.41667c1.2847,-0.88808 3.28646,-3.76389 3.28646,-3.76389c0,0 0.0039,6.25656 -3.7031,6.26798c-7.3643,0.02269 -32.07254,0.22044 -36.96129,0.31262c-4.71263,0.08886 -3.73772,2.24786 -3.99525,3.28071c-0.20163,0.85434 4.73278,6.57893 3.09563,5.75344c-4.04159,-2.03786 -5.60653,-2.58334 -5.49155,-5.83697c0.1973,-5.583 6.18577,-5.59722 6.18577,-5.59722z" stroke-linecap="round"/><path d="M352.36302,178.42045l-35.33333,0.28571v-1.92063l35.33333,-0.2381z" stroke-linecap="butt"/></g><path d="M279.8323,169.98125v-4.2h4.2v4.2z" fill="#ffffff" stroke="#000000" stroke-width="0.5" stroke-linecap="butt"/><text transform="translate(281.20548,168.67472) scale(0.06232,0.06232)" font-size="40" xml:space="preserve" fill="#141414" fill-rule="nonzero" stroke="none" stroke-width="1" stroke-linecap="butt" stroke-linejoin="miter" stroke-miterlimit="10" stroke-dasharray="" stroke-dashoffset="0" font-family="Malgun Gothic" font-weight="normal" text-anchor="start" style="mix-blend-mode: normal"><tspan x="0" dy="0">1</tspan></text><path d="M284.06308,169.98125v-4.2h4.2v4.2z" fill="#151515" stroke="#000000" stroke-width="0.5" stroke-linecap="butt"/><text transform="translate(285.43626,168.67472) scale(0.06232,0.06232)" font-size="40" xml:space="preserve" fill="#ffffff" fill-rule="nonzero" stroke="none" stroke-width="1" stroke-linecap="butt" stroke-linejoin="miter" stroke-miterlimit="10" stroke-dasharray="" stroke-dashoffset="0" font-family="Malgun Gothic" font-weight="normal" text-anchor="start" style="mix-blend-mode: normal"><tspan x="0" dy="0">2</tspan></text><path d="M288.2631,169.98125v-4.2h4.2v4.2z" fill="#141414" stroke="#000000" stroke-width="0.5" stroke-linecap="butt"/><text transform="translate(289.63626,168.67472) scale(0.06232,0.06232)" font-size="40" xml:space="preserve" fill="#ffffff" fill-rule="nonzero" stroke="none" stroke-width="1" stroke-linecap="butt" stroke-linejoin="miter" stroke-miterlimit="10" stroke-dasharray="" stroke-dashoffset="0" font-family="Malgun Gothic" font-weight="normal" text-anchor="start" style="mix-blend-mode: normal"><tspan x="0" dy="0">3</tspan></text><path d="M292.56308,169.98125v-4.2h4.2v4.2z" fill="#141414" stroke="#000000" stroke-width="0.5" stroke-linecap="butt"/><text transform="translate(293.93626,168.67472) scale(0.06232,0.06232)" font-size="40" xml:space="preserve" fill="#ffffff" fill-rule="nonzero" stroke="none" stroke-width="1" stroke-linecap="butt" stroke-linejoin="miter" stroke-miterlimit="10" stroke-dasharray="" stroke-dashoffset="0" font-family="Malgun Gothic" font-weight="normal" text-anchor="start" style="mix-blend-mode: normal"><tspan x="0" dy="0">4</tspan></text><path d="M279.75002,210v-20h80.5v20z" fill="#141414" stroke="#000000" stroke-width="0.5" stroke-linecap="butt"/><g fill="none" stroke="#ffffff" stroke-width="0.5" stroke-linecap="round"><path d="M356.27725,202.62906c0,0 -6.2533,2.82967 -12.61905,-0.09524"/><path d="M343.56297,201.01001l12.90476,-0.14285"/><path d="M343.75344,199.62085c6.36575,-2.92491 12.61905,-0.09524 12.61905,-0.09524" data-paper-data="{&quot;index&quot;:null}"/><path d="M352.99154,196.86716c1.0203,0.15004 3.15345,1.32095 3.52381,2.38095c0.37036,1.06 0.24183,2.47105 0.09524,3.33333c-0.14659,0.86228 -2.18879,2.3711 -4.14286,2.76191c-1.95407,0.39081 -3.67096,0.34704 -5.09524,0.04762c-1.42428,-0.29942 -3.68471,-1.25397 -3.85714,-2.61905c-0.17243,-1.36508 0.02255,-3.36091 0.02255,-3.36091c0,0 -0.38513,-1.1328 2.6099,-2.12736c2.48964,-0.82674 6.23979,-0.50531 6.84374,-0.41649z"/><path d="M353.27726,196.91479c0,0 -4.373,-0.22958 -6.09524,0.19048c-1.72223,0.42005 -3.45796,0.86867 -3.66666,2.19047c-0.2087,1.3218 0.04762,3.42857 0.04762,3.42857l-1.52381,0.19047l-0.04762,0.90476l-1.19048,0.23809l-0.14286,-5.57143c0,0 1.88749,-1.4711 3.7619,-2.19047c1.87441,-0.71937 3.3741,-1.13899 5.04762,-1.19048c1.67351,-0.05149 4.23809,0.66667 4.23809,0.66667l-0.42857,1.14285z"/><path d="M346.54634,205.15615c0,0 -0.61996,-2.3369 -0.63158,-4.10526c-0.01396,-2.12345 0.63158,-3.47369 0.63158,-3.47369"/><path d="M353.07266,205.10352c0,0 0.6573,-1.8766 0.63158,-4.31579c-0.02859,-2.71186 -0.63158,-3.73684 -0.63158,-3.73684"/><path d="M350.07266,205.52458v-8.52632"/></g></g></g></svg>