<svg version="1.1" xmlns="http://www.w3.org/2000/svg" xmlns:xlink="http://www.w3.org/1999/xlink" width="8.75527" height="15.55715" viewBox="0,0,8.75527,15.55715"><defs><linearGradient x1="339.6479" y1="170.03774" x2="339.6479" y2="185.09489" gradientUnits="userSpaceOnUse" id="color-1"><stop offset="0" stop-color="#ce5ade"/><stop offset="1" stop-color="#4aff6d"/></linearGradient><linearGradient x1="339.65143" y1="171.93119" x2="339.65143" y2="172.47664" gradientUnits="userSpaceOnUse" id="color-2"><stop offset="0" stop-color="#000000"/><stop offset="1" stop-color="#000000" stop-opacity="0"/></linearGradient><linearGradient x1="339.65143" y1="174.65846" x2="339.65143" y2="175.20391" gradientUnits="userSpaceOnUse" id="color-3"><stop offset="0" stop-color="#000000"/><stop offset="1" stop-color="#000000" stop-opacity="0"/></linearGradient><linearGradient x1="339.65143" y1="177.38573" x2="339.65143" y2="177.93119" gradientUnits="userSpaceOnUse" id="color-4"><stop offset="0" stop-color="#000000"/><stop offset="1" stop-color="#000000" stop-opacity="0"/></linearGradient><linearGradient x1="339.65143" y1="180.11301" x2="339.65143" y2="180.65846" gradientUnits="userSpaceOnUse" id="color-5"><stop offset="0" stop-color="#000000"/><stop offset="1" stop-color="#000000" stop-opacity="0"/></linearGradient><linearGradient x1="339.65143" y1="182.84028" x2="339.65143" y2="183.38572" gradientUnits="userSpaceOnUse" id="color-6"><stop offset="0" stop-color="#000000"/><stop offset="1" stop-color="#000000" stop-opacity="0"/></linearGradient></defs><g transform="translate(-335.27026,-169.78773)"><g data-paper-data="{&quot;isPaintingLayer&quot;:true}" fill-rule="nonzero" stroke-linejoin="miter" stroke-miterlimit="10" stroke-dasharray="" stroke-dashoffset="0" style="mix-blend-mode: normal"><path d="M335.52026,185.09489v-15.05715h8.25527v15.05715z" fill="url(#color-1)" stroke="#000000" stroke-width="0.5" stroke-linecap="butt"/><path d="M336.31049,174.22221c0,0 1.8967,0.58769 2.83333,0c0.93664,-0.58769 -0.67705,-1.36899 0,-1.77777c0.67705,-0.40878 2.94445,0 2.94445,0" fill="none" stroke="#ef5a94" stroke-width="0.5" stroke-linecap="round"/><path d="M337.14382,175.05554c0,0 1.8967,0.58769 2.83333,0c0.93664,-0.58769 -0.67705,-1.36899 0,-1.77778c0.67705,-0.40878 2.94445,0 2.94445,0" fill="none" stroke="#ef5a94" stroke-width="0.5" stroke-linecap="round"/><text transform="translate(342.41332,174.11486) scale(0.01217,0.01217)" font-size="40" xml:space="preserve" fill="#ef5a94" fill-rule="nonzero" stroke="none" stroke-width="1" stroke-linecap="butt" stroke-linejoin="miter" stroke-miterlimit="10" stroke-dasharray="" stroke-dashoffset="0" font-family="Sans Serif" font-weight="normal" text-anchor="start" style="mix-blend-mode: normal"><tspan x="0" dy="0">TM</tspan></text><text transform="translate(336.96309,176.45672) scale(0.02173,0.02173)" font-size="40" xml:space="preserve" fill="#aade5b" fill-rule="nonzero" stroke="none" stroke-width="1" stroke-linecap="butt" stroke-linejoin="miter" stroke-miterlimit="10" stroke-dasharray="" stroke-dashoffset="0" font-family="Sans Serif" font-weight="normal" text-anchor="start" style="mix-blend-mode: normal"><tspan x="0" dy="0">Lime Flavoured</tspan></text><path d="M335.76506,172.47664v-0.54545h7.77273v0.54545z" fill="url(#color-2)" stroke="none" stroke-width="0" stroke-linecap="butt"/><path d="M335.76506,175.20391v-0.54545h7.77272v0.54545z" fill="url(#color-3)" stroke="none" stroke-width="0" stroke-linecap="butt"/><path d="M335.76506,177.93119v-0.54545h7.77272v0.54545z" fill="url(#color-4)" stroke="none" stroke-width="0" stroke-linecap="butt"/><path d="M335.76506,180.65846v-0.54545h7.77272v0.54545z" fill="url(#color-5)" stroke="none" stroke-width="0" stroke-linecap="butt"/><path d="M335.76506,183.38572v-0.54545h7.77272v0.54545z" fill="url(#color-6)" stroke="none" stroke-width="0" stroke-linecap="butt"/></g></g></svg>