<svg version="1.1" xmlns="http://www.w3.org/2000/svg" xmlns:xlink="http://www.w3.org/1999/xlink" width="709.17568" height="875.29392" viewBox="0,0,709.17568,875.29392"><defs><linearGradient x1="320" y1="-29.45946" x2="320" y2="389.45946" gradientUnits="userSpaceOnUse" id="color-1"><stop offset="0" stop-color="#393939"/><stop offset="1" stop-color="#2d2d2d"/></linearGradient></defs><g transform="translate(36.6982,29.45946)"><g data-paper-data="{&quot;isPaintingLayer&quot;:true}" fill-rule="nonzero" stroke-linejoin="miter" stroke-miterlimit="10" stroke-dasharray="" stroke-dashoffset="0" style="mix-blend-mode: normal"><path d="M-17.83784,389.45946v-418.91892h675.67568v418.91892z" fill="url(#color-1)" stroke="#2f2f2f" stroke-width="0" stroke-linecap="butt"/><path d="M-35.6982,256.55332l702.70271,16.51651" fill="none" stroke="#000000" stroke-width="2" stroke-linecap="round"/><path d="M162.37464,303.22077c-0.20155,-2.36274 -1.43305,-5.00794 -2.02229,-6.76935c-1.61536,-3.24516 -2.91306,-6.3559 -5.42702,-8.60887c4.81707,-0.33855 9.75334,0.44111 14.56449,0.0123c4.14774,-0.36969 8.31237,-1.45102 12.47044,-2.05385c0.29619,0.09197 0.53867,0.09373 0.53867,0.09373c5.49009,0 10.4731,0.42618 13.28096,6.0045c1.11092,2.20706 2.62981,10.78672 -1.23259,9.79273c-9.91863,-1.62666 -22.3951,-1.74972 -32.17267,1.52882z" data-paper-data="{&quot;noHover&quot;:false,&quot;origItem&quot;:[&quot;Path&quot;,{&quot;applyMatrix&quot;:true,&quot;segments&quot;:[[[343.93862,607.18566],[-15.16008,-2.48626],[5.90346,1.51926]],[[345.8167,592.26716],[1.69798,3.37336],[-4.29166,-8.52616]],[[325.55632,583.15626],[8.3913,0],[0,0]],[[324.73672,583.0157],[0.4527,0.14056],[-6.35538,0.9214]],[[305.80266,586.1441],[6.3396,-0.56506],[-7.35358,0.65542]],[[283.5672,586.08388],[7.36262,-0.51746],[3.84244,3.44354]],[[291.86602,599.19956],[-2.469,-4.96004],[0.90062,2.69222]],[[294.94198,609.50452],[-0.30806,-3.61132],[14.94448,-5.01106]]],&quot;closed&quot;:true,&quot;fillColor&quot;:[0,0,0,1]}]}" fill="#330d0d" stroke="none" stroke-width="0.5" stroke-linecap="butt"/><path d="M109.29521,290.68222c0,0 0.08911,-0.08964 0.19295,-0.24275c1.07802,0.14657 2.21602,0.05781 3.23156,0.06391c5.48156,0.03292 10.8731,0.94407 16.39314,0.94407c4.35152,0 8.95567,0.35168 13.30109,0.02217c1.40398,-0.10646 2.99087,0.23642 4.19809,-0.48822c0.60267,-0.36176 0.90749,-0.73654 1.20227,-1.21504c0.79717,-0.26641 1.72467,-0.6171 2.54008,-0.89132l0.68307,0.14366c3.51451,1.7095 4.73237,5.31194 6.42296,8.67645c0.48897,1.47241 1.9291,4.32472 1.78086,6.26778c-0.28333,0.2042 -0.52938,0.53492 -0.58656,1.06203c-0.452,0.18817 -1.10816,0.18613 -1.58431,0.26247c-2.52582,0.40505 -5.35778,0.31488 -7.9185,0.31407c-9.83589,-0.00309 -19.96946,-0.65136 -29.68919,0.99863c-3.44435,-0.01051 -6.89686,-0.02593 -10.34123,-0.02015c-1.05975,0.00178 -3.74889,0.18469 -4.76792,-0.54065c-0.55315,-0.39372 -0.20268,-3.31968 -0.1483,-3.91783c0.38975,-4.28722 2.04174,-8.40551 5.08992,-11.43928z" data-paper-data="{&quot;noHover&quot;:false,&quot;origItem&quot;:[&quot;Path&quot;,{&quot;applyMatrix&quot;:true,&quot;segments&quot;:[[[213.82408,590.42402],[0,0],[-4.65898,4.63694]],[[206.0478,607.86246],[0.59572,-6.55278],[-0.08312,0.91424]],[[206.2714,613.83732],[-0.84546,-0.60178],[1.55754,1.10864]],[[213.55632,614.65624],[-1.61978,0.00272],[5.26452,-0.00884]],[[229.35012,614.66476],[-5.2645,-0.01606],[14.85608,-2.52192]],[[274.55632,613.15624],[-15.03362,-0.00472],[3.91392,0.00124]],[[286.65466,612.68872],[-3.86058,0.6191],[0.72776,-0.1167]],[[289.0755,612.28996],[-0.69086,0.2876],[0.08738,-0.80566]],[[289.97102,610.67074],[-0.43306,0.3121],[0.22658,-2.96986]],[[287.24662,601.11296],[0.74736,2.2505],[-2.58398,-5.14248]],[[277.43828,587.89232],[5.37174,2.61288],[0,0]],[[276.39508,587.67454],[0,0],[-1.2463,0.41914]],[[272.69276,588.9498],[1.21842,-0.4072],[-0.45056,0.73136]],[[270.67434,590.89234],[0.92114,-0.55294],[-1.84516,1.10758]],[[264.26252,591.64774],[2.1459,-0.16272],[-6.64174,0.50364]],[[244.05632,591.65626],[6.65106,0],[-8.43708,0]],[[219.05632,590.15626],[8.37826,0.05032],[-1.5522,-0.00932]],[[214.11864,590.05416],[1.6477,0.22402],[-0.15872,0.23402]],[213.8241,590.42402]],&quot;closed&quot;:true,&quot;fillColor&quot;:[0,0,0,1]}]}" fill="#330d0d" stroke="none" stroke-width="0.5" stroke-linecap="butt"/><path d="M105.91997,224.80302c0.37126,0.14041 0.7188,0.2929 1.02344,0.47104c4.28639,0.76963 8.91605,1.28996 13.40703,1.54784c-0.05208,4.95999 -0.60691,10.05831 -1.49201,15.02643c-0.09354,-0.01081 -0.1517,-0.01038 -0.1517,-0.01038l-1.3147,0.00384c-7.13529,0.03852 -11.14006,-5.10985 -12.20765,-11.73243c-0.27502,-1.70601 0.25265,-3.55036 0.73558,-5.30634z" data-paper-data="{&quot;noHover&quot;:false,&quot;origItem&quot;:[&quot;Path&quot;,{&quot;applyMatrix&quot;:true,&quot;segments&quot;:[[[207.53758,497.8508],[-0.42036,-2.60754],[1.63176,10.12226]],[[226.05632,515.65626],[-10.9059,0.05888],[0,0]],[228.05632,515.65626],[[228.28726,515.67278],[-0.14296,-0.01652],[1.35282,-7.5935]],[[230.55002,492.85184],[-0.0796,7.58108],[-6.86422,-0.39416]],[[210.19254,490.5023],[6.55152,1.17634],[-0.46564,-0.27228]],[[208.63232,489.77926],[0.56744,0.21462],[-0.73814,2.68392]]],&quot;closed&quot;:true,&quot;fillColor&quot;:[0,0,0,1]}]}" fill="#ffe280" stroke="none" stroke-width="0.5" stroke-linecap="butt"/><path d="M191.11111,234.74439c-0.9895,4.30037 -8.43763,4.31471 -11.56271,4.82388c-0.62968,-3.1676 -1.7417,-6.30369 -1.72952,-9.58479l-0.26647,-1.23352c4.09062,-0.85137 8.12384,-2.5072 12.32289,-3.05611c0.08063,-0.01055 0.16034,-0.01877 0.2373,-0.0264c0.35585,2.94112 1.65945,6.20459 0.99853,9.07693z" data-paper-data="{&quot;noHover&quot;:false,&quot;origItem&quot;:[&quot;Path&quot;,{&quot;applyMatrix&quot;:true,&quot;segments&quot;:[[[338.6846,504.86568],[0,0],[1.01018,-4.39022]],[[337.19032,491.09978],[0.5439,4.49534],[-0.11764,0.01166]],[[336.8291,491.14132],[0.12324,-0.01612],[-6.41802,0.83896]],[[318.14328,495.7829],[6.2523,-1.30128],[0,0]],[[318.5563,497.65626],[0,0],[-0.01862,5.01498]],[[321.1643,512.18716],[-0.96244,-4.8415],[4.77652,-0.77824]],[[338.68458,504.86568],[-1.5124,6.57288],[0,0]]],&quot;closed&quot;:true,&quot;fillColor&quot;:[0,0,0,1]}]}" fill="#ffe280" stroke="none" stroke-width="0.5" stroke-linecap="butt"/><path d="M172.76158,227.9968c0.06256,0.42225 0.1302,0.84505 0.2011,1.26605c0.49099,0.00017 0.97901,-0.01821 1.46239,-0.0546l0.23079,0.75442c0.01243,3.94979 1.45399,7.53592 1.99249,11.38719c1.33884,7.89117 0.85084,15.98852 1.96167,23.87493c0.82964,5.89014 2.62915,11.787 2.98486,17.74724c-0.00799,0.00471 -0.016,0.00955 -0.02397,0.01443c-2.80038,-0.85264 -6.31164,0.92134 -9.10551,1.38644c-5.97658,0.99493 -12.25397,-0.22886 -18.27989,0.33561c-1.90616,0.17856 -3.81413,0.81063 -5.67892,1.4435c-0.02289,-0.59803 -0.07613,-1.32739 -0.07613,-1.90576c0,-6.91467 -0.01269,-13.8223 -0.02859,-20.73695c-1.0097,-6.15314 -1.60692,-12.15584 -1.60692,-18.38863l0.00068,-1.30845c0,0 0.00751,-1.6353 -1.62814,-1.6353c-1.63565,0 -1.62798,1.63511 -1.62798,1.63511l0.00086,1.3084c0,6.31431 0.57799,12.42224 1.6339,18.65116c-0.01596,6.17044 -0.00708,12.341 -0.00708,18.51146c0,0.39894 0.16324,3.46687 0.09407,4.97575c-0.28849,0.17639 -0.63324,0.48271 -0.73714,0.97417c-4.86343,0.67967 -10.52238,0.06159 -15.41754,0.06159c-4.78244,0 -9.25156,-0.69335 -13.99219,-0.99092c-1.23886,-0.07776 -4.78013,0.69216 -5.84363,-0.11409c-0.57749,-0.43781 0.78349,-1.23006 1.05173,-1.90328c0.52918,-1.3281 0.73149,-2.76738 1.05216,-4.16059c1.28766,-5.59443 3.17402,-11.28969 4.86445,-16.91577c3.95453,-11.86539 7.14364,-24.7322 7.29361,-37.25513c1.21273,0.03698 2.4206,0.05247 3.60847,0.05247c0.72712,0 2.5598,0.15787 4.08355,0.10329c0.40576,0.87498 1.48542,0.87418 1.48542,0.87418c6.44303,0 12.52859,1.16804 18.89735,1.62788c6.36137,0.45931 12.83043,-0.39611 18.95162,-1.62556c0.60055,0.00266 1.20277,0.00679 1.8033,0.00945z" data-paper-data="{&quot;noHover&quot;:false,&quot;origItem&quot;:[&quot;Path&quot;,{&quot;applyMatrix&quot;:true,&quot;segments&quot;:[[[310.05632,494.65626],[0,0],[-0.91788,-0.00406]],[[307.30266,494.64408],[0.9179,0.00406],[-9.3559,1.87914]],[[278.3791,497.14996],[9.723,0.70202],[-9.7343,-0.70284]],[[249.55632,494.65624],[9.84782,0],[0,0]],[[247.2887,493.31888],[0.62018,1.33736],[-2.32896,0.08342]],[[241.05632,493.15624],[1.11136,0],[-1.8156,0]],[[235.5478,493.07158],[1.85358,0.05652],[-0.22922,19.14062]],[[224.43972,549.91078],[6.04428,-18.1356],[-2.58372,8.59916]],[[216.98944,575.7306],[1.96812,-8.55078],[-0.49012,2.12944]],[[215.3775,582.0847],[0.80882,-2.02992],[-0.41,1.02898]],[[213.76886,584.99234],[-0.88266,-0.66916],[1.6255,1.2323]],[[222.69456,585.16004],[-1.89352,-0.11886],[7.2458,0.45482]],[[244.05632,586.65622],[-7.3097,0],[7.48198,0]],[[267.57694,586.5504],[-7.43348,1.03884],[0.1588,-0.75116]],[[268.70122,585.0614],[-0.44094,0.2696],[0.10572,-2.30624]],[[268.55632,577.65624],[0,0.60976],[0,-9.43122]],[[268.56484,549.36244],[-0.0244,9.43118],[-1.6139,-9.52056]],[[266.05632,520.65624],[0,9.65108],[0,0]],[266.05632,518.65624],[[268.55632,516.15624],[-2.5,0],[2.5,0]],[271.05632,518.65624],[[271.05632,520.65624],[0,0],[0,9.52648]],[[273.5478,548.95004],[-1.54328,-9.40474],[0.0243,10.56866]],[[273.55632,580.65624],[0,-10.5687],[0,0.884]],[[273.65016,583.37036],[-0.03498,-0.91406],[2.85022,-0.9673]],[[282.30998,581.1684],[-2.91346,0.27292],[9.2103,-0.86276]],[[310.20956,580.6804],[-9.13488,1.5207],[4.27028,-0.71088]],[[324.11614,578.5742],[-4.28022,-1.30322],[0.01218,-0.00746]],[[324.15274,578.5522],[-0.01222,0.0072],[-0.54368,-9.1099]],[[319.57506,551.4617],[1.26806,9.00276],[-1.69784,-12.05394]],[[316.58574,515.03854],[2.04634,12.06122],[-0.82306,-5.88646]],[[313.55634,497.65624],[0.019,6.03704],[0,0]],[[313.2048,496.50438],[0,0],[-0.73882,0.05562]],[[310.97138,496.5896],[0.75046,0.00026],[-0.10836,-0.64348]],[[310.66586,494.65624],[0.09562,0.64538],[0,0]]],&quot;closed&quot;:true,&quot;fillColor&quot;:[0,0,0,1]}]}" fill="#a7a7a7" stroke="none" stroke-width="0.5" stroke-linecap="butt"/><path d="M160.6177,146.40963c4.40064,-0.2543 8.84453,-0.84311 13.06303,-1.99275c-0.1017,0.42116 -0.02755,0.79265 -0.02755,0.79265c0.64845,3.21236 1.6899,6.27405 2.66363,9.32634c1.04102,3.26323 0.60611,7.05933 1.63523,10.45244c3.13783,10.34565 7.42717,20.01379 9.02313,30.82841c1.09931,7.43269 2.94543,13.92692 5.76476,20.77266c0.23174,0.5627 1.14365,5.20838 0.62368,5.5259c-1.32208,0.80733 -2.48338,0.25264 -3.865,0.44024c-3.11689,0.42324 -6.46999,1.44672 -9.52232,2.19022c-0.71623,0.17445 -3.73638,0.73723 -4.71675,1.69961c-0.00059,-0.04794 -0.00261,-0.09446 -0.00594,-0.13958c1.22522,-2.99011 -0.47116,-7.7686 -0.78438,-10.74799c-0.58925,-5.60488 -2.98086,-10.35498 -3.82913,-15.81381c-0.91514,-5.88916 -1.8066,-11.83202 -2.65197,-17.7517l-0.48114,-1.15962c0,0 -0.61294,-1.4076 -2.0759,-0.67612c-1.46296,0.73149 -0.7276,2.18331 -0.7276,2.18331l0.17103,0.15355c0.84529,5.91509 1.64199,11.71584 2.58874,17.59113c0.69624,4.32063 2.95696,8.14964 3.58284,12.49582c0.579,4.02074 0.81569,8.08906 1.26164,12.12841c-0.7018,0.00263 -1.42271,0.13466 -2.12451,0.13729c-0.59689,0.11903 -1.19907,0.23445 -1.80085,0.34631c-1.42353,-4.88562 -0.80542,-9.78008 -1.67126,-14.68682c-1.12991,-6.40328 -2.02017,-12.91871 -3.30902,-19.35c-0.60725,-4.25074 -0.25266,-8.42401 -0.63485,-12.67068c-0.77926,-8.65851 -1.27223,-17.00416 -1.27223,-25.73883c-0.0074,-1.97188 -0.29893,-3.63322 -0.68348,-5.556z" data-paper-data="{&quot;noHover&quot;:false,&quot;origItem&quot;:[&quot;Path&quot;,{&quot;applyMatrix&quot;:true,&quot;segments&quot;:[[[292.50776,371.16596],[0,0],[0.58776,2.93888]],[[293.5563,379.65626],[-0.0113,-3.01392],[0,13.35046]],[[295.54778,418.95006],[-1.19106,-13.23406],[0.58416,6.4908]],[[296.5204,438.23418],[-0.92814,-6.49702],[1.96994,9.82988]],[[301.524,467.7558],[-1.727,-9.78706],[1.32338,7.49968]],[[304.06158,490.19854],[-2.17578,-7.4674],[0.91978,-0.17096]],[[306.80994,489.66842],[-0.91232,0.18194],[1.07266,-0.00402]],[[310.0279,489.65636],[-1.07266,0.00402],[-0.68162,-6.17392]],[[308.08992,471.11712],[0.88498,6.14548],[-0.95662,-6.6429]],[[302.58058,452.00394],[1.06416,6.60384],[-1.44706,-8.98006]],[[298.58142,425.0098],[1.29198,9.04088],[0,0]],[298.32022,424.77428],[[299.43826,421.42018],[-2.23606,1.11804],[2.23606,-1.11802]],[302.79236,422.53822],[[303.53116,424.3027],[0,0],[1.2921,9.0479]],[[307.532,451.30856],[-1.39874,-9.00126],[1.29652,8.34352]],[[313.35224,475.4707],[-0.90064,-8.56676],[0.47874,4.55384]],[[314.54696,491.89814],[1.87268,-4.57022],[0.0051,0.06896]],[[314.55602,492.11148],[-0.0009,-0.07328],[1.49844,-1.47094]],[[321.75352,489.5139],[-1.09472,0.26664],[4.66532,-1.1364]],[[336.2835,486.17116],[-4.764,0.6469],[2.11172,-0.28674]],[[342.1821,485.50172],[-2.02072,1.23396],[0.79474,-0.48532]],[[341.2245,477.05772],[0.3542,0.86006],[-4.3092,-10.46334]],[[332.38928,445.32484],[1.68024,11.36046],[-2.43934,-16.52956]],[[318.66262,398.37756],[4.796,15.81276],[-1.57296,-5.18618]],[[316.17,382.40164],[1.59114,4.98766],[-1.4883,-4.66526]],[[312.10482,368.1465],[0.99112,4.90992],[0,0]],[[312.1467,366.935],[-0.15544,0.64372],[-6.44774,1.75716]],[[292.2112,369.9733],[6.72614,-0.38868],[0,0]]],&quot;closed&quot;:true,&quot;fillColor&quot;:[0,0,0,1]}]}" fill="#a7a7a7" stroke="none" stroke-width="0.5" stroke-linecap="butt"/><path d="M139.9574,225.23229c-1.84957,-0.181 -3.71736,-0.31949 -5.60585,-0.37264c0.12236,-1.04307 -0.12584,-2.29702 -0.00677,-3.25884c0.78205,-6.31735 1.04161,-12.63779 1.93954,-18.92821c0.744,-7.45147 2.50693,-14.71543 3.56814,-22.1425l0.01758,-1.20843c0,0 0.00285,-1.62804 -1.6328,-1.62804c-1.63565,0 -1.51475,1.58575 -1.51475,1.58575l0.01753,0.75317c-1.06418,7.45066 -2.88505,14.88052 -3.6338,22.35656c-0.74699,5.22483 -0.35352,10.4848 -1.32154,15.67317c-0.20829,1.11638 -0.52286,2.21591 -0.663,3.34287c-0.11719,0.94243 0.79772,2.06811 0.24276,2.8388c-0.43782,0.60803 -1.46819,-0.38701 -2.21744,-0.38701c-1.30852,0 -2.62346,-0.00115 -3.93198,0.00064c-5.54976,0.0076 -11.61902,-0.71765 -17.12741,-1.53951c-0.67093,-0.41501 -1.23696,-0.80357 -1.85813,-1.11812c-0.19988,-0.27449 -0.52882,-0.50966 -1.06009,-0.5982c-0.26461,-0.04411 -0.49393,-0.03803 -0.69095,0.00371c-0.84995,-0.06932 -2.41783,0.4324 -2.21989,-0.29002c0.84096,-3.06916 3.65014,-6.61233 5.09176,-9.49539c3.82417,-7.64785 6.31546,-16.01607 10.10615,-23.56009c3.75341,-7.50683 7.76491,-15.06871 10.77852,-22.82586c2.61253,-6.72474 5.77913,-13.35558 5.79253,-20.72542c0,0 0.03349,-0.14011 0.03224,-0.16484c3.08175,1.37354 6.42689,2.1329 9.82954,2.54474c0.01279,12.68241 1.20256,26.04903 -0.60894,38.58639c-1.23263,13.54276 -3.32279,26.51879 -3.32279,40.15913z" data-paper-data="{&quot;noHover&quot;:false,&quot;origItem&quot;:[&quot;Path&quot;,{&quot;applyMatrix&quot;:true,&quot;segments&quot;:[[[260.55632,489.65626],[0,0],[0,-20.84852]],[[265.5732,428.36622],[-1.884,20.69936],[2.76878,-19.16268]],[[266.55648,369.4785],[0.01954,19.38438],[-5.20076,-0.62948]],[[251.55442,365.59764],[4.71028,2.09938],[0.0019,0.0378]],[[251.55632,365.65624],[0,0],[-0.02048,11.2644]],[[242.65294,397.5276],[3.9931,-10.2784],[-4.60614,11.85638]],[[226.2924,432.27428],[5.73688,-11.47378],[-5.79386,11.53062]],[[210.80764,468.24328],[5.84504,-11.68932],[-2.20344,4.4066]],[[203.02406,482.7558],[1.28536,-4.69104],[-0.30254,1.10418]],[[206.4126,483.19664],[-1.2991,-0.10596],[0.30114,-0.0638]],[[207.46734,483.19028],[-0.40444,-0.06742],[0.812,0.13534]],[[209.08492,484.1033],[-0.3055,-0.41954],[0.94942,0.48078]],[[211.92012,485.8102],[-1.02548,-0.63432],[8.41928,1.25618]],[[238.05634,488.15624],[-8.4825,0.01162],[2,-0.00274]],[[244.05634,488.15624],[-2,0],[1.14518,0]],[[247.4404,488.74868],[-0.66918,0.92934],[0.84822,-1.17796]],[[247.0685,484.4099],[-0.17912,1.44046],[0.2142,-1.7225]],[[248.0781,479.30138],[-0.31836,1.70632],[1.47956,-7.93014]],[[250.07454,455.35502],[-1.14174,7.98586],[1.14442,-11.42672]],[[255.58146,421.3027],[-1.62654,11.38792],[0,0]],[255.55634,420.15624],[[258.05634,417.65624],[-2.5,0],[2.5,0]],[260.55634,420.15624],[[260.53122,422.00978],[0,0],[-1.622,11.35186]],[[255.03814,455.95746],[1.13716,-11.38916],[-1.37244,9.61456]],[[252.04418,484.90258],[1.19532,-9.65572],[-0.182,1.4701]],[[251.99952,489.69128],[0.18702,-1.59428],[2.88646,0.08124]],[[260.55636,490.26472],[-2.82696,-0.27666],[0,0]]],&quot;closed&quot;:true,&quot;fillColor&quot;:[0,0,0,1]}]}" fill="#a7a7a7" stroke="none" stroke-width="0.5" stroke-linecap="butt"/><path d="M169.06802,129.76859c0,-1.63565 -1.55559,-1.53214 -1.55559,-1.53214l-0.78668,0.00115c-1.49251,0 -3.00835,-0.03242 -4.51363,-0.0478c0.27206,-0.70477 0.48081,-1.52776 0.72004,-2.24951c4.23591,-8.41894 3.77383,-17.47273 3.77383,-26.69408c0,-4.01771 0.77978,-8.03806 -0.30697,-11.95132c0,0 0.05447,-0.13171 0.04543,-0.15794c0.78663,0.0135 1.57994,0.03477 2.37048,0.03477l0.26215,0.00027c0,0 0.8869,0.00097 1.35486,-0.65041c5.63898,7.93152 5.92613,20.66409 6.75211,29.49093c1.97754,6.65772 5.79623,14.3384 2.97067,21.3054c-0.82141,2.02536 -3.20767,2.77074 -5.07954,3.39466c-6.46438,2.15467 -13.64921,2.72013 -20.42551,2.71612c-8.90465,0 -18.28056,-0.20263 -25.24171,-6.78134c-1.57085,-1.48454 -1.70607,-5.62755 -1.70308,-7.57587c0.00873,-5.68163 1.05372,-10.65493 1.78997,-16.20238c2.29368,-8.65272 4.87483,-16.15233 8.54558,-24.29382c2.46606,-5.46958 3.91381,-9.59108 10.57792,-9.52467c0,0 0.4816,-0.00032 0.92145,-0.26011c2.40939,0.00057 4.8333,-0.00233 7.24263,-0.01827c2.75467,0.81267 6.14166,1.62965 8.77783,3.1465c0.04504,0.06938 0.09719,0.13975 0.15625,0.21062c0.36282,0.43537 0.75321,0.59519 1.10532,0.61684c0.0614,0.04627 0.12256,0.09328 0.18264,0.14069c0.40427,0.31901 0.73461,0.77345 1.10414,1.12573c-3.0159,-0.02021 -5.93684,-0.14276 -8.89533,0.58055c0,0 -1.56573,0.26758 -1.16903,1.8544c0.3967,1.58682 1.98923,1.19121 1.98923,1.19121c1.07597,-0.27617 2.1674,-0.40982 3.25745,-0.47181c-0.10852,0.47546 0.01555,0.90716 0.01555,0.90716c1.04077,3.51699 0.21484,7.43534 0.21484,11.07459c0,8.82528 0.45286,17.59831 -3.55446,25.6572c-0.38859,1.15961 -0.85217,2.28715 -1.28347,3.4242c-1.16197,0.04576 -2.33154,0.13664 -3.47749,0.2979c0,0 -1.61998,0.10055 -1.38867,1.71976c0.2313,1.6192 1.8445,1.38798 1.8445,1.38798c0.56736,-0.08243 1.13304,-0.14445 1.70688,-0.19138c0.48449,0.47007 1.19343,0.47065 1.19343,0.47065l1.36483,-0.58829c2.24985,-0.03797 4.50114,0.07301 6.72697,0.07301l0.78357,0.00096c0,0 1.63057,0.0036 1.63057,-1.63205z" data-paper-data="{&quot;noHover&quot;:false,&quot;origItem&quot;:[&quot;Path&quot;,{&quot;applyMatrix&quot;:true,&quot;segments&quot;:[[[305.14986,344.525],[0,0],[0,2.5]],[302.64986,347.025],[[301.44986,347.025],[0,0],[-3.40206,0]],[[291.14268,346.92424],[3.43878,-0.05804],[0,0]],[289.04986,347.825],[[287.22058,347.10652],[0.74052,0.71848],[-0.87708,0.07174]],[[284.6034,347.39988],[0.86718,-0.12598],[0,0]],[[281.77498,345.27856],[0.35354,2.47486],[-0.35354,-2.47488]],[[283.8963,342.45014],[0,0],[1.75152,-0.24648]],[[289.1918,341.99766],[-1.776,0.06994],[0.65922,-1.73792]],[[291.14016,336.76828],[-0.59394,1.7724],[6.12498,-12.31758]],[[296.54986,297.725],[0,13.48896],[0,-5.56238]],[[296.24606,280.8118],[1.59076,5.37552],[0,0]],[[296.22354,279.42574],[-0.16586,0.72672],[-1.66608,0.09474]],[[291.2562,280.15036],[1.64456,-0.4221],[0,0]],[[288.2245,278.33134],[0.60634,2.42536],[-0.60634,-2.42536]],[[290.04352,275.29964],[0,0],[4.5219,-1.10554]],[[303.66686,274.42144],[-4.60964,-0.03088],[-0.5648,-0.53844]],[[301.8935,272.88144],[0.6179,0.48758],[-0.09182,-0.07246]],[[301.615,272.6667],[0.09384,0.07072],[-0.53818,-0.03308]],[[299.92932,271.72544],[0.55454,0.66544],[-0.09026,-0.10832]],[[299.69116,271.40378],[0.06884,0.10604],[-4.02924,-2.31842]],[[286.30312,266.60082],[4.21036,1.24212],[-3.68252,0.02436]],[[275.25538,266.62788],[3.68262,0.00088],[-0.67228,0.39708]],[[273.84988,267.02496],[0,0],[-10.18572,-0.1015]],[[257.7231,281.56536],[3.76924,-8.35996],[-5.61054,12.44382]],[[244.70254,318.60922],[3.50576,-13.2252],[-1.12532,8.47898]],[[241.9499,343.32496],[0.01334,-8.68406],[-0.00458,2.9779]],[[244.53996,354.88862],[-2.40096,-2.26904],[10.63974,10.0552]],[[283.0499,365.22496],[-13.61028,0],[10.3572,0.00612]],[[314.21266,361.09148],[-9.88046,3.2933],[2.86104,-0.95362]],[[321.9636,355.91358],[-1.25548,3.09566],[4.31872,-10.64868]],[[317.39538,323.39972],[3.02256,10.17596],[-1.26246,-13.49136]],[[307.11836,278.42936],[8.61888,12.1229],[-0.71526,0.9956]],[305.04988,279.42496],[[304.64988,279.42496],[0,0],[-1.2083,0]],[[301.03344,279.3755],[1.20232,0.02064],[0.01382,0.0401]],[[301.0537,279.43816],[0,0],[1.66104,5.9812]],[[301.5499,297.72496],[0,-6.14086],[0,14.09432]],[[295.75958,338.68166],[6.47436,-12.86788],[-0.36566,1.10316]],[[294.56792,341.94212],[0.41584,-1.0772],[2.30074,0.0235]],[[301.4499,342.02494],[-2.28122,0],[0,0]],[302.6499,342.02494],[[305.1499,344.52494],[0,-2.5],[0,0]]],&quot;closed&quot;:true,&quot;fillColor&quot;:[0,0,0,1]}]}" fill="#ffe280" stroke="none" stroke-width="0.5" stroke-linecap="butt"/><path d="M183.5653,125.85969c-0.86824,-3.57481 -2.24237,-7.10344 -3.24765,-10.41832c-0.9706,-11.03208 -1.56757,-26.78896 -10.72756,-34.60689c1.59063,-1.57725 3.13972,-3.27861 5.13989,-4.31176c1.72294,-0.88995 2.87481,-0.61929 4.77053,-0.61272c1.85594,0.00644 4.52469,-0.50799 6.29923,0.17574c6.72989,2.59301 8.09027,10.05647 8.09027,16.26929c0.00442,8.03479 3.6828,15.15621 3.65833,23.11877c-0.00718,2.33612 0.39605,5.15768 -1.75176,6.84308c-2.78214,2.18314 -8.59578,3.02498 -12.23129,3.54281z" data-paper-data="{&quot;noHover&quot;:false,&quot;origItem&quot;:[&quot;Path&quot;,{&quot;applyMatrix&quot;:true,&quot;segments&quot;:[[[172.946,166.48487],[-2.12617,1.66841],[1.6414,-1.28802]],[[174.27494,161.2625],[-0.00549,1.78532],[0.0187,-6.08517]],[[171.47494,143.6625],[0.00338,6.14037],[0,-4.74798]],[[165.32639,131.24727],[5.14314,1.98164],[-1.35614,-0.52252]],[[160.52494,131.11251],[1.41835,0.00492],[-1.44876,-0.00502]],[[156.88823,131.57839],[1.31671,-0.68012],[-1.52857,0.78956]],[[152.97178,134.86751],[1.2156,-1.20537],[7.00027,5.97464]],[[161.15219,161.22513],[-0.74175,-8.43096],[0.76826,2.53331]],[[163.62328,169.18585],[-0.66353,-2.73195],[2.77834,-0.39574]]],&quot;closed&quot;:true,&quot;fillColor&quot;:[0,0,0,1]}]}" fill="#a7a7a7" stroke="none" stroke-width="0.5" stroke-linecap="butt"/><path d="M141.41168,77.84916c-3.62996,2.59668 -5.12909,7.32851 -7.52016,12.35195c-3.46392,7.27739 -5.50609,14.28562 -7.54767,22.09479c-0.75609,5.64713 -1.83801,10.75973 -1.86276,16.5351c-0.33078,-0.22197 -0.66264,-0.28823 -0.66264,-0.28823l-0.81973,-0.07826c-1.83997,-1.05025 -4.14244,-2.24257 -5.69518,-3.67212c-2.22221,-2.0459 -2.00253,-4.50558 -2.42055,-7.15908c-1.32524,-8.41249 -2.37155,-17.14806 0.39198,-25.41564c1.09264,-2.00831 1.51481,-4.23808 2.56787,-6.16117c0.76967,-1.40557 2.27817,-2.69893 3.39802,-3.819c4.53063,-4.53144 15.28209,-12.38055 20.17085,-4.38835z" data-paper-data="{&quot;noHover&quot;:false,&quot;origItem&quot;:[&quot;Path&quot;,{&quot;applyMatrix&quot;:true,&quot;segments&quot;:[[[116.00881,135.94639],[3.46241,-3.46303],[-0.85582,0.85598]],[[113.42296,138.85986],[0.5882,-1.07417],[-0.80477,1.46967]],[[111.47383,143.55637],[0.83502,-1.5348],[-2.11195,6.31827]],[[111.16557,162.90977],[-1.01278,-6.42902],[0.31946,2.02786]],[[113.0046,168.37442],[-1.69826,-1.56352],[1.18664,1.0925]],[[117.34511,171.1772],[-1.40615,-0.80263],[0,0]],[117.97008,171.23678],[[118.47522,171.45689],[-0.25279,-0.16964],[0.01892,-4.41367]],[[119.89861,158.82037],[-0.57782,4.31566],[1.56022,-5.96794]],[[125.63694,142.02835],[-2.64721,5.56155],[1.82731,-3.83903]],[[131.38322,132.58825],[-2.7741,1.98444],[-3.7361,-6.10782]]],&quot;closed&quot;:true,&quot;fillColor&quot;:[0,0,0,1]}]}" fill="#a7a7a7" stroke="none" stroke-width="0.5" stroke-linecap="butt"/><path d="M160.52899,192.98738c1.13181,5.98368 1.91916,12.05857 3.04013,18.00244c0.92178,4.88771 0.34743,9.84434 1.63029,14.74654c-4.38662,0.67738 -8.90978,1.0575 -13.38243,0.74194c-2.91554,-0.20571 -5.79409,-0.57055 -8.64759,-0.89808l-0.00109,-0.7517c0,-12.12161 1.65306,-23.77796 2.87097,-35.71451c0.38263,3.7026 1.26866,7.28429 3.29855,10.34525c1.74069,2.62489 4.30374,6.03442 7.81164,2.85993c2.08685,-1.88851 2.40437,-6.78319 3.37953,-9.33182z" data-paper-data="{&quot;noHover&quot;:false,&quot;origItem&quot;:[&quot;Path&quot;,{&quot;applyMatrix&quot;:true,&quot;segments&quot;:[[[286.82408,455.42402],[3.18965,-2.88648],[-5.36164,4.85203]],[[274.98169,451.05122],[2.66056,4.01199],[-3.10258,-4.67853]],[[269.92988,435.24417],[0.58484,5.65922],[-1.86152,18.24435]],[[265.55631,489.65625],[0,-18.52722],[0,0]],[[265.55631,490.80411],[0,0],[4.36143,0.50062]],[[278.73353,492.16254],[-4.45624,-0.31441],[6.8362,0.48233]],[[299.12278,491.04257],[-6.7047,1.03535],[-1.96077,-7.49274]],[[296.58859,468.55671],[1.40891,7.4706],[-1.71335,-9.08488]],[[291.99749,441.16467],[1.7299,9.14572],[-1.49049,3.89544]]],&quot;closed&quot;:true}]}" fill="#a72f2f" stroke="none" stroke-width="0.5" stroke-linecap="butt"/><path d="M157.01663,146.5478c0.08979,-0.00187 0.19433,-0.00718 0.2842,-0.00929c0.00658,0.03579 0.01188,0.05559 0.01188,0.05559l0.3664,1.34018c0.06451,0.32255 0.0988,0.65451 0.15774,0.96131c-0.10124,-0.28344 -0.21189,-0.56339 -0.32247,-0.84251z" data-paper-data="{&quot;noHover&quot;:false,&quot;origItem&quot;:[&quot;Path&quot;,{&quot;applyMatrix&quot;:true,&quot;segments&quot;:[[[287.40377,372.29636],[0,0],[0.16901,0.42661]],[[287.88908,373.58637],[-0.15474,-0.43323],[-0.09008,-0.46891]],[[287.60486,372.14654],[0.0986,0.493],[0,0]],[287.13095,370.26259],[[287.1133,370.17757],[0.01007,0.0547],[-0.13736,0.00322]],[[286.70137,370.18671],[0.13725,-0.00287],[0,0]]],&quot;closed&quot;:true}]}" fill="#a72f2f" stroke="none" stroke-width="0.5" stroke-linecap="butt"/><path d="M148.74573,146.46707c-0.14936,2.98936 -0.82797,5.8831 -1.49134,8.67629c-0.06839,-2.89659 -0.12982,-5.90825 -0.1363,-8.76272c0.53436,0.03458 1.09322,0.06308 1.62764,0.08644z" data-paper-data="{&quot;noHover&quot;:false,&quot;origItem&quot;:[&quot;Path&quot;,{&quot;applyMatrix&quot;:true,&quot;segments&quot;:[[[271.5572,369.93513],[0.81674,0.05287],[0.00989,4.3629]],[[271.76254,383.13133],[-0.10451,-4.42728],[1.01394,-4.26923]],[[274.00808,370.06718],[-0.2283,4.56908],[-0.81684,-0.0357]]],&quot;closed&quot;:true}]}" fill="#a72f2f" stroke="none" stroke-width="0.5" stroke-linecap="butt"/><path d="M157.91958,142.0215l-0.37947,0.52086c-0.11933,0.27599 -0.27194,0.54313 -0.45161,0.79676c6.03276,-0.12674 12.25608,-0.7826 17.94928,-2.68022c1.87187,-0.62392 4.24972,-1.36232 5.07112,-3.38769c2.82557,-6.967 -1.01126,-14.61478 -2.9888,-21.2725c-0.19287,-2.06114 -0.35482,-4.33149 -0.56157,-6.70195l-1.46188,-0.0079c-0.8145,0.1629 -1.64379,0.26268 -2.47492,0.30743c-0.89872,3.23664 -3.5038,6.19753 -6.62045,6.79706c-0.54507,3.27933 -1.47091,6.49188 -3.03661,9.60372c-0.23924,0.72176 -0.50759,1.42842 -0.77965,2.13319c1.50528,0.01538 3.01009,0.05419 4.5026,0.05419h0.78511c0,0 1.63565,0 1.63565,1.63565l-0.00003,0.00003c0,1.63565 -1.63565,1.63565 -1.63565,1.63565h-0.78511c-2.22583,0 -4.49371,-0.10389 -6.74357,-0.06592l-1.36925,0.58933c0,0 -0.71233,-0.00001 -1.19682,-0.47008c-0.57384,0.04693 -1.14495,0.10951 -1.71231,0.19194c0,0 -1.61922,0.2313 -1.85052,-1.3879c-0.2313,-1.61921 1.3879,-1.85052 1.3879,-1.85052c1.14595,-0.16126 2.30266,-0.25028 3.46463,-0.29604c0.4313,-1.13705 0.88614,-2.26176 1.27473,-3.42137c1.39774,-2.81092 2.25102,-5.69501 2.76961,-8.63374c-0.05967,-0.02215 -0.11938,-0.0453 -0.17911,-0.06944c-2.91228,-1.17701 -3.44079,-3.81823 -3.23108,-6.44937c-0.46102,0.68554 -1.37706,0.68554 -1.37706,0.68554c-0.70535,0 -1.50575,0 -2.29873,0c-0.05528,5.26682 -2.75226,7.20261 -6.67751,7.22062c-0.67731,2.31781 -1.44759,4.66077 -2.26307,7.04434c-1.58191,2.24093 -3.4022,4.88255 -4.38862,7.49858c0.57468,0.15263 1.17176,0.27251 1.80318,0.34001l1.38961,-0.01c0,0 1.63563,0 1.63565,1.63563v0.00002c0,0.04639 -0.00132,0.09146 -0.00387,0.13526c4.39241,-1.16119 9.79514,-1.59188 13.8558,0.29433c2.54432,1.18186 4.53358,5.49923 2.20625,7.91542c-0.37013,0.38426 -3.7067,-0.55072 -5.08639,-0.7412c-0.06657,0.24396 -0.17745,0.41029 -0.17745,0.41029zM151.37951,139.32813c0.16316,0 0.30504,0.0213 0.42838,0.05833c1.90613,-0.19923 3.82071,-0.30833 5.90905,-0.30833c0.42982,0 2.63697,-0.01623 2.89529,0.06414c0.51762,0.16106 1.20822,1.69913 1.13825,1.16156c-0.65167,-5.00664 -6.75737,-5.1153 -11.56465,-4.29637c0.02005,0.09652 0.03111,0.20306 0.03111,0.32066c0,1.25 -1.25,1.25 -1.25,1.25c-1.71836,0 -2.99824,-0.00696 -4.41283,1.17825c-0.27436,0.22986 -0.60497,0.85908 -0.85082,1.31661c0.78841,-0.28504 2.64792,0.09201 3.02726,0.0277c1.35709,-0.23005 2.65276,-0.42682 3.93735,-0.58452c0.17452,-0.11313 0.40561,-0.18804 0.7116,-0.18804zM152.68853,142.96009c1.41794,0.25303 2.08139,-0.05442 2.53039,-1.3462l0.05564,-0.08781c-0.93383,-0.02807 -1.87242,-0.05273 -2.79851,-0.02997c-0.15804,0.68188 -0.31433,1.36997 0.21248,1.46398zM143.55449,136.36231c0.11598,-0.25546 0.27858,-0.41806 0.27858,-0.41806l0.32172,-0.30884l-0.41605,-0.00238c-3.41246,-0.39154 -6.26184,-2.69878 -9.50241,-2.60704c0,0 -1.63565,0 -1.63565,-1.63565c0,-1.63565 1.63565,-1.63565 1.63565,-1.63565c1.85915,0.03671 3.41968,0.60585 4.98143,1.21099c1.06677,-2.76371 2.84013,-5.54054 4.55257,-7.90697c0.64937,-2.00961 1.27782,-3.97779 1.84931,-5.91846c-0.03595,-0.00718 -0.07196,-0.01445 -0.10801,-0.02183c-1.61796,-0.33111 -3.5779,-0.79518 -4.4362,-2.20611c-0.36601,-0.60169 -0.51694,-1.27675 -0.51334,-1.97962c-2.77273,-0.61319 -5.61841,-0.36456 -8.4806,-0.36456l-0.00001,-0.00001h-1.63565c0,0 -0.37106,-0.00001 -0.75972,-0.17675c-0.04209,0.1573 -0.08409,0.315 -0.126,0.47311c-0.73625,5.54745 -1.79221,10.48888 -1.80094,16.17051c-0.00299,1.94832 0.12372,6.08109 1.69457,7.56563c5.79944,5.48083 13.24286,6.52316 20.71484,6.71842c-0.02822,-0.31017 -0.03727,-1.00126 -0.03967,-1.61824c-1.66657,0.29186 -3.12832,0.86579 -4.91197,0.87733c-0.68057,0.0044 -3.23162,0.0782 -3.63388,-0.36612c-0.94855,-1.04769 -0.25477,-3.01174 0.29417,-3.99629c0.44563,-0.79924 1.019,-1.40171 1.67724,-1.85342zM132.08148,109.29682c3.17915,0 6.23845,-0.19027 9.31484,0.48175c0.54083,-1.12944 1.25796,-2.15138 1.88044,-2.86195c0.83683,-0.95525 1.87184,-1.90479 2.95451,-2.5852c0.72131,-0.45331 1.3834,-0.80348 2.03,-1.07232c0.21136,-4.92624 -0.56,-9.89651 -2.95222,-15.15817c0,0 -0.11232,-0.2471 -0.14478,-0.58573c-0.63652,0.16729 -1.28905,0.32786 -1.97096,0.46598c0,0 -1.60389,0.32079 -1.92467,-1.2831c-0.32079,-1.60389 1.28311,-1.92467 1.28311,-1.92467c3.4316,-0.67662 6.18033,-1.85857 9.74211,-1.86369h0.78511c0,0 1.63565,0 1.63565,1.63565c0,1.63565 -1.63565,1.63565 -1.63565,1.63565h-0.78511c-1.44779,-0.00231 -2.7525,0.21634 -4.03116,0.51769c0.01633,0.03079 0.02442,0.04857 0.02442,0.04857c2.45899,5.41107 3.36705,10.60031 3.27159,15.74517c0.55435,-0.04543 1.14299,-0.06385 1.78621,-0.06535c0,0 1.50488,0 1.6277,1.44347l0.63044,0.85278c0.16028,0.81999 0.2589,1.55834 0.29043,2.28356c0.56804,0 1.13607,0 1.70411,0h0.32713c0,0 1.25254,0 1.56546,1.09607c0.12372,-0.7389 0.28248,-1.45387 0.43736,-2.11003c0.47065,-1.99388 0.1791,-4.07186 3.02526,-4.86135c0.18111,-0.05024 0.35898,-0.06807 0.53419,-0.05935c-0.00294,-0.62289 -0.00528,-1.24677 -0.00528,-1.87147c0,-3.63924 0.84201,-7.54864 -0.19877,-11.06562c0,0 -0.12325,-0.43138 -0.01474,-0.90684c-1.09005,0.06199 -2.17396,0.19792 -3.24993,0.47409c0,0 -1.58682,0.39671 -1.98352,-1.19011c-0.3967,-1.58682 1.19011,-1.98352 1.19011,-1.98352c2.95849,-0.72331 5.89731,-0.59478 8.91321,-0.57457c-0.36953,-0.35228 -0.75598,-0.68855 -1.16024,-1.00756c-0.06008,-0.04741 -0.12081,-0.09422 -0.18221,-0.1405c-0.35211,-0.02165 -0.74006,-0.18046 -1.10287,-0.61583c-0.05906,-0.07087 -0.11078,-0.14107 -0.15582,-0.21045c-2.63617,-1.51685 -6.00458,-2.32971 -8.75925,-3.14238c-2.40932,0.01594 -4.8187,0.01828 -7.22809,0.01771c-0.43984,0.25979 -0.91956,0.25979 -0.91956,0.25979c-6.66411,-0.06641 -8.08505,4.04362 -10.55111,9.5132c-3.15693,7.00186 -5.48816,13.48641 -7.53796,20.66864zM174.77432,106.03348l1.46897,-0.00651c-0.74373,-6.90149 -2.1207,-14.20929 -5.84702,-19.45056c-0.46796,0.65138 -1.35332,0.65138 -1.35332,0.65138h-0.26171c-0.79054,0 -1.57946,-0.01886 -2.36609,-0.03236c0.00904,0.02623 0.01325,0.04099 0.01325,0.04099c1.08675,3.91326 0.32464,7.9466 0.32464,11.96432c0,0.75053 0.00297,1.50064 0.00613,2.24995c0.53863,0.00817 1.07727,0.01635 1.6159,0.02452c2.02038,0.83135 3.29015,0.90963 4.17829,3.35463c0.17242,0.47466 0.28717,0.96835 0.34898,1.4728c0.62868,-0.05291 1.25472,-0.14572 1.87196,-0.26917zM168.08712,104.83419c-0.02283,0.18799 -0.08328,0.39275 -0.19404,0.61429c-0.30544,0.61088 -0.73843,0.83915 -1.13918,0.89781c-0.02694,2.18507 -0.10428,4.35648 -0.30208,6.50503c2.81213,-1.4562 4.39825,-6.57608 1.6353,-8.01712zM163.3648,104.37685c-0.75642,-0.20155 -0.07473,1.57166 -0.24603,2.3355c-0.3144,1.40188 -1.47725,4.63636 0.05845,5.94955c0.26427,-2.71294 0.31849,-5.46526 0.32117,-8.24295c-0.04357,-0.01588 -0.08808,-0.02997 -0.13359,-0.0421zM152.0364,108.64256c0,-0.67414 0.27785,-1.07043 0.60451,-1.30338c-0.00972,-0.51026 -0.06811,-1.03075 -0.1788,-1.63195c-0.39119,0.01079 -0.75202,0.03275 -1.09619,0.07355c-0.28593,2.94358 -0.86336,5.88503 -1.6291,8.85779c0.53986,-0.04642 1.06285,-0.24028 1.55036,-0.68501c1.35534,-1.2364 1.08432,-2.44159 1.08432,-4.16365c0.00511,-0.02559 0.01016,-0.05104 0.01514,-0.07632c-0.20448,-0.24026 -0.35023,-0.58277 -0.35023,-1.07103zM145.74807,109.05998c-0.905,1.03587 -2.30078,2.94357 -1.72422,4.43525c0.32029,0.82864 1.69858,0.33154 2.10639,0.41092c0.12128,0.02361 0.24385,0.0515 0.36747,0.08237c0.59919,-2.30065 1.08783,-4.5726 1.40348,-6.84005c-0.81401,0.5434 -1.50371,1.1682 -2.15312,1.91151zM194.48628,301.66838c3.86239,0.99399 2.33967,-7.55352 1.22875,-9.76057c-2.80786,-5.57832 -7.76545,-5.96089 -13.25554,-5.96089c0,0 -0.24005,0 -0.53624,-0.09197c-4.15807,0.60284 -8.24005,1.6771 -12.38779,2.04679c-4.81115,0.42881 -9.73069,-0.37795 -14.54776,-0.0394c2.51396,2.25297 3.81421,5.3359 5.42958,8.58106c0.58924,1.76141 1.81093,4.37938 2.01248,6.74212c9.77757,-3.27853 22.13789,-3.1438 32.05652,-1.51713zM198.6456,290.45416c1.81455,3.64787 1.56579,6.83236 0.79511,10.5229c-0.44101,2.11187 0.85523,2.9899 -2.39741,4.18657c-0.95993,0.35317 -2.03817,-0.17495 -3.05728,-0.26244c-8.05162,-1.36607 -15.6842,-1.0083 -23.68134,0.32289c-2.62264,0.43656 -5.78194,0.52845 -8.17405,1.54214l-0.70404,0.04298c-2.5466,2.73274 -9.46633,2.0359 -12.33435,2.03677c-9.76976,0.00299 -19.64893,-0.60779 -29.30677,0.97582c-3.53429,0.00939 -7.06875,0.01112 -10.60306,0.00557c-1.97805,-0.0031 -5.40906,0.07254 -7.01045,-1.42699c-1.41188,-1.32207 -1.15808,-3.14622 -1.1678,-4.78848c-0.03212,-5.4241 1.88931,-10.7735 5.57117,-14.73552c-0.05081,-0.06582 -0.1005,-0.13421 -0.14904,-0.20524c-1.09283,-1.5992 1.12965,-4.57195 1.50307,-6.0908c1.59557,-6.48989 3.30724,-12.87042 5.25488,-19.37195c1.95701,-5.87015 3.7228,-11.97125 5.00643,-18.15272h-0.83003c-8.74355,-0.03873 -14.13366,-6.22882 -15.36284,-14.52099c-0.33031,-2.22823 0.33899,-4.44439 0.88232,-6.62517c-1.83533,-0.57404 -3.50472,-1.3425 -3.81762,-3.12657c-0.41822,-2.3846 0.95886,-2.77638 1.82428,-4.33464c1.28816,-2.31944 2.35317,-4.71013 3.55138,-7.10671c3.8359,-7.67228 6.37431,-15.98651 10.15099,-23.57363c3.7071,-7.4142 7.59702,-14.79015 10.57763,-22.44703c2.46268,-6.32635 5.62048,-12.73525 5.60618,-19.67549c0,0 0,-0.91729 0.68692,-1.37801c-1.59146,-0.95314 -3.09411,-2.11342 -4.47937,-3.52562c-1.59841,-1.62951 -2.20166,-4.75058 -2.40316,-7.3742c-0.5837,0.47967 -1.39168,0.31807 -1.39168,0.31807l-1.79926,-0.44545c-2.97892,-1.704 -5.99392,-3.34304 -7.89351,-6.29539c-1.53135,-2.38002 -1.40069,-4.33721 -1.81629,-6.96328c-1.43339,-9.05705 -2.31078,-18.1471 0.65096,-27.03023c1.15902,-2.11932 1.56059,-4.35205 2.67608,-6.40255c4.81816,-8.85678 21.10549,-18.96581 28.72467,-8.951c0.11681,-0.01581 0.19103,-0.01581 0.19103,-0.01581h1.04681c4.08844,0 8.17685,-0.00692 12.26524,0.01581c3.09241,0.86293 6.69565,1.78872 9.66462,3.41016c2.02255,-1.88787 3.84586,-4.10663 6.38218,-5.34411c2.51818,-1.22862 3.55545,-0.95212 6.23287,-0.96061c2.27666,-0.00723 5.13984,-0.45707 7.32579,0.34705c8.16053,3.00193 10.27379,11.7279 10.27379,19.34614c-0.00462,8.00856 3.64153,15.0361 3.66385,23.02994c0.00969,3.47038 0.0721,6.92758 -2.97174,9.39207c-3.11569,2.52267 -9.49857,3.59293 -13.61318,4.19042c0.44968,3.23653 0.29359,6.47196 -1.08907,9.58574c-1.27064,2.86149 -3.99749,4.13905 -6.77355,5.08191c0.42665,0.39223 0.53953,0.95664 0.53953,0.95664c0.61482,3.10668 1.6934,6.03763 2.57439,8.99271c1.00236,3.36219 0.59216,7.03927 1.64048,10.48391c3.19496,10.49825 7.46157,20.20478 9.08481,31.18151c0.66619,4.51485 1.42253,9.23093 2.68857,13.62448c0.84207,2.92225 2.80612,5.40697 3.32067,8.38482c0.26114,1.5113 1.06428,5.64681 -0.38595,6.91984c-1.06155,0.93184 -1.80947,1.32046 -2.47625,1.46627c0.32135,3.28692 1.81083,6.78666 0.83897,10.07227c-1.74391,5.89573 -9.30772,6.181 -14.04089,6.98449l-0.014,0.00034c0.96068,7.32778 0.63758,14.78102 1.69562,22.06689c0.78169,5.38281 3.50572,12.28361 2.53405,17.8971c5.9624,0.21988 11.29979,1.67751 14.31859,7.74632zM109.35759,290.70192c-3.04818,3.03377 -4.69795,7.12205 -5.0877,11.40927c-0.05438,0.59815 -0.40686,3.51539 0.14629,3.90911c1.01904,0.72534 3.70648,0.53757 4.76623,0.53579c3.44437,-0.00579 6.88889,-0.00493 10.33324,0.00557c9.71974,-1.64999 19.7407,-0.99005 29.57659,-0.98696c2.56072,0.00081 5.38963,0.09917 7.91546,-0.30588c0.47615,-0.07635 1.13186,-0.07273 1.58385,-0.26089c0.05717,-0.52711 0.30257,-0.85519 0.5859,-1.05939c0.14824,-1.94306 -1.2935,-4.78085 -1.78247,-6.25326c-1.6906,-3.36451 -2.90269,-6.94024 -6.4172,-8.64974l-0.68252,-0.14248c-0.8154,0.27423 -1.62511,0.56793 -2.42228,0.83435c-0.29478,0.4785 -0.71791,0.90916 -1.32057,1.27093c-1.20721,0.72465 -2.79102,0.38776 -4.195,0.49422c-4.34542,0.32951 -8.86858,0.00558 -13.2201,0.00558c-5.52004,0 -10.87493,-0.94847 -16.35649,-0.98139c-1.01554,-0.0061 -2.1525,0.07977 -3.23052,-0.0668c-0.10385,0.15311 -0.1927,0.24198 -0.1927,0.24198zM157.49781,147.9898c0.11058,0.2791 0.21628,0.56055 0.31752,0.844c-0.05893,-0.30678 -0.12144,-0.61946 -0.18596,-0.94201l-0.31006,-1.2326c0,0 -0.00495,-0.01984 -0.01155,-0.05562c-0.08987,0.00211 -0.17971,0.00411 -0.2695,0.00598zM157.11854,202.37687c-3.5079,3.1745 -6.0073,-0.23605 -7.748,-2.86094c-2.0299,-3.06098 -2.92256,-6.63931 -3.30518,-10.34192c-1.21792,11.93653 -2.86146,23.47802 -2.86146,35.59963v0.75099c2.8535,0.32754 5.70578,0.68306 8.62132,0.88876c4.47265,0.31556 8.95326,-0.05536 13.33987,-0.73274c-1.28286,-4.9022 -0.73623,-9.82388 -1.65802,-14.71159c-1.12097,-5.94387 -1.87197,-11.93783 -3.00377,-17.9215c-0.97518,2.54863 -1.2979,7.4408 -3.38476,9.32931zM160.83714,147.25023c0.38455,1.92279 0.67862,3.58298 0.68602,5.55486c0,8.73467 0.52368,17.04984 1.30294,25.70835c0.38219,4.24667 0.0291,8.36608 0.63635,12.61682c1.28885,6.4313 2.14374,12.91153 3.27365,19.31481c0.86584,4.90674 0.23672,9.79776 1.66024,14.68338c0.60178,-0.11185 1.20125,-0.2278 1.79814,-0.34683c0.7018,-0.00263 1.40358,-0.00526 2.10538,-0.00789c-0.44595,-4.03934 -0.68893,-8.10874 -1.26794,-12.12948c-0.62588,-4.34618 -2.90831,-8.18435 -3.60454,-12.50498c-0.94675,-5.87529 -1.7712,-11.74609 -2.61649,-17.66118l-0.17089,-0.15409c0,0 -0.73148,-1.46296 0.73149,-2.19446c1.46296,-0.73147 2.19446,0.73149 2.19446,0.73149l0.48336,1.15443c0.84537,5.91968 1.70245,11.77968 2.61759,17.66884c0.84826,5.45883 3.21869,10.20343 3.80794,15.80831c0.31322,2.9794 2.00688,7.7577 0.78166,10.74781c0.00333,0.04512 0.00534,0.09163 0.00593,0.13958c0.98037,-0.96238 3.99281,-1.52505 4.70904,-1.6995c3.05233,-0.7435 6.38948,-1.76378 9.50638,-2.18702c1.38162,-0.1876 2.53714,0.36935 3.85922,-0.43798c0.51997,-0.31752 -0.39478,-4.96187 -0.62652,-5.52457c-2.81933,-6.84574 -4.68122,-13.32885 -5.78053,-20.76154c-1.59596,-10.81463 -5.84296,-20.37006 -8.98079,-30.71571c-1.02912,-3.39311 -0.5898,-7.18918 -1.63082,-10.4524c-0.97374,-3.05229 -2.01123,-6.1142 -2.65968,-9.32656c0,0 -0.0743,-0.37148 0.0274,-0.79263c-4.21849,1.14964 -8.64235,1.73353 -13.04299,1.98783zM147.26438,155.07869c0.66338,-2.79318 1.3198,-5.55797 1.46917,-8.54734c-0.53442,-0.02336 -1.06915,-0.0518 -1.60351,-0.08639c0.00646,2.85447 0.06596,5.73714 0.13434,8.63372zM139.93261,224.77364c0,-13.64034 2.04971,-26.55684 3.28234,-40.09959c1.8115,-12.53736 0.6561,-25.84544 0.64332,-38.52786c-3.40265,-0.41184 -6.73349,-1.16555 -9.81524,-2.53909c0.00125,0.02473 0.00124,0.03834 0.00124,0.03834c-0.0134,7.36984 -3.21259,14.1274 -5.82512,20.85214c-3.01361,7.75715 -6.95063,15.22652 -10.70404,22.73335c-3.79069,7.54402 -6.30688,15.88521 -10.13106,23.53306c-1.44162,2.88306 -4.25152,6.42579 -5.09248,9.49496c-0.19794,0.72242 1.36704,0.2191 2.21699,0.28842c0.19702,-0.04174 0.42546,-0.04827 0.69007,-0.00417c0.53126,0.08855 0.85844,0.32287 1.05832,0.59736c0.62117,0.31456 1.18403,0.70174 1.85496,1.11675c5.50839,0.82187 11.55012,1.54252 17.09987,1.53492c1.30852,-0.00179 2.61704,0 3.92556,0c0.74925,0 1.77623,0.99564 2.21405,0.38761c0.55496,-0.77069 -0.3605,-1.89625 -0.24331,-2.83869c0.14014,-1.12696 0.45225,-2.22592 0.66054,-3.3423c0.96802,-5.18837 0.5592,-10.44231 1.30619,-15.66714c0.74875,-7.47604 2.53877,-14.8284 3.60295,-22.27905l-0.01644,-0.75009c0,0 0,-1.63564 1.63565,-1.63564c1.63565,0 1.63565,1.63564 1.63565,1.63564l-0.01644,1.2127c-1.06121,7.42706 -2.8499,14.75913 -3.5939,22.21059c-0.89793,6.29042 -1.17678,12.62027 -1.95883,18.93762c-0.11908,0.96183 0.09314,2.08998 -0.02922,3.13306c1.8885,0.05315 3.74883,0.19418 5.59839,0.37518zM172.31846,228.04494c-0.60053,-0.00266 -1.20106,-0.00531 -1.80161,-0.00797c-6.12118,1.22944 -12.56215,2.0988 -18.92351,1.6395c-6.36876,-0.45984 -12.41455,-1.63154 -18.85758,-1.63154c0,0 -1.07785,0 -1.48361,-0.87498c-1.52374,0.05458 -3.35048,-0.10641 -4.0776,-0.10641c-1.18788,0 -2.39127,-0.01841 -3.604,-0.05539c-0.14997,12.52293 -3.31304,25.3222 -7.26757,37.18759c-1.69043,5.62608 -3.58675,11.29843 -4.87441,16.89286c-0.32067,1.39321 -0.52545,2.82914 -1.05463,4.15723c-0.26824,0.67322 -1.62995,1.46455 -1.05246,1.90236c1.0635,0.80624 4.60087,0.03195 5.83973,0.10971c4.74063,0.29757 9.19369,0.97889 13.97613,0.97889c4.89515,0 10.52517,0.61044 15.38859,-0.06923c0.10389,-0.49145 0.44708,-0.7978 0.73557,-0.9742c0.06917,-1.50888 -0.0948,-4.44596 -0.0948,-4.8449c0,-6.17046 -0.01039,-12.34105 0.00557,-18.51149c-1.05591,-6.22892 -1.64123,-12.467 -1.64123,-18.78131v-1.30852c0,0 0,-1.63564 1.63565,-1.63564c1.63565,0 1.63565,1.63564 1.63565,1.63564v1.30852c0,6.23279 0.62037,12.35835 1.63007,18.51149c0.0159,6.91465 0.00558,13.82941 0.00558,20.74408c0,0.57837 0.03851,1.17771 0.06139,1.77574c1.86479,-0.63286 3.75961,-1.26209 5.66577,-1.44065c6.02593,-0.56447 12.27698,0.67566 18.25357,-0.31928c2.79387,-0.4651 6.29814,-2.23065 9.09851,-1.378c0.00797,-0.00488 0.01595,-0.00968 0.02394,-0.01439c-0.35571,-5.96024 -2.16535,-11.83408 -2.99499,-17.72422c-1.11083,-7.88641 -0.61695,-15.93904 -1.95579,-23.83021c-0.5385,-3.85127 -1.96959,-7.42274 -1.98202,-11.37253l-0.23,-0.75361c-0.48338,0.03639 -0.97024,0.05593 -1.46124,0.05576c-0.0709,-0.42101 -0.13733,-0.84267 -0.19989,-1.26492zM191.04878,234.72455c0.66092,-2.87234 -0.62179,-6.06535 -0.97764,-9.00647c-0.07697,0.00763 -0.1557,0.01663 -0.23633,0.02717c-4.19905,0.5489 -8.13475,2.18543 -12.22538,3.0368l0.27023,1.22566c-0.01218,3.2811 1.07662,6.33938 1.70631,9.50698c3.12509,-0.50917 10.47331,-0.48978 11.46281,-4.79015zM105.24459,230.135c1.06759,6.62258 4.98078,11.68792 12.11607,11.64939h1.30851c0,0 0.05756,0 0.15109,0.01081c0.8851,-4.96812 1.42835,-9.97082 1.48044,-14.93082c-4.49098,-0.25788 -9.03269,-0.76758 -13.31908,-1.53721c-0.30465,-0.17814 -0.64953,-0.33264 -1.02079,-0.47305c-0.48293,1.75598 -0.99127,3.57487 -0.71625,5.28088zM195.76429,122.25998c2.14781,-1.6854 1.73176,-4.49744 1.73895,-6.83357c0.02447,-7.96256 -3.65943,-14.99515 -3.66385,-23.02994c0,-6.21282 -1.3156,-13.65256 -8.0455,-16.24557c-1.77453,-0.68372 -4.42685,-0.16989 -6.28279,-0.17633c-1.89573,-0.00657 -3.03577,-0.28033 -4.75871,0.60962c-2.00017,1.03315 -3.53411,2.72662 -5.12475,4.30387c9.15999,7.81793 9.73363,23.45738 10.70422,34.48945c1.00528,3.31489 2.36523,6.84194 3.23347,10.41675c3.63551,-0.51784 9.41682,-1.35114 12.19895,-3.53428zM121.26089,82.2998c-1.11986,1.12006 -2.61396,2.40676 -3.38363,3.81233c-1.05306,1.92309 -1.45784,4.13716 -2.55048,6.14547c-2.76353,8.26758 -1.7286,16.9118 -0.40336,25.3243c0.41802,2.6535 0.1842,5.1047 2.4064,7.1506c1.55274,1.42955 3.83967,2.61723 5.67964,3.66749l0.81779,0.07796c0,0 0.3302,0.06605 0.66098,0.28802c0.02475,-5.77537 1.10644,-10.888 1.86253,-16.53513c2.04158,-7.80916 4.04479,-14.69528 7.50871,-21.97268c2.39107,-5.02344 3.88915,-9.75587 7.51911,-12.35255c-4.88876,-7.9922 -15.58708,-0.13725 -20.11771,4.39419z" fill="#000000" stroke="none" stroke-width="0.5" stroke-linecap="butt"/><path d="M152.43281,141.47102c0.9261,-0.02276 1.95263,0.00462 2.88646,0.03269l-0.0549,0.08935c-0.449,1.29179 -1.20029,1.6466 -2.61823,1.39357c-0.5268,-0.09401 -0.37138,-0.83373 -0.21334,-1.51561z" data-paper-data="{&quot;noHover&quot;:false,&quot;origItem&quot;:[&quot;Path&quot;,{&quot;applyMatrix&quot;:true,&quot;segments&quot;:[[[305.37705,285.92018],[-1.05361,-0.18802],[2.83588,0.50606]],[[310.43783,283.22777],[-0.898,2.58358],[0,0]],[[310.54912,283.05216],[0,0],[-1.86766,-0.05614]],[[304.9521,282.99222],[1.85219,-0.04552],[-0.31608,1.36376]]],&quot;closed&quot;:true}]}" fill="#a72f2f" stroke="none" stroke-width="0.5" stroke-linecap="butt"/><path d="M161.79895,140.3161c0.06997,0.53757 -0.7186,-1.01981 -1.23622,-1.18087c-0.25832,-0.08038 -2.36705,-0.04674 -2.79687,-0.04674c-3.90958,0 -7.30633,0.38842 -11.08254,1.02856c-0.37935,0.0643 -2.24036,-0.31804 -3.02877,-0.03299c0.24585,-0.45753 0.57542,-1.09334 0.84977,-1.32321c1.41459,-1.1852 2.69461,-1.18857 4.41297,-1.18857c0,0 1.2582,-0.0221 1.2582,-1.2721c0,-0.1176 -0.0088,-0.22724 -0.02885,-0.32376c4.80728,-0.81893 11.00065,-0.66697 11.65231,4.33968z" data-paper-data="{&quot;noHover&quot;:false,&quot;origItem&quot;:[&quot;Path&quot;,{&quot;applyMatrix&quot;:true,&quot;segments&quot;:[[[300.37167,272.01492],[9.61456,-1.63786],[0.0401,0.19303]],[[300.4339,272.65625],[0,-0.23521],[0,2.5]],[[297.9339,275.15625],[0,0],[-3.43671,0]],[[289.10824,277.51274],[2.82918,-2.3704],[-0.54871,0.45973]],[[287.40661,280.14595],[0.49169,-0.91506],[1.57682,-0.57008]],[[293.46113,280.20136],[-0.75869,0.12861],[7.55241,-1.28028]],[[315.4339,278.15625],[-7.81917,0],[0.85964,0]],[[321.22447,278.28454],[-0.51664,-0.16076],[1.03524,0.32212]],[[323.50096,280.60767],[0.13994,1.07513],[-1.30333,-10.01328]]],&quot;closed&quot;:true}]}" fill="#a7a7a7" stroke="none" stroke-width="0.5" stroke-linecap="butt"/><path d="M321.03576,35.2856c-1.1606,-0.46424 -0.69635,-1.62483 -0.69635,-1.62483l0.07152,-0.17881c2.23757,-5.43622 0.83908,-13.40198 0.83908,-19.28171c0.00002,-5.33382 -0.00101,-10.66764 0.00016,-16.00146c0.83238,0.13373 1.67601,0.20339 2.49997,0.16208c-0.00112,5.27979 -0.0001,10.55959 -0.00012,15.83938c0,6.33386 1.28865,14.30311 -1.01789,20.21018l-0.07153,0.17881c0,0 -0.46424,1.1606 -1.62484,0.69636z" fill="#000000" stroke="none" stroke-width="0.5" stroke-linecap="butt"/><path d="M339.83333,46.64583l-37.66667,-5.33333l19.66667,-18.33333z" fill="#000000" stroke="#000000" stroke-width="2" stroke-linecap="round"/><path d="M447.54924,176.98388c-1.3217,1.1932 -3.84749,7.17339 -1.14839,8.13139c1.44792,0.51391 3.07198,0.39067 4.5285,0.00011c-0.29448,-1.89898 0.08047,-3.63474 -0.07169,-5.76426c-0.08105,-1.13432 -0.34483,-2.19402 -0.5483,-3.26796c-0.98982,0.00679 -1.92451,0.14635 -2.76011,0.90072zM404.01732,175.47906c-3.91354,-1.3496 -5.74548,-6.88768 -2.2326,-9.9558c2.38792,-2.08558 3.04877,-1.517 5.63519,-1.51076c0.01247,-0.08521 0.02453,-0.17054 0.03616,-0.25599c0.18397,-0.05772 0.36531,-0.11911 0.54288,-0.1861c0.22373,-0.77874 0.59602,-1.50377 1.49419,-2.08514c0.63047,-0.4081 1.49641,-0.13012 2.24461,-0.19519c7.36773,0 18.20301,-3.73534 21.50979,-11.19485c0.90337,-2.03781 0.08085,-2.45897 1.69448,-4.50326c0.41768,-0.52916 1.26462,-0.57299 1.7111,-1.07809c0.60564,-0.68517 0.21742,-1.81662 0.36766,-2.71867c0,0 0.00572,-0.03433 0.02065,-0.09169c-1.23391,-1.11209 -2.30178,-2.50655 -3.1587,-4.24795c-0.01985,-1.55489 -0.11638,-3.19633 -0.1687,-4.8567c-5.24387,-0.00597 -10.39945,1.60403 -15.61051,1.60403v0.00001c-1.20864,0 -2.48425,0.78798 -3.60934,0.34643c-2.81715,-1.10565 -2.24662,-2.70721 -2.30531,-5.0581c-0.1033,-4.13795 0,-8.29123 0,-12.43078c0.02257,-10.20637 1.45364,-19.5137 8.38759,-27.4508c2.68796,-3.07682 6.87409,-5.05575 10.09244,-7.58014c13.41879,-3.58464 26.3854,-4.96814 40.3657,-4.96814c4.69215,0.08031 8.08226,3.826 11.42869,6.79914c9.85392,8.75476 12.52282,20.51987 14.48163,33.20164c1.86543,4.65937 1.65796,9.87705 1.65796,14.83502c0,0.76271 0.10887,4.23559 -0.44044,4.67222c-1.87998,1.49434 -6.61144,0.05117 -8.89942,0.42916c-1.76966,0.29236 -3.46111,1.00982 -5.24393,1.20647c-4.14646,0.45738 -8.30954,-0.42371 -12.43533,0.40145c-1.64882,0.00689 -2.99968,-0.04854 -4.59538,0.36341l-1.16668,0.04491c0,0 -0.1242,-0.00001 -0.30119,-0.0357c-0.09292,0.15799 -0.18795,0.31434 -0.2851,0.46889c1.49004,0.33061 3.10688,0.7507 4.2383,1.43162c2.39411,1.44085 3.40958,4.09177 5.49876,5.73687c1.34308,1.0576 2.95976,1.56908 4.23495,2.72826c2.00079,1.81878 3.43026,4.37413 4.78525,6.64359c1.11137,1.86142 2.90629,3.30883 3.73235,5.36098c0.58448,1.45201 0.61343,3.05472 1.2124,4.53619c0.83015,2.52125 3.05305,9.57855 1.45791,12.27311c-1.44329,2.43805 -4.97436,4.1893 -7.40132,5.28528c-2.63254,1.18881 -5.31649,2.06009 -8.04001,2.6945c0.32662,1.90988 0.44379,4.19619 1.0599,5.93576c0.96984,2.7383 2.58484,4.88708 3.37813,7.8124c-0.05404,4.11304 -2.22149,5.00195 -5.01578,5.11682c3.81696,14.00174 7.62366,27.9428 10.73425,42.13563c-0.02947,2.73433 1.28087,5.35304 1.78632,7.99983c0.71922,3.76622 0.62862,8.47271 0.62862,12.31416c0,1.10273 0.07666,3.21382 -0.11976,5.03708c0.17629,0.11073 0.28082,0.21526 0.28082,0.21526l0.44043,0.4618c2.3494,3.40091 1.20298,9.4189 1.20298,13.53352c0,1.56966 0.35497,3.91395 -0.53231,5.31292c-1.44815,2.28327 -6.89959,3.53736 -9.28022,4.25315c-2.53806,0.76312 -5.0593,0.05428 -7.63067,0.05776c-5.81438,0.00786 -11.62881,0 -17.4432,0c-3.36536,0 -8.79647,1.16167 -10.89249,-2.20363c-0.29159,0.09842 -0.53581,0.09842 -0.53581,0.09842h-1.20298c-6.04464,0 -12.4544,0.22047 -18.37459,-0.93887c-3.91686,-0.98402 -10.26196,-2.96481 -12.61903,-6.60273c-2.22107,-3.428 -0.24872,-8.78152 2.70044,-11.08684c2.06164,-1.61154 4.63186,-2.40539 7.08209,-3.2896c-0.00362,-0.008 -0.00724,-0.01602 -0.01083,-0.02404c-1.05399,-2.35412 -0.09034,-4.76938 0.18327,-7.13039c0.45238,-3.90359 0.59674,-7.79107 1.1979,-11.68681c0.65028,-11.18514 1.88572,-22.22205 3.00338,-33.33817c0.46294,-4.60441 1.69785,-9.06746 1.79421,-13.69946c-1.28956,-0.10932 -2.46369,-0.33691 -3.33859,-0.76402c-3.36296,-1.64174 -2.22855,-5.05411 -1.40506,-7.80514c1.96943,-6.57921 6.19361,-12.44675 7.01539,-19.22261c-1.41501,0.68949 -2.84815,1.27328 -4.84849,1.60128c-5.01364,0 -13.01641,1.59717 -17.28966,-1.81708c-0.65238,-0.52124 -1.13421,-1.1069 -1.47495,-1.73696c-0.38396,0.48375 -1.02375,0.54335 -1.17555,0.55069c0.08359,-0.56122 0.18543,-1.11785 0.30093,-1.67112zM404.98102,166.28154c-3.29818,1.11913 -3.31449,5.84767 -0.38932,6.76441l0.54838,0.07617c0.53099,-1.98684 1.15351,-3.95325 1.64733,-5.95853c0.04021,-0.07446 0.08052,-0.14822 0.12087,-0.22128c-0.02391,0.0064 -0.04778,0.01284 -0.07162,0.01934c0.04073,-0.16866 0.08051,-0.3376 0.11919,-0.50687c-0.67045,-0.12368 -1.34699,-0.38627 -1.97483,-0.17323zM474.53987,275.61545c2.5304,-0.72411 4.993,-1.60028 7.57801,-2.11835c0.70941,-0.14218 1.84908,0.53605 2.16757,-0.1136c0.52477,-1.07041 0.23255,-4.45155 0.23255,-5.9305c0,-3.59011 0.16274,-8.25083 -0.57435,-11.74543c-0.57452,-2.72389 -1.79592,-5.40901 -1.82263,-8.24039c-3.20017,-14.18712 -6.95788,-28.1558 -10.7828,-42.17345c0,0 -0.03864,-0.14166 -0.0475,-0.34852c-0.60289,-0.02512 -1.21004,-0.04713 -1.80996,-0.04713c-11.63835,0 -23.19393,1.01456 -34.83797,1.40269c-1.29723,0.04235 -3.06217,0.17304 -4.86569,0.20239c-0.11167,8.39694 -1.92033,17.37757 -3.3108,25.64572c-1.16186,6.90876 -1.08419,14.59324 -1.50418,21.6286c-0.60199,3.92452 -0.74923,7.83919 -1.20806,11.77129c-0.19615,1.68102 -1.1594,3.80862 -0.41822,5.50089c0.8859,2.0227 3.80474,2.75618 5.7281,3.03099c6.09779,0.87126 13.21535,0.26303 19.36794,0.28949c0.39447,0 0.87277,0.30084 1.28481,0.4521c0.26313,-0.29883 0.60534,-0.40699 0.89467,-0.43756c0.12511,-0.6329 -0.37715,-1.42735 -0.37826,-2.11976c-0.00355,-2.20544 0,-4.41094 0,-6.61639c0,-8.7216 0,-17.4432 0,-26.1648c0,-1.00249 0,-2.00496 0,-3.00745v-1.20298c0,0 0,-1.50373 1.50372,-1.50373c1.50372,0 1.50373,1.50373 1.50373,1.50373c0,1.00249 0,3.20794 0,4.21043c0,9.32309 0,18.64618 0,27.96927c0,1.64258 0.48777,5.1496 0.05318,7.55096c6.36638,1.97354 14.76686,1.90253 21.24615,0.61148zM461.41077,88.28919c-0.90224,-1.20298 0.30075,-2.10522 0.30075,-2.10522c0.20837,-0.15211 0.43398,-0.30577 0.67384,-0.45744c0.08407,-0.23984 0.55102,-1.358 1.84448,-0.98844c0.00807,0.00231 0.0161,0.00465 0.02406,0.00702c1.70718,-0.72446 3.66776,-1.09302 5.27348,-0.3811c3.55336,1.57543 6.89988,7.6285 4.41974,11.38268c-2.1214,3.21116 -5.95894,3.87539 -9.42319,4.74126l-1.94826,0.32567c-0.23427,1.12901 -0.5032,2.24979 -0.82819,3.35719l-0.49863,1.68703c0,0 -0.24164,0.81754 -0.9766,1.03955c0.63524,0.03644 1.20388,0.13151 1.63626,0.32322c1.65092,0.73197 2.92464,1.83652 3.90291,3.18436c0.23339,-0.06117 0.41126,-0.06118 0.41126,-0.06118c3.83864,0 6.86293,-1.86583 10.63771,-2.39401c4.77993,-0.66885 10.32891,-0.44715 15.2382,-0.41626c-1.90674,-8.10567 -4.95715,-15.48786 -11.64103,-21.43207c-2.55443,-2.27174 -5.78518,-6.1208 -9.42295,-6.03262c-10.78406,0 -20.90921,1.24796 -31.53028,2.39864c-2.67748,0.29008 -4.92051,1.66793 -7.50065,2.25707c-2.59819,2.12539 -5.47962,3.99256 -8.20899,5.88727c-5.11915,3.55366 -7.22836,10.14791 -8.06971,16.64638c4.78731,-0.79232 10.37405,-0.23562 14.99307,0.28994c2.37187,0.26987 4.84499,-0.29353 7.21788,0c3.33793,0.4129 6.45429,1.61957 9.8411,1.59271h0.40099c0,0 0.4675,0 0.88117,0.26068c1.07682,-0.41101 2.16073,-0.71448 3.23279,-0.88987c0.08279,-1.37577 1.49996,-1.37577 1.49996,-1.37577h1.20298c1.09844,0 2.84776,-0.2381 4.40776,-0.25576c-0.00734,-0.00208 -0.01469,-0.00423 -0.02207,-0.0064c-1.44205,-0.42621 -1.01585,-1.86828 -1.01585,-1.86828l0.49863,-1.68703c1.42748,-4.79267 1.78288,-9.84627 2.8183,-14.73476c-0.09222,-0.08002 -0.18298,-0.17724 -0.27089,-0.29446zM455.67918,110.11134c-0.16757,1.23494 -1.48628,1.23494 -1.48628,1.23494c-3.26711,-0.06378 -5.30301,1.75954 -8.06709,3.4058c-1.12125,0.66781 -1.97049,1.71231 -2.92877,2.59823c-1.72105,1.59109 -2.87306,2.32831 -4.22498,4.1983c-3.10075,4.28896 -2.08172,10.28228 -2.16235,15.21599c2.77248,5.41048 8.97186,6.05964 14.57624,6.05964c3.08144,0 5.70693,0.15945 8.34359,-1.72113c3.86404,-2.75598 5.72258,-8.63117 5.98194,-13.10332c0.29068,-4.63693 0.55828,-8.4339 -1.23156,-12.73612c-0.73879,-1.77581 -1.62694,-4.339 -3.56689,-5.20515c-1.07024,-0.47785 -3.63828,-0.06955 -5.23385,0.0528zM461.19958,154.21189c1.06329,-1.0633 2.12659,0 2.12659,0l0.51142,0.62055c2.72219,1.41951 3.08872,3.03343 4.97094,5.16735c2.66288,3.01897 5.41295,3.06197 4.79003,7.82474c-2.9096,4.84153 -7.62454,6.99907 -13.14016,6.99907c-0.49721,0 -4.25845,0.00172 -4.3586,-0.00732c-0.64351,-0.0581 -1.29599,-0.1594 -1.89779,-0.39459c-0.19362,-0.07567 -0.48729,-0.28534 -0.75588,-0.50205c1.95351,2.72861 -0.28564,10.38024 3.0104,10.84307c8.73149,-0.09799 17.1808,-0.42057 25.3033,-4.06134c1.80856,-0.81066 4.66069,-2.09258 5.90317,-3.79941c0.4675,-0.64222 -0.14169,-1.58476 -0.13757,-2.37911c0.01266,-2.43778 -0.62949,-5.29052 -1.41197,-7.6029c-2.12502,-5.36379 -4.41044,-11.24174 -8.91618,-15.33819c-1.22656,-1.11514 -2.8927,-1.64803 -4.1859,-2.68515c-1.92163,-1.54109 -2.91088,-4.12907 -5.0887,-5.44035c-1.05108,-0.63286 -3.38934,-1.09 -4.73951,-1.37554c-0.52509,0.53839 -1.08979,1.02928 -1.69513,1.46215c-1.70579,1.21976 -3.43177,1.78958 -5.24121,2.05571c-0.01141,2.58585 -0.11512,4.99178 -0.62954,7.56554l-0.31442,1.26463c1.88344,-0.05525 3.79302,-0.05589 5.75141,-0.05582c0.04329,-0.0536 0.09158,-0.10732 0.14531,-0.16105zM477.23861,110.93336c-3.52359,0.49664 -6.39373,2.06832 -9.87344,2.3682c1.8272,4.67366 1.60927,10.69159 1.3479,14.88586c-0.16262,2.44693 -0.71684,5.16103 -1.70686,7.7037c1.44189,-0.27084 2.74993,-0.2851 4.28122,-0.2774c4.13131,-0.82627 8.28232,0.05495 12.42623,-0.40055c1.33459,-0.14669 4.06279,-1.02271 5.18189,-1.19949c2.32777,-0.36771 5.00553,0.66636 7.1403,0.42916c0.23103,-0.02567 -0.4008,-0.31163 -0.44042,-0.54067c-0.22788,-1.31708 0,-2.6733 0,-4.00994c0,-4.05676 -0.03087,-8.23027 -1.55,-12.03151c-0.40101,-2.48059 -0.81194,-4.92529 -1.29298,-7.31685c-4.94301,-0.01299 -10.64464,-0.29679 -15.51385,0.38951zM452.3383,279.18205c-1.9569,-0.08819 -5.7688,2.67624 -6.39281,4.68595c-0.33408,1.07596 0.07716,3.57051 0.07716,4.63714c0,1.15393 -0.38263,3.02423 0.12282,4.10237c0.78717,1.67905 6.72458,0.70955 8.29804,0.70955c5.81439,0 11.62882,-0.00738 17.4432,0c2.20628,0.00281 4.64727,0.73987 6.80509,0.05776c1.33212,-0.42109 6.75228,-1.61259 7.56148,-2.96472c0.44879,-0.74991 0.06919,-2.89638 0.06919,-3.70943c0,-2.64655 1.03152,-8.49421 -0.19167,-11.08684c-0.88661,0.36849 -2.78032,0.70403 -3.42311,0.83231c-2.54271,0.50746 -4.96902,1.38163 -7.45923,2.09208c-6.65029,1.33448 -14.76131,1.36568 -21.48728,-0.31054c-0.31234,0.95436 -1.42287,0.95436 -1.42287,0.95436zM437.42264,163.10369c0.06833,-0.1578 0.13265,-0.32121 0.19416,-0.48896c0.02297,-0.16752 0.08114,-0.42812 0.22841,-0.67401c0.49363,-1.55354 0.89024,-3.31417 2.00149,-4.42064c1.65708,-1.64996 2.02718,-1.06151 3.9663,-1.58779c0.63343,-0.17191 1.26453,-0.32488 1.89415,-0.46098c-0.88747,-0.34108 -0.88747,-1.39911 -0.88747,-1.39911v-0.60149c0,-2.71629 -0.57208,-5.17718 -0.60149,-7.81937c0,0 0,-0.20385 0.07506,-0.46144c-1.61993,-0.34834 -3.15214,-0.86443 -4.55482,-1.60836c-0.42088,1.81731 -0.92829,2.11057 -2.48429,3.93367c-1.47469,1.72783 -1.73345,4.60254 -3.27551,6.57568c-5.18272,6.63152 -13.94268,10.20664 -22.24088,10.20664c-1.4047,-0.35942 -0.90471,0.77049 -1.26532,1.93221c-0.74644,2.40473 -4.10508,6.25268 -2.52155,9.0873c0.99356,1.77854 3.21245,1.45304 4.83727,1.61909c3.84134,0.39258 7.3016,0.29855 11.15611,0.29855c1.60048,-0.27169 3.51308,-0.75327 5.3417,-1.46233c0.14999,-0.42848 0.51422,-0.94875 1.39871,-0.94875c0.2117,0 0.3936,0.0298 0.54989,0.08102c1.4774,-0.75599 2.78519,-1.68563 3.66998,-2.80018c0.32886,-0.41426 0.59537,-2.39007 0.69322,-2.63499c0.76127,-1.90553 1.41463,-3.20145 1.83856,-5.07092c-0.30649,-0.6116 -0.01368,-1.29483 -0.01368,-1.29483zM437.56845,110.53303c-2.36449,-0.29933 -4.84401,0.25804 -7.21788,0c-4.56369,-0.49606 -10.32391,-1.19127 -14.93997,-0.16585c-0.17756,2.36653 -0.21947,4.65081 -0.21429,6.69325c0,3.07428 0,6.14856 0,9.22284c0,0.51123 -0.12403,5.38868 0.10065,5.36773c6.00694,-0.55992 12.24338,-2.03931 18.39709,-2.0594c0.05858,-2.166 0.31678,-4.29485 1.04384,-6.23599c1.56624,-4.18159 5.3068,-8.57498 9.69613,-11.52177c-2.28868,-0.37963 -4.5192,-1.00377 -6.86557,-1.30082zM443.01521,288.50514c0,-1.42888 -0.39518,-4.21502 0.07716,-5.58818c0.74451,-2.16438 2.95186,-4.27211 5.31077,-5.53948c-6.85517,-0.0277 -15.72841,0.96051 -22.34932,-0.9621c-1.20163,-0.34893 -2.41689,-0.88344 -3.43599,-1.65642c-2.43723,0.91681 -5.16908,1.5965 -7.24797,3.20238c-1.27245,0.98293 -1.49079,1.67287 -1.87802,3.1104c-1.57882,5.86108 5.80578,8.08114 10.6056,9.27451c5.66252,1.16262 11.91759,0.8656 17.71479,0.8656h1.11169c-0.00159,-0.95169 0.0913,-1.9142 0.0913,-2.7067zM463.91153,97.54354c2.46342,-0.61601 5.8996,-1.03817 7.41852,-3.2786c1.43295,-2.11364 -0.85715,-6.19639 -2.79814,-7.063c-1.05541,-0.47122 -2.42674,-0.09201 -3.56343,0.47812c-0.83763,3.27226 -1.2626,6.64568 -1.81571,9.98954zM452.3832,153.7075l0.28505,-1.13318c0.46184,-2.30767 0.556,-4.45023 0.57014,-6.75584c-0.60511,0.01243 -1.22192,0.0132 -1.85244,0.0132c-1.41264,0 -2.80641,-0.05331 -4.16046,-0.18985c0.00015,0.00624 0.00015,0.00951 0.00015,0.00951c-0.03942,2.56385 0.60149,5.14964 0.60149,7.81937v0.60149c0,0 0,0.62338 -0.40138,1.0674c1.65865,-0.28302 3.31268,-0.46158 4.97828,-0.57423c-0.12462,-0.44273 -0.02083,-0.85788 -0.02083,-0.85788z" fill="#000000" stroke="none" stroke-width="0.5" stroke-linecap="butt"/><path d="M453.71668,278.20488c6.72597,1.67622 14.92284,1.63973 21.57313,0.30524c2.49021,-0.71046 4.91991,-1.57883 7.46263,-2.08629c0.64279,-0.12829 2.53728,-0.46221 3.42389,-0.83069c1.22319,2.59262 0.19588,8.46608 0.19588,11.11264c0,0.81305 0.3779,2.96828 -0.07089,3.71819c-0.8092,1.35213 -6.2365,2.55853 -7.56862,2.97962c-2.15783,0.6821 -4.61255,-0.04175 -6.81883,-0.04455c-5.81438,-0.00738 -11.69629,-0.0124 -17.51068,-0.0124c-1.57346,0 -7.51704,0.95833 -8.30421,-0.72072c-0.50545,-1.07815 -0.12544,-2.95747 -0.12544,-4.1114c0,-1.06663 -0.4121,-3.57246 -0.07802,-4.64841c0.62401,-2.0097 4.43932,-4.79048 6.39622,-4.70229c0,0 1.11259,-0.00457 1.42493,-0.95893z" data-paper-data="{&quot;noHover&quot;:false,&quot;origItem&quot;:[&quot;Path&quot;,{&quot;applyMatrix&quot;:true,&quot;segments&quot;:[[[452.3383,279.18205],[0,0],[-1.9569,-0.08819]],[[445.94549,283.868],[0.62401,-2.0097],[-0.33408,1.07596]],[[446.02266,288.50514],[0,-1.06663],[0,1.15393]],[[446.14548,292.60751],[-0.50545,-1.07815],[0.78717,1.67905]],[[454.44351,293.31706],[-1.57346,0],[5.81439,0]],[[471.88671,293.31706],[-5.81438,-0.00738],[2.20628,0.00281]],[[478.6918,293.37483],[-2.15783,0.6821],[1.33212,-0.42109]],[[486.25328,290.4101],[-0.8092,1.35213],[0.44879,-0.74991]],[[486.32247,286.70067],[0,0.81305],[0,-2.64655]],[[486.1308,275.61384],[1.22319,2.59262],[-0.88661,0.36849]],[[482.70769,276.44615],[0.64279,-0.12829],[-2.54271,0.50746]],[[475.24846,278.53823],[2.49021,-0.71046],[-6.65029,1.33448]],[[453.76118,278.22769],[6.72597,1.67622],[-0.31234,0.95436]]],&quot;closed&quot;:true}]}" fill="#391414" stroke="none" stroke-width="0.5" stroke-linecap="butt"/><path d="M442.96527,291.23994l-1.11301,0.00186c-5.7972,0 -12.12612,0.3039 -17.78864,-0.85872c-4.79982,-1.19337 -12.2003,-3.45579 -10.62148,-9.31687c0.38723,-1.43752 0.60772,-2.13744 1.88017,-3.12036c2.07889,-1.60588 4.82297,-2.30547 7.2602,-3.22229c1.0191,0.77298 2.24028,1.30244 3.44191,1.65137c6.62091,1.92261 15.57115,0.9596 22.42632,0.9873c-2.35891,1.26737 -4.56388,3.39001 -5.30838,5.55438c-0.47235,1.37316 -0.0816,4.18024 -0.0816,5.60912c0,0.7925 -0.09709,1.76252 -0.0955,2.71421z" data-paper-data="{&quot;noHover&quot;:false,&quot;origItem&quot;:[&quot;Path&quot;,{&quot;applyMatrix&quot;:true,&quot;segments&quot;:[[[443.01521,288.50514],[0,0.7925],[0,-1.42888]],[[443.09238,282.91696],[-0.47235,1.37316],[0.74451,-2.16438]],[[448.40314,277.37748],[-2.35891,1.26737],[-6.85517,-0.0277]],[[426.05382,276.41538],[6.62091,1.92261],[-1.20163,-0.34893]],[[422.61783,274.75896],[1.0191,0.77298],[-2.43723,0.91681]],[[415.36986,277.96134],[2.07889,-1.60588],[-1.27245,0.98293]],[[413.49184,281.07174],[0.38723,-1.43752],[-1.57882,5.86108]],[[424.09744,290.34625],[-4.79982,-1.19337],[5.66252,1.16262]],[[441.81223,291.21185],[-5.7972,0],[0,0]],[[442.92392,291.21185],[0,0],[-0.00159,-0.95169]]],&quot;closed&quot;:true}]}" fill="#391414" stroke="none" stroke-width="0.5" stroke-linecap="butt"/><path d="M453.29293,275.05396c0.4346,-2.40136 -0.0535,-5.90838 -0.0535,-7.55097c0,-9.32309 -0.0204,-18.74131 -0.0204,-28.0644c0,-1.00249 0.01612,-3.21251 0.01612,-4.215c0,0 0.01979,-1.40614 -1.48394,-1.40614c-1.50372,0 -1.49059,1.49757 -1.49059,1.49757l0.00478,1.1994c0,1.00249 0.01496,1.98308 0.01496,2.98556c0,8.7216 -0.04014,17.37746 -0.04014,26.09906c0,2.20545 -0.00503,4.41075 -0.00148,6.61619c0.00112,0.69241 0.49295,1.58632 0.36784,2.21921c-0.28933,0.03057 -0.63277,0.1386 -0.8959,0.43743c-0.41203,-0.15127 -0.89227,-0.45237 -1.28674,-0.45237c-6.1526,-0.02645 -13.29204,0.57255 -19.38983,-0.29871c-1.92336,-0.27481 -4.84785,-1.01318 -5.73375,-3.03588c-0.74118,-1.69227 0.21896,-3.8233 0.41511,-5.50432c0.45883,-3.9321 0.59907,-7.858 1.20107,-11.78252c0.41999,-7.03536 0.34017,-14.75539 1.50202,-21.66415c1.39047,-8.26815 3.21809,-17.27474 3.32976,-25.67168c1.80352,-0.02935 3.57287,-0.1628 4.87009,-0.20515c11.64404,-0.38814 23.24399,-1.40484 34.88234,-1.40484c0.59992,0 1.20898,0.02289 1.81187,0.04801c0.00885,0.20686 0.04772,0.34863 0.04772,0.34863c3.82492,14.01765 7.60912,28.04275 10.80929,42.22987c0.0267,2.83139 1.24423,5.52718 1.81875,8.25107c0.73709,3.49461 0.56729,8.16588 0.56729,11.75599c0,1.47895 0.28861,4.86381 -0.23615,5.93422c-0.31849,0.64965 -1.45959,-0.02729 -2.169,0.11488c-2.58501,0.51806 -5.05475,1.39938 -7.58516,2.12349c-6.47929,1.29104 -14.90607,1.36905 -21.27245,-0.60448z" data-paper-data="{&quot;noHover&quot;:false,&quot;origItem&quot;:[&quot;Path&quot;,{&quot;applyMatrix&quot;:true,&quot;segments&quot;:[[[474.53987,275.61545],[-6.47929,1.29104],[2.5304,-0.72411]],[[482.11788,273.4971],[-2.58501,0.51806],[0.70941,-0.14218]],[[484.28545,273.3835],[-0.31849,0.64965],[0.52477,-1.07041]],[[484.518,267.45301],[0,1.47895],[0,-3.59011]],[[483.94364,255.70758],[0.73709,3.49461],[-0.57452,-2.72389]],[[482.12102,247.46718],[0.0267,2.83139],[-3.20017,-14.18712]],[[471.33821,205.29373],[3.82492,14.01765],[0,0]],[[471.29072,204.94521],[0.00885,0.20686],[-0.60289,-0.02512]],[[469.48076,204.89808],[0.59992,0],[-11.63835,0]],[[434.64278,206.30078],[11.64404,-0.38814],[-1.29723,0.04235]],[[429.7771,206.50316],[1.80352,-0.02935],[-0.11167,8.39694]],[[426.4663,232.14888],[1.39047,-8.26815],[-1.16186,6.90876]],[[424.96212,253.77748],[0.41999,-7.03536],[-0.60199,3.92452]],[[423.75405,265.54877],[0.45883,-3.9321],[-0.19615,1.68102]],[[423.33583,271.04966],[-0.74118,-1.69227],[0.8859,2.0227]],[[429.06393,274.08065],[-1.92336,-0.27481],[6.09779,0.87126]],[[448.43188,274.37014],[-6.1526,-0.02645],[0.39447,0]],[[449.71668,274.82224],[-0.41203,-0.15127],[0.26313,-0.29883]],[[450.61135,274.38468],[-0.28933,0.03057],[0.12511,-0.6329]],[[450.23309,272.26492],[0.00112,0.69241],[-0.00355,-2.20544]],[[450.23309,265.64853],[0,2.20545],[0,-8.7216]],[[450.23309,239.48374],[0,8.7216],[0,-1.00249]],[[450.23309,236.47629],[0,1.00249],[0,0]],[450.23309,235.27331],[[451.73681,233.76958],[-1.50372,0],[1.50372,0]],[[453.24054,235.27331],[0,0],[0,1.00249]],[[453.24054,239.48374],[0,-1.00249],[0,9.32309]],[[453.24054,267.45301],[0,-9.32309],[0,1.64258]],[[453.29372,275.00397],[0.4346,-2.40136],[6.36638,1.97354]]],&quot;closed&quot;:true}]}" fill="#3e71af" stroke="none" stroke-width="0.5" stroke-linecap="butt"/><path d="M463.12135,97.70849c0.55311,-3.34386 0.98583,-6.80023 1.82346,-10.07249c1.13669,-0.57013 2.54186,-0.95425 3.59727,-0.48303c1.94099,0.86661 4.26562,5.02071 2.83267,7.13435c-1.51892,2.24043 -5.02796,2.68151 -7.49139,3.29752z" data-paper-data="{&quot;noHover&quot;:false,&quot;origItem&quot;:[&quot;Path&quot;,{&quot;applyMatrix&quot;:true,&quot;segments&quot;:[[[463.91153,97.54354],[0,0],[2.46342,-0.61601]],[[471.33005,94.26494],[-1.51892,2.24043],[1.43295,-2.11364]],[[468.53191,87.20193],[1.94099,0.86661],[-1.05541,-0.47122]],[[464.96848,87.68006],[1.13669,-0.57013],[-0.83763,3.27226]],[[463.15277,97.6696],[0.55311,-3.34386],[0,0]]],&quot;closed&quot;:true}]}" fill="#bfbfbf" stroke="none" stroke-width="0.5" stroke-linecap="butt"/><path d="M461.44746,88.25522c0.08792,0.11722 0.17998,0.21591 0.2722,0.29593c-1.03542,4.88849 -1.40268,10.01724 -2.83016,14.80991l-0.50401,1.68989c0,0 -0.4682,1.35131 0.97384,1.77753c0.00738,0.00217 0.05733,0.0948 0.06467,0.09688c-1.56001,0.01767 -3.32612,0.26034 -4.42456,0.26034l-1.20802,0.0002c0,0 -1.42272,-0.00037 -1.50551,1.3754c-1.07206,0.17539 -2.16611,0.47653 -3.24294,0.88754c-0.41367,-0.26068 -0.88403,-0.26175 -0.88403,-0.26175l-0.40211,-0.00048c-3.38681,0.02687 -6.5226,-1.19503 -9.86053,-1.60793c-2.37289,-0.29353 -4.85057,0.2628 -7.22243,-0.00708c-4.61902,-0.52556 -10.20929,-1.09069 -14.99659,-0.29837c0.84135,-6.49847 2.94883,-13.11533 8.06798,-16.66899c2.72937,-1.89471 5.61515,-3.77592 8.21334,-5.90131c2.58014,-0.58913 4.83083,-1.97852 7.50831,-2.2686c10.62107,-1.15068 20.82107,-2.39864 31.60513,-2.39864c3.63777,-0.08818 6.87837,3.77777 9.4328,6.04951c6.68388,5.94421 9.7346,13.35801 11.64134,21.46367c-4.90929,-0.0309 -10.46213,-0.24369 -15.24206,0.42516c-3.77478,0.52819 -6.81122,2.40855 -10.64986,2.40855c0,0 -0.17859,0.00059 -0.41198,0.06176c-0.97827,-1.34784 -2.2551,-2.45014 -3.90602,-3.18211c-0.43237,-0.1917 -1.05271,-0.37226 -1.68795,-0.4087c0.73496,-0.22201 0.97212,-1.0368 0.97212,-1.0368l0.49407,-1.68349c0.325,-1.1074 0.58485,-2.21765 0.81912,-3.34666l1.94549,-0.32078c3.46425,-0.86587 7.29661,-1.5092 9.41802,-4.72036c2.48014,-3.75418 -0.85743,-9.7774 -4.41079,-11.35283c-1.60573,-0.71192 -3.56037,-0.33632 -5.26755,0.38814c-0.00797,-0.00237 -0.01594,-0.00466 -0.02401,-0.00697c-1.29345,-0.36956 -1.75863,0.75027 -1.84269,0.99011c-0.23986,0.15166 -0.39957,0.23011 -0.60794,0.38223c0,0 -1.19894,0.90613 -0.2967,2.10911z" data-paper-data="{&quot;noHover&quot;:false,&quot;origItem&quot;:[&quot;Path&quot;,{&quot;applyMatrix&quot;:true,&quot;segments&quot;:[[[461.41077,88.28919],[0,0],[-0.90224,-1.20298]],[[461.71152,86.18397],[0,0],[0.20837,-0.15211]],[[462.38536,85.72654],[-0.23986,0.15166],[0.08407,-0.23984]],[[464.22984,84.7381],[-1.29345,-0.36956],[0.00807,0.00231]],[[464.2539,84.74512],[-0.00797,-0.00237],[1.70718,-0.72446]],[[469.52738,84.36402],[-1.60573,-0.71192],[3.55336,1.57543]],[[473.94712,95.7467],[2.48014,-3.75418],[-2.1214,3.21116]],[[464.52393,100.48796],[3.46425,-0.86587],[0,0]],[[462.57567,100.81363],[0,0],[-0.23427,1.12901]],[[461.74748,104.17082],[0.325,-1.1074],[0,0]],[461.24885,105.85786],[[460.27225,106.89741],[0.73496,-0.22201],[0.63524,0.03644]],[[461.90851,107.22063],[-0.43237,-0.1917],[1.65092,0.73197]],[[465.81142,110.40499],[-0.97827,-1.34784],[0.23339,-0.06117]],[[466.22268,110.3438],[0,0],[3.83864,0]],[[476.86038,107.94979],[-3.77478,0.52819],[4.77993,-0.66885]],[[492.09858,107.53353],[-4.90929,-0.0309],[-1.90674,-8.10567]],[[480.45756,86.10146],[6.68388,5.94421],[-2.55443,-2.27174]],[[471.03461,80.06883],[3.63777,-0.08818],[-10.78406,0]],[[439.50433,82.46747],[10.62107,-1.15068],[-2.67748,0.29008]],[[432.00368,84.72454],[2.58014,-0.58913],[-2.59819,2.12539]],[[423.79468,90.61181],[2.72937,-1.89471],[-5.11915,3.55366]],[[415.72498,107.2582],[0.84135,-6.49847],[4.78731,-0.79232]],[[430.71804,107.54814],[-4.61902,-0.52556],[2.37187,0.26987]],[[437.93592,107.54814],[-2.37289,-0.29353],[3.33793,0.4129]],[[447.77702,109.14085],[-3.38681,0.02687],[0,0]],[448.17801,109.14085],[[449.05918,109.40152],[-0.41367,-0.26068],[1.07682,-0.41101]],[[452.29197,108.51165],[-1.07206,0.17539],[0.08279,-1.37577]],[453.79193,107.13589],[[454.99491,107.13589],[0,0],[1.09844,0]],[[459.40268,106.88012],[-1.56001,0.01767],[-0.00734,-0.00208]],[[459.3806,106.87372],[0.00738,0.00217],[-1.44205,-0.42621]],[458.36476,105.00545],[[458.86338,103.31842],[0,0],[1.42748,-4.79267]],[[461.68168,88.58366],[-1.03542,4.88849],[-0.09222,-0.08002]],[[461.41079,88.2892],[0.08792,0.11722],[0,0]]],&quot;closed&quot;:true}]}" fill="#bfbfbf" stroke="none" stroke-width="0.5" stroke-linecap="butt"/><path d="M455.69216,110.06304c1.59557,-0.12234 4.17602,-0.52543 5.24626,-0.04758c1.93995,0.86615 2.84097,3.44023 3.57976,5.21604c1.78984,4.30222 1.53363,8.13713 1.24295,12.77406c-0.25936,4.47215 -2.14282,10.38503 -6.00686,13.14101c-2.63666,1.88057 -5.28667,1.72768 -8.36812,1.72768c-5.60438,0 -11.84456,-0.66995 -14.61704,-6.08044c0.08063,-4.93371 -0.94443,-10.97428 2.15632,-15.26324c1.35192,-1.87 2.51701,-2.62623 4.23807,-4.21733c0.95828,-0.88592 1.8206,-1.93896 2.94185,-2.60677c2.76407,-1.64626 4.82986,-3.47306 8.09697,-3.40928c0,0 1.32228,0.00081 1.48984,-1.23413z" data-paper-data="{&quot;noHover&quot;:false,&quot;origItem&quot;:[&quot;Path&quot;,{&quot;applyMatrix&quot;:true,&quot;segments&quot;:[[[455.67918,110.11134],[0,0],[-0.16757,1.23494]],[[454.1929,111.34628],[0,0],[-3.26711,-0.06378]],[[446.12581,114.75208],[2.76407,-1.64626],[-1.12125,0.66781]],[[443.19704,117.35032],[0.95828,-0.88592],[-1.72105,1.59109]],[[438.97207,121.54862],[1.35192,-1.87],[-3.10075,4.28896]],[[436.80971,136.7646],[0.08063,-4.93371],[2.77248,5.41048]],[[451.38595,142.82424],[-5.60438,0],[3.08144,0]],[[459.72954,141.10312],[-2.63666,1.88057],[3.86404,-2.75598]],[[465.71147,127.9998],[-0.25936,4.47215],[0.29068,-4.63693]],[[464.47991,115.26368],[1.78984,4.30222],[-0.73879,-1.77581]],[[460.91303,110.05853],[1.93995,0.86615],[-1.07024,-0.47785]],[[455.67918,110.11133],[1.59557,-0.12234],[0,0]]],&quot;closed&quot;:true}]}" fill="#c0a060" stroke="none" stroke-width="0.5" stroke-linecap="butt"/><path d="M406.98459,166.41385c-0.03868,0.16927 -0.0762,0.3399 -0.11693,0.50856c0.02384,-0.0065 0.0482,-0.01255 0.07211,-0.01895c-0.04035,0.07306 -0.08012,0.14727 -0.12033,0.22173c-0.49382,2.00528 -1.14211,4.05969 -1.6731,6.04653l-0.55628,-0.0758c-2.92517,-0.91673 -2.90312,-5.74508 0.39506,-6.86421c0.62784,-0.21303 1.32902,0.05847 1.99947,0.18215z" data-paper-data="{&quot;noHover&quot;:false,&quot;origItem&quot;:[&quot;Path&quot;,{&quot;applyMatrix&quot;:true,&quot;segments&quot;:[[[404.98102,166.28154],[0.62784,-0.21303],[-3.29818,1.11913]],[[404.5917,173.04594],[-2.92517,-0.91673],[0,0]],[[405.14008,173.12211],[0,0],[0.53099,-1.98684]],[[406.78741,167.16358],[-0.49382,2.00528],[0.04021,-0.07446]],[[406.90828,166.9423],[-0.04035,0.07306],[-0.02391,0.0064]],[[406.83666,166.96164],[0.02384,-0.0065],[0.04073,-0.16866]],[[406.95585,166.45477],[-0.03868,0.16927],[-0.67045,-0.12368]]],&quot;closed&quot;:true}]}" fill="#c0a060" stroke="none" stroke-width="0.5" stroke-linecap="butt"/><path d="M450.33094,176.03805c0.20347,1.07394 0.49024,2.15608 0.57129,3.2904c0.15216,2.12953 -0.23985,3.92969 0.05463,5.82867c-1.45652,0.39056 -3.12598,0.51874 -4.57391,0.00483c-2.69909,-0.958 -0.16218,-7.03442 1.15952,-8.22762c0.83561,-0.75437 1.79865,-0.88949 2.78847,-0.89628z" data-paper-data="{&quot;noHover&quot;:false,&quot;origItem&quot;:[&quot;Path&quot;,{&quot;applyMatrix&quot;:true,&quot;segments&quot;:[[[447.54924,176.98388],[0.83561,-0.75437],[-1.3217,1.1932]],[[446.40085,185.11527],[-2.69909,-0.958],[1.44792,0.51391]],[[450.92935,185.11537],[-1.45652,0.39056],[-0.29448,-1.89898]],[[450.85766,179.35111],[0.15216,2.12953],[-0.08105,-1.13432]],[[450.30936,176.08316],[0.20347,1.07394],[-0.98982,0.00679]]],&quot;closed&quot;:true}]}" fill="#c0a060" stroke="none" stroke-width="0.5" stroke-linecap="butt"/><path d="M437.48324,164.41581c-0.42393,1.86947 -1.089,3.18362 -1.85027,5.08915c-0.09785,0.24492 -0.37065,2.22601 -0.69951,2.64028c-0.88479,1.11455 -2.20632,2.05104 -3.68372,2.80703c-0.15629,-0.05122 -0.33979,-0.08054 -0.55149,-0.08054c-0.8845,0 -1.25375,0.52142 -1.40373,0.9499c-1.82862,0.70906 -3.75763,1.19075 -5.35811,1.46245c-3.85451,0 -7.339,0.08299 -11.18034,-0.30959c-1.62482,-0.16606 -3.85068,0.1523 -4.84425,-1.62624c-1.58353,-2.83462 1.76714,-6.69682 2.51358,-9.10155c0.36061,-1.16172 -0.14072,-2.29594 1.26398,-1.93652c8.2982,0 17.06861,-3.55517 22.25133,-10.18669c1.54206,-1.97314 1.80694,-4.84185 3.28163,-6.56969c1.55599,-1.8231 2.12596,-2.19437 2.54684,-4.01168c1.40269,0.74393 2.94205,1.26683 4.56197,1.61517c-0.07506,0.2576 -0.07464,0.46194 -0.07464,0.46194c0.0294,2.64219 0.60989,5.11739 0.60989,7.83368l0.0005,0.60286c0,0 0.00119,1.06195 0.88867,1.40303c-0.62962,0.1361 -1.35751,0.31421 -1.99094,0.48612c-1.93912,0.52628 -2.21199,-0.08546 -3.86907,1.5645c-1.11125,1.10647 -1.50717,2.88453 -2.00079,4.43807c-0.14727,0.24589 -0.20596,0.50957 -0.22893,0.67708c-0.06151,0.16775 -0.12633,0.33343 -0.19466,0.49123c0,0 -0.29442,0.68843 0.01207,1.30003z" data-paper-data="{&quot;noHover&quot;:false,&quot;origItem&quot;:[&quot;Path&quot;,{&quot;applyMatrix&quot;:true,&quot;segments&quot;:[[[874.84528,326.20738],[0,0],[0.13667,-0.3156]],[[875.2336,325.22946],[-0.12302,0.3355],[0.04595,-0.33503]],[[875.69042,323.88145],[-0.29453,0.49178],[0.98725,-3.10707]],[[879.6934,315.04016],[-2.2225,2.21295],[3.31416,-3.29992]],[[887.626,311.86458],[-3.87824,1.05256],[1.26686,-0.34382]],[[891.4143,310.94262],[-1.25925,0.27221],[-1.77495,-0.68217]],[889.63935,308.1444],[[889.63935,306.94142],[0,0],[0,-5.43258]],[[888.43638,291.30269],[0.05881,5.28438],[0,0]],[[888.5865,290.3798],[-0.15012,0.51519],[-3.23985,-0.69669]],[[879.47685,287.16307],[2.80537,1.48786],[-0.84176,3.63462]],[[874.50827,295.03041],[3.11199,-3.64621],[-2.94937,3.45567]],[[867.95725,308.18177],[3.08413,-3.94628],[-10.36544,13.26304]],[[823.47549,328.59505],[16.5964,0],[-2.8094,-0.71883]],[[820.94486,332.45947],[0.72121,-2.32345],[-1.49289,4.80945]],[[815.90176,350.63407],[-3.16707,-5.66923],[1.98713,3.55708]],[[825.5763,353.87226],[-3.24963,-0.33211],[7.68268,0.78516]],[[847.88851,354.46936],[-7.70902,0],[3.20097,-0.54339]],[[858.57191,351.5447],[-3.65724,1.41812],[0.29997,-0.85697]],[[861.36934,349.64719],[-1.76899,0],[0.4234,0]],[[862.46912,349.80923],[-0.31258,-0.10243],[2.95481,-1.51198]],[[869.80909,344.20886],[-1.76959,2.22911],[0.65772,-0.82852]],[[871.19552,338.93888],[-0.1957,0.48985],[1.52254,-3.81106]],[[874.87264,328.79704],[-0.84786,3.73894],[-0.61299,-1.2232]]],&quot;closed&quot;:true}]}" fill="#3e71af" stroke="none" stroke-width="0.5" stroke-linecap="butt"/><path d="M452.42712,154.60972c-1.66559,0.11265 -3.36814,0.28991 -5.02679,0.57293c0.40137,-0.44402 0.39946,-1.06858 0.39946,-1.06858l-0.00342,-0.60394c0,-2.66972 -0.63692,-5.33715 -0.5975,-7.901c0,0 0.00003,-0.0033 -0.00012,-0.00953c1.35406,0.13654 2.78684,0.18363 4.19948,0.18363c0.63051,0 1.26252,0.00592 1.86763,-0.00651c-0.01414,2.30561 -0.09853,4.5233 -0.56037,6.83097l-0.29507,1.14176c0,0 -0.10791,0.41755 0.01671,0.86028z" data-paper-data="{&quot;noHover&quot;:false,&quot;origItem&quot;:[&quot;Path&quot;,{&quot;applyMatrix&quot;:true,&quot;segments&quot;:[[904.76639,307.41499],[[905.33649,305.14863],[0,0],[0.92368,-4.61534]],[[906.47677,291.63696],[-0.02828,4.61122],[-1.21022,0.02485]],[[902.7719,291.66336],[1.26102,0],[-2.82529,0]],[[894.45097,291.28367],[2.70811,0.27308],[0.0003,0.01247]],[[894.45127,291.30269],[0,0],[-0.07884,5.12771]],[[895.65425,306.94142],[0,-5.33944],[0,0]],[895.65425,308.1444],[[894.8515,310.2792],[0.80275,-0.88804],[3.3173,-0.56603]],[[904.80806,309.13074],[-3.33119,0.22531],[-0.24923,-0.88546]]],&quot;closed&quot;:true}]}" fill="#3e71af" stroke="none" stroke-width="0.5" stroke-linecap="butt"/><path d="M461.09064,154.40725c-1.95839,-0.00007 -3.8612,-0.00845 -5.74464,0.0468l0.22999,-1.31811c0.51442,-2.57376 0.62801,-4.99039 0.63942,-7.57624c1.80944,-0.26613 3.54592,-0.84247 5.25171,-2.06223c0.60535,-0.43287 1.17446,-0.92556 1.69955,-1.46394c1.35017,0.28555 3.69818,0.74035 4.74926,1.37321c2.17782,1.31127 3.18186,3.89944 5.1035,5.44053c1.29321,1.03712 2.97552,1.57561 4.20208,2.69075c4.50573,4.09645 6.81571,10.02918 8.94073,15.39297c0.78248,2.31238 1.41764,5.18155 1.40498,7.61934c-0.00412,0.79435 0.60249,1.74046 0.13499,2.38269c-1.24248,1.70683 -4.10674,2.99975 -5.9153,3.81041c-8.1225,3.64077 -16.62655,3.96294 -25.35804,4.06093c-3.29604,-0.46283 -1.07189,-8.13005 -3.02539,-10.85866c0.26858,0.2167 0.64648,0.37252 0.8401,0.44819c0.6018,0.23519 1.25208,0.33346 1.89559,0.39156c0.10015,0.00904 3.85535,0.00087 4.35255,0.00087c5.51563,0 10.16938,-2.16176 13.07898,-7.00329c0.62291,-4.76277 -2.07566,-4.72019 -4.73854,-7.73916c-1.88222,-2.13392 -2.24133,-3.75271 -4.96352,-5.17223l-0.51137,-0.6206c0,0 -1.05861,-1.06754 -2.1219,-0.00424c-0.05373,0.05373 -0.10145,0.10686 -0.14473,0.16046z" data-paper-data="{&quot;noHover&quot;:false,&quot;origItem&quot;:[&quot;Path&quot;,{&quot;applyMatrix&quot;:true,&quot;segments&quot;:[[[922.39916,308.42377],[-0.10746,0.10746],[2.12659,-2.12659]],[926.65235,308.42377],[[927.67519,309.66488],[0,0],[5.44437,2.83903]],[[937.61708,319.99958],[-3.76444,-4.26783],[5.32576,6.03793]],[[947.19715,335.64906],[1.24583,-9.52554],[-5.81921,9.68306]],[[920.91682,349.64719],[11.03125,0],[-0.99441,0]],[[912.19962,349.63255],[0.20031,0.01808],[-1.28702,-0.1162]],[[908.40404,348.84336],[1.2036,0.47038],[-0.38725,-0.15135]],[[906.89229,347.83927],[0.53717,0.43341],[3.90701,5.45723]],[[912.91309,369.52541],[-6.59209,-0.92566],[17.46298,-0.19598]],[[963.5197,361.40273],[-16.245,7.28154],[3.61712,-1.62132]],[[975.32603,353.80392],[-2.48496,3.41366],[0.935,-1.28445]],[[975.05089,349.0457],[-0.00825,1.5887],[0.02532,-4.87557]],[[972.22694,333.83991],[1.56496,4.62475],[-4.25004,-10.72758]],[[954.39459,303.16353],[9.01146,8.1929],[-2.45312,-2.23028]],[[946.02278,297.79323],[2.58641,2.07423],[-3.84327,-3.08218]],[[935.84538,286.91254],[4.35565,2.62254],[-2.10216,-1.26571]],[[926.36635,284.16145],[2.70035,0.57109],[-1.05018,1.07677]],[[922.97608,287.08576],[1.2107,-0.86575],[-3.41158,2.43953]],[[912.49366,291.19718],[3.61889,-0.53227],[-0.02283,5.17169]],[[911.23458,306.32825],[1.02884,-5.14751],[0,0]],[[910.60574,308.85752],[0,0],[3.76687,-0.11049]],[[922.10855,308.74587],[-3.91677,-0.00014],[0.08657,-0.10719]]],&quot;closed&quot;:true}]}" fill="#3e71af" stroke="none" stroke-width="0.5" stroke-linecap="butt"/><path d="M448.28279,182.99551c-0.0025,-0.04191 -0.005,-0.08372 -0.0075,-0.12546c0.02026,0.00915 0.04093,0.01809 0.06196,0.02682c-0.00252,0.03566 -0.01919,0.06875 -0.05446,0.09865z" fill="#000000" stroke="none" stroke-width="0.5" stroke-linecap="butt"/><path d="M492.79235,110.49884c0.48104,2.39154 0.90741,4.8577 1.30842,7.33828c1.51914,3.80124 1.54893,8.02425 1.54893,12.08101c0,1.33664 -0.23433,2.70343 -0.00646,4.0205c0.03963,0.22905 0.67114,0.51543 0.44011,0.5411c-2.13477,0.2372 -4.82625,-0.784 -7.15402,-0.4163c-1.11911,0.17678 -3.87041,1.06222 -5.205,1.20891c-4.14391,0.4555 -8.34388,-0.43854 -12.47519,0.38773c-1.53129,-0.0077 -2.84634,-0.00023 -4.28823,0.27061c0.99002,-2.54268 1.53349,-5.27448 1.69611,-7.72143c0.26137,-4.19427 0.48598,-10.26843 -1.34121,-14.94209c3.47971,-0.29988 6.37926,-1.89391 9.90285,-2.39055c4.86919,-0.68629 10.63069,-0.39076 15.57369,-0.37777z" data-paper-data="{&quot;noHover&quot;:false,&quot;origItem&quot;:[&quot;Path&quot;,{&quot;applyMatrix&quot;:true,&quot;segments&quot;:[[[928.65675,210.43623],[8.09522,-1.14098],[-5.8581,0.82567]],[[912.24177,214.37345],[5.78516,-0.49856],[3.03779,7.77014]],[[914.48271,239.12176],[0.43454,-6.97314],[-0.27036,4.06813]],[[911.64498,251.92946],[1.64594,-4.22729],[2.39719,-0.45028]],[[918.76268,251.46825],[-2.54583,-0.0128],[6.86846,-1.37369]],[[939.42179,250.80234],[-6.88942,0.75728],[2.21881,-0.24389]],[[948.0369,248.80814],[-1.86056,0.2939],[3.87002,-0.61131]],[[959.90792,249.52165],[-3.54914,0.39435],[0.3841,-0.04268]],[[959.17569,248.62275],[0.06588,0.38081],[-0.37885,-2.18969]],[[959.17569,241.95608],[0,2.22222],[0,-6.74452]],[[956.59876,221.95321],[2.52561,6.31972],[-0.66669,-4.12408]],[[954.44912,209.78866],[0.79975,3.97605],[-8.21794,-0.02159]]],&quot;closed&quot;:true}]}" fill="#00070e" stroke="none" stroke-width="0.5" stroke-linecap="butt"/><path d="M444.48541,111.80257c-4.38934,2.94678 -8.1281,7.39956 -9.69434,11.58114c-0.72706,1.94114 -1.01419,4.09693 -1.07277,6.26294c-6.15371,0.0201 -12.46246,1.48058 -18.4694,2.0405c-0.22469,0.02095 -0.10883,-4.87131 -0.10883,-5.38254c0,-3.07427 -0.00208,-6.18461 -0.00208,-9.25888c-0.00516,-2.04244 0.04626,-4.34719 0.22382,-6.71372c4.61605,-1.02542 10.42831,-0.35509 14.992,0.14097c2.37387,0.25804 4.88657,-0.28715 7.25106,0.0122c2.34638,0.29705 4.59184,0.93776 6.88052,1.3174z" data-paper-data="{&quot;noHover&quot;:false,&quot;origItem&quot;:[&quot;Path&quot;,{&quot;applyMatrix&quot;:true,&quot;segments&quot;:[[[862.70356,209.77068],[3.90093,0.49386],[-3.93106,-0.49767]],[[850.70356,209.77068],[3.94665,0.429],[-7.58729,-0.82473]],[[825.86529,209.49495],[7.67437,-1.7048],[-0.29521,3.93446]],[[825.50902,220.62275],[-0.00858,-3.39565],[0,5.11111]],[[825.50902,235.95608],[0,-5.11111],[0,0.84994]],[[825.67635,244.88013],[-0.37355,0.03482],[9.98678,-0.9309]],[[856.26222,241.45629],[-10.23077,0.03341],[0.09738,-3.60107]],[[857.99764,231.08871],[-1.20877,3.22722],[2.60394,-6.95206]],[[874.11785,211.93334],[-7.29745,4.89913],[-3.80503,-0.63117]]],&quot;closed&quot;:true}]}" fill="#00070e" stroke="none" stroke-width="0.5" stroke-linecap="butt"/><path d="M448.82759,104.52166c-1.49597,-0.15241 -1.34357,-1.64839 -1.34357,-1.64839l0.18757,-1.8397c0.31274,-2.38526 0.64289,-4.94088 1.16095,-7.42707c-1.82722,3.07526 -4.37725,5.56113 -6.83172,1.22758c-0.84078,-1.48444 -0.47742,-3.38439 -0.88587,-5.04077c-0.21953,-0.89025 -0.21944,-2.88026 -1.06873,-2.53465c-1.17473,0.47805 -1.14416,2.26856 -1.82535,3.33837c-2.1596,3.39167 -3.31685,6.96124 -6.22226,9.883c0,0 -1.06329,1.0633 -2.12658,0c-1.0633,-1.0633 0,-2.12658 0,-2.12658c3.39755,-3.37555 4.45421,-8.12741 7.45461,-11.83501c0.64547,-0.7976 1.11905,-2.12485 2.14146,-2.21115c6.73519,-0.56851 3.66543,15.69858 7.71049,6.13893c0.3961,-0.93613 0.80118,-1.86844 1.20177,-2.80265l0.02951,-0.03223l-0.01137,-0.00565l0.82401,-1.66c0.24027,-0.51082 0.75957,-0.86444 1.36145,-0.86444c0.6988,0 1.28626,0.47667 1.455,1.12259l0.79286,2.77499l-0.02694,0.0077c0.03147,0.10912 0.05927,0.21955 0.08297,0.33142c0.67373,3.18062 -1.79956,8.76663 -2.22894,12.06295l-0.18294,1.7972c0,0 -0.1524,1.49599 -1.64838,1.34359z" fill="#000000" stroke="none" stroke-width="0.5" stroke-linecap="butt"/><path d="M461.96214,118.28357c0,1.50373 -1.50372,1.50373 -1.50372,1.50373c-1.05662,0 -2.37426,0 -3.60904,0c-0.00164,5.13336 -0.02331,7.95064 0.00009,13.23277v0.60149c0,0 0,0.66641 -0.44364,1.11196c1.17222,0.49361 2.11626,1.2506 2.67167,2.38893c1.92926,3.95406 -1.90107,5.89749 -5.2191,5.19358c-1.81484,-0.38502 -3.10212,-1.6105 -4.52755,-2.67957l-0.37174,-0.15875c0,0 -1.34497,-0.67248 -0.67249,-2.01746c0.13049,-0.26098 0.2863,-0.446 0.45268,-0.5747c-1.85318,0.13905 -3.68666,0.34495 -5.12261,0.34495c0,0 -1.50372,0 -1.50372,-1.50373c0,-1.50373 1.50372,-1.50373 1.50372,-1.50373c0.54116,0 1.158,-0.02918 1.8272,-0.07043c-0.02273,-0.13839 -0.02273,-0.23032 -0.02273,-0.23032c0,-5.49109 0.28773,-8.68034 0.30032,-14.07072c-0.81707,0.65694 -1.5322,1.37772 -1.80404,1.74018c0,0 -0.90223,1.20298 -2.10521,0.30075c-1.20298,-0.90224 -0.30075,-2.10522 -0.30075,-2.10522c2.57952,-3.43936 7.84565,-6.34166 10.41852,-1.46071l0.10755,1.15996c0,0 0,1.50372 -1.50372,1.50372c-1.50372,0 -1.50373,-1.50372 -1.50373,-1.50372l0.10755,-0.04302c-0.04009,-0.67748 -0.33168,-0.95194 -0.7597,-0.9657c0.35141,0.4382 0.35141,1.00872 0.35141,1.00872c0,5.6139 -0.30075,8.52111 -0.30075,14.13501v0.30074c0,0 0,0.01319 -0.00123,0.0371c1.81786,-0.0996 3.75,-0.13543 5.48835,0.11897c-0.07371,-0.2554 -0.07371,-0.45681 -0.07371,-0.45681v-0.60149c0.02934,-5.4339 0.0002,-8.31458 0,-13.7775c-0.17676,-0.21941 -0.30075,-0.52722 -0.30075,-0.959c0,-1.50373 1.50373,-1.50373 1.50373,-1.50373c1.60397,0 3.20794,0 4.81192,0h0.60149c0,0 1.50372,0 1.50372,1.50373zM450.30786,136.78976l0.82746,0.44073c1.38906,1.04179 3.3374,2.83813 5.27401,2.3004c0.96453,-0.26782 -1.25558,-2.28953 -1.53911,-2.37757c-1.24782,-0.38745 -2.8679,-0.43694 -4.56236,-0.36356z" fill="#000000" stroke="none" stroke-width="0.5" stroke-linecap="butt"/><path d="M11.81682,845.83446v-442.94294h660.66066v442.94294z" fill-opacity="0.25882" fill="#000000" stroke="#000000" stroke-width="0" stroke-linecap="butt"/></g></g></svg>