<svg version="1.1" xmlns="http://www.w3.org/2000/svg" xmlns:xlink="http://www.w3.org/1999/xlink" width="79.4521" height="98" viewBox="0,0,79.4521,98"><defs><linearGradient x1="349.74972" y1="163.59202" x2="349.74972" y2="223.34202" gradientUnits="userSpaceOnUse" id="color-1"><stop offset="0" stop-color="#0a0a0a"/><stop offset="1" stop-color="#353432"/></linearGradient><linearGradient x1="333.44417" y1="172.09028" x2="333.44417" y2="190.09028" gradientUnits="userSpaceOnUse" id="color-2"><stop offset="0" stop-color="#71716e"/><stop offset="1" stop-color="#5b5c5d"/></linearGradient><linearGradient x1="332.99972" y1="176.86806" x2="332.99972" y2="187.97917" gradientUnits="userSpaceOnUse" id="color-3"><stop offset="0" stop-color="#71716e"/><stop offset="1" stop-color="#5b5c5d"/></linearGradient><linearGradient x1="351.55528" y1="172.09028" x2="351.55528" y2="190.09028" gradientUnits="userSpaceOnUse" id="color-4"><stop offset="0" stop-color="#71716e"/><stop offset="1" stop-color="#5b5c5d"/></linearGradient><linearGradient x1="351.11083" y1="176.86806" x2="351.11083" y2="187.97917" gradientUnits="userSpaceOnUse" id="color-5"><stop offset="0" stop-color="#71716e"/><stop offset="1" stop-color="#5b5c5d"/></linearGradient><radialGradient cx="366.76163" cy="197.53274" r="29.69047" gradientUnits="userSpaceOnUse" id="color-6"><stop offset="0" stop-color="#5bde14" stop-opacity="0.2549"/><stop offset="1" stop-color="#5bde14" stop-opacity="0"/></radialGradient></defs><g transform="translate(-317,-131)"><g data-paper-data="{&quot;isPaintingLayer&quot;:true}" fill-rule="nonzero" stroke-linejoin="miter" stroke-miterlimit="10" stroke-dasharray="" stroke-dashoffset="0" style="mix-blend-mode: normal"><g><path d="M318,228v-96h64v96z" fill="#aba79d" stroke="#000000" stroke-width="2" stroke-linecap="butt"/><path d="M323.37472,223.34202v-59.75h52.75v59.75z" fill="url(#color-1)" stroke="#000000" stroke-width="2" stroke-linecap="butt"/><path d="M360.08306,212.44098c0,-3.72792 3.02207,-6.75001 6.75,-6.75001c3.72793,0 6.75,3.02208 6.75,6.75001c0,3.72792 -3.02208,6.74999 -6.75,6.74999c-3.72792,0 -6.75,-3.02207 -6.75,-6.74999z" fill="#72736f" stroke="#000000" stroke-width="1" stroke-linecap="butt"/><path d="M362.47194,212.44097c0,-2.34721 1.90279,-4.25 4.25,-4.25c2.34721,0 4.25,1.90279 4.25,4.25c0,2.34721 -1.90279,4.25 -4.25,4.25c-2.34721,0 -4.25,-1.90279 -4.25,-4.25z" fill="none" stroke="#000000" stroke-width="1" stroke-linecap="butt"/><path d="M364.80528,212.55209c0,-1.05855 0.85812,-1.91667 1.91667,-1.91667c1.05854,0 1.91666,0.85813 1.91666,1.91667c0,1.05855 -0.85812,1.91666 -1.91666,1.91666c-1.05855,0 -1.91667,-0.85812 -1.91667,-1.91666z" fill="none" stroke="#000000" stroke-width="1" stroke-linecap="butt"/><path d="M327.83306,156.9625v-20.2h21v20.2z" fill="#dedede" stroke="#000000" stroke-width="0" stroke-linecap="butt"/><path d="M335.05528,155.86806v-17.88889h7v17.88889z" fill="#dd0202" stroke="none" stroke-width="0" stroke-linecap="butt"/><path d="M330.05528,149.86806v-6.88889h16.88889v6.88889z" fill="#dd0202" stroke="none" stroke-width="0" stroke-linecap="butt"/><path d="M371.94417,139.09028h-19.77778" fill="none" stroke="#000000" stroke-width="2" stroke-linecap="round"/><path d="M352.16639,142.97917h19.77778" fill="none" stroke="#000000" stroke-width="2" stroke-linecap="round"/><path d="M352.16639,146.97917h19.77778" fill="none" stroke="#000000" stroke-width="2" stroke-linecap="round"/><path d="M352.16639,151.09028h19.77778" fill="none" stroke="#000000" stroke-width="2" stroke-linecap="round"/><path d="M352.16639,154.97917h19.77778" fill="none" stroke="#000000" stroke-width="2" stroke-linecap="round"/><path d="M375.05528,197.36806c-0.04868,4.312 -3.43248,4.38889 -7.66666,4.38889c-4.23418,0 -7.60579,-0.40833 -7.66667,-4.38889c-0.06765,-4.42297 3.43249,-4.38889 7.66667,-4.38889c4.23419,0 7.71537,0.07493 7.66666,4.38889z" fill="#59df13" stroke="#000000" stroke-width="1" stroke-linecap="butt"/><path d="M346.11877,217.99504v-27h10.71428v27z" fill="#9b7618" stroke="#000000" stroke-width="0" stroke-linecap="butt"/><path d="M374.8152,137.42361c0,-1.03554 0.83947,-1.875 1.875,-1.875c1.03553,0 1.875,0.83946 1.875,1.875c0,1.03554 -0.83947,1.875 -1.875,1.875c-1.03553,0 -1.875,-0.83946 -1.875,-1.875z" fill="#000000" stroke="none" stroke-width="0.5" stroke-linecap="butt"/><path d="M321.67234,137.70933c0,-1.03554 0.83946,-1.875 1.875,-1.875c1.03554,0 1.875,0.83946 1.875,1.875c0,1.03554 -0.83946,1.875 -1.875,1.875c-1.03554,0 -1.875,-0.83946 -1.875,-1.875z" fill="#000000" stroke="none" stroke-width="0.5" stroke-linecap="butt"/><path d="M328.11877,217.99504v-27h10.71428v27z" fill="#9b7618" stroke="#000000" stroke-width="0" stroke-linecap="butt"/><path d="M326.94417,220.08036v-2.11111h13v2.11111z" fill="#4d5156" stroke="#000000" stroke-width="0" stroke-linecap="butt"/><path d="M331.94417,176.47412v-10.44445h2.33334v10.44445z" fill="#a8a8a2" stroke="#000000" stroke-width="0" stroke-linecap="butt"/><path d="M344.94417,220.08036v-2.22222h13v2.22222z" fill="#4d5156" stroke="none" stroke-width="0" stroke-linecap="butt"/><path d="M326.83306,190.09028v-18h13.22222v18z" fill="none" stroke="url(#color-2)" stroke-width="2" stroke-linecap="butt"/><path d="M328.94417,187.97917v-11.11111h8.11111v11.11111z" fill="url(#color-3)" stroke="#5b5c5d" stroke-width="0" stroke-linecap="butt"/><path d="M328.94417,180.09028h7.88889" fill="none" stroke="#000000" stroke-width="1" stroke-linecap="round"/><path d="M350.05528,176.38321v-10.44445h2.33334v10.44445z" fill="#a8a8a2" stroke="#000000" stroke-width="0" stroke-linecap="butt"/><path d="M332.07043,168.09028v-2.22223h43.02652v2.22223z" fill="#a8a8a2" stroke="#000000" stroke-width="0" stroke-linecap="butt"/><path d="M344.94417,190.09028v-18h13.22222v18z" fill="none" stroke="url(#color-4)" stroke-width="2" stroke-linecap="butt"/><path d="M347.05528,187.97917v-11.11111h8.11111v11.11111z" fill="url(#color-5)" stroke="#5b5c5d" stroke-width="0" stroke-linecap="butt"/><path d="M347.05528,180.09028h7.88889" fill="none" stroke="#000000" stroke-width="1" stroke-linecap="round"/><path d="M337.07115,197.53274c0,-16.3976 13.29288,-29.69047 29.69048,-29.69047c16.39759,0 29.69047,13.29287 29.69047,29.69047c0,16.3976 -13.29288,29.69048 -29.69047,29.69048c-16.3976,0 -29.69048,-13.29288 -29.69048,-29.69048z" fill="url(#color-6)" stroke="#000000" stroke-width="0" stroke-linecap="butt"/></g></g></g></svg>