<svg version="1.1" xmlns="http://www.w3.org/2000/svg" xmlns:xlink="http://www.w3.org/1999/xlink" width="323.80783" height="51.24926" viewBox="0,0,323.80783,51.24926"><g transform="translate(25.08706,-107.44868)"><g data-paper-data="{&quot;isPaintingLayer&quot;:true}" fill-rule="nonzero" stroke-linejoin="miter" stroke-miterlimit="10" stroke-dasharray="" stroke-dashoffset="0" style="mix-blend-mode: normal"><path d="" fill="#101010" stroke="none" stroke-width="0" stroke-linecap="butt"/><path d="M16.21236,155.19795v-42" fill="none" stroke="#424242" stroke-width="5" stroke-linecap="round"/><path d="M81.04961,156.19795v-46" fill="none" stroke="#424242" stroke-width="5" stroke-linecap="round"/><path d="M-22.58705,109.9487c0,0 202.12677,0 258.29048,0c27.18576,0 60.51734,0 60.51734,0" fill="none" stroke="#424242" stroke-width="5" stroke-linecap="round"/><path d="M180.77548,110.0417v44" fill="none" stroke="#424242" stroke-width="5" stroke-linecap="round"/><path d="M129.93481,112.0417v43" fill="none" stroke="#424242" stroke-width="5" stroke-linecap="round"/><path d="M237.63671,110.0417v44.5" fill="none" stroke="#424242" stroke-width="5" stroke-linecap="round"/><path d="M295.83583,155.5417v-45" fill="none" stroke="#424242" stroke-width="5" stroke-linecap="round"/><path d="M16.21236,113.19794v42" fill="none" stroke="#424242" stroke-width="5" stroke-linecap="round"/><path d="M81.04961,156.19794v-46" fill="none" stroke="#424242" stroke-width="5" stroke-linecap="round"/><path d="M-22.58705,109.94869c0,0 202.12677,0 258.29048,0c27.18576,0 60.51734,0 60.51734,0" fill="none" stroke="#424242" stroke-width="5" stroke-linecap="round"/><path d="M180.77547,110.04169v44" fill="none" stroke="#424242" stroke-width="5" stroke-linecap="round"/><path d="M129.93481,112.04169v43" fill="none" stroke="#424242" stroke-width="5" stroke-linecap="round"/><path d="M237.63671,110.04169v44.5" fill="none" stroke="#424242" stroke-width="5" stroke-linecap="round"/><path d="M295.83583,155.54169v-45" fill="none" stroke="#424242" stroke-width="5" stroke-linecap="round"/></g></g></svg>