<svg version="1.1" xmlns="http://www.w3.org/2000/svg" xmlns:xlink="http://www.w3.org/1999/xlink" width="705" height="372" viewBox="0,0,705,372"><defs><linearGradient x1="565.81747" y1="232.112" x2="565.81747" y2="267.88978" gradientUnits="userSpaceOnUse" id="color-1"><stop offset="0" stop-color="#0011ff"/><stop offset="1" stop-color="#4070ff"/></linearGradient><radialGradient cx="593.40368" cy="233.93518" r="1.94444" gradientUnits="userSpaceOnUse" id="color-2"><stop offset="0" stop-color="#e4ffbd"/><stop offset="1" stop-color="#95ff00"/></radialGradient><radialGradient cx="592.43399" cy="234.51094" r="1.6131" gradientUnits="userSpaceOnUse" id="color-3"><stop offset="0" stop-color="#caff7f"/><stop offset="1" stop-color="#95ff00"/></radialGradient></defs><g transform="translate(31.45,7.05464)"><g data-paper-data="{&quot;isPaintingLayer&quot;:true}" fill-rule="nonzero" stroke-linejoin="miter" stroke-miterlimit="10" stroke-dasharray="" stroke-dashoffset="0" style="mix-blend-mode: normal"><path d="M-31.45,364.94537v-372h705v372z" fill="#808080" stroke="none" stroke-width="0" stroke-linecap="butt"/><path d="M472.65417,239.5469l-1.5,-28.875l48.125,0.125l-1.1875,28.9375" fill="#ffffff" stroke="#000000" stroke-width="5" stroke-linecap="round"/><path d="M471,358.76566v-68h12v68z" fill="#523108" stroke="#000000" stroke-width="5" stroke-linecap="butt"/><path d="M607,358.76566v-68h12v68z" fill="#523108" stroke="#000000" stroke-width="5" stroke-linecap="butt"/><path d="M458.6,290.7537v-16.5h171v16.5z" fill="#523108" stroke="#000000" stroke-width="5" stroke-linecap="butt"/><path d="M466.5,272.55368v-32.5h59.5v32.5z" fill="#dac6ae" stroke="#000000" stroke-width="5" stroke-linecap="butt"/><path d="M517.1875,258.26464c7.38186,3.2425 6.625,22.375 6.625,22.375h-55.25c0,0 -0.33474,-20.07239 7.875,-22.625" fill="#ffffff" stroke="#000000" stroke-width="5" stroke-linecap="round"/><path d="M518.75,257.67868h-45" fill="none" stroke="#000000" stroke-width="5" stroke-linecap="round"/><text transform="translate(476.5,262.93746) scale(0.07724,0.07724)" font-size="40" xml:space="preserve" fill="#000000" fill-rule="nonzero" stroke="none" stroke-width="1" stroke-linecap="butt" stroke-linejoin="miter" stroke-miterlimit="10" stroke-dasharray="" stroke-dashoffset="0" font-family="Marker" font-weight="normal" text-anchor="start" style="mix-blend-mode: normal"><tspan x="0" dy="0">my ho</tspan><tspan x="0" dy="46.150000000000006px">use in</tspan><tspan x="0" dy="46.150000000000006px">mine</tspan><tspan x="0" dy="46.150000000000006px">craft!!!11</tspan></text><path d="M477.375,251.5641v-5.5h36.5v5.5z" fill="#b4a490" stroke="#000000" stroke-width="2" stroke-linecap="butt"/><path d="M538.5,273.35159v-46.16666h75v46.16666z" fill="#ffe8cc" stroke="#000000" stroke-width="5" stroke-linecap="butt"/><path d="M543.97222,267.88978v-35.77778h43.69051v35.77778z" fill="url(#color-1)" stroke="none" stroke-width="0" stroke-linecap="butt"/><g stroke="#000000"><path d="M607.72222,263.55645h-16" fill="none" stroke-width="2" stroke-linecap="round"/><path d="M596.38889,262.72312c0,-0.03249 6.55556,-0.03249 6.55556,0c0,1.81027 -1.46751,3.27778 -3.27778,3.27778c-1.81026,0 -3.27778,-1.46751 -3.27778,-3.27778z" fill="#000000" stroke-width="0" stroke-linecap="butt"/></g><g stroke="#000000"><path d="M607.72222,254.33423h-16" fill="none" stroke-width="2" stroke-linecap="round"/><path d="M596.38889,253.5009c0,-0.03249 6.55556,-0.03249 6.55556,0c0,1.81026 -1.46751,3.27778 -3.27778,3.27778c-1.81026,0 -3.27778,-1.46752 -3.27778,-3.27778z" fill="#000000" stroke-width="0" stroke-linecap="butt"/></g><path d="M589.27778,267.88978v-16.55556h20.11111v16.55556z" fill="none" stroke="#000000" stroke-width="0.5" stroke-linecap="butt"/><path d="M609.16666,259.22312h-19.88888" fill="none" stroke="#000000" stroke-width="0.5" stroke-linecap="round"/><path d="M593.96619,232.55646h15.39855" fill="none" stroke="#000000" stroke-width="0.25" stroke-linecap="round"/><path d="M609.34541,233.23126h-15.11352" fill="none" stroke="#000000" stroke-width="0.25" stroke-linecap="round"/><path d="M594.44928,233.88345h14.89613" fill="none" stroke="#000000" stroke-width="0.25" stroke-linecap="round"/><path d="M594.27536,234.53561h15.07005" fill="none" stroke="#000000" stroke-width="0.25" stroke-linecap="round"/><path d="M594.01449,235.1878h15.33092" fill="none" stroke="#000000" stroke-width="0.25" stroke-linecap="round"/><path d="M589.61111,234.05646c0,-1.07388 0.87056,-1.94445 1.94444,-1.94445c1.07389,0 1.94444,0.87056 1.94444,1.94445c0,1.07388 -0.87056,1.94445 -1.94444,1.94445c-1.07389,0 -1.94444,-0.87056 -1.94444,-1.94445z" fill="none" stroke="url(#color-2)" stroke-width="0.5" stroke-linecap="butt"/><path d="M593.66667,235.83996h15.67874" fill="none" stroke="#000000" stroke-width="0.25" stroke-linecap="round"/><path d="M591.70185,236.00614l-1.67641,-0.71753l0.96051,-1.14123h1.31763l0.94805,0.84253z" fill="url(#color-3)" stroke="#000000" stroke-width="0" stroke-linecap="round"/><text transform="translate(544.29349,235.19922) scale(0.07877,0.07877)" font-size="40" xml:space="preserve" fill="#000000" fill-rule="nonzero" stroke="none" stroke-width="1" stroke-linecap="butt" stroke-linejoin="miter" stroke-miterlimit="10" stroke-dasharray="" stroke-dashoffset="0" font-family="Serif" font-weight="normal" text-anchor="start" style="mix-blend-mode: normal"><tspan x="0" dy="0">Installing Windows 95</tspan></text><text transform="translate(544.12204,235.02779) scale(0.07877,0.07877)" font-size="40" xml:space="preserve" fill="#ffffff" fill-rule="nonzero" stroke="none" stroke-width="1" stroke-linecap="butt" stroke-linejoin="miter" stroke-miterlimit="10" stroke-dasharray="" stroke-dashoffset="0" font-family="Serif" font-weight="normal" text-anchor="start" style="mix-blend-mode: normal"><tspan x="0" dy="0">Installing Windows 95</tspan></text><path d="M552.16667,257.24208v-14.63095h27.16667v14.63096z" fill="#bfbfbf" stroke="#000000" stroke-width="0.5" stroke-linecap="butt"/><path d="M552.16176,245.39301v-2.7647h27.11765v2.7647z" fill="#0011ff" stroke="#000000" stroke-width="0.5" stroke-linecap="butt"/><text transform="translate(552.82692,244.57442) scale(0.04036,0.04036)" font-size="40" xml:space="preserve" fill="#ffffff" fill-rule="nonzero" stroke="none" stroke-width="1" stroke-linecap="butt" stroke-linejoin="miter" stroke-miterlimit="10" stroke-dasharray="" stroke-dashoffset="0" font-family="Serif" font-weight="normal" text-anchor="start" style="mix-blend-mode: normal"><tspan x="0" dy="0">Warning</tspan></text><path d="M577.01074,244.89355v-1.76471h1.76471v1.76471z" fill="#ffffff" stroke="#000000" stroke-width="0.25" stroke-linecap="butt"/><path d="M577.43035,244.48177l0.93726,-0.97059" fill="none" stroke="#000000" stroke-width="0.25" stroke-linecap="round"/><path d="M578.36369,244.48179l-0.95883,-0.95883" fill="none" stroke="#000000" stroke-width="0.25" stroke-linecap="round"/><text transform="translate(552.8,248.08465) scale(0.05621,0.05621)" font-size="40" xml:space="preserve" fill="#000000" fill-rule="nonzero" stroke="none" stroke-width="1" stroke-linecap="butt" stroke-linejoin="miter" stroke-miterlimit="10" stroke-dasharray="" stroke-dashoffset="0" font-family="Serif" font-weight="normal" text-anchor="start" style="mix-blend-mode: normal"><tspan x="0" dy="0">wtf bro, 4 kb of memory,</tspan><tspan x="0" dy="46.150000000000006px">is this a fucking commodore</tspan><tspan x="0" dy="46.150000000000006px">pet? wtf yo you idiot</tspan><tspan x="0" dy="46.150000000000006px">buy me at least 256 mb idk</tspan></text></g></g></svg>