<svg version="1.1" xmlns="http://www.w3.org/2000/svg" xmlns:xlink="http://www.w3.org/1999/xlink" width="147.17533" height="185.26286" viewBox="0,0,147.17533,185.26286"><defs><linearGradient x1="304.11111" y1="113.46528" x2="391.77778" y2="113.46528" gradientUnits="userSpaceOnUse" id="color-1"><stop offset="0" stop-color="#ff0000" stop-opacity="0.25882"/><stop offset="1" stop-color="#ff0000" stop-opacity="0"/></linearGradient></defs><g transform="translate(-264.1912,-82.99825)"><g data-paper-data="{&quot;isPaintingLayer&quot;:true}" fill-rule="nonzero" stroke-linejoin="miter" stroke-miterlimit="10" stroke-dasharray="" stroke-dashoffset="0" style="mix-blend-mode: normal"><path d="M294.29651,241.30078c0,-3.48651 0.00082,-6.976 -0.00466,-10.4625c-0.01829,-11.64222 3.81315,-23.03097 5.19552,-34.56745c0.6431,0 1.2862,0 1.92929,0c0,0 0.62192,0 1.24538,-0.31019c9.20547,0.10881 18.41048,0.41145 27.61575,0.30942c0.24869,-0.00275 0.60047,-0.07773 1.01533,-0.19698c0.01181,0.00044 0.02362,0.00088 0.03542,0.00131c0.05873,0.94744 0.10971,1.91028 0.19694,2.8996c0.39755,4.50922 1.41777,9.1496 2.234,13.59321c1.93576,10.53842 6.38262,21.40758 6.29178,32.22319c0.16804,0.34339 0.83685,0.84169 0.50422,1.03013c-0.83737,0.47438 -1.91362,0.23325 -2.87286,0.31122c-4.81793,0.39161 -9.65188,0.28219 -14.48097,0.28219c-0.94169,0 -1.94866,0.4677 -2.8736,0.50112c-0.49289,-0.34772 -1.05734,-0.45417 -1.35589,-0.48674c-0.53078,-0.69726 -0.21873,-2.07906 -0.2517,-3.04089c-0.06719,-1.96016 0.00356,-3.92263 0.00356,-5.88394c0,-7.71262 -0.00256,-15.42543 -0.00256,-23.13805c-0.00111,-2.66836 -0.15505,-5.33619 -0.32086,-7.9994l-0.35274,-2.22833c0,0 -0.41541,-2.474 -2.88308,-2.07323c-2.46767,0.40077 -2.01248,2.78455 -2.01248,2.78455l0.2912,1.73593c0.16059,2.55932 0.29993,5.11897 0.2988,7.68332c0,8.66348 -0.01386,17.32494 -0.00848,25.98842c0.00107,1.73006 -0.12346,3.79922 0.1542,5.64755c-6.31727,-0.68516 -12.57864,-1.13259 -19.03823,-1.04127c-0.21261,-0.21979 -0.4891,-0.40948 -0.84666,-0.53083c-0.131,-0.70738 0.29342,-1.98423 0.29342,-3.03135z" data-paper-data="{&quot;noHover&quot;:false,&quot;origItem&quot;:[&quot;Path&quot;,{&quot;applyMatrix&quot;:true,&quot;segments&quot;:[[[327.36806,235.15171],[0,0],[0,-3.48651]],[[327.36806,224.69213],[-0.00548,3.4865],[0.02231,-14.20339]],[[321.66283,182.53686],[0,14.17739],[0,0]],[[321.66967,182.40378],[-0.00684,0.08416],[-0.35353,-1.42366]],[[320.98199,178.44268],[0.15338,0.99102],[-1.1351,-7.33419]],[[320.16028,156.2708],[-0.56479,7.40827],[0,0]],[320.15292,154.46254],[[322.65292,151.96254],[-2.5,0],[0,0]],[[322.65293,151.9625],[0,0],[2.5,0]],[325.15293,154.4625],[[325.14557,156.65424],[0,0],[-0.47065,6.06031]],[[325.52587,175.09565],[-0.89393,-6.0184],[0.24931,1.67851]],[[326.29512,180.12798],[-0.07134,-1.69543],[0.00929,0.22084]],[[326.06387,180.84166],[0.09783,-0.23569],[0.13824,0.16868]],[[326.39024,181.37029],[-0.08179,-0.17884],[0.20599,-0.17307]],[[327.068,180.76936],[-0.25371,0.05529],[0.9455,-0.20605]],[[329.96381,180.5641],[-0.96527,0.06842],[2.00111,0]],[[335.96381,180.3641],[-1.99703,-0.12769],[0.49992,0.03197]],[[337.39115,180.83441],[-0.46843,0.17751],[0.29975,-0.11359]],[[337.2198,179.88813],[-0.01606,0.32016],[0.14232,-2.836]],[[337.1659,171.9169],[0.29694,2.86261],[-0.74031,-7.13686]],[[334.75841,150.62809],[0.47887,7.16471],[-0.20301,-3.03736]],[[333.69739,141.99994],[1.0725,2.74074],[-1.3396,-0.90887]],[[330.55751,139.00548],[0.57254,0.88436],[-0.85288,-0.45002]],[[328.10087,137.85875],[0.72725,0.32423],[-1.54017,-0.68667]],[[323.40664,135.97272],[1.61706,0.47831],[0,0]],[322.00697,135.31423],[[320.67805,133.81186],[0.32734,1.00158],[-3.77026,-0.24964]],[[316.56234,139.92286],[2.624,-2.45404],[-1.22906,1.14945]],[[309.5862,142.03679],[2.8297,-0.24764],[-0.77067,0.03397]],[[307.27226,142.13366],[0.77202,-0.03034],[-1.35911,-0.00904]],[[303.90056,141.72089],[0.80808,0.2678],[-1.88892,-0.62599]],[[298.24387,136.58981],[0.71083,1.87243],[-0.36164,-0.95262]],[[298.38369,133.53615],[-0.0917,1.01482],[0.00172,-0.01901]],[[298.39322,133.47751],[-0.00456,0.02005],[-0.38338,0.21216]],[[297.68717,133.76414],[0,0],[-3.22048,0.7154]],[[288.10491,138.20043],[2.36333,-2.47126],[-0.35018,1.56589]],[[286.55111,143.18268],[0.40622,-1.72457],[-0.0421,8.18817]],[[285.75292,167.74814],[0,-8.20784],[0,0]],[285.75292,170.14814],[[283.25292,172.64814],[2.5,0],[-2.5,0]],[280.75292,170.14814],[[280.75292,167.74814],[0,0],[0,-1.55519]],[[280.82512,163.08587],[-0.04474,1.55309],[-1.47891,-0.07304]],[[278.73173,161.47662],[0,0],[-1.30722,-3.28042]],[[274.15331,152.12886],[1.44977,3.21568],[-0.81309,-1.80348]],[[272.61868,146.39582],[1.10741,1.63929],[-0.23332,-0.34539]],[[271.45292,146.84815],[0.41438,-0.04499],[-0.99416,0.10795]],[[268.45292,146.84815],[0.99999,0.0046],[-1.21094,-0.00557]],[[264.82069,146.91592],[0.83968,-0.87255],[-1.08848,1.13108]],[[264.55196,151.61752],[0.03322,-1.56941],[-0.07843,3.70507]],[[264.34564,162.95753],[-0.22424,-3.7065],[0.20444,3.37906]],[[267.30661,172.86609],[-1.19319,-3.12977],[3.36434,5.76564]],[[282.9749,181.24937],[-6.77595,0.23899],[1.29819,-0.04579]],[[287.315,180.70554],[-1.46803,0.38799],[0.39527,-0.54507]],[[289.65427,179.72983],[-1.19979,-0.23229],[0.67622,-0.42848]],[[291.32159,178.04145],[-0.41382,0.70915],[1.08834,-1.86506]],[[292.55475,171.45221],[-0.07202,2.08489],[0.15736,-4.5551]],[[292.55291,157.74815],[0,4.55819],[0,0]],[292.55291,157.54815],[[292.80732,156.42219],[-0.25441,0.58103],[-0.07749,-0.58121]],[[292.57484,154.67856],[0.07749,0.58121],[0,0]],[292.57485,154.67856],[[294.72251,151.87008],[-2.47807,0.33041],[2.47807,-0.33041]],[[297.53099,154.01774],[0,0],[0.13333,1]],[[297.93099,157.01774],[-0.13333,-1],[0,0]],[297.95292,157.54815],[[297.56877,158.93148],[0.38415,-0.66612],[0.16829,6.72134]],[[295.58424,180.65485],[3.53547,-5.67985],[-1.08953,1.75036]],[[291.13938,184.63414],[1.81545,-0.92324],[-0.72714,2.70681]],[[290.20729,192.84505],[0.25413,-2.88243],[-0.39755,4.50922]],[[287.95705,206.42035],[0.81623,-4.44361],[-1.93576,10.53842]],[[281.65494,238.63824],[-0.09084,-10.81561],[-0.16804,0.34339]],[[281.15081,239.66841],[-0.33263,-0.18844],[0.83737,0.47438]],[[284.02129,239.9788],[-0.95924,-0.07797],[4.81793,0.39161]],[[298.48931,240.25868],[-4.82909,0],[0.94169,0]],[[301.36022,240.75975],[-0.92494,-0.03342],[0.49289,-0.34772]],[[302.71483,240.27304],[-0.29855,0.03257],[0.53078,-0.69726]],[[302.96618,237.23216],[-0.03297,0.96183],[0.06719,-1.96016]],[[302.96235,231.34823],[0,1.96131],[0,-7.71262]],[[302.96235,208.21037],[0,7.71262],[0.00111,-2.66836]],[[303.27911,200.21155],[-0.16581,2.66321],[0,0]],[303.6286,197.98393],[[306.49704,195.91703],[-2.46767,-0.40077],[2.46767,0.40077]],[308.56394,198.78547],[[308.26938,200.52343],[0,0],[-0.16059,2.55932]],[[307.96236,208.21036],[-0.00113,-2.56435],[0,8.66348]],[[307.96236,234.20083],[0.00538,-8.66348],[-0.00107,1.73006]],[[307.7942,239.74936],[0.27766,-1.84833],[6.31727,-0.68516]],[[326.81649,238.71299],[-6.45959,-0.09132],[0.21261,-0.21979]],[[327.66238,238.18255],[-0.35756,0.12135],[0.131,-0.70738]],[[327.36804,235.1517],[0,1.04712],[0,0]]],&quot;closed&quot;:true,&quot;fillColor&quot;:[0,0,0,1]}],&quot;index&quot;:null}" fill="#7b8a52" stroke="none" stroke-width="0.5" stroke-linecap="butt"/><path d="M333.42297,197.36976c0.25385,-0.05821 0.45879,0.14673 0.45879,0.14673l0.32079,0.39544c0.23592,0.77384 0.73323,1.39928 1.0058,2.21859c1.60005,6.42304 2.83529,13.19866 3.87873,19.80461c1.18266,6.25841 1.53095,13.2309 3.78693,19.13176c1.0899,2.85205 2.48086,8.50049 -1.6009,9.8817c-1.99826,0.67618 -4.53653,-1.99366 -6.77201,-1.97418c-2.37356,0.04494 -6.07804,1.4277 -8.36422,0.55757c-1.04174,-0.39648 -0.83752,-2.03963 -1.25782,-2.84226c-0.78604,-1.50105 -1.51963,-2.28135 -2.7044,-3.46612c-2.33592,-2.33592 -0.73217,-3.84 -0.33999,-6.63364c0.41013,-2.92148 0.41206,-5.79491 1.0438,-8.73697c1.85609,-4.53961 -2.26016,-6.42049 -2.84651,-10.32185c-0.35412,-2.35624 1.6879,-4.75075 2.97989,-6.48208c2.38309,-2.68341 3.60703,-6.04994 6.39756,-8.36418c0.93616,-0.77638 3.10244,-2.06214 3.01881,-3.41483c0,0 0,-0.5 0.5,-0.5c0.5,0 0.5,0.5 0.5,0.5c-0.00118,0.03347 -0.00293,0.06671 -0.00523,0.09972z" data-paper-data="{&quot;index&quot;:null}" fill="#363c1a" stroke="none" stroke-width="0.5" stroke-linecap="butt"/><path d="M307.21483,201.78493c-1.17826,4.99606 -6.89142,2.95096 -9.31143,0.54378c-0.69549,-2.02804 -0.43682,-4.00224 -0.21635,-6.05788c1.24321,0 2.48641,0 3.72962,0c0,0 0.62192,0 1.24537,-0.31019c1.45489,0.0172 2.90978,0.03924 4.36465,0.06375c0.30558,1.96868 0.61054,3.96952 0.18814,5.76054z" data-paper-data="{&quot;index&quot;:null}" fill="#3b4208" stroke="none" stroke-width="0.5" stroke-linecap="butt"/><path d="" data-paper-data="{&quot;index&quot;:null}" fill="#40770e" stroke="none" stroke-width="0.5" stroke-linecap="butt"/><path d="" data-paper-data="{&quot;index&quot;:null}" fill="#629200" stroke="none" stroke-width="0.5" stroke-linecap="butt"/><path d="M293.84325,205.37547l-0.5781,0.00274c0.23519,-0.83723 0.44841,-1.70891 0.65153,-2.60738c0.03584,-0.15854 0.04823,-0.32645 0.04634,-0.5c0.34737,0 0.69473,0 1.0421,0c-0.14892,1.07251 -0.31938,2.14032 -0.50375,3.1971c-0.37445,-0.09465 -0.65812,-0.09244 -0.65812,-0.09244z" data-paper-data="{&quot;noHover&quot;:false,&quot;origItem&quot;:[&quot;Path&quot;,{&quot;applyMatrix&quot;:true,&quot;segments&quot;:[[328.41667,193.4375],[[329.75,193.4375],[0,0],[0.83836,0.00519]],[[332.27055,193.33463],[-0.83843,0.07837],[-0.24527,-0.87]],[[331.65798,190.87717],[0.18655,0.72282],[0,0]],[331.51393,190.7222],[[332.63196,187.3681],[-2.23606,1.11803],[2.23607,-1.11803]],[335.98606,188.48613],[[336.50868,189.66449],[0,0],[0.27763,1.15838]],[[337.70381,193.36714],[-0.72311,-1.04739],[0.99173,1.43648]],[[338.63438,192.10683],[0.17456,0.50852],[-0.7812,-2.27581]],[[335.98676,185.66213],[0.746,2.25106],[-2.25279,0.0544]],[[330.14203,185.56094],[1.14097,0],[-0.62237,0.04482]],[[326.77481,185.78869],[1.37017,-0.05853],[0.17443,2.60493]],[[327.76034,193.53215],[-0.4476,-2.56567],[0.37445,-0.09465]],[328.41666,193.4375]],&quot;closed&quot;:true,&quot;fillColor&quot;:[0,0,0,1]}],&quot;index&quot;:null}" fill="#131313" stroke="none" stroke-width="0.5" stroke-linecap="butt"/><path d="" data-paper-data="{&quot;noHover&quot;:false,&quot;origItem&quot;:[&quot;Path&quot;,{&quot;applyMatrix&quot;:true,&quot;segments&quot;:[[[283.03655,137.62096],[0,0],[0.04283,-0.21353]],[[283.42059,135.52328],[-0.17701,0.8338],[0.02285,-0.28447]],[[283.62404,134.71815],[-0.11012,0.24962],[0.37492,-0.84988]],[[285.81258,133.22817],[-0.97914,0.03848],[2.11231,-1.5827]],[[293.67924,129.66076],[-2.74669,0.81814],[0,0]],[[293.52553,128.93249],[0,0],[-0.39886,-1.09804]],[[292.33888,125.67086],[0.39474,1.07729],[-0.76795,0.26819]],[290.81287,125.76411],[[290.81286,125.76409],[0,0],[-2.02306,-0.47808]],[[283.68635,124.9428],[2.13385,-0.44576],[-1.41088,0.29473]],[[282.58067,127.54689],[0.16697,-1.00991],[-0.15314,0.92625]],[[282.51778,129.95129],[-0.10168,-0.69866],[-0.1929,0.07632]],[[282.02356,130.3062],[0.13195,-0.15565],[-0.015,0.78318]],[[281.84365,133.30565],[0.01548,-1.27017],[-0.00106,0.08702]],[[281.84072,133.5667],[0.00089,-0.08702],[0,0]],[[281.87207,133.88016],[0,0],[0.00933,0.10636]],[[281.93834,134.18611],[-0.03429,-0.09704],[0.0623,0.79193]],[[282.02391,136.08036],[0.04438,-0.2658],[-0.05873,0.35179]],[[281.83633,137.12871],[0.06582,-0.34739],[0.00679,1.53577]],[[281.84365,141.73599],[0.0107,-1.5357],[-0.00006,0.00901]],[[281.84338,141.76319],[0.00012,-0.00912],[0.47156,-1.80348]],[[283.03655,137.62094],[-0.1433,0.71451],[0,0]]],&quot;closed&quot;:true,&quot;fillColor&quot;:[0,0,0,1]}],&quot;index&quot;:null}" fill="#385130" stroke="none" stroke-width="0.5" stroke-linecap="butt"/><path d="" data-paper-data="{&quot;noHover&quot;:false,&quot;origItem&quot;:[&quot;Path&quot;,{&quot;applyMatrix&quot;:true,&quot;segments&quot;:[[[337.78423,131.04145],[0.06857,1.18423],[-0.02499,-0.43163]],[[337.43807,128.5734],[0.03928,0.92993],[-0.0194,-0.02322]],[[337.37632,128.50516],[0.02179,0.02221],[0.02639,-0.51591]],[[337.00258,125.73016],[0.73662,0.45944],[-1.84085,-1.14815]],[[330.37501,124.32813],[2.07424,-0.03702],[0,0]],[[330.22152,124.31955],[0.09661,0.00858],[-1.31182,2.44546]],[[326.1679,131.59859],[1.3486,-2.42669],[2.05118,0.66561]],[[332.73989,134.37019],[-2.13297,-1.2123],[0.04174,0.00752]],[[332.8661,134.39557],[-0.0424,-0.00939],[0.01166,-0.00946]],[[332.90126,134.36711],[-0.01178,0.00952],[0.00965,0.01446]],[[332.93036,134.41045],[-0.00975,-0.01444],[1.62474,0.39233]],[[337.81313,138.40909],[-1.19039,-1.8934],[-0.44278,-2.67525]]],&quot;closed&quot;:true,&quot;fillColor&quot;:[0,0,0,1]}],&quot;index&quot;:null}" fill="#385130" stroke="none" stroke-width="0.5" stroke-linecap="butt"/><path d="" data-paper-data="{&quot;index&quot;:null}" fill="#000000" stroke="none" stroke-width="0.5" stroke-linecap="butt"/><path d="" data-paper-data="{&quot;noHover&quot;:false,&quot;origItem&quot;:[&quot;Path&quot;,{&quot;applyMatrix&quot;:true,&quot;segments&quot;:[[[592.09546,186.88092],[0,0],[-5.34952,7.60966]],[[576.101,210.11974],[4.62162,-8.04052],[-0.8144,1.41684]],[[573.89784,214.49948],[0.88948,-1.37094],[-0.36234,0.55844]],[[572.40138,215.82194],[-0.40442,-0.52878],[0.61384,0.80258]],[[575.3717,216.42654],[-0.99996,-0.14488],[4.24838,0.61556]],[[588.13124,218.1708],[-4.2762,-0.37622],[14.61514,1.28584]],[[632.74998,217.65624],[-14.69376,0],[9.589,0.0333]],[[661.5234,215.66138],[-9.62252,0.45314],[3.17334,-0.14944]],[[671.07482,215.3937],[-3.16124,-0.23186],[-5.31686,-4.79508]],[[658.0108,196.30756],[3.26808,5.17224],[-0.03378,-0.05346]],[[653.48822,188.82432],[0.80066,0.44372],[-7.85808,-4.35494]],[[623.74996,185.65626],[8.5108,0],[-10.7875,0]],[[592.09542,186.88094],[10.52378,-1.59864],[0,0]]],&quot;closed&quot;:true,&quot;fillColor&quot;:[0,0,0,1]}],&quot;index&quot;:null}" fill="#385130" stroke="none" stroke-width="0.5" stroke-linecap="butt"/><path d="" data-paper-data="{&quot;noHover&quot;:false,&quot;origItem&quot;:[&quot;Path&quot;,{&quot;applyMatrix&quot;:true,&quot;segments&quot;:[[[603.28497,257.18272],[-1.67332,-1.40818],[6.31519,5.31455]],[[610.69892,273.87079],[-8.32731,-2.36145],[3.53929,1.00367]],[[623.5826,272.79444],[-3.49013,0.55736],[0.92557,-0.14781]],[[626.37534,272.46685],[-0.69405,0.62993],[2.23376,-2.0274]],[[628.42258,263.65157],[-1.70209,2.49057],[4.77358,-6.98488]],[[641.75,257.65625],[-6.91986,0.32711],[0,0]],[[643.97816,257.65625],[0,0],[5.79041,-10.32215]],[[659.78966,225.86595],[-3.7213,11.29577],[-9.04216,0.50758]],[[632.75,227.65625],[9.04776,-0.02754],[-15.43723,0]],[[586.00313,227.76618],[15.41056,1.47182],[3.96123,8.74426]],[[596.44897,254.44753],[-3.33017,-9.14774],[0,0]],[[596.85468,256.20637],[0,0],[2.32343,-0.08913]]],&quot;closed&quot;:true}],&quot;index&quot;:null}" fill="#131313" stroke="none" stroke-width="0.5" stroke-linecap="butt"/><path d="" data-paper-data="{&quot;index&quot;:null}" fill="#9d0201" stroke="#323231" stroke-width="2" stroke-linecap="round"/><path d="" data-paper-data="{&quot;index&quot;:null}" fill="#000000" stroke="none" stroke-width="0.5" stroke-linecap="butt"/><path d="" data-paper-data="{&quot;index&quot;:null}" fill="#000000" stroke="none" stroke-width="0.5" stroke-linecap="butt"/><path d="" data-paper-data="{&quot;index&quot;:null}" fill="#000000" stroke="none" stroke-width="0.5" stroke-linecap="butt"/><g data-paper-data="{&quot;index&quot;:null}" fill="#000000" stroke="none" stroke-width="1" stroke-linecap="butt" font-family="&quot;ヒラギノ角ゴ Pro W3&quot;, &quot;Hiragino Kaku Gothic Pro&quot;, Osaka, &quot;メイリオ&quot;, Meiryo, &quot;ＭＳ Ｐゴシック&quot;, &quot;MS PGothic&quot;" font-weight="normal" font-size="40" text-anchor="start"><text transform="translate(334.51373,116.50844) rotate(-180) scale(0.03846,-0.03846)" font-size="40" xml:space="preserve" fill="#000000" fill-rule="nonzero" stroke="none" stroke-width="1" stroke-linecap="butt" stroke-linejoin="miter" stroke-miterlimit="10" stroke-dasharray="" stroke-dashoffset="0" font-family="&quot;ヒラギノ角ゴ Pro W3&quot;, &quot;Hiragino Kaku Gothic Pro&quot;, Osaka, &quot;メイリオ&quot;, Meiryo, &quot;ＭＳ Ｐゴシック&quot;, &quot;MS PGothic&quot;" font-weight="normal" text-anchor="start" style="mix-blend-mode: normal"><tspan x="0" dy="0">The Black Mesa</tspan><tspan x="0" dy="46.150000000000006px">Pivovar13</tspan></text><text transform="translate(328.10348,117.46773) rotate(-180) scale(0.01021,-0.01021)" font-size="40" xml:space="preserve" fill="#000000" fill-rule="nonzero" stroke="none" stroke-width="1" stroke-linecap="butt" stroke-linejoin="miter" stroke-miterlimit="10" stroke-dasharray="" stroke-dashoffset="0" font-family="&quot;ヒラギノ角ゴ Pro W3&quot;, &quot;Hiragino Kaku Gothic Pro&quot;, Osaka, &quot;メイリオ&quot;, Meiryo, &quot;ＭＳ Ｐゴシック&quot;, &quot;MS PGothic&quot;" font-weight="normal" text-anchor="start" style="mix-blend-mode: normal"><tspan x="0" dy="0">TM</tspan></text></g><path d="M310.7057,179.12697c0.82764,1.64209 1.35797,3.73612 0.54385,4.91643c-0.88259,1.27956 -5.32217,2.47276 -6.693,2.89992c-1.30491,0.40662 -2.53833,1.02784 -3.81562,1.51298c0.01698,-0.11001 0.12713,-0.2559 0.14375,-0.36594c-1.64032,1.17741 -3.74568,1.90461 -5.91891,1.90461c-1.65447,0 -3.21676,-0.40755 -4.5913,-1.11887c-1.04778,-0.54223 -1.98834,-1.26985 -2.779,-2.13094c-3.07119,-4.73644 -0.82259,-9.72771 -0.7935,-15.45667c0,0 0.00109,-1.18135 -0.80895,-1.92001c0.02869,-0.73102 0.08235,-1.48575 0.16509,-2.28344c0.74031,-7.13686 1.94446,-14.13905 2.42333,-21.30376c0.20301,-3.03736 -0.00693,-5.88981 1.06557,-8.63055c1.3396,-0.90887 2.5709,-2.11158 3.14344,-2.99594c0.85288,-0.45002 1.73177,-0.82332 2.45902,-1.14755c1.54017,-0.68667 3.08167,-1.40892 4.69873,-1.88723l1.40102,-0.65876c0,0 1.00298,-0.50103 1.33032,-1.50261c3.77026,-0.24964 1.49484,3.65656 4.11884,6.1106c1.22906,1.14945 4.15363,1.86613 6.98333,2.11377c0.77067,0.03397 1.54437,0.06671 2.31639,0.09705c1.35911,-0.00904 2.56705,-0.14451 3.37513,-0.41231c1.88892,-0.62599 4.95012,-3.25773 5.66095,-5.13016c0.36164,-0.95262 -0.07262,-1.94189 -0.16432,-2.95671c-0.00172,-0.01901 0.01874,-0.13574 0.01418,-0.15579c0.38338,0.21216 0.70669,0.28679 0.70669,0.28679c3.22048,0.7154 7.22768,1.96818 9.59101,4.43944c0.35018,1.56589 1.15058,3.25921 1.5568,4.98378c0.03776,7.34397 0.66264,14.683 0.78845,22.03806l-0.02849,0.0813c0,0 -0.11442,0.57763 0.04645,1.2275c0.0031,0.35389 0.0057,0.70877 0.00614,1.0628c-0.42777,0.36749 -0.7652,0.95003 -0.7652,1.86977c0,2.5 2.50304,2.50442 2.50304,2.50442c0.32864,-0.00014 7.03622,-0.02045 7.52867,0.06252c0.95612,0.16108 0.17526,1.9373 0.34863,2.89127c0.61808,3.40103 1.94844,6.4273 1.34746,10.06419c-0.83545,5.05573 -6.99503,4.20713 -10.74585,4.01183c-0.90406,-0.04707 -3.55162,-0.20556 -4.47174,-0.88341c-0.84872,-0.62526 -2.79802,-3.95013 -3.14144,-4.49621c-1.12322,-1.13337 -2.69397,-1.96264 -3.32523,-3.42814c-0.85276,-1.97972 -0.11994,-5.64385 -0.48943,-7.76775c-1.22801,-7.05885 -0.40003,-14.35182 -1.29662,-21.5246l0.01967,-1.02312c0,0 0.00353,-2.49891 -2.49647,-2.49891c-2.5,0 -2.49787,2.50052 -2.49787,2.50052l0.04156,1.54593c0.90821,7.26563 0.08592,14.64189 1.36909,21.8054c0.50073,2.7954 -0.28243,6.25455 0.84932,8.90209c0.55779,1.30486 2.94516,3.5252 4.01054,4.57982c1.10427,1.77852 2.44463,4.28202 4.1899,5.5079c0.77974,0.54769 1.69367,0.88084 2.62099,1.14502c0.04954,0.50826 0.10607,1.02097 0.16982,1.53143c0.03467,0.00421 0.06934,0.00842 0.104,0.01269c-0.08498,0.40353 -0.0556,0.79217 -0.00359,1.08351c-1.15692,0.43151 -0.95871,2.15467 -1.10839,3.54624l-0.01481,0.01234c-0.6227,0.17736 -1.14625,0.59007 -1.46834,1.13584c-0.12325,0.19192 -0.23846,0.41903 -0.3139,0.67456c-4.45992,0.00519 -8.91832,0.11612 -13.36854,0.34425c-4.74908,0.24346 -9.55694,0.47871 -14.34464,0.68252c-0.59058,-0.26585 -1.15171,-0.26585 -1.15171,-0.26585c-0.616,0 -1.28117,0 -1.97371,0c0.07322,-1.03625 0.10835,-2.06102 0.11269,-3.04092c0,0 -0.00054,-0.12071 -0.02686,-0.30823c0.22834,-0.04142 0.5331,-0.1548 0.7627,-0.20992c1.06423,-0.25549 1.93111,-1.04309 2.95694,-1.42458c3.72176,-1.38405 9.42879,-2.00556 11.85715,-5.70141c1.95922,-2.98184 0.67647,-8.27013 -1.01693,-10.9286c-2.36496,-3.71273 -5.46916,-3.6786 -8.71326,-5.21461c-0.26346,-0.33228 -0.59782,-0.54503 -0.91939,-0.68031c-0.53189,-1.27049 -1.09667,-2.6798 -1.54838,-4.01131c0.3329,-4.76454 0.31627,-9.5543 -0.04801,-14.33247l0.00797,-1.80841c0,0 0.02548,-2.40333 -2.47452,-2.40333l-0.00001,-0.00004c-1.21966,0 -1.84127,0.59404 -2.16117,1.20351c-1.36872,0.60877 -1.36609,2.28084 -1.36609,2.28084c0,3.70951 -0.59414,8.03444 0.03189,11.67598c0.2433,1.41526 0.61983,2.84376 1.07128,4.2627c-0.08077,0.92645 -0.17691,1.84504 -0.2975,2.75953c0.07626,0.04131 0.15167,0.08376 0.22658,0.12703c-0.114,0.78924 0.18545,1.48248 0.18545,1.48248c0.51003,1.03877 0.64541,2.22321 1.45741,3.04772c1.7786,1.80601 6.1385,3.03298 8.51111,3.6453l0.17099,0.67619c0,0 0.95493,0.93523 2.14936,0.75901z" data-paper-data="{&quot;noHover&quot;:false,&quot;origItem&quot;:[&quot;Path&quot;,{&quot;applyMatrix&quot;:true,&quot;segments&quot;:[[306.41181,186.16279],[[306.2399,185.48704],[0,0],[-2.37261,-0.61232]],[[297.74514,181.82945],[1.7786,1.80601],[-0.812,-0.82451]],[[296.21504,178.71315],[0.51003,1.03877],[0,0]],[[296.03127,177.22909],[-0.114,0.78924],[-0.07491,-0.04327]],[[295.80453,177.1022],[0.07626,0.04131],[0.12059,-0.91449]],[[296.10568,174.33966],[-0.08077,0.92645],[-0.45145,-1.41894]],[[295.03707,170.0751],[0.2433,1.41526],[-0.62603,-3.64154]],[[295.0129,158.39501],[0,3.70951],[0,0]],[[296.38162,156.11314],[-1.36872,0.60877],[0.3199,-0.60947]],[[298.54581,154.90865],[-1.21966,0],[0,0]],[[298.54582,154.90869],[0,0],[2.5,0]],[301.04582,157.40869],[[301.03846,159.21695],[0,0],[0.36428,4.77817]],[[301.09458,173.54662],[0.3329,-4.76454],[0.45171,1.33151]],[[302.60175,177.46682],[-0.53189,-1.27049],[0.32157,0.13528]],[[303.52283,178.14639],[-0.26346,-0.33228],[3.2441,1.53601]],[[312.27184,183.35997],[-2.36496,-3.71273],[1.6934,2.65847]],[[313.31516,194.36141],[1.95922,-2.98184],[-2.42836,3.69585]],[[301.38028,200.07306],[3.72176,-1.38405],[-1.02583,0.38149]],[[298.42063,201.4948],[1.06423,-0.25549],[-0.2296,0.05512]],[[297.73371,201.63949],[0.22834,-0.04142],[0.02632,0.18752]],[[297.76003,201.94709],[0,0],[-0.01306,2.94836]],[[296.67523,211.09269],[0.76975,-2.85183],[-0.96081,3.55973]],[[291.14866,218.58509],[2.29386,-2.58125],[-2.90665,3.27083]],[[279.16048,224.9148],[4.47404,-0.75549],[-1.78398,0.30125]],[[273.73279,224.90197],[1.77029,-0.37339],[-0.87821,0.18523]],[[271.23279,225.90197],[0.88327,-0.15933],[-0.65328,0.11784]],[[269.26049,226.16622],[0.66112,-0.06186],[0.0316,3.29638]],[[270.74786,235.70074],[-0.32636,-3.26644],[0.25825,2.58472]],[[270.73586,243.60033],[-0.38702,-2.5595],[0.07097,0.46933]],[[271.14352,244.94708],[-0.19017,-0.43194],[3.2055,0]],[[280.76002,244.94708],[-3.2055,0],[1.79931,0]],[[287.2396,244.66481],[-1.70687,0.81991],[5.64696,-2.71254]],[[304.22149,234.97656],[-5.00294,3.88938],[3.3515,-2.60552]],[[312.58061,225.22226],[-2.55192,3.33305],[0.60898,-1.52246]],[[314.97776,220.92665],[-0.6839,1.49031],[0.63207,-1.37737]],[[315.80857,216.45678],[-0.29721,1.48605],[0,0]],[316.30857,213.95678],[[319.25031,211.99562],[-2.45145,-0.49029],[2.45145,0.49029]],[321.21147,214.93736],[[320.71147,217.43736],[0,0],[-0.12508,0.62541]],[[319.54228,222.96749],[0.14921,-0.34376],[-0.22218,0.51187]],[[318.75962,224.44666],[0.28885,-0.47942],[0,0]],[[318.76003,224.44709],[0,0],[5.15629,3.86722]],[[332.23054,238.40856],[-4.02117,-5.0366],[1.20319,1.50702]],[[335.43944,243.22228],[-0.93935,-1.68416],[0.46853,0.84004]],[[337.28075,246.9628],[-0.94593,-0.80103],[1.1026,0.93371]],[[340.26974,246.99564],[-1.25377,0.2801],[2.66579,-0.59556]],[[349.2705,242.71852],[-1.05004,2.81082],[-0.57493,-2.3365]],[[348.79231,235.84754],[0.43011,2.28062],[-0.56843,-3.01406]],[[345.58062,226.1719],[1.51683,2.70517],[-4.85361,-8.65609]],[[331.43884,199.37556],[3.73679,9.34199],[0,0]],[[331.30893,197.79459],[-0.1733,0.82296],[-0.03466,-0.00427]],[[331.20494,197.78187],[0.03467,0.00421],[-0.06375,-0.51046]],[[331.03439,196.25359],[0.04954,0.50826],[-0.92732,-0.26418]],[[328.41312,195.11012],[0.77974,0.54769],[-1.74527,-1.22588]],[[324.22314,189.61806],[1.10427,1.77852],[-1.06538,-1.05462]],[[320.21967,185.05717],[0.55779,1.30486],[-1.13175,-2.64754]],[[319.38568,176.17056],[0.50073,2.7954],[-1.28317,-7.16351]],[[318.03223,154.37177],[0.90821,7.26563],[0,0]],[318.01292,152.72835],[[320.51292,150.22835],[-2.5,0],[2.5,0]],[323.01292,152.72835],[[322.99362,153.7516],[0,0],[0.89659,7.17278]],[[324.30684,175.28615],[-1.22801,-7.05885],[0.36949,2.1239]],[[324.80618,183.06621],[-0.85276,-1.97972],[0.63126,1.4655]],[[328.13604,186.50531],[-1.12322,-1.13337],[0.34342,0.54608]],[[331.27939,191.01325],[-0.84872,-0.62526],[0.92012,0.67785]],[[335.65117,191.89885],[-0.90406,-0.04707],[3.75082,0.1953]],[[346.39731,187.89236],[-0.83545,5.05573],[0.60098,-3.63689]],[[345.05304,177.84108],[0.61808,3.40103],[-0.17337,-0.95397]],[[344.70584,174.95309],[0.95612,0.16108],[-0.49245,-0.08297]],[[337.17959,174.89502],[0.32864,-0.00014],[0,0]],[[334.67959,172.39502],[0,2.5],[0,-0.91974]],[[335.44572,170.52642],[-0.42777,0.36749],[-0.00044,-0.35403]],[[335.44035,169.46454],[0.0031,0.35389],[-0.16087,-0.64987]],[335.3948,168.23806],[[335.42333,168.1568],[0,0],[-0.12581,-7.35506]],[[334.64764,146.12884],[0.03776,7.34397],[-0.40622,-1.72457]],[[333.09384,141.14659],[0.35018,1.56589],[-2.36333,-2.47126]],[[323.51158,136.7103],[3.22048,0.7154],[0,0]],[[322.80553,136.42367],[0.38338,0.21216],[0.00456,0.02005]],[[322.81506,136.48231],[-0.00172,-0.01901],[0.0917,1.01482]],[[322.95488,139.53597],[0.36164,-0.95262],[-0.71083,1.87243]],[[317.29819,144.66705],[1.88892,-0.62599],[-0.80808,0.2678]],[[313.92649,145.07982],[1.35911,-0.00904],[-0.77202,-0.03034]],[[311.61255,144.98295],[0.77067,0.03397],[-2.8297,-0.24764]],[[304.63641,142.86902],[1.22906,1.14945],[-2.624,-2.45404]],[[300.5207,136.75802],[3.77026,-0.24964],[-0.32734,1.00158]],[299.19178,138.26039],[[297.79211,138.91888],[0,0],[-1.61706,0.47831]],[[293.09788,140.80491],[1.54017,-0.68667],[-0.72725,0.32423]],[[290.64124,141.95164],[0.85288,-0.45002],[-0.57254,0.88436]],[[287.50136,144.9461],[1.3396,-0.90887],[-1.0725,2.74074]],[[286.44034,153.57425],[0.20301,-3.03736],[-0.47887,7.16471]],[[284.03285,174.86306],[0.74031,-7.13686],[-0.08274,0.79769]],[[283.86955,177.14365],[0.02869,-0.73102],[0.81004,0.73866]],[[284.67959,179.06169],[0,0],[-0.02909,5.72896]],[[285.47851,194.48983],[-3.07119,-4.73644],[0.79066,0.86109]],[[288.2566,196.61524],[-1.04778,-0.54223],[1.37454,0.71132]],[[292.84625,197.72835],[-1.65447,0],[2.17323,0]],[[298.67111,195.8577],[-1.64032,1.17741],[-0.01662,0.11004]],[[298.6207,196.18777],[0.01698,-0.11001],[1.27729,-0.48514]],[[302.4363,194.67474],[-1.30491,0.40662],[1.37083,-0.42716]],[[309.044,191.76196],[-0.88259,1.27956],[0.81412,-1.18031]],[[308.54613,186.92646],[0.82764,1.64209],[-1.19443,0.17622]]],&quot;closed&quot;:true,&quot;fillColor&quot;:[0,0,0,1]}]}" fill="#7b8a52" stroke="none" stroke-width="0.5" stroke-linecap="butt"/><path d="M335.88176,186.51651l0.32079,0.39544c0.23592,0.77384 0.73323,1.39928 1.0058,2.21859c0.09826,0.39444 0.19515,0.79021 0.2907,1.18719c-1.60305,-0.34794 -3.95456,-0.6514 -5.86934,-0.80847c1.01646,-0.78643 2.87612,-1.98399 2.79852,-3.23918c0,0 0,-0.5 0.5,-0.5c0.5,0 0.5,0.5 0.5,0.5c-0.00118,0.03347 -0.00293,0.0667 -0.00522,0.09971c0.25384,-0.0582 0.45876,0.14673 0.45876,0.14673z" data-paper-data="{&quot;index&quot;:null}" fill="#363c1a" stroke="none" stroke-width="0.5" stroke-linecap="butt"/><path d="M306.6296,189.63378c0.00089,2.4228 0.83126,5.17883 0.7912,7.70208c-1.50671,0.06957 -3.01389,0.13675 -4.51907,0.20082c-0.59058,-0.26585 -1.15172,-0.26585 -1.15172,-0.26585c-1.28119,0 -2.77512,0 -4.28554,0c-0.07068,-1.48301 0.16528,-2.96586 0.30726,-4.50317c0.41719,-4.51717 9.30164,-5.36327 8.85787,-3.13388z" data-paper-data="{&quot;index&quot;:null}" fill="#3b4208" stroke="none" stroke-width="0.5" stroke-linecap="butt"/><path d="M321.30062,150.70484c0.01744,-0.00145 0.02761,-0.00145 0.02761,-0.00145l0.00892,0.00157c0.04549,0.00148 0.11026,0.00839 0.17796,0.03131l0.29047,0.0511c2.58679,1.73636 1.4292,7.85769 1.72066,10.77124c0.40729,4.08666 3.32581,14.34479 -3.59801,14.34479c-0.95947,-0.04615 -1.12354,-0.37491 -1.87689,-0.9119c-1.35014,-0.96239 -2.54152,-1.77798 -3.00166,-3.44321c-0.92653,-3.35307 1.47126,-6.24471 -1.30813,-9.0279c-3.57359,-5.32389 2.30021,-11.23269 7.53146,-11.81394c0,0 0.01011,-0.00113 0.0276,-0.00161z" data-paper-data="{&quot;index&quot;:null}" fill="#40770e" stroke="none" stroke-width="0.5" stroke-linecap="butt"/><path d="M305.05541,140.67616c5.23061,0.03127 7.16633,4.96235 7.16667,9.5c0.00012,1.73221 0.44218,3.67848 -0.78,4.98366c-1.9994,3.00729 -7.62085,7.13103 -11.6226,4.79051c-1.85804,-1.08672 -2.60447,-3.40809 -3.03627,-5.35526c-0.72032,-3.30387 -0.91488,-9.61746 1.91518,-12.10229c1.46305,-1.28459 3.96753,-1.46112 5.87832,-1.48102c0.0954,-0.3356 0.4787,-0.3356 0.4787,-0.3356z" data-paper-data="{&quot;index&quot;:null}" fill="#629200" stroke="none" stroke-width="0.5" stroke-linecap="butt"/><path d="M329.6344,196.94016c-0.50269,-2.57748 -0.05106,-5.86651 -0.05106,-8.50266c0,0 0,-0.8071 0.45858,-1.50412c-1.48698,-1.31497 -2.66409,-3.474 -3.65212,-5.06531c-1.06538,-1.05462 -3.44568,-3.25603 -4.00347,-4.56089c-1.13175,-2.64754 -0.33326,-6.09121 -0.83399,-8.88661c-1.28317,-7.16351 -0.44524,-14.53316 -1.35345,-21.79879l-0.01931,-1.64342c0,0 0,-2.5 2.5,-2.5c2.5,0 2.5,2.5 2.5,2.5l-0.0193,1.02325c0.89659,7.17278 0.08521,14.4757 1.31322,21.53455c0.36949,2.1239 -0.35342,5.80034 0.49934,7.78006c0.63126,1.4655 2.20664,2.30573 3.32986,3.4391c0.34342,0.54608 2.29463,3.88268 3.14335,4.50794c0.92012,0.67785 3.46772,0.83853 4.37178,0.8856c3.75082,0.1953 9.91069,1.04924 10.74614,-4.00649c0.60098,-3.63689 -0.72619,-6.65025 -1.34427,-10.05128c-0.17337,-0.95397 0.60892,-2.72691 -0.3472,-2.88799c-0.49245,-0.08297 -7.19761,-0.05821 -7.52625,-0.05807c0,0 -2.5,0 -2.5,-2.5c0,-0.91974 0.33836,-1.50111 0.76613,-1.8686c-0.00044,-0.35403 -0.00227,-0.70799 -0.00537,-1.06188c-0.16087,-0.64987 -0.04555,-1.22648 -0.04555,-1.22648l0.02853,-0.08126c-0.12581,-7.35506 -0.73793,-14.68399 -0.77569,-22.02796c-0.40622,-1.72457 -1.20362,-3.41636 -1.5538,-4.98225c-2.36333,-2.47126 -6.36178,-3.72089 -9.58226,-4.43629c0,0 -0.32267,-0.07447 -0.70605,-0.28663c0.00456,0.02005 0.00781,0.03963 0.00953,0.05864c0.0917,1.01482 0.50146,2.10104 0.13982,3.05366c-0.71083,1.87243 -3.76777,4.50509 -5.65669,5.13108c-0.80808,0.2678 -2.01259,0.40373 -3.3717,0.41277c-0.77202,-0.03034 -1.54327,-0.0629 -2.31394,-0.09687c-2.8297,-0.24764 -5.74708,-0.96448 -6.97614,-2.11393c-2.624,-2.45404 -0.34545,-6.36064 -4.11571,-6.111c-0.32734,1.00158 -1.32892,1.50237 -1.32892,1.50237l-1.39967,0.65849c-1.61706,0.47831 -3.15406,1.19936 -4.69423,1.88603c-0.72725,0.32423 -1.60376,0.69671 -2.45664,1.14673c-0.57254,0.88436 -1.80028,2.08559 -3.13988,2.99446c-1.0725,2.74074 -0.85801,5.59079 -1.06102,8.62815c-0.47887,7.16471 -1.66718,14.15195 -2.40749,21.28881c-0.08274,0.79769 -0.13461,1.54957 -0.1633,2.28059c0.81004,0.73866 0.81004,1.91804 0.81004,1.91804c-0.02909,5.72896 -2.27227,10.6917 0.79892,15.42814c0.79066,0.86109 1.73031,1.58318 2.77809,2.12541c1.37454,0.71132 2.93518,1.11311 4.58965,1.11311c2.17323,0 4.18454,-0.69324 5.82486,-1.87065c-0.01662,0.11004 -0.03343,0.22006 -0.05041,0.33007c1.27729,-0.48514 2.51069,-1.10641 3.8156,-1.51303c1.37083,-0.42716 5.72511,-1.63322 6.6077,-2.91278c0.81412,-1.18031 0.32977,-3.19341 -0.49787,-4.8355c-1.19443,0.17622 -2.13432,-0.76367 -2.13432,-0.76367l-0.17191,-0.67575c-2.37261,-0.61232 -6.71616,-1.85158 -8.49476,-3.65759c-0.812,-0.82451 -1.02007,-2.07753 -1.5301,-3.1163c0,0 -0.29777,-0.69482 -0.18377,-1.48406c-0.07491,-0.04327 -0.15048,-0.08558 -0.22674,-0.12689c0.12059,-0.91449 0.22038,-1.83609 0.30115,-2.76254c-0.45145,-1.41894 -0.82531,-2.8493 -1.06861,-4.26456c-0.62603,-3.64154 -0.02417,-7.97058 -0.02417,-11.68009c0,0 0,-1.6731 1.36872,-2.28187c0.3199,-0.60947 0.94453,-1.20449 2.16419,-1.20449l0.00001,0.00004c2.5,0 2.5,2.5 2.5,2.5l-0.00736,1.80826c0.36428,4.77817 0.38902,9.56513 0.05612,14.32967c0.45171,1.33151 0.97528,2.64971 1.50717,3.9202c0.32157,0.13528 0.65762,0.34729 0.92108,0.67957c3.2441,1.53601 6.38405,1.50085 8.74901,5.21358c1.6934,2.65847 3.00254,8.0196 1.04332,11.00144c-2.42836,3.69585 -8.21312,4.3276 -11.93488,5.71165c-1.02583,0.38149 -1.89542,1.16625 -2.95965,1.42174c-0.2296,0.05512 -0.45858,0.10327 -0.68692,0.14469c0.02632,0.18752 0.02632,0.3076 0.02632,0.3076c-0.00183,0.41255 -0.00931,0.83288 -0.02294,1.25855c0.34556,0.64466 0.34626,1.31249 0.34626,1.31518c-0.00025,0.16664 -0.00122,0.33331 -0.00293,0.5c-1.73243,0 -3.67558,0 -5.46697,0c0.09947,-1.03435 0.15203,-2.06662 0.1466,-3.07368c0,0 0,-0.15615 0.03903,-0.3904c-0.25006,-0.05127 -0.49887,-0.10907 -0.74636,-0.17302h-0.3878c-0.20488,2.17801 -2.48532,2.17801 -2.48532,2.17801l-0.00001,-0.00004l-1.57368,-0.32939c-4.39402,-2.58532 -7.81141,-6.43256 -8.7564,-11.53281c-0.09376,-0.16246 -0.18113,-0.30236 -0.26021,-0.40883c0.04735,-0.10686 0.09517,-0.21351 0.14333,-0.3199c-0.01219,-0.08972 -0.02362,-0.17981 -0.0343,-0.27027c-0.07732,-0.6551 -0.10223,-1.30249 -0.08994,-1.94443c-0.1606,-0.89126 -0.24526,-1.87081 -0.26213,-3.02769v-2c0,0 0,-0.69514 0.36656,-1.35231c-0.19214,-1.86703 -0.13653,-3.74634 -0.0615,-4.9329c0.22387,-3.54045 0.91075,-6.99482 1.51033,-10.4638c-0.26731,-0.17368 -0.42437,-0.33074 -0.42437,-0.33074l-1.6638,-2.40855c-1.13017,-9.06133 -0.79818,-17.77408 0.4668,-26.65267c-0.09804,-2.08974 -0.36565,-4.09185 0.18527,-5.78475c0.03023,-0.0929 0.06293,-0.18486 0.09825,-0.27586c-0.00001,-0.00081 -0.00003,-0.00163 -0.00004,-0.00245l-0.00001,0.00002c-0.10588,-6.31595 4.39974,-8.60447 9.71697,-9.12768c-0.91044,-1.99366 -1.71839,-4.03535 -2.36154,-6.15395c0,0 -0.05388,-0.17959 -0.08294,-0.45517c-2.19501,0.0049 -5.46835,-0.07213 -6.04026,-0.74544c-3.52594,-4.15104 1.34503,-7.03226 3.22692,-9.71169c1.57868,-2.24772 3.20638,-4.56132 4.67127,-6.88173c1.05734,-1.67485 1.96149,-4.17176 3.73871,-5.25838c4.69246,-2.86906 12.42849,-2.41597 17.63087,-2.41597c6.38507,0 12.47016,-0.20547 18.74029,1.04855l1.00971,-0.04855c0,0 2.5,0 2.5,2.5c0,0.74923 -0.22454,1.27392 -0.53904,1.64137c2.98154,3.86372 6.57761,8.16349 7.86296,12.43701c0.42277,1.4056 1.40748,3.02557 0.75177,4.33877c-1.16038,2.32394 -3.34637,3.0433 -5.56626,3.40022c-0.01453,0.03298 -0.02337,0.05066 -0.02337,0.05066c-1.22321,2.44641 -2.27654,4.88349 -3.25521,7.34584c2.61334,-0.57773 6.22157,-1.2331 8.33048,-0.32856c3.29398,1.41283 4.802,4.87335 4.86121,8.3389c0.39452,1.02122 0.36054,3.6206 0.35884,4.54174c-0.00334,1.80314 -0.01435,3.60634 -0.01404,5.40948c0.05987,1.51579 0.14495,3.02771 0.25915,4.54152c0.03807,0.15086 0.07833,0.30231 0.11906,0.45418c0.01551,-0.02458 0.0312,-0.04909 0.04708,-0.07351c0.07125,0.50647 0.16019,1.00918 0.26641,1.50251c-0.50489,1.81392 -0.48134,4.04379 -1.07541,5.40945c-0.94074,2.16261 -2.54075,3.12513 -3.61912,5.2974c0.00802,0.09268 0.00802,0.14705 0.00802,0.14705c0,1.7425 -0.01205,3.42753 0.0687,5.12276c0.4045,0.52012 0.89422,1.02683 1.37983,1.54001c-0.29716,0.28728 -0.69943,0.54586 -1.21964,0.62141c0.02547,0.2455 0.05375,0.49179 0.08514,0.73907l-0.23407,1.59266c0.0083,0.51433 0.01416,1.02878 0.0172,1.54335c2.51831,0.01691 5.48455,0.12568 6.54325,0.61601c4.14242,1.91854 2.408,3.44584 2.98613,6.44534c0.95252,4.94187 2.87151,10.14914 0.05217,15.00544c-0.63773,1.09849 -1.29397,2.25145 -2.27784,3.0548c-2.49029,2.03338 -7.46456,2.45394 -11.59089,2.13611c0.03302,0.27145 0.06818,0.54316 0.10525,0.81509c0.13803,0.33175 0.28031,0.65944 0.42632,0.98365c-0.25436,-0.12546 -0.53314,-0.20894 -0.82729,-0.24139l-2.63376,-0.32922l-0.04916,0.39331c-0.29483,-0.05002 -0.58832,-0.07305 -0.88,-0.05979c-0.11566,1.71168 -0.23374,3.51901 0.06802,4.97784c0.08234,0.39807 0.17771,0.79043 0.28154,1.17931c-1.7232,0.04998 -3.45479,-0.03635 -5.17409,-0.14665c-0.00179,-0.00911 -0.00358,-0.01822 -0.00536,-0.02734zM327.31769,88.63664c-5.26188,-0.79932 -10.4335,-0.61234 -15.82725,-0.61234c-4.2554,0 -10.94009,-0.59344 -14.86913,1.58403c-0.40033,0.22186 -2.2444,3.71489 -2.26129,3.74162c-1.63404,2.58612 -3.87358,7.14553 -6.53201,9.54307c1.58062,-0.11593 3.18904,0.05912 4.77571,0.13384c4.81126,0.22657 9.59221,1.01408 14.38671,0.99743c7.34688,0 15.0018,0.9002 22.30937,0.25728c2.1381,-0.18811 4.25558,-0.56435 6.37977,-0.87213c0.49998,-0.07244 1.17824,0.09899 1.48516,-0.3023c0.20221,-0.26439 -0.56706,-0.38201 -0.74823,-0.66123c-0.44474,-0.68547 -0.69438,-1.48145 -1.10158,-2.18987c-2.31081,-4.02026 -5.32247,-7.81458 -7.99723,-11.6194zM321.72292,123.78754c0.83666,-0.70409 2.05343,-0.53275 3.21515,-0.48818l0.20285,-0.87942c1.66508,-4.57387 3.2423,-8.96855 5.22292,-13.34068c-7.70528,0.73591 -15.65482,-0.05496 -23.37343,-0.05496c-4.52388,-0.01377 -8.99875,-0.64136 -13.51983,-0.89515c1.86065,5.64789 5.01055,10.73408 7.90575,15.89515h1.11408c3.45993,0.16356 4.27692,-0.49478 6.66371,2.99766c0.85105,1.24528 -0.09326,3.39394 1.02362,4.40764c0.34702,0.31496 0.93359,0.08989 1.39637,0.16379c1.74507,0.27868 4.67219,1.04 6.44184,0.53817c4.16366,-1.18072 0.54938,-5.68676 3.70698,-8.34403zM285.5523,133.60527c1.19039,-1.8934 3.25803,-3.60631 4.88277,-3.99864c0.00975,-0.01444 0.01945,-0.02888 0.0291,-0.04334c0.01178,0.00952 0.0235,0.019 0.03516,0.02846c0.0424,-0.00939 0.08447,-0.01786 0.12621,-0.02538c2.13297,-1.2123 4.52081,-2.10599 6.57199,-2.7716c-1.3486,-2.42669 -2.7418,-4.83358 -4.05362,-7.27904c-0.09661,0.00858 -0.15349,0.00858 -0.15349,0.00858c-2.07424,-0.03702 -4.78672,0.25388 -6.62757,1.40203c-0.73662,0.45944 -0.40013,2.25909 -0.37374,2.775c-0.02179,0.02221 -0.04235,0.04502 -0.06175,0.06824c-0.03928,0.92993 -0.32117,2.03642 -0.34616,2.46805c-0.06857,1.18423 0.41388,4.69239 -0.0289,7.36764zM340.32888,132.81712c0.1433,0.71451 0.72161,2.33877 1.19317,4.14225c-0.00012,-0.00912 -0.00021,-0.01819 -0.00027,-0.0272c-0.0107,-1.5357 0.00053,-3.07151 0.00732,-4.60728c-0.06582,-0.34739 -0.12885,-0.69656 -0.18758,-1.04835c-0.04438,-0.2658 0.02327,-1.10232 0.08557,-1.89425c0.03429,-0.09704 0.05694,-0.19959 0.06627,-0.30595l0.03135,-0.31346c-0.00089,-0.08702 -0.00187,-0.17403 -0.00293,-0.26105c-0.01548,-1.27017 -0.16491,-2.21627 -0.17991,-2.99945c-0.13195,-0.15565 -0.30132,-0.27859 -0.49422,-0.35491c0.10168,-0.69866 0.09025,-1.47815 -0.06289,-2.4044c-0.16697,-1.00991 0.3052,-2.30936 -1.10568,-2.60409c-2.13385,-0.44576 -5.10345,0.34321 -7.12651,0.82129l-0.00001,0.00002c0,0 -0.75806,0.17494 -1.52601,-0.09325c-0.39474,1.07729 -0.78779,2.16359 -1.18665,3.26163l-0.15371,0.72827c2.74669,0.81814 5.75435,1.98471 7.86666,3.56741c0.97914,0.03848 1.81362,0.6401 2.18854,1.48998c0.11012,0.24962 0.1806,0.52066 0.20345,0.80513c0.17701,0.8338 0.34121,1.88415 0.38404,2.09768zM342.09307,142.07844c-0.04516,0.25842 -0.11036,0.5 -0.19863,0.72065c0.0698,2.29632 0.17594,4.59228 0.28535,6.8889c0.04782,0.0916 0.08876,0.18348 0.12384,0.27368c0.36923,-0.7066 0.74156,-1.41174 1.1067,-2.12446c-1.06594,-0.70059 -1.06594,-2.11683 -1.06594,-2.11683l0.01931,-1.27469c-0.0986,-0.79093 -0.18866,-1.57978 -0.27063,-2.36725zM342.14951,140.38161c0.01059,0.14752 0.01797,0.29304 0.02182,0.43612c0.03425,-0.01974 0.06649,-0.04091 0.09684,-0.06327c-0.04108,-0.12374 -0.08065,-0.24818 -0.11866,-0.37285z" fill="#000000" stroke="none" stroke-width="0.5" stroke-linecap="butt"/><path d="M293.29855,194.11388l0.27475,-1.34305c1.71255,0 3.4251,0 5.13765,0c-1.40664,11.45754 -5.20847,22.7496 -5.19028,34.32661c0.00548,3.4865 0,6.97307 0,10.45958l0.00002,-0.00001c0,1.04712 -0.42534,2.32347 -0.29434,3.03085c0.35756,0.12135 0.63328,0.31065 0.84589,0.53044c6.45959,-0.09132 12.70502,0.35121 19.02229,1.03637c-0.27766,-1.84833 -0.16709,-3.81847 -0.16816,-5.54853c-0.00538,-8.66348 0,-17.32699 0,-25.99047c0.00113,-2.56435 -0.14643,-5.12761 -0.30702,-7.68693l-0.29456,-1.73796c0,0 -0.40077,-2.46767 2.0669,-2.86844c2.46767,-0.40077 2.86844,2.0669 2.86844,2.0669l0.34949,2.22762c0.16581,2.66321 0.31565,5.33046 0.31676,7.99882c0,7.71262 0,15.42524 0,23.13786c0,1.96131 -0.07102,3.92377 -0.00383,5.88393c0.03297,0.96183 -0.27943,2.34362 0.25135,3.04088c0.29855,0.03257 0.86172,0.13899 1.35461,0.48671c0.92494,-0.03342 1.92922,-0.50107 2.87091,-0.50107c4.82909,0 9.65009,0.11173 14.46802,-0.27988c0.95924,-0.07797 2.03311,0.16399 2.87048,-0.31039c0.33263,-0.18844 -0.33609,-0.68678 -0.50413,-1.03017c0.09084,-10.81561 -4.36635,-21.67947 -6.30211,-32.21789c-0.67843,-3.69342 -1.50901,-7.5104 -1.99839,-11.28322c-0.22885,-0.41854 -0.30141,-0.78132 -0.30141,-0.78132l-0.36258,-1.84687c-0.10207,-0.82859 -0.27829,-1.6069 -0.48822,-2.36201c1.90249,0.08358 3.8107,0.10176 5.70472,-0.04836c0.05778,0.78936 0.11415,1.5921 0.18467,2.41534c0.3714,4.33614 1.419,8.77677 2.18716,13.04908c1.96366,10.92134 6.30232,21.87336 6.37617,33.07525c-0.07338,0.58819 0.00766,1.2537 0.04083,1.89524c3.73544,0.47064 7.74968,1.34669 9.77729,4.79694c1.50865,2.56718 1.37025,6.52521 1.15465,10.07582c0.11984,0.42011 0.11984,0.75 0.11984,0.75l-0.00001,0.00001c0,3.38843 0.86097,7.14502 -2.88197,9.23607c-2.09199,1.16872 -6.27668,-0.24206 -8.61803,-0.23607c-5.52492,0.01414 -11.05003,0.00542 -16.57504,0.00155c-4.62291,-0.54698 -9.31246,0.49117 -13.95924,-0.06078c-5.51431,-0.655 -12.0803,-0.77063 -17.9077,-0.66744c-0.47967,-0.11791 -0.95315,-0.2577 -1.41792,-0.42587c-1.96544,-0.71114 -5.05139,-1.80617 -5.97546,-3.95521c-0.77711,-1.80727 0.34598,-3.92502 0.33536,-5.89225c0,0 0,-0.68321 0.35715,-1.33531c0.30881,-3.49197 0.95893,-6.90576 1.08393,-10.47291c-0.30565,-0.18616 -0.57885,-0.41242 -0.80161,-0.70103c-0.81153,-1.05144 -0.35437,-2.63455 -0.44519,-3.95964c-0.19995,-2.91729 0,-5.95363 0,-8.87479c0,-8.84611 1.20994,-17.79965 2.90499,-26.49954c0.25253,-1.29612 0.51402,-2.58692 0.77117,-3.87553h-1.05811c-0.39999,-0.00206 -0.80067,-0.01045 -1.20144,-0.0259c0.86036,-1.43484 1.48571,-3.12051 2.00444,-4.9741h0.53035c0,0 0.28187,0 0.65632,0.09465c0.05328,-0.3054 0.10537,-0.6109 0.15609,-0.91655c-0.06571,-0.50815 0.01407,-0.90703 0.01407,-0.90703zM293.31423,259.30791c-0.08038,0.49676 -0.72738,0.86378 -0.65247,1.3614c0.04538,0.30146 0.60131,0.1133 0.88945,0.21284c2.81426,0.97215 4.56889,1.41888 7.52153,1.69158c2.67863,0.24739 5.27177,1.25198 7.95986,1.49635c3.19869,0.2908 6.57981,-0.00852 9.7938,-0.00852c0.52673,0 1.06044,0.12028 1.59136,0.23374c0.38279,-1.47501 1.85763,-1.69513 2.2893,-1.72798c-0.19633,-1.42345 -0.64184,-3.25945 -0.79438,-3.88002c-0.12412,0.00115 -0.24825,0.00228 -0.37238,0.00339c-0.15731,-0.39277 -0.30556,-0.78687 -0.35373,-1.17223c-0.22899,-1.83192 0.4514,-7.05909 -2.12387,-7.89968c-1.17059,-0.38209 -2.44861,-0.26341 -3.67292,-0.39511c0,0 -1.91279,-0.27326 -2.13493,-2.02091c-6.18561,-0.66682 -12.2778,-1.02907 -18.5594,-1.14079c-0.26041,3.67646 -0.98773,7.2439 -1.14501,10.88909c-0.07308,-0.01057 -0.14619,-0.021 -0.21934,-0.03127c0.02239,0.79835 0.1103,1.60212 -0.01688,2.38812zM343.8264,262.56156c1.68133,0.0039 4.85649,1.09811 6.38196,0.76393c0.73816,-0.1617 0.14105,-1.50861 0.11804,-2.26393c-0.02539,-0.83294 0,-1.66667 0,-2.5c0,0 0,-0.02193 0.00205,-0.06169c-0.10708,-0.00138 -0.21418,-0.00272 -0.32126,-0.00401c-0.00146,-1.38007 -0.00192,-2.76013 0.00316,-4.14013c0.00293,-0.79384 0.20116,-3.19877 -0.30941,-4.15652c-1.24639,-2.33805 -6.09033,-2.31422 -8.2432,-2.55052c0,0 -0.96843,-0.1076 -1.62892,-0.79304c-0.70708,0.16153 -1.42184,0.29606 -2.10345,0.4543c-4.11042,0.95424 -9.0438,0.51153 -13.44941,0.38427c1.2227,1.95627 1.4568,4.4854 1.65224,6.87336c0.89819,0.73052 0.89819,1.99397 0.89819,1.99397l-0.03402,1.089c0.27191,1.63142 0.74617,3.30142 0.90949,4.90929c5.37484,-0.00362 10.74975,-0.01076 16.12452,0.00171z" fill="#000000" stroke="none" stroke-width="0.5" stroke-linecap="butt"/><path d="M343.85899,262.59945c-5.37477,-0.01247 -10.822,-0.01286 -16.19684,-0.00924c-0.16332,-1.60787 -0.64651,-3.29668 -0.91842,-4.9281l0.03312,-1.09384c0,0 -0.0004,-1.27259 -0.89859,-2.00311c-0.19544,-2.38796 -0.42313,-4.93927 -1.64583,-6.89554c4.40561,0.12726 9.38444,0.5446 13.49486,-0.40964c0.68161,-0.15824 1.40841,-0.29082 2.11549,-0.45235c0.66049,0.68544 1.6387,0.79705 1.6387,0.79705c2.15287,0.2363 7.01948,0.23786 8.26587,2.57591c0.51057,0.95775 0.31584,3.37825 0.31291,4.17209c-0.00508,1.38 -0.00623,2.77605 -0.00477,4.15612c0.10708,0.00129 0.21426,0.00234 0.32134,0.00372c-0.00205,0.03976 -0.00211,0.06191 -0.00211,0.06191c0,0.83333 -0.02828,1.67509 -0.00289,2.50803c0.02301,0.75532 0.61678,2.10833 -0.12138,2.27003c-1.52547,0.33418 -4.7101,-0.74913 -6.39143,-0.75303z" data-paper-data="{&quot;noHover&quot;:false,&quot;origItem&quot;:[&quot;Path&quot;,{&quot;applyMatrix&quot;:true,&quot;segments&quot;:[[[686.65281,520.62312],[0,0],[3.36266,0.0078]],[[699.41673,522.15098],[-3.05094,0.66836],[1.47632,-0.3234]],[[699.65281,517.62312],[0.04602,1.51064],[-0.05078,-1.66588]],[[699.65281,512.62312],[0,1.66666],[0,0]],[[699.65691,512.49974],[-0.0041,0.07952],[-0.21416,-0.00276]],[[699.01439,512.49172],[0.21416,0.00258],[-0.00292,-2.76014]],[[699.02071,504.21146],[-0.01016,2.76],[0.00586,-1.58768]],[[698.40189,495.89842],[1.02114,1.9155],[-2.49278,-4.6761]],[[681.91549,490.79738],[4.30574,0.4726],[0,0]],[[678.65765,489.2113],[1.32098,1.37088],[-1.41416,0.32306]],[[674.45075,490.1199],[1.36322,-0.31648],[-8.22084,1.90848]],[[647.55193,490.88844],[8.81122,0.25452],[2.4454,3.91254]],[[650.85641,504.63516],[-0.39088,-4.77592],[1.79638,1.46104]],[652.65279,508.6231],[[652.58475,510.8011],[0,0],[0.54382,3.26284]],[[654.40373,520.61968],[-0.32664,-3.21574],[10.74968,-0.00724]],[[686.65277,520.6231],[-10.74954,-0.02494],[0,0]]],&quot;closed&quot;:true,&quot;fillColor&quot;:[0,0,0,1]}]}" fill="#1b130b" stroke="none" stroke-width="0.5" stroke-linecap="butt"/><path d="M293.26617,259.32172c0.12718,-0.786 0.03769,-1.59756 0.0153,-2.39591c0.07315,0.01027 0.14628,0.0209 0.21936,0.03147c0.15728,-3.64519 0.89329,-7.24758 1.1537,-10.92404c6.2816,0.11172 12.44335,0.46171 18.62896,1.12853c0.22214,1.74765 2.14586,2.03133 2.14586,2.03133c1.22431,0.1317 2.50769,0.02164 3.67828,0.40373c2.57527,0.84059 1.89922,6.09824 2.12821,7.93016c0.04817,0.38536 0.19562,0.78321 0.35293,1.17598c0.12413,-0.00111 0.24834,-0.00255 0.37246,-0.0037c0.15254,0.62057 0.59437,2.46666 0.7907,3.89011c-0.43167,0.03285 -1.91072,0.26001 -2.29351,1.73502c-0.53092,-0.11346 -1.06619,-0.23168 -1.59292,-0.23168c-3.21399,0 -6.6267,0.31759 -9.82539,0.02679c-2.68809,-0.24437 -5.32206,-1.26111 -8.00069,-1.5085c-2.95264,-0.2727 -4.72032,-0.738 -7.53458,-1.71015c-0.28814,-0.09954 -0.84467,0.08707 -0.89005,-0.21439c-0.07491,-0.49762 0.571,-0.868 0.65138,-1.36476z" data-paper-data="{&quot;noHover&quot;:false,&quot;origItem&quot;:[&quot;Path&quot;,{&quot;applyMatrix&quot;:true,&quot;segments&quot;:[[[585.62847,514.11582],[0,0],[-0.16076,0.99352]],[[584.32353,516.83862],[-0.14982,-0.99524],[0.09076,0.60292]],[[586.10243,517.2643],[-0.57628,-0.19908],[5.62852,1.9443]],[[601.14549,520.64746],[-5.90528,-0.5454],[5.35726,0.49478]],[[617.06521,523.64016],[-5.37618,-0.48874],[6.39738,0.5816]],[[636.65281,523.62312],[-6.42798,0],[1.05346,0]],[[639.83553,524.0906],[-1.06184,-0.22692],[0.76558,-2.95002]],[[644.41413,520.63464],[-0.86334,0.0657],[-0.39266,-2.8469]],[[642.82537,512.8746],[0.30508,1.24114],[-0.24824,0.0023]],[[642.08061,512.88138],[0.24826,-0.00222],[-0.31462,-0.78554]],[[641.37315,510.53692],[0.09634,0.77072],[-0.45798,-3.66384]],[[637.12541,494.73756],[5.15054,1.68118],[-2.34118,-0.76418]],[[629.77957,493.94734],[2.44862,0.2634],[0,0]],[[625.50971,489.90552],[0.44428,3.4953],[-12.37122,-1.33364]],[[588.39091,487.62394],[12.5632,0.22344],[-0.52082,7.35292]],[[586.10089,509.40212],[0.31456,-7.29038],[-0.14616,-0.02114]],[[585.66221,509.33958],[0.1463,0.02054],[0.04478,1.5967]],[[585.62845,514.11582],[0.25436,-1.572],[0,0]]],&quot;closed&quot;:true,&quot;fillColor&quot;:[0,0,0,1]}]}" fill="#1b130b" stroke="none" stroke-width="0.5" stroke-linecap="butt"/><path d="M340.81536,132.49246c-0.04283,-0.21353 -0.21464,-1.25298 -0.39165,-2.08678c-0.02285,-0.28447 -0.09614,-0.54895 -0.20626,-0.79857c-0.37492,-0.84988 -1.21213,-1.43363 -2.19127,-1.47211c-2.11231,-1.5827 -5.02735,-2.72467 -7.77404,-3.54281l0.07117,-0.78451c0.39886,-1.09804 0.80604,-2.19706 1.20078,-3.27435c0.76795,0.26819 1.53297,0.08977 1.53297,0.08977l0.00001,-0.00002c2.02306,-0.47808 5.0334,-1.26566 7.16725,-0.8199c1.41088,0.29473 0.95027,1.60199 1.11724,2.6119c0.15314,0.92625 0.17326,1.71602 0.07158,2.41468c0.1929,0.07632 0.36446,0.20305 0.49641,0.3587c0.015,0.78318 0.17007,1.7525 0.18555,3.02267c0.00106,0.08702 0.00198,0.17623 0.00287,0.26325l-0.03155,0.31611c-0.00933,0.10636 -0.03231,0.21153 -0.0666,0.30857c-0.0623,0.79193 -0.13441,1.64271 -0.09003,1.90851c0.05873,0.35179 0.11876,0.70628 0.18458,1.05367c-0.00679,1.53577 -0.03129,3.08533 -0.02059,4.62103c0.00006,0.00901 -0.05713,-0.06389 -0.05701,-0.05477c-0.47156,-1.80348 -1.05809,-3.42055 -1.20139,-4.13506z" data-paper-data="{&quot;noHover&quot;:false,&quot;origItem&quot;:[&quot;Path&quot;,{&quot;applyMatrix&quot;:true,&quot;segments&quot;:[[[283.03655,137.62096],[0,0],[0.04283,-0.21353]],[[283.42059,135.52328],[-0.17701,0.8338],[0.02285,-0.28447]],[[283.62404,134.71815],[-0.11012,0.24962],[0.37492,-0.84988]],[[285.81258,133.22817],[-0.97914,0.03848],[2.11231,-1.5827]],[[293.67924,129.66076],[-2.74669,0.81814],[0,0]],[[293.52553,128.93249],[0,0],[-0.39886,-1.09804]],[[292.33888,125.67086],[0.39474,1.07729],[-0.76795,0.26819]],[290.81287,125.76411],[[290.81286,125.76409],[0,0],[-2.02306,-0.47808]],[[283.68635,124.9428],[2.13385,-0.44576],[-1.41088,0.29473]],[[282.58067,127.54689],[0.16697,-1.00991],[-0.15314,0.92625]],[[282.51778,129.95129],[-0.10168,-0.69866],[-0.1929,0.07632]],[[282.02356,130.3062],[0.13195,-0.15565],[-0.015,0.78318]],[[281.84365,133.30565],[0.01548,-1.27017],[-0.00106,0.08702]],[[281.84072,133.5667],[0.00089,-0.08702],[0,0]],[[281.87207,133.88016],[0,0],[0.00933,0.10636]],[[281.93834,134.18611],[-0.03429,-0.09704],[0.0623,0.79193]],[[282.02391,136.08036],[0.04438,-0.2658],[-0.05873,0.35179]],[[281.83633,137.12871],[0.06582,-0.34739],[0.00679,1.53577]],[[281.84365,141.73599],[0.0107,-1.5357],[-0.00006,0.00901]],[[281.84338,141.76319],[0.00012,-0.00912],[0.47156,-1.80348]],[[283.03655,137.62094],[-0.1433,0.71451],[0,0]]],&quot;closed&quot;:true,&quot;fillColor&quot;:[0,0,0,1]}],&quot;index&quot;:null}" fill="#385130" stroke="none" stroke-width="0.5" stroke-linecap="butt"/><path d="M286.04377,133.35295c0.44278,-2.67525 -0.05774,-6.22473 0.01083,-7.40896c0.02499,-0.43163 0.3123,-1.55814 0.35158,-2.48807c0.0194,-0.02322 0.0403,-0.04668 0.06209,-0.06889c-0.02639,-0.51591 -0.35195,-2.32947 0.38467,-2.78891c1.84085,-1.14815 4.59775,-1.45042 6.67199,-1.4134c0,0 0.05787,0.00024 0.15448,-0.00834c1.31182,2.44546 2.7428,4.90285 4.0914,7.32954c-2.05118,0.66561 -4.50107,1.6058 -6.63404,2.8181c-0.04174,0.00752 -0.08559,0.01551 -0.12799,0.0249c-0.01166,-0.00946 -0.02402,-0.01913 -0.0358,-0.02865c-0.00965,0.01446 -0.01958,0.02883 -0.02933,0.04327c-1.62474,0.39233 -3.70949,2.096 -4.89988,3.9894z" data-paper-data="{&quot;noHover&quot;:false,&quot;origItem&quot;:[&quot;Path&quot;,{&quot;applyMatrix&quot;:true,&quot;segments&quot;:[[[337.78423,131.04145],[0.06857,1.18423],[-0.02499,-0.43163]],[[337.43807,128.5734],[0.03928,0.92993],[-0.0194,-0.02322]],[[337.37632,128.50516],[0.02179,0.02221],[0.02639,-0.51591]],[[337.00258,125.73016],[0.73662,0.45944],[-1.84085,-1.14815]],[[330.37501,124.32813],[2.07424,-0.03702],[0,0]],[[330.22152,124.31955],[0.09661,0.00858],[-1.31182,2.44546]],[[326.1679,131.59859],[1.3486,-2.42669],[2.05118,0.66561]],[[332.73989,134.37019],[-2.13297,-1.2123],[0.04174,0.00752]],[[332.8661,134.39557],[-0.0424,-0.00939],[0.01166,-0.00946]],[[332.90126,134.36711],[-0.01178,0.00952],[0.00965,0.01446]],[[332.93036,134.41045],[-0.00975,-0.01444],[1.62474,0.39233]],[[337.81313,138.40909],[-1.19039,-1.8934],[-0.44278,-2.67525]]],&quot;closed&quot;:true,&quot;fillColor&quot;:[0,0,0,1]}],&quot;index&quot;:null}" fill="#385130" stroke="none" stroke-width="0.5" stroke-linecap="butt"/><path d="M327.88549,88.32298c2.67476,3.80482 5.69117,7.63066 8.00198,11.65092c0.4072,0.70842 0.65599,1.50829 1.10073,2.19376c0.18117,0.27922 0.95021,0.39769 0.748,0.66208c-0.30692,0.40129 -0.98558,0.23123 -1.48556,0.30367c-2.12419,0.30778 -4.24435,0.69084 -6.38245,0.87895c-7.30757,0.64292 -15.03649,-0.23811 -22.38337,-0.23811c-4.7945,0.01664 -9.59386,-0.79551 -14.40512,-1.02208c-1.58667,-0.07472 -3.19604,-0.2529 -4.77666,-0.13697c2.65843,-2.39755 4.89686,-6.97782 6.5309,-9.56394c0.01689,-0.02673 1.86419,-3.53115 2.26452,-3.75301c3.92904,-2.17747 10.6537,-1.61441 14.9091,-1.61441c5.39375,0 10.61605,-0.16019 15.87794,0.63913z" data-paper-data="{&quot;noHover&quot;:false,&quot;origItem&quot;:[&quot;Path&quot;,{&quot;applyMatrix&quot;:true,&quot;segments&quot;:[[[592.09546,186.88092],[0,0],[-5.34952,7.60966]],[[576.101,210.11974],[4.62162,-8.04052],[-0.8144,1.41684]],[[573.89784,214.49948],[0.88948,-1.37094],[-0.36234,0.55844]],[[572.40138,215.82194],[-0.40442,-0.52878],[0.61384,0.80258]],[[575.3717,216.42654],[-0.99996,-0.14488],[4.24838,0.61556]],[[588.13124,218.1708],[-4.2762,-0.37622],[14.61514,1.28584]],[[632.74998,217.65624],[-14.69376,0],[9.589,0.0333]],[[661.5234,215.66138],[-9.62252,0.45314],[3.17334,-0.14944]],[[671.07482,215.3937],[-3.16124,-0.23186],[-5.31686,-4.79508]],[[658.0108,196.30756],[3.26808,5.17224],[-0.03378,-0.05346]],[[653.48822,188.82432],[0.80066,0.44372],[-7.85808,-4.35494]],[[623.74996,185.65626],[8.5108,0],[-10.7875,0]],[[592.09542,186.88094],[10.52378,-1.59864],[0,0]]],&quot;closed&quot;:true,&quot;fillColor&quot;:[0,0,0,1]}],&quot;index&quot;:null}" fill="#385130" stroke="none" stroke-width="0.5" stroke-linecap="butt"/><path d="M325.51004,123.02003c-1.16172,-0.04457 -2.38016,-0.21033 -3.21682,0.49376c-3.1576,2.65728 0.43248,7.19071 -3.73118,8.37143c-1.76964,0.50184 -4.72105,-0.25403 -6.46612,-0.53271c-0.46278,-0.07391 -1.05551,0.15061 -1.40253,-0.16436c-1.11688,-1.0137 -0.18372,-3.16544 -1.03476,-4.41072c-2.38679,-3.49244 -3.23133,-2.8617 -6.69126,-3.02526l-1.11474,-0.00173c-2.8952,-5.16107 -6.0399,-10.29166 -7.90055,-15.93955c4.52108,0.25379 9.01762,0.86302 13.5415,0.87679c7.71861,0 15.73111,0.81079 23.43639,0.07488c-1.98062,4.37213 -3.55133,8.80087 -5.21641,13.37474l-0.20352,0.88272z" data-paper-data="{&quot;noHover&quot;:false,&quot;origItem&quot;:[&quot;Path&quot;,{&quot;applyMatrix&quot;:true,&quot;segments&quot;:[[[603.28497,257.18272],[-1.67332,-1.40818],[6.31519,5.31455]],[[610.69892,273.87079],[-8.32731,-2.36145],[3.53929,1.00367]],[[623.5826,272.79444],[-3.49013,0.55736],[0.92557,-0.14781]],[[626.37534,272.46685],[-0.69405,0.62993],[2.23376,-2.0274]],[[628.42258,263.65157],[-1.70209,2.49057],[4.77358,-6.98488]],[[641.75,257.65625],[-6.91986,0.32711],[0,0]],[[643.97816,257.65625],[0,0],[5.79041,-10.32215]],[[659.78966,225.86595],[-3.7213,11.29577],[-9.04216,0.50758]],[[632.75,227.65625],[9.04776,-0.02754],[-15.43723,0]],[[586.00313,227.76618],[15.41056,1.47182],[3.96123,8.74426]],[[596.44897,254.44753],[-3.33017,-9.14774],[0,0]],[[596.85468,256.20637],[0,0],[2.32343,-0.08913]]],&quot;closed&quot;:true}],&quot;index&quot;:null}" fill="#131313" stroke="none" stroke-width="0.5" stroke-linecap="butt"/><path d="M308.24985,119.87409h-4.38889l-2.33333,-4.5l2.22222,-4.33334h4.05556l2.44444,4.16667z" data-paper-data="{&quot;index&quot;:null}" fill="#9d0201" stroke="#323231" stroke-width="2" stroke-linecap="round"/><path d="M312.61095,125.6067h0.11111c2.00799,0 3.99231,0.11111 6,0.11111c0,0 0.25,0 0.25,0.25c0,0.25 -0.25,0.25 -0.25,0.25c-2.00778,0 -3.99202,-0.11111 -6,-0.11111h-0.11111c0,0 -0.25,0 -0.25,-0.25c0,-0.25 0.25,-0.25 0.25,-0.25z" data-paper-data="{&quot;index&quot;:null}" fill="#000000" stroke="none" stroke-width="0.5" stroke-linecap="butt"/><path d="M312.86523,127.39733l0.37234,-0.12071c1.71688,-0.01144 3.44822,-0.10993 5.15116,-0.11434c0,0 0.25,0 0.25,0.25c0,0.25 -0.25,0.25 -0.25,0.25c-1.67671,-0.00486 -3.37895,0.12139 -5.07106,0.10788l-0.29433,0.10151c0,0 -0.23718,0.07906 -0.31623,-0.15811c-0.07905,-0.23717 0.15812,-0.31623 0.15812,-0.31623z" data-paper-data="{&quot;index&quot;:null}" fill="#000000" stroke="none" stroke-width="0.5" stroke-linecap="butt"/><path d="M311.82912,129.1623l0.33687,-0.00546c1.98494,-0.09118 3.99733,-0.43624 6.00053,-0.43902c0,0 0.25,0 0.25,0.25c0,0.25 -0.25,0.25 -0.25,0.25c-1.99721,-0.00304 -4.00534,0.3446 -5.98478,0.43878l-0.34449,0.00563c0,0 -0.24996,0.00407 -0.25403,-0.2459c-0.00407,-0.24997 0.2459,-0.25403 0.2459,-0.25403z" data-paper-data="{&quot;index&quot;:null}" fill="#000000" stroke="none" stroke-width="0.5" stroke-linecap="butt"/><path d="M308.24985,119.87409h-4.38889l-2.33333,-4.5l2.22222,-4.33334h4.05556l2.44444,4.16667z" data-paper-data="{&quot;index&quot;:null}" fill="none" stroke="#1a1a1a" stroke-width="0.5" stroke-linecap="round"/><g data-paper-data="{&quot;index&quot;:null}" fill="#000000" stroke="none" stroke-width="1" stroke-linecap="butt" font-family="&quot;ヒラギノ角ゴ Pro W3&quot;, &quot;Hiragino Kaku Gothic Pro&quot;, Osaka, &quot;メイリオ&quot;, Meiryo, &quot;ＭＳ Ｐゴシック&quot;, &quot;MS PGothic&quot;" font-weight="normal" font-size="40" text-anchor="start"><text transform="translate(335.51374,100.50846) rotate(-180) scale(0.03846,-0.03846)" font-size="40" xml:space="preserve" fill="#000000" fill-rule="nonzero" stroke="none" stroke-width="1" stroke-linecap="butt" stroke-linejoin="miter" stroke-miterlimit="10" stroke-dasharray="" stroke-dashoffset="0" font-family="&quot;ヒラギノ角ゴ Pro W3&quot;, &quot;Hiragino Kaku Gothic Pro&quot;, Osaka, &quot;メイリオ&quot;, Meiryo, &quot;ＭＳ Ｐゴシック&quot;, &quot;MS PGothic&quot;" font-weight="normal" text-anchor="start" style="mix-blend-mode: normal"><tspan x="0" dy="0">The Black Mesa</tspan><tspan x="0" dy="46.150000000000006px">Pivovar13</tspan></text><text transform="translate(329.1035,101.46775) rotate(-180) scale(0.01021,-0.01021)" font-size="40" xml:space="preserve" fill="#000000" fill-rule="nonzero" stroke="none" stroke-width="1" stroke-linecap="butt" stroke-linejoin="miter" stroke-miterlimit="10" stroke-dasharray="" stroke-dashoffset="0" font-family="&quot;ヒラギノ角ゴ Pro W3&quot;, &quot;Hiragino Kaku Gothic Pro&quot;, Osaka, &quot;メイリオ&quot;, Meiryo, &quot;ＭＳ Ｐゴシック&quot;, &quot;MS PGothic&quot;" font-weight="normal" text-anchor="start" style="mix-blend-mode: normal"><tspan x="0" dy="0">TM</tspan></text></g><g data-paper-data="{&quot;index&quot;:null}"><path d="M320.40189,177.95143l9,-1.44445l2.55555,14.33334l-7.88889,2.44444z" fill="#121212" stroke="#000000" stroke-width="0" stroke-linecap="round"/><path d="M331.59378,181.36934c-2.33132,-1.13033 -1.55937,-5.03636 -2.36364,-4.54545c-0.90163,0.55034 0.63636,5.09091 0.63636,5.09091l2.27273,9.09091l-8.09091,2.18182l-2.81818,-8.54546l-0.72727,-6.72727h-0.81818l-0.54546,-0.54546l-8.54546,0.09091l0.18182,3l-0.72727,0.72728l-0.90341,-0.14844l-1.875,3.375l0.625,0.75l-1.375,1.25l-7.25,-2.375l5.875,-9.25v-2.125l-4,-2.5l-34,9.375l-2.375,-15.25l38.125,-2.25l-0.02841,-1.12428h1.18182l1.36364,-3.09091l0.90909,-0.09091l0.09091,-2l1.54546,-1.18182l3.27273,-0.27273c0,0 17.51031,0.40434 19.36364,1.18181c1.4205,0.5959 0.63636,4.72728 0.63636,4.72728l2.81819,0.63636l0.18182,-1.27273l28.54545,-0.36363l1,-3.63637l5.09091,-0.18181l0.45454,0.45454l10.54546,0.09091l4.45454,-5.72728l3.54546,-0.09091l-0.72727,11.72728h13.27273l1.09091,-1.09091h9.36364v4.81818l-9.45455,0.09091l-0.90909,-1l-13.81818,0.18182l1,1.45455l-0.09091,1.63637h-2.90909v-3h-5l-0.27273,0.81818l-1.54545,0.09091l-0.63637,3h-0.81818l0.18182,1l11.45455,0.18182l2,2v2.45454l-1.27273,2.18182l-20.27273,0.09091l-1.09091,1.36364h-27.63637c0,0 -0.29326,2.59003 -1.54545,3.09091c-1.25219,0.50088 -4.30503,1.31216 -6.63636,0.18182z" fill="#121111" stroke="#000000" stroke-width="1" stroke-linecap="round"/><path d="M313.77564,156.64207l15.18182,-0.18182l0.90909,1.18182l-0.09091,2.18182l-16.90909,0.63636l-0.18182,-1.45454z" fill="#000000" stroke="#000000" stroke-width="1" stroke-linecap="round"/><path d="M313.69081,174.33755c0,0 0.86066,1.06363 1.46667,1.33334c0.50661,0.22546 -0.73334,-1.53334 -0.73334,-1.53334l0.26667,-1.26667c0,0 2.85332,-0.30143 3.86666,0.6c0.694,0.61736 1.63086,2.42854 0.06666,3c-1.48294,0.54178 -4.26666,-0.06667 -4.26666,-0.06667c0,0 -1.79093,-0.64872 -1.93334,-1.53333c-0.22487,-1.39674 1,-2.06667 1,-2.06667z" fill="#000000" stroke="#000000" stroke-width="0.5" stroke-linecap="round"/><path d="M340.77887,165.48664l0.57143,-1h1.28571l0.57143,0.85715l-0.5,1.07143l-1.28571,0.07143z" fill="#000000" stroke="#000000" stroke-width="0.5" stroke-linecap="round"/><path d="M343.63602,162.37951l0.57142,-1.10714h1.28572l0.57143,0.94898l-0.5,1.18622l-1.28572,0.07908z" fill="#000000" stroke="#000000" stroke-width="0.5" stroke-linecap="round"/><path d="M347.20745,165.52235l0.57142,-1.10714h1.28572l0.57143,0.94898l-0.5,1.18623l-1.28571,0.07908z" fill="#000000" stroke="#000000" stroke-width="0.5" stroke-linecap="round"/><path d="M349.92175,162.23664l0.57142,-1.32143h1.28571l0.57143,1.13266l-0.5,1.41581l-1.28571,0.09439z" fill="#000000" stroke="#000000" stroke-width="0.5" stroke-linecap="round"/><path d="M356.27889,162.23663l0.60504,-1.32142h1.36134l0.60504,1.13266l-0.52941,1.41581l-1.36135,0.09439z" fill="#000000" stroke="#000000" stroke-width="0.5" stroke-linecap="round"/><path d="M353.49318,165.52236l0.57142,-1.32142h1.28571l0.57143,1.13265l-0.5,1.41581l-1.28571,0.09439z" fill="#000000" stroke="#000000" stroke-width="0.5" stroke-linecap="round"/><path d="M359.92173,165.66522l0.57143,-1.32142h1.28572l0.57143,1.13265l-0.5,1.41582l-1.28571,0.09438z" fill="#000000" stroke="#000000" stroke-width="0.5" stroke-linecap="round"/><path d="M362.85031,162.23664l0.57143,-1.32143h1.28571l0.57143,1.13266l-0.5,1.41581l-1.28572,0.09439z" fill="#000000" stroke="#000000" stroke-width="0.5" stroke-linecap="round"/><path d="M366.27889,165.37951l0.57142,-1.32143h1.28571l0.57143,1.13265l-0.5,1.41582l-1.28572,0.09438z" fill="#000000" stroke="#000000" stroke-width="0.5" stroke-linecap="round"/><path d="M383.49911,156.94275l0.75,0.08333l-0.33333,2.83333l-2.91667,-0.16667l0.08334,-1l2.41666,-3.41667z" fill="#000000" stroke="#000000" stroke-width="0.5" stroke-linecap="round"/><path d="M380.74911,162.10942v-1h3.16667v1z" fill="#000000" stroke="none" stroke-width="0" stroke-linecap="butt"/><path d="M369.19555,162.15332l0.60504,-1.32143h1.36135l0.60504,1.13265l-0.52941,1.41582l-1.36135,0.09438z" fill="#000000" stroke="#000000" stroke-width="0.5" stroke-linecap="round"/><path d="M372.8384,165.58188l0.57143,-1.32143h1.28571l0.57143,1.13266l-0.5,1.41582l-1.28571,0.09438z" fill="#000000" stroke="#000000" stroke-width="0.5" stroke-linecap="round"/><path d="M375.76698,162.15331l0.57143,-1.32142h1.28571l0.57143,1.13265l-0.5,1.41581l-1.28571,0.09439z" fill="#000000" stroke="#000000" stroke-width="0.5" stroke-linecap="round"/><path d="M332.08095,178.03274c0,0 0.93012,1.14948 1.58504,1.44095c0.5475,0.24366 -0.79253,-1.6571 -0.79253,-1.6571l0.28819,-1.3689c0,0 3.08362,-0.32575 4.17876,0.64843c0.75003,0.66719 1.76251,2.62455 0.07205,3.24214c-1.60264,0.58551 -4.61104,-0.07205 -4.61104,-0.07205c0,0 -1.93547,-0.70108 -2.08938,-1.65709c-0.24302,-1.50948 1.08071,-2.23348 1.08071,-2.23348z" fill="#000000" stroke="#000000" stroke-width="0.5" stroke-linecap="round"/></g><path d="M302.49876,114.94854l1.61235,-3.26104l87.66667,-26.88889v57.33334l-87.55556,-23.88889z" fill="url(#color-1)" stroke="#323231" stroke-width="0" stroke-linecap="round"/></g></g></svg>