<svg version="1.1" xmlns="http://www.w3.org/2000/svg" xmlns:xlink="http://www.w3.org/1999/xlink" width="260.89025" height="108.15104" viewBox="0,0,260.89025,108.15104"><defs><linearGradient x1="151.25" y1="189.45317" x2="151.25" y2="277.70313" gradientUnits="userSpaceOnUse" id="color-1"><stop offset="0" stop-color="#a4a6a6"/><stop offset="1" stop-color="#7e7e7e"/></linearGradient><linearGradient x1="171.2661" y1="195.7962" x2="171.2661" y2="226.08752" gradientUnits="userSpaceOnUse" id="color-2"><stop offset="0" stop-color="#717272"/><stop offset="1" stop-color="#1c1c1c"/></linearGradient><linearGradient x1="85.57283" y1="194.02737" x2="85.57283" y2="222.54984" gradientUnits="userSpaceOnUse" id="color-3"><stop offset="0" stop-color="#717272"/><stop offset="1" stop-color="#1c1c1c"/></linearGradient><linearGradient x1="272.125" y1="242.07819" x2="259.375" y2="242.07819" gradientUnits="userSpaceOnUse" id="color-4"><stop offset="0" stop-color="#5f5f5f"/><stop offset="1" stop-color="#5d0c0a"/></linearGradient></defs><g transform="translate(-20.76408,-184.95316)"><g data-paper-data="{&quot;isPaintingLayer&quot;:true}" fill-rule="nonzero" stroke-linejoin="miter" stroke-miterlimit="10" stroke-dasharray="" stroke-dashoffset="0" style="mix-blend-mode: normal"><g><path d="M260.125,277.70313l-210,-1l-5.25,-0.5l-0.5,-3.5l-3.25,0.25v-5l-10.5,-1.25l-2.25,-4.75l-4.75,-0.25l-1.75,-12.5l5.25,-1.5l0.25,-4l-1.25,-1l0.5,-17.25l2.25,-0.5l20.5,-35.5l120.5,2.25l36.25,28.5l65.5,10.75l-0.75,4.25l1.5,13.25l7.5,0.5l0.75,19.75l-14.5,4z" data-paper-data="{&quot;index&quot;:null}" fill="url(#color-1)" stroke="#000000" stroke-width="2" stroke-linecap="round"/><path d="M173.44333,258.2641c-7.00549,0 -12.68457,-5.67908 -12.68457,-12.68457c0,-7.00549 5.67908,-12.68457 12.68457,-12.68457c7.00549,0 12.68457,5.67908 12.68457,12.68457c0,7.0055 -5.67908,12.68457 -12.68457,12.68457z" data-paper-data="{&quot;index&quot;:null}" fill="none" stroke="#000000" stroke-width="2" stroke-linecap="butt"/><path d="M167.8128,257.59154v-12.47144h9.90982l5.7477,5.74769l-6.05458,6.50768" data-paper-data="{&quot;index&quot;:null}" fill="#000000" stroke="#000000" stroke-width="2" stroke-linecap="round"/><path d="M140.2737,231.17293c0,-2.5 2.5,-2.5 2.5,-2.5l0.64982,0.00863c2.66995,0.22476 5.29499,0.21247 7.97325,0.21247c0,0 2.5,0 2.5,2.5c0,2.5 -2.5,2.5 -2.5,2.5c-2.81692,0 -5.57962,0.00212 -8.38848,-0.22974l-0.23459,0.00863c0,0 -2.5,0 -2.5,-2.5z" data-paper-data="{&quot;index&quot;:null}" fill="#000000" stroke="none" stroke-width="0.5" stroke-linecap="butt"/><path d="M86.17097,226.90408h1.10553c2.74538,0 5.42986,0.00376 8.16737,0.22974c0,0 2.49136,0.20761 2.28375,2.69898c-0.20761,2.49137 -2.69898,2.28375 -2.69898,2.28375c-2.5988,-0.21877 -5.14509,-0.21247 -7.75214,-0.21247h-1.10553c0,0 -2.5,0 -2.5,-2.5c0,-2.5 2.5,-2.5 2.5,-2.5z" data-paper-data="{&quot;index&quot;:null}" fill="#000000" stroke="none" stroke-width="0.5" stroke-linecap="butt"/><path d="M170.05002,197.34393l30.51242,24.7637l-1.98994,3.97988l-53.06506,-2.21105l-3.53767,-28.08026z" data-paper-data="{&quot;index&quot;:null}" fill="url(#color-2)" stroke="#000000" stroke-width="2" stroke-linecap="round"/><path d="M133.88415,194.91179v27.63805l-95.29601,-1.54773l-1.32663,-3.09546l13.92957,-23.87928z" data-paper-data="{&quot;index&quot;:null}" fill="url(#color-3)" stroke="#000000" stroke-width="2" stroke-linecap="round"/><path d="M98.94965,194.69068l-7.95976,26.75364h-6.19092l8.84418,-24.9848z" data-paper-data="{&quot;index&quot;:null}" fill="#000000" stroke="#000000" stroke-width="2" stroke-linecap="round"/><path d="M91.211,195.57511l-9.7286,25.42701h-3.09546l9.28639,-25.64811z" data-paper-data="{&quot;index&quot;:null}" fill="#000000" stroke="#000000" stroke-width="2" stroke-linecap="round"/><path d="M57.41928,194.07309l-14.1234,26.79825h-3.80246l-1.62962,-3.07818l13.03698,-23.90114z" data-paper-data="{&quot;index&quot;:null}" fill="#000000" stroke="#000000" stroke-width="2" stroke-linecap="round"/><path d="M235.33333,252.10421c9.66499,0 17.5,8.95431 17.5,20c0,11.04569 -7.83501,20 -17.5,20c-9.66499,0 -17.5,-8.95431 -17.5,-20c0,-11.04569 7.83501,-20 17.5,-20z" data-paper-data="{&quot;index&quot;:null}" fill="#000000" stroke="#000000" stroke-width="2" stroke-linecap="butt"/><path d="M79.33333,251.10421c10.76956,0 19.5,8.73045 19.5,19.5c0,10.76955 -8.73044,19.5 -19.5,19.5c-10.76956,0 -19.5,-8.73045 -19.5,-19.5c0,-10.76955 8.73044,-19.5 19.5,-19.5z" data-paper-data="{&quot;index&quot;:null}" fill="#000000" stroke="none" stroke-width="0" stroke-linecap="butt"/><path d="M78.33333,282.10418c-5.6149,0 -10.16667,-4.55177 -10.16667,-10.16666c0,-5.61489 4.55178,-10.16666 10.16667,-10.16666c5.6149,0 10.16667,4.55177 10.16667,10.16666c0,5.61489 -4.55178,10.16666 -10.16667,10.16666z" data-paper-data="{&quot;index&quot;:null}" fill="#6a6a6a" stroke="#000000" stroke-width="0" stroke-linecap="butt"/><path d="M235.16666,279.43754c-5.52284,0 -10,-4.47716 -10,-10c0,-5.52284 4.47716,-10 10,-10c5.52284,0 10,4.47716 10,10c0,5.52284 -4.47716,10 -10,10z" data-paper-data="{&quot;index&quot;:null}" fill="#6a6a6a" stroke="none" stroke-width="0" stroke-linecap="butt"/><path d="M139.375,265.95313l-0.75,-72.5" data-paper-data="{&quot;index&quot;:null}" fill="none" stroke="#000000" stroke-width="2" stroke-linecap="round"/><path d="M144.875,190.70317l0.5,-3.75h2.5l7.5,3.5" data-paper-data="{&quot;index&quot;:null}" fill="#000000" stroke="#000000" stroke-width="2" stroke-linecap="round"/><path d="M61.125,189.70317l0.5,-3.75h2.5l7.5,3.5" data-paper-data="{&quot;index&quot;:null}" fill="#000000" stroke="#000000" stroke-width="2" stroke-linecap="round"/><path d="M104.125,190.20317c-0.55228,0 -1,-0.44771 -1,-1c0,-0.55229 0.44772,-1 1,-1c0.55228,0 1,0.44771 1,1c0,0.55229 -0.44772,1 -1,1z" data-paper-data="{&quot;index&quot;:null}" fill="#000000" stroke="none" stroke-width="0.5" stroke-linecap="butt"/><path d="M28.125,224.70317l5.75,3l0.5,13.25l-2.75,3l-5.25,-0.5" data-paper-data="{&quot;index&quot;:null}" fill="#5d0c0a" stroke="#000000" stroke-width="2" stroke-linecap="round"/><path d="M82.125,189.95317c-0.55228,0 -1,-0.44771 -1,-1c0,-0.55228 0.44772,-1 1,-1c0.55228,0 1,0.44772 1,1c0,0.55229 -0.44772,1 -1,1z" data-paper-data="{&quot;index&quot;:null}" fill="#000000" stroke="none" stroke-width="0.5" stroke-linecap="butt"/><path d="M60.875,234.70317v-7.5h10.25v8" data-paper-data="{&quot;index&quot;:null}" fill="none" stroke="#000000" stroke-width="0.5" stroke-linecap="round"/><path d="M272.125,248.70319l-7.25,-0.5l-5.5,-12.25h11.25" data-paper-data="{&quot;index&quot;:null}" fill="url(#color-4)" stroke="#000000" stroke-width="2" stroke-linecap="round"/><path d="M207.875,239.20319l-0.5,10.75l-106,-1.25" data-paper-data="{&quot;index&quot;:null}" fill="none" stroke="#000000" stroke-width="0.5" stroke-linecap="round"/><path d="M205.375,226.45317l2.5,13l-173.5,-3.5" data-paper-data="{&quot;index&quot;:null}" fill="none" stroke="#000000" stroke-width="0.5" stroke-linecap="round"/><path d="M207.875,249.95319l-4.25,16l-99.5,-1" data-paper-data="{&quot;index&quot;:null}" fill="none" stroke="#000000" stroke-width="0.5" stroke-linecap="round"/><path d="M27.375,248.20319l29.25,0.25" data-paper-data="{&quot;index&quot;:null}" fill="none" stroke="#000000" stroke-width="0.5" stroke-linecap="round"/></g></g></g></svg>