<svg version="1.1" xmlns="http://www.w3.org/2000/svg" xmlns:xlink="http://www.w3.org/1999/xlink" width="8.16722" height="8.14442" viewBox="0,0,8.16722,8.14442"><g transform="translate(-316.04498,-176.08671)"><g data-paper-data="{&quot;isPaintingLayer&quot;:true}" fill-opacity="0.50196" fill="#ffb640" fill-rule="nonzero" stroke="none" stroke-width="0.5" stroke-linecap="butt" stroke-linejoin="miter" stroke-miterlimit="10" stroke-dasharray="" stroke-dashoffset="0" style="mix-blend-mode: normal"><path d="M319.36795,179.10646c0.01603,-0.00785 0.02668,-0.0114 0.02668,-0.0114l0.13415,-0.03706c-0.2177,-0.61823 -0.03626,-1.62543 -0.17379,-1.93047c-0.2197,-0.37716 -2.36326,-0.80851 -2.42962,-0.26978c-0.10567,0.85783 0.62288,1.51652 1.12012,2.09671l0.10881,0.02736c0.30645,0.06506 0.53613,0.14497 0.70074,0.23406c0.141,-0.06207 0.31105,-0.10044 0.51292,-0.10942zM321.57588,181.84016c-0.19415,0.23468 -0.39459,0.40205 -0.59624,0.51261c0.21737,0.40097 0.38348,0.74846 0.41349,0.76592c1.55655,0.90563 2.31738,-0.04651 1.69054,-1.58833c-0.21423,-0.54923 -0.91327,-0.97079 -0.68926,-1.64559c0.21975,-0.66199 0.67786,-0.16861 1.04543,-0.44445c0.75231,-0.56459 -0.02251,-2.43554 -0.84317,-2.43764c-1.41209,0.19663 -0.86137,1.79466 -1.61997,2.32212c0.85695,0.43174 1.28225,1.31631 0.59919,2.51538zM318.03113,179.46588c-0.16004,0.06595 -0.27898,-0.08273 -0.27898,-0.08273c-0.00187,-0.00237 -0.00374,-0.00474 -0.00562,-0.00711c-0.03559,-0.02388 -0.07272,-0.06 -0.09153,-0.11275c-0.56908,-0.68685 -1.46507,-1.55365 -1.20619,-2.55687c0.30188,-1.16985 2.96404,-0.43884 3.35409,0.19894c0.23629,0.63212 -0.62774,2.23404 0.85488,2.03181c0.29147,-0.03976 0.66555,-2.25295 1.90344,-2.43325c1.2486,-0.0028 2.03425,1.74867 1.45922,2.92399c-0.19126,0.39092 -1.10993,0.18178 -1.15169,0.61497c-0.04509,0.46762 0.50743,0.88082 0.67916,1.30178c0.42809,1.08487 0.46905,2.90626 -1.21766,2.65571c-0.70236,-0.10433 -1.31661,-0.95899 -1.70352,-1.51009c-0.1742,0.04142 -0.34708,0.04489 -0.51534,0.01719c-1.2606,4.68223 -6.46469,-1.56561 -2.75295,-2.4166c0.24728,-0.00402 0.6454,-0.05338 0.94958,-0.12931c0.02157,-0.14648 0.06738,-0.28173 0.14051,-0.39945c-0.09993,-0.02999 -0.22918,-0.0601 -0.39229,-0.08998zM317.41162,180.58802c-2.53199,0.38897 1.27969,5.63638 2.2319,1.76005c-0.68914,-0.35767 -1.22717,-1.19417 -1.33173,-1.92807c-0.27833,0.10013 -0.59334,0.16338 -0.90017,0.16803zM320.22838,182.02447c0.01207,0.00254 0.02413,0.00485 0.03618,0.00693c-0.01421,-0.00812 -0.0263,-0.01065 -0.03618,-0.00693z"/></g></g></svg>