<svg version="1.1" xmlns="http://www.w3.org/2000/svg" xmlns:xlink="http://www.w3.org/1999/xlink" width="722" height="590.70194" viewBox="0,0,722,590.70194"><defs><linearGradient x1="316" y1="-27.57626" x2="316" y2="148.42372" gradientUnits="userSpaceOnUse" id="color-1"><stop offset="0" stop-color="#a7c9e3"/><stop offset="1" stop-color="#7ba5c6"/></linearGradient><radialGradient cx="354.90991" cy="14.23673" r="216.21622" gradientUnits="userSpaceOnUse" id="color-2"><stop offset="0" stop-color="#ff9500" stop-opacity="0.50196"/><stop offset="1" stop-color="#ff9500" stop-opacity="0"/></radialGradient><linearGradient x1="352.57207" y1="-32.8601" x2="352.57207" y2="45.239" gradientUnits="userSpaceOnUse" id="color-3"><stop offset="0" stop-color="#ffbb00"/><stop offset="1" stop-color="#ff9600"/></linearGradient></defs><g transform="translate(43.5,201.97948)"><g data-paper-data="{&quot;isPaintingLayer&quot;:true}" fill-rule="nonzero" stroke="#000000" stroke-linejoin="miter" stroke-miterlimit="10" stroke-dasharray="" stroke-dashoffset="0" style="mix-blend-mode: normal"><path d="M-28,148.42372v-176h688v176z" fill="url(#color-1)" stroke-width="0" stroke-linecap="butt"/><path d="M138.69369,230.45295v-432.43243h432.43243v432.43243z" fill="url(#color-2)" stroke-width="0" stroke-linecap="butt"/><path d="M53,-16.57627l18,77l18,17l-19,23l15,17l8,39l-129,6l21,-177z" fill="#97524a" stroke-width="2" stroke-linecap="round"/><path d="M162,156.42372l29,-32l21,14l23,-42l19,59z" fill="#97524a" stroke-width="2" stroke-linecap="round"/><path d="M454,154.3856l27,-92l22,33l23,-68l25,38l-14,92z" fill="#97524a" stroke-width="2" stroke-linecap="round"/><path d="M400,156.0261l-8,-38.77509l17.4985,-19.70558l31.5015,-63.19287l46,77.55017l-14,53.48287z" fill="#97524a" stroke-width="2" stroke-linecap="round"/><path d="M524,152.3856l11,-108l35,-8l-16,-49l97,4l-2,58l-21,33l23,34l-4,40z" fill="#97524a" stroke-width="2" stroke-linecap="round"/><path d="M-42.5,387.72246v-243h720v243z" fill="#ababab" stroke-width="2" stroke-linecap="butt"/><path d="M313.52252,6.18945c0,-21.56647 17.48308,-39.04955 39.04955,-39.04955c21.56647,0 39.04955,17.48308 39.04955,39.04955c0,21.56647 -17.48308,39.04955 -39.04955,39.04955c-21.56647,0 -39.04955,-17.48308 -39.04955,-39.04955z" fill="url(#color-3)" stroke-width="2" stroke-linecap="butt"/></g></g></svg>