<svg version="1.1" xmlns="http://www.w3.org/2000/svg" xmlns:xlink="http://www.w3.org/1999/xlink" width="130" height="129" viewBox="0,0,130,129"><g transform="translate(-254.5,-114.77089)"><g data-paper-data="{&quot;isPaintingLayer&quot;:true}" fill-rule="nonzero" stroke-linejoin="miter" stroke-miterlimit="10" stroke-dasharray="" stroke-dashoffset="0" style="mix-blend-mode: normal"><path d="M255.5,233.43752v-109h128v109z" fill="#8f661e" stroke="none" stroke-width="0" stroke-linecap="butt"/><path d="M255.5,232.77083v-108.33333h8v108.33333z" fill="#c78a32" stroke="none" stroke-width="0" stroke-linecap="butt"/><path d="M373.83333,233.10417v-108.66667h9.33333v108.66667z" fill="#c78a32" stroke="none" stroke-width="0" stroke-linecap="butt"/><path d="M264.5,133.4375v-8.33333h109v8.33333z" fill="#090000" stroke="#000000" stroke-width="0" stroke-linecap="butt"/><path d="M255.16667,242.43755v-9h128v9z" fill="#86837b" stroke="none" stroke-width="0" stroke-linecap="butt"/><path d="M255.5,124.43755v-9h128v9z" fill="#86837b" stroke="none" stroke-width="0" stroke-linecap="butt"/><path d="M255.5,242.7709v-127h128v127z" fill="none" stroke="#000000" stroke-width="2" stroke-linecap="butt"/><path d="M264.16667,233.1042v-108.33333h109.33334v108.33333z" fill="none" stroke="#000000" stroke-width="2" stroke-linecap="butt"/><path d="M372.83333,150.4375h-108.33333" fill="none" stroke="#000000" stroke-width="2" stroke-linecap="round"/><path d="M264.5,176.1042h108.66667" fill="none" stroke="#000000" stroke-width="2" stroke-linecap="round"/><path d="M264.5,211.43755h108.33333" fill="none" stroke="#000000" stroke-width="2" stroke-linecap="round"/><path d="M256.16667,124.77089h126.66667" fill="none" stroke="#000000" stroke-width="2" stroke-linecap="round"/><path d="M255.5,233.43755h126.66667" fill="none" stroke="#000000" stroke-width="2" stroke-linecap="round"/><path d="M262.5,119.10418c0,-0.55228 0.44772,-1 1,-1c0.55228,0 1,0.44772 1,1c0,0.55228 -0.44772,1 -1,1c-0.55228,0 -1,-0.44772 -1,-1z" fill="#000000" stroke="none" stroke-width="0.5" stroke-linecap="butt"/><path d="M276.16667,119.43751c0,-0.55228 0.44772,-1 1,-1c0.55228,0 1,0.44772 1,1c0,0.55228 -0.44772,1 -1,1c-0.55228,0 -1,-0.44772 -1,-1z" fill="#000000" stroke="none" stroke-width="0.5" stroke-linecap="butt"/><path d="M303.83333,120.10418c0,-0.55228 0.44772,-1 1,-1c0.55228,0 1,0.44772 1,1c0,0.55228 -0.44772,1 -1,1c-0.55228,0 -1,-0.44772 -1,-1z" fill="#000000" stroke="none" stroke-width="0.5" stroke-linecap="butt"/><path d="M318.5,119.77084c0,-0.55228 0.44772,-1 1,-1c0.55228,0 1,0.44772 1,1c0,0.55228 -0.44772,1 -1,1c-0.55228,0 -1,-0.44772 -1,-1z" fill="#000000" stroke="none" stroke-width="0.5" stroke-linecap="butt"/><path d="M330.16667,119.77084c0,-0.55228 0.44772,-1 1,-1c0.55228,0 1,0.44772 1,1c0,0.55228 -0.44772,1 -1,1c-0.55228,0 -1,-0.44772 -1,-1z" fill="#000000" stroke="none" stroke-width="0.5" stroke-linecap="butt"/><path d="M345.83333,119.43751c0,-0.55228 0.44772,-1 1,-1c0.55228,0 1,0.44772 1,1c0,0.55228 -0.44772,1 -1,1c-0.55228,0 -1,-0.44772 -1,-1z" fill="#000000" stroke="none" stroke-width="0.5" stroke-linecap="butt"/><path d="M358.83333,118.77084c0,-0.55228 0.44772,-1 1,-1c0.55228,0 1,0.44772 1,1c0,0.55228 -0.44772,1 -1,1c-0.55228,0 -1,-0.44772 -1,-1z" fill="#000000" stroke="none" stroke-width="0.5" stroke-linecap="butt"/><path d="M373.83333,119.43751c0,-0.55228 0.44772,-1 1,-1c0.55228,0 1,0.44772 1,1c0,0.55228 -0.44772,1 -1,1c-0.55228,0 -1,-0.44772 -1,-1z" fill="#000000" stroke="none" stroke-width="0.5" stroke-linecap="butt"/><path d="M277.16667,236.43751c0,-0.55228 0.44772,-1 1,-1c0.55228,0 1,0.44772 1,1c0,0.55228 -0.44772,1 -1,1c-0.55228,0 -1,-0.44772 -1,-1z" fill="#000000" stroke="none" stroke-width="0.5" stroke-linecap="butt"/><path d="M288.5,238.10418c0,-0.55228 0.44772,-1 1,-1c0.55228,0 1,0.44772 1,1c0,0.55228 -0.44772,1 -1,1c-0.55228,0 -1,-0.44772 -1,-1z" fill="#000000" stroke="none" stroke-width="0.5" stroke-linecap="butt"/><path d="M304.83333,237.10418c0,-0.55228 0.44772,-1 1,-1c0.55228,0 1,0.44772 1,1c0,0.55228 -0.44772,1 -1,1c-0.55228,0 -1,-0.44772 -1,-1z" fill="#000000" stroke="none" stroke-width="0.5" stroke-linecap="butt"/><path d="M318.5,238.10418c0,-0.55228 0.44772,-1 1,-1c0.55228,0 1,0.44772 1,1c0,0.55228 -0.44772,1 -1,1c-0.55228,0 -1,-0.44772 -1,-1z" fill="#000000" stroke="none" stroke-width="0.5" stroke-linecap="butt"/><path d="M331.16667,238.10418c0,-0.55228 0.44772,-1 1,-1c0.55228,0 1,0.44772 1,1c0,0.55228 -0.44772,1 -1,1c-0.55228,0 -1,-0.44772 -1,-1z" fill="#000000" stroke="none" stroke-width="0.5" stroke-linecap="butt"/><path d="M346.16667,237.43751c0,-0.55228 0.44772,-1 1,-1c0.55228,0 1,0.44772 1,1c0,0.55228 -0.44772,1 -1,1c-0.55228,0 -1,-0.44772 -1,-1z" fill="#000000" stroke="none" stroke-width="0.5" stroke-linecap="butt"/><path d="M358.5,237.43751c0,-0.55228 0.44772,-1 1,-1c0.55228,0 1,0.44772 1,1c0,0.55228 -0.44772,1 -1,1c-0.55228,0 -1,-0.44772 -1,-1z" fill="#000000" stroke="none" stroke-width="0.5" stroke-linecap="butt"/><path d="M374.16667,238.10418c0,-0.55228 0.44772,-1 1,-1c0.55228,0 1,0.44772 1,1c0,0.55228 -0.44772,1 -1,1c-0.55228,0 -1,-0.44772 -1,-1z" fill="#000000" stroke="none" stroke-width="0.5" stroke-linecap="butt"/><path d="M288.66667,138.60417c0,4.78647 -3.95482,8.66667 -8.83333,8.66667c-4.87851,0 -8.83333,-3.8802 -8.83333,-8.66667c0,-2.09361 0.75664,-3.75874 2.01626,-4.96968c1.62016,-1.55753 6.81707,-2.36365 6.81707,-2.36365c0,0 4.45764,0.58324 6.03699,1.71606c1.72096,1.23439 2.79634,3.12134 2.79634,5.61727z" fill="none" stroke="#ff0000" stroke-width="5" stroke-linecap="butt"/><path d="M265.33333,130.27083h29" fill="none" stroke="#ff0000" stroke-width="5" stroke-linecap="round"/><path d="M368.66667,138.60417c0,4.78647 -3.95482,8.66667 -8.83333,8.66667c-4.87851,0 -8.83333,-3.8802 -8.83333,-8.66667c0,-2.09361 0.75664,-3.75874 2.01626,-4.96968c1.62016,-1.55753 6.81707,-2.36365 6.81707,-2.36365c0,0 4.45765,0.58325 6.03699,1.71606c1.72096,1.2344 2.79634,3.12134 2.79634,5.61727z" fill="none" stroke="#ff0000" stroke-width="5" stroke-linecap="butt"/><path d="M345.33334,130.27084h29" fill="none" stroke="#ff0000" stroke-width="5" stroke-linecap="round"/><path d="M291,175.60417c0,0 55.50195,0.6784 56.33333,0c0.64993,-0.53033 -13,-10.33333 -13,-10.33333" fill="none" stroke="#ff0000" stroke-width="5" stroke-linecap="round"/><path d="M349,176.27083l-15.33333,11.66667" fill="none" stroke="#ff0000" stroke-width="5" stroke-linecap="round"/></g></g></svg>