<svg version="1.1" xmlns="http://www.w3.org/2000/svg" xmlns:xlink="http://www.w3.org/1999/xlink" width="648" height="375.81991" viewBox="0,0,648,375.81991"><defs><radialGradient cx="181.83258" cy="227.31991" r="99.5" gradientUnits="userSpaceOnUse" id="color-1"><stop offset="0" stop-color="#a7a7a7"/><stop offset="1" stop-color="#828282"/></radialGradient></defs><g transform="translate(4,6)"><g data-paper-data="{&quot;isPaintingLayer&quot;:true}" fill-rule="nonzero" stroke-linejoin="miter" stroke-miterlimit="10" stroke-dasharray="" stroke-dashoffset="0" style="mix-blend-mode: normal"><path d="M-4,366v-372h648v372z" fill="#404040" stroke="none" stroke-width="0" stroke-linecap="butt"/><path d="M28.08258,361.28022v-223h234v223z" fill="#c0c0c0" stroke="#000000" stroke-width="2" stroke-linecap="butt"/><path d="M235.41592,278.40522v-35.66666h23v35.66666z" fill="#272727" stroke="#000000" stroke-width="2" stroke-linecap="butt"/><path d="M238.41592,259.73855c0,-4.78647 3.88019,-8.66667 8.66666,-8.66667c4.78647,0 8.66666,3.8802 8.66666,8.66667c0,4.78647 -3.88019,8.66667 -8.66666,8.66667c-4.78647,0 -8.66666,-3.8802 -8.66666,-8.66667z" fill="#272727" stroke="#000000" stroke-width="2" stroke-linecap="butt"/><path d="M248.84974,257.66183c0.59544,1.34149 2.29997,3.32631 1.40543,4.9299c-0.29727,0.53291 -1.16818,0.35439 -1.75868,0.50828c-1.66561,0.4341 -4.79482,0.965 -5.28143,-1.48929c-0.25957,-1.3092 2.21092,-3.73437 3.09172,-4.50644c0,0 0.06829,-0.05853 0.18145,-0.12001l0.01336,-0.04009c0.12567,-0.40862 0.50614,-0.70565 0.95598,-0.70565c0.37863,0 0.70811,0.21043 0.87787,0.52072l0.49037,0.85815l-0.01423,0.00813z" fill="#000000" stroke="none" stroke-width="0.5" stroke-linecap="butt"/><path d="M56.83258,368.81991v-199h175v199z" fill="url(#color-1)" stroke="#000000" stroke-width="2" stroke-linecap="butt"/><path d="M144.83258,363.81991v-194.5" fill="none" stroke="#000000" stroke-width="2" stroke-linecap="round"/><g stroke-linecap="butt"><path d="M273.5,256.03323v-68h104v68z" fill="#bfbfbf" stroke="#000000" stroke-width="2"/><path d="M273.5,214.38323v-26.6h104v26.6z" fill="#000000" stroke="#000000" stroke-width="0"/><path d="M325.2,213.38323c-28.22175,0 -51.0304,1.67055 -51.1,-11.8c-0.06338,-12.26878 22.87825,-12.8 51.1,-12.8c27.83253,0 50.96793,0.67378 51.38699,11.40829c-0.39135,14.09697 -23.16524,13.19171 -51.38699,13.19171z" fill="#ff0000" stroke="#000000" stroke-width="0"/><text transform="translate(279.625,208.25089) scale(0.47148,0.47148)" font-size="40" xml:space="preserve" fill="#bfbfbf" fill-rule="nonzero" stroke="none" stroke-width="1" stroke-linecap="butt" stroke-linejoin="miter" stroke-miterlimit="10" stroke-dasharray="" stroke-dashoffset="0" font-family="Sans Serif" font-weight="normal" text-anchor="start" style="mix-blend-mode: normal"><tspan x="0" dy="0">WARNING</tspan></text><text transform="translate(280.03177,223.1912) scale(0.19529,0.19529)" font-size="40" xml:space="preserve" fill="#000000" fill-rule="nonzero" stroke="none" stroke-width="1" stroke-linecap="butt" stroke-linejoin="miter" stroke-miterlimit="10" stroke-dasharray="" stroke-dashoffset="0" font-family="Sans Serif" font-weight="normal" text-anchor="start" style="mix-blend-mode: normal"><tspan x="0" dy="0">veri sceri zone full with</tspan><tspan x="0" dy="46.15px">idiots an' fuckin lawyers</tspan><tspan x="0" dy="46.15px">pls go away or els you'll</tspan><tspan x="0" dy="46.15px">die lol bruh ahh goofy</tspan></text></g></g></g></svg>