<svg version="1.1" xmlns="http://www.w3.org/2000/svg" xmlns:xlink="http://www.w3.org/1999/xlink" width="878.44341" height="408.40841" viewBox="0,0,878.44341,408.40841"><g transform="translate(2.01552,20.0126)"><g data-paper-data="{&quot;isPaintingLayer&quot;:true}" fill-rule="nonzero" stroke-linejoin="miter" stroke-miterlimit="10" stroke-dasharray="" stroke-dashoffset="0" style="mix-blend-mode: normal"><path d="M-2.01552,388.39582v-408.40841h705.66366v408.40841z" fill="#1b1b1b" stroke="#000000" stroke-width="0" stroke-linecap="butt"/><path d="M412.5991,300.3126l-7,-42l27,-30l53,11l-4,56" fill="#7a7a7a" stroke="#000000" stroke-width="2" stroke-linecap="round"/><path d="M484.06457,272.98528c0,0 25.01717,-81.56746 36.48692,-118.96412c10.23389,-33.36718 29.04762,-94.70856 29.04762,-94.70856l51,34l49,-101h40l0.28228,277.59942" fill="#7a7a7a" stroke="#000000" stroke-width="2" stroke-linecap="round"/><path d="M474.5991,214.31261l3,-83l73,-29l37,72" fill="#7a7a7a" stroke="#000000" stroke-width="2" stroke-linecap="round"/><path d="M445.5991,292.3126l20,-98l47,2l13,-29l36,3l13,132" fill="#7a7a7a" stroke="#000000" stroke-width="2" stroke-linecap="round"/><path d="M545.44844,301.64041l15.15066,-131.3278l48,-37l-2,25l46,14l-9,34l36,4v88" fill="#7a7a7a" stroke="#000000" stroke-width="2" stroke-linecap="round"/><path d="M110.42788,238.31253v54.5" fill="none" stroke="#000000" stroke-width="2" stroke-linecap="round"/><path d="M215.42789,292.81253v-54.5" fill="none" stroke="#000000" stroke-width="2" stroke-linecap="round"/><path d="M328.42789,292.81253v-54.5" fill="none" stroke="#000000" stroke-width="2" stroke-linecap="round"/><path d="M875.42789,292.81253v-54.5" fill="none" stroke="#000000" stroke-width="2" stroke-linecap="round"/><path d="M576.01001,215.83094l30.03003,-1.5015l-7.50751,54.05406" data-paper-data="{&quot;index&quot;:null}" fill="none" stroke="#000000" stroke-width="2" stroke-linecap="round"/><path d="M424.83358,304.51045v-44c0,0 -13.49158,-8.05833 -14,-16.66666c-0.24542,-9.40784 9.56592,-16.48157 16.38889,-16.61111c6.49382,-0.0375 16.67959,6.49977 16.55556,16.66667c-0.12588,10.31793 -13.44445,16.55556 -13.44445,16.55556v42.55555" fill="#ff0000" stroke="#000000" stroke-width="2" stroke-linecap="round"/><path d="M415.02129,233.78522l3.6817,-3.37119l20.7188,22.62711l-3.6817,3.37119z" fill="#ffffff" stroke="#000000" stroke-width="1" stroke-linecap="butt"/><path d="M425.72247,304.80206v-44.77778h3.66667v44.77778z" fill="#7a7a7a" stroke="#000000" stroke-width="0" stroke-linecap="butt"/><path d="M432.22247,239.80206c-0.5,0 -0.5,-0.5 -0.5,-0.5l0.03576,0.07458c-0.04818,-0.35904 0.08814,-1.01089 0.44976,-0.98935c0.36254,0.0216 -0.8803,-0.27886 -1.0894,0.01809c-0.0385,0.05467 0.40604,0.93784 0.61005,1.42373c0.08895,-0.02706 0.16049,-0.02706 0.16049,-0.02706h0.11111c0.11002,0.00188 0.21611,0.00682 0.31836,0.01466c0.06195,-0.00746 0.12325,-0.01214 0.18371,-0.01388c0.00059,-0.02484 0.00129,-0.04959 0.00208,-0.07425c-0.06948,0.04428 -0.16111,0.07347 -0.28193,0.07347zM430.84329,240.289c-0.2065,-1.10881 -1.14559,-1.96367 -0.27787,-2.64188l-0.27884,-0.09295l0.08472,-0.25417c-0.45398,-0.19757 -0.83589,-0.40063 -0.87105,-0.39648v0.50964c0,0.27614 -0.22386,0.5 -0.5,0.5c-0.11961,0 -0.22941,-0.042 -0.31546,-0.11205l-0.37571,-0.30057c0.10449,0.37026 0.15468,0.80256 -0.00591,0.97072c-1.13183,1.18519 -1.25476,-0.24106 -1.71192,-0.55935c-0.29365,-0.20445 -0.05316,0.72138 0.01109,1.07337c0.13698,0.75038 1.41865,1.87086 0.89569,2.63377c-0.24484,0.35718 -2.77732,0.3777 -3.35531,0.60672c-0.62976,0.12819 -2.64157,0.64938 -3.13674,0.23179c-0.37874,-0.31941 -0.09563,-3.78177 -1.17617,-3.54708c-1.53863,0.33418 -0.88511,7.6138 -0.88511,7.6138c0,1.28512 -0.14402,2.40832 0.37821,3.58081c0.15776,0.3542 0.45659,1.2978 0.65234,0.9631c0.39666,-0.67824 0.11407,-3.43294 0.19348,-4.36417l-0.00181,-0.06862c0,0 0,-0.5 0.5,-0.5c0.5,0 0.5,0.5 0.5,0.5l-0.00181,0.1536c-0.04398,0.51575 -0.00658,2.36194 -0.16115,3.69117c0.11708,0.03377 0.19753,0.09813 0.19753,0.09813c1.74822,1.39883 1.52853,-0.66103 1.31981,-2.44609c-0.0134,-0.04748 -0.02104,-0.10166 -0.02104,-0.16348c0,-0.00507 0.00005,-0.01009 0.00015,-0.01505c-0.05838,-0.50005 -0.11054,-0.96791 -0.11126,-1.31828v-0.11111c0,0 0,-0.5 0.5,-0.5c0.5,0 0.5,0.5 0.5,0.5v0.11111c-0.00055,0.23847 0.00789,0.51355 0.01892,0.81103c1.58036,-0.15305 4.35603,-1.01917 5.50521,-0.24613c1.04572,0.70345 0.32841,2.221 0.91583,3.11535c0.50625,0.77077 0.76462,-1.02004 0.78353,-1.16014c-0.00197,-0.98953 0.05672,-1.74581 -0.30276,-2.67788l-0.12802,-0.49874c0,0 -0.12127,-0.48507 0.3638,-0.60634c0.48507,-0.12127 0.60634,0.3638 0.60634,0.3638l0.0942,0.39015c0.39081,1.06718 0.36704,1.92537 0.36406,3.03497c0.11406,0.04644 0.188,0.12038 0.188,0.12038c2.19971,2.20806 1.16062,-2.97871 0.82359,-4.32241l-0.07999,-0.47824c-0.65524,0.17866 -1.40862,0.0863 -2.1726,-0.44406c-1.2092,-0.83943 -0.99923,-2.00803 -0.26659,-2.90508c-0.20336,-0.05442 -0.31431,-0.24859 -0.31431,-0.24859c-0.77874,-1.41049 -0.99788,-1.68943 -1.0523,-0.76556c0.10252,0.07363 0.17603,0.1851 0.20012,0.31396c0.33658,0.18939 0.20509,0.58387 0.20509,0.58387l-0.10364,0.02473l0.01138,0.06829l-0.17717,0.02953l-0.04129,0.33033c-0.02758,0.25005 -0.23956,0.44456 -0.49696,0.44456c-0.24578,0 -0.45013,-0.17733 -0.49211,-0.41102l-0.10929,-0.54647l0.02057,-0.00411l-0.02784,-0.04468c-0.00791,-2.69001 1.53504,-2.89943 2.93169,-0.51956c0,0 0.03498,0.06121 0.05568,0.15079c0.05669,-0.04442 0.1145,-0.08729 0.17325,-0.1285c-0.03164,-0.06764 -0.04223,-0.12061 -0.04223,-0.12061zM431.37251,236.50438l0.2095,0.62849c0.00867,0.02412 0.01554,0.04909 0.02045,0.07477c0.09657,-0.00617 0.19918,-0.0023 0.30284,0.01141c-0.21135,-0.32715 -0.48365,-0.73842 -0.53278,-0.71467zM419.72624,237.91585c2.53748,-0.43184 1.28296,3.17948 1.93494,3.78625c0.0278,0.02587 1.90226,-0.37724 2.19659,-0.43488c0.27755,-0.11224 1.76156,-0.61751 2.47859,-0.55529c-0.18882,-0.29462 -0.39203,-0.68582 -0.47228,-0.90457c-0.18428,-0.50234 -0.53218,-1.6176 -0.21467,-2.1411c0.19889,-0.32792 0.49226,-0.69112 0.87094,-0.75184c0.25195,-0.0404 0.44815,0.05681 0.59573,0.2044c0.23469,-0.83294 1.20412,-1.87136 1.56533,-0.68918c0.48,-0.74202 1.45389,-0.80001 1.87751,-0.12964c1.43935,-2.5448 2.94132,2.17974 2.94132,3.66872c0,0 0,0.05095 -0.01626,0.12031c1.72406,0.77331 1.28502,2.90599 -0.01886,3.9225c0.02149,0.0563 0.02831,0.09721 0.02831,0.09721l0.10744,0.64705c0.51692,2.07533 0.93629,8.27819 -2.18869,5.53445c-0.19336,0.68776 -0.57117,1.23271 -1.50649,1.05834c-1.87446,-0.34944 -0.58045,-2.85797 -1.48513,-3.2781c-1.14095,-0.52985 -3.49288,0.22258 -4.97653,0.37295c0.06618,2.31557 -0.07308,4.99876 -2.65208,3.08185c-0.06593,0.17846 -0.14504,0.3048 -0.24016,0.35996c-1.91502,1.11041 -2.42369,-1.62566 -2.55858,-3.63376c-0.07339,0.06201 -0.88877,-9.88944 1.73304,-10.33563zM432.40545,240.81543c-0.95818,0.15803 -2.8737,1.67631 -1.44088,2.41822c2.26295,1.17175 3.99099,-2.16972 1.44088,-2.41822z" fill="#000000" stroke="none" stroke-width="0.5" stroke-linecap="butt"/><path d="M431.16691,242.19095c0,-0.27614 0.22386,-0.5 0.5,-0.5c0.27614,0 0.5,0.22386 0.5,0.5c0,0.27614 -0.22386,0.5 -0.5,0.5c-0.27614,0 -0.5,-0.22386 -0.5,-0.5z" fill="#000000" stroke="none" stroke-width="0.5" stroke-linecap="butt"/><path d="M432.50025,242.07984c0,-0.27614 0.22386,-0.5 0.5,-0.5c0.27614,0 0.5,0.22386 0.5,0.5c0,0.27614 -0.22386,0.5 -0.5,0.5c-0.27614,0 -0.5,-0.22386 -0.5,-0.5z" fill="#000000" stroke="none" stroke-width="0.5" stroke-linecap="butt"/></g></g></svg>