<svg version="1.1" xmlns="http://www.w3.org/2000/svg" xmlns:xlink="http://www.w3.org/1999/xlink" width="122.21005" height="142.09359" viewBox="0,0,122.21005,142.09359"><g transform="translate(-258.89498,-108.9532)"><g data-paper-data="{&quot;isPaintingLayer&quot;:true}" fill-rule="nonzero" stroke="none" stroke-width="0.5" stroke-linecap="butt" stroke-linejoin="miter" stroke-miterlimit="10" stroke-dasharray="" stroke-dashoffset="0" style="mix-blend-mode: normal"><path d="M319.67238,231.56947c0.17439,-0.71969 0.31294,-1.54172 0.41064,-2.26222c0.47172,-3.47888 -0.26068,-7.1285 0.0126,-10.62823c0.39324,-5.03603 0.95054,-10.10893 0.96644,-15.15802l0.02202,-2.92233c0,0 0.03344,-2.49954 -2.46656,-2.49954c-2.5,0 -2.47248,2.47715 -2.47248,2.47715l0.00577,2.96746c0.01828,4.92252 -0.65483,9.87038 -1.02734,14.78334c-0.42011,5.54063 0.8344,10.95618 -1.77227,16.16264c-3.60667,7.20384 -11.77766,12.18908 -19.66626,8.86424c-2.85267,-1.72272 -5.91261,-3.10572 -8.3063,-5.48868c-5.80527,-5.77921 -4.32869,-15.11088 -2.40821,-22.15557c0.56437,-2.07019 0.22255,-2.57867 1.26175,-4.42176c2.84352,-5.04316 7.74896,-7.15286 11.61472,-11.00153c0.17003,-0.16927 2.79933,-3.71454 3.0955,-4.11166c3.29019,-3.27462 6.11,-6.39143 8.68177,-10.23589c0.74718,-1.11693 2.24052,-1.9356 2.36647,-3.27349c0.19903,-2.11414 0.08511,-4.61582 -1.42498,-6.10875c-1.10429,-1.09173 -3.11676,-0.10401 -4.65012,0.14121c-3.46124,0.55355 -6.71709,2.84841 -10.17661,3.41879c-5.45885,0.90001 -11.94884,-0.04826 -17.38711,-0.5329c-2.38138,-0.21222 -5.4363,0.71973 -7.68447,-0.29343c-0.80345,-0.36208 -3.58301,-3.25928 -3.72219,-3.39847c-2.19709,-2.49015 -0.25861,-5.23604 0.89479,-7.84289c0.24068,-0.54396 0.43507,-2.43162 1.51129,-2.65438c3.99079,-0.82604 8.81118,0.49567 12.91991,0.11453c2.30347,-0.21368 4.50038,-1.10245 6.77184,-1.54071c2.89322,-0.55822 5.86418,-0.78778 8.70972,-1.55284c2.81614,-0.75716 4.89578,-1.95543 7.83047,-1.91031c0,0 1.35841,-0.00086 2.07307,-0.99957c5.2554,4.37763 15.57159,6.64557 22.07443,5.28015c2.4418,-0.51271 4.69499,-1.71037 7.06125,-2.50165c1.12571,-0.49922 3.82091,-1.63909 5.42113,-2.55539c2.86887,2.84692 6.09148,3.26701 10.41872,3.28323c4,0 8.00612,0.00551 12.00612,0.00551c3.64892,0 7.31666,-0.29302 10.65067,1.60694c3.50897,1.99966 2.85734,6.05999 2.85734,9.40438c0,1.34925 0.73063,2.80909 0.1916,4.046c-0.22698,0.52085 -0.87801,0.72177 -1.32816,1.06841c-1.11001,0.85477 -2.09291,2.14259 -3.41083,2.61783c-2.14781,0.77449 -5.29966,0.31213 -7.54222,0.31213c-5.61556,0 -12.29953,-1.06387 -17.70675,0.61278c-2.48162,0.76949 -4.81492,1.77629 -6.01849,4.37814c-1.43498,3.10211 0.41797,7.92141 1.47166,10.83628c3.2,8.85233 6.35921,17.60121 6.33786,27.18249c0,6.54698 0.07063,11.93825 -3.60019,17.63532c-5.36533,8.32693 -16.19269,-0.0858 -20.53483,-4.74299c-1.10235,-1.18233 -1.56544,-3.24743 -2.02955,-4.66412c0,0 -0.59851,-1.78396 -2.30363,-1.74167z" data-paper-data="{&quot;noHover&quot;:false,&quot;origItem&quot;:[&quot;Path&quot;,{&quot;applyMatrix&quot;:true,&quot;segments&quot;:[[[631.20189,541.73136],[0,0],[0.92822,2.83338]],[[635.25602,551.06001],[-2.2047,-2.36466],[8.68428,9.31437]],[[676.28427,560.56004],[-10.73066,16.65387],[7.34164,-11.39415]],[[683.45847,525.3125],[0,13.09396],[0.0427,-19.16256]],[[670.76355,471.03229],[6.4,17.70465],[-2.10738,-5.82975]],[[667.83908,449.39908],[-2.86997,6.20423],[2.40714,-5.2037]],[[680.03374,440.51978],[-4.96324,1.53898],[10.81445,-3.3533]],[[715.45847,439.3125],[-11.23112,0],[4.48512,0]],[[730.54506,438.6931],[-4.29561,1.54898],[2.63583,-0.95047]],[[737.18247,433.53523],[-2.22002,1.70954],[0.9003,-0.69328]],[[739.83908,431.39908],[-0.45396,1.04169],[1.07806,-2.47381]],[[739.45847,423.3125],[0,2.69851],[0,-6.68879]],[[733.75155,404.51637],[7.01794,3.99933],[-6.66801,-3.79991]],[[712.45847,401.3125],[7.29784,0],[-8,0]],[[688.45847,401.3125],[8,0],[-8.65448,-0.03244]],[[667.63964,394.75726],[5.73773,5.69384],[-3.20044,1.83259]],[[656.80564,399.87142],[2.25142,-0.99844],[-4.73252,1.58256]],[[642.69758,404.8787],[4.8836,-1.02542],[-13.00568,2.73084]],[[598.59989,394.31507],[10.5108,8.75526],[-1.42932,1.99743]],[[594.45847,396.3125],[0,0],[-5.86938,-0.09024]],[[578.81272,400.12561],[5.63228,-1.51431],[-5.69107,1.53012]],[[561.40642,403.22182],[5.78645,-1.11645],[-4.54293,0.87652]],[[547.87088,406.29546],[4.60693,-0.42736],[-8.21746,0.76228]],[[522.03961,406.05592],[7.98158,-1.65208],[-2.15244,0.44553]],[[519.01967,411.36078],[0.48135,-1.08791],[-2.3068,5.2137]],[[517.23574,427.03649],[-4.39419,-4.98029],[0.27837,0.27837]],[[524.49932,433.74797],[-1.60689,-0.72416],[4.49635,2.02632]],[[539.87088,434.32954],[-4.76276,-0.42444],[10.87653,0.96928]],[[574.65756,435.37706],[-10.9177,1.80003],[6.91905,-1.14076]],[[595.03374,428.51978],[-6.92248,1.1071],[3.06672,-0.49045]],[[604.34634,428.2308],[-2.20857,-2.18347],[3.02018,2.98586]],[[607.28207,440.62891],[0.39806,-4.22828],[-0.25191,2.67578]],[[602.56363,447.16691],[1.49436,-2.23386],[-5.14355,7.68891]],[[585.23574,467.58851],[6.58039,-6.54924],[-0.59233,0.79425]],[[579.0488,475.79238],[0.34006,-0.33855],[-7.73151,7.69733]],[[555.8173,497.76213],[5.68704,-10.08632],[-2.07841,3.68618]],[[553.29097,506.59584],[1.12873,-4.14038],[-3.84097,14.08937]],[[558.08341,550.86869],[-11.61053,-11.55842],[4.78739,4.76591]],[[574.68029,561.83327],[-5.70533,-3.44544],[15.77719,6.64967]],[[613.97924,544.09069],[-7.21334,14.40768],[5.21333,-10.41292]],[[617.47105,511.95805],[-0.84022,11.08126],[0.74503,-9.82593]],[[619.45847,482.3125],[0.03656,9.84503],[0,0]],[619.45847,476.3125],[[624.45847,471.3125],[-5,0],[5,0]],[629.45847,476.3125],[[629.45847,482.3125],[0,0],[-0.03179,10.09818]],[[627.44589,512.66695],[0.78647,-10.07207],[-0.54655,6.99946]],[[627.42101,533.92342],[0.94344,-6.95775],[-0.19539,1.44099]],[[626.6023,538.24788],[0.34878,-1.43937],[3.41024,-0.08458]]],&quot;closed&quot;:true}]}" fill="#ffffff"/><path d="M342.38042,149.87733c-1.03271,-3.35069 -3.13958,-6.48113 -5.37568,-7.853c-4.22016,-2.5891 -10.71262,-2.18235 -16.31488,-1.84209c-0.69121,-1.10512 -2.15765,-1.11604 -2.15765,-1.11604c-4.16393,0 -7.34252,-0.30713 -11.34737,1.54181c-2.43578,1.12455 -4.10472,2.85069 -5.064,4.85997c-0.61548,-0.55045 -1.25634,-1.09867 -1.70075,-1.91238c-2.01781,-3.69461 0.19483,-10.53646 0.53763,-14.48045c0.05006,-0.57595 -0.17333,-5.38591 0.5812,-5.5728c2.95942,-0.73299 6.60058,5.16922 9.65401,3.99743c1.54027,-0.5911 1.75231,-2.8338 2.3719,-4.36284c0.083,-0.20484 0.1917,-0.48608 0.312,-0.82086c0.3955,1.23811 0.93258,2.2797 1.71797,2.80563c1.14225,0.7649 2.76147,0.09833 4.13588,0.12675c3.48652,0.0721 6.82774,0.53489 10.27338,1.02247c1.29889,0.1838 2.70561,0.94585 3.91948,0.44844c3.35755,-1.37582 3.4956,-3.99227 3.95599,-6.87465c0.02783,-0.1742 0.12583,-0.41982 0.15311,-0.59437c0.06558,0.14179 0.11017,0.23403 0.11538,0.25628c0.35447,1.51466 0.76518,3.03083 1.23195,4.51855l-0.30554,0.02745l0.26504,2.88312c0.10234,1.28675 1.18184,2.30667 2.49491,2.30667c0.95782,0 1.6941,-0.50974 2.11392,-1.30064l1.18001,-1.98791c1.87853,-1.36324 1.62936,5.51806 1.59751,6.23406c-0.27236,6.12294 -1.41572,12.32197 -4.34539,17.6894z" data-paper-data="{&quot;noHover&quot;:false,&quot;origItem&quot;:[&quot;Path&quot;,{&quot;applyMatrix&quot;:true,&quot;segments&quot;:[[[340.30385,169.79742],[-0.27236,6.12294],[0.03185,-0.716]],[[338.70954,163.57659],[1.87853,-1.36324],[0,0]],[[337.62372,165.53106],[0,0],[-0.41982,0.7909]],[[335.41408,166.8606],[0.95782,0],[-1.31306,0]],[[332.92203,164.56156],[0.10234,1.28675],[0,0]],[332.6605,161.68467],[[332.96583,161.65691],[0,0],[-0.46677,-1.48772]],[[331.74054,157.14655],[0.35447,1.51466],[-0.00521,-0.02226]],[[331.6256,156.8907],[0.06558,0.14179],[-0.02728,0.17455]],[[331.54266,157.41383],[0.02783,-0.1742],[-0.4604,2.88237]],[[327.51093,164.35331],[3.35755,-1.37582],[-1.21387,0.49741]],[[323.60004,163.91399],[1.29889,0.1838],[-3.44564,-0.48757]],[[313.37577,162.89985],[3.48652,0.0721],[-1.37441,-0.02842]],[[309.25387,162.7652],[1.14225,0.7649],[-0.78539,-0.52594]],[[307.53483,159.9604],[0.3955,1.23811],[-0.1203,0.33478]],[[307.22478,160.7797],[0.083,-0.20484],[-0.61958,1.52903]],[[304.86378,165.12966],[1.54027,-0.5911],[-3.05343,1.17179]],[[295.21122,161.12959],[2.95942,-0.73299],[-0.75453,0.18688]],[[294.63404,166.69162],[0.05006,-0.57595],[-0.3428,3.94399]],[[294.09437,181.14169],[-2.01781,-3.69461],[0.44441,0.81372]],[[295.70422,183.09544],[-0.61548,-0.55045],[0.95928,-2.00928]],[[300.76585,178.23016],[-2.43578,1.12455],[4.00485,-1.84894]],[[312.19586,176.63583],[-4.16393,0],[0,0]],[[314.33781,177.74096],[-0.69121,-1.10512],[5.60226,-0.34026]],[[330.58851,179.60508],[-4.22016,-2.5891],[2.23611,1.37187]],[[335.9691,187.45064],[-1.03271,-3.35069],[2.92967,-5.36743]]],&quot;closed&quot;:true}]}" fill="#ffffff"/><path d="M303.42476,139.29268c2.67018,1.33509 8.02761,-2.02507 7.81487,-5.02341c2.41542,-0.00999 3.25877,0.4309 1.92559,4.02448c-0.22495,0.23338 -0.46003,0.59385 -0.58112,0.90055c-1.77473,0.177 -3.54968,0.5675 -5.48601,1.46145c-2.43578,1.12454 -4.1009,2.85784 -5.06018,4.86712c-0.61548,-0.55046 -1.16948,-1.14567 -1.61389,-1.95939c-2.01781,-3.69462 0.19183,-10.54762 0.53463,-14.49161c0.05006,-0.57596 -0.17035,-5.38903 0.58418,-5.57591c2.95942,-0.73299 6.60965,5.1611 9.66308,3.98931c1.54027,-0.5911 1.76035,-2.82974 2.37993,-4.35877c0.083,-0.20483 0.19177,-0.48494 0.31207,-0.81972c0.39551,1.23811 0.94033,2.27808 1.72572,2.80402c1.14225,0.7649 2.76961,0.1102 4.14402,0.13862c3.48652,0.0721 6.80283,0.54854 10.24847,1.03611c0.82216,0.11634 1.68617,0.465 2.51595,0.57597c-0.97649,0.11631 -1.98915,0.28733 -3.02351,0.50598c-2.63364,0.55671 -5.75285,8.08858 -6.4154,12.66702c-0.79213,0.04057 -1.58433,0.09533 -2.35318,0.14203c-0.69121,-1.10513 -2.14986,-1.10028 -2.14986,-1.10028c-0.06589,0 -0.17425,-0.09048 -0.2397,-0.0906c0.74651,-3.82888 -0.34638,-9.55643 -4.42234,-9.61746c-2.92183,-0.04375 -6.66926,-1.78079 -8.73554,0.28549c-0.31105,0.31106 -0.55727,0.65758 -0.73745,1.02457c-1.02932,0.7101 -2.02472,2.51944 -2.24439,4.19041c-0.52327,1.70362 -0.40468,3.61464 1.21405,4.424z" data-paper-data="{&quot;noHover&quot;:false,&quot;origItem&quot;:[&quot;Path&quot;,{&quot;applyMatrix&quot;:true,&quot;segments&quot;:[[[594.01304,353.83338],[0,0],[-3.23746,-1.61872]],[[591.5772,344.95308],[-1.04654,3.40724],[0.43934,-3.34194]],[[596.06944,336.53852],[-2.05864,1.4202],[0.36036,-0.73398]],[[597.54758,334.47974],[-0.6221,0.62212],[4.13256,-4.13256]],[[615.06938,333.85474],[-5.84366,-0.0875],[8.15192,0.12206]],[[623.99766,353.27134],[1.49302,-7.65776],[0.1309,0.00024]],[[624.39168,353.2717],[-0.13178,0],[0,0]],[[628.67558,355.48196],[-1.38242,-2.21026],[1.5377,-0.0934]],[[633.36638,355.21236],[-1.58426,0.08114],[1.3251,-9.15688]],[[646.18278,329.9877],[-5.26728,1.11342],[2.06872,-0.4373]],[[652.22778,328.97132],[-1.95298,0.23262],[-1.65956,-0.22194]],[[647.20006,327.82798],[1.64432,0.23268],[-6.89128,-0.97514]],[[626.75152,325.7997],[6.97304,0.1442],[-2.74882,-0.05684]],[[618.50772,325.5304],[2.2845,1.5298],[-1.57078,-1.05188]],[[615.06964,319.9208],[0.79102,2.47622],[-0.2406,0.66956]],[[614.44954,321.5594],[0.166,-0.40966],[-1.23916,3.05806]],[[609.72754,330.25932],[3.08054,-1.1822],[-6.10686,2.34358]],[[590.42242,322.25918],[5.91884,-1.46598],[-1.50906,0.37376]],[[589.26806,333.38324],[0.10012,-1.15192],[-0.6856,7.88798]],[[588.18872,362.28338],[-4.03562,-7.38924],[0.88882,1.62744]],[[591.40842,366.1909],[-1.23096,-1.10092],[1.91856,-4.01856]],[[601.53168,356.46034],[-4.87156,2.24908],[3.87266,-1.7879]],[[612.47878,353.51402],[-3.54946,0.354],[0.24218,-0.6134]],[[613.53082,351.87982],[-0.4499,0.46676],[2.66636,-7.18716]],[[609.83456,343.7403],[4.83084,-0.01998],[0.42548,5.99668]],[[594.01304,353.8334],[5.34036,2.67018],[0,0]]],&quot;closed&quot;:true}]}" fill="#ffffff"/><path d="M314.08031,164.26456c-1.70367,-0.56961 -3.88359,-0.98549 -5.27074,-1.69616c-4.63499,-2.37461 -5.01171,-14.95432 0.58062,-17.53427c1.01943,-0.47029 2.02818,-0.74953 3.02233,-0.90438c0.67302,1.1732 2.19226,1.17117 2.19226,1.17117l1.0613,-0.00032c3.42201,0 6.88175,0.02339 10.30376,0.01915c-0.77389,0.66641 -0.87876,1.73734 -0.87876,1.73734l-0.25885,2.64661c0,0 -0.07137,0.74714 0.26533,1.4605c-0.30352,0.45528 -0.60557,0.91627 -0.90909,1.37155c0,0 -1.25241,1.89713 0.40882,3.27397c-0.76081,-0.50179 -1.67462,-0.43741 -1.67462,-0.43741c-1.10635,0.09761 -2.27339,-0.06503 -3.32155,0.30227c-1.3929,0.4881 -2.16949,6.85773 -3.04843,8.04343c-0.20274,0.2735 -2.32288,0.27173 -2.4724,0.54653z" data-paper-data="{&quot;noHover&quot;:false,&quot;origItem&quot;:[&quot;Path&quot;,{&quot;applyMatrix&quot;:true,&quot;segments&quot;:[[[633.0956,327.33655],[-0.40548,0.547],[1.75788,-2.3714]],[[639.10851,311.31443],[-2.7858,0.9762],[2.09632,-0.7346]],[[645.74665,310.72877],[-2.2127,0.19522],[0,0]],[[649.09619,311.60179],[-1.52162,-1.00358],[-3.32246,-2.75368]],[[648.27879,305.09053],[0,0],[0.60704,-0.91056]],[[650.09989,302.35887],[-0.60704,0.91056],[-0.6734,-1.42672]],[649.57459,299.45123],[650.10229,294.17435],[[651.86377,290.70459],[-1.54778,1.33282],[-6.84402,0.00848]],[[631.33157,290.70121],[6.84402,0],[0,0]],[629.22083,290.70121],[[624.85535,288.35481],[1.34604,2.3464],[-1.9883,0.3097]],[[618.83657,290.15099],[2.03886,-0.94058],[-11.18468,5.1599]],[[617.68221,325.05919],[-9.26998,-4.74922],[2.7743,1.42134]],[[628.17567,328.43026],[-3.40734,-1.13922],[0.29904,-0.5496]]],&quot;closed&quot;:true,&quot;fillColor&quot;:[0,0,0,1]}]}" fill="#ff6cbf"/><path d="M317.51271,156.16816c-2.5,0 -2.5,-2.5 -2.5,-2.5l0.00736,-2.03865c0.03377,-0.43901 0.06754,-0.87803 0.10131,-1.31704c-0.55012,-0.45858 -0.90021,-1.149 -0.90021,-1.92119c0,-1.38071 1.11929,-2.5 2.5,-2.5c0.15751,0 0.31163,0.01457 0.46107,0.04243c0.23259,-0.04309 0.49347,-0.05757 0.78605,-0.03507c2.49264,0.19174 2.3009,2.68438 2.3009,2.68438c-0.08795,1.14332 -0.1759,2.28664 -0.26385,3.42996l0.00736,1.65517c0,0 0,2.5 -2.5,2.5z" fill="#000000"/><path d="M325.44256,157.06331l1.40364,0.59759c0.33922,0.66036 1.1006,5.96385 1.41961,6.63109c1.68815,-0.54039 4.11932,-0.54124 5.80538,-1.10135c1.49809,-0.6675 4.42319,-2.46874 5.6357,-3.57313c0.3478,-0.31679 -0.07934,-5.33991 -0.0448,-5.80909c0.17424,-2.36706 -2.89425,-6.23116 -5.18703,-7.46941c-1.56784,-0.84673 -3.50829,-0.99043 -5.34326,-1.00178c0.89165,0.68307 0.91185,1.84762 0.89953,2.16533c0.02223,0.01209 0.04456,0.02455 0.06698,0.03736l0.00001,-0.00002c2.17061,1.24034 0.93026,3.41096 0.93026,3.41096l-1.14586,1.99331c-0.52769,0.79153 -1.05537,1.58306 -1.58306,2.37459c0,0 -1.38675,2.08013 -3.46688,0.69338c-0.01953,-0.01302 -0.03875,-0.0261 -0.05768,-0.03924c0.28696,0.24928 0.53211,0.59932 0.66746,1.09041zM316.5478,163.66828c0.87894,-1.1857 1.61356,-7.52296 3.00646,-8.01106c1.04816,-0.3673 2.21272,-0.19522 3.31907,-0.29283c0,0 0.91396,-0.06528 1.67477,0.43651c-1.66123,-1.37684 -0.4087,-3.25563 -0.4087,-3.25563c0.30352,-0.45528 0.60703,-0.91055 0.91055,-1.36583c-0.3367,-0.71336 -0.26265,-1.45382 -0.26265,-1.45382l0.26385,-2.63844c0,0 0.10685,-1.06847 0.88074,-1.73488c-3.42201,0.00424 -6.84409,-0.00169 -10.2661,-0.00169h-1.05537c0,0 -1.50972,0 -2.18274,-1.1732c-0.99415,0.15485 -1.98996,0.4278 -3.00939,0.89809c-5.59234,2.57995 -5.21217,15.07949 -0.57718,17.4541c1.38715,0.71067 3.54306,1.11592 5.24673,1.68553c0.14952,-0.2748 2.25723,-0.27335 2.45997,-0.54685zM342.13302,161.70415c-2.44718,1.54 -4.18135,4.036 -6.56723,5.4805c-0.631,0.38203 -1.33073,0.68997 -2.07572,0.9382c8.28267,4.34881 5.09689,18.00585 3.31558,25.60857c-3.0876,3.1744 -4.7532,4.29915 -9.20419,4.32036c-6.03977,0.02878 -13.3804,-0.69788 -16.70419,-6.82036c-0.96509,-1.77771 -0.79581,-4.24661 -0.79581,-6.17964c0,-6.07309 1.83699,-12.76766 6.5157,-16.01541c-3.42897,-0.25087 -6.71476,-0.98123 -9.90228,-3.06564c-2.22949,-1.45793 -3.8396,-2.52554 -4.49865,-5.34806c-0.29886,0.0352 -0.59035,0.08225 -0.87668,0.13887c0.35105,0.27015 0.66201,0.57372 0.87692,0.95732c1.88999,3.3735 0.33985,8.31438 -2.78209,10.44795c-0.83051,0.56758 -1.99644,0.34574 -2.93144,0.71679c-1.71113,0.67905 -2.86096,2.46834 -4.61092,3.0399c-4.94966,1.61663 -10.07609,-0.3271 -13.79057,-3.37171c-0.9352,-0.76655 -2.22934,-1.28405 -2.73607,-2.38197c-0.22194,-0.48087 -0.26252,-2.89516 -0.26687,-4.74505c-2.64555,-0.22004 -5.32319,-0.49458 -7.70649,-0.00127c-0.67425,0.13956 -1.00186,0.93182 -1.21171,1.63793c0.24926,0.00647 0.41143,0.03891 0.41143,0.03891l2.5,0.5c0,0 2.45145,0.49029 1.96116,2.94174c-0.49029,2.45145 -2.94174,1.96116 -2.94174,1.96116l-2.5,-0.5c0,0 -0.66312,-0.13262 -1.23061,-0.6048c-0.20714,0.58124 -0.35281,1.16117 -0.38524,1.73574c0.34917,-0.08239 0.60614,-0.08239 0.60614,-0.08239h2.5c0,0 2.5,0 2.5,2.5c0,2.37209 -2.25072,2.49346 -2.48104,2.49967c0.61089,0.57639 1.19413,1.07957 1.50146,1.21807c2.24818,1.01316 5.3044,0.07856 7.68578,0.29078c5.43827,0.48464 11.93449,1.42377 17.39334,0.52376c3.45952,-0.57038 6.72685,-2.87509 10.18809,-3.42864c1.53336,-0.24523 3.55202,-1.23623 4.6563,-0.14449c1.51009,1.49293 1.66689,4.08492 1.46786,6.19906c-0.12595,1.33789 -1.61204,2.15207 -2.35922,3.269c-2.57178,3.84446 -5.37375,6.93618 -8.66395,10.2108c-0.19968,0.26775 -1.45903,1.96215 -2.31049,3.08961c4.59216,3.39869 9.325,10.10231 7.29356,16.06296l0.00003,-0.00003c-0.5934,1.74115 -2.68371,2.54823 -3.75669,4.04236c-1.02139,1.4223 0.30787,5.41001 -0.24331,6.95764c-0.99114,2.78297 -4.15364,3.14747 -5,5.5c-0.61042,1.69672 1.76216,4.47185 2.02465,5.99706c0.26022,1.51203 0.12251,3.06608 0.18377,4.59912c-0.96204,0.36806 -1.92409,0.73612 -2.88613,1.10418c7.70428,2.84711 15.54852,-2.07537 19.06639,-9.10184c2.60667,-5.20646 1.32579,-10.52569 1.7459,-16.06632c0.37252,-4.91297 1.01199,-9.90026 0.99371,-14.82278v-3c0,0 0,-2.5 2.5,-2.5c2.5,0 2.5,2.5 2.5,2.5v3c-0.0159,5.04909 -0.61306,10.14119 -1.00629,15.17723c-0.27328,3.49973 0.45928,7.14936 -0.01244,10.62823c-0.09769,0.7205 -0.23496,1.44254 -0.40936,2.16223c1.70512,-0.04229 2.2998,1.74174 2.2998,1.74174c0.46411,1.41669 0.92471,3.482 2.02706,4.66433c4.34214,4.65719 15.14879,13.07695 20.51412,4.75001c0.88334,-1.37093 1.54926,-2.72348 2.05126,-4.07834c-0.15024,-0.11233 -0.27707,-0.23932 -0.38414,-0.37367c-1.79412,-0.3576 -4.38544,-0.92245 -4.84778,-1.40399c-2.06304,-2.14873 -1.3596,-7.56153 -1.23223,-10.26777c0.02437,-0.51775 0.42082,-1.07905 0.1903,-1.54329c-0.82073,-1.65287 -2.5959,-2.69959 -3.42992,-4.3458c-2.60572,-5.14327 -2.92124,-10.15404 -0.60785,-15.4708c0.55719,-1.28056 0.77618,-2.94734 1.94589,-3.71027c0.5264,-0.34334 2.80352,-0.41932 4.68341,-0.43224c-0.37251,-1.04499 -0.75068,-2.09032 -1.1293,-3.1377c-1.05369,-2.91487 -2.89722,-7.71449 -1.46224,-10.8166c1.20357,-2.60185 3.61571,-3.67016 6.09733,-4.43965c5.40722,-1.67665 12.09681,-0.60364 17.71237,-0.60364c2.24256,0 5.39549,0.46479 7.5433,-0.3097c1.12891,-0.40708 1.94441,-1.38185 2.85275,-2.1903c-0.13201,0 -0.26403,0 -0.39604,0c0,0 -2.5,0 -2.5,-2.5c0,-2.5 2.5,-2.5 2.5,-2.5c0.67638,0 1.35277,0 2.02915,0c-0.01821,-0.16788 -0.02915,-0.33475 -0.02915,-0.5c0,-1.03302 0.06254,-2.13373 0.04558,-3.2207c-0.54992,0.2207 -1.04558,0.2207 -1.04558,0.2207c-0.83333,0 -2.66667,0 -3.5,0c0,0 -2.5,0 -2.5,-2.5c0,-2.5 2.5,-2.5 2.5,-2.5c0.83333,0 1.66667,0 2.5,0h0.77097c-0.40471,-0.53153 -0.93394,-1.00457 -1.62443,-1.39806c-3.334,-1.89996 -6.99762,-1.60193 -10.64654,-1.60193c-4,0 -8,0 -12,0c-3.31408,-0.01242 -5.97479,-0.25844 -8.32779,-1.65185zM323.10146,172.0518c-0.00015,0 -0.0003,-0.00001 -0.00045,-0.00001h-0.33926c-0.00015,0 -0.00029,0.00001 -0.00044,0.00001h-0.00044c-6.12716,0.13934 -7.65941,7.83107 -7.65941,12.99999c0,0.29444 -0.12547,3.25436 0.20419,3.82036c2.50748,4.30516 8.14213,4.1556 12.29581,4.17964c2.29484,0.01328 3.11391,-0.11182 4.79581,-1.67964c0.5634,-4.03634 1.20419,-7.72631 1.20419,-11.82036c0,-2.01083 0.64027,-4.21746 -0.85649,-5.82565c-2.06415,-2.21783 -4.95087,-1.67435 -7.64351,-1.67435h-1.99813c-0.00124,0.00001 -0.00187,0.00001 -0.00187,0.00001zM350.60146,158.05179c7.83907,0 18.29591,-1.78212 25.35346,2.39807c5.15578,3.05377 5.14654,8.41602 5.14654,13.60193c0,0.93749 0.04581,5.42966 -0.1903,5.95671c-2.90412,6.48266 -10.90261,7.04329 -16.8097,7.04329c-4.69143,0 -9.59074,-0.44322 -14.25366,-0.01217c-1.13804,0.10521 -4.40433,0.60491 -4.93664,1.96887c-0.1697,0.43482 0.12793,0.92475 0.18547,1.38795c0.4968,3.99904 1.82656,7.48041 3.32603,11.22687c2.91715,7.28857 4.66321,15.54698 4.67881,23.42847c0,7.37338 -0.07962,14.02635 -4.41289,20.37623c-7.64161,11.19784 -21.71857,3.47009 -28.48588,-4.24999c-1.32737,-1.51425 -1.86525,-2.92347 -2.39752,-4.56154c-2.31531,4.68617 -6.08866,8.81982 -10.53483,11.14522c-3.11807,1.63079 -5.32511,1.2985 -8.66888,1.29008c-2.40724,-0.00606 -4.86611,-0.39106 -7.11091,-1.26038c-3.38667,-2.02032 -6.87529,-3.68202 -9.70157,-6.51771c-7.08538,-7.10901 -5.99811,-18.08787 -3.60377,-26.86357c0.51301,-1.88029 0.79773,-3.87529 1.73683,-5.58315c3.68711,-6.70535 10.80908,-9.96676 15.29077,-15.91319c2.34082,-2.35064 4.93091,-4.54973 6.83605,-7.2892c0.94073,-1.3527 1.89119,-2.70302 2.93318,-3.97921c-0.6745,0.36563 -1.43199,0.58191 -2.16823,0.80277c-0.81399,0.2442 -1.68579,0.25652 -2.5,0.5c-3.3609,1.00505 -5.59436,2.08672 -9.21237,2.10364c-5.12019,0.02396 -10.13088,-0.03732 -15.2062,-0.50852c-3.1014,-0.28794 -6.32119,0.61121 -9.31422,-0.70922c-1.8154,-0.80089 -4.08692,-3.36297 -5.36821,-4.64426c-0.66102,-0.94914 -1.64571,-1.74108 -1.98307,-2.84743c-1.425,-4.67332 1.87429,-13.86261 6.58114,-15.66228c1.0253,-0.39202 2.19315,-0.10397 3.29057,-0.12829c3.56667,-0.07902 7.24296,0.32327 10.7938,0.00852c2.12556,-0.18841 4.13702,-1.0587 6.23223,-1.46318c2.75674,-0.5322 5.58692,-0.71764 8.29685,-1.4519c2.90267,-0.78647 5.17437,-1.79684 8.05573,-2.04003c-0.71209,-1.36718 -1.16008,-2.8346 -1.3264,-4.30881c-0.28152,-0.17955 -0.44777,-0.34579 -0.44777,-0.34579l-0.00003,-0.00001l-0.40618,-0.41402c-1.80413,-1.59277 -3.10777,-2.45999 -4.26199,-4.67883c-2.2482,-4.32184 -0.81113,-9.33714 -0.26729,-13.86256c0.27434,-2.28289 -0.21687,-7.94163 0.69973,-9.88957c2.35575,-5.00638 6.59873,-3.61048 10.28545,-1.80814c0.53715,0.2626 1.3895,0.63942 2.04165,1.06174c0.11541,-0.98191 0.50494,-1.93398 0.75824,-2.89513c0.21002,-0.79696 0.61397,-1.54557 0.73456,-2.36087c0.1363,-0.92148 -0.39565,-1.96477 0.02796,-2.79438c0.0793,-0.15529 0.16454,-0.30665 0.25491,-0.45463l-0.0939,-0.04174l1.03219,-2.32244c0.37715,-0.90257 1.26837,-1.5368 2.30771,-1.5368c1.1246,0 2.07576,0.74256 2.38993,1.76412l1.03715,3.11143l-0.0192,0.0064l0.04023,0.05971c0.54205,1.99299 1.229,4.10506 1.35277,6.19023c0.01819,0.30649 -0.57394,0.80541 -0.27582,0.87882c0.43093,0.10611 0.71701,-0.59057 1.15497,-0.66233c0.94984,-0.15562 1.92613,-0.04647 2.88751,0c2.76158,0.13351 5.84756,0.38711 8.52338,1.09661c0.4828,0.12802 0.8701,0.67599 1.36598,0.61605c1.04865,-0.12677 0.51448,-2.04997 0.71745,-3.08657c0.6309,-3.22219 0.58542,-9.3499 6.79357,-7.95887c1.57421,0.35272 1.64909,2.78347 2.28738,4.26506c0.36627,0.85017 1.08602,3.79054 1.53404,5.93177c0.58967,-0.35083 1.2004,-0.60977 1.87189,-0.60332c4.85334,0.04659 5.99336,5.11301 6.1907,8.70771c0.47888,8.72289 -1.65804,18.24128 -6.48517,25.52103c0,0 -0.67802,1.01704 -1.79702,1.15472c1.79063,2.26648 4.31486,2.11879 7.21281,2.10599zM303.37874,139.31223c-1.61873,-0.80936 -1.74119,-2.73653 -1.21792,-4.44015c0.21967,-1.67097 1.2168,-3.49718 2.24612,-4.20728c0.18018,-0.36699 0.42802,-0.71833 0.73907,-1.02939c2.06628,-2.06628 5.83907,-0.35625 8.7609,-0.3125c4.07596,0.06103 5.21065,5.87942 4.46414,9.7083c0.06545,0.00012 0.13112,0.00018 0.19701,0.00018c0,0 1.45074,0 2.14195,1.10513c0.76885,-0.0467 1.55327,-0.09423 2.3454,-0.1348c0.66255,-4.57844 3.77456,-12.05562 6.4082,-12.61233c1.03436,-0.21865 2.04601,-0.39188 3.0225,-0.50819c-0.82978,-0.11097 -1.6917,-0.45533 -2.51386,-0.57167c-3.44564,-0.48757 -6.73775,-0.94204 -10.22427,-1.01414c-1.37441,-0.02842 -2.97965,0.63025 -4.1219,-0.13465c-0.78539,-0.52594 -1.32353,-1.56669 -1.71904,-2.8048c-0.1203,0.33478 -0.22705,0.61447 -0.31005,0.8193c-0.61958,1.52903 -0.82073,3.75886 -2.361,4.34996c-3.05343,1.17179 -6.69314,-4.73306 -9.65256,-4.00007c-0.75453,0.18688 -0.52712,4.98607 -0.57718,5.56203c-0.3428,3.94399 -2.55748,10.75545 -0.53967,14.45007c0.44441,0.81372 0.99437,1.4033 1.60985,1.95376c0.95928,-2.00928 2.62585,-3.74074 5.06163,-4.86528c1.93633,-0.89395 3.69882,-1.29616 5.47355,-1.47316c0.12109,-0.3067 0.30107,-0.58372 0.52602,-0.8171c1.33318,-3.59358 0.56729,-4.07975 -1.84813,-4.06976c0.21274,2.99834 -5.24058,6.38164 -7.91076,5.04655zM343.61404,135.95253c-0.0955,1.5339 -0.46043,3.12974 -1.65323,4.15214c-1.86848,1.60156 -5.90668,1.06855 -6.87361,-1.27283c-0.62915,-1.52346 -0.44449,-3.36915 -0.4112,-4.94712c0.01397,-0.66204 1.17429,-1.84005 0.51673,-1.91818c-0.2397,-0.02848 -3.5879,-0.12085 -3.97608,0.18702c-1.03304,0.81929 -2.6897,5.65355 -3.18682,7.75565c3.32363,0.09335 6.49507,0.59703 8.93089,2.09142c2.23611,1.37187 4.34789,4.49487 5.3806,7.84556c2.92967,-5.36743 4.06239,-11.53028 4.33474,-17.65322l0.00001,-0.00002c0.03185,-0.716 0.28422,-7.58407 -1.59431,-6.22083l-1.08582,1.95448c-0.3911,0.7368 -1.13992,1.25467 -2.01494,1.32207c1.20737,1.45777 1.82472,3.62508 1.63304,6.70385zM339.29425,126.9571l-0.26153,-2.87689l0.30533,-0.02776c-0.46677,-1.48772 -0.87082,-2.9957 -1.22529,-4.51036c-0.00521,-0.02226 -0.04935,-0.11406 -0.11494,-0.25585c-0.02728,0.17455 -0.05512,0.34893 -0.08294,0.52313c-0.4604,2.88237 -0.67419,5.56366 -4.03174,6.93948c-0.00429,0.00176 -0.00859,0.0035 -0.01289,0.00523c2.08064,-0.13034 3.9595,0.04541 5.50134,0.65195c-0.03889,-0.14487 -0.0651,-0.29493 -0.07734,-0.44893z" fill="#000000"/><path d="M324.88214,156.00424c2.08013,1.38675 3.3679,-0.67924 3.3679,-0.67924c0.52769,-0.79153 1.06538,-1.61981 1.59307,-2.41134l1.16973,-2.01025c0,0 1.27063,-2.07532 -0.89998,-3.31566l-0.00001,0.00002c-0.02242,-0.01281 -0.07416,-0.12085 -0.09639,-0.13294c0.01232,-0.31771 -0.0089,-1.48193 -0.90055,-2.165c1.83497,0.01135 3.80369,0.15401 5.37153,1.00074c2.29278,1.23825 5.39843,5.14401 5.22419,7.51107c-0.03453,0.46918 0.385,5.52632 0.0372,5.84311c-1.21251,1.10439 -4.16926,2.92732 -5.66735,3.59482c-1.68606,0.56011 -4.14714,0.55803 -5.83529,1.09842c-0.31901,-0.66724 -2.85115,-7.25911 -2.85115,-7.25911c-0.13535,-0.49109 -0.53242,-1.08766 -0.5129,-1.07464z" data-paper-data="{&quot;noHover&quot;:false,&quot;origItem&quot;:[&quot;Path&quot;,{&quot;applyMatrix&quot;:true,&quot;segments&quot;:[[[650.88511,314.12663],[-0.2707,-0.98218],[0,0]],[[653.69239,315.32181],[0,0],[0.67844,1.32072]],[[656.53161,328.58399],[-0.63802,-1.33448],[3.3763,-1.08078]],[[668.14237,326.38128],[-3.37212,1.12022],[2.99618,-1.335]],[[679.41377,319.23503],[-2.42502,2.20878],[0.6956,-0.63358]],[[679.32416,307.61684],[-0.06906,0.93836],[0.34848,-4.73412]],[[668.95011,292.67803],[4.58556,2.4765],[-3.13568,-1.69346]],[[658.26359,290.67447],[3.66994,0.0227],[1.7833,1.36614]],[[660.06265,295.00513],[0.02464,-0.63542],[0.04446,0.02418]],[[660.19661,295.07985],[-0.04484,-0.02562],[0,0]],[[660.19663,295.07981],[0,0],[4.34122,2.48068]],[662.05715,301.90173],[[659.76543,305.88835],[0,0],[-1.05538,1.58306]],[[656.59931,310.63753],[1.05538,-1.58306],[0,0]],[[649.66555,312.02429],[4.16026,2.7735],[-0.03906,-0.02604]],[[649.55019,311.94581],[0.03786,0.02628],[0.57392,0.49856]]],&quot;closed&quot;:true,&quot;fillColor&quot;:[0,0,0,1]}]}" fill="#ff6cbf"/><path d="M325.10476,172.0019c2.69264,0 5.61045,-0.52988 7.6746,1.68795c1.49676,1.6082 0.86967,3.83574 0.86967,5.84657c0,4.09405 -0.65485,7.8365 -1.21826,11.87284c-1.6819,1.56782 -2.51996,1.70366 -4.81481,1.69038c-4.15369,-0.02404 -9.84385,0.10627 -12.35134,-4.19889c-0.32965,-0.56599 -0.21143,-3.54141 -0.21143,-3.83585c0,-5.16904 1.5728,-12.92352 7.70034,-13.0625z" data-paper-data="{&quot;noHover&quot;:false,&quot;origItem&quot;:[&quot;Path&quot;,{&quot;applyMatrix&quot;:true,&quot;segments&quot;:[[[316.38909,209.65625],[0,0],[-6.12753,0.13898]],[[308.72924,222.65625],[0,-5.16904],[0,0.29444]],[[308.93342,226.47661],[-0.32965,-0.56599],[2.50748,4.30516]],[[321.22924,230.65625],[-4.15369,-0.02404],[2.29484,0.01328]],[[326.02505,228.97661],[-1.6819,1.56782],[0.5634,-4.03634]],[[327.22924,217.15625],[0,4.09405],[0,-2.01083]],[[326.37275,211.3306],[1.49676,1.6082],[-2.06415,-2.21783]],[[318.72924,209.65625],[2.69264,0],[0,0]]],&quot;closed&quot;:true}]}" fill="#ff6cbf"/></g></g></svg>