<svg version="1.1" xmlns="http://www.w3.org/2000/svg" xmlns:xlink="http://www.w3.org/1999/xlink" width="704" height="377.3125" viewBox="0,0,704,377.3125"><g transform="translate(32.45,7.05464)"><g data-paper-data="{&quot;isPaintingLayer&quot;:true}" fill-rule="nonzero" stroke-linejoin="miter" stroke-miterlimit="10" stroke-dasharray="" stroke-dashoffset="0" style="mix-blend-mode: normal"><path d="M-32.45,364.94536v-372h704v372z" fill="#333333" stroke="none" stroke-width="0" stroke-linecap="butt"/><path d="M58.05,369.25786v-73h97v73z" fill="#2b2b2b" stroke="#000000" stroke-width="2" stroke-linecap="butt"/><path d="M58.05,297.41409v-230h97v230z" fill-opacity="0.50196" fill="#3f5980" stroke="#000000" stroke-width="2" stroke-linecap="butt"/><text transform="translate(65.67618,323.36202) scale(0.5,0.5)" font-size="40" xml:space="preserve" fill-opacity="0.50196" fill="#000000" fill-rule="nonzero" stroke="none" stroke-width="1" stroke-linecap="butt" stroke-linejoin="miter" stroke-miterlimit="10" stroke-dasharray="" stroke-dashoffset="0" font-family="&quot;ヒラギノ角ゴ Pro W3&quot;, &quot;Hiragino Kaku Gothic Pro&quot;, Osaka, &quot;メイリオ&quot;, Meiryo, &quot;ＭＳ Ｐゴシック&quot;, &quot;MS PGothic&quot;" font-weight="normal" text-anchor="start" style="mix-blend-mode: normal"><tspan x="0" dy="0">houndeye</tspan></text><path d="M187.55,369.25786v-73h97v73z" fill="#2b2b2b" stroke="#000000" stroke-width="2" stroke-linecap="butt"/><path d="M187.55,297.41409v-230h97v230z" fill-opacity="0.50196" fill="#3f5980" stroke="#000000" stroke-width="2" stroke-linecap="butt"/><text transform="translate(195.17618,323.36202) scale(0.5,0.5)" font-size="40" xml:space="preserve" fill-opacity="0.50196" fill="#000000" fill-rule="nonzero" stroke="none" stroke-width="1" stroke-linecap="butt" stroke-linejoin="miter" stroke-miterlimit="10" stroke-dasharray="" stroke-dashoffset="0" font-family="&quot;ヒラギノ角ゴ Pro W3&quot;, &quot;Hiragino Kaku Gothic Pro&quot;, Osaka, &quot;メイリオ&quot;, Meiryo, &quot;ＭＳ Ｐゴシック&quot;, &quot;MS PGothic&quot;" font-weight="normal" text-anchor="start" style="mix-blend-mode: normal"><tspan x="0" dy="0">headcrab</tspan></text><path d="M307.55,369.25786v-73h97v73z" fill="#2b2b2b" stroke="#000000" stroke-width="2" stroke-linecap="butt"/><path d="M307.55,297.41409v-230h97v230z" fill-opacity="0.50196" fill="#3f5980" stroke="#000000" stroke-width="2" stroke-linecap="butt"/><text transform="translate(315.17618,323.36202) scale(0.5,0.5)" font-size="40" xml:space="preserve" fill-opacity="0.50196" fill="#000000" fill-rule="nonzero" stroke="none" stroke-width="1" stroke-linecap="butt" stroke-linejoin="miter" stroke-miterlimit="10" stroke-dasharray="" stroke-dashoffset="0" font-family="&quot;ヒラギノ角ゴ Pro W3&quot;, &quot;Hiragino Kaku Gothic Pro&quot;, Osaka, &quot;メイリオ&quot;, Meiryo, &quot;ＭＳ Ｐゴシック&quot;, &quot;MS PGothic&quot;" font-weight="normal" text-anchor="start" style="mix-blend-mode: normal"><tspan x="0" dy="0">some random</tspan><tspan x="0" dy="46.150000000000006px">electric weapon from hl1</tspan></text><path d="M324.425,262.42972l3,-12.75l10.5,5.5l5.75,-11.25l8.75,9l12,-7.25l5,9l11.75,1l-10,9.25l6.75,7.25l-7.25,5.25l3.25,9l-10.5,-7.75l-8,7.25l-6.5,-8.25l-8,8l-5,-8.5l-10,3.75l5.75,-11.25z" fill="#2b2b2b" stroke="#000000" stroke-width="2" stroke-linecap="round"/></g></g></svg>