<svg version="1.1" xmlns="http://www.w3.org/2000/svg" xmlns:xlink="http://www.w3.org/1999/xlink" width="648" height="366" viewBox="0,0,648,366"><defs><linearGradient x1="-3.5" y1="180.3125" x2="644.5" y2="180.3125" gradientUnits="userSpaceOnUse" id="color-1"><stop offset="0" stop-color="#1a1a1a"/><stop offset="1" stop-color="#808080"/></linearGradient></defs><g transform="translate(3.5,2.6875)"><g data-paper-data="{&quot;isPaintingLayer&quot;:true}" fill-rule="nonzero" stroke-linejoin="miter" stroke-miterlimit="10" stroke-dasharray="" stroke-dashoffset="0" style="mix-blend-mode: normal"><path d="M-3.5,363.3125v-366h648v366z" fill="url(#color-1)" stroke="#000000" stroke-width="0" stroke-linecap="butt"/><path d="M128.5,20.3125v323" fill="none" stroke="#000000" stroke-width="5" stroke-linecap="round"/><path d="M6.5,177.8125c-0.35234,-129.59939 121.5,-140.5 121.5,-140.5v281c0,0 -121.09873,7.0937 -121.5,-140.5z" fill="none" stroke="#000000" stroke-width="5" stroke-linecap="butt"/><text transform="translate(135.5,131.0625) scale(1.99512,2.42849)" font-size="40" xml:space="preserve" fill="#000000" fill-rule="nonzero" stroke="none" stroke-width="1" stroke-linecap="butt" stroke-linejoin="miter" stroke-miterlimit="10" stroke-dasharray="" stroke-dashoffset="0" font-family="&quot;Microsoft YaHei&quot;, &quot;微软雅黑&quot;, STXihei, &quot;华文细黑&quot;" font-weight="normal" text-anchor="start" style="mix-blend-mode: normal"><tspan x="0" dy="0">BLACK MESA</tspan></text><path d="M31.83333,272.64583l64.66667,-93.33333h31l0,139.25l-38,-4c0,0 -19.47752,-9.12841 -28.62927,-15.78062c-9.9959,-7.26581 -29.0374,-26.13605 -29.0374,-26.13605z" fill="#000000" stroke="#000000" stroke-width="0" stroke-linecap="round"/><path d="M144,156.625h487" fill="none" stroke="#000000" stroke-width="5" stroke-linecap="round"/><text transform="translate(136,304.28877) scale(1.99154,3.9961)" font-size="40" xml:space="preserve" fill="#000000" fill-rule="nonzero" stroke="none" stroke-width="1" stroke-linecap="butt" stroke-linejoin="miter" stroke-miterlimit="10" stroke-dasharray="" stroke-dashoffset="0" font-family="&quot;Microsoft YaHei&quot;, &quot;微软雅黑&quot;, STXihei, &quot;华文细黑&quot;" font-weight="normal" text-anchor="start" style="mix-blend-mode: normal"><tspan x="0" dy="0">I  N  S  I  D  E</tspan></text></g></g></svg>