<svg version="1.1" xmlns="http://www.w3.org/2000/svg" xmlns:xlink="http://www.w3.org/1999/xlink" width="147.99584" height="79.1371" viewBox="0,0,147.99584,79.1371"><g transform="translate(-271.38943,-147.82816)"><g data-paper-data="{&quot;isPaintingLayer&quot;:true}" fill-rule="nonzero" stroke-linecap="butt" stroke-linejoin="miter" stroke-miterlimit="10" stroke-dasharray="" stroke-dashoffset="0" style="mix-blend-mode: normal"><path d="M272.13943,211.57816v-63h95.25v63z" fill="#ce9c6b" stroke="#523108" stroke-width="1.5"/><path d="M325.91443,195.0625v-31h25v31z" fill="#d6d6d6" stroke="none" stroke-width="0"/><path d="M274.38943,209.07816v-58.25h91v58.25z" fill="none" stroke="#523108" stroke-width="1.5"/><path d="M284.91443,201.86252v-17.8h13.2v17.8z" fill="#ffffff" stroke="none" stroke-width="0"/><path d="M327.76443,168.36806c0,-0.41421 0.33579,-0.75 0.75,-0.75c0.41421,0 0.75,0.33579 0.75,0.75c0,0.41421 -0.33579,0.75 -0.75,0.75c-0.41421,0 -0.75,-0.33579 -0.75,-0.75z" fill="#b59c10" stroke="none" stroke-width="0.5"/><path d="M339.76443,165.25694c0,-0.41421 0.33579,-0.75 0.75,-0.75c0.41421,0 0.75,0.33579 0.75,0.75c0,0.41421 -0.33579,0.75 -0.75,0.75c-0.41421,0 -0.75,-0.33579 -0.75,-0.75z" fill="#429cce" stroke="none" stroke-width="0.5"/><path d="M290.60906,186.55208c0,-0.41421 0.33579,-0.75 0.75,-0.75c0.41421,0 0.75,0.33579 0.75,0.75c0,0.41421 -0.33579,0.75 -0.75,0.75c-0.41421,0 -0.75,-0.33579 -0.75,-0.75z" fill="#b59c10" stroke="none" stroke-width="0.5"/><path d="M296.0535,192.14584c0,0.5 -0.5,0.5 -0.5,0.5h-0.33333c-3.15563,-0.01516 -5.7289,-0.20777 -8.81034,-1.1322c0,0 -0.47891,-0.14367 -0.33524,-0.62258c0.14367,-0.47892 0.62259,-0.33524 0.62259,-0.33524c2.98239,0.89471 5.46559,1.10233 8.52299,1.09002h0.33333c0,0 0.5,0 0.5,0.5z" fill="#000000" stroke="none" stroke-width="0.5"/><path d="M296.27573,193.70139c0,0.5 -0.5,0.5 -0.5,0.5h-0.33334c-2.85719,0 -5.69302,0.11111 -8.55555,0.11111c0,0 -0.5,0 -0.5,-0.5c0,-0.5 0.5,-0.5 0.5,-0.5c2.8626,0 5.69814,-0.11111 8.55555,-0.11111h0.33334c0,0 0.5,0 0.5,0.5z" fill="#000000" stroke="none" stroke-width="0.5"/><path d="M297.38684,199.14584c0,0.5 -0.5,0.5 -0.5,0.5h-0.22222c-1.07106,0 -2.06238,-0.02665 -3.11376,0.21032c0,0 -0.48809,0.10846 -0.59656,-0.37963c-0.10847,-0.48809 0.37963,-0.59656 0.37963,-0.59656c1.12699,-0.24725 2.1848,-0.23413 3.33069,-0.23413h0.22222c0,0 0.5,0 0.5,0.5z" fill="#000000" stroke="none" stroke-width="0.5"/><path d="M296.0535,200.8125c0,0.5 -0.5,0.5 -0.5,0.5c-0.4074,0 -1.37037,0 -1.77777,0c0,0 -0.5,0 -0.5,-0.5c0,-0.5 0.5,-0.5 0.5,-0.5c0.4074,0 0.81482,0 1.22222,0h0.55555c0,0 0.5,0 0.5,0.5z" fill="#000000" stroke="none" stroke-width="0.5"/><g stroke="none"><path d="M306.91443,188.86251v-31h22v31z" fill="#cec6c6" stroke-width="0"/><path d="M325.16443,170.13125c0,0.5 -0.5,0.5 -0.5,0.5c-0.33333,0 -0.96667,0 -1.3,0c-2.12054,-0.00667 -4.27244,-0.48552 -6.36109,-0.80375c-2.0429,-0.31126 -4.74789,0.69464 -6.74085,1.09404c0,0 -0.49029,0.09806 -0.58835,-0.39223c-0.09806,-0.49029 0.39223,-0.58835 0.39223,-0.58835c1.30229,-0.25996 2.82049,-0.7231 4.30472,-0.97888c-1.32532,0.03785 -2.65557,0.06917 -4.00666,0.06917c0,0 -0.5,0 -0.5,-0.5c0,-0.5 0.5,-0.5 0.5,-0.5c3.41074,0 6.69792,-0.2 10.1,-0.2c1.4,0 2.8,0 4.2,0h0.5c0,0 0.5,0 0.5,0.5c0,0.5 -0.5,0.5 -0.5,0.5c-1.4,0 -3.3,0 -4.7,0c-1.02708,0 -2.04291,0.0182 -3.05454,0.04362c1.96384,0.28498 3.96851,0.76376 5.95454,0.75638c0.33333,0 0.66667,0 1,0h0.3c0,0 0.5,0 0.5,0.5z" fill="#000000" stroke-width="0.5"/><path d="M325.26443,172.93125c0,0.5 -0.5,0.5 -0.5,0.5c-0.16667,0 -0.63333,0 -0.8,0c-4.52271,0 -8.96814,-0.3 -13.5,-0.3c0,0 -0.5,0 -0.5,-0.5c0,-0.5 0.5,-0.5 0.5,-0.5c4.53196,0 8.9777,0.3 13.5,0.3c0.16667,0 0.33333,0 0.5,0h0.3c0,0 0.5,0 0.5,0.5z" fill="#000000" stroke-width="0.5"/><path d="M325.06443,180.63125c0,0.5 -0.5,0.5 -0.5,0.5h-0.5c-4.49965,0 -8.9914,-0.3 -13.5,-0.3c0,0 -0.5,0 -0.5,-0.5c0,-0.5 0.5,-0.5 0.5,-0.5c4.50854,0 9.00051,0.3 13.5,0.3h0.5c0,0 0.5,0 0.5,0.5z" fill="#000000" stroke-width="0.5"/><path d="M325.26443,182.93125c0,0.5 -0.5,0.5 -0.5,0.5h-0.2c-2.71199,0 -5.45327,0.12383 -8.15826,-0.05611c-1.67958,-0.11173 -3.83413,-0.64538 -5.45955,-0.35069c0,0 -0.4932,0.0822 -0.5754,-0.411c-0.0822,-0.4932 0.411,-0.5754 0.411,-0.5754c4.19784,-0.6536 9.43482,0.3932 13.7822,0.3932h0.2c0,0 0.5,0 0.5,0.5z" fill="#000000" stroke-width="0.5"/><path d="M316.65332,161.59028c0,-0.41421 0.33579,-0.75 0.75,-0.75c0.41421,0 0.75,0.33579 0.75,0.75c0,0.41421 -0.33579,0.75 -0.75,0.75c-0.41421,0 -0.75,-0.33579 -0.75,-0.75z" fill="#ad5208" stroke-width="0.5"/><path d="M324.75489,175.03906c0,0.5 -0.5,0.5 -0.5,0.5h-0.375c-4.36654,-0.02916 -8.82626,-0.375 -13.25,-0.375c0,0 -0.5,0 -0.5,-0.5c0,-0.5 0.5,-0.5 0.5,-0.5c4.40733,0 8.90647,0.41207 13.25,0.375h0.375c0,0 0.5,0 0.5,0.5z" fill="#000000" stroke-width="0.5"/><path d="M324.50489,177.53906c0,0.5 -0.5,0.5 -0.5,0.5h-0.125c-4.40392,0 -8.63979,-1 -13.125,-1c0,0 -0.5,0 -0.5,-0.5c0,-0.5 0.5,-0.5 0.5,-0.5c4.48352,0 8.72695,1 13.125,1h0.125c0,0 0.5,0 0.5,0.5z" fill="#000000" stroke-width="0.5"/></g><path d="M317.91443,197.9875v-30.8h22v30.8z" fill="#c6c6ce" stroke="none" stroke-width="0"/><path d="M325.62023,173.1567c-0.02978,-0.02457 -0.05801,-0.04919 -0.08474,-0.07385c-0.07545,0.02671 -0.15435,0.05158 -0.23613,0.07446c-0.00089,0.02268 -0.00228,0.04574 -0.00419,0.0692c0.03021,0.06058 0.05833,0.12511 0.08418,0.19377l-0.11262,0.01386c-0.00294,0.01559 -0.00608,0.03133 -0.00941,0.04723h0.12577v0.5c0,0.27614 -0.22386,0.5 -0.5,0.5c-0.27614,0 -0.5,-0.22386 -0.5,-0.5v-0.4597c-0.08865,-0.10497 -1.28269,-0.01355 -2.0004,0.47983c-0.01056,0.26681 -0.2302,0.47987 -0.4996,0.47987c-0.23795,0 -0.43708,-0.16622 -0.48761,-0.38888l-0.12246,-0.48985c-0.24205,-0.99567 -0.38993,-2.10433 -0.38993,-3.12127c0,0 0,-0.5 0.5,-0.5c0.5,0 0.5,0.5 0.5,0.5c0,0.38617 0.021,0.78803 0.0623,1.19115c0,0 0.60766,-0.19115 0.67782,0.19373l0.00988,-0.00988c0.27935,0 0.54707,0.00611 0.79782,0.02291c0.89376,-0.00331 1.70218,0.31533 1.70218,-1.02291v-0.5c0,0 0,-0.5 0.5,-0.5c0.5,0 0.5,0.5 0.5,0.5v0.5c0,0.00485 -0.00002,0.00969 -0.00005,0.01453c2.50901,0.24481 0.72423,3.30638 -0.51282,2.28579z" fill="#000000" stroke="none" stroke-width="0.5"/><text transform="translate(319.03651,177.4239) scale(0.03229,0.03229)" font-size="40" xml:space="preserve" fill="#000000" fill-rule="nonzero" stroke="none" stroke-width="1" stroke-linecap="butt" stroke-linejoin="miter" stroke-miterlimit="10" stroke-dasharray="" stroke-dashoffset="0" font-family="Sans Serif" font-weight="normal" text-anchor="start" style="mix-blend-mode: normal"><tspan x="0" dy="0">The Black Mesa corporation</tspan><tspan x="0" dy="46.150000000000006px">warns you to avoid any contact</tspan><tspan x="0" dy="46.150000000000006px">with cows.</tspan><tspan x="0" dy="46.150000000000006px"> </tspan><tspan x="0" dy="46.150000000000006px">If a cow meets you, please</tspan><tspan x="0" dy="46.150000000000006px">contact theauthorities, or call</tspan><tspan x="0" dy="46.150000000000006px">the Black Mesa guards for help.</tspan><tspan x="0" dy="46.150000000000006px"> </tspan><tspan x="0" dy="46.150000000000006px">Please do not try to fight with</tspan><tspan x="0" dy="46.150000000000006px">the cows, as it may have major</tspan><tspan x="0" dy="46.150000000000006px">consequences.</tspan><tspan x="0" dy="46.150000000000006px"> </tspan><tspan x="0" dy="46.150000000000006px"> </tspan><tspan x="0" dy="46.150000000000006px">Thanks - </tspan></text><text transform="translate(324.75469,196.86235) scale(0.03338,0.03338)" font-size="40" xml:space="preserve" fill="#000000" fill-rule="nonzero" stroke="#000000" stroke-width="3" stroke-linecap="butt" stroke-linejoin="miter" stroke-miterlimit="10" stroke-dasharray="" stroke-dashoffset="0" font-family="Marker" font-weight="normal" text-anchor="start" style="mix-blend-mode: normal"><tspan x="0" dy="0">DA SCIENCE TEAM</tspan></text><text transform="translate(335.23131,197.1815) rotate(-7.97106) scale(0.01172,0.01172)" font-size="40" xml:space="preserve" fill="#000000" fill-rule="nonzero" stroke="none" stroke-width="1" stroke-linecap="butt" stroke-linejoin="miter" stroke-miterlimit="10" stroke-dasharray="" stroke-dashoffset="0" font-family="&quot;ヒラギノ角ゴ Pro W3&quot;, &quot;Hiragino Kaku Gothic Pro&quot;, Osaka, &quot;メイリオ&quot;, Meiryo, &quot;ＭＳ Ｐゴシック&quot;, &quot;MS PGothic&quot;" font-weight="normal" text-anchor="start" style="mix-blend-mode: normal"><tspan x="0" dy="0">(don't fuck with</tspan><tspan x="0" dy="46.150000000000006px">the science team!)</tspan></text><text transform="translate(332.83477,170.09028) scale(0.0249,0.0249)" font-size="40" xml:space="preserve" fill="#000000" fill-rule="nonzero" stroke="none" stroke-width="1" stroke-linecap="butt" stroke-linejoin="miter" stroke-miterlimit="10" stroke-dasharray="" stroke-dashoffset="0" font-family="Malgun Gothic" font-weight="normal" text-anchor="start" style="mix-blend-mode: normal"><tspan x="0" dy="0">printed on</tspan><tspan x="0" dy="46.150000000000006px">windows ME</tspan><tspan x="0" dy="46.150000000000006px">lol</tspan></text><path d="M327.69467,168.3625c0,-0.41422 0.33578,-0.75 0.75,-0.75c0.41422,0 0.75,0.33578 0.75,0.75c0,0.41422 -0.33578,0.75 -0.75,0.75c-0.41422,0 -0.75,-0.33578 -0.75,-0.75z" fill="#ffb800" stroke="none" stroke-width="0.5"/><path d="M330.22057,169.91844c-2.17681,0.10419 2.11768,2.47936 0.83623,0.27851c-0.1312,-0.03318 -0.26055,-0.07393 -0.3883,-0.11857l-0.20995,0.00322c0,0 -0.1881,0 -0.23798,-0.16316zM330.61474,169.58334l0.13386,0.00149c0.20573,0.06616 0.40952,0.13843 0.6117,0.21476c0.498,0.70456 0.31491,1.28453 -0.111,1.61773c0.20925,0.02557 0.20925,0.24761 0.20925,0.24761c-0.01994,0.57409 0.71878,0.85564 0.74779,1.38349c0.03234,0.58846 -0.48859,0.7426 -0.94772,0.65507c0.52763,0.7603 -0.39941,1.2928 -1.37795,1.29477c-0.29593,0.22741 -0.65851,0.25827 -0.96983,-0.2047c-0.13149,-0.19555 0.00628,-0.56215 0.11368,-0.87637c-0.29132,0.06322 -0.57002,-0.02888 -0.71981,-0.42319c-0.13619,-0.35854 0.76608,-1.78911 0.97706,-2.00583c0,0 0.09277,-0.09277 0.21111,-0.0767c-0.06401,-0.06101 -0.12171,-0.13149 -0.17142,-0.2119c-0.50916,-0.82374 0.25774,-1.78463 1.05376,-1.78463c0,0 0.19211,0 0.23952,0.16841zM330.31828,173.30313c0.06391,-0.12781 0.16434,-0.14603 0.23867,-0.13819c-0.0215,-0.06382 -0.05167,-0.21954 0.12313,-0.30694c0.22361,-0.11181 0.33541,0.11181 0.33541,0.11181l0.08333,0.16666c0.03632,0.20085 0.72705,0.14687 0.61194,-0.02168c-0.32545,-0.47657 -0.73889,-0.83723 -0.75221,-1.44985c0,0 0,-0.03566 0.01347,-0.08005c-0.40251,0.18424 -0.90443,0.19617 -1.28344,-0.02617c0.07938,0.15037 -0.05325,0.28299 -0.05325,0.28299c-0.63272,0.61028 -0.64634,1.36865 -0.47125,1.51747c0.03341,-0.05747 0.09556,-0.11091 0.21114,-0.11091c0.0104,0 0.02038,0.00043 0.02993,0.00126c0.0496,-0.07493 0.10051,-0.18318 0.14956,-0.33032l-0.01283,-0.08761c0,0 0,-0.25 0.25,-0.25c0.25,0 0.25,0.25 0.25,0.25l-0.01283,0.24572c-0.05228,0.15686 -0.2064,0.35492 -0.40457,0.52122c0.00324,0.45605 0.09575,0.8241 0.1826,0.90984c0.03868,-0.01011 0.06814,-0.01011 0.06814,-0.01011c0.0033,0 0.00662,-0.00001 0.00996,-0.00002c0.04273,-0.06589 0.07337,-0.24767 0.07337,-0.58331v-0.25c0,0 0,-0.25 0.25,-0.25c0.02948,0 0.05548,0.00348 0.07842,0.00961c-0.00011,-0.03594 0.00881,-0.07642 0.03131,-0.12142zM330.56988,173.70628l-0.11198,-0.05426c0.00065,0.00817 0.00065,0.01291 0.00065,0.01291v0.25c0,0.15883 -0.05723,0.35674 -0.15342,0.54766c0.57774,-0.08911 1.16944,-0.34435 0.26475,-0.75632z" fill="#000000" stroke="none" stroke-width="0.5"/><path d="M324.98702,174.08298c-0.22361,0.1118 -0.33541,-0.1118 -0.33541,-0.1118l-0.10973,-0.27847c0,-0.12941 -0.02864,-0.40428 -0.02927,-0.65967c-0.86016,0.06039 -1.65284,0.49325 -2.47185,0.56664c0.00074,0.03088 0.00112,0.06188 0.00112,0.09304v0.16667c0,0 0,0.25 -0.25,0.25c-0.25,0 -0.25,-0.25 -0.25,-0.25v-0.16667c0,-1.00829 -0.41667,-1.90966 -0.41667,-3c0,0 0,-0.25 0.25,-0.25c0.25,0 0.25,0.25 0.25,0.25c0,0.43917 0.06677,0.84233 0.14686,1.23404c1.03776,-0.38289 3.4397,1.49905 3.4397,-0.94076c0.03518,-0.1066 0.07035,-0.21319 0.10553,-0.31979l0.18323,-0.27884c0,0 0.13868,-0.20801 0.34669,-0.06934c0.20801,0.13868 0.06934,0.34669 0.06934,0.34669l-0.1501,0.22116c-0.01594,0.04699 -0.03188,0.09397 -0.04782,0.14096c0.0405,0.00254 0.06897,0.01203 0.06897,0.01203c0.61129,0.20884 1.86108,1.10965 0.87224,1.79092c-0.1614,0.1112 -1.17615,0.06795 -1.55167,0.04779c-0.02609,0.06877 -0.078,0.10568 -0.1262,0.1255c0.02111,0.21403 0.05991,0.61718 0.05991,0.68963l0.05694,0.05486c0,0 0.1118,0.22361 -0.1118,0.33541z" fill="#c6c6ce" stroke="none" stroke-width="0.5"/><path d="M349.16689,157.63125c0,-0.41421 0.33579,-0.75 0.75,-0.75c0.41421,0 0.75,0.33579 0.75,0.75c0,0.41421 -0.33579,0.75 -0.75,0.75c-0.41421,0 -0.75,-0.33579 -0.75,-0.75z" fill="#ad5208" stroke="none" stroke-width="0.5"/><path d="M352.76689,155.53125c0,-0.41421 0.33579,-0.75 0.75,-0.75c0.41421,0 0.75,0.33579 0.75,0.75c0,0.41421 -0.33579,0.75 -0.75,0.75c-0.41421,0 -0.75,-0.33579 -0.75,-0.75z" fill="#ffb800" stroke="none" stroke-width="0.5"/><path d="M357.76689,156.23125c0,-0.41421 0.33579,-0.75 0.75,-0.75c0.41421,0 0.75,0.33579 0.75,0.75c0,0.41421 -0.33579,0.75 -0.75,0.75c-0.41421,0 -0.75,-0.33579 -0.75,-0.75z" fill="#429cce" stroke="none" stroke-width="0.5"/><text transform="translate(279.25,223.35282) scale(0.28899,0.28899)" font-size="40" xml:space="preserve" fill-opacity="0.25098" fill="#9966ff" fill-rule="nonzero" stroke="none" stroke-width="1" stroke-linecap="butt" stroke-linejoin="miter" stroke-miterlimit="10" stroke-dasharray="" stroke-dashoffset="0" font-family="Sans Serif" font-weight="normal" text-anchor="start" style="mix-blend-mode: normal"><tspan x="0" dy="0">but wlodekm wasn't here</tspan></text></g></g></svg>