<svg version="1.1" xmlns="http://www.w3.org/2000/svg" xmlns:xlink="http://www.w3.org/1999/xlink" width="236" height="225" viewBox="0,0,236,225"><defs><radialGradient cx="313.65556" cy="100.08003" r="95.5" gradientUnits="userSpaceOnUse" id="color-1"><stop offset="0" stop-color="#fcce7e"/><stop offset="1" stop-color="#a68753"/></radialGradient></defs><g transform="translate(-202,-63.73017)"><g data-paper-data="{&quot;isPaintingLayer&quot;:true}" fill-rule="nonzero" stroke="#000000" stroke-linejoin="miter" stroke-miterlimit="10" stroke-dasharray="" stroke-dashoffset="0" style="mix-blend-mode: normal"><path d="M203,287.73017v-223h234v223z" fill="#c0c0c0" stroke-width="2" stroke-linecap="butt"/><path d="M410.33334,204.85518v-35.66666h23v35.66666z" fill="#272727" stroke-width="2" stroke-linecap="butt"/><path d="M413.33334,186.18852c0,-4.78647 3.88019,-8.66667 8.66666,-8.66667c4.78647,0 8.66666,3.8802 8.66666,8.66667c0,4.78647 -3.88019,8.66667 -8.66666,8.66667c-4.78647,0 -8.66666,-3.8802 -8.66666,-8.66667z" fill="#272727" stroke-width="2" stroke-linecap="butt"/><path d="M231.75,287.26988v-191h175v191z" fill="url(#color-1)" stroke-width="2" stroke-linecap="butt"/><path d="M234.75,272.40625v-29h168.5v30.5" fill="none" stroke-width="2" stroke-linecap="round"/><path d="M231.75,286.40626v-15h175v15z" fill="#423929" stroke-width="2" stroke-linecap="butt"/><path d="M427.11112,184.44031l-4.81446,4.81446l-4.78555,-4.78554z" fill="#000000" stroke-width="0.5" stroke-linecap="round"/><path d="M297.625,276.82813h-41.25" fill="none" stroke-width="2" stroke-linecap="round"/><path d="M255.875,280.07813h41.75" fill="none" stroke-width="2" stroke-linecap="round"/><path d="M383.125,276.32813h-41.5" fill="none" stroke-width="2" stroke-linecap="round"/><path d="M341.375,280.07813h41.75" fill="none" stroke-width="2" stroke-linecap="round"/><path d="M317.75,103.65625v167" fill="none" stroke-width="2" stroke-linecap="round"/><path d="M231.75,103.15625h173.5" fill="none" stroke-width="2" stroke-linecap="round"/><path d="M403.25,104.15625v130.5h-168.25v-130.5" fill="none" stroke-width="2" stroke-linecap="round"/><path d="M357.25,249.53125v-5.75h8.75v5.75z" fill="#423929" stroke-width="2" stroke-linecap="butt"/><path d="M271.5,249.78125v-6h8.5v6z" fill="#423929" stroke-width="2" stroke-linecap="butt"/></g></g></svg>