<svg version="1.1" xmlns="http://www.w3.org/2000/svg" xmlns:xlink="http://www.w3.org/1999/xlink" width="85.25105" height="44.71875" viewBox="0,0,85.25105,44.71875"><g transform="translate(-279.5823,-165.53125)"><g data-paper-data="{&quot;isPaintingLayer&quot;:true}" fill-rule="nonzero" stroke-linejoin="miter" stroke-miterlimit="10" stroke-dasharray="" stroke-dashoffset="0" style="mix-blend-mode: normal"><path d="M284.08334,190v-20h80.5v20z" fill="#353535" stroke="#000000" stroke-width="0.5" stroke-linecap="butt"/><path d="M279.8323,169.98125v-4.2h4.2v4.2z" fill="#151515" stroke="#000000" stroke-width="0.5" stroke-linecap="butt"/><text transform="translate(281.20548,168.67472) scale(0.06232,0.06232)" font-size="40" xml:space="preserve" fill="#ffffff" fill-rule="nonzero" stroke="none" stroke-width="1" stroke-linecap="butt" stroke-linejoin="miter" stroke-miterlimit="10" stroke-dasharray="" stroke-dashoffset="0" font-family="Malgun Gothic" font-weight="normal" text-anchor="start" style="mix-blend-mode: normal"><tspan x="0" dy="0">1</tspan></text><g fill="none" stroke="#ffffff" stroke-linecap="round"><path d="M349.61067,181.25952l-5.6053,0.28598l0.68637,-1.14394l-0.52449,-3.12821l1.32155,0.00301l0.28968,2.95361l3.7178,-0.17159z" data-paper-data="{&quot;index&quot;:null}" stroke-width="0.5"/><path d="M348.9485,178.68153l-1.31992,1.27594l0.74795,-2.24389" data-paper-data="{&quot;index&quot;:null}" stroke-width="0.25"/><path d="M358.92969,172.31995l0.24512,4.49404l-2.28788,2.04275l2.69642,7.35389l-0.98052,2.04276l-6.70022,-0.16343l-1.96104,-2.45129l-0.32684,-5.88311l-1.22564,-2.53302h-13.9724v-4.73917z" data-paper-data="{&quot;index&quot;:null}" stroke-width="0.5"/><path d="M353.21408,187.09362h4.51856" data-paper-data="{&quot;index&quot;:null}" stroke-width="0.5"/><path d="M354.27072,172.56558l-2.09071,1.39475h-9.69337v-1.32455" data-paper-data="{&quot;index&quot;:null}" stroke-width="0.5"/><path d="M334.8403,175.70634h24.08293" data-paper-data="{&quot;index&quot;:null}" stroke-width="0.5"/><path d="M350.40042,177.09763h6.46765" data-paper-data="{&quot;index&quot;:null}" stroke-width="0.5"/></g><path d="M284.06307,169.98125v-4.2h4.2v4.2z" fill="#ffffff" stroke="#000000" stroke-width="0.5" stroke-linecap="butt"/><text transform="translate(285.43625,168.67472) scale(0.06232,0.06232)" font-size="40" xml:space="preserve" fill="#141414" fill-rule="nonzero" stroke="none" stroke-width="1" stroke-linecap="butt" stroke-linejoin="miter" stroke-miterlimit="10" stroke-dasharray="" stroke-dashoffset="0" font-family="Malgun Gothic" font-weight="normal" text-anchor="start" style="mix-blend-mode: normal"><tspan x="0" dy="0">2</tspan></text><path d="M284.08335,210v-20h80.5v20z" fill="#141414" stroke="#000000" stroke-width="0.5" stroke-linecap="butt"/><g fill="none" stroke="#ffffff" stroke-width="0.5" stroke-linecap="round"><path d="M353.39632,192.74331l0.49995,-0.85408l0.45828,2.64554l0.2708,0.02084l0.37496,0.22914l1.64565,-0.89574l0.12498,0.12498v0.6041l-1.06238,1.27069c0,0 2.45348,0.69463 3.06216,1.09364c0.55728,0.3653 3.16632,6.42639 3.16632,6.42639l0.39578,4.37451l-6.041,-0.99989l1.04154,-6.06183c0,0 -4.85841,2.18282 -5.74936,2.10394c-0.89095,-0.07888 -2.06226,-0.99989 -2.06226,-0.99989l-0.8124,-1.99978l-1.93729,-0.10416l-0.95824,-3.27048l-13.91513,-0.12498l-0.24997,-0.58327l0.16664,-0.47911l-0.3333,-0.56244l0.55203,-2.77052c0,0 0.5529,0.02737 0.90492,0.13673c0.59116,0.18366 2.31347,0.86315 2.31347,0.86315z" data-paper-data="{&quot;index&quot;:null}"/><path d="M345.27745,193.9704h-2.24974" data-paper-data="{&quot;index&quot;:null}"/><path d="M337.90325,193.93915h2.21851" data-paper-data="{&quot;index&quot;:null}"/><path d="M334.96607,193.9079l-2.21851,0.03125" data-paper-data="{&quot;index&quot;:null}"/><path d="M345.99612,194.53284v0.49995h-14.31093" data-paper-data="{&quot;index&quot;:null}"/><path d="M353.96397,199.90726c0,0 0.13117,1.66504 -0.84365,1.93729c-0.97483,0.27225 -2.19379,0.01652 -2.59346,0c-0.85653,-0.03541 -0.62493,-1.93729 -0.62493,-1.93729h2.09352c0,0 0.08697,0.55123 0.06693,0.8418c-0.02151,0.31198 -0.09818,0.783 -0.09818,0.783c0,0 0.79981,-0.43574 0.96865,-0.71867c0.16884,-0.28293 0.15623,-0.93739 0.15623,-0.93739l0.8749,0.03125z" data-paper-data="{&quot;index&quot;:null}"/></g><path d="M279.83233,174.28125v-4.2h4.2v4.2z" fill="#151515" stroke="#000000" stroke-width="0.5" stroke-linecap="butt"/><path d="M288.2631,169.98125v-4.2h4.2v4.2z" fill="#141414" stroke="#000000" stroke-width="0.5" stroke-linecap="butt"/><text transform="translate(289.63626,168.67472) scale(0.06232,0.06232)" font-size="40" xml:space="preserve" fill="#ffffff" fill-rule="nonzero" stroke="none" stroke-width="1" stroke-linecap="butt" stroke-linejoin="miter" stroke-miterlimit="10" stroke-dasharray="" stroke-dashoffset="0" font-family="Malgun Gothic" font-weight="normal" text-anchor="start" style="mix-blend-mode: normal"><tspan x="0" dy="0">3</tspan></text><path d="M292.56308,169.98125v-4.2h4.2v4.2z" fill="#141414" stroke="#000000" stroke-width="0.5" stroke-linecap="butt"/><text transform="translate(293.93626,168.67472) scale(0.06232,0.06232)" font-size="40" xml:space="preserve" fill="#ffffff" fill-rule="nonzero" stroke="none" stroke-width="1" stroke-linecap="butt" stroke-linejoin="miter" stroke-miterlimit="10" stroke-dasharray="" stroke-dashoffset="0" font-family="Malgun Gothic" font-weight="normal" text-anchor="start" style="mix-blend-mode: normal"><tspan x="0" dy="0">4</tspan></text><path d="M279.83232,178.48125v-4.2h4.2v4.2z" fill="#151515" stroke="#000000" stroke-width="0.5" stroke-linecap="butt"/></g></g></svg>