<svg version="1.1" xmlns="http://www.w3.org/2000/svg" xmlns:xlink="http://www.w3.org/1999/xlink" width="151.14855" height="193.2557" viewBox="0,0,151.14855,193.2557"><defs><linearGradient x1="302.11111" y1="121.71528" x2="389.77778" y2="121.71528" gradientUnits="userSpaceOnUse" id="color-1"><stop offset="0" stop-color="#ff0000" stop-opacity="0.25882"/><stop offset="1" stop-color="#ff0000" stop-opacity="0"/></linearGradient></defs><g transform="translate(-260.05133,-90.74824)"><g data-paper-data="{&quot;isPaintingLayer&quot;:true}" fill-rule="nonzero" stroke-linejoin="miter" stroke-miterlimit="10" stroke-dasharray="" stroke-dashoffset="0" style="mix-blend-mode: normal"><path d="M316.76712,204.83496c-0.34445,-0.54378 -0.96793,-1.02388 -2.07078,-1.02388c-2.5,0 -2.53465,2.50951 -2.53465,2.50951l0.00875,1.56706c0,8.68677 0.14049,17.04637 1.27448,25.62256c-4.14254,2.30013 -8.67019,8.78426 -10.44171,13.21079c-1.45755,3.64202 -1.07732,8.56589 -3.40843,11.84992c-1.68471,2.37339 -5.09875,6.09996 -7.94429,7.00484c-3.24788,1.03282 -9.38272,-1.86991 -11.91508,-3.64777c-2.25052,-1.57999 -4.2477,-3.63135 -6.13742,-5.61113c-0.66661,-1.96462 2.1138,-2.00734 3.64761,-3.77709c0.63967,-0.73807 0.83476,-1.80729 1.51543,-2.50773c1.27494,-1.31196 3.24194,-1.7169 4.73181,-2.77849c4.48938,-3.19888 9.81258,-6.59075 13.6283,-10.59408c2.77439,-2.9108 2.68782,-5.20481 2.69039,-9.0103c0.00339,-5.01868 -0.35402,-10.00839 -0.34918,-15.0121c0,0 0.07537,-0.08068 0.07421,-0.10829c0.24417,-0.02135 0.4131,0.02318 0.65687,0.00042c-0.08215,-3.77337 -1.71186,-7.32258 -2.08589,-10.97257c0.08762,-0.01905 0.17533,-0.03929 0.26313,-0.06037c1.06423,-0.25549 1.934,-1.04614 2.95983,-1.42763c3.72176,-1.38405 9.56098,-2.06113 11.98934,-5.75698c1.95922,-2.98184 0.64658,-8.2432 -1.04682,-10.90167c-2.36496,-3.71273 -5.48753,-3.68112 -8.73163,-5.21713c-0.26346,-0.33228 -0.59842,-0.54474 -0.91999,-0.68002c-0.53189,-1.27049 -1.09449,-2.68076 -1.5462,-4.01227c0.3329,-4.76454 0.31416,-9.55359 -0.05012,-14.33176l0.00788,-1.8084c0,0 0.02752,-2.40388 -2.47248,-2.40388l-0.00001,-0.00004c-1.21966,0 -1.84189,0.59422 -2.16179,1.20369c-1.36872,0.60877 -1.36664,2.28106 -1.36664,2.28106c0,3.70951 -0.59625,8.03581 0.02978,11.67735c0.2433,1.41526 0.61877,2.84466 1.07022,4.2636c-0.08077,0.92645 -0.17812,1.84644 -0.29871,2.76093c0.07626,0.04131 0.15167,0.08373 0.22658,0.127c-0.114,0.78924 0.18479,1.48333 0.18479,1.48333c0.51003,1.03877 0.6578,2.21202 1.4698,3.03653c1.7786,1.80601 6.13371,3.03856 8.50632,3.65088l0.17163,0.67587c0,0 0.94524,0.93799 2.13967,0.76177c0.82764,1.64209 1.34421,3.74975 0.53009,4.93006c-0.88259,1.27956 -5.21267,2.46556 -6.5835,2.89272c-1.30491,0.40662 -2.53348,1.01782 -3.81077,1.50296c0.01698,-0.11001 0.03342,-0.219 0.05004,-0.32904c-0.9289,0.66675 -1.97475,1.17142 -3.10362,1.48967c-0.49148,0.00235 -0.88538,0.10044 -1.2015,0.25842c-0.49483,0.07533 -1.00142,0.11342 -1.51729,0.11342c-1.65447,0 -3.31359,-0.41913 -4.68813,-1.13045c-1.04778,-0.54223 -1.98684,-1.2671 -2.7775,-2.12819c-3.07119,-4.73644 -0.81872,-9.71831 -0.78963,-15.44727c0,0 0.00084,-1.18043 -0.8092,-1.91909c0.02869,-0.73102 0.08213,-1.4847 0.16487,-2.28239c0.74031,-7.13686 1.94133,-14.13411 2.4202,-21.29882c0.20301,-3.03736 -0.00777,-5.88926 1.06473,-8.63c1.3396,-0.90887 2.57034,-2.11133 3.14288,-2.99569c0.85288,-0.45002 1.7314,-0.8232 2.45865,-1.14743c1.54017,-0.68667 3.08097,-1.40879 4.69803,-1.8871l1.40082,-0.65875c0,0 1.00279,-0.50103 1.33013,-1.50261c3.77026,-0.24964 1.49415,3.65656 4.11815,6.1106c1.22906,1.14945 4.15233,1.86583 6.98203,2.11347c0.77067,0.03397 1.54398,0.06653 2.316,0.09687c1.35911,-0.00904 2.56659,-0.14482 3.37467,-0.41262c1.88892,-0.62599 4.95001,-3.25813 5.66084,-5.13056c0.36164,-0.95262 -0.06409,-1.94013 -0.15579,-2.95495c-0.00172,-0.01901 0.01051,-0.13739 0.00595,-0.15744c0.38338,0.21216 0.70661,0.28672 0.70661,0.28672c3.22048,0.7154 7.22675,1.96701 9.59008,4.43827c0.35018,1.56589 1.15002,3.25858 1.55624,4.98315c0.03776,7.34397 0.65974,14.67819 0.78555,22.03325l-0.02851,0.08128c0,0 -0.11455,0.57715 0.04632,1.22702c0.0031,0.35389 0.00559,0.70833 0.00603,1.06236c-0.42777,0.36749 -0.76558,0.94928 -0.76558,1.86902c0,2.5 2.50373,2.50316 2.50373,2.50316c0.32864,-0.00014 7.03838,-0.02 7.53083,0.06297c0.95612,0.16108 0.17571,1.93647 0.34908,2.89044c0.61808,3.40103 1.9512,6.42533 1.35022,10.06222c-0.83545,5.05573 -7.08831,4.23858 -10.83913,4.04328c-0.90406,-0.04707 -3.4492,-0.20251 -4.36932,-0.88036c-0.84872,-0.62526 -2.79233,-3.95136 -3.13575,-4.49744c-1.12322,-1.13337 -2.69014,-1.96643 -3.3214,-3.43193c-0.85276,-1.97972 -0.12248,-5.65206 -0.49197,-7.77596c-1.22801,-7.05885 -0.40673,-14.3585 -1.30332,-21.53128l0.0195,-1.02321c0,0 0.00284,-2.49948 -2.49716,-2.49948c-2.5,0 -2.49787,2.50028 -2.49787,2.50028l0.03047,1.54405c0.90821,7.26563 0.07758,14.63667 1.36075,21.80018c0.50073,2.7954 -0.28947,6.2421 0.84228,8.88964c0.55779,1.30486 2.95228,3.51627 4.01766,4.57089c1.10427,1.77852 2.45599,4.28367 4.20126,5.50955c0.77974,0.54769 1.69556,0.88432 2.62288,1.1485c0.04176,0.42844 0.08976,0.86111 0.14175,1.29115c-0.09207,0.36933 -0.09179,0.6477 -0.09179,0.6477l0.2645,2.12372c1.38068,2.6735 3.11193,4.59222 5.20013,6.16296c0.14357,0.55225 0.4167,0.93676 0.4167,0.93676c2.89182,3.9996 6.73829,7.34879 10.31236,10.75662c1.16834,1.114 2.21628,2.35823 3.44912,3.40039c0.30302,0.25615 1.23826,0.07639 1.10236,0.44918c-0.25414,0.69716 -1.2346,0.8417 -1.76316,1.3625c-0.85344,0.8409 -1.6203,1.77331 -2.36763,2.70977c-1.30254,1.63218 -3.20285,4.65724 -4.1858,6.26648c-4.3804,7.17136 -5.76581,15.81402 -10.62668,22.58704c-1.2608,2.04776 -2.04496,4.43246 -3.63841,6.23352c-1.19934,1.3556 -2.75118,0.3225 -4.15064,0.0288c-4.04698,-0.84934 -7.88498,-0.88927 -11.76812,-1.31676c-0.2625,-0.0289 0.51129,-0.31756 0.65975,-0.53596c0.84389,-1.24141 1.51902,-2.58816 2.27409,-3.88551c1.30928,-2.2496 2.7351,-4.43393 3.90346,-6.75984c1.74028,-3.46443 2.49834,-6.46481 3.50841,-10.12358c1.73573,-6.28734 4.11505,-11.68132 0.7624,-17.90839c-2.40196,-4.31357 -3.79089,-8.70942 -5.51347,-13.30972l-2.24114,-2.55514c0,0 0.06078,0.05481 0.03616,0.03239z" data-paper-data="{&quot;noHover&quot;:false,&quot;origItem&quot;:[&quot;Path&quot;,{&quot;applyMatrix&quot;:true,&quot;segments&quot;:[[633.53553,409.6728],[[638.01498,414.78605],[0,0],[3.44516,9.20059]],[[649.02275,441.4205],[-4.80391,-8.62714],[6.70531,12.45415]],[[647.47458,477.24756],[3.47146,-12.57468],[-2.02014,7.31756]],[[640.44515,497.49758],[3.48056,-6.92887],[-2.33673,4.65181]],[[632.62926,511.01825],[2.61856,-4.4992],[-1.51014,2.59471]],[[628.07675,518.78947],[1.68779,-2.48282],[-0.29693,0.4368]],[[626.75374,519.66142],[-0.525,-0.0578],[7.76629,0.85498]],[[650.27087,522.29702],[-8.09396,-1.69867],[2.79891,0.5874]],[[658.5658,522.24096],[-2.39868,2.7112],[3.18691,-3.60213]],[[665.83407,509.7767],[-2.5216,4.09552],[9.72175,-13.54606]],[[687.05236,464.62507],[-8.76079,14.34273],[1.9659,-3.21848]],[[695.4128,452.10521],[-2.60508,3.26436],[1.49467,-1.87293]],[[700.14357,446.69256],[-1.70687,1.68181],[1.05713,-1.04161]],[[703.6676,443.97161],[-0.50827,1.39432],[0.27178,-0.74557]],[[701.463,443.07301],[0.60604,0.51231],[-2.46569,-2.08432]],[[694.56314,436.27536],[2.33668,2.22799],[-7.14814,-6.81566]],[[673.93133,414.78119],[5.78363,7.9992],[0,0]],[[673.09717,412.91086],[0.28713,1.10449],[-4.17641,-3.14147]],[[662.69455,400.61107],[2.76135,5.34699],[0,0]],[662.16669,396.37501],[[662.35083,395.08287],[-0.18414,0.73866],[-0.10398,-0.86008]],[[662.06883,392.50721],[0.08352,0.85688],[-1.85464,-0.52836]],[[656.82629,390.22027],[1.55948,1.09538],[-3.49054,-2.45176]],[[648.44633,379.23615],[2.20854,3.55704],[-2.13076,-2.10924]],[[640.43939,370.11437],[1.11558,2.60972],[-2.2635,-5.29508]],[[638.77141,352.34115],[1.00146,5.5908],[-2.56634,-14.32702]],[[636.06451,308.74357],[1.81642,14.53126],[0,0]],[636.02589,305.45673],[[641.02589,300.45673],[-5,0],[5,0]],[646.02589,305.45673],[[645.98729,307.50323],[0,0],[1.79318,14.34556]],[[648.61373,350.57233],[-2.45602,-14.1177],[0.73898,4.2478]],[[649.61241,366.13245],[-1.70552,-3.95944],[1.26252,2.931]],[[656.27213,373.01065],[-2.24644,-2.26674],[0.68684,1.09216]],[[662.55883,382.02653],[-1.69744,-1.25052],[1.84024,1.3557]],[[671.30239,383.79773],[-1.80812,-0.09414],[7.50164,0.3906]],[[692.79467,375.78475],[-1.6709,10.11146],[1.20196,-7.27378]],[[690.10613,355.68219],[1.23616,6.80206],[-0.34674,-1.90794]],[[689.41173,349.90621],[1.91224,0.32216],[-0.9849,-0.16594]],[[674.35923,349.79007],[0.65728,-0.00028],[0,0]],[[669.35923,344.79007],[0,5],[0,-1.83948]],[[670.89149,341.05287],[-0.85554,0.73498],[-0.00088,-0.70806]],[[670.88075,338.92911],[0.0062,0.70778],[-0.32174,-1.29974]],[670.78965,336.47615],[[670.84671,336.31363],[0,0],[-0.25162,-14.71012]],[[669.29533,292.25771],[0.07552,14.68794],[-0.81244,-3.44914]],[[666.18773,282.29321],[0.70036,3.13178],[-4.72666,-4.94252]],[[647.02321,273.42063],[6.44096,1.4308],[0,0]],[[645.61111,272.84737],[0.76676,0.42432],[0.00912,0.0401]],[[645.63017,272.96465],[-0.00344,-0.03802],[0.1834,2.02964]],[[645.90981,279.07197],[0.72328,-1.90524],[-1.42166,3.74486]],[[634.59643,289.33413],[3.77784,-1.25198],[-1.61616,0.5356]],[[627.85303,290.15967],[2.71822,-0.01808],[-1.54404,-0.06068]],[[623.22515,289.96593],[1.54134,0.06794],[-5.6594,-0.49528]],[[609.27287,285.73807],[2.45812,2.2989],[-5.248,-4.90808]],[[601.04145,273.51607],[7.54052,-0.49928],[-0.65468,2.00316]],[598.38361,276.52081],[[595.58427,277.83779],[0,0],[-3.23412,0.95662]],[[586.19581,281.60985],[3.08034,-1.37334],[-1.4545,0.64846]],[[581.28253,283.90331],[1.70576,-0.90004],[-1.14508,1.76872]],[[575.00277,289.89223],[2.6792,-1.81774],[-2.145,5.48148]],[[572.88073,307.14853],[0.40602,-6.07472],[-0.95774,14.32942]],[[568.06575,349.72615],[1.48062,-14.27372],[-0.16548,1.59538]],[[567.73915,354.28733],[0.05738,-1.46204],[1.62008,1.47732]],[[569.35923,358.12341],[0,0],[-0.05818,11.45792]],[[570.95707,388.97969],[-6.14238,-9.47288],[1.58132,1.72218]],[[576.51325,393.23051],[-2.09556,-1.08446],[2.74908,1.42264]],[[585.69255,395.45673],[-3.30894,0],[1.03174,0]],[[588.72747,395.22795],[-0.98966,0.15066],[0.63224,-0.31596]],[[591.13101,394.70843],[-0.98296,0.0047],[2.25774,-0.6365]],[[597.34227,391.71543],[-1.8578,1.3335],[-0.03324,0.22008]],[[597.24145,392.37557],[0.03396,-0.22002],[2.55458,-0.97028]],[[604.87265,389.34951],[-2.60982,0.81324],[2.74166,-0.85432]],[[618.08805,383.52395],[-1.76518,2.55912],[1.62824,-2.36062]],[[617.09231,373.85295],[1.65528,3.28418],[-2.38886,0.35244]],[612.82367,372.32561],[[612.47985,370.97411],[0,0],[-4.74522,-1.22464]],[[595.49033,363.65893],[3.5572,3.61202],[-1.624,-1.64902]],[[592.43013,357.42633],[1.02006,2.07754],[0,0]],[[592.06259,354.45821],[-0.228,1.57848],[-0.14982,-0.08654]],[[591.60911,354.20443],[0.15252,0.08262],[0.24118,-1.82898]],[[592.21141,348.67935],[-0.16154,1.8529],[-0.9029,-2.83788]],[[590.07419,340.15023],[0.4866,2.83052],[-1.25206,-7.28308]],[[590.02585,316.79005],[0,7.41902],[0,0]],[[592.76329,312.22631],[-2.73744,1.21754],[0.6398,-1.21894]],[[597.09167,309.81733],[-2.43932,0],[0,0]],[[597.09169,309.81741],[0,0],[5,0]],[602.09169,314.81741],[[602.07697,318.43393],[0,0],[0.72856,9.55634]],[[602.18921,347.09327],[0.6658,-9.52908],[0.90342,2.66302]],[[605.20355,354.93367],[-1.06378,-2.54098],[0.64314,0.27056]],[[607.04571,356.29281],[-0.52692,-0.66456],[6.4882,3.07202]],[[624.54373,366.71997],[-4.72992,-7.42546],[3.3868,5.31694]],[[626.63037,388.72285],[3.91844,-5.96368],[-4.85672,7.3917]],[[602.76061,400.14615],[7.44352,-2.7681],[-2.05166,0.76298]],[[596.84131,402.98963],[2.12846,-0.51098],[-0.1756,0.04216]],[[596.31503,403.11001],[0.17524,-0.0381],[0.74806,7.29998]],[[600.4606,424.99083],[-0.1643,-7.54673],[-0.48755,0.04552]],[[598.99769,425.1232],[0.48835,-0.0427],[0.00231,0.05521]],[[599,425.20833],[0,0],[-0.00968,10.00742]],[[599.66667,455.20833],[0.00678,-10.03735],[-0.00514,7.61098]],[[594.2022,473.41053],[5.54877,-5.82159],[-7.63143,8.00665]],[[566.93225,494.59159],[8.97877,-6.39775],[-2.97974,2.12319]],[[557.46511,500.14625],[2.54987,-2.62392],[-1.36134,1.40087]],[[554.43449,505.16187],[1.27934,-1.47613],[-3.06762,3.53951]],[[547.25377,512.55206],[-1.33321,-3.92925],[3.77943,3.95957]],[[559.51846,523.76802],[-4.50104,-3.15999],[5.06472,3.55572]],[[583.332,531.05643],[-6.49575,2.06564],[5.69109,-1.80976]],[[599.21178,517.04432],[-3.36942,4.74678],[4.66221,-6.56805]],[[606.02718,493.34416],[-2.91509,7.28404],[3.54303,-8.85307]],[[626.8875,466.92043],[-8.28507,4.60026],[-2.26798,-17.15238]],[[624.33333,415.875],[0,17.37355],[0,0]],[624.33333,412.54167],[[629.33333,407.54167],[-5,0],[2.2057,0]],[[633.4606,409.60225],[-0.68889,-1.08757],[0.04922,0.04484]]],&quot;closed&quot;:true}]}" fill="#7b8a52" stroke="none" stroke-width="0.5" stroke-linecap="butt"/><path d="M338.6589,247.74057c-1.40046,2.71308 -4.68547,7.51394 -8.43516,5.39064c-1.83568,-1.03949 -1.53617,-4.71114 -3.04026,-6.36509c-1.61507,-1.73994 -5.11449,-3.58088 -5.98901,-5.8654c-0.39848,-1.04097 0.96283,-1.98356 1.28127,-2.83176c0.59553,-1.58631 0.68857,-2.65325 0.78257,-4.32612c0.18535,-3.29829 2.37549,-3.10462 4.71995,-4.67364c2.45171,-1.64082 4.59563,-3.55401 7.21036,-5.04328c4.62178,-1.64081 3.28156,-5.96342 5.79997,-9.00019c1.521,-1.83407 4.66716,-1.90691 6.81903,-2.09714c3.58884,-0.01102 6.4911,11.72728 2.26053,16.90701c0,0 -8.51238,12.29092 -11.40925,17.90497z" data-paper-data="{&quot;index&quot;:null}" fill="#363c1a" stroke="none" stroke-width="0.5" stroke-linecap="butt"/><path d="" data-paper-data="{&quot;index&quot;:null}" fill="#363c1a" stroke="none" stroke-width="0.5" stroke-linecap="butt"/><path d="M305.37961,195.80047c0.00111,3.00894 1.28158,6.53184 0.58523,9.4845c-0.21231,0.90023 -0.57186,1.57185 -1.03284,2.05393c-1.63723,0.2629 -3.30006,0.46034 -5.00192,0.54737c-1.26679,-0.47311 -2.45949,-1.24467 -3.27667,-2.05752c-0.78929,-2.30157 -0.34969,-4.53378 -0.13167,-6.8944c0.41719,-4.51717 9.30164,-5.36327 8.85787,-3.13388z" data-paper-data="{&quot;index&quot;:null}" fill="#3b4208" stroke="none" stroke-width="0.5" stroke-linecap="butt"/><path d="M333.71511,194.26653l0.32079,0.39544c0.23592,0.77384 0.73323,1.39928 1.0058,2.21859c0.09826,0.39444 0.19515,0.79021 0.2907,1.18719c-1.60305,-0.34794 -3.95456,-0.6514 -5.86934,-0.80847c1.01646,-0.78643 2.87612,-1.98399 2.79852,-3.23918c0,0 0,-0.5 0.5,-0.5c0.5,0 0.5,0.5 0.5,0.5c-0.00118,0.03347 -0.00293,0.0667 -0.00522,0.09971c0.25384,-0.0582 0.45876,0.14673 0.45876,0.14673z" data-paper-data="{&quot;index&quot;:null}" fill="#363c1a" stroke="none" stroke-width="0.5" stroke-linecap="butt"/><path d="M319.13396,158.45486c0.01744,-0.00145 0.02761,-0.00145 0.02761,-0.00145l0.00892,0.00157c0.04549,0.00148 0.11026,0.00839 0.17796,0.03131l0.29047,0.0511c2.58679,1.73636 1.4292,7.85769 1.72066,10.77124c0.40729,4.08666 3.32581,14.34479 -3.59801,14.34479c-0.95947,-0.04615 -1.12354,-0.37491 -1.87689,-0.9119c-1.35014,-0.96239 -2.54152,-1.77798 -3.00166,-3.44321c-0.92653,-3.35307 1.47126,-6.24471 -1.30813,-9.0279c-3.57359,-5.32389 2.30021,-11.23269 7.53146,-11.81394c0,0 0.01011,-0.00113 0.0276,-0.00161z" data-paper-data="{&quot;index&quot;:null}" fill="#40770e" stroke="none" stroke-width="0.5" stroke-linecap="butt"/><path d="M302.88874,148.42618c5.23061,0.03127 7.16633,4.96235 7.16667,9.5c0.00012,1.73221 0.44218,3.67848 -0.78,4.98366c-1.9994,3.00729 -7.62085,7.13103 -11.6226,4.79051c-1.85804,-1.08672 -2.60447,-3.40809 -3.03627,-5.35526c-0.72032,-3.30387 -0.91488,-9.61746 1.91518,-12.10229c1.46305,-1.28459 3.96753,-1.46112 5.87832,-1.48102c0.0954,-0.3356 0.4787,-0.3356 0.4787,-0.3356z" data-paper-data="{&quot;index&quot;:null}" fill="#629200" stroke="none" stroke-width="0.5" stroke-linecap="butt"/><path d="M336.77554,265.14359c1.36896,0.49403 3.19594,0.34706 4.10688,1.4821c3.55937,4.435 -1.01611,11.47458 -5.22027,13.27173c-3.14517,1.34447 -7.90452,0.31928 -11.0846,0.20516c-6.05189,-0.21718 -13.47937,1.31672 -18.2634,-3.31902c-0.969,-0.93897 -2.27793,-1.74634 -2.67884,-3.03472c-1.43474,-4.61077 3.72049,-8.297 4.99297,-12.26858c0,0 0.02641,-0.07923 0.08405,-0.20389c-0.47329,-2.88715 2.29885,-6.55589 3.26775,-8.2596c1.9117,-3.36154 3.87007,-6.47404 5.37687,-10.03598c1.18473,-2.8006 1.55988,-5.73653 2.63554,-8.58777c1.30478,-3.45855 2.19074,-7.99178 0.16278,-11.22828c-1.28769,-2.32276 -2.30594,-4.66494 -3.23627,-7.04568c-0.09142,2.87691 -0.10358,5.74946 0.22891,8.51297c0.47324,3.93336 0.98524,7.04266 0.74165,11.11608c-3.84601,3.15914 -8.34371,8.05304 -10.23651,12.78813c-1.65094,4.13006 -1.31876,9.00857 -3.92563,12.81659c-1.95711,2.85887 -5.64965,6.58713 -9.12254,8.33215c0.02257,0.03021 0.04468,0.06083 0.06629,0.0919c2.57294,3.69909 1.10212,7.00686 -0.1391,10.82499c-1.36201,0.5985 -2.64445,1.42791 -4.08604,1.7955c-5.66452,1.4444 -11.72499,-1.37362 -17.0524,-2.70119c-3.60959,-0.8995 -5.66263,-1.55537 -8.76649,-3.66935c-0.93231,-0.63498 -2.17798,-0.90692 -2.86419,-1.80219c-4.75841,-6.20803 1.35031,-15.87468 6.79303,-19.4563c-0.05093,-0.67819 -0.01366,-1.34269 0.2219,-1.9764c0.09063,-0.24384 3.98383,-2.66239 4.67152,-3.49789c0.71175,-0.86471 1.01755,-2.04223 1.81802,-2.82552c1.47097,-1.43941 3.59324,-2.02431 5.26643,-3.22267c3.06347,-2.1941 5.97097,-4.64574 8.94722,-6.96071c1.35896,-1.05702 4.49267,-2.58397 5.22566,-4.34314c0.19581,-0.46995 0.12667,-4.22152 0.12659,-4.33785c-0.00354,-5.01966 -0.32884,-9.9937 -0.33333,-15c0,0 0,-1.02551 0.65681,-1.76291c-0.22794,-2.14999 -0.87145,-4.25282 -1.38199,-6.36585c-0.15818,0.20596 -0.30483,0.42577 -0.43894,0.66011c-0.12507,-0.68603 -0.22144,-1.37568 -0.27866,-2.07035l-0.31375,-0.0112c0.01281,-0.37153 0.0185,-0.74084 0.01652,-1.10682c0,0 0,-0.15615 0.03903,-0.3904c-0.25006,-0.05127 -0.49887,-0.10907 -0.74636,-0.17302h-0.3878c-0.0734,0.78035 -0.41325,1.28111 -0.81919,1.60246l-2.06004,-0.07358l-1.26581,0.26884c-4.35256,-2.58481 -7.73156,-6.41504 -8.67038,-11.48196c-0.09376,-0.16246 -0.18113,-0.30236 -0.26021,-0.40883c0.04735,-0.10686 0.09517,-0.21351 0.14333,-0.3199c-0.01219,-0.08972 -0.02362,-0.17981 -0.0343,-0.27027c-0.07732,-0.6551 -0.10223,-1.30249 -0.08994,-1.94443c-0.1606,-0.89126 -0.24526,-1.87081 -0.26213,-3.02769v-2c0,0 0,-0.69514 0.36656,-1.35231c-0.19214,-1.86703 -0.13653,-3.74634 -0.0615,-4.9329c0.22387,-3.54045 0.91075,-6.99482 1.51033,-10.4638c-0.26731,-0.17368 -0.42437,-0.33074 -0.42437,-0.33074l-1.6638,-2.40855c-1.13017,-9.06133 -0.79818,-17.77408 0.4668,-26.65267c-0.09804,-2.08974 -0.36565,-4.09185 0.18527,-5.78475c0.03023,-0.0929 0.06293,-0.18486 0.09825,-0.27586c-0.00001,-0.00081 -0.00003,-0.00163 -0.00004,-0.00245l-0.00001,0.00002c-0.10588,-6.31595 4.39974,-8.60447 9.71697,-9.12768c-0.91044,-1.99366 -1.71839,-4.03535 -2.36154,-6.15395c0,0 -0.05388,-0.17959 -0.08294,-0.45517c-2.19501,0.0049 -5.46835,-0.07213 -6.04026,-0.74544c-3.52594,-4.15104 1.34503,-7.03226 3.22692,-9.71169c1.57868,-2.24772 3.20638,-4.56132 4.67127,-6.88173c1.05734,-1.67485 1.96149,-4.17176 3.73871,-5.25838c4.69246,-2.86906 12.42849,-2.41597 17.63087,-2.41597c6.38507,0 12.47016,-0.20547 18.74029,1.04855l1.00971,-0.04855c0,0 2.5,0 2.5,2.5c0,0.74923 -0.22454,1.27392 -0.53904,1.64137c2.98154,3.86372 6.57761,8.16349 7.86296,12.43701c0.42277,1.4056 1.40748,3.02557 0.75177,4.33877c-1.16038,2.32394 -3.34637,3.0433 -5.56626,3.40022c-0.01453,0.03298 -0.02337,0.05066 -0.02337,0.05066c-1.22321,2.44641 -2.27654,4.88349 -3.25521,7.34584c2.61334,-0.57773 6.22157,-1.2331 8.33048,-0.32856c3.29398,1.41283 4.802,4.87335 4.86121,8.3389c0.39452,1.02122 0.36054,3.6206 0.35884,4.54174c-0.00334,1.80314 -0.01435,3.60634 -0.01404,5.40948c0.05987,1.51579 0.14495,3.02771 0.25915,4.54152c0.03807,0.15086 0.07833,0.30231 0.11906,0.45418c0.01551,-0.02458 0.0312,-0.04909 0.04708,-0.07351c0.07125,0.50647 0.16019,1.00918 0.26641,1.50251c-0.50489,1.81392 -0.48134,4.04379 -1.07541,5.40945c-0.94074,2.16261 -2.54075,3.12513 -3.61912,5.2974c0.00802,0.09268 0.00802,0.14705 0.00802,0.14705c0,1.7425 -0.01205,3.42753 0.0687,5.12276c0.4045,0.52012 0.89422,1.02683 1.37983,1.54001c-0.29716,0.28728 -0.69943,0.54586 -1.21964,0.62141c0.02547,0.2455 0.05375,0.49179 0.08514,0.73907l-0.23407,1.59266c0.0083,0.51433 0.01416,1.02878 0.0172,1.54335c2.51831,0.01691 5.48455,0.12568 6.54325,0.61601c4.14242,1.91854 2.408,3.44584 2.98613,6.44534c0.95252,4.94187 2.87151,10.14914 0.05217,15.00544c-0.63773,1.09849 -1.29397,2.25145 -2.27784,3.0548c-2.49029,2.03338 -7.46456,2.45394 -11.59089,2.13611c0.03302,0.27145 0.06818,0.54316 0.10525,0.81509c0.30195,0.72571 0.62424,1.43199 0.96134,2.12495c-0.06167,-0.00151 -0.12336,-0.00303 -0.18506,-0.00455c1.55855,2.05848 3.63982,3.31673 6.01315,4.54381c-0.44796,0.06005 -0.87093,0.13874 -1.26525,0.23732c-0.13513,0.03378 -0.26922,0.06901 -0.40234,0.10558c3.66922,4.95195 9.0881,8.42502 13.02015,13.17532c0.94905,1.14654 2.51364,2.26036 2.42943,3.74634c-0.16507,2.91279 -5.10838,6.96395 -6.76038,9.44645c-5.51546,8.28821 -7.31286,18.33531 -12.98952,26.31767c-1.28679,2.09216 -2.38933,4.73679 -4.10321,6.64948c1.22997,0.42116 2.51005,0.709 3.79578,0.84079zM312.21445,266.4311c-1.35619,2.56842 -5.30022,4.39851 -2.5286,6.66034c0.49116,0.40082 0.8407,1.00399 1.41663,1.26895c2.44061,1.1228 6.38152,0.74443 8.89752,0.74378c3.95431,-0.00103 7.90035,0.45716 11.84466,0.33816c1.86746,-0.05634 3.59936,-1.05249 4.64651,-2.73658c0.88756,-1.42743 1.12201,-2.84989 -0.60004,-2.64101c-2.25968,-0.26797 -4.48638,-0.93531 -6.57314,-1.84272l-1.5798,-0.63c0,0 -0.84977,-0.33991 -1.31533,-1.12255c-2.64186,-0.45462 -6.63023,-1.30333 -7.06276,-1.37869c-1.41927,-0.24728 -4.10418,-0.28161 -6.39177,-0.69826c-0.20227,0.70073 -0.41507,1.39691 -0.75389,2.03857zM265.46332,267.69751c-0.13493,0.75749 -0.69118,2.49525 0.10703,3.28617c2.37194,2.35028 5.90533,3.07674 9.03598,3.8618c5.50318,1.37999 10.38352,3.38043 16.1949,2.42764c0.15256,-2.98823 0.82003,-3.76309 -1.73503,-5.7484l-0.98511,-0.97285c-4.05769,-0.61401 -8.50093,-2.73021 -11.17366,-4.56088c-2.57018,-1.76042 -4.68253,-3.98107 -6.68365,-6.31877c-2.45312,1.932 -4.23488,5.07468 -4.76047,8.02529zM316.76777,204.8364l2.23972,2.55663c1.72258,4.6003 3.10193,9.00365 5.50388,13.31723c3.35266,6.22708 0.96165,11.62619 -0.77408,17.91353c-1.01007,3.65878 -1.77444,6.66057 -3.51472,10.12501c-1.16837,2.32591 -2.59866,4.51074 -3.90795,6.76034c-0.75507,1.29735 -1.43236,2.6442 -2.27625,3.88561c-0.14846,0.2184 -0.924,0.40708 -0.6615,0.43598c3.88314,0.42749 7.71158,0.46846 11.75856,1.3178c1.39945,0.2937 2.94812,1.32757 4.14746,-0.02803c1.59346,-1.80106 2.37334,-4.18437 3.63414,-6.23213c4.86087,-6.77303 6.22875,-15.40445 10.60914,-22.57582c0.98295,-1.60924 2.87768,-4.62775 4.18022,-6.25993c0.74733,-0.93646 1.51195,-1.86542 2.36539,-2.70632c0.52857,-0.52081 1.50788,-0.66331 1.76202,-1.36047c0.13589,-0.37279 -0.79928,-0.19315 -1.1023,-0.4493c-1.23285,-1.04216 -2.28159,-2.28483 -3.44993,-3.39882c-3.57407,-3.40783 -7.42409,-6.74749 -10.3159,-10.74709c0,0 -0.27352,-0.38292 -0.41708,-0.93517c-2.0882,-1.57074 -3.82063,-3.4764 -5.20131,-6.14989l-0.26393,-2.11803c0,0 0,-0.27674 0.09207,-0.64607c-0.05199,-0.43004 -0.09924,-0.85939 -0.141,-1.28783c-0.92732,-0.26418 -1.84153,-0.59578 -2.62127,-1.14347c-1.74527,-1.22588 -3.08571,-3.71354 -4.18998,-5.49206c-1.06538,-1.05462 -3.44568,-3.25603 -4.00347,-4.56089c-1.13175,-2.64754 -0.33326,-6.09121 -0.83399,-8.88661c-1.28317,-7.16351 -0.44524,-14.53316 -1.35345,-21.79879l-0.01931,-1.64342c0,0 0,-2.5 2.5,-2.5c2.5,0 2.5,2.5 2.5,2.5l-0.0193,1.02325c0.89659,7.17278 0.08521,14.4757 1.31322,21.53455c0.36949,2.1239 -0.35342,5.80034 0.49934,7.78006c0.63126,1.4655 2.20664,2.30573 3.32986,3.4391c0.34342,0.54608 2.29463,3.88268 3.14335,4.50794c0.92012,0.67785 3.46772,0.83853 4.37178,0.8856c3.75082,0.1953 9.91069,1.04924 10.74614,-4.00649c0.60098,-3.63689 -0.72619,-6.65025 -1.34427,-10.05128c-0.17337,-0.95397 0.60892,-2.72691 -0.3472,-2.88799c-0.49245,-0.08297 -7.19761,-0.05821 -7.52625,-0.05807c0,0 -2.5,0 -2.5,-2.5c0,-0.91974 0.33836,-1.50111 0.76613,-1.8686c-0.00044,-0.35403 -0.00227,-0.70799 -0.00537,-1.06188c-0.16087,-0.64987 -0.04555,-1.22648 -0.04555,-1.22648l0.02853,-0.08126c-0.12581,-7.35506 -0.73793,-14.68399 -0.77569,-22.02796c-0.40622,-1.72457 -1.20362,-3.41636 -1.5538,-4.98225c-2.36333,-2.47126 -6.36178,-3.72089 -9.58226,-4.43629c0,0 -0.32267,-0.07447 -0.70605,-0.28663c0.00456,0.02005 0.00781,0.03963 0.00953,0.05864c0.0917,1.01482 0.50146,2.10104 0.13982,3.05366c-0.71083,1.87243 -3.76777,4.50509 -5.65669,5.13108c-0.80808,0.2678 -2.01259,0.40373 -3.3717,0.41277c-0.77202,-0.03034 -1.54327,-0.0629 -2.31394,-0.09687c-2.8297,-0.24764 -5.74708,-0.96448 -6.97614,-2.11393c-2.624,-2.45404 -0.34545,-6.36064 -4.11571,-6.111c-0.32734,1.00158 -1.32892,1.50237 -1.32892,1.50237l-1.39967,0.65849c-1.61706,0.47831 -3.15406,1.19936 -4.69423,1.88603c-0.72725,0.32423 -1.60376,0.69671 -2.45664,1.14673c-0.57254,0.88436 -1.80028,2.08559 -3.13988,2.99446c-1.0725,2.74074 -0.85801,5.59079 -1.06102,8.62815c-0.47887,7.16471 -1.66718,14.15195 -2.40749,21.28881c-0.08274,0.79769 -0.13461,1.54957 -0.1633,2.28059c0.81004,0.73866 0.81004,1.91804 0.81004,1.91804c-0.02909,5.72896 -2.27227,10.6917 0.79892,15.42814c0.79066,0.86109 1.73031,1.58318 2.77809,2.12541c1.37454,0.71132 2.93518,1.11311 4.58965,1.11311c0.51587,0 1.02263,-0.03906 1.51746,-0.11439c0.31612,-0.15798 0.71029,-0.25741 1.20177,-0.25976c1.12887,-0.31825 2.17673,-0.82975 3.10563,-1.4965c-0.01662,0.11004 -0.03343,0.22006 -0.05041,0.33007c1.27729,-0.48514 2.51069,-1.10641 3.8156,-1.51303c1.37083,-0.42716 5.72511,-1.63322 6.6077,-2.91278c0.81412,-1.18031 0.32977,-3.19341 -0.49787,-4.8355c-1.19443,0.17622 -2.13432,-0.76367 -2.13432,-0.76367l-0.17191,-0.67575c-2.37261,-0.61232 -6.71616,-1.85158 -8.49476,-3.65759c-0.812,-0.82451 -1.02007,-2.07753 -1.5301,-3.1163c0,0 -0.29777,-0.69482 -0.18377,-1.48406c-0.07491,-0.04327 -0.15048,-0.08558 -0.22674,-0.12689c0.12059,-0.91449 0.22038,-1.83609 0.30115,-2.76254c-0.45145,-1.41894 -0.82531,-2.8493 -1.06861,-4.26456c-0.62603,-3.64154 -0.02417,-7.97058 -0.02417,-11.68009c0,0 0,-1.6731 1.36872,-2.28187c0.3199,-0.60947 0.94453,-1.20449 2.16419,-1.20449l0.00001,0.00004c2.5,0 2.5,2.5 2.5,2.5l-0.00736,1.80826c0.36428,4.77817 0.38902,9.56513 0.05612,14.32967c0.45171,1.33151 0.97528,2.64971 1.50717,3.9202c0.32157,0.13528 0.65762,0.34729 0.92108,0.67957c3.2441,1.53601 6.38405,1.50085 8.74901,5.21358c1.6934,2.65847 3.00254,8.0196 1.04332,11.00144c-2.42836,3.69585 -8.21312,4.3276 -11.93488,5.71165c-1.02583,0.38149 -1.89542,1.16625 -2.95965,1.42174c-0.0878,0.02108 -0.17552,0.04114 -0.26314,0.06019c0.37403,3.64999 1.99064,7.16705 2.07279,10.94041c-0.24377,0.02276 -0.48728,0.04483 -0.73146,0.06618c0.00116,0.02761 0.00116,0.04257 0.00116,0.04257c-0.00484,5.00371 0.33672,9.98132 0.33333,15c-0.00257,3.80549 0.04215,6.1903 -2.73223,9.1011c-3.81571,4.00332 -9.14559,7.39165 -13.63498,10.59053c-1.48987,1.0616 -3.45864,1.46537 -4.73357,2.77733c-0.68067,0.70043 -0.87564,1.76974 -1.51531,2.50781c-1.53381,1.76975 -4.25697,1.73047 -3.59036,3.6951c1.88972,1.97978 3.88183,4.02798 6.13235,5.60798c2.53236,1.77786 8.65889,4.67702 11.90677,3.6442c2.84554,-0.90488 6.25518,-4.63266 7.93989,-7.00605c2.33111,-3.28403 1.95015,-8.20806 3.4077,-11.85008c1.77151,-4.42653 6.28762,-10.91174 10.43016,-13.21187c-1.13399,-8.57619 -1.27708,-16.83594 -1.27708,-25.52271v-1.66667c0,0 0,-2.5 2.5,-2.5c1.10285,0 1.71919,0.48651 2.06363,1.03029c0.02461,0.02242 0.03747,0.03527 0.03747,0.03527zM325.15103,96.38666c-5.26188,-0.79932 -10.4335,-0.61234 -15.82725,-0.61234c-4.2554,0 -10.94009,-0.59344 -14.86913,1.58403c-0.40033,0.22186 -2.2444,3.71489 -2.26129,3.74162c-1.63404,2.58612 -3.87358,7.14553 -6.53201,9.54307c1.58062,-0.11593 3.18904,0.05912 4.77571,0.13384c4.81126,0.22657 9.59221,1.01408 14.38671,0.99743c7.34688,0 15.0018,0.9002 22.30937,0.25728c2.1381,-0.18811 4.25558,-0.56435 6.37977,-0.87213c0.49998,-0.07244 1.17824,0.09899 1.48516,-0.3023c0.20221,-0.26439 -0.56706,-0.38201 -0.74823,-0.66123c-0.44474,-0.68547 -0.69438,-1.48145 -1.10158,-2.18987c-2.31081,-4.02026 -5.32247,-7.81458 -7.99723,-11.6194zM319.55626,131.53756c0.83666,-0.70409 2.05343,-0.53275 3.21515,-0.48818l0.20285,-0.87942c1.66508,-4.57387 3.2423,-8.96855 5.22292,-13.34068c-7.70528,0.73591 -15.65482,-0.05496 -23.37343,-0.05496c-4.52388,-0.01377 -8.99875,-0.64136 -13.51983,-0.89515c1.86065,5.64789 5.01055,10.73408 7.90575,15.89515h1.11408c3.45993,0.16356 4.27692,-0.49478 6.66371,2.99766c0.85105,1.24528 -0.09326,3.39394 1.02362,4.40764c0.34702,0.31496 0.93359,0.08989 1.39637,0.16379c1.74507,0.27868 4.67219,1.04 6.44184,0.53817c4.16366,-1.18072 0.54938,-5.68676 3.70698,-8.34403zM283.38563,141.35529c1.19039,-1.8934 3.25803,-3.60631 4.88277,-3.99864c0.00975,-0.01444 0.01945,-0.02888 0.0291,-0.04334c0.01178,0.00952 0.0235,0.019 0.03516,0.02846c0.0424,-0.00939 0.08447,-0.01786 0.12621,-0.02538c2.13297,-1.2123 4.52081,-2.10599 6.57199,-2.7716c-1.3486,-2.42669 -2.7418,-4.83358 -4.05362,-7.27904c-0.09661,0.00858 -0.15349,0.00858 -0.15349,0.00858c-2.07424,-0.03702 -4.78672,0.25388 -6.62757,1.40203c-0.73662,0.45944 -0.40013,2.25909 -0.37374,2.775c-0.02179,0.02221 -0.04235,0.04502 -0.06175,0.06824c-0.03928,0.92993 -0.32117,2.03642 -0.34616,2.46805c-0.06857,1.18423 0.41388,4.69239 -0.0289,7.36764zM338.16222,140.56714c0.1433,0.71451 0.72161,2.33877 1.19317,4.14225c-0.00012,-0.00912 -0.00021,-0.01819 -0.00027,-0.0272c-0.0107,-1.5357 0.00053,-3.07151 0.00732,-4.60728c-0.06582,-0.34739 -0.12885,-0.69656 -0.18758,-1.04835c-0.04438,-0.2658 0.02327,-1.10232 0.08557,-1.89425c0.03429,-0.09704 0.05694,-0.19959 0.06627,-0.30595l0.03135,-0.31346c-0.00089,-0.08702 -0.00187,-0.17403 -0.00293,-0.26105c-0.01548,-1.27017 -0.16491,-2.21627 -0.17991,-2.99945c-0.13195,-0.15565 -0.30132,-0.27859 -0.49422,-0.35491c0.10168,-0.69866 0.09025,-1.47815 -0.06289,-2.4044c-0.16697,-1.00991 0.3052,-2.30936 -1.10568,-2.60409c-2.13385,-0.44576 -5.10345,0.34321 -7.12651,0.82129l-0.00001,0.00002c0,0 -0.75806,0.17494 -1.52601,-0.09325c-0.39474,1.07729 -0.78779,2.16359 -1.18665,3.26163l-0.15371,0.72827c2.74669,0.81814 5.75435,1.98471 7.86666,3.56741c0.97914,0.03848 1.81362,0.6401 2.18854,1.48998c0.11012,0.24962 0.1806,0.52066 0.20345,0.80513c0.17701,0.8338 0.34121,1.88415 0.38404,2.09768zM339.92641,149.82844c-0.04516,0.25842 -0.11036,0.5 -0.19863,0.72065c0.0698,2.29632 0.17594,4.59228 0.28535,6.8889c0.04782,0.0916 0.08876,0.18348 0.12384,0.27368c0.36923,-0.7066 0.74156,-1.41174 1.1067,-2.12446c-1.06594,-0.70059 -1.06594,-2.11683 -1.06594,-2.11683l0.01931,-1.27469c-0.0986,-0.79093 -0.18866,-1.57978 -0.27063,-2.36725zM339.98285,148.13163c0.01059,0.14752 0.01797,0.29304 0.02182,0.43612c0.03425,-0.01974 0.06649,-0.04091 0.09684,-0.06327c-0.04108,-0.12374 -0.08065,-0.24818 -0.11866,-0.37285z" fill="#000000" stroke="none" stroke-width="0.5" stroke-linecap="butt"/><path d="M312.1669,266.4156c0.33882,-0.64166 0.55544,-1.3466 0.75771,-2.04733c2.28759,0.41665 4.98644,0.43507 6.40571,0.68235c0.43253,0.07536 4.48613,0.92896 7.12799,1.38358c0.46556,0.78264 1.32483,1.13591 1.32483,1.13591l1.58316,0.63898c2.08676,0.90741 4.31516,1.58821 6.57484,1.85618c1.72205,-0.20888 1.48658,1.2231 0.59902,2.65053c-1.04715,1.68409 -2.78553,2.69654 -4.65299,2.75288c-3.94431,0.119 -7.95759,-0.32208 -11.9119,-0.32105c-2.516,0.00065 -6.479,0.3531 -8.91961,-0.7697c-0.57593,-0.26496 -0.92728,-0.87405 -1.41844,-1.27487c-2.77162,-2.26183 1.1735,-4.11901 2.52969,-6.68743z" data-paper-data="{&quot;noHover&quot;:false,&quot;origItem&quot;:[&quot;Path&quot;,{&quot;applyMatrix&quot;:true,&quot;segments&quot;:[[[312.21445,266.4311],[0,0],[-1.35619,2.56842]],[[309.68585,273.09144],[-2.77162,-2.26183],[0.49116,0.40082]],[[311.10248,274.36039],[-0.57593,-0.26496],[2.44061,1.1228]],[[320,275.10417],[-2.516,0.00065],[3.95431,-0.00103]],[[331.84466,275.44233],[-3.94431,0.119],[1.86746,-0.05634]],[[336.49117,272.70575],[-1.04715,1.68409],[0.88756,-1.42743]],[[335.89113,270.06474],[1.72205,-0.20888],[-2.25968,-0.26797]],[[329.31799,268.22202],[2.08676,0.90741],[0,0]],[327.73819,267.59202],[[326.42286,266.46947],[0.46556,0.78264],[-2.64186,-0.45462]],[[319.3601,265.09078],[0.43253,0.07536],[-1.41927,-0.24728]],[[312.96833,264.39252],[2.28759,0.41665],[-0.20227,0.70073]],[[312.21444,266.43109],[0.33882,-0.64166],[0,0]]],&quot;closed&quot;:true,&quot;fillColor&quot;:[0,0,0,1]}]}" fill="#1b130b" stroke="none" stroke-width="0.5" stroke-linecap="butt"/><path d="M265.41343,267.69395c0.52559,-2.95061 2.32421,-6.12728 4.77733,-8.05928c2.00112,2.3377 4.1261,4.55024 6.69628,6.31066c2.67273,1.83067 7.18543,4.00211 11.24312,4.61612l0.98435,0.97613c2.55506,1.98531 1.88059,2.77546 1.72803,5.76369c-5.81138,0.95279 -10.75728,-1.03208 -16.26046,-2.41207c-3.13065,-0.78506 -6.68891,-1.54587 -9.06085,-3.89615c-0.79821,-0.79092 -0.24272,-2.54161 -0.10779,-3.2991z" data-paper-data="{&quot;noHover&quot;:false,&quot;origItem&quot;:[&quot;Path&quot;,{&quot;applyMatrix&quot;:true,&quot;segments&quot;:[[[265.46332,267.69751],[0,0],[-0.13493,0.75749]],[[265.57035,270.98368],[-0.79821,-0.79092],[2.37194,2.35028]],[[274.60633,274.84548],[-3.13065,-0.78506],[5.50318,1.37999]],[[290.80123,277.27312],[-5.81138,0.95279],[0.15256,-2.98823]],[[289.0662,271.52472],[2.55506,1.98531],[0,0]],[[288.08109,270.55187],[0,0],[-4.05769,-0.61401]],[[276.90743,265.99099],[2.67273,1.83067],[-2.57018,-1.76042]],[[270.22378,259.67222],[2.00112,2.3377],[-2.45312,1.932]],[[265.46331,267.69751],[0.52559,-2.95061],[0,0]]],&quot;closed&quot;:true,&quot;fillColor&quot;:[0,0,0,1]}]}" fill="#1b130b" stroke="none" stroke-width="0.5" stroke-linecap="butt"/><path d="M347.77198,283.88551c-0.03965,-0.01215 -0.08398,-0.02898 -0.13263,-0.0502c0.07744,0.01002 0.14249,0.02063 0.19423,0.03197c0.13765,0.03019 0.26749,0.07694 0.39126,0.13665c-0.15197,-0.03327 -0.30297,-0.07248 -0.45286,-0.11842z" fill="#000000" stroke="none" stroke-width="0.5" stroke-linecap="butt"/><path d="" data-paper-data="{&quot;noHover&quot;:false,&quot;origItem&quot;:[&quot;Path&quot;,{&quot;applyMatrix&quot;:true,&quot;segments&quot;:[[[345.82912,276.08912],[0,0],[1.61993,3.19914]],[[353.58333,279.02083],[-2.95539,0.05317],[5.31843,-0.09568]],[[369.12184,277.73046],[-5.24021,0.95265],[2.03741,-0.37039]],[[375.25426,276.73671],[-1.86827,0.8932],[1.00046,-0.4783]],[[376.08815,274.03215],[-0.02256,0.77316],[0.06527,-2.23649]],[[375.24047,268.37566],[1.36537,1.76178],[-2.61811,-1.40856]],[[367.02524,264.93899],[2.75806,1.11121],[-0.18908,0.16812]],[[366.41863,265.39753],[0.21656,-0.13614],[-1.00815,0.63379]],[[362.88731,265.93823],[1.15276,-0.29867],[-5.08425,1.31729]],[[348.05491,269.68367],[5.44626,-0.31251],[-0.51996,0.02984]],[[345.93963,269.71526],[0.83805,0.01899],[-0.29909,1.93659]],[[345.82911,276.08912],[-0.72775,-1.4372],[0,0]]],&quot;closed&quot;:true,&quot;fillColor&quot;:[0,0,0,1]}]}" fill="#1b130b" stroke="none" stroke-width="0.5" stroke-linecap="butt"/><path d="" data-paper-data="{&quot;noHover&quot;:false,&quot;origItem&quot;:[&quot;Path&quot;,{&quot;applyMatrix&quot;:true,&quot;segments&quot;:[[[257.19959,244.99989],[0,0],[-1.48591,0.89195]],[[252.58062,247.38665],[1.34126,-1.0975],[-2.44621,2.00165]],[[252.87493,255.18821],[-0.89317,-2.02422],[2.84402,6.44551]],[[266.93178,270.08234],[-6.10738,-3.48993],[3.35222,2.42904]],[[279.47061,273.39428],[-4.20644,0.55126],[4.97262,-0.65166]],[[280.14891,264.95526],[2.34145,2.25347],[0,0]],[280.12611,265.22587],[[278.38484,262.90946],[-0.05434,1.71787],[-1.61011,-1.14896]],[[274.44158,257.81035],[1.24056,2.06165],[-2.16939,-3.60528]],[[268.40286,246.74372],[2.0647,3.66757],[-1.05079,-1.86653]],[[264.51984,240.62054],[1.03467,2.11186],[-2.53146,1.3248]],[[257.1996,244.99988],[2.52304,-1.51451],[0,0]]],&quot;closed&quot;:true,&quot;fillColor&quot;:[0,0,0,1]}]}" fill="#1b130b" stroke="none" stroke-width="0.5" stroke-linecap="butt"/><path d="" fill="#000000" stroke="none" stroke-width="0.5" stroke-linecap="butt"/><path d="" data-paper-data="{&quot;noHover&quot;:false,&quot;origItem&quot;:[&quot;Path&quot;,{&quot;applyMatrix&quot;:true,&quot;segments&quot;:[[[283.32747,267.56329],[0.82828,-2.05628],[-0.35616,0.88419]],[[285.21101,269.71506],[-0.8292,-0.47018],[1.52463,0.8645]],[[290.08737,271.68177],[-1.67482,-0.51657],[2.33238,0.71938]],[[297.22094,272.07997],[-2.39243,-0.0997],[4.48433,0.18688]],[[310.625,272.82813],[-4.50069,0.0008],[2.56843,-0.00046]],[[318.14071,271.80741],[-2.18099,1.55439],[1.09878,-3.01374]],[[315.58876,266.97186],[2.739,1.5991],[0,0]],[314.58443,266.69984],[[313.39663,265.90141],[0.51012,0.57254],[-1.7572,0.44316]],[[307.50972,265.35772],[1.63528,0.32318],[-5.2119,-1.03004]],[[291.75366,261.8941],[5.27326,0.46922],[-0.95067,-0.08459]],[[288.20559,261.88166],[1.28093,0.05145],[-1.64997,1.82361]]],&quot;closed&quot;:true,&quot;fillColor&quot;:[0,0,0,1]}]}" fill="#1b130b" stroke="none" stroke-width="0.5" stroke-linecap="butt"/><path d="" data-paper-data="{&quot;noHover&quot;:false,&quot;origItem&quot;:[&quot;Path&quot;,{&quot;applyMatrix&quot;:true,&quot;segments&quot;:[[[271.94072,223.95547],[0,0],[-1.59455,0.04123]],[[267.15704,224.07792],[1.5942,0.05289],[-0.44646,-0.01481]],[[265.85674,223.75363],[0.39465,-0.2093],[-0.37976,0.2014]],[[265.4568,224.97962],[0.1012,-0.41777],[-0.52725,2.17646]],[[265.125,231.57813],[0,-2.22097],[0,4.22377]],[[264.625,244.07813],[0.00244,-4.21876],[-0.00211,3.65879]],[[266.68318,251.69771],[-3.07656,-2.32252],[1.28946,0.61303]],[[270.875,252.57813],[-1.42769,0.0143],[4.78108,-0.0479]],[[281.1515,246.2151],[-0.66433,6.00648],[0.11495,-1.03936]],[[281.125,243.07813],[0.00883,1.04566],[0,0]],[281.125,242.07813],[[281.6272,240.51005],[-0.5022,0.71059],[-0.22544,-1.3569]],[[281.50002,236.40625],[0.0077,1.30145],[-0.02375,-4.01208]],[[282.08736,224.15747],[-0.30571,4.06901],[-3.38618,-0.18042]],[[271.94073,223.95547],[3.45667,-0.08939],[0,0]]],&quot;closed&quot;:true,&quot;fillColor&quot;:[0,0,0,1]}]}" fill="#1b130b" stroke="none" stroke-width="0.5" stroke-linecap="butt"/><path d="" data-paper-data="{&quot;noHover&quot;:false,&quot;origItem&quot;:[&quot;Path&quot;,{&quot;applyMatrix&quot;:true,&quot;segments&quot;:[[[632,488.8125],[0.32433,0],[-13.33333,0]],[[592,488.8125],[13.33333,0],[-1.06669,0]],[[588.77567,488.84569],[1.08168,-0.01951],[-1.87209,4.26871]],[[583.58319,501.81109],[1.6212,-4.32319],[-1.05827,2.12023]],[[580.40837,508.17179],[1.16295,-2.06468],[-1.05603,1.87486]],[[576.93544,513.61341],[1.15265,-1.81705],[-0.13833,0.21807]],[[576.53553,514.27697],[-0.25563,-0.03668],[6.42035,0.92114]],[[596.20526,515.95994],[-6.68521,-1.66595],[6.94761,1.73134]],[[616.98058,520.9096],[-7.05493,-1.42939],[0.75896,0.15377]],[[624.41886,522.06908],[-1.45442,0.26465],[2.65992,-0.48401]],[[627.03746,515.20158],[-0.0609,0.59591],[0.74118,-7.2523]],[[631.43547,491.77165],[-2.98072,6.91201],[0.43609,-1.01125]],[[632.98655,488.81916],[-0.55457,0.97096],[-0.33322,-0.00433]]],&quot;closed&quot;:true}]}" fill="#7b8a52" stroke="none" stroke-width="0.5" stroke-linecap="butt"/><path d="" data-paper-data="{&quot;noHover&quot;:false,&quot;origItem&quot;:[&quot;Path&quot;,{&quot;applyMatrix&quot;:true,&quot;segments&quot;:[[[324.09533,253.91176],[0,0],[0.85651,3.61029]],[[330.57041,262.99001],[-3.75187,-1.20045],[1.54264,0.49358]],[[335.42874,262.90626],[-1.61968,-0.00375],[3.40326,0.00788]],[[345.50666,261.44215],[-3.33793,0.66673],[5.10574,-0.64832]],[[359.53992,254.32752],[-4.22277,2.85575],[2.50144,-1.69166]],[[366.7143,248.24599],[-1.4317,2.8402],[2.2577,-4.47883]],[[360.40152,234.36115],[6.60882,-1.38345],[-3.5675,0.7468]],[[350.01585,240.78249],[2.55555,-2.47506],[-1.10838,2.65785]],[[344.10839,247.61045],[2.60899,-1.4752],[-0.78962,0.44648]],[[341.44917,248.18853],[0.82925,-0.36768],[-2.1557,0.95582]],[[335.15356,252.08568],[2.09082,-1.13332],[-2.98407,1.61748]],[[325.92875,253.90627],[3.30471,0.01081],[-0.59799,-0.00196]],[[324.09534,253.91178],[0.61933,0.00637],[0,0]]],&quot;closed&quot;:true,&quot;fillColor&quot;:[0,0,0,1]}]}" fill="#1b130b" stroke="none" stroke-width="0.5" stroke-linecap="butt"/><path d="" data-paper-data="{&quot;noHover&quot;:false,&quot;origItem&quot;:[&quot;Path&quot;,{&quot;applyMatrix&quot;:true,&quot;segments&quot;:[[[264.42874,219.40625],[0,0],[-1.34876,-0.03644]],[[260.38545,219.21595],[1.30765,-0.33247],[-0.67222,0.17091]],[[259.01584,220.78248],[0.37093,-0.5861],[-1.63062,2.57655]],[[258.42022,229.61245],[0.25908,-2.86779],[-0.18243,2.01936]],[[257.42022,235.61245],[0.18489,-2.01914],[-0.17939,1.95913]],[[257.38363,241.37902],[0.34606,-1.97774],[-0.26988,1.54233]],[[256.23844,247.44954],[-0.70954,-1.75258],[0.67413,1.66513]],[[260.80157,250.31691],[-1.50438,-0.98181],[0.92438,0.60328]],[[263.92874,251.40625],[-1.10073,0.08261],[6.13977,0.46079]],[[269.46102,239.00579],[-0.69952,3.80089],[0.21496,-1.16801]],[[270.55703,235.61568],[-0.36534,1.13003],[0,0]],[270.42874,234.40625],[[270.61805,233.44245],[-0.18931,0.51632],[-1.27471,-3.18909]],[[269.9409,222.6599],[-0.29248,3.56714],[0.08526,-1.03984]],[[269.97253,219.42036],[-0.04719,1.07284],[-1.84822,0.01653]],[[264.42873,219.40625],[1.84733,0.04991],[0,0]]],&quot;closed&quot;:true,&quot;fillColor&quot;:[0,0,0,1]}]}" fill="#1b130b" stroke="none" stroke-width="0.5" stroke-linecap="butt"/><path d="" fill="#000000" stroke="none" stroke-width="0.5" stroke-linecap="butt"/><path d="" fill="#000000" stroke="none" stroke-width="0.5" stroke-linecap="butt"/><path d="" fill="#000000" stroke="none" stroke-width="0.5" stroke-linecap="butt"/><path d="" data-paper-data="{&quot;noHover&quot;:false,&quot;origItem&quot;:[&quot;Path&quot;,{&quot;applyMatrix&quot;:true,&quot;segments&quot;:[[[301.02,284.43509],[0,0],[-0.48649,1.35086]],[[300.35678,288.69109],[-0.52267,-1.33728],[1.11613,2.85562]],[[308.45427,291.76454],[-2.24218,-0.42883],[3.74562,0.71638]],[[319.42965,293.09357],[-3.74915,-0.64317],[5.62646,0.96524]],[[336.01207,295.39178],[-5.76157,0.00622],[1.33333,0]],[[340.01207,295.39178],[-1.32656,-0.1342],[0.50986,0.05158]],[[341.44775,295.94168],[-0.42888,0.28049],[0.37573,-0.24574]],[[341.19366,294.61899],[0.03304,0.44774],[-0.21324,-2.89017]],[[338.49458,286.87855],[2.58696,1.91253],[-3.11025,-2.2994]],[[329.5094,284.67406],[3.45411,0.76575],[-2.70322,-0.59928]],[[324.07827,281.479],[1.99996,1.6369],[0,0]],[322.8454,280.55845],[[322.12528,279.72773],[0.30958,0.52281],[-0.68443,-0.00016]],[[320.67873,279.72511],[0.21452,0],[-4.35445,0]],[[308.54686,278.26081],[4.13278,1.46737],[-1.00529,-0.35693]],[[305.61331,277.34436],[0.91428,0.32012],[-1.65526,2.28608]],[[301.02,284.43508],[0.94333,-2.61939],[0,0]]],&quot;closed&quot;:true,&quot;fillColor&quot;:[0,0,0,1]}]}" fill="#1b130b" stroke="none" stroke-width="0.5" stroke-linecap="butt"/><path d="" data-paper-data="{&quot;noHover&quot;:false,&quot;origItem&quot;:[&quot;Path&quot;,{&quot;applyMatrix&quot;:true,&quot;segments&quot;:[[[262.34541,239.05845],[0,0],[-0.32826,-0.00287]],[[258.34269,239.42427],[0.77949,-0.75758],[-1.51727,1.47463]],[[256.33047,248.18522],[0.2052,-1.38223],[-0.42913,2.89071]],[[254.4564,256.74976],[0.69192,-2.83931],[-0.58439,2.39805]],[[254.08724,264.44429],[-0.1104,-2.59643],[0.66079,0.32787]],[[256.10654,265.36956],[-0.68186,-0.2935],[-0.71289,-0.16422]],[[254.099,264.72065],[0.61646,0.27296],[0.04118,0.9696]],[[254.17873,267.55845],[0,-0.91516],[0,2.65116]],[[255.25295,273.60918],[-1.65742,-2.05579],[1.39686,1.40923]],[[260.04949,277.13442],[-1.66322,-1.08204],[0.69886,0.45466]],[[262.06018,278.6221],[-0.74758,-0.36911],[7.62023,3.7625]],[[269.28806,266.60293],[0.25885,6.02446],[-0.33205,0.03141]],[[268.2657,266.62741],[0.34767,0.01294],[0.33082,-0.13584]],[[269.27026,266.19713],[-0.33957,0.15017],[-0.04654,-1.04389]],[[269.17873,263.55846],[0,0.68247],[0,0]],[269.17873,262.22513],[[269.36562,261.26796],[-0.18689,0.51352],[-0.9949,-2.34074]],[[268.84539,253.55846],[-0.00211,2.4075],[0.00398,-4.53963]],[[269.72042,239.3032],[-1.64723,4.26841],[-2.45342,-0.09127]],[[262.34539,239.05846],[2.47075,0.02163],[0,0]]],&quot;closed&quot;:true,&quot;fillColor&quot;:[0,0,0,1]}]}" fill="#1b130b" stroke="none" stroke-width="0.5" stroke-linecap="butt"/><path d="" data-paper-data="{&quot;noHover&quot;:false,&quot;origItem&quot;:[&quot;Path&quot;,{&quot;applyMatrix&quot;:true,&quot;segments&quot;:[[[685.18502,872.61899],[0,0],[1.43662,5.98084]],[[693.01062,884.03649],[-3.70218,-4.86454],[2.24742,2.23678]],[[699.59264,890.90413],[-2.72186,-1.62654],[0.9722,0.58098]],[[706.82094,891.32953],[-0.601,0.05898],[7.406,-0.72658]],[[726.8086,885.51977],[-6.97654,1.96418],[1.2142,-0.34184]],[[730.56748,885.08245],[-1.10602,0.60652],[2.30702,-1.26512]],[[734.3671,878.16373],[-0.68386,2.5407],[1.11344,-4.13668]],[[732.57348,864.12511],[1.20564,3.77476],[-0.59548,-1.8644]],[[730.63334,858.58331],[1.54934,1.19592],[-1.12408,-0.86766]],[[726.45242,859.40035],[1.41022,-0.16646],[-4.7625,0.5622]],[[712.46942,862.78461],[4.25664,-2.20872],[0,0]],[[709.1243,863.27397],[1.7568,0.3048],[-2.88902,2.03706]],[[699.0903,867.95487],[2.74046,-1.09482],[-4.28754,1.7129]],[[685.1907,871.99437],[4.76756,-0.4218],[0,0]]],&quot;closed&quot;:true,&quot;fillColor&quot;:[0,0,0,1]}]}" fill="#1b130b" stroke="none" stroke-width="0.5" stroke-linecap="butt"/><path d="" data-paper-data="{&quot;noHover&quot;:false,&quot;origItem&quot;:[&quot;Path&quot;,{&quot;applyMatrix&quot;:true,&quot;segments&quot;:[[[534.24752,820.15827],[0,0],[-4.04368,0.08802]],[[522.21394,821.21539],[3.95246,-0.81222],[-1.3621,0.26626]],[[510.4634,822.97835],[0.57882,-1.35172],[-1.33586,3.11964]],[[510.23336,835.31249],[0,-3.25428],[0,12.11958]],[[513.15144,871.41109],[-2.19068,-11.90282],[0.6726,3.65454]],[[517.2748,887.34391],[-3.32516,-2.37646],[3.6453,2.60526]],[[534.72606,889.33683],[-4.32258,0],[2.74784,0.54956]],[[542.9973,890.84037],[-2.70528,0.73084],[1.66574,-0.45002]],[[544.2577,885.81981],[-0.12208,1.72114],[0.32888,-4.6368]],[[543.33046,872.29307],[0.85138,4.52884],[-1.1888,-6.32378]],[[537.2817,856.00599],[1.2386,6.98638],[-0.92902,-5.24016]],[[537.2577,839.80517],[0.52952,5.28946],[-0.67414,-6.7343]],[[534.24754,820.15827],[0.19656,6.80238],[0,0]]],&quot;closed&quot;:true,&quot;fillColor&quot;:[0,0,0,1]}]}" fill="#1b130b" stroke="none" stroke-width="0.5" stroke-linecap="butt"/><path d="" data-paper-data="{&quot;noHover&quot;:false,&quot;origItem&quot;:[&quot;Path&quot;,{&quot;applyMatrix&quot;:true,&quot;segments&quot;:[[[644.56667,520.3125],[-10.74954,-0.02493],[3.36267,0.0078]],[[657.3306,521.84036],[-3.05094,0.66835],[1.47633,-0.32341]],[[657.56667,517.3125],[0.04604,1.51064],[-0.05077,-1.66589]],[[657.56667,512.3125],[0,1.66667],[0,0]],[[657.57078,512.18913],[-0.00411,0.07951],[-0.21417,-0.00276]],[[656.92826,512.1811],[0.21417,0.00259],[-0.00293,-2.76013]],[[656.93459,503.90085],[-0.01017,2.75998],[0.00586,-1.58768]],[[656.31577,495.58781],[1.02114,1.9155],[-2.49278,-4.6761]],[[639.82937,490.48677],[4.30574,0.4726],[0,0]],[[636.57153,488.90069],[1.32098,1.37088],[-1.41416,0.32306]],[[632.36463,489.80929],[1.36322,-0.31648],[-8.22084,1.90848]],[[605.46581,490.57783],[8.81122,0.25452],[2.4454,3.91253]],[[608.7703,504.32455],[-0.39088,-4.77593],[1.79637,1.46105]],[610.56667,508.3125],[[610.49864,510.49051],[0,0],[0.54381,3.26283]],[[612.31763,520.30909],[-0.32664,-3.21574],[10.74968,-0.00723]]],&quot;closed&quot;:true}]}" fill="#1b130b" stroke="none" stroke-width="0.5" stroke-linecap="butt"/><path d="" data-paper-data="{&quot;noHover&quot;:false,&quot;origItem&quot;:[&quot;Path&quot;,{&quot;applyMatrix&quot;:true,&quot;segments&quot;:[[[543.54233,513.80519],[0.25435,-1.57199],[-0.16076,0.99353]],[[542.23738,516.52799],[-0.14982,-0.99524],[0.09076,0.60292]],[[544.01629,516.95368],[-0.5763,-0.19908],[5.62853,1.94431]],[[559.05935,520.33683],[-5.90527,-0.5454],[5.35726,0.49479]],[[574.97907,523.32954],[-5.37617,-0.48875],[6.39739,0.58159]],[[594.56667,523.3125],[-6.42799,0],[1.05347,0]],[[597.74939,523.77999],[-1.06184,-0.22693],[0.76557,-2.95002]],[[602.32798,520.32402],[-0.86334,0.0657],[-0.39267,-2.8469]],[[600.73923,512.56397],[0.30508,1.24115],[-0.24825,0.0023]],[[599.99448,512.57075],[0.24825,-0.00221],[-0.31463,-0.78554]],[[599.28701,510.22629],[0.09634,0.77071],[-0.45798,-3.66384]],[[595.03927,494.42693],[5.15054,1.68118],[-2.34118,-0.76418]],[[587.69343,493.63671],[2.44862,0.2634],[0,0]],[[583.42357,489.59489],[0.44428,3.4953],[-12.37122,-1.33364]],[[546.30477,487.31331],[12.5632,0.22344],[-0.52082,7.35291]],[[544.01475,509.09149],[0.31456,-7.29039],[-0.14615,-0.02114]],[[543.57608,509.02896],[0.14629,0.02054],[0.04478,1.5967]]],&quot;closed&quot;:true}]}" fill="#1b130b" stroke="none" stroke-width="0.5" stroke-linecap="butt"/><path d="M338.6487,140.24248c-0.04283,-0.21353 -0.21464,-1.25298 -0.39165,-2.08678c-0.02285,-0.28447 -0.09614,-0.54895 -0.20626,-0.79857c-0.37492,-0.84988 -1.21213,-1.43363 -2.19127,-1.47211c-2.11231,-1.5827 -5.02735,-2.72467 -7.77404,-3.54281l0.07117,-0.78451c0.39886,-1.09804 0.80604,-2.19706 1.20078,-3.27435c0.76795,0.26819 1.53297,0.08977 1.53297,0.08977l0.00001,-0.00002c2.02306,-0.47808 5.0334,-1.26566 7.16725,-0.8199c1.41088,0.29473 0.95027,1.60199 1.11724,2.6119c0.15314,0.92625 0.17326,1.71602 0.07158,2.41468c0.1929,0.07632 0.36446,0.20305 0.49641,0.3587c0.015,0.78318 0.17007,1.7525 0.18555,3.02267c0.00106,0.08702 0.00198,0.17623 0.00287,0.26325l-0.03155,0.31611c-0.00933,0.10636 -0.03231,0.21153 -0.0666,0.30857c-0.0623,0.79193 -0.13441,1.64271 -0.09003,1.90851c0.05873,0.35179 0.11876,0.70628 0.18458,1.05367c-0.00679,1.53577 -0.03129,3.08533 -0.02059,4.62103c0.00006,0.00901 -0.05713,-0.06389 -0.05701,-0.05477c-0.47156,-1.80348 -1.05809,-3.42055 -1.20139,-4.13506z" data-paper-data="{&quot;noHover&quot;:false,&quot;origItem&quot;:[&quot;Path&quot;,{&quot;applyMatrix&quot;:true,&quot;segments&quot;:[[[283.03655,137.62096],[0,0],[0.04283,-0.21353]],[[283.42059,135.52328],[-0.17701,0.8338],[0.02285,-0.28447]],[[283.62404,134.71815],[-0.11012,0.24962],[0.37492,-0.84988]],[[285.81258,133.22817],[-0.97914,0.03848],[2.11231,-1.5827]],[[293.67924,129.66076],[-2.74669,0.81814],[0,0]],[[293.52553,128.93249],[0,0],[-0.39886,-1.09804]],[[292.33888,125.67086],[0.39474,1.07729],[-0.76795,0.26819]],[290.81287,125.76411],[[290.81286,125.76409],[0,0],[-2.02306,-0.47808]],[[283.68635,124.9428],[2.13385,-0.44576],[-1.41088,0.29473]],[[282.58067,127.54689],[0.16697,-1.00991],[-0.15314,0.92625]],[[282.51778,129.95129],[-0.10168,-0.69866],[-0.1929,0.07632]],[[282.02356,130.3062],[0.13195,-0.15565],[-0.015,0.78318]],[[281.84365,133.30565],[0.01548,-1.27017],[-0.00106,0.08702]],[[281.84072,133.5667],[0.00089,-0.08702],[0,0]],[[281.87207,133.88016],[0,0],[0.00933,0.10636]],[[281.93834,134.18611],[-0.03429,-0.09704],[0.0623,0.79193]],[[282.02391,136.08036],[0.04438,-0.2658],[-0.05873,0.35179]],[[281.83633,137.12871],[0.06582,-0.34739],[0.00679,1.53577]],[[281.84365,141.73599],[0.0107,-1.5357],[-0.00006,0.00901]],[[281.84338,141.76319],[0.00012,-0.00912],[0.47156,-1.80348]],[[283.03655,137.62094],[-0.1433,0.71451],[0,0]]],&quot;closed&quot;:true,&quot;fillColor&quot;:[0,0,0,1]}],&quot;index&quot;:null}" fill="#385130" stroke="none" stroke-width="0.5" stroke-linecap="butt"/><path d="M283.8771,141.10297c0.44278,-2.67525 -0.05774,-6.22473 0.01083,-7.40896c0.02499,-0.43163 0.3123,-1.55814 0.35158,-2.48807c0.0194,-0.02322 0.0403,-0.04668 0.06209,-0.06889c-0.02639,-0.51591 -0.35195,-2.32947 0.38467,-2.78891c1.84085,-1.14815 4.59775,-1.45042 6.67199,-1.4134c0,0 0.05787,0.00024 0.15448,-0.00834c1.31182,2.44546 2.7428,4.90285 4.0914,7.32954c-2.05118,0.66561 -4.50107,1.6058 -6.63404,2.8181c-0.04174,0.00752 -0.08559,0.01551 -0.12799,0.0249c-0.01166,-0.00946 -0.02402,-0.01913 -0.0358,-0.02865c-0.00965,0.01446 -0.01958,0.02883 -0.02933,0.04327c-1.62474,0.39233 -3.70949,2.096 -4.89988,3.9894z" data-paper-data="{&quot;noHover&quot;:false,&quot;origItem&quot;:[&quot;Path&quot;,{&quot;applyMatrix&quot;:true,&quot;segments&quot;:[[[337.78423,131.04145],[0.06857,1.18423],[-0.02499,-0.43163]],[[337.43807,128.5734],[0.03928,0.92993],[-0.0194,-0.02322]],[[337.37632,128.50516],[0.02179,0.02221],[0.02639,-0.51591]],[[337.00258,125.73016],[0.73662,0.45944],[-1.84085,-1.14815]],[[330.37501,124.32813],[2.07424,-0.03702],[0,0]],[[330.22152,124.31955],[0.09661,0.00858],[-1.31182,2.44546]],[[326.1679,131.59859],[1.3486,-2.42669],[2.05118,0.66561]],[[332.73989,134.37019],[-2.13297,-1.2123],[0.04174,0.00752]],[[332.8661,134.39557],[-0.0424,-0.00939],[0.01166,-0.00946]],[[332.90126,134.36711],[-0.01178,0.00952],[0.00965,0.01446]],[[332.93036,134.41045],[-0.00975,-0.01444],[1.62474,0.39233]],[[337.81313,138.40909],[-1.19039,-1.8934],[-0.44278,-2.67525]]],&quot;closed&quot;:true,&quot;fillColor&quot;:[0,0,0,1]}],&quot;index&quot;:null}" fill="#385130" stroke="none" stroke-width="0.5" stroke-linecap="butt"/><path d="" data-paper-data="{&quot;index&quot;:null}" fill="#000000" stroke="none" stroke-width="0.5" stroke-linecap="butt"/><path d="M325.71882,96.073c2.67476,3.80482 5.69117,7.63066 8.00198,11.65092c0.4072,0.70842 0.65599,1.50829 1.10073,2.19376c0.18117,0.27922 0.95021,0.39769 0.748,0.66208c-0.30692,0.40129 -0.98558,0.23123 -1.48556,0.30367c-2.12419,0.30778 -4.24435,0.69084 -6.38245,0.87895c-7.30757,0.64292 -15.03649,-0.23811 -22.38337,-0.23811c-4.7945,0.01664 -9.59386,-0.79551 -14.40512,-1.02208c-1.58667,-0.07472 -3.19604,-0.2529 -4.77666,-0.13697c2.65843,-2.39755 4.89686,-6.97782 6.5309,-9.56394c0.01689,-0.02673 1.86419,-3.53115 2.26452,-3.75301c3.92904,-2.17747 10.6537,-1.61441 14.9091,-1.61441c5.39375,0 10.61605,-0.16019 15.87794,0.63913z" data-paper-data="{&quot;noHover&quot;:false,&quot;origItem&quot;:[&quot;Path&quot;,{&quot;applyMatrix&quot;:true,&quot;segments&quot;:[[[592.09546,186.88092],[0,0],[-5.34952,7.60966]],[[576.101,210.11974],[4.62162,-8.04052],[-0.8144,1.41684]],[[573.89784,214.49948],[0.88948,-1.37094],[-0.36234,0.55844]],[[572.40138,215.82194],[-0.40442,-0.52878],[0.61384,0.80258]],[[575.3717,216.42654],[-0.99996,-0.14488],[4.24838,0.61556]],[[588.13124,218.1708],[-4.2762,-0.37622],[14.61514,1.28584]],[[632.74998,217.65624],[-14.69376,0],[9.589,0.0333]],[[661.5234,215.66138],[-9.62252,0.45314],[3.17334,-0.14944]],[[671.07482,215.3937],[-3.16124,-0.23186],[-5.31686,-4.79508]],[[658.0108,196.30756],[3.26808,5.17224],[-0.03378,-0.05346]],[[653.48822,188.82432],[0.80066,0.44372],[-7.85808,-4.35494]],[[623.74996,185.65626],[8.5108,0],[-10.7875,0]],[[592.09542,186.88094],[10.52378,-1.59864],[0,0]]],&quot;closed&quot;:true,&quot;fillColor&quot;:[0,0,0,1]}],&quot;index&quot;:null}" fill="#385130" stroke="none" stroke-width="0.5" stroke-linecap="butt"/><path d="M323.34337,130.77005c-1.16172,-0.04457 -2.38016,-0.21033 -3.21682,0.49376c-3.1576,2.65728 0.43248,7.19071 -3.73118,8.37143c-1.76964,0.50184 -4.72105,-0.25403 -6.46612,-0.53271c-0.46278,-0.07391 -1.05551,0.15061 -1.40253,-0.16436c-1.11688,-1.0137 -0.18372,-3.16544 -1.03476,-4.41072c-2.38679,-3.49244 -3.23133,-2.8617 -6.69126,-3.02526l-1.11474,-0.00173c-2.8952,-5.16107 -6.0399,-10.29166 -7.90055,-15.93955c4.52108,0.25379 9.01762,0.86302 13.5415,0.87679c7.71861,0 15.73111,0.81079 23.43639,0.07488c-1.98062,4.37213 -3.55133,8.80087 -5.21641,13.37474l-0.20352,0.88272z" data-paper-data="{&quot;noHover&quot;:false,&quot;origItem&quot;:[&quot;Path&quot;,{&quot;applyMatrix&quot;:true,&quot;segments&quot;:[[[603.28497,257.18272],[-1.67332,-1.40818],[6.31519,5.31455]],[[610.69892,273.87079],[-8.32731,-2.36145],[3.53929,1.00367]],[[623.5826,272.79444],[-3.49013,0.55736],[0.92557,-0.14781]],[[626.37534,272.46685],[-0.69405,0.62993],[2.23376,-2.0274]],[[628.42258,263.65157],[-1.70209,2.49057],[4.77358,-6.98488]],[[641.75,257.65625],[-6.91986,0.32711],[0,0]],[[643.97816,257.65625],[0,0],[5.79041,-10.32215]],[[659.78966,225.86595],[-3.7213,11.29577],[-9.04216,0.50758]],[[632.75,227.65625],[9.04776,-0.02754],[-15.43723,0]],[[586.00313,227.76618],[15.41056,1.47182],[3.96123,8.74426]],[[596.44897,254.44753],[-3.33017,-9.14774],[0,0]],[[596.85468,256.20637],[0,0],[2.32343,-0.08913]]],&quot;closed&quot;:true}],&quot;index&quot;:null}" fill="#131313" stroke="none" stroke-width="0.5" stroke-linecap="butt"/><path d="M306.08319,127.62411h-4.38889l-2.33333,-4.5l2.22222,-4.33334h4.05556l2.44444,4.16667z" data-paper-data="{&quot;index&quot;:null}" fill="#9d0201" stroke="#323231" stroke-width="2" stroke-linecap="round"/><path d="M310.44428,133.35672h0.11111c2.00799,0 3.99231,0.11111 6,0.11111c0,0 0.25,0 0.25,0.25c0,0.25 -0.25,0.25 -0.25,0.25c-2.00778,0 -3.99202,-0.11111 -6,-0.11111h-0.11111c0,0 -0.25,0 -0.25,-0.25c0,-0.25 0.25,-0.25 0.25,-0.25z" data-paper-data="{&quot;index&quot;:null}" fill="#000000" stroke="none" stroke-width="0.5" stroke-linecap="butt"/><path d="M310.69856,135.14735l0.37234,-0.12071c1.71688,-0.01144 3.44822,-0.10993 5.15116,-0.11434c0,0 0.25,0 0.25,0.25c0,0.25 -0.25,0.25 -0.25,0.25c-1.67671,-0.00486 -3.37895,0.12139 -5.07106,0.10788l-0.29433,0.10151c0,0 -0.23718,0.07906 -0.31623,-0.15811c-0.07905,-0.23717 0.15812,-0.31623 0.15812,-0.31623z" data-paper-data="{&quot;index&quot;:null}" fill="#000000" stroke="none" stroke-width="0.5" stroke-linecap="butt"/><path d="M309.66246,136.91232l0.33687,-0.00546c1.98494,-0.09118 3.99733,-0.43624 6.00053,-0.43902c0,0 0.25,0 0.25,0.25c0,0.25 -0.25,0.25 -0.25,0.25c-1.99721,-0.00304 -4.00534,0.3446 -5.98478,0.43878l-0.34449,0.00563c0,0 -0.24996,0.00407 -0.25403,-0.2459c-0.00407,-0.24997 0.2459,-0.25403 0.2459,-0.25403z" data-paper-data="{&quot;index&quot;:null}" fill="#000000" stroke="none" stroke-width="0.5" stroke-linecap="butt"/><path d="M306.08319,127.62411h-4.38889l-2.33333,-4.5l2.22222,-4.33334h4.05556l2.44444,4.16667z" data-paper-data="{&quot;index&quot;:null}" fill="none" stroke="#1a1a1a" stroke-width="0.5" stroke-linecap="round"/><g data-paper-data="{&quot;index&quot;:null}" fill="#000000" stroke="none" stroke-width="1" stroke-linecap="butt" font-family="&quot; Pro W3&quot;, &quot;Hiragino Kaku Gothic Pro&quot;, Osaka, &quot;&quot;, Meiryo, &quot; &quot;, &quot;MS PGothic&quot;" font-weight="normal" font-size="40" text-anchor="start"><text transform="translate(333.34708,108.25848) rotate(-180) scale(0.03846,-0.03846)" font-size="40" xml:space="preserve" fill="#000000" fill-rule="nonzero" stroke="none" stroke-width="1" stroke-linecap="butt" stroke-linejoin="miter" stroke-miterlimit="10" stroke-dasharray="" stroke-dashoffset="0" font-family="&quot; Pro W3&quot;, &quot;Hiragino Kaku Gothic Pro&quot;, Osaka, &quot;&quot;, Meiryo, &quot; &quot;, &quot;MS PGothic&quot;" font-weight="normal" text-anchor="start" style="mix-blend-mode: normal"><tspan x="0" dy="0">The Black Mesa</tspan><tspan x="0" dy="46.150000000000006px">Pivovar13</tspan></text><text transform="translate(326.93683,109.21777) rotate(-180) scale(0.01021,-0.01021)" font-size="40" xml:space="preserve" fill="#000000" fill-rule="nonzero" stroke="none" stroke-width="1" stroke-linecap="butt" stroke-linejoin="miter" stroke-miterlimit="10" stroke-dasharray="" stroke-dashoffset="0" font-family="&quot; Pro W3&quot;, &quot;Hiragino Kaku Gothic Pro&quot;, Osaka, &quot;&quot;, Meiryo, &quot; &quot;, &quot;MS PGothic&quot;" font-weight="normal" text-anchor="start" style="mix-blend-mode: normal"><tspan x="0" dy="0">TM</tspan></text></g><g data-paper-data="{&quot;index&quot;:null}"><path d="M320.23524,188.70146l9,-1.44445l2.55555,14.33334l-7.88889,2.44444z" fill="#121212" stroke="#000000" stroke-width="0" stroke-linecap="round"/><path d="M331.42713,192.11937c-2.33132,-1.13033 -1.55937,-5.03636 -2.36364,-4.54545c-0.90163,0.55034 0.63636,5.09091 0.63636,5.09091l2.27273,9.09091l-8.09091,2.18182l-2.81818,-8.54546l-0.72727,-6.72727h-0.81818l-0.54546,-0.54546l-8.54546,0.09091l0.18182,3l-0.72727,0.72728l-0.90341,-0.14844l-1.875,3.375l0.625,0.75l-1.375,1.25l-7.25,-2.375l5.875,-9.25v-2.125l-4,-2.5l-34,9.375l-2.375,-15.25l38.125,-2.25l-0.02841,-1.12428h1.18182l1.36364,-3.09091l0.90909,-0.09091l0.09091,-2l1.54546,-1.18182l3.27273,-0.27273c0,0 17.51031,0.40434 19.36364,1.18181c1.4205,0.5959 0.63636,4.72728 0.63636,4.72728l2.81819,0.63636l0.18182,-1.27273l28.54545,-0.36363l1,-3.63637l5.09091,-0.18181l0.45454,0.45454l10.54546,0.09091l4.45454,-5.72728l3.54546,-0.09091l-0.72727,11.72728h13.27273l1.09091,-1.09091h9.36364v4.81818l-9.45455,0.09091l-0.90909,-1l-13.81818,0.18182l1,1.45455l-0.09091,1.63637h-2.90909v-3h-5l-0.27273,0.81818l-1.54545,0.09091l-0.63637,3h-0.81818l0.18182,1l11.45455,0.18182l2,2v2.45454l-1.27273,2.18182l-20.27273,0.09091l-1.09091,1.36364h-27.63637c0,0 -0.29326,2.59003 -1.54545,3.09091c-1.25219,0.50088 -4.30503,1.31216 -6.63636,0.18182z" fill="#121111" stroke="#000000" stroke-width="1" stroke-linecap="round"/><path d="M313.60899,167.3921l15.18182,-0.18182l0.90909,1.18182l-0.09091,2.18182l-16.90909,0.63636l-0.18182,-1.45454z" fill="#000000" stroke="#000000" stroke-width="1" stroke-linecap="round"/><path d="M313.52414,185.08758c0,0 0.86066,1.06363 1.46667,1.33334c0.50661,0.22546 -0.73334,-1.53334 -0.73334,-1.53334l0.26667,-1.26667c0,0 2.85332,-0.30143 3.86666,0.6c0.694,0.61736 1.63086,2.42854 0.06666,3c-1.48294,0.54178 -4.26666,-0.06667 -4.26666,-0.06667c0,0 -1.79093,-0.64872 -1.93334,-1.53333c-0.22487,-1.39674 1,-2.06667 1,-2.06667z" fill="#000000" stroke="#000000" stroke-width="0.5" stroke-linecap="round"/><path d="M340.61222,176.23667l0.57143,-1h1.28571l0.57143,0.85715l-0.5,1.07143l-1.28571,0.07143z" fill="#000000" stroke="#000000" stroke-width="0.5" stroke-linecap="round"/><path d="M343.46937,173.12954l0.57142,-1.10714h1.28572l0.57143,0.94898l-0.5,1.18622l-1.28572,0.07908z" fill="#000000" stroke="#000000" stroke-width="0.5" stroke-linecap="round"/><path d="M347.0408,176.27238l0.57142,-1.10714h1.28572l0.57143,0.94898l-0.5,1.18623l-1.28571,0.07908z" fill="#000000" stroke="#000000" stroke-width="0.5" stroke-linecap="round"/><path d="M349.7551,172.98667l0.57142,-1.32143h1.28571l0.57143,1.13266l-0.5,1.41581l-1.28571,0.09439z" fill="#000000" stroke="#000000" stroke-width="0.5" stroke-linecap="round"/><path d="M356.11224,172.98666l0.60504,-1.32142h1.36134l0.60504,1.13266l-0.52941,1.41581l-1.36135,0.09439z" fill="#000000" stroke="#000000" stroke-width="0.5" stroke-linecap="round"/><path d="M353.32653,176.27239l0.57142,-1.32142h1.28571l0.57143,1.13265l-0.5,1.41581l-1.28571,0.09439z" fill="#000000" stroke="#000000" stroke-width="0.5" stroke-linecap="round"/><path d="M359.75508,176.41525l0.57143,-1.32142h1.28572l0.57143,1.13265l-0.5,1.41582l-1.28571,0.09438z" fill="#000000" stroke="#000000" stroke-width="0.5" stroke-linecap="round"/><path d="M362.68366,172.98667l0.57143,-1.32143h1.28571l0.57143,1.13266l-0.5,1.41581l-1.28572,0.09439z" fill="#000000" stroke="#000000" stroke-width="0.5" stroke-linecap="round"/><path d="M366.11224,176.12954l0.57142,-1.32143h1.28571l0.57143,1.13265l-0.5,1.41582l-1.28572,0.09438z" fill="#000000" stroke="#000000" stroke-width="0.5" stroke-linecap="round"/><path d="M383.33246,167.69278l0.75,0.08333l-0.33333,2.83333l-2.91667,-0.16667l0.08334,-1l2.41666,-3.41667z" fill="#000000" stroke="#000000" stroke-width="0.5" stroke-linecap="round"/><path d="M380.58246,172.85945v-1h3.16667v1z" fill="#000000" stroke="none" stroke-width="0" stroke-linecap="butt"/><path d="M369.0289,172.90335l0.60504,-1.32143h1.36135l0.60504,1.13265l-0.52941,1.41582l-1.36135,0.09438z" fill="#000000" stroke="#000000" stroke-width="0.5" stroke-linecap="round"/><path d="M372.67175,176.33191l0.57143,-1.32143h1.28571l0.57143,1.13266l-0.5,1.41582l-1.28571,0.09438z" fill="#000000" stroke="#000000" stroke-width="0.5" stroke-linecap="round"/><path d="M375.60033,172.90334l0.57143,-1.32142h1.28571l0.57143,1.13265l-0.5,1.41581l-1.28571,0.09439z" fill="#000000" stroke="#000000" stroke-width="0.5" stroke-linecap="round"/><path d="M331.9143,188.78277c0,0 0.93012,1.14948 1.58504,1.44095c0.5475,0.24366 -0.79253,-1.6571 -0.79253,-1.6571l0.28819,-1.3689c0,0 3.08362,-0.32575 4.17876,0.64843c0.75003,0.66719 1.76251,2.62455 0.07205,3.24214c-1.60264,0.58551 -4.61104,-0.07205 -4.61104,-0.07205c0,0 -1.93547,-0.70108 -2.08938,-1.65709c-0.24302,-1.50948 1.08071,-2.23348 1.08071,-2.23348z" fill="#000000" stroke="#000000" stroke-width="0.5" stroke-linecap="round"/></g><path d="M302.22222,126.49306l87.55556,23.88889v-57.33334l-87.66667,26.88889l-1.61235,3.26104z" fill="url(#color-1)" stroke="#323231" stroke-width="0" stroke-linecap="round"/></g></g></svg>