<svg version="1.1" xmlns="http://www.w3.org/2000/svg" xmlns:xlink="http://www.w3.org/1999/xlink" width="160.07548" height="177.24576" viewBox="0,0,160.07548,177.24576"><defs><linearGradient x1="302.11111" y1="121.71528" x2="389.77778" y2="121.71528" gradientUnits="userSpaceOnUse" id="color-1"><stop offset="0" stop-color="#ff0000" stop-opacity="0.25882"/><stop offset="1" stop-color="#ff0000" stop-opacity="0"/></linearGradient></defs><g transform="translate(-251.12438,-90.74825)"><g data-paper-data="{&quot;isPaintingLayer&quot;:true}" fill-rule="nonzero" stroke-linejoin="miter" stroke-miterlimit="10" stroke-dasharray="" stroke-dashoffset="0" style="mix-blend-mode: normal"><path d="M318.41982,234.35701c0,0 0.00001,-0.42088 -0.17268,-0.91726c0.56893,-2.42424 0.18568,-5.72284 0.1705,-7.58229c-0.02516,-3.08268 1.18664,-5.17787 1.4855,-8.29204c0.25711,-2.67912 0.00174,-5.51004 0.00174,-8.20315c0,-0.83333 -0.0068,-4.16223 -0.0068,-4.99556c0,0 0.05967,-2.41978 -2.44033,-2.41978c-2.5,0 -2.51272,2.50656 -2.51272,2.50656l-0.00265,2.50083c0,0.83333 -0.00193,1.66718 -0.00193,2.50051c0,2.56535 0.22062,5.2399 0.00491,7.79453c-0.27034,3.20164 -1.48976,5.39165 -1.51286,8.70672c-0.0122,1.75118 -0.12041,3.40719 0.00509,5.15391c0.02396,0.33348 0.48568,0.86671 0.22685,1.07835c-0.30923,0.25284 -0.78608,-0.22059 -1.18443,-0.19119c-0.59188,0.04369 -5.1041,0.86336 -5.76884,1.06245c-7.46167,2.23483 -16.94509,0.8875 -24.81124,0.8875c-2.16637,0.00805 -6.47733,0.33626 -7.09611,-2.67173c-0.32464,-1.57813 0.0918,-3.22383 0.08839,-4.835c-0.00407,-1.92477 0.38278,-3.83487 0.48504,-5.75692c0.02819,-0.52997 -0.47414,-1.17036 -0.20406,-1.62722c0.9417,-1.59297 4.87593,-1.18497 6.29358,-1.18245c5.9745,0.01062 11.33841,-0.49549 16.9589,-2.52195l0.34808,0.01487l2.59514,0.14512c-0.91789,-3.91553 -2.01599,-7.7938 -3.38702,-11.46498c0,0 -0.09192,-0.24344 -0.29295,-0.54272c0.0196,-0.51699 0.02788,-1.02983 0.03009,-1.52842c0,0 -0.00048,-0.12077 -0.0268,-0.30829c0.22834,-0.04142 0.53978,-0.14613 0.76938,-0.20125c1.06423,-0.25549 1.93252,-1.04203 2.95835,-1.42352c3.72176,-1.38405 9.42515,-2.01298 11.85351,-5.70883c1.95922,-2.98184 0.6846,-8.26588 -1.0088,-10.92435c-2.36496,-3.71273 -5.4752,-3.68242 -8.7193,-5.21843c-0.26346,-0.33228 -0.5982,-0.54498 -0.91977,-0.68026c-0.53189,-1.27049 -1.10205,-2.67716 -1.55376,-4.00867c0.3329,-4.76454 0.31679,-9.55494 -0.04749,-14.33311l0.00804,-1.80845c0,0 0.02896,-2.40431 -2.47104,-2.40431l-0.00001,-0.00004c-1.21966,0 -1.84139,0.59397 -2.16129,1.20344c-1.36872,0.60877 -1.36616,2.28077 -1.36616,2.28077c0,3.70951 -0.59419,8.03414 0.03184,11.67568c0.2433,1.41526 0.61982,2.84363 1.07127,4.26257c-0.08077,0.92645 -0.17717,1.84506 -0.29776,2.75955c0.07626,0.04131 0.1517,0.08374 0.22661,0.12701c-0.114,0.78924 0.18532,1.48251 0.18532,1.48251c0.51003,1.03877 0.64351,2.22527 1.45551,3.04978c1.7786,1.80601 6.13362,3.03514 8.50623,3.64746l0.17076,0.67651c0,0 0.94928,0.93487 2.14371,0.75865c0.82764,1.64209 1.37474,3.72529 0.56062,4.9056c-0.88259,1.27956 -5.23209,2.4509 -6.60292,2.87806c-1.30491,0.40662 -2.53892,1.02546 -3.81621,1.5106c0.01698,-0.11001 0.0341,-0.21886 0.05072,-0.3289c-1.64032,1.17741 -3.74832,1.89613 -5.92155,1.89613c-1.65447,0 -3.21619,-0.40666 -4.59073,-1.11798c-1.04778,-0.54223 -1.98802,-1.26931 -2.77868,-2.1304c-3.07119,-4.73644 -0.82244,-9.72571 -0.79335,-15.45467c0,0 0.00102,-1.18124 -0.80902,-1.9199c0.02869,-0.73102 0.08224,-1.48561 0.16498,-2.2833c0.74031,-7.13686 1.94375,-14.13879 2.42262,-21.3035c0.20301,-3.03736 -0.00698,-5.88991 1.06552,-8.63065c1.3396,-0.90887 2.5708,-2.11163 3.14334,-2.99599c0.85288,-0.45002 1.7317,-0.82336 2.45895,-1.14759c1.54017,-0.68667 3.08155,-1.409 4.69861,-1.88731l1.401,-0.65879c0,0 1.00297,-0.50107 1.33031,-1.50265c3.77026,-0.24964 1.49459,3.65651 4.11859,6.11055c1.22906,1.14945 4.15341,1.8659 6.98311,2.11354c0.77067,0.03397 1.54434,0.06662 2.31636,0.09696c1.35911,-0.00904 2.56705,-0.14463 3.37513,-0.41243c1.88892,-0.62599 4.95031,-3.25785 5.66114,-5.13028c0.36164,-0.95262 -0.0695,-1.94116 -0.1612,-2.95598c-0.00172,-0.01901 0.01571,-0.13643 0.01115,-0.15648c0.38338,0.21216 0.70669,0.28677 0.70669,0.28677c3.22048,0.7154 7.22771,1.96787 9.59104,4.43913c0.35018,1.56589 1.15052,3.25906 1.55674,4.98363c0.03776,7.34397 0.66249,14.68203 0.7883,22.03709l-0.02849,0.0813c0,0 -0.11439,0.57756 0.04648,1.22743c0.0031,0.35389 0.00572,0.70871 0.00616,1.06274c-0.42777,0.36749 -0.76521,0.9499 -0.76521,1.86964c0,2.5 2.50338,2.50441 2.50338,2.50441c0.32864,-0.00014 7.03669,-0.02009 7.52914,0.06288c0.95612,0.16108 0.17541,1.93731 0.34878,2.89128c0.61808,3.40103 1.94897,6.42761 1.34799,10.0645c-0.83545,5.05573 -7.09482,4.21035 -10.84564,4.01505c-0.90406,-0.04707 -3.45151,-0.20521 -4.37163,-0.88306c-0.84872,-0.62526 -2.79711,-3.94907 -3.14053,-4.49515c-1.12322,-1.13337 -2.69261,-1.96206 -3.32387,-3.42756c-0.85276,-1.97972 -0.11927,-5.6451 -0.48876,-7.769c-1.22801,-7.05885 -0.40101,-14.35369 -1.2976,-21.52647l0.01962,-1.02315c0,0 0.00346,-2.49909 -2.49654,-2.49909c-2.5,0 -2.49772,2.50046 -2.49772,2.50046l0.03716,1.54503c0.90821,7.26563 0.0839,14.63991 1.36707,21.80342c0.50073,2.7954 -0.28199,6.25171 0.84976,8.89925c0.55779,1.30486 2.94824,3.52665 4.01362,4.58127c1.10427,1.77852 2.44561,4.28432 4.19088,5.5102c0.77974,0.54769 1.69366,0.88119 2.62098,1.14537c0.04954,0.50826 0.10607,1.02128 0.16982,1.53174c0.03467,0.00421 0.06934,0.00842 0.104,0.01269c-0.1733,0.82296 0.12896,1.58433 0.12896,1.58433c0.96993,2.42482 2.05777,4.82277 3.22827,7.18135c0.39812,-0.00284 0.79653,-0.00656 1.1942,-0.00919c0.31775,2.78961 1.14293,5.48224 2.1119,8.13694c-0.28933,1.0366 0.30186,2.0254 0.30186,2.0254c3.63256,6.05361 6.03997,12.3231 8.26631,19.00989l0.54626,1.12011c-0.46028,0.42007 -0.88417,0.82855 -1.26304,1.21421c-1.91309,5.02268 -6.79976,5.78727 -11.14793,8.20292c-2.17422,1.2079 -3.38554,2.47491 -6.02677,2.69357c-0.87029,0.07205 -5.77565,0.56146 -6.56612,-0.35052c-0.603,-0.6957 -0.56351,-1.75364 -0.88339,-2.61694c-0.64056,-1.72877 -1.76028,-3.24691 -2.47939,-4.94451c-0.79882,-1.88578 -0.34872,-4.72686 -0.34872,-6.69706z" data-paper-data="{&quot;noHover&quot;:false,&quot;origItem&quot;:[&quot;Path&quot;,{&quot;applyMatrix&quot;:true,&quot;segments&quot;:[[[318.42874,234.40625],[0,0],[0,1.9702]],[[318.76054,241.00476],[-0.79882,-1.88578],[0.71911,1.6976]],[[321.23843,245.94954],[-0.64056,-1.72877],[0.31988,0.8633]],[[322.1215,248.56654],[-0.603,-0.6957],[0.79047,0.91198]],[[328.68238,248.91841],[-0.87029,0.07205],[2.64123,-0.21866]],[[334.70391,246.22683],[-2.17422,1.2079],[4.34817,-2.41565]],[[345.84162,238.03001],[-1.91309,5.02268],[0.37887,-0.38566]],[[347.10347,236.81675],[-0.46028,0.42007],[0,0]],[[346.55701,235.6968],[0,0],[-2.22634,-6.68679]],[[338.28499,216.69247],[3.63256,6.05361],[0,0]],[[337.98191,214.66853],[-0.28933,1.0366],[-0.96897,-2.6547]],[[335.86511,206.53888],[0.31775,2.78961],[-0.39767,0.00263]],[[334.67143,206.54714],[0.39812,-0.00284],[-1.1705,-2.35858]],[[331.43882,199.37555],[0.96993,2.42482],[0,0]],[[331.30891,197.79458],[-0.1733,0.82296],[-0.03466,-0.00427]],[[331.20492,197.78186],[0.03467,0.00421],[-0.06375,-0.51046]],[[331.03437,196.25358],[0.04954,0.50826],[-0.92732,-0.26418]],[[328.4131,195.11011],[0.77974,0.54769],[-1.74527,-1.22588]],[[324.22312,189.61805],[1.10427,1.77852],[-1.06538,-1.05462]],[[320.21965,185.05716],[0.55779,1.30486],[-1.13175,-2.64754]],[[319.38566,176.17055],[0.50073,2.7954],[-1.28317,-7.16351]],[[318.03221,154.37176],[0.90821,7.26563],[0,0]],[318.0129,152.72834],[[320.5129,150.22834],[-2.5,0],[2.5,0]],[323.0129,152.72834],[[322.9936,153.75159],[0,0],[0.89659,7.17278]],[[324.30682,175.28614],[-1.22801,-7.05885],[0.36949,2.1239]],[[324.80616,183.0662],[-0.85276,-1.97972],[0.63126,1.4655]],[[328.13602,186.5053],[-1.12322,-1.13337],[0.34342,0.54608]],[[331.27937,191.01324],[-0.84872,-0.62526],[0.92012,0.67785]],[[335.65115,191.89884],[-0.90406,-0.04707],[3.75082,0.1953]],[[346.39729,187.89235],[-0.83545,5.05573],[0.60098,-3.63689]],[[345.05302,177.84107],[0.61808,3.40103],[-0.17337,-0.95397]],[[344.70582,174.95308],[0.95612,0.16108],[-0.49245,-0.08297]],[[337.17957,174.89501],[0.32864,-0.00014],[0,0]],[[334.67957,172.39501],[0,2.5],[0,-0.91974]],[[335.4457,170.52641],[-0.42777,0.36749],[-0.00044,-0.35403]],[[335.44033,169.46453],[0.0031,0.35389],[-0.16087,-0.64987]],[335.39478,168.23805],[[335.42331,168.15679],[0,0],[-0.12581,-7.35506]],[[334.64762,146.12883],[0.03776,7.34397],[-0.40622,-1.72457]],[[333.09382,141.14658],[0.35018,1.56589],[-2.36333,-2.47126]],[[323.51156,136.71029],[3.22048,0.7154],[0,0]],[[322.80551,136.42366],[0.38338,0.21216],[0.00456,0.02005]],[[322.81504,136.4823],[-0.00172,-0.01901],[0.0917,1.01482]],[[322.95486,139.53596],[0.36164,-0.95262],[-0.71083,1.87243]],[[317.29817,144.66704],[1.88892,-0.62599],[-0.80808,0.2678]],[[313.92647,145.07981],[1.35911,-0.00904],[-0.77202,-0.03034]],[[311.61253,144.98294],[0.77067,0.03397],[-2.8297,-0.24764]],[[304.63639,142.86901],[1.22906,1.14945],[-2.624,-2.45404]],[[300.52068,136.75801],[3.77026,-0.24964],[-0.32734,1.00158]],[299.19176,138.26038],[[297.79209,138.91887],[0,0],[-1.61706,0.47831]],[[293.09786,140.8049],[1.54017,-0.68667],[-0.72725,0.32423]],[[290.64122,141.95163],[0.85288,-0.45002],[-0.57254,0.88436]],[[287.50134,144.94609],[1.3396,-0.90887],[-1.0725,2.74074]],[[286.44032,153.57424],[0.20301,-3.03736],[-0.47887,7.16471]],[[284.03283,174.86305],[0.74031,-7.13686],[-0.08274,0.79769]],[[283.86953,177.14364],[0.02869,-0.73102],[0.81004,0.73866]],[[284.67957,179.06168],[0,0],[-0.02909,5.72896]],[[285.47849,194.48982],[-3.07119,-4.73644],[0.79066,0.86109]],[[288.25658,196.61523],[-1.04778,-0.54223],[1.37454,0.71132]],[[292.84623,197.72834],[-1.65447,0],[2.17323,0]],[[298.67109,195.85769],[-1.64032,1.17741],[-0.01662,0.11004]],[[298.62068,196.18776],[0.01698,-0.11001],[1.27729,-0.48514]],[[302.43628,194.67473],[-1.30491,0.40662],[1.37083,-0.42716]],[[309.04398,191.76195],[-0.88259,1.27956],[0.81412,-1.18031]],[[308.54611,186.92645],[0.82764,1.64209],[-1.19443,0.17622]],[306.41179,186.16278],[[306.23988,185.48703],[0,0],[-2.37261,-0.61232]],[[297.74512,181.82944],[1.7786,1.80601],[-0.812,-0.82451]],[[296.21502,178.71314],[0.51003,1.03877],[0,0]],[[296.03125,177.22908],[-0.114,0.78924],[-0.07491,-0.04327]],[[295.80451,177.10219],[0.07626,0.04131],[0.12059,-0.91449]],[[296.10566,174.33965],[-0.08077,0.92645],[-0.45145,-1.41894]],[[295.03705,170.07509],[0.2433,1.41526],[-0.62603,-3.64154]],[[295.01288,158.395],[0,3.70951],[0,0]],[[296.3816,156.11313],[-1.36872,0.60877],[0.3199,-0.60947]],[[298.54579,154.90864],[-1.21966,0],[0,0]],[[298.5458,154.90868],[0,0],[2.5,0]],[301.0458,157.40868],[[301.03844,159.21694],[0,0],[0.36428,4.77817]],[[301.09456,173.54661],[0.3329,-4.76454],[0.45171,1.33151]],[[302.60173,177.46681],[-0.53189,-1.27049],[0.32157,0.13528]],[[303.52281,178.14638],[-0.26346,-0.33228],[3.2441,1.53601]],[[312.27182,183.35996],[-2.36496,-3.71273],[1.6934,2.65847]],[[313.31514,194.3614],[1.95922,-2.98184],[-2.42836,3.69585]],[[301.38026,200.07305],[3.72176,-1.38405],[-1.02583,0.38149]],[[298.42061,201.49479],[1.06423,-0.25549],[-0.2296,0.05512]],[[297.73369,201.63948],[0.22834,-0.04142],[0.02632,0.18752]],[[297.76001,201.94708],[0,0],[-0.00221,0.49859]],[[297.72773,203.4726],[0.0196,-0.51699],[0.20103,0.29928]],[[298.01954,204.01397],[0,0],[1.37103,3.67118]],[[301.38822,215.46571],[-0.91789,-3.91553],[0,0]],[298.75008,215.41075],[[298.40147,215.39559],[0,0],[-5.62049,2.02646]],[[281.42871,217.90622],[5.9745,0.01062],[-1.41765,-0.00252]],[[275.1329,219.08586],[0.9417,-1.59297],[-0.27008,0.45686]],[[275.41655,220.65256],[0.02819,-0.52997],[-0.10226,1.92205]],[[274.92872,226.40622],[-0.00407,-1.92477],[0.00341,1.61117]],[[274.83801,231.23889],[-0.32464,-1.57813],[0.61878,3.00799]],[[281.92872,233.90622],[-2.16637,0.00805],[7.86615,0]],[[306.71635,233.00986],[-7.46167,2.23483],[0.66474,-0.19909]],[[312.47801,231.94718],[-0.59188,0.04369],[0.39835,-0.0294]],[[313.66095,232.13845],[-0.30923,0.25284],[0.25883,-0.21164]],[[313.44088,231.15987],[0.02396,0.33348],[-0.1255,-1.74672]],[[313.42871,225.90621],[-0.0122,1.75118],[0.0231,-3.31507]],[[314.93723,217.20001],[-0.27034,3.20164],[0.21571,-2.55463]],[[314.92871,209.40621],[0,2.56535],[0,-0.83333]],[[314.92871,206.90621],[0,0.83333],[0,0]],[314.92871,204.40621],[[317.42871,201.90621],[-2.5,0],[2.5,0]],[[319.92871,204.40621],[0,0],[0,0.83333]],[[319.92871,209.40621],[0,-0.83333],[0,2.69311]],[[319.92019,217.61241],[0.25711,-2.67912],[-0.29886,3.11417]],[[318.42871,225.90621],[-0.02516,-3.08268],[0.01518,1.85945]],[[318.25602,233.48895],[0.56893,-2.42424],[0.17269,0.49638]],[318.42871,234.40621]],&quot;closed&quot;:true,&quot;fillColor&quot;:[0,0,0,1]}]}" fill="#7b8a52" stroke="none" stroke-width="0.5" stroke-linecap="butt"/><path d="M331.7336,192.80094c0.40002,0.70319 0.0809,2.16517 0.52667,2.90467c2.97087,5.91519 3.8606,12.27805 6.32858,18.49387c2.52753,5.84619 4.39777,12.5722 7.89395,17.83397c1.68934,2.54327 4.2862,7.74864 0.60716,9.99211c-1.80111,1.0983 -4.8635,-0.94928 -7.04019,-0.43959c-2.30582,0.56484 -5.61643,2.72699 -8.03786,2.3799c-1.10336,-0.15815 -1.26479,-1.80606 -1.85101,-2.49686c-1.09635,-1.29191 -1.98333,-1.89216 -3.39925,-2.78798c-2.79168,-1.76623 -1.55719,-3.58564 -1.78777,-6.39724c-0.24113,-2.94025 -0.86996,-5.74404 -0.8994,-8.75301c0.81439,-4.83631 -3.61432,-5.76781 -5.04271,-9.44533c-0.86268,-2.22105 0.60396,-5.00539 1.48442,-6.97808c1.73597,-3.14106 2.19112,-6.69414 4.40562,-9.56446c0.74292,-0.96293 3.16506,-4.24658 3.17126,-4.21367c0.00619,0.03291 0.01178,0.06573 0.01678,0.09844c0,0 3.22373,-1.32991 3.62375,-0.62673z" data-paper-data="{&quot;index&quot;:null}" fill="#363c1a" stroke="none" stroke-width="0.5" stroke-linecap="butt"/><path d="M304.46293,197.38379c0.00111,3.00894 1.28158,6.53184 0.58523,9.4845c-0.21231,0.90023 -0.57186,1.57185 -1.03284,2.05393c-1.63723,0.2629 -3.30006,0.46034 -5.00192,0.54737c-1.26679,-0.47311 -2.45949,-1.24467 -3.27667,-2.05752c-0.78929,-2.30157 -0.34969,-4.53378 -0.13167,-6.8944c0.41719,-4.51717 9.30164,-5.36327 8.85787,-3.13388z" data-paper-data="{&quot;index&quot;:null}" fill="#3b4208" stroke="none" stroke-width="0.5" stroke-linecap="butt"/><path d="M333.7151,194.26652l0.32079,0.39544c0.23592,0.77384 0.73323,1.39928 1.0058,2.21859c0.09826,0.39444 0.19515,0.79021 0.2907,1.18719c-1.60305,-0.34794 -3.95456,-0.6514 -5.86934,-0.80847c1.01646,-0.78643 2.87612,-1.98399 2.79852,-3.23918c0,0 0,-0.5 0.5,-0.5c0.5,0 0.5,0.5 0.5,0.5c-0.00118,0.03347 -0.00293,0.0667 -0.00522,0.09971c0.25384,-0.0582 0.45876,0.14673 0.45876,0.14673z" data-paper-data="{&quot;index&quot;:null}" fill="#363c1a" stroke="none" stroke-width="0.5" stroke-linecap="butt"/><path d="M319.13395,158.45485c0.01744,-0.00145 0.02761,-0.00145 0.02761,-0.00145l0.00892,0.00157c0.04549,0.00148 0.11026,0.00839 0.17796,0.03131l0.29047,0.0511c2.58679,1.73636 1.4292,7.85769 1.72066,10.77124c0.40729,4.08666 3.32581,14.34479 -3.59801,14.34479c-0.95947,-0.04615 -1.12354,-0.37491 -1.87689,-0.9119c-1.35014,-0.96239 -2.54152,-1.77798 -3.00166,-3.44321c-0.92653,-3.35307 1.47126,-6.24471 -1.30813,-9.0279c-3.57359,-5.32389 2.30021,-11.23269 7.53146,-11.81394c0,0 0.01011,-0.00113 0.0276,-0.00161z" data-paper-data="{&quot;index&quot;:null}" fill="#40770e" stroke="none" stroke-width="0.5" stroke-linecap="butt"/><path d="M302.88874,148.42617c5.23061,0.03127 7.16633,4.96235 7.16667,9.5c0.00012,1.73221 0.44218,3.67848 -0.78,4.98366c-1.9994,3.00729 -7.62085,7.13103 -11.6226,4.79051c-1.85804,-1.08672 -2.60447,-3.40809 -3.03627,-5.35526c-0.72032,-3.30387 -0.91488,-9.61746 1.91518,-12.10229c1.46305,-1.28459 3.96753,-1.46112 5.87832,-1.48102c0.0954,-0.3356 0.4787,-0.3356 0.4787,-0.3356z" data-paper-data="{&quot;index&quot;:null}" fill="#629200" stroke="none" stroke-width="0.5" stroke-linecap="butt"/><path d="M267.21931,256.27796c-1.03407,0.36828 -2.19371,0.08553 -3.29057,0.12829c-1.09686,-0.04276 -2.24673,0.21131 -3.29057,-0.12829c-0.99457,-0.32357 -1.69491,-1.22875 -2.58226,-1.78237c-2.29559,-1.43221 -5.18032,-2.39972 -6.43687,-5.13263c-1.31418,-2.85825 0.34952,-6.26926 0.85481,-8.92948c0.32554,-1.71388 -0.19356,-3.49599 -0.03659,-5.23343c0.18243,-2.01936 0.81511,-3.98086 1,-6c0.34592,-3.77774 -1.06061,-7.79821 1.40438,-11.17003c4.06347,-5.55835 11.51309,-3.62377 17.5871,-3.62377c0,0 0.23746,0 0.566,0.07318c3.76032,-2.4652 8.85597,-1.11649 13.18765,-1.56102c3.23129,-0.3316 5.92973,-0.74434 8.86875,-1.66263c-0.47657,-1.82628 -1.01957,-3.63403 -1.68394,-5.40814c-0.13673,0.01422 -0.27334,0.02893 -0.40985,0.04415c-0.13226,0.01474 -0.28155,0.03349 -0.44539,0.05642c0.16433,-1.34243 0.25511,-2.69301 0.24805,-4.00106c0,0 0,-0.15615 0.03903,-0.3904c-0.25006,-0.05127 -0.49887,-0.10907 -0.74636,-0.17302h-0.3878c-0.20488,2.17801 -2.48532,2.17801 -2.48532,2.17801l-0.00001,-0.00004l-1.57368,-0.32939c-4.39402,-2.58532 -7.81141,-6.43256 -8.7564,-11.53281c-0.09376,-0.16246 -0.18113,-0.30236 -0.26021,-0.40883c0.04735,-0.10686 0.09517,-0.21351 0.14333,-0.3199c-0.01219,-0.08972 -0.02362,-0.17981 -0.0343,-0.27027c-0.07732,-0.6551 -0.10223,-1.30249 -0.08994,-1.94443c-0.1606,-0.89126 -0.24526,-1.87081 -0.26213,-3.02769v-2c0,0 0,-0.69514 0.36656,-1.35231c-0.19214,-1.86703 -0.13653,-3.74634 -0.0615,-4.9329c0.22387,-3.54045 0.91075,-6.99482 1.51033,-10.4638c-0.26731,-0.17368 -0.42437,-0.33074 -0.42437,-0.33074l-1.6638,-2.40855c-1.13017,-9.06133 -0.79818,-17.77408 0.4668,-26.65267c-0.09804,-2.08974 -0.36565,-4.09185 0.18527,-5.78475c0.03023,-0.0929 0.06293,-0.18486 0.09825,-0.27586c-0.00001,-0.00081 -0.00003,-0.00163 -0.00004,-0.00245l-0.00001,0.00002c-0.10588,-6.31595 4.39974,-8.60447 9.71697,-9.12768c-0.91044,-1.99366 -1.71839,-4.03535 -2.36154,-6.15395c0,0 -0.05388,-0.17959 -0.08294,-0.45517c-2.19501,0.0049 -5.46835,-0.07213 -6.04026,-0.74544c-3.52594,-4.15104 1.34503,-7.03226 3.22692,-9.71169c1.57868,-2.24772 3.20638,-4.56132 4.67127,-6.88173c1.05734,-1.67485 1.96149,-4.17176 3.73871,-5.25838c4.69246,-2.86906 12.42849,-2.41597 17.63087,-2.41597c6.38507,0 12.47016,-0.20547 18.74029,1.04855l1.00971,-0.04855c0,0 2.5,0 2.5,2.5c0,0.74923 -0.22454,1.27392 -0.53904,1.64137c2.98154,3.86372 6.57761,8.16349 7.86296,12.43701c0.42277,1.4056 1.40748,3.02557 0.75177,4.33877c-1.16038,2.32394 -3.34637,3.0433 -5.56626,3.40022c-0.01453,0.03298 -0.02337,0.05066 -0.02337,0.05066c-1.22321,2.44641 -2.27654,4.88349 -3.25521,7.34584c2.61334,-0.57773 6.22157,-1.2331 8.33048,-0.32856c3.29398,1.41283 4.802,4.87335 4.86121,8.3389c0.39452,1.02122 0.36054,3.6206 0.35884,4.54174c-0.00334,1.80314 -0.01435,3.60634 -0.01404,5.40948c0.05987,1.51579 0.14495,3.02771 0.25915,4.54152c0.03807,0.15086 0.07833,0.30231 0.11906,0.45418c0.01551,-0.02458 0.0312,-0.04909 0.04708,-0.07351c0.07125,0.50647 0.16019,1.00918 0.26641,1.50251c-0.50489,1.81392 -0.48134,4.04379 -1.07541,5.40945c-0.94074,2.16261 -2.54075,3.12513 -3.61912,5.2974c0.00802,0.09268 0.00802,0.14705 0.00802,0.14705c0,1.7425 -0.01205,3.42753 0.0687,5.12276c0.4045,0.52012 0.89422,1.02683 1.37983,1.54001c-0.29716,0.28728 -0.69943,0.54586 -1.21964,0.62141c0.02547,0.2455 0.05375,0.49179 0.08514,0.73907l-0.23407,1.59266c0.0083,0.51433 0.01416,1.02878 0.0172,1.54335c2.51831,0.01691 5.48455,0.12568 6.54325,0.61601c4.14242,1.91854 2.408,3.44584 2.98613,6.44534c0.95252,4.94187 2.87151,10.14914 0.05217,15.00544c-0.63773,1.09849 -1.29397,2.25145 -2.27784,3.0548c-2.49029,2.03338 -7.46456,2.45394 -11.59089,2.13611c0.03302,0.27145 0.06818,0.54316 0.10525,0.81509c0.86021,2.06743 1.88545,3.97716 2.94819,5.87055c1.45416,0.45388 1.62331,2.14538 1.62331,2.14538c0.31712,3.70344 2.47034,7.34088 3.77382,11.03793l-0.4156,-0.04795c2.87235,5.33035 4.98622,10.83423 6.93686,16.63469c5.98905,-4.18303 14.11557,-7.33605 18.40263,-0.54825c1.35613,2.1472 1.90615,4.92309 2.3571,7.40276c0.3463,1.90426 0.87517,4.38057 0.50868,6.35116c-1.46798,7.89318 -10.00322,11.88243 -16.30385,15.3121c-3.77005,2.05218 -5.33539,3.56691 -9.74179,4.25156c-4.71746,0.94473 -9.10611,1.60156 -13.92208,1.53589c-1.0475,-0.01428 -2.15014,0.25437 -3.14167,-0.08375c-6.12903,-2.09004 -9.10846,-8.03488 -10.30978,-13.92596l-0.04855,-0.99029c0,0 0,-0.18137 0.04885,-0.4464c-0.08157,-0.06809 -0.16213,-0.13934 -0.24162,-0.21389c-1.18345,-1.10991 -1.44767,-2.90498 -2.11693,-4.383c-0.77678,-1.71548 -1.84802,-3.29685 -2.52211,-5.05522c-0.69428,-1.81106 -0.75205,-3.77598 -0.71879,-5.72046c-1.89166,0.26967 -3.95348,0.32962 -5.23704,0.71532c-7.99251,2.40172 -17.81297,1.10364 -26.21237,1.10364c-2.13256,-0.00671 -4.30424,0.14042 -6.36378,-0.65396c-0.17974,-0.06933 -0.35421,-0.14203 -0.52358,-0.218c-1.72096,6.23921 -0.04354,15.47338 -7.82207,18.24367zM264.42874,219.40625c-1.34876,-0.03644 -2.73564,-0.52277 -4.04329,-0.1903c-0.67222,0.17091 -0.99868,0.98043 -1.36961,1.56653c-1.63062,2.57655 -0.33654,5.96218 -0.59562,8.82997c-0.18243,2.01936 -0.81511,3.98086 -1,6c-0.17939,1.95913 0.30947,3.78883 -0.03659,5.76657c-0.26988,1.54233 -1.85473,4.31794 -1.14519,6.07052c0.67413,1.66513 3.05875,1.88556 4.56313,2.86737c0.92438,0.60328 2.02644,1.17195 3.12717,1.08934c6.13977,0.46079 4.83276,-8.59957 5.53228,-12.40046c0.21496,-1.16801 0.73067,-2.26008 1.09601,-3.39011l-0.12829,-1.20943c0,0 0,-0.44748 0.18931,-0.9638c-1.27471,-3.18909 -0.96963,-7.21541 -0.67715,-10.78255c0.08526,-1.03984 -0.01556,-2.1667 0.03163,-3.23954c-1.84822,0.01653 -3.69647,0.0358 -5.5438,-0.01411zM318.42874,234.40625c0,1.9702 -0.46702,4.71273 0.3318,6.59851c0.71911,1.6976 1.83733,3.21601 2.47789,4.94478c0.31988,0.8633 0.28007,1.9213 0.88307,2.617c0.79047,0.91198 5.69059,0.42392 6.56088,0.35187c2.64123,-0.21866 3.84731,-1.48368 6.02153,-2.69158c4.34817,-2.41565 9.22462,-3.17414 11.13771,-8.19682c0.37887,-0.38566 0.80157,-0.79319 1.26185,-1.21326l-0.54646,-1.11995c-2.22634,-6.68679 -4.63946,-12.95072 -8.27202,-19.00433c0,0 -0.59241,-0.98734 -0.30308,-2.02394c-0.96897,-2.6547 -1.79905,-5.34004 -2.1168,-8.12965c-0.39767,0.00263 -0.79556,0.00542 -1.19368,0.00826c-1.1705,-2.35858 -2.26268,-4.74677 -3.23261,-7.17159c0,0 -0.30321,-0.75801 -0.12991,-1.58097c-0.03466,-0.00427 -0.06932,-0.00851 -0.10399,-0.01272c-0.06375,-0.51046 -0.12101,-1.02002 -0.17055,-1.52828c-0.92732,-0.26418 -1.84153,-0.59578 -2.62127,-1.14347c-1.74527,-1.22588 -3.08571,-3.71354 -4.18998,-5.49206c-1.06538,-1.05462 -3.44568,-3.25603 -4.00347,-4.56089c-1.13175,-2.64754 -0.33326,-6.09121 -0.83399,-8.88661c-1.28317,-7.16351 -0.44524,-14.53316 -1.35345,-21.79879l-0.01931,-1.64342c0,0 0,-2.5 2.5,-2.5c2.5,0 2.5,2.5 2.5,2.5l-0.0193,1.02325c0.89659,7.17278 0.08521,14.4757 1.31322,21.53455c0.36949,2.1239 -0.35342,5.80034 0.49934,7.78006c0.63126,1.4655 2.20664,2.30573 3.32986,3.4391c0.34342,0.54608 2.29463,3.88268 3.14335,4.50794c0.92012,0.67785 3.46772,0.83853 4.37178,0.8856c3.75082,0.1953 9.91069,1.04924 10.74614,-4.00649c0.60098,-3.63689 -0.72619,-6.65025 -1.34427,-10.05128c-0.17337,-0.95397 0.60892,-2.72691 -0.3472,-2.88799c-0.49245,-0.08297 -7.19761,-0.05821 -7.52625,-0.05807c0,0 -2.5,0 -2.5,-2.5c0,-0.91974 0.33836,-1.50111 0.76613,-1.8686c-0.00044,-0.35403 -0.00227,-0.70799 -0.00537,-1.06188c-0.16087,-0.64987 -0.04555,-1.22648 -0.04555,-1.22648l0.02853,-0.08126c-0.12581,-7.35506 -0.73793,-14.68399 -0.77569,-22.02796c-0.40622,-1.72457 -1.20362,-3.41636 -1.5538,-4.98225c-2.36333,-2.47126 -6.36178,-3.72089 -9.58226,-4.43629c0,0 -0.32267,-0.07447 -0.70605,-0.28663c0.00456,0.02005 0.00781,0.03963 0.00953,0.05864c0.0917,1.01482 0.50146,2.10104 0.13982,3.05366c-0.71083,1.87243 -3.76777,4.50509 -5.65669,5.13108c-0.80808,0.2678 -2.01259,0.40373 -3.3717,0.41277c-0.77202,-0.03034 -1.54327,-0.0629 -2.31394,-0.09687c-2.8297,-0.24764 -5.74708,-0.96448 -6.97614,-2.11393c-2.624,-2.45404 -0.34545,-6.36064 -4.11571,-6.111c-0.32734,1.00158 -1.32892,1.50237 -1.32892,1.50237l-1.39967,0.65849c-1.61706,0.47831 -3.15406,1.19936 -4.69423,1.88603c-0.72725,0.32423 -1.60376,0.69671 -2.45664,1.14673c-0.57254,0.88436 -1.80028,2.08559 -3.13988,2.99446c-1.0725,2.74074 -0.85801,5.59079 -1.06102,8.62815c-0.47887,7.16471 -1.66718,14.15195 -2.40749,21.28881c-0.08274,0.79769 -0.13461,1.54957 -0.1633,2.28059c0.81004,0.73866 0.81004,1.91804 0.81004,1.91804c-0.02909,5.72896 -2.27227,10.6917 0.79892,15.42814c0.79066,0.86109 1.73031,1.58318 2.77809,2.12541c1.37454,0.71132 2.93518,1.11311 4.58965,1.11311c2.17323,0 4.18454,-0.69324 5.82486,-1.87065c-0.01662,0.11004 -0.03343,0.22006 -0.05041,0.33007c1.27729,-0.48514 2.51069,-1.10641 3.8156,-1.51303c1.37083,-0.42716 5.72511,-1.63322 6.6077,-2.91278c0.81412,-1.18031 0.32977,-3.19341 -0.49787,-4.8355c-1.19443,0.17622 -2.13432,-0.76367 -2.13432,-0.76367l-0.17191,-0.67575c-2.37261,-0.61232 -6.71616,-1.85158 -8.49476,-3.65759c-0.812,-0.82451 -1.02007,-2.07753 -1.5301,-3.1163c0,0 -0.29777,-0.69482 -0.18377,-1.48406c-0.07491,-0.04327 -0.15048,-0.08558 -0.22674,-0.12689c0.12059,-0.91449 0.22038,-1.83609 0.30115,-2.76254c-0.45145,-1.41894 -0.82531,-2.8493 -1.06861,-4.26456c-0.62603,-3.64154 -0.02417,-7.97058 -0.02417,-11.68009c0,0 0,-1.6731 1.36872,-2.28187c0.3199,-0.60947 0.94453,-1.20449 2.16419,-1.20449l0.00001,0.00004c2.5,0 2.5,2.5 2.5,2.5l-0.00736,1.80826c0.36428,4.77817 0.38902,9.56513 0.05612,14.32967c0.45171,1.33151 0.97528,2.64971 1.50717,3.9202c0.32157,0.13528 0.65762,0.34729 0.92108,0.67957c3.2441,1.53601 6.38405,1.50085 8.74901,5.21358c1.6934,2.65847 3.00254,8.0196 1.04332,11.00144c-2.42836,3.69585 -8.21312,4.3276 -11.93488,5.71165c-1.02583,0.38149 -1.89542,1.16625 -2.95965,1.42174c-0.2296,0.05512 -0.45858,0.10327 -0.68692,0.14469c0.02632,0.18752 0.02632,0.3076 0.02632,0.3076c-0.00221,0.49859 -0.01268,1.00853 -0.03228,1.52552c0.20103,0.29928 0.29181,0.54137 0.29181,0.54137c1.37103,3.67118 2.45079,7.53621 3.36868,11.45174l-2.63814,-0.05496l-0.34861,-0.01516c-5.62049,2.02646 -10.99826,2.52125 -16.97276,2.51063c-1.41765,-0.00252 -5.35411,-0.41333 -6.29581,1.17964c-0.27008,0.45686 0.31184,1.03673 0.28365,1.5667c-0.10226,1.92205 -0.4919,3.82889 -0.48783,5.75366c0.00341,1.61117 -0.41535,3.25454 -0.09071,4.83267c0.61878,3.00799 4.92434,2.67538 7.09071,2.66733c7.86615,0 17.32596,1.33847 24.78763,-0.89636c0.66474,-0.19909 5.16978,-1.01899 5.76166,-1.06268c0.39835,-0.0294 0.87371,0.44411 1.18294,0.19127c0.25883,-0.21164 -0.19611,-0.6451 -0.22007,-0.97858c-0.1255,-1.74672 -0.02437,-3.50248 -0.01217,-5.25366c0.0231,-3.31507 1.23818,-5.50456 1.50852,-8.7062c0.21571,-2.55463 -0.00852,-5.22845 -0.00852,-7.7938c0,-0.83333 0,-1.66667 0,-2.5v-2.5c0,0 0,-2.5 2.5,-2.5c2.5,0 2.5,2.5 2.5,2.5c0,0.83333 0,4.16667 0,5c0,2.69311 0.24859,5.52708 -0.00852,8.2062c-0.29886,3.11417 -1.51664,5.21112 -1.49148,8.2938c0.01518,1.85945 0.39624,5.1585 -0.17269,7.58274c0.17269,0.49638 0.17269,0.91726 0.17269,0.91726zM324.09533,253.91176c0.85651,3.61029 2.72321,7.8778 6.47508,9.07825c1.54264,0.49358 3.23865,-0.0875 4.85833,-0.08375c3.40326,0.00788 6.73999,-0.79738 10.07792,-1.46411c5.10574,-0.64832 9.81049,-4.25888 14.03326,-7.11463c2.50144,-1.69166 5.74268,-3.24133 7.17438,-6.08153c2.2577,-4.47883 0.29604,-15.26829 -6.31278,-13.88484c-3.5675,0.7468 -7.83012,3.94628 -10.38567,6.42134c-1.10838,2.65785 -3.29847,5.35276 -5.90746,6.82796c-0.78962,0.44648 -1.82997,0.2104 -2.65922,0.57808c-2.1557,0.95582 -4.20479,2.76383 -6.29561,3.89715c-2.98407,1.61748 -5.9201,1.8314 -9.22481,1.82059c-0.59799,-0.00196 -1.21408,0.01188 -1.83341,0.00551zM325.15102,96.38665c-5.26188,-0.79932 -10.4335,-0.61234 -15.82725,-0.61234c-4.2554,0 -10.94009,-0.59344 -14.86913,1.58403c-0.40033,0.22186 -2.2444,3.71489 -2.26129,3.74162c-1.63404,2.58612 -3.87358,7.14553 -6.53201,9.54307c1.58062,-0.11593 3.18904,0.05912 4.77571,0.13384c4.81126,0.22657 9.59221,1.01408 14.38671,0.99743c7.34688,0 15.0018,0.9002 22.30937,0.25728c2.1381,-0.18811 4.25558,-0.56435 6.37977,-0.87213c0.49998,-0.07244 1.17824,0.09899 1.48516,-0.3023c0.20221,-0.26439 -0.56706,-0.38201 -0.74823,-0.66123c-0.44474,-0.68547 -0.69438,-1.48145 -1.10158,-2.18987c-2.31081,-4.02026 -5.32247,-7.81458 -7.99723,-11.6194zM319.55625,131.53755c0.83666,-0.70409 2.05343,-0.53275 3.21515,-0.48818l0.20285,-0.87942c1.66508,-4.57387 3.2423,-8.96855 5.22292,-13.34068c-7.70528,0.73591 -15.65482,-0.05496 -23.37343,-0.05496c-4.52388,-0.01377 -8.99875,-0.64136 -13.51983,-0.89515c1.86065,5.64789 5.01055,10.73408 7.90575,15.89515h1.11408c3.45993,0.16356 4.27692,-0.49478 6.66371,2.99766c0.85105,1.24528 -0.09326,3.39394 1.02362,4.40764c0.34702,0.31496 0.93359,0.08989 1.39637,0.16379c1.74507,0.27868 4.67219,1.04 6.44184,0.53817c4.16366,-1.18072 0.54938,-5.68676 3.70698,-8.34403zM283.38563,141.35528c1.19039,-1.8934 3.25803,-3.60631 4.88277,-3.99864c0.00975,-0.01444 0.01945,-0.02888 0.0291,-0.04334c0.01178,0.00952 0.0235,0.019 0.03516,0.02846c0.0424,-0.00939 0.08447,-0.01786 0.12621,-0.02538c2.13297,-1.2123 4.52081,-2.10599 6.57199,-2.7716c-1.3486,-2.42669 -2.7418,-4.83358 -4.05362,-7.27904c-0.09661,0.00858 -0.15349,0.00858 -0.15349,0.00858c-2.07424,-0.03702 -4.78672,0.25388 -6.62757,1.40203c-0.73662,0.45944 -0.40013,2.25909 -0.37374,2.775c-0.02179,0.02221 -0.04235,0.04502 -0.06175,0.06824c-0.03928,0.92993 -0.32117,2.03642 -0.34616,2.46805c-0.06857,1.18423 0.41388,4.69239 -0.0289,7.36764zM338.16221,140.56713c0.1433,0.71451 0.72161,2.33877 1.19317,4.14225c-0.00012,-0.00912 -0.00021,-0.01819 -0.00027,-0.0272c-0.0107,-1.5357 0.00053,-3.07151 0.00732,-4.60728c-0.06582,-0.34739 -0.12885,-0.69656 -0.18758,-1.04835c-0.04438,-0.2658 0.02327,-1.10232 0.08557,-1.89425c0.03429,-0.09704 0.05694,-0.19959 0.06627,-0.30595l0.03135,-0.31346c-0.00089,-0.08702 -0.00187,-0.17403 -0.00293,-0.26105c-0.01548,-1.27017 -0.16491,-2.21627 -0.17991,-2.99945c-0.13195,-0.15565 -0.30132,-0.27859 -0.49422,-0.35491c0.10168,-0.69866 0.09025,-1.47815 -0.06289,-2.4044c-0.16697,-1.00991 0.3052,-2.30936 -1.10568,-2.60409c-2.13385,-0.44576 -5.10345,0.34321 -7.12651,0.82129l-0.00001,0.00002c0,0 -0.75806,0.17494 -1.52601,-0.09325c-0.39474,1.07729 -0.78779,2.16359 -1.18665,3.26163l-0.15371,0.72827c2.74669,0.81814 5.75435,1.98471 7.86666,3.56741c0.97914,0.03848 1.81362,0.6401 2.18854,1.48998c0.11012,0.24962 0.1806,0.52066 0.20345,0.80513c0.17701,0.8338 0.34121,1.88415 0.38404,2.09768zM339.9264,149.82844c-0.04516,0.25842 -0.11036,0.5 -0.19863,0.72065c0.0698,2.29632 0.17594,4.59228 0.28535,6.8889c0.04782,0.0916 0.08876,0.18348 0.12384,0.27368c0.36923,-0.7066 0.74156,-1.41174 1.1067,-2.12446c-1.06594,-0.70059 -1.06594,-2.11683 -1.06594,-2.11683l0.01931,-1.27469c-0.0986,-0.79093 -0.18866,-1.57978 -0.27063,-2.36725zM339.98284,148.13162c0.01059,0.14752 0.01797,0.29304 0.02182,0.43612c0.03425,-0.01974 0.06649,-0.04091 0.09684,-0.06327c-0.04108,-0.12374 -0.08065,-0.24818 -0.11866,-0.37285z" fill="#000000" stroke="none" stroke-width="0.5" stroke-linecap="butt"/><path d="M324.14397,253.90017c0.61933,0.00637 1.23517,-0.00846 1.83316,-0.0065c3.30471,0.01081 6.14467,-0.17548 9.12874,-1.79296c2.09082,-1.13332 4.13795,-2.96228 6.29365,-3.9181c0.82925,-0.36768 1.87699,-0.1524 2.66661,-0.59888c2.60899,-1.4752 4.86457,-4.18766 5.97295,-6.84551c2.55555,-2.47506 6.83053,-5.66538 10.39803,-6.41218c6.60882,-1.38345 8.58487,9.44 6.32717,13.91883c-1.4317,2.8402 -4.67667,4.40997 -7.17811,6.10163c-4.22277,2.85575 -8.97514,6.49732 -14.08088,7.14564c-3.33793,0.66673 -6.7029,1.4623 -10.10616,1.45442c-1.61968,-0.00375 -3.32263,0.57116 -4.86527,0.07758c-3.75187,-1.20045 -5.63066,-5.49047 -6.48717,-9.10076z" data-paper-data="{&quot;noHover&quot;:false,&quot;origItem&quot;:[&quot;Path&quot;,{&quot;applyMatrix&quot;:true,&quot;segments&quot;:[[[324.09533,253.91176],[0,0],[0.85651,3.61029]],[[330.57041,262.99001],[-3.75187,-1.20045],[1.54264,0.49358]],[[335.42874,262.90626],[-1.61968,-0.00375],[3.40326,0.00788]],[[345.50666,261.44215],[-3.33793,0.66673],[5.10574,-0.64832]],[[359.53992,254.32752],[-4.22277,2.85575],[2.50144,-1.69166]],[[366.7143,248.24599],[-1.4317,2.8402],[2.2577,-4.47883]],[[360.40152,234.36115],[6.60882,-1.38345],[-3.5675,0.7468]],[[350.01585,240.78249],[2.55555,-2.47506],[-1.10838,2.65785]],[[344.10839,247.61045],[2.60899,-1.4752],[-0.78962,0.44648]],[[341.44917,248.18853],[0.82925,-0.36768],[-2.1557,0.95582]],[[335.15356,252.08568],[2.09082,-1.13332],[-2.98407,1.61748]],[[325.92875,253.90627],[3.30471,0.01081],[-0.59799,-0.00196]],[[324.09534,253.91178],[0.61933,0.00637],[0,0]]],&quot;closed&quot;:true,&quot;fillColor&quot;:[0,0,0,1]}]}" fill="#1b130b" stroke="none" stroke-width="0.5" stroke-linecap="butt"/><path d="M264.43216,219.35637c1.84733,0.04991 3.71146,0.0344 5.55968,0.01787c-0.04719,1.07284 0.05752,2.20153 -0.02774,3.24137c-0.29248,3.56714 -0.57226,7.62563 0.70245,10.81472c-0.18931,0.51632 -0.18818,0.96993 -0.18818,0.96993l0.12859,1.21787c-0.36534,1.13003 -0.88833,2.24573 -1.10329,3.41374c-0.69952,3.80089 0.56666,12.88513 -5.57311,12.42434c-1.10073,0.08261 -2.21293,-0.48672 -3.13731,-1.09c-1.50438,-0.98181 -3.90586,-1.20834 -4.57999,-2.87347c-0.70954,-1.75258 0.8656,-4.53556 1.13548,-6.07789c0.34606,-1.97774 -0.15784,-3.84031 0.02155,-5.79944c0.18489,-2.01914 0.83465,-4.02131 1.01708,-6.04067c0.25908,-2.86779 -1.01647,-6.26362 0.61415,-8.84017c0.37093,-0.5861 0.70264,-1.39688 1.37486,-1.56779c1.30765,-0.33247 2.70701,0.15315 4.05577,0.18959z" data-paper-data="{&quot;noHover&quot;:false,&quot;origItem&quot;:[&quot;Path&quot;,{&quot;applyMatrix&quot;:true,&quot;segments&quot;:[[[264.42874,219.40625],[0,0],[-1.34876,-0.03644]],[[260.38545,219.21595],[1.30765,-0.33247],[-0.67222,0.17091]],[[259.01584,220.78248],[0.37093,-0.5861],[-1.63062,2.57655]],[[258.42022,229.61245],[0.25908,-2.86779],[-0.18243,2.01936]],[[257.42022,235.61245],[0.18489,-2.01914],[-0.17939,1.95913]],[[257.38363,241.37902],[0.34606,-1.97774],[-0.26988,1.54233]],[[256.23844,247.44954],[-0.70954,-1.75258],[0.67413,1.66513]],[[260.80157,250.31691],[-1.50438,-0.98181],[0.92438,0.60328]],[[263.92874,251.40625],[-1.10073,0.08261],[6.13977,0.46079]],[[269.46102,239.00579],[-0.69952,3.80089],[0.21496,-1.16801]],[[270.55703,235.61568],[-0.36534,1.13003],[0,0]],[270.42874,234.40625],[[270.61805,233.44245],[-0.18931,0.51632],[-1.27471,-3.18909]],[[269.9409,222.6599],[-0.29248,3.56714],[0.08526,-1.03984]],[[269.97253,219.42036],[-0.04719,1.07284],[-1.84822,0.01653]],[[264.42873,219.40625],[1.84733,0.04991],[0,0]]],&quot;closed&quot;:true,&quot;fillColor&quot;:[0,0,0,1]}]}" fill="#1b130b" stroke="none" stroke-width="0.5" stroke-linecap="butt"/><path d="" fill="#000000" stroke="none" stroke-width="0.5" stroke-linecap="butt"/><path d="" data-paper-data="{&quot;noHover&quot;:false,&quot;origItem&quot;:[&quot;Path&quot;,{&quot;applyMatrix&quot;:true,&quot;segments&quot;:[[[301.02,284.43509],[0,0],[-0.48649,1.35086]],[[300.35678,288.69109],[-0.52267,-1.33728],[1.11613,2.85562]],[[308.45427,291.76454],[-2.24218,-0.42883],[3.74562,0.71638]],[[319.42965,293.09357],[-3.74915,-0.64317],[5.62646,0.96524]],[[336.01207,295.39178],[-5.76157,0.00622],[1.33333,0]],[[340.01207,295.39178],[-1.32656,-0.1342],[0.50986,0.05158]],[[341.44775,295.94168],[-0.42888,0.28049],[0.37573,-0.24574]],[[341.19366,294.61899],[0.03304,0.44774],[-0.21324,-2.89017]],[[338.49458,286.87855],[2.58696,1.91253],[-3.11025,-2.2994]],[[329.5094,284.67406],[3.45411,0.76575],[-2.70322,-0.59928]],[[324.07827,281.479],[1.99996,1.6369],[0,0]],[322.8454,280.55845],[[322.12528,279.72773],[0.30958,0.52281],[-0.68443,-0.00016]],[[320.67873,279.72511],[0.21452,0],[-4.35445,0]],[[308.54686,278.26081],[4.13278,1.46737],[-1.00529,-0.35693]],[[305.61331,277.34436],[0.91428,0.32012],[-1.65526,2.28608]],[[301.02,284.43508],[0.94333,-2.61939],[0,0]]],&quot;closed&quot;:true,&quot;fillColor&quot;:[0,0,0,1]}]}" fill="#1b130b" stroke="none" stroke-width="0.5" stroke-linecap="butt"/><path d="" data-paper-data="{&quot;noHover&quot;:false,&quot;origItem&quot;:[&quot;Path&quot;,{&quot;applyMatrix&quot;:true,&quot;segments&quot;:[[[262.34541,239.05845],[0,0],[-0.32826,-0.00287]],[[258.34269,239.42427],[0.77949,-0.75758],[-1.51727,1.47463]],[[256.33047,248.18522],[0.2052,-1.38223],[-0.42913,2.89071]],[[254.4564,256.74976],[0.69192,-2.83931],[-0.58439,2.39805]],[[254.08724,264.44429],[-0.1104,-2.59643],[0.66079,0.32787]],[[256.10654,265.36956],[-0.68186,-0.2935],[-0.71289,-0.16422]],[[254.099,264.72065],[0.61646,0.27296],[0.04118,0.9696]],[[254.17873,267.55845],[0,-0.91516],[0,2.65116]],[[255.25295,273.60918],[-1.65742,-2.05579],[1.39686,1.40923]],[[260.04949,277.13442],[-1.66322,-1.08204],[0.69886,0.45466]],[[262.06018,278.6221],[-0.74758,-0.36911],[7.62023,3.7625]],[[269.28806,266.60293],[0.25885,6.02446],[-0.33205,0.03141]],[[268.2657,266.62741],[0.34767,0.01294],[0.33082,-0.13584]],[[269.27026,266.19713],[-0.33957,0.15017],[-0.04654,-1.04389]],[[269.17873,263.55846],[0,0.68247],[0,0]],[269.17873,262.22513],[[269.36562,261.26796],[-0.18689,0.51352],[-0.9949,-2.34074]],[[268.84539,253.55846],[-0.00211,2.4075],[0.00398,-4.53963]],[[269.72042,239.3032],[-1.64723,4.26841],[-2.45342,-0.09127]],[[262.34539,239.05846],[2.47075,0.02163],[0,0]]],&quot;closed&quot;:true,&quot;fillColor&quot;:[0,0,0,1]}]}" fill="#1b130b" stroke="none" stroke-width="0.5" stroke-linecap="butt"/><path d="" data-paper-data="{&quot;noHover&quot;:false,&quot;origItem&quot;:[&quot;Path&quot;,{&quot;applyMatrix&quot;:true,&quot;segments&quot;:[[[685.18502,872.61899],[0,0],[1.43662,5.98084]],[[693.01062,884.03649],[-3.70218,-4.86454],[2.24742,2.23678]],[[699.59264,890.90413],[-2.72186,-1.62654],[0.9722,0.58098]],[[706.82094,891.32953],[-0.601,0.05898],[7.406,-0.72658]],[[726.8086,885.51977],[-6.97654,1.96418],[1.2142,-0.34184]],[[730.56748,885.08245],[-1.10602,0.60652],[2.30702,-1.26512]],[[734.3671,878.16373],[-0.68386,2.5407],[1.11344,-4.13668]],[[732.57348,864.12511],[1.20564,3.77476],[-0.59548,-1.8644]],[[730.63334,858.58331],[1.54934,1.19592],[-1.12408,-0.86766]],[[726.45242,859.40035],[1.41022,-0.16646],[-4.7625,0.5622]],[[712.46942,862.78461],[4.25664,-2.20872],[0,0]],[[709.1243,863.27397],[1.7568,0.3048],[-2.88902,2.03706]],[[699.0903,867.95487],[2.74046,-1.09482],[-4.28754,1.7129]],[[685.1907,871.99437],[4.76756,-0.4218],[0,0]]],&quot;closed&quot;:true,&quot;fillColor&quot;:[0,0,0,1]}]}" fill="#1b130b" stroke="none" stroke-width="0.5" stroke-linecap="butt"/><path d="" data-paper-data="{&quot;noHover&quot;:false,&quot;origItem&quot;:[&quot;Path&quot;,{&quot;applyMatrix&quot;:true,&quot;segments&quot;:[[[534.24752,820.15827],[0,0],[-4.04368,0.08802]],[[522.21394,821.21539],[3.95246,-0.81222],[-1.3621,0.26626]],[[510.4634,822.97835],[0.57882,-1.35172],[-1.33586,3.11964]],[[510.23336,835.31249],[0,-3.25428],[0,12.11958]],[[513.15144,871.41109],[-2.19068,-11.90282],[0.6726,3.65454]],[[517.2748,887.34391],[-3.32516,-2.37646],[3.6453,2.60526]],[[534.72606,889.33683],[-4.32258,0],[2.74784,0.54956]],[[542.9973,890.84037],[-2.70528,0.73084],[1.66574,-0.45002]],[[544.2577,885.81981],[-0.12208,1.72114],[0.32888,-4.6368]],[[543.33046,872.29307],[0.85138,4.52884],[-1.1888,-6.32378]],[[537.2817,856.00599],[1.2386,6.98638],[-0.92902,-5.24016]],[[537.2577,839.80517],[0.52952,5.28946],[-0.67414,-6.7343]],[[534.24754,820.15827],[0.19656,6.80238],[0,0]]],&quot;closed&quot;:true,&quot;fillColor&quot;:[0,0,0,1]}]}" fill="#1b130b" stroke="none" stroke-width="0.5" stroke-linecap="butt"/><path d="" data-paper-data="{&quot;noHover&quot;:false,&quot;origItem&quot;:[&quot;Path&quot;,{&quot;applyMatrix&quot;:true,&quot;segments&quot;:[[[644.56667,520.3125],[-10.74954,-0.02493],[3.36267,0.0078]],[[657.3306,521.84036],[-3.05094,0.66835],[1.47633,-0.32341]],[[657.56667,517.3125],[0.04604,1.51064],[-0.05077,-1.66589]],[[657.56667,512.3125],[0,1.66667],[0,0]],[[657.57078,512.18913],[-0.00411,0.07951],[-0.21417,-0.00276]],[[656.92826,512.1811],[0.21417,0.00259],[-0.00293,-2.76013]],[[656.93459,503.90085],[-0.01017,2.75998],[0.00586,-1.58768]],[[656.31577,495.58781],[1.02114,1.9155],[-2.49278,-4.6761]],[[639.82937,490.48677],[4.30574,0.4726],[0,0]],[[636.57153,488.90069],[1.32098,1.37088],[-1.41416,0.32306]],[[632.36463,489.80929],[1.36322,-0.31648],[-8.22084,1.90848]],[[605.46581,490.57783],[8.81122,0.25452],[2.4454,3.91253]],[[608.7703,504.32455],[-0.39088,-4.77593],[1.79637,1.46105]],[610.56667,508.3125],[[610.49864,510.49051],[0,0],[0.54381,3.26283]],[[612.31763,520.30909],[-0.32664,-3.21574],[10.74968,-0.00723]]],&quot;closed&quot;:true}]}" fill="#1b130b" stroke="none" stroke-width="0.5" stroke-linecap="butt"/><path d="" data-paper-data="{&quot;noHover&quot;:false,&quot;origItem&quot;:[&quot;Path&quot;,{&quot;applyMatrix&quot;:true,&quot;segments&quot;:[[[543.54233,513.80519],[0.25435,-1.57199],[-0.16076,0.99353]],[[542.23738,516.52799],[-0.14982,-0.99524],[0.09076,0.60292]],[[544.01629,516.95368],[-0.5763,-0.19908],[5.62853,1.94431]],[[559.05935,520.33683],[-5.90527,-0.5454],[5.35726,0.49479]],[[574.97907,523.32954],[-5.37617,-0.48875],[6.39739,0.58159]],[[594.56667,523.3125],[-6.42799,0],[1.05347,0]],[[597.74939,523.77999],[-1.06184,-0.22693],[0.76557,-2.95002]],[[602.32798,520.32402],[-0.86334,0.0657],[-0.39267,-2.8469]],[[600.73923,512.56397],[0.30508,1.24115],[-0.24825,0.0023]],[[599.99448,512.57075],[0.24825,-0.00221],[-0.31463,-0.78554]],[[599.28701,510.22629],[0.09634,0.77071],[-0.45798,-3.66384]],[[595.03927,494.42693],[5.15054,1.68118],[-2.34118,-0.76418]],[[587.69343,493.63671],[2.44862,0.2634],[0,0]],[[583.42357,489.59489],[0.44428,3.4953],[-12.37122,-1.33364]],[[546.30477,487.31331],[12.5632,0.22344],[-0.52082,7.35291]],[[544.01475,509.09149],[0.31456,-7.29039],[-0.14615,-0.02114]],[[543.57608,509.02896],[0.14629,0.02054],[0.04478,1.5967]]],&quot;closed&quot;:true}]}" fill="#1b130b" stroke="none" stroke-width="0.5" stroke-linecap="butt"/><path d="M338.64869,140.24247c-0.04283,-0.21353 -0.21464,-1.25298 -0.39165,-2.08678c-0.02285,-0.28447 -0.09614,-0.54895 -0.20626,-0.79857c-0.37492,-0.84988 -1.21213,-1.43363 -2.19127,-1.47211c-2.11231,-1.5827 -5.02735,-2.72467 -7.77404,-3.54281l0.07117,-0.78451c0.39886,-1.09804 0.80604,-2.19706 1.20078,-3.27435c0.76795,0.26819 1.53297,0.08977 1.53297,0.08977l0.00001,-0.00002c2.02306,-0.47808 5.0334,-1.26566 7.16725,-0.8199c1.41088,0.29473 0.95027,1.60199 1.11724,2.6119c0.15314,0.92625 0.17326,1.71602 0.07158,2.41468c0.1929,0.07632 0.36446,0.20305 0.49641,0.3587c0.015,0.78318 0.17007,1.7525 0.18555,3.02267c0.00106,0.08702 0.00198,0.17623 0.00287,0.26325l-0.03155,0.31611c-0.00933,0.10636 -0.03231,0.21153 -0.0666,0.30857c-0.0623,0.79193 -0.13441,1.64271 -0.09003,1.90851c0.05873,0.35179 0.11876,0.70628 0.18458,1.05367c-0.00679,1.53577 -0.03129,3.08533 -0.02059,4.62103c0.00006,0.00901 -0.05713,-0.06389 -0.05701,-0.05477c-0.47156,-1.80348 -1.05809,-3.42055 -1.20139,-4.13506z" data-paper-data="{&quot;noHover&quot;:false,&quot;origItem&quot;:[&quot;Path&quot;,{&quot;applyMatrix&quot;:true,&quot;segments&quot;:[[[283.03655,137.62096],[0,0],[0.04283,-0.21353]],[[283.42059,135.52328],[-0.17701,0.8338],[0.02285,-0.28447]],[[283.62404,134.71815],[-0.11012,0.24962],[0.37492,-0.84988]],[[285.81258,133.22817],[-0.97914,0.03848],[2.11231,-1.5827]],[[293.67924,129.66076],[-2.74669,0.81814],[0,0]],[[293.52553,128.93249],[0,0],[-0.39886,-1.09804]],[[292.33888,125.67086],[0.39474,1.07729],[-0.76795,0.26819]],[290.81287,125.76411],[[290.81286,125.76409],[0,0],[-2.02306,-0.47808]],[[283.68635,124.9428],[2.13385,-0.44576],[-1.41088,0.29473]],[[282.58067,127.54689],[0.16697,-1.00991],[-0.15314,0.92625]],[[282.51778,129.95129],[-0.10168,-0.69866],[-0.1929,0.07632]],[[282.02356,130.3062],[0.13195,-0.15565],[-0.015,0.78318]],[[281.84365,133.30565],[0.01548,-1.27017],[-0.00106,0.08702]],[[281.84072,133.5667],[0.00089,-0.08702],[0,0]],[[281.87207,133.88016],[0,0],[0.00933,0.10636]],[[281.93834,134.18611],[-0.03429,-0.09704],[0.0623,0.79193]],[[282.02391,136.08036],[0.04438,-0.2658],[-0.05873,0.35179]],[[281.83633,137.12871],[0.06582,-0.34739],[0.00679,1.53577]],[[281.84365,141.73599],[0.0107,-1.5357],[-0.00006,0.00901]],[[281.84338,141.76319],[0.00012,-0.00912],[0.47156,-1.80348]],[[283.03655,137.62094],[-0.1433,0.71451],[0,0]]],&quot;closed&quot;:true,&quot;fillColor&quot;:[0,0,0,1]}],&quot;index&quot;:null}" fill="#385130" stroke="none" stroke-width="0.5" stroke-linecap="butt"/><path d="M283.8771,141.10296c0.44278,-2.67525 -0.05774,-6.22473 0.01083,-7.40896c0.02499,-0.43163 0.3123,-1.55814 0.35158,-2.48807c0.0194,-0.02322 0.0403,-0.04668 0.06209,-0.06889c-0.02639,-0.51591 -0.35195,-2.32947 0.38467,-2.78891c1.84085,-1.14815 4.59775,-1.45042 6.67199,-1.4134c0,0 0.05787,0.00024 0.15448,-0.00834c1.31182,2.44546 2.7428,4.90285 4.0914,7.32954c-2.05118,0.66561 -4.50107,1.6058 -6.63404,2.8181c-0.04174,0.00752 -0.08559,0.01551 -0.12799,0.0249c-0.01166,-0.00946 -0.02402,-0.01913 -0.0358,-0.02865c-0.00965,0.01446 -0.01958,0.02883 -0.02933,0.04327c-1.62474,0.39233 -3.70949,2.096 -4.89988,3.9894z" data-paper-data="{&quot;noHover&quot;:false,&quot;origItem&quot;:[&quot;Path&quot;,{&quot;applyMatrix&quot;:true,&quot;segments&quot;:[[[337.78423,131.04145],[0.06857,1.18423],[-0.02499,-0.43163]],[[337.43807,128.5734],[0.03928,0.92993],[-0.0194,-0.02322]],[[337.37632,128.50516],[0.02179,0.02221],[0.02639,-0.51591]],[[337.00258,125.73016],[0.73662,0.45944],[-1.84085,-1.14815]],[[330.37501,124.32813],[2.07424,-0.03702],[0,0]],[[330.22152,124.31955],[0.09661,0.00858],[-1.31182,2.44546]],[[326.1679,131.59859],[1.3486,-2.42669],[2.05118,0.66561]],[[332.73989,134.37019],[-2.13297,-1.2123],[0.04174,0.00752]],[[332.8661,134.39557],[-0.0424,-0.00939],[0.01166,-0.00946]],[[332.90126,134.36711],[-0.01178,0.00952],[0.00965,0.01446]],[[332.93036,134.41045],[-0.00975,-0.01444],[1.62474,0.39233]],[[337.81313,138.40909],[-1.19039,-1.8934],[-0.44278,-2.67525]]],&quot;closed&quot;:true,&quot;fillColor&quot;:[0,0,0,1]}],&quot;index&quot;:null}" fill="#385130" stroke="none" stroke-width="0.5" stroke-linecap="butt"/><path d="" data-paper-data="{&quot;index&quot;:null}" fill="#000000" stroke="none" stroke-width="0.5" stroke-linecap="butt"/><path d="M325.71882,96.07299c2.67476,3.80482 5.69117,7.63066 8.00198,11.65092c0.4072,0.70842 0.65599,1.50829 1.10073,2.19376c0.18117,0.27922 0.95021,0.39769 0.748,0.66208c-0.30692,0.40129 -0.98558,0.23123 -1.48556,0.30367c-2.12419,0.30778 -4.24435,0.69084 -6.38245,0.87895c-7.30757,0.64292 -15.03649,-0.23811 -22.38337,-0.23811c-4.7945,0.01664 -9.59386,-0.79551 -14.40512,-1.02208c-1.58667,-0.07472 -3.19604,-0.2529 -4.77666,-0.13697c2.65843,-2.39755 4.89686,-6.97782 6.5309,-9.56394c0.01689,-0.02673 1.86419,-3.53115 2.26452,-3.75301c3.92904,-2.17747 10.6537,-1.61441 14.9091,-1.61441c5.39375,0 10.61605,-0.16019 15.87794,0.63913z" data-paper-data="{&quot;noHover&quot;:false,&quot;origItem&quot;:[&quot;Path&quot;,{&quot;applyMatrix&quot;:true,&quot;segments&quot;:[[[592.09546,186.88092],[0,0],[-5.34952,7.60966]],[[576.101,210.11974],[4.62162,-8.04052],[-0.8144,1.41684]],[[573.89784,214.49948],[0.88948,-1.37094],[-0.36234,0.55844]],[[572.40138,215.82194],[-0.40442,-0.52878],[0.61384,0.80258]],[[575.3717,216.42654],[-0.99996,-0.14488],[4.24838,0.61556]],[[588.13124,218.1708],[-4.2762,-0.37622],[14.61514,1.28584]],[[632.74998,217.65624],[-14.69376,0],[9.589,0.0333]],[[661.5234,215.66138],[-9.62252,0.45314],[3.17334,-0.14944]],[[671.07482,215.3937],[-3.16124,-0.23186],[-5.31686,-4.79508]],[[658.0108,196.30756],[3.26808,5.17224],[-0.03378,-0.05346]],[[653.48822,188.82432],[0.80066,0.44372],[-7.85808,-4.35494]],[[623.74996,185.65626],[8.5108,0],[-10.7875,0]],[[592.09542,186.88094],[10.52378,-1.59864],[0,0]]],&quot;closed&quot;:true,&quot;fillColor&quot;:[0,0,0,1]}],&quot;index&quot;:null}" fill="#385130" stroke="none" stroke-width="0.5" stroke-linecap="butt"/><path d="M323.34337,130.77004c-1.16172,-0.04457 -2.38016,-0.21033 -3.21682,0.49376c-3.1576,2.65728 0.43248,7.19071 -3.73118,8.37143c-1.76964,0.50184 -4.72105,-0.25403 -6.46612,-0.53271c-0.46278,-0.07391 -1.05551,0.15061 -1.40253,-0.16436c-1.11688,-1.0137 -0.18372,-3.16544 -1.03476,-4.41072c-2.38679,-3.49244 -3.23133,-2.8617 -6.69126,-3.02526l-1.11474,-0.00173c-2.8952,-5.16107 -6.0399,-10.29166 -7.90055,-15.93955c4.52108,0.25379 9.01762,0.86302 13.5415,0.87679c7.71861,0 15.73111,0.81079 23.43639,0.07488c-1.98062,4.37213 -3.55133,8.80087 -5.21641,13.37474l-0.20352,0.88272z" data-paper-data="{&quot;noHover&quot;:false,&quot;origItem&quot;:[&quot;Path&quot;,{&quot;applyMatrix&quot;:true,&quot;segments&quot;:[[[603.28497,257.18272],[-1.67332,-1.40818],[6.31519,5.31455]],[[610.69892,273.87079],[-8.32731,-2.36145],[3.53929,1.00367]],[[623.5826,272.79444],[-3.49013,0.55736],[0.92557,-0.14781]],[[626.37534,272.46685],[-0.69405,0.62993],[2.23376,-2.0274]],[[628.42258,263.65157],[-1.70209,2.49057],[4.77358,-6.98488]],[[641.75,257.65625],[-6.91986,0.32711],[0,0]],[[643.97816,257.65625],[0,0],[5.79041,-10.32215]],[[659.78966,225.86595],[-3.7213,11.29577],[-9.04216,0.50758]],[[632.75,227.65625],[9.04776,-0.02754],[-15.43723,0]],[[586.00313,227.76618],[15.41056,1.47182],[3.96123,8.74426]],[[596.44897,254.44753],[-3.33017,-9.14774],[0,0]],[[596.85468,256.20637],[0,0],[2.32343,-0.08913]]],&quot;closed&quot;:true}],&quot;index&quot;:null}" fill="#131313" stroke="none" stroke-width="0.5" stroke-linecap="butt"/><path d="M306.08318,127.6241h-4.38889l-2.33333,-4.5l2.22222,-4.33334h4.05556l2.44444,4.16667z" data-paper-data="{&quot;index&quot;:null}" fill="#9d0201" stroke="#323231" stroke-width="2" stroke-linecap="round"/><path d="M310.44428,133.35671h0.11111c2.00799,0 3.99231,0.11111 6,0.11111c0,0 0.25,0 0.25,0.25c0,0.25 -0.25,0.25 -0.25,0.25c-2.00778,0 -3.99202,-0.11111 -6,-0.11111h-0.11111c0,0 -0.25,0 -0.25,-0.25c0,-0.25 0.25,-0.25 0.25,-0.25z" data-paper-data="{&quot;index&quot;:null}" fill="#000000" stroke="none" stroke-width="0.5" stroke-linecap="butt"/><path d="M310.69856,135.14734l0.37234,-0.12071c1.71688,-0.01144 3.44822,-0.10993 5.15116,-0.11434c0,0 0.25,0 0.25,0.25c0,0.25 -0.25,0.25 -0.25,0.25c-1.67671,-0.00486 -3.37895,0.12139 -5.07106,0.10788l-0.29433,0.10151c0,0 -0.23718,0.07906 -0.31623,-0.15811c-0.07905,-0.23717 0.15812,-0.31623 0.15812,-0.31623z" data-paper-data="{&quot;index&quot;:null}" fill="#000000" stroke="none" stroke-width="0.5" stroke-linecap="butt"/><path d="M309.66245,136.91231l0.33687,-0.00546c1.98494,-0.09118 3.99733,-0.43624 6.00053,-0.43902c0,0 0.25,0 0.25,0.25c0,0.25 -0.25,0.25 -0.25,0.25c-1.99721,-0.00304 -4.00534,0.3446 -5.98478,0.43878l-0.34449,0.00563c0,0 -0.24996,0.00407 -0.25403,-0.2459c-0.00407,-0.24997 0.2459,-0.25403 0.2459,-0.25403z" data-paper-data="{&quot;index&quot;:null}" fill="#000000" stroke="none" stroke-width="0.5" stroke-linecap="butt"/><path d="M306.08318,127.6241h-4.38889l-2.33333,-4.5l2.22222,-4.33334h4.05556l2.44444,4.16667z" data-paper-data="{&quot;index&quot;:null}" fill="none" stroke="#1a1a1a" stroke-width="0.5" stroke-linecap="round"/><g data-paper-data="{&quot;index&quot;:null}" fill="#000000" stroke="none" stroke-width="1" stroke-linecap="butt" font-family="&quot; Pro W3&quot;, &quot;Hiragino Kaku Gothic Pro&quot;, Osaka, &quot;&quot;, Meiryo, &quot; &quot;, &quot;MS PGothic&quot;" font-weight="normal" font-size="40" text-anchor="start"><text transform="translate(333.34707,108.25847) rotate(-180) scale(0.03846,-0.03846)" font-size="40" xml:space="preserve" fill="#000000" fill-rule="nonzero" stroke="none" stroke-width="1" stroke-linecap="butt" stroke-linejoin="miter" stroke-miterlimit="10" stroke-dasharray="" stroke-dashoffset="0" font-family="&quot; Pro W3&quot;, &quot;Hiragino Kaku Gothic Pro&quot;, Osaka, &quot;&quot;, Meiryo, &quot; &quot;, &quot;MS PGothic&quot;" font-weight="normal" text-anchor="start" style="mix-blend-mode: normal"><tspan x="0" dy="0">The Black Mesa</tspan><tspan x="0" dy="46.150000000000006px">Pivovar13</tspan></text><text transform="translate(326.93683,109.21776) rotate(-180) scale(0.01021,-0.01021)" font-size="40" xml:space="preserve" fill="#000000" fill-rule="nonzero" stroke="none" stroke-width="1" stroke-linecap="butt" stroke-linejoin="miter" stroke-miterlimit="10" stroke-dasharray="" stroke-dashoffset="0" font-family="&quot; Pro W3&quot;, &quot;Hiragino Kaku Gothic Pro&quot;, Osaka, &quot;&quot;, Meiryo, &quot; &quot;, &quot;MS PGothic&quot;" font-weight="normal" text-anchor="start" style="mix-blend-mode: normal"><tspan x="0" dy="0">TM</tspan></text></g><g data-paper-data="{&quot;index&quot;:null}"><path d="M320.23522,188.70144l9,-1.44445l2.55555,14.33334l-7.88889,2.44444z" fill="#121212" stroke="#000000" stroke-width="0" stroke-linecap="round"/><path d="M331.42711,192.11935c-2.33132,-1.13033 -1.55937,-5.03636 -2.36364,-4.54545c-0.90163,0.55034 0.63636,5.09091 0.63636,5.09091l2.27273,9.09091l-8.09091,2.18182l-2.81818,-8.54546l-0.72727,-6.72727h-0.81818l-0.54546,-0.54546l-8.54546,0.09091l0.18182,3l-0.72727,0.72728l-0.90341,-0.14844l-1.875,3.375l0.625,0.75l-1.375,1.25l-7.25,-2.375l5.875,-9.25v-2.125l-4,-2.5l-34,9.375l-2.375,-15.25l38.125,-2.25l-0.02841,-1.12428h1.18182l1.36364,-3.09091l0.90909,-0.09091l0.09091,-2l1.54546,-1.18182l3.27273,-0.27273c0,0 17.51031,0.40434 19.36364,1.18181c1.4205,0.5959 0.63636,4.72728 0.63636,4.72728l2.81819,0.63636l0.18182,-1.27273l28.54545,-0.36363l1,-3.63637l5.09091,-0.18181l0.45454,0.45454l10.54546,0.09091l4.45454,-5.72728l3.54546,-0.09091l-0.72727,11.72728h13.27273l1.09091,-1.09091h9.36364v4.81818l-9.45455,0.09091l-0.90909,-1l-13.81818,0.18182l1,1.45455l-0.09091,1.63637h-2.90909v-3h-5l-0.27273,0.81818l-1.54545,0.09091l-0.63637,3h-0.81818l0.18182,1l11.45455,0.18182l2,2v2.45454l-1.27273,2.18182l-20.27273,0.09091l-1.09091,1.36364h-27.63637c0,0 -0.29326,2.59003 -1.54545,3.09091c-1.25219,0.50088 -4.30503,1.31216 -6.63636,0.18182z" fill="#121111" stroke="#000000" stroke-width="1" stroke-linecap="round"/><path d="M313.60897,167.39208l15.18182,-0.18182l0.90909,1.18182l-0.09091,2.18182l-16.90909,0.63636l-0.18182,-1.45454z" fill="#000000" stroke="#000000" stroke-width="1" stroke-linecap="round"/><path d="M313.52414,185.08756c0,0 0.86066,1.06363 1.46667,1.33334c0.50661,0.22546 -0.73334,-1.53334 -0.73334,-1.53334l0.26667,-1.26667c0,0 2.85332,-0.30143 3.86666,0.6c0.694,0.61736 1.63086,2.42854 0.06666,3c-1.48294,0.54178 -4.26666,-0.06667 -4.26666,-0.06667c0,0 -1.79093,-0.64872 -1.93334,-1.53333c-0.22487,-1.39674 1,-2.06667 1,-2.06667z" fill="#000000" stroke="#000000" stroke-width="0.5" stroke-linecap="round"/><path d="M340.6122,176.23665l0.57143,-1h1.28571l0.57143,0.85715l-0.5,1.07143l-1.28571,0.07143z" fill="#000000" stroke="#000000" stroke-width="0.5" stroke-linecap="round"/><path d="M343.46935,173.12952l0.57142,-1.10714h1.28572l0.57143,0.94898l-0.5,1.18622l-1.28572,0.07908z" fill="#000000" stroke="#000000" stroke-width="0.5" stroke-linecap="round"/><path d="M347.04078,176.27236l0.57142,-1.10714h1.28572l0.57143,0.94898l-0.5,1.18623l-1.28571,0.07908z" fill="#000000" stroke="#000000" stroke-width="0.5" stroke-linecap="round"/><path d="M349.75508,172.98665l0.57142,-1.32143h1.28571l0.57143,1.13266l-0.5,1.41581l-1.28571,0.09439z" fill="#000000" stroke="#000000" stroke-width="0.5" stroke-linecap="round"/><path d="M356.11222,172.98664l0.60504,-1.32142h1.36134l0.60504,1.13266l-0.52941,1.41581l-1.36135,0.09439z" fill="#000000" stroke="#000000" stroke-width="0.5" stroke-linecap="round"/><path d="M353.32651,176.27237l0.57142,-1.32142h1.28571l0.57143,1.13265l-0.5,1.41581l-1.28571,0.09439z" fill="#000000" stroke="#000000" stroke-width="0.5" stroke-linecap="round"/><path d="M359.75506,176.41523l0.57143,-1.32142h1.28572l0.57143,1.13265l-0.5,1.41582l-1.28571,0.09438z" fill="#000000" stroke="#000000" stroke-width="0.5" stroke-linecap="round"/><path d="M362.68364,172.98665l0.57143,-1.32143h1.28571l0.57143,1.13266l-0.5,1.41581l-1.28572,0.09439z" fill="#000000" stroke="#000000" stroke-width="0.5" stroke-linecap="round"/><path d="M366.11222,176.12952l0.57142,-1.32143h1.28571l0.57143,1.13265l-0.5,1.41582l-1.28572,0.09438z" fill="#000000" stroke="#000000" stroke-width="0.5" stroke-linecap="round"/><path d="M383.33244,167.69276l0.75,0.08333l-0.33333,2.83333l-2.91667,-0.16667l0.08334,-1l2.41666,-3.41667z" fill="#000000" stroke="#000000" stroke-width="0.5" stroke-linecap="round"/><path d="M380.58244,172.85943v-1h3.16667v1z" fill="#000000" stroke="none" stroke-width="0" stroke-linecap="butt"/><path d="M369.02888,172.90333l0.60504,-1.32143h1.36135l0.60504,1.13265l-0.52941,1.41582l-1.36135,0.09438z" fill="#000000" stroke="#000000" stroke-width="0.5" stroke-linecap="round"/><path d="M372.67173,176.33189l0.57143,-1.32143h1.28571l0.57143,1.13266l-0.5,1.41582l-1.28571,0.09438z" fill="#000000" stroke="#000000" stroke-width="0.5" stroke-linecap="round"/><path d="M375.60031,172.90332l0.57143,-1.32142h1.28571l0.57143,1.13265l-0.5,1.41581l-1.28571,0.09439z" fill="#000000" stroke="#000000" stroke-width="0.5" stroke-linecap="round"/><path d="M331.91428,188.78275c0,0 0.93012,1.14948 1.58504,1.44095c0.5475,0.24366 -0.79253,-1.6571 -0.79253,-1.6571l0.28819,-1.3689c0,0 3.08362,-0.32575 4.17876,0.64843c0.75003,0.66719 1.76251,2.62455 0.07205,3.24214c-1.60264,0.58551 -4.61104,-0.07205 -4.61104,-0.07205c0,0 -1.93547,-0.70108 -2.08938,-1.65709c-0.24302,-1.50948 1.08071,-2.23348 1.08071,-2.23348z" fill="#000000" stroke="#000000" stroke-width="0.5" stroke-linecap="round"/></g><path d="M302.22222,126.49306l87.55556,23.88889v-57.33334l-87.66667,26.88889l-1.61235,3.26104z" fill="url(#color-1)" stroke="#323231" stroke-width="0" stroke-linecap="round"/></g></g></svg>