<svg version="1.1" xmlns="http://www.w3.org/2000/svg" xmlns:xlink="http://www.w3.org/1999/xlink" width="68.27041" height="21.42726" viewBox="0,0,68.27041,21.42726"><defs><linearGradient x1="344.82359" y1="176.6652" x2="344.82359" y2="179.1652" gradientUnits="userSpaceOnUse" id="color-1"><stop offset="0" stop-color="#000000"/><stop offset="1" stop-color="#0c0c0c"/></linearGradient></defs><g transform="translate(-287.98175,-166.23751)"><g data-paper-data="{&quot;isPaintingLayer&quot;:true}" fill-rule="nonzero" stroke-linejoin="miter" stroke-miterlimit="10" stroke-dasharray="" stroke-dashoffset="0" style="mix-blend-mode: normal"><path d="M314.68073,185.1652l-4,-4v-6.07143l4.10715,-4.10715h17.67857v14.17857z" fill="#808080" stroke="#000000" stroke-width="0" stroke-linecap="round"/><path d="M332.25216,171.02235v2.39286h-15.96429l-2.03571,-2.03572" fill="#424242" stroke="#000000" stroke-width="0.5" stroke-linecap="round"/><path d="M314.68073,185.1652l-4,-4v-6.07143l4.10715,-4.10715h17.67857v14.17857z" fill="none" stroke="#000000" stroke-width="1" stroke-linecap="round"/><path d="M332.82358,184.02234v-12.07143h1.28571v12.07143z" fill="#424242" stroke="#000000" stroke-width="0.5" stroke-linecap="butt"/><g stroke="#000000"><path d="M315.43068,181.17216v-6.64957h12.50408v6.64957z" fill="#070e0e" stroke-width="0" stroke-linecap="butt"/><path d="M315.43068,181.07131v-3.80215h12.57636v3.80215z" fill="#448888" stroke-width="0" stroke-linecap="butt"/><path d="M315.51586,181.01696v-6.40693h12.37502v6.40693z" fill="none" stroke-width="0.5" stroke-linecap="butt"/><path d="M327.8077,180.05238h-1.36835" fill="none" stroke-width="0.25" stroke-linecap="round"/><path d="M327.95837,178.91817h-1.7013" fill="none" stroke-width="0.25" stroke-linecap="round"/><path d="M328.00563,177.973h-1.70131" fill="none" stroke-width="0.25" stroke-linecap="round"/><path d="M328.00564,176.98057h-1.74857" fill="none" stroke-width="0.25" stroke-linecap="round"/></g><path d="M341.89501,176.6652h5.85715v2.5h-5.57143" fill="url(#color-1)" stroke="#000000" stroke-width="0.5" stroke-linecap="round"/><path d="M342.03787,176.73664v2.42857l-7.71429,5.64285v-13.42857z" fill="#808080" stroke="#000000" stroke-width="1" stroke-linecap="round"/><path d="M347.82358,180.85805v-5.99285h7.92858v5.99285z" fill="#111111" stroke="#000000" stroke-width="1" stroke-linecap="butt"/><path d="M314.18073,184.87949l1.53571,-1.53571h16.53572v1.53571" fill="#424242" stroke="#000000" stroke-width="0.5" stroke-linecap="round"/><path d="M308.03787,180.02233l-6,-0.21429l-1.5,6.78572l-11.85715,-3.14285l2.71429,-6l5.64286,2.07143l1.35714,-4.35714h12.07143z" fill="#120500" stroke="#000000" stroke-width="1" stroke-linecap="round"/><path d="M310.68073,178.87948c0,0 -0.96184,0.75937 -1.35715,0.78572c-0.39531,0.02635 -0.78571,-0.64286 -0.78571,-0.64286" fill="none" stroke="#000000" stroke-width="0.5" stroke-linecap="round"/><path d="M309.39501,177.30806l0.21428,1.5" fill="none" stroke="#000000" stroke-width="0.5" stroke-linecap="round"/><path d="M315.96666,170.95417v-3.26666h6.6v3.26666z" fill="#448888" stroke="#000000" stroke-width="0.5" stroke-linecap="butt"/><path d="M314.9,167.75417v-1.26666h8.53334v1.26666z" fill="#808080" stroke="#000000" stroke-width="0.5" stroke-linecap="butt"/><path d="M313.14289,177.34649c-2.45527,1.29475 1.64547,2.93841 0.61506,0.3453c-0.16708,-0.16121 -0.38545,-0.30819 -0.61506,-0.3453zM312.72738,177.00508c0.0478,-0.16757 0.23928,-0.16757 0.23928,-0.16757h0.06667c0.01666,0 0.03295,0.0001 0.04887,0.0003c0.02274,-0.00261 0.04803,-0.00285 0.07405,0.00177c0.51967,0.01878 0.62233,0.16877 1.01912,0.57698c1.55707,3.87803 -4.60763,1.44608 -1.44799,-0.41147z" fill="#ff8a00" stroke="none" stroke-width="0.5" stroke-linecap="butt"/><path d="M312.95299,178.77364c-0.20801,-0.13868 -0.06934,-0.34669 -0.06934,-0.34669l0.07084,-0.09038c0.03776,-0.05609 -0.09533,-0.12486 -0.16283,-0.12095c0,0 -0.25,0 -0.25,-0.25c0,-0.25 0.25,-0.25 0.25,-0.25c0.61246,0.02073 0.77249,0.17406 0.63717,0.77905l-0.12915,0.20962c0,0 -0.13868,0.20802 -0.34669,0.06934z" fill="#ff8a00" stroke="none" stroke-width="0.5" stroke-linecap="butt"/><path d="M313.75347,178.93923c-0.22361,0.1118 -0.33541,-0.1118 -0.33541,-0.1118l-0.04077,-0.08318c-0.1,-0.16667 -0.2,-0.33333 -0.3,-0.5c0,0 -0.12862,-0.21437 0.08575,-0.343c0.21437,-0.12862 0.343,0.08575 0.343,0.08575c0.1,0.16667 0.2,0.33333 0.3,0.5l0.05923,0.11682c0,0 0.1118,0.22361 -0.1118,0.33541z" fill="#ff8a00" stroke="none" stroke-width="0.5" stroke-linecap="butt"/><path d="M324.31667,185.41477l-1.75,1.75h-5.95455l-1.68182,-1.68182" fill="none" stroke="#000000" stroke-width="1" stroke-linecap="round"/></g></g></svg>