<svg version="1.1" xmlns="http://www.w3.org/2000/svg" xmlns:xlink="http://www.w3.org/1999/xlink" width="647.71341" height="366.71479" viewBox="0,0,647.71341,366.71479"><g transform="translate(2.96461,-28.56202)"><g data-paper-data="{&quot;isPaintingLayer&quot;:true}" fill-rule="nonzero" stroke-linecap="butt" stroke-linejoin="miter" stroke-miterlimit="10" stroke-dasharray="" stroke-dashoffset="0" style="mix-blend-mode: normal"><text transform="translate(-2.07539,105.92416) scale(1.77844,1.77844)" font-size="40" xml:space="preserve" fill="#9966ff" fill-rule="nonzero" stroke="none" stroke-width="1" stroke-linecap="butt" stroke-linejoin="miter" stroke-miterlimit="10" stroke-dasharray="" stroke-dashoffset="0" font-family="Sans Serif" font-weight="normal" text-anchor="start" style="mix-blend-mode: normal"><tspan x="0" dy="0">WlodekM was here</tspan></text><g><path d="M417.88463,212.74698c0.78164,2.5459 0.20361,5.85816 0.50401,8.47557c0.2631,2.29239 1.82158,5.15654 2.89574,7.17263c2.26006,3.12672 2.69662,7.50518 3.62382,11.1473c1.15908,4.55296 3.48797,9.07846 4.21369,13.77097c0.78699,5.08873 -0.4442,10.37198 0.3647,15.48704c-0.63204,4.35391 -2.35207,7.12419 -6.98775,8.09221l-0.92533,-0.13216c-0.21772,0.20702 -0.54654,0.35449 -1.03906,0.27874c-1.25387,-0.19285 -1.06103,-1.44672 -1.06103,-1.44672c0.00322,-0.02093 0.00641,-0.04183 0.00959,-0.06271c-2.00433,-0.49261 -4.02839,-1.1279 -5.81957,-1.40406c-6.62475,-1.50648 -13.16108,-3.38276 -19.72453,-5.10305c-3.59794,-0.94302 -7.42453,-1.34107 -10.92848,-2.62572c-5.46304,-2.0029 -11.65333,-3.91898 -17.43199,-4.80002c-4.93777,-0.75943 -9.75893,-1.76262 -14.64304,-2.62785c-0.38597,0.74423 -1.30361,0.6031 -1.30361,0.6031c-4.45821,-0.68567 -9.33437,-1.43563 -13.79258,-2.1213c-3.85249,-1.07101 -2.24963,-4.84572 -1.76862,-7.9732c0.23443,-1.52427 0.26162,-2.93845 0.26586,-4.36007c-1.59284,3.15608 -4.17058,5.88872 -7.60477,4.12918c-0.23382,2.63374 -0.09906,5.50953 -1.6179,7.54628c-1.48873,1.99636 -2.89218,1.69987 -5.11418,2.0557c-6.8211,-1.04909 -13.41247,1.5696 -20.18133,1.11333c-1.66045,0.42351 -4.1978,0.12842 -5.24952,0.10952c-7.07235,-0.12708 -16.07552,5.63373 -21.56183,-1.76916c-2.8644,-14.88403 -0.28299,-30.59389 6.66048,-44.12419c4.00867,-7.79331 6.46425,-15.35734 12.06631,-22.29324c0.83978,-1.03973 0.73378,-2.35545 1.29142,-3.42822c1.22656,-2.35965 3.42172,-5.18508 5.10646,-7.23023c0.66854,-0.71987 0.97647,-1.74971 1.71657,-2.39578c2.57659,-2.24923 5.35118,-0.6482 8.14141,-0.92933c4.08821,-0.4119 10.20328,-3.13111 13.5891,-6.6167c-2.12629,0.02463 -4.29151,-0.1167 -6.64107,-0.47806c-2.53436,-0.38978 -5.16015,-0.41285 -5.82146,-3.5183c-0.74821,-3.5135 1.72072,-8.77955 2.27996,-12.23122c1.92299,-5.5095 3.5168,-11.55903 6.21798,-16.7358c1.51012,-2.89412 4.23047,-5.01911 5.72859,-7.73917c2.96191,-5.37778 4.40837,-11.05182 11.23918,-12.70992c0,0 0.86058,-0.1996 1.31202,0.45249c1.60463,-0.17367 2.97558,-1.69401 4.49207,-2.12098c2.18536,-0.61529 6.22153,0.85917 8.4357,1.19971c5.62376,0.86494 11.24994,1.71575 16.87003,2.60423c5.13493,2.12986 12.64901,4.29177 16.15452,8.94515c0.24294,0.32249 -0.09039,0.87716 0.14936,1.20205c0.25528,0.34594 0.94048,0.19782 1.15752,0.56893c1.72793,2.95449 1.82145,7.00044 2.83448,10.19411c1.13458,3.57686 2.60821,7.07783 2.00858,10.93336c0.04818,0.2003 0.10573,0.43533 0.16811,0.69642c2.01338,0.30963 4.02681,0.61898 6.04026,0.92815c8.7,1.33978 18.56889,1.02805 26.99474,3.74137c3.48991,1.12384 6.2307,3.08093 9.92916,3.64975c14.73127,2.26567 30.63799,2.66591 44.91225,6.98522c3.85168,1.17237 8.43556,1.83631 10.99191,5.41154c2.39111,3.34413 1.3467,7.59726 0.77791,11.29548c-1.09286,7.10573 -3.13786,13.77596 -4.72516,20.76342c-1.01893,4.46759 -1.10965,8.82872 -1.79983,13.31621c-1.22145,7.94179 -2.87533,15.85041 -4.08202,23.75927c0,0 -0.19285,1.25387 -1.44672,1.06103c-0.1641,-0.02524 -0.30342,-0.06865 -0.42164,-0.12505c-0.08505,0.76913 -0.24101,1.57156 -0.30303,1.94722c1.01168,5.92396 -0.16834,12.32954 -1.10699,18.43261c-0.22795,1.48213 -0.21663,5.9486 -1.31367,6.9661c-1.12117,1.0399 -3.28001,0.55236 -4.8061,0.23454c-0.21768,0.19627 -0.54091,0.33181 -1.01726,0.25855c-0.27098,-0.04168 -0.47439,-0.13291 -0.62678,-0.25033c-3.99816,0.68291 -7.9524,1.32884 -11.97364,1.14588c0.02909,0.12686 0.05324,0.2559 0.07353,0.38664l-0.07598,-0.01169c-3.36687,-0.5112 -6.39793,-1.6166 -9.70855,-2.34266c-1.77191,-0.3886 -3.83378,0.09348 -5.37253,-0.86721c-0.82781,-0.51683 -0.80359,-3.32108 -0.78211,-3.68647c0.24619,-4.19002 2.35798,-8.85132 2.0216,-12.98801l0.57854,-3.76161c0.09187,-0.59731 0.01067,-1.1813 -0.20622,-1.70099c0.15295,-0.3653 0.33589,-0.69839 0.55801,-0.98976c0.37965,-0.49803 1.13992,-0.53647 1.64668,-0.90438c0.72122,-0.52361 0.86054,-1.59635 1.51042,-2.20626c0.84327,-0.7914 1.66796,-1.41378 2.55705,-1.90483l-0.27401,-0.52136c-0.41804,-5.30455 -2.19764,-10.99976 -1.38653,-16.18081c-0.56927,-6.14512 2.25553,-12.27651 2.57712,-18.34166c0.01115,-0.21035 -0.1654,0.46479 -0.37074,0.51174c-1.16985,0.26753 -2.58157,0.08305 -3.77823,-0.0279c-2.18022,-0.20213 -4.34993,-0.20631 -6.52178,-0.26006c-0.78951,-0.73285 -1.82749,-0.89249 -1.82749,-0.89249c-3.72732,-0.56906 -7.45518,-0.61137 -11.15527,-1.28164c-1.55757,-0.28215 -3.14996,-1.409 -4.65751,-0.92638c-1.68138,0.53826 -2.86529,1.41208 -3.68451,2.50325c0.60005,2.45966 1.32099,4.94078 1.97554,7.0727zM422.42795,274.35647c3.10672,-0.67257 4.05505,-2.70974 4.52145,-5.54004c-0.88045,-4.98378 0.44848,-10.15234 -0.33437,-15.11155c-0.72531,-4.59475 -2.99327,-9.03911 -4.15624,-13.5006c-0.87729,-3.36555 -1.18335,-7.58933 -3.32161,-10.4574c-2.64272,-4.92959 -3.5703,-9.77258 -3.50711,-15.2936c0.02148,-1.87759 -0.46656,-3.79484 -1.07515,-5.71569c-0.08017,0.35426 -0.14322,0.71657 -0.19143,1.0849c0.186,0.75452 0.30775,1.53251 0.29924,2.35945c-0.00985,0.95719 -0.13106,1.92213 -0.24957,2.88699c0.13417,1.29822 0.31807,2.55693 0.46007,3.69454c0.79902,6.40143 3.62263,11.93885 5.00075,18.13965c1.52565,6.86461 2.72936,15.46593 2.31701,22.43683c-0.06856,0.45724 -0.12472,0.91259 -0.17027,1.3664c0.35637,1.66582 0.47948,3.40885 0.20899,5.30461c0.23851,2.45978 0.28163,4.69919 0.09707,7.02736c-0.00706,0.41351 -0.03352,0.83477 -0.08849,1.26812l-0.00272,0.01767zM334.20446,200.63987l0.01269,-0.03858c-0.00483,-0.00822 -0.00967,-0.01644 -0.0145,-0.02466c-0.13811,-0.03972 -0.27268,-0.09125 -0.40269,-0.15799c-0.29258,-0.1502 -0.50659,-0.36972 -0.66735,-0.62961c-1.63313,-1.31979 -2.70261,-3.04907 -3.39932,-5.17199c-0.37895,-0.05832 -0.80668,-0.03926 -1.28543,0.09614c4.81354,9.7271 7.34382,20.90697 9.15485,31.37054c0.04263,0.2496 0.08129,0.49961 0.11623,0.75c0.00153,-0.10587 -0.00251,-0.16702 -0.00251,-0.16702c-0.04402,-0.57528 -0.10744,-1.14233 -0.18715,-1.70278c0.29509,0.9461 0.57645,1.89702 0.84183,2.85337c-0.19015,-0.1709 -0.38646,-0.3337 -0.58805,-0.48956c0.73614,6.1243 -0.65017,12.46184 -0.61151,18.57078c0.00922,1.45699 -1.71096,9.25953 -0.94666,9.04471c3.6938,0.56811 7.38759,1.13621 11.08139,1.70432c-0.64028,-8.67884 0.11121,-17.79847 -1.7484,-26.24415c-1.86445,-8.46768 -5.09761,-16.59556 -8.46814,-24.4945c-0.78226,-1.83326 -1.82711,-3.53138 -2.8414,-5.25459zM335.1017,226.51084c-1.75177,-10.41816 -4.33108,-21.64431 -9.22692,-31.26913c-0.89585,0.02971 -1.78859,0.11499 -2.6657,0.24788c-1.71215,0.25942 -3.91953,-0.58452 -5.15711,0.62673c-5.40635,5.29135 2.03868,13.99258 2.792,19.37708c0.36847,2.63368 -0.26227,5.56287 0.97165,7.91861c0.96338,1.83923 4.27735,4.77562 6.04036,5.83954c1.67435,1.01041 5.92166,1.789 6.83903,4.05871c0.22811,0.56437 0.3209,1.30372 0.33596,2.1324c0.34358,-2.96141 0.58814,-5.90208 0.07073,-8.93183zM397.29884,179.40698c0.92275,2.47913 1.09334,5.1915 1.9538,7.66017c1.62648,0.0494 3.25675,0.19387 4.89241,0.47124c1.60805,-0.27462 3.64439,0.27636 5.18681,-0.33577c1.91973,-0.76186 4.0527,-2.19496 6.32289,-2.17247c2.2117,0.02191 2.65015,1.36058 4.23911,2.47729c4.43304,3.11552 8.19663,7.31139 10.52784,12.2267c0.82352,1.17092 1.41096,2.39457 1.81632,3.65923c4.267,0.62823 8.74315,0.69146 13.0362,0.73304c0.31848,0.00308 4.08613,-0.25196 4.25437,-0.02812c1.02469,1.36338 0.39177,4.25081 0.15302,5.8277c-0.70533,4.6585 -2.25266,9.8477 -1.81799,14.53981c-0.76222,5.04192 0.92129,10.51517 1.36287,15.69823c0.58215,-0.17297 1.20476,-0.31401 1.88237,-0.42974c0,0 0.01734,-0.00296 0.04829,-0.00615c0.03072,-0.00493 0.04824,-0.00655 0.04824,-0.00655c5.82884,-0.51055 12.00259,1.47568 17.85357,1.4406c1.423,-0.00853 4.29203,-1.04622 5.76391,0.03885c1.20972,-7.63947 2.77472,-15.27435 3.95489,-22.94775c0.69808,-4.53887 0.80457,-8.9684 1.83367,-13.4939c1.58145,-6.92789 3.60777,-13.54066 4.69131,-20.58573c0.43693,-2.84091 1.6573,-6.82244 -0.31613,-9.40928c-2.30231,-3.01794 -6.33789,-3.47292 -9.68241,-4.48406c-14.13837,-4.29932 -29.96328,-4.66026 -44.56148,-6.90547c-3.85359,-0.59268 -6.73487,-2.5338 -10.32587,-3.74391c-8.18569,-2.75846 -18.10022,-2.34605 -26.59741,-3.64712c-1.70416,-0.26167 -3.40831,-0.52348 -5.11242,-0.78548c0.22868,1.46051 0.30751,2.94924 -0.12681,3.77522c-0.01253,0.02383 -0.02546,0.04748 -0.03879,0.07096c3.49861,6.52765 6.17126,13.41421 8.75744,20.36243zM312.10945,194.75891c0.19285,-1.25387 1.44672,-1.06103 1.44672,-1.06103c4.32723,0.66553 7.26171,-0.66979 11.36319,-1.19217c0.30116,-0.03836 0.60241,-0.06818 0.90373,-0.09054c0.46945,-0.2492 0.84695,-0.19603 1.12676,-0.05083c1.00365,-0.01792 2.00766,0.03235 3.01102,0.1117c0.00989,-1.08513 -0.50705,-1.408 -0.74978,-2.84398c-1.00554,-5.94864 -3.79559,-12.41597 -3.51423,-18.58885c-0.25168,0.02553 -0.50259,0.04925 -0.75298,0.07106c-3.40712,4.8222 -11.16463,8.83286 -16.75353,9.31656c-1.72675,0.14944 -5.00882,-1.3653 -6.58339,0.22874c-0.63862,0.64652 -0.95379,1.55931 -1.56255,2.23401c-1.54276,1.84035 -3.66488,4.54538 -4.73091,6.65915c-0.59716,1.18405 -0.61847,2.66661 -1.53748,3.83788c-5.41461,6.90084 -7.9117,14.26075 -11.85153,21.94666c-6.77386,13.18524 -8.59384,27.52071 -6.58158,41.97496c1.23316,1.71859 3.05646,1.57272 5.03708,1.87734c4.48159,0.68927 8.22867,-0.68321 12.64656,-1.41184c0.55656,-0.09179 2.34638,0.06606 3.88016,0.07879c0.37791,-0.7733 1.31662,-0.62892 1.31662,-0.62892l0.41795,0.06428c0.2339,0.03966 0.46774,0.07444 0.70154,0.10466c0.33407,-0.73111 -0.85211,-2.99749 -1.15065,-3.63842c-2.27917,-3.20176 -1.46139,-6.29877 -0.9018,-9.93716c1.02701,-6.67758 2.92684,-13.02884 7.30371,-18.15543c-0.13881,0.00443 -0.23146,-0.00982 -0.23146,-0.00982l-0.41796,-0.06428c-5.79362,-0.89106 -9.67141,-3.20501 -14.89483,-5.32405c0,0 -1.16966,-0.49119 -0.67846,-1.66086c0.4912,-1.16966 1.66085,-0.67846 1.66085,-0.67846c5.00771,2.15914 8.72514,4.29851 14.29813,5.15564l0.41796,0.06428c0,0 1.25387,0.19285 1.06103,1.44672c-0.00147,0.00958 -0.00301,0.01907 -0.00461,0.02849c1.3097,-0.70632 2.67206,-1.67737 3.94615,-2.22549c3.17428,-1.36559 6.8953,-0.62509 10.22579,0.80601c-2.30084,-3.70808 -2.80696,-10.27337 -3.24075,-13.68276c-0.66216,-5.20427 -5.59795,-8.11133 -4.75503,-13.92611c0,0 0.02649,-0.17221 0.12365,-0.37918c-0.02078,-0.13392 -0.02143,-0.28542 0.00491,-0.45673zM334.68752,145.65857l-0.2299,0.09428c-3.32467,6.06514 -3.86449,12.19262 -0.34812,18.77093c0.27561,0.85327 0.59873,1.70491 0.96448,2.54889c0.2829,0.10196 0.56237,0.33009 0.71508,0.80511c0.10108,0.31442 0.09399,0.57331 0.0282,0.78426c0.4412,0.87868 0.92655,1.74454 1.45031,2.59043c1.02008,0.24681 0.93269,1.26944 0.9167,1.40349c1.07339,1.56009 2.27377,3.0337 3.56186,4.37192l-0.91335,-1.23653c0,0 -0.38826,-1.20774 0.81948,-1.59601c0.24305,-0.07813 0.4529,-0.09163 0.63309,-0.06335c-0.01306,-0.11977 -0.01045,-0.25288 0.01229,-0.40074c0.19285,-1.25387 1.44672,-1.06103 1.44672,-1.06103c4.66424,0.73029 9.09285,-1.35052 13.73423,-1.30081c1.00663,0.01078 2.88743,-0.58229 3.77503,0.33484c1.31351,1.35722 1.64738,2.48778 1.36123,3.41138c2.22836,-2.87973 3.69667,-6.301 4.02173,-9.99485c-0.1602,-0.21478 -0.25946,-0.51679 -0.19448,-0.93927c0.04313,-0.28043 0.13933,-0.4885 0.26272,-0.64255c-0.00037,-0.24438 -0.00579,-0.48975 -0.01636,-0.73604c-0.08331,-1.94182 -1.31361,-4.39725 -1.7052,-6.32342c-1.13521,-5.58389 -2.6516,-9.89284 -6.91808,-13.82552c-3.77594,-1.89515 -8.83708,-3.69631 -13.09285,-4.4434c-0.84733,0.28703 -1.69177,0.66368 -2.5973,0.97375c-1.47292,0.50436 -3.07899,0.70766 -4.4288,1.4835c-1.12767,0.64815 -1.62319,2.05508 -2.26907,3.04978c-0.15765,0.2428 -0.31106,0.48563 -0.46013,0.72851c0.13522,0.72491 -0.52952,1.21244 -0.52952,1.21244zM360.44043,139.36508c2.8137,-0.47311 4.81802,-2.15013 7.51255,-3.01652c4.24858,-1.36608 8.63768,-2.04779 13.0634,-2.80361l0.66043,-0.2245c-0.14764,-0.35791 -0.31459,-0.69716 -0.50558,-1.01224c-0.23933,-0.39482 -0.94954,-0.27969 -1.22165,-0.65267c-0.28791,-0.39463 -0.01818,-1.03587 -0.30087,-1.43425c-2.82975,-3.98773 -10.37794,-5.95116 -14.64624,-7.77163c-5.52565,-0.82243 -11.04493,-1.68909 -16.56652,-2.53831c-1.598,-0.24577 -6.02916,-1.794 -7.44667,-1.243c-2.24399,0.87225 -3.70816,2.41637 -6.37793,2.11168c0,0 -0.2172,-0.0334 -0.45691,-0.16281c-5.08256,1.68547 -6.18141,6.92505 -8.59248,11.19485c-1.5448,2.73571 -4.17607,4.79416 -5.70072,7.68746c-1.29554,2.45853 -2.31775,5.13762 -3.2464,7.85884c5.38323,-0.54209 10.61479,-4.05968 16.12248,-3.71578c0.2575,-0.43625 0.5277,-0.87097 0.8102,-1.30411c1.06013,-1.62548 1.29245,-2.74548 3.06758,-3.83063c0.16139,-0.09865 4.67774,-1.63478 4.938,-1.7239c0.31423,-0.1076 0.61879,-0.21643 0.9164,-0.32379c0.22952,-1.17309 1.43396,-0.98784 1.43396,-0.98784l0.83591,0.12856c0.06568,0.0101 0.13161,0.02047 0.19776,0.0311c1.15282,-0.31498 2.32053,-0.47367 3.69241,-0.28847c0,0 1.20501,0.18532 1.07075,1.37391c3.39354,0.96968 6.89406,2.34438 9.67959,3.78394c0.03549,-0.96119 1.06055,-1.13625 1.06055,-1.13625zM386.04386,182.91017c-0.59584,-1.28876 -2.47508,-2.51743 -2.89918,-4.062c-0.46185,-1.68206 -0.17109,-4.89578 -0.3458,-6.69301c-0.31156,-3.20504 -1.41365,-6.27818 -1.42941,-9.43215c-4.00829,1.3876 -7.98912,2.54438 -12.24611,2.99586c-0.69587,6.45881 -4.45422,12.0809 -9.68649,15.91944c-4.22407,1.95066 -12.63317,2.87106 -16.76641,-0.29514c-1.73706,-1.33066 -3.38889,-2.99413 -4.87893,-4.84709c-0.28629,5.40577 0.49174,11.28113 2.69941,15.92613l0.00933,0.27177c10.15764,-1.69739 20.03244,-2.70177 30.14418,-4.31817c5.65851,0.82027 11.24998,0.12274 16.84043,-0.53202c-0.42845,-1.70226 -0.82461,-3.60037 -1.44103,-4.93362zM465.96695,268.27432c2.04429,-4.08782 2.78127,-9.12843 1.73861,-13.59699c0,0 -0.28662,-1.23582 0.94919,-1.52244c1.23581,-0.28662 1.52243,0.94919 1.52243,0.94919c1.05244,4.56326 0.57362,10.07498 -1.49979,14.36715c0.2169,0.03196 0.43373,0.06442 0.65042,0.09774c0.49803,0.0766 1.19612,0.75186 1.47475,0.33201c0.51826,-0.78093 0.43862,-4.42716 0.61479,-5.57261c0.92414,-6.00867 2.0738,-12.19259 1.07759,-18.02594c0.1097,-0.75673 0.69556,-2.18593 0.69556,-2.18593c0,0 -4.912,0.38432 -5.36444,0.39c-5.33033,0.06687 -11.05263,-1.7688 -16.33381,-1.26362c-3.54554,0.62145 -5.74309,2.95241 -8.18931,5.38752c-0.20962,0.20867 -0.27747,2.79155 -0.33918,3.19278c-0.34039,2.21323 -0.71124,3.95593 -1.62275,5.90978c0.09989,0.31275 0.21775,0.60994 0.36207,0.88553l-0.00855,0.53571c0.09226,0.32157 0.04788,0.61015 0.04788,0.61015c-0.01448,0.09417 -0.0359,0.20491 -0.06287,0.32951l-0.00141,0.08844c0,0 -0.01995,0.12965 -0.08869,0.29915c-0.39488,1.61592 -1.29615,4.57197 -0.93291,5.35574c1.34187,2.89543 4.13431,3.2375 6.89487,3.56757c-0.00072,-0.11462 0.01064,-0.18848 0.01064,-0.18848l0.17868,-1.09922c-0.34452,-3.71896 -0.06218,-7.24795 -0.41363,-11.03307c0,0 -0.11702,-1.26321 1.14619,-1.38023c1.26321,-0.11702 1.38022,1.14619 1.38022,1.14619c0.36022,3.89707 0.0678,7.50602 0.4233,11.34351l-0.20702,1.40852c0,0 -0.01071,0.06962 -0.04348,0.17353c0.56178,0.12066 1.10103,0.27686 1.60283,0.49414l0.0482,0.00741c1.26572,0.19467 3.80528,1.08141 5.06182,0.83358c1.67599,-0.33056 3.18928,-1.29654 4.90451,-1.65238l0.03237,-0.21046c0.76883,-4.99888 0.54127,-10.06829 0.62776,-15.1324c0,0 0.02167,-1.26842 1.29009,-1.24676c1.26843,0.02166 1.24676,1.29009 1.24676,1.29009c-0.08664,5.07285 0.12096,10.14394 -0.60912,15.15577c0.5748,0.01978 1.14221,0.04796 1.72448,0.02608zM326.12889,237.1324l-0.41795,-0.06428c-5.11,-0.84424 -9.58882,-3.6225 -14.72504,-4.40394c0,0 -1.25387,-0.19285 -1.06103,-1.44672c0.19285,-1.25387 1.44672,-1.06103 1.44672,-1.06103c5.15736,0.80086 9.59685,3.69574 14.72504,4.40394l0.41795,0.06428c0,0 0.95385,0.1467 1.06972,1.01613c0.16259,-0.81374 0.31025,-1.64317 0.44128,-2.49512c0.52372,-3.40521 -1.17352,-2.76887 -3.71435,-4.55238c-3.97627,-2.79109 -6.51075,-3.85369 -11.48268,-3.79131c-0.65551,0.00823 -1.41758,-0.41727 -2.08736,-0.06831c-1.3471,0.70184 -2.52775,1.5708 -3.95648,2.20215c-4.30239,4.82213 -6.01431,10.94903 -6.9866,17.27083c-0.46166,3.00169 -1.3806,5.68273 0.57793,8.25985c0.63192,1.35975 1.59156,3.35673 1.40885,5.09306c6.03676,0.05868 12.05764,-2.19159 18.19372,-1.24786c0.82377,-0.15178 1.72196,0.05664 2.5001,-0.25339c0.82462,-0.32855 1.04352,-1.94584 1.14319,-2.62559c0.11827,-0.80663 0.20636,-1.65814 0.29806,-2.5218c-2.13483,-0.32324 -4.10575,0.78256 -6.23551,0.73636c-1.91893,-0.04162 -3.42594,-0.3518 -5.35894,-0.01781c0,0 -1.25051,0.21356 -1.46407,-1.03695c-0.21356,-1.25051 1.03695,-1.46407 1.03695,-1.46407c2.04456,-0.34553 3.74589,-0.09102 5.76507,-0.01831c2.2515,0.08107 4.26193,-0.97928 6.56397,-0.71425c0.14195,-0.93218 0.32697,-1.84117 0.59862,-2.68475c0.24493,-0.7606 0.48301,-1.50929 0.71279,-2.25183c-4.43523,-0.68214 -9.43815,-1.45159 -13.74881,-2.11457c0,0 -1.25387,-0.19285 -1.06103,-1.44672c0.19285,-1.25387 1.44672,-1.06103 1.44672,-1.06103c4.69822,0.72259 9.39645,1.44518 14.09467,2.16776c0.41173,-1.44584 0.78522,-2.89269 1.10949,-4.38429c-0.41056,0.64119 -1.251,0.51193 -1.251,0.51193zM327.76282,246.93176c1.97047,1.84318 4.02085,-2.16898 4.78416,-3.98944l0.09626,-0.14329c-0.11124,-0.22913 -0.21145,-0.46972 -0.29852,-0.72397c-1.35473,-3.9559 2.35697,-6.96156 -1.71652,-9.31297c-0.02164,0.24179 -0.05313,0.49777 -0.09488,0.76927c-0.7075,4.60012 -1.83643,8.63781 -3.29369,12.96218c-0.02277,0.06757 -0.0446,0.1357 -0.06551,0.20434c0.33997,0.05772 0.5887,0.23388 0.5887,0.23388zM353.13252,178.39256c-3.65137,-0.56158 -7.23015,-0.30419 -10.84312,-0.81349c0.61227,0.60657 1.24245,1.18216 1.88656,1.72179c1.02843,0.86162 3.13231,0.76299 4.3913,0.95662c3.68174,0.56625 6.11659,0.82441 9.57801,-0.80304c1.09014,-0.79921 2.10719,-1.69205 3.03219,-2.6652c-2.20929,1.422 -6.22345,1.88347 -8.04494,1.60332zM344.69047,175.30715c2.92251,0.23948 5.86772,0.12242 8.82773,0.57767c1.1069,0.17024 7.90571,0.22409 6.08893,-2.25012c-0.67295,-0.91647 -2.27313,0.07127 -3.41012,0.07849c-4.04357,0.02568 -7.46148,1.77182 -11.50655,1.59397zM343.26813,175.15824c-0.07991,-0.02051 -0.20425,-0.05953 -0.33817,-0.12825l-0.40719,0.01941c0.24828,0.04035 0.49673,0.07644 0.74536,0.10884z" fill="#000000" stroke="none" stroke-width="0.5"/><path d="M328.42927,194.65254c1.81237,-0.51259 2.89926,0.64086 3.37122,1.3476c0.78411,0.41733 1.97363,1.36896 1.64545,3.21817c1.23594,2.20917 2.65233,4.30979 3.64118,6.6272c3.37053,7.89893 6.65985,16.12419 8.5243,24.59187c1.85962,8.44568 1.07293,17.59204 1.71321,26.27088c-3.6938,-0.56811 -7.40955,-1.1336 -11.10335,-1.70171c-0.7643,0.21482 0.96176,-7.71444 0.95253,-9.17143c-0.03867,-6.10894 1.34129,-12.31979 0.60515,-18.44409c0.2016,0.15587 0.38909,0.19326 0.57924,0.36416c-0.26538,-0.95635 -0.56798,-1.89862 -0.86307,-2.84472c0.0797,0.56045 0.18741,1.11834 0.23143,1.69362c0,0 -0.01481,0.1866 -0.01635,0.29247c-0.03494,-0.25039 -0.09525,-0.50754 -0.13788,-0.75714c-1.81104,-10.46356 -4.32953,-21.75976 -9.14307,-31.48687z" data-paper-data="{&quot;noHover&quot;:false,&quot;origItem&quot;:[&quot;Path&quot;,{&quot;applyMatrix&quot;:true,&quot;segments&quot;:[[[642.38157,440.01733],[-5.32957,-15.87033],[0.12624,0.37871]],[[642.74242,441.15812],[-0.11445,-0.38178],[-0.02298,-0.16533]],[[642.69848,440.89847],[0,0],[-0.20646,-0.88586]],[[641.99879,438.29004],[0.25851,0.8542],[0.68654,1.4035]],[[643.99434,442.53442],[-0.6427,-1.42659],[-0.33725,-0.22072]],[[642.96071,441.91251],[0.35148,0.19456],[2.61475,9.36648]],[[646.45838,470.99609],[-1.52427,-9.5097],[0.36354,2.26808]],[[647.15087,485.31645],[-1.13945,0.5179],[5.89183,0]],[[664.82635,485.31645],[-5.89183,0],[-3.07758,-13.36994]],[[655.81253,444.84177],[4.92168,12.71442],[-4.93449,-12.74753]],[[636.74731,408.7038],[7.14496,11.50038],[-2.0962,-3.37401]],[[629.49761,399.24669],[2.45527,3.14614],[0.06821,-2.96009]],[[626.16583,394.62526],[1.32181,0.46237],[-0.90479,-0.98814]],[[620.59846,393.32967],[2.7012,-1.23306],[9.83159,14.00322]]],&quot;closed&quot;:true}]}" fill="#0069ff" stroke="none" stroke-width="0.5"/><path d="M335.17211,144.40136c0.14907,-0.24289 0.30438,-0.48755 0.46204,-0.73034c0.64587,-0.9947 1.15029,-2.40848 2.27795,-3.05664c1.34981,-0.77583 2.96848,-0.98534 4.4414,-1.4897c0.90552,-0.31008 1.75812,-0.68907 2.60545,-0.97609c4.25578,0.74709 9.36077,2.55461 13.13671,4.44976c4.26648,3.93268 5.81528,8.28896 6.9505,13.87285c0.39159,1.92617 1.62061,4.40505 1.70392,6.34688c0.01057,0.24629 0.01533,0.49407 0.01571,0.73846c-0.12338,0.15404 -0.2203,0.36444 -0.26344,0.64488c-0.06498,0.42247 0.03333,0.72718 0.19353,0.94195c-0.32506,3.69385 -1.81305,7.14209 -4.04141,10.02182c0.28615,-0.9236 -0.04481,-2.05663 -1.35832,-3.41385c-0.88759,-0.91712 -2.77701,-0.31752 -3.78364,-0.3283c-4.64138,-0.04971 -9.12735,2.03642 -13.79159,1.30613c0,0 -1.25718,-0.19427 -1.45003,1.0596c-0.02274,0.14786 -0.02483,0.28122 -0.01176,0.40099c-0.18019,-0.02828 -0.39186,-0.01564 -0.6349,0.06249c-1.20774,0.38826 -0.76331,1.48225 -0.76331,1.48225l0.86105,1.35203c-2.34654,-2.43786 -4.42867,-5.34573 -5.95552,-8.38653c0.06579,-0.21095 0.07144,-0.47185 -0.02964,-0.78627c-0.15271,-0.47501 -0.43438,-0.70657 -0.71728,-0.80853c-0.36575,-0.84398 -0.69345,-1.70498 -0.96907,-2.55825c-3.51637,-6.57831 -2.96564,-12.77024 0.35903,-18.83538l0.23037,-0.09483c0,0 0.66748,-0.49045 0.53226,-1.21536z" data-paper-data="{&quot;noHover&quot;:false,&quot;origItem&quot;:[&quot;Path&quot;,{&quot;applyMatrix&quot;:true,&quot;segments&quot;:[[618.56509,315.39733],[[618.22946,315.59934],[0,0],[-3.72698,10.24747]],[[622.18551,344.93166],[-7.05572,-9.40763],[0.63395,1.26351]],[[624.29921,348.67221],[-0.77218,-1.22744],[0.46525,0.09108]],[[625.60639,349.75536],[-0.35179,-0.70357],[0.23286,0.46571]],[[625.83828,350.97063],[0.05196,-0.34447],[3.10787,4.37226]],[[637.08154,362.58543],[-4.24062,-3.23632],[0,0]],[635.36202,360.87755],[[636.25645,358.19426],[-1.78885,0.89443],[0.35999,-0.17999]],[[637.22775,357.94383],[-0.28755,-0.00089],[-0.04906,-0.1835]],[[637.15087,357.31645],[0,0.23585],[0,-2]],[[639.15087,355.31645],[0,0],[7.44284,0.02015]],[[660.23984,349.9981],[-7.24412,1.03485],[1.57112,-0.22444]],[[666.20234,349.61515],[-1.60284,-1.21635],[2.37198,1.80004]],[[669.14096,354.60455],[0.22453,-1.50773],[2.7821,-5.02123]],[[673.01235,338.06674],[0.37872,5.83366],[-0.3011,-0.29627]],[[672.48421,336.64978],[0,0.67387],[0,-0.44731]],[[672.73959,335.5856],[-0.15534,0.2696],[-0.05915,-0.38071]],[[672.53771,334.44262],[0.07549,0.38123],[-0.59517,-3.00579]],[[668.36524,324.99811],[1.07179,2.90752],[-3.10708,-8.42878]],[[654.27217,305.11308],[7.59051,5.10544],[-6.33785,-2.04812]],[[632.80599,301.32709],[6.8104,0.14422],[-1.25152,0.65031]],[[628.99224,303.46684],[1.33668,-0.70017],[-2.17424,1.13889]],[[622.4468,306.8398],[1.91734,-1.53239],[-1.6018,1.2802]],[[619.64202,312.13576],[0.76802,-1.70473],[-0.18747,0.41611]],[[619.09963,313.3812],[0.17408,-0.41419],[0.38443,1.09715]]],&quot;closed&quot;:true}]}" fill="#eec5ac" stroke="none" stroke-width="0.5"/><path d="M347.37642,151.83666c-0.19285,1.25387 -1.44672,1.06103 -1.44672,1.06103l-0.95834,-0.2829c-0.7485,-0.55434 -1.68872,-1.16341 -2.68663,-1.688c0.12268,0.48329 -0.1134,0.94306 -0.1134,0.94306c-2.26234,4.25375 -2.74801,9.6206 -0.93403,14.03761c0.35758,0.14263 0.90263,0.50387 0.77071,1.36159c-0.19285,1.25387 -1.44672,1.06103 -1.44672,1.06103l-1.37536,-0.78309c-2.47205,-5.31429 -1.88888,-11.60264 0.72831,-16.83606c0,0 0.1978,-0.38524 0.58735,-0.58999c-0.60808,-0.22555 -1.20879,-0.3921 -1.7737,-0.47012c0,0 -1.25387,-0.19285 -1.06103,-1.44672c0.19285,-1.25387 1.44672,-1.06103 1.44672,-1.06103c2.50016,0.41306 5.27356,1.99612 7.32425,3.40119l-0.12243,-0.15433c0,0 1.25387,0.19285 1.06103,1.44672z" fill="#000000" stroke="none" stroke-width="0.5"/><path d="M361.61897,151.03226c-0.19285,1.25387 -1.44672,1.06103 -1.44672,1.06103l-1.54734,-0.24422c-2.52265,0.12073 -4.93142,0.47917 -7.39147,0.8219c0.11826,4.65499 0.68832,8.93397 -0.11224,13.65488l0.20705,1.11509c0,0 0.21356,1.25051 -1.03695,1.46407c-1.25051,0.21356 -1.46407,-1.03695 -1.46407,-1.03695l-0.24317,-1.52122c0.66591,-4.67548 0.23575,-8.86798 0.11699,-13.46521c-0.35557,-0.10138 -0.76135,-0.36779 -0.84715,-1.04675c-0.15904,-1.25861 1.09956,-1.41765 1.09956,-1.41765c3.31194,-0.41704 6.4603,-0.9606 9.80814,-1.10171l1.79632,0.27003c0,0 1.25387,0.19285 1.06103,1.44672z" fill="#000000" stroke="none" stroke-width="0.5"/><path d="M465.99161,268.39308c-0.58228,0.02188 -1.21564,-0.11449 -1.79044,-0.13427c0.73007,-5.01183 0.49227,-10.00837 0.5789,-15.08121c0,0 0.02727,-1.25561 -1.24115,-1.27727c-1.26843,-0.02166 -1.17788,1.18779 -1.17788,1.18779c-0.08649,5.06411 0.1046,10.22074 -0.66423,15.21962l-0.0328,0.21061c-1.71523,0.35583 -3.25114,1.32513 -4.92713,1.65569c-1.25654,0.24784 -3.81768,-0.64353 -5.0834,-0.83819l-0.04839,-0.00749c-0.5018,-0.21728 -1.04739,-0.3765 -1.60918,-0.49716c0.03278,-0.10391 0.04332,-0.17362 0.04332,-0.17362l0.20501,-1.40967c-0.3555,-3.83748 -0.09388,-7.49805 -0.4541,-11.39512c0,0 0.00951,-1.26017 -1.2537,-1.14315c-1.26321,0.11702 -1.14602,1.37077 -1.14602,1.37077c0.35144,3.78512 0.04603,7.26868 0.39054,10.98764l-0.18043,1.09784c0,0 -0.08803,0.17493 -0.08731,0.28955c-2.76056,-0.33006 -5.57015,-0.69175 -6.91201,-3.58718c-0.36324,-0.78378 0.53184,-3.75532 0.92673,-5.37124c0.06874,-0.1695 0.08843,-0.30018 0.08843,-0.30018l0.00133,-0.08877c0.02697,-0.1246 0.04813,-0.23655 0.06261,-0.33071c0,0 0.04393,-0.29098 -0.04834,-0.61255l0.00823,-0.53782c-0.14432,-0.27559 -0.26256,-0.57644 -0.36245,-0.88919c0.91151,-1.95385 1.28535,-3.72118 1.62575,-5.9344c0.06171,-0.40123 0.1346,-2.99553 0.34422,-3.2042c2.44622,-2.43511 4.67371,-4.79303 8.21926,-5.41448c5.28119,-0.50517 11.07065,1.34105 16.40097,1.27418c0.45244,-0.00567 5.3726,-0.38133 5.3726,-0.38133c0,0 -0.58323,1.43284 -0.69293,2.18957c0.9962,5.83335 -0.15059,12.08323 -1.07473,18.0919c-0.17617,1.14545 -0.10695,4.80562 -0.62521,5.58655c-0.27863,0.41984 -0.97877,-0.25343 -1.4768,-0.33003c-0.21669,-0.03333 -0.51854,-0.15993 -0.73544,-0.19189c2.07341,-4.29217 2.53113,-9.7494 1.47869,-14.31266c0,0 -0.16146,-1.25561 -1.39727,-0.96899c-1.23581,0.28662 -0.94807,1.53023 -0.94807,1.53023c1.04266,4.46856 0.27821,9.56666 -1.76607,13.65448z" data-paper-data="{&quot;noHover&quot;:false,&quot;origItem&quot;:[&quot;Path&quot;,{&quot;applyMatrix&quot;:true,&quot;segments&quot;:[[[852.51003,474.99609],[0,0],[2.20576,-6.85957]],[[851.96059,453.39257],[2.69557,6.71304],[0,0]],[[853.07476,450.79283],[-1.85695,0.74278],[1.85695,-0.74278]],[[855.67449,451.907],[0,0],[2.73351,6.85826]],[[856.78063,474.65335],[2.20217,-7.18496],[0.34563,-0.00218]],[[857.81754,474.64978],[-0.34564,0],[0.79439,0]],[[860.19506,474.8137],[-0.33354,0.72097],[0.6204,-1.34105]],[[859.81754,465.98312],[0,1.82706],[0,-9.5842]],[[857.1767,437.63682],[2.95026,8.85079],[-0.01042,-1.20543]],[857.73666,434.064],[[849.47124,435.95729],[0.70364,-0.11727],[-8.2897,1.38162]],[[823.71703,437.90274],[8.10809,-2.05281],[-5.37574,1.81804]],[[812.24756,448.26017],[3.22813,-4.38064],[-0.27662,0.37538]],[[812.48421,453.31645],[0,-0.63998],[0,3.53023]],[[811.37192,462.91398],[0.95208,-3.26294],[0.2306,0.46339]],[[812.14831,464.20705],[-0.29092,-0.39484],[0,0]],[[812.26338,465.04385],[0,0],[0.22083,0.47896]],[[812.48421,465.98312],[0,0],[0,0.1502]],[[812.46521,466.51163],[0.01217,-0.20062],[0,0]],[812.48421,466.64978],[[812.41771,467.13717],[0.06649,-0.28059],[-0.22805,2.61257]],[[812.24756,475.70607],[-0.75383,-1.13423],[2.7848,4.19009]],[[823.84613,479.61269],[-4.38061,0.14727],[-0.02859,-0.17843]],[823.81754,479.31645],[[823.83253,477.56082],[0,0],[-1.42808,-5.71233]],[[820.54392,460.46819],[1.45473,5.81376],[0,0]],[[821.99914,458.04283],[-1.94029,0.48507],[1.94029,-0.48507]],[[824.42449,459.49805],[0,0],[1.49524,5.98609]],[[827.80256,477.07208],[-1.4736,-5.89438],[0,0]],[827.81754,479.31645],[[827.79137,479.59727],[0.02617,-0.16977],[0.90429,0.05338]],[[830.40733,479.98312],[-0.83398,-0.21831],[0,0]],[[830.48421,479.98312],[0,0],[2.0189,0]],[[838.57131,480.06893],[-1.89855,0.68731],[2.53231,-0.91674]],[[845.81754,476.31882],[-2.5874,0.96552],[0,0]],[[845.81754,475.98312],[0,0],[0,-7.97351]],[[843.16921,452.25334],[1.07886,7.91163],[0,0]],[[844.88065,450.00146],[-1.98166,0.27023],[1.98166,-0.27023]],[[847.13253,451.71289],[0,0],[1.08072,7.92528]],[[849.81551,475.47461],[-0.06349,-7.9844],[0.90039,-0.10693]],[[852.50885,475.10198],[-0.90206,0.17363],[0,0]]],&quot;closed&quot;:true}]}" fill="#eec5ac" stroke="none" stroke-width="0.5"/><path d="M322.73023,201.64496c-0.12488,-0.27302 -0.91303,-0.70298 -0.6164,-0.65671c0.2782,0.0434 0.51961,0.21555 0.75852,0.39094c-0.03877,0.18337 -0.05795,0.33466 -0.06733,0.4328c-0.02449,-0.05586 -0.04942,-0.11155 -0.0748,-0.16703z" fill="#000000" stroke="none" stroke-width="0.5"/><path d="M327.71186,220.05836c-0.07668,-0.00513 -0.17456,-0.00913 -0.28848,-0.00837c-0.10845,-0.27288 -0.17491,-0.5404 -0.21328,-0.81085c0.2379,0.26802 0.48876,0.52563 0.50176,0.81922z" fill="#000000" stroke="none" stroke-width="0.5"/><path d="M327.69348,220.22372c-0.02023,0.07547 -0.05423,0.13951 -0.09917,0.19446c-0.02673,-0.05025 -0.05189,-0.1002 -0.07558,-0.14991l0.18572,-0.09428c-0.00285,0.01645 -0.0065,0.03302 -0.01097,0.04972z" fill="#000000" stroke="none" stroke-width="0.5"/><path d="M359.43749,140.5279c-2.78554,-1.43956 -6.35355,-2.77817 -9.74709,-3.74785c0.13426,-1.18859 -1.00725,-1.40267 -1.00725,-1.40267c-1.37188,-0.1852 -2.53004,-0.05454 -3.68286,0.26044c-0.06616,-0.01062 -0.25838,-0.03289 -0.32406,-0.04299l-0.70968,-0.116c0,0 -1.20419,-0.19504 -1.4337,0.97805c-0.29761,0.10737 -0.60231,0.21408 -0.91654,0.32168c-0.26026,0.08912 -4.77743,1.61915 -4.93882,1.7178c-1.77513,1.08515 -2.01063,2.19383 -3.07077,3.81931c-0.2825,0.43315 -0.66989,0.91634 -0.92739,1.35259c-5.50769,-0.3439 -10.74131,3.16841 -16.12454,3.7105c0.92865,-2.72122 1.94789,-5.41353 3.24343,-7.87206c1.52464,-2.8933 4.15647,-4.96995 5.70127,-7.70566c2.41107,-4.2698 3.52728,-9.54297 8.60984,-11.22843c0.2397,0.12941 0.45734,0.16238 0.45734,0.16238c2.66977,0.30469 4.14999,-1.25101 6.39397,-2.12326c1.41751,-0.55099 5.87197,0.99062 7.46997,1.23639c5.52159,0.84922 11.09343,1.73674 16.61908,2.55917c4.26829,1.82047 11.83151,3.81403 14.66126,7.80176c0.2827,0.39838 0.01348,1.04263 0.30138,1.43726c0.2721,0.37298 0.98254,0.25949 1.22187,0.65431c0.19099,0.31508 0.35816,0.65643 0.5058,1.01434l-0.6604,0.22484c-4.42572,0.75581 -8.81461,1.44359 -13.06319,2.80967c-2.69452,0.86639 -4.70166,2.56118 -7.51536,3.03429c0,0 -1.02807,0.18293 -1.06356,1.14412z" data-paper-data="{&quot;noHover&quot;:false,&quot;origItem&quot;:[&quot;Path&quot;,{&quot;applyMatrix&quot;:true,&quot;segments&quot;:[[[657.18508,299.41908],[0,0],[4.27093,-1.41151]],[[668.16823,292.91833],[-3.99098,1.99576],[6.29277,-3.14681]],[[687.85175,285.41908],[-6.71503,2.23834],[0,0]],[[688.82703,284.91099],[0,0],[-0.31583,-0.52232]],[[687.79665,283.45488],[0.37311,0.44518],[-0.46754,-0.55785]],[[685.73666,282.73066],[0.51338,0.51597],[-0.54319,-0.54592]],[[684.92412,280.56791],[0.53597,0.55301],[-5.36499,-5.53554]],[[660.23984,271.96813],[7.08714,1.81376],[-8.80718,0.04272]],[[633.81754,271.98312],[8.80727,0],[-2.5489,0]],[[621.91624,271.83088],[2.07672,-1.19827],[-3.28755,1.89691]],[[612.48421,276.64978],[4.23306,-0.16504],[0,0]],[[611.73324,276.50559],[0.40452,0.1442],[-7.51573,3.84434]],[[601.02728,296.00863],[2.73367,-7.23103],[-1.75149,4.633]],[[593.98672,309.35343],[1.68232,-4.87373],[-1.42952,4.14136]],[[590.81156,322.3771],[0.79488,-4.46276],[8.25825,-2.13478]],[[615.04314,312.72338],[-8.66451,0.78406],[0.29669,-0.74147]],[[615.99306,310.49714],[-0.33638,0.74263],[1.26235,-2.78689]],[[619.85495,303.7931],[-2.50595,2.11629],[0.22783,-0.1924]],[[627.13621,299.92351],[-0.38418,0.20124],[0.46385,-0.24297]],[[628.48655,299.19936],[-0.43801,0.23862],[0.0765,-1.88291]],[630.48421,297.31645],[[631.81754,297.31645],[0,0],[0.10477,0]],[[632.13315,297.31751],[-0.10563,-0.0007],[1.72084,-0.76708]],[[637.81754,295.98312],[-2.18205,0.04019],[0,0]],[[639.81525,297.86734],[-0.07565,-1.88423],[5.52021,0.69769]],[[655.80484,301.44375],[-4.68542,-1.57556],[-0.17505,-1.50624]]],&quot;closed&quot;:true}]}" fill="#ffffff" stroke="none" stroke-width="0.5"/><path d="M356.25954,173.70243c1.13698,-0.00722 2.73775,-0.99062 3.41071,-0.07415c1.81678,2.47421 -5.00707,2.47752 -6.11397,2.30728c-2.96001,-0.45525 -6.00624,-0.38125 -8.92876,-0.62073c4.04506,0.17785 7.58846,-1.58671 11.63202,-1.61239z" data-paper-data="{&quot;noHover&quot;:false,&quot;origItem&quot;:[&quot;Path&quot;,{&quot;applyMatrix&quot;:true,&quot;segments&quot;:[[[641.25704,359.19858],[6.34565,-0.69228],[4.61126,-0.32723]],[[655.15087,357.98312],[-4.7214,0],[1.76557,0]],[[664.09941,353.01775],[3.42386,3.41993],[-1.26823,-1.26677]],[[658.80457,353.95729],[1.76992,-0.28373],[-6.29454,1.00907]]],&quot;closed&quot;:true}]}" fill="#ffffff" stroke="none" stroke-width="0.5"/><path d="M312.13214,195.15853c-0.09716,0.20697 -0.12351,0.37924 -0.12351,0.37924c-0.84292,5.81478 4.12423,8.75585 4.78639,13.96013c0.43379,3.40939 0.9383,10.02451 3.23914,13.73258c-3.3305,-1.43109 -7.06444,-2.15325 -10.23873,-0.78766c-1.27409,0.54812 -2.66034,1.534 -3.97004,2.24031c0.0016,-0.00941 0.00321,-0.01894 0.00468,-0.02852c0.19285,-1.25387 -1.06485,-1.44553 -1.06485,-1.44553l-0.42084,-0.06355c-5.57299,-0.85713 -9.36627,-3.04416 -14.37398,-5.2033c0,0 -1.04631,-0.52082 -1.5375,0.64885c-0.4912,1.16966 0.67609,1.6534 0.67609,1.6534c5.22342,2.11905 9.03349,4.39302 14.82711,5.28408l0.4156,0.06465c0,0 0.1158,0.13897 0.25461,0.13454c-4.37688,5.12659 -6.30026,11.47801 -7.32727,18.1556c-0.55958,3.63839 -1.35899,6.60995 0.92017,9.81171c0.29854,0.64093 1.48241,2.9071 1.14835,3.6382c-0.23379,-0.03021 -0.47816,0.06143 -0.71206,0.02176l-0.41859,-0.06434c0,0 -0.94053,-0.14459 -1.31844,0.62871c-1.53378,-0.01273 -3.3291,-0.17155 -3.88567,-0.07976c-4.4179,0.72862 -8.17967,2.09588 -12.66125,1.40661c-1.98061,-0.30462 -3.80978,-0.16209 -5.04295,-1.88068c-2.01226,-14.45425 -0.2214,-28.84223 6.55246,-42.02747c3.93984,-7.68591 6.47664,-15.1055 11.89125,-22.00634c0.91901,-1.17127 0.94681,-2.65604 1.54397,-3.8401c1.06603,-2.11377 3.20053,-4.82099 4.74329,-6.66135c0.60877,-0.6747 0.92712,-1.58765 1.56574,-2.23417c1.57457,-1.59404 4.86857,-0.07849 6.59532,-0.22794c5.5889,-0.4837 13.36499,-4.48825 16.7721,-9.31045c0.25039,-0.02181 0.50202,-0.04516 0.7537,-0.07069c-0.28136,6.17289 2.52507,12.65259 3.5306,18.60123c0.24273,1.43598 0.66475,1.8429 0.65487,2.92803c-1.68027,-0.13288 -3.35805,-0.1795 -5.03723,0.03437c-4.10148,0.52238 -7.02039,1.86905 -11.34762,1.20352c0,0 -1.25185,-0.19185 -1.44469,1.06202c-0.02635,0.17131 0.02902,0.20837 0.0498,0.34228z" data-paper-data="{&quot;noHover&quot;:false,&quot;origItem&quot;:[&quot;Path&quot;,{&quot;applyMatrix&quot;:true,&quot;segments&quot;:[[[595.15087,397.31645],[0,0.27325],[0,-2]],[[597.15087,395.31645],[0,0],[6.9022,0]],[[614.57131,390.7356],[-6.26575,1.7969],[2.56525,-0.73567]],[[622.41989,389.48116],[-2.65004,0.19563],[-0.24465,-1.69322]],[[620.57002,385.22935],[0.72236,2.17937],[-2.99243,-9.02821]],[[610.63929,357.10635],[1.04093,9.68603],[-0.38605,0.1001]],[[609.48303,357.39753],[0.38493,-0.09399],[-4.15333,8.33049]],[[585.61038,375.92962],[8.59271,-2.09309],[-2.65481,0.64668]],[[575.40695,377.86377],[2.07148,-2.86119],[-0.84016,1.16045]],[[573.50756,381.71928],[0.78689,-1.19721],[-1.96289,3.23737]],[[567.73172,393.22935],[1.15453,-3.54915],[-0.64673,1.9881]],[[566.25577,399.578],[1.15131,-2.04532],[-6.78326,12.05053]],[[553.04824,436.61557],[4.29712,-12.92039],[-7.39518,22.16863]],[[552.85218,503.59832],[-6.59949,-22.0404],[2.33338,2.38238]],[[561.15087,505.31645],[-3.1592,0],[7.1484,0]],[[580.51842,500.08575],[-6.70936,2.1941],[0.84524,-0.27641]],[[586.58337,499.27864],[-2.39299,0.34773],[0.40354,-1.29552]],[588.48421,497.98312],[[589.15087,497.98312],[0,0],[0.37397,0.00575]],[[590.26909,497.97807],[-0.37154,0.00895],[0.34533,-1.21927]],[[587.60419,492.58443],[0.61879,0.92715],[-4.31871,-4.44278]],[[583.81754,477.31645],[0,5.80345],[0,-10.65115]],[[590.84722,447.27628],[-5.59146,9.03719],[-0.21523,0.04017]],[590.48421,447.31645],[[589.81754,447.31645],[0,0],[-9.24117,0]],[[565.33247,442.59007],[8.64698,2.0501],[0,0]],[[563.87726,440.16471],[-0.48507,1.94029],[0.48507,-1.94029]],[[566.30261,438.7095],[0,0],[8.32047,2.16427]],[[589.81754,443.31645],[-8.88926,0],[0,0]],[590.48421,443.31645],[[592.48421,445.31645],[0,-2],[0,0.01528]],[[592.48386,445.36194],[0.00023,-0.01505],[1.87151,-1.41446]],[[598.09941,440.94848],[-1.85393,1.15942],[4.61891,-2.88859]],[[614.22642,439.75377],[-5.53255,-1.43177],[-4.47382,-5.22653]],[[605.89758,419.20992],[1.493,5.20856],[-2.27899,-7.95062]],[[595.15087,398.64978],[0.08008,9.26261],[0,0]],[[595.25267,398.02931],[-0.1018,0.34578],[-0.06447,-0.20369]]],&quot;closed&quot;:true}]}" fill="#0069ff" stroke="none" stroke-width="0.5"/><path d="M435.56709,204.33415l-0.80457,-0.18961c-0.32012,-0.17026 -0.6614,-0.33406 -1.02088,-0.49129c-0.50567,-0.0579 -1.00846,-0.1231 -1.50752,-0.19657c-0.04717,-0.14718 -0.0976,-0.29447 -0.15118,-0.44169c-4.42841,-1.50541 -10.52183,-2.20456 -14.47004,-1.92512c-0.26338,0.01864 -0.74919,0.4886 -1.24363,1.05339l0.20015,0.10277l-0.59744,1.16356c-0.23638,0.48813 -0.77071,0.78719 -1.33475,0.70044c-0.44213,-0.068 -0.79561,-0.35662 -0.9657,-0.73665l-0.63477,-1.36459l0.04791,-0.02228l-0.10875,-0.13513c-0.52991,-2.96937 -1.99035,-6.13865 -2.94029,-9.28914c-2.37006,-1.17013 -4.44225,-3.71049 -6.71122,-5.13866c-1.37251,-0.20146 -2.79318,-0.33763 -4.1313,-0.37827c-0.86046,-2.46867 -1.02675,-5.19036 -1.9495,-7.66949c-2.58618,-6.94822 -5.25037,-13.84643 -8.74898,-20.37408c0.01333,-0.02349 0.02632,-0.0472 0.03885,-0.07102c0.43432,-0.82599 0.35752,-2.31682 0.12884,-3.77734c1.70411,0.262 3.4107,0.52151 5.11486,0.78318c8.49719,1.30107 18.4355,0.87528 26.62119,3.63374c3.591,1.21011 6.48769,3.14855 10.34128,3.74123c14.5982,2.24521 30.47872,2.63395 44.6171,6.93327c3.34451,1.01114 7.38505,1.47486 9.68736,4.4928c1.97343,2.58683 0.75658,6.57776 0.31964,9.41867c-1.08353,7.04507 -3.10783,13.68247 -4.68928,20.61036c-1.02911,4.5255 -1.13994,8.97191 -1.83802,13.51077c-1.18017,7.6734 -2.7588,15.32883 -3.96851,22.96831c-1.47188,-1.08506 -4.34426,-0.04423 -5.76726,-0.0357c-5.85098,0.03508 -12.03981,-1.94138 -17.86865,-1.43082c0,0 -0.01758,0.00165 -0.0483,0.00658c-0.03095,0.00318 -0.04836,0.00617 -0.04836,0.00617c-0.67761,0.11572 -1.35074,0.14043 -1.93289,0.3134c-0.44157,-5.18306 -2.13409,-10.65175 -1.37188,-15.69367c-0.43467,-4.69211 1.0918,-9.86061 1.79713,-14.51911c0.23875,-1.5769 0.86455,-4.4482 -0.16014,-5.81159c-0.16823,-0.22383 -3.8156,0.07114 -4.13408,0.06806c-2.80445,-0.02716 -5.71399,-0.04619 -8.58406,-0.23125c-0.42857,0.53232 -1.18232,0.41639 -1.18232,0.41639z" fill="#0069ff" stroke="none" stroke-width="0.5"/><path d="M387.5437,187.86753c-5.59045,0.65476 -11.20383,1.38014 -16.86234,0.55987c-10.11175,1.6164 -20.07682,2.60347 -30.23446,4.30086l-0.00963,-0.27223c-2.20766,-4.645 -2.99535,-10.55809 -2.70906,-15.96386c1.49004,1.85296 3.26782,3.51037 5.00488,4.84103c4.13324,3.16621 12.52611,2.21252 16.75018,0.26187c5.23227,-3.83854 8.97138,-9.4747 9.66725,-15.93351c4.25699,-0.45147 8.25904,-1.59195 12.26733,-2.97956c0.01576,3.15397 1.13017,6.24974 1.44173,9.45478c0.1747,1.79723 -0.11338,5.03182 0.34846,6.71388c0.4241,1.54457 2.30201,2.78394 2.89785,4.0727c0.61641,1.33324 1.00935,3.24191 1.4378,4.94417z" data-paper-data="{&quot;noHover&quot;:false,&quot;origItem&quot;:[&quot;Path&quot;,{&quot;applyMatrix&quot;:true,&quot;segments&quot;:[[[707.51604,361.13521],[1.28001,1.92974],[-1.2373,-1.86536]],[[702.02506,355.50059],[1.031,2.30512],[-1.12276,-2.5103]],[[699.88225,345.1544],[0.70293,2.75858],[-1.25356,-4.91944]],[[695.39451,330.79977],[0.78041,4.91074],[-5.91318,3.12276]],[[677.03056,338.40272],[6.52506,-1.72368],[0.46356,10.23089]],[[665.75218,365.5298],[7.23302,-7.23514],[-6.11447,4.05182]],[[639.55599,369.08801],[7.19921,3.94305],[-3.02559,-1.65714]],[[630.79202,362.70451],[2.76585,2.53019],[0.8494,8.49189]],[[638.81497,386.87372],[-4.55317,-6.70878],[0,0]],[[638.89464,387.29496],[0,0],[15.42087,-5.07917]],[[684.83051,373.34228],[-15.36877,4.94197],[9.01368,-0.07793]],[[710.9438,368.47744],[-8.55413,2.36001],[-1.07556,-2.54978]]],&quot;closed&quot;:true}]}" fill="#0069ff" stroke="none" stroke-width="0.5"/><path d="M327.14442,246.75392c0.02092,-0.06864 0.04244,-0.13692 0.06521,-0.20449c1.45725,-4.32437 2.61552,-8.48137 3.32302,-13.08149c0.04176,-0.2715 0.07411,-0.52749 0.09575,-0.76928c4.07349,2.35141 0.40506,5.46669 1.75979,9.42259c0.08707,0.25425 0.18321,0.49836 0.29444,0.7275l-0.09875,0.14517c-0.76331,1.82046 -2.87535,5.83943 -4.84582,3.99625c0,0 -0.25369,-0.17852 -0.59366,-0.23624z" data-paper-data="{&quot;noHover&quot;:false,&quot;origItem&quot;:[&quot;Path&quot;,{&quot;applyMatrix&quot;:true,&quot;segments&quot;:[[[632.0453,474.86093],[0,0],[3.51211,2.39982]],[[638.54392,467.49805],[-0.75312,3.01957],[0,0]],[[638.65957,467.2517],[0,0],[-0.22824,-0.33038]],[[638.02091,466.19515],[0.19661,0.37531],[-3.05898,-5.83943]],[[633.11436,452.09503],[6.91084,2.68775],[0.02423,0.38195]],[[633.15087,453.31645],[0,-0.43306],[0,7.33747]],[[631.12505,474.30348],[1.23435,-7.08748],[-0.01929,0.11075]],[[631.07194,474.63758],[0.01614,-0.11197],[0.54357,0.00846]]],&quot;closed&quot;:true}]}" fill="#eec5ac" stroke="none" stroke-width="0.5"/><path d="M327.43917,236.5979c-0.32427,1.4916 -0.69378,2.95639 -1.10551,4.40223c-4.69822,-0.72259 -9.43669,-1.38145 -14.13491,-2.10404c0,0 -1.22664,-0.21324 -1.41949,1.04063c-0.19285,1.25387 0.9514,1.38568 0.9514,1.38568c4.31066,0.66298 9.43589,1.4626 13.87112,2.14474c-0.22978,0.74254 -0.47056,1.50322 -0.71549,2.26382c-0.27165,0.84358 -0.46241,1.76517 -0.60436,2.69735c-2.30204,-0.26503 -4.33447,0.81735 -6.58597,0.73628c-2.01918,-0.07271 -3.76589,-0.31957 -5.81045,0.02596c0,0 -1.21987,0.09056 -1.00631,1.34107c0.21356,1.25051 1.4532,1.03478 1.4532,1.03478c1.933,-0.33399 3.40742,-0.01875 5.32634,0.02287c2.12976,0.0462 4.07807,-1.04272 6.2129,-0.71948c-0.0917,0.86366 -0.08929,1.80364 -0.20756,2.61028c-0.09967,0.67975 -0.32641,2.303 -1.15104,2.63155c-0.77815,0.31003 -1.68422,0.10594 -2.508,0.25772c-6.13608,-0.94373 -12.22124,1.2998 -18.258,1.24113c0.1827,-1.73633 -0.78843,-3.74434 -1.42035,-5.10409c-1.95853,-2.57712 -1.05284,-5.28764 -0.59118,-8.28932c0.97229,-6.3218 2.72124,-12.51718 7.02363,-17.33931c1.42873,-0.63134 2.62528,-1.50494 3.97239,-2.20679c0.66978,-0.34896 1.43943,0.07584 2.09493,0.06761c4.97193,-0.06237 7.54865,1.01453 11.52492,3.80562c2.54084,1.78351 4.25228,1.16358 3.72856,4.56879c-0.13103,0.85194 -0.27509,1.68831 -0.43769,2.50206c-0.11586,-0.86944 -1.18308,-0.9595 -1.18308,-0.9595l-0.4174,-0.06331c-5.12819,-0.70819 -9.50215,-3.57241 -14.65951,-4.37327c0,0 -1.24508,-0.195 -1.43793,1.05887c-0.19285,1.25387 1.02567,1.32494 1.02567,1.32494c5.13622,0.78144 9.6899,3.59777 14.79991,4.44201l0.41832,0.06521c0,0 0.84037,0.12911 1.25094,-0.51208z" data-paper-data="{&quot;noHover&quot;:false,&quot;origItem&quot;:[&quot;Path&quot;,{&quot;applyMatrix&quot;:true,&quot;segments&quot;:[[627.15087,459.98312],[[626.48421,459.98312],[0,0],[-8.16474,-0.09087]],[[602.48421,456.64978],[8.19054,-0.01327],[0,0]],[[600.48421,454.64978],[0,2],[0,-2]],[[602.48421,452.64978],[0,0],[8.22813,0.01193]],[[626.48421,455.98312],[-8.16048,0.12547],[0,0]],[627.15087,455.98312],[[629.06122,457.3101],[-0.3889,-1.32699],[0.05834,-1.30694]],[[629.15087,453.31645],[0,1.3589],[0,-5.43151]],[[622.27217,447.11308],[4.38656,2.17015],[-6.86472,-3.39617]],[[603.47124,443.95729],[7.73232,-1.28872],[-1.01944,0.16991]],[[600.20234,444.35109],[0.96003,-0.70426],[-1.93086,1.41645]],[[594.56509,448.73066],[2.07495,-1.32616],[-5.54836,8.54493]],[[587.81754,477.31645],[0,-10.08365],[0,4.78787]],[[590.69756,490.04847],[-3.66939,-3.54631],[1.31052,1.96733]],[[594.1134,497.64685],[-0.13143,-2.74934],[9.42056,-1.35529]],[[622.16384,491.34228],[-9.78742,0],[1.24723,-0.43392]],[[625.99878,490.34829],[-1.13821,0.66958],[1.20619,-0.70957]],[[627.15087,485.98312],[0.0076,1.08307],[-0.00902,-1.28524]],[[627.01096,481.98221],[0.06409,1.36773],[-3.40396,0.00794]],[[617.47124,484.62396],[3.32967,-0.43842],[-3.00005,0.39502]],[[609.11666,485.88048],[2.93196,-0.98367],[0,0]],[[606.58684,484.61557],[0.63246,1.89737],[-0.63246,-1.89737]],[[607.85175,482.08575],[0,0],[3.10303,-1.02838]],[[616.83051,480.67561],[-3.16372,0.37061],[3.52772,-0.41325]],[[626.88733,477.9896],[-3.65055,0.13872],[-0.00221,-1.48655]],[[627.1767,473.66275],[-0.22112,1.37957],[0.19937,-1.24387]],[[627.74772,469.98312],[-0.18009,1.2121],[-7.07446,0]],[[605.81754,469.98312],[6.87576,0],[0,0]],[[603.81754,467.98312],[0,2],[0,-2]],[[605.81754,465.98312],[0,0],[7.49395,0]],[[628.29939,465.98312],[-7.49395,0],[0.29506,-2.35159]],[[628.97749,458.88562],[-0.14781,2.40193],[-0.48608,1.0975]]],&quot;closed&quot;:true}]}" fill="#eec5ac" stroke="none" stroke-width="0.5"/><path d="M361.24032,176.78076c-0.925,0.97315 -1.94283,1.88748 -3.03297,2.68669c-3.46142,1.62746 -6.00986,1.3933 -9.6916,0.82704c-1.25899,-0.19363 -3.37395,-0.12173 -4.40238,-0.98335c-0.64411,-0.53963 -1.27503,-1.12893 -1.8873,-1.7355c3.61297,0.50929 7.1929,0.24278 10.84428,0.80436c1.82149,0.28015 5.96069,-0.17725 8.16998,-1.59925z" data-paper-data="{&quot;noHover&quot;:false,&quot;origItem&quot;:[&quot;Path&quot;,{&quot;applyMatrix&quot;:true,&quot;segments&quot;:[[[655.15087,361.98312],[2.90539,0],[-5.82416,0]],[[638.06015,363.31411],[5.75179,-0.07227],[1.09941,0.79842]],[[641.41242,365.54489],[-1.13297,-0.68649],[1.80899,1.09612]],[[648.48421,365.98312],[-2.00816,0],[5.8726,0]],[[663.21623,362.43643],[-5.00357,3.36544],[1.50712,-1.50658]],[[667.30227,357.55684],[-1.20812,1.73805],[-3.10173,2.74522]]],&quot;closed&quot;:true}]}" fill="#eec5ac" stroke="none" stroke-width="0.5"/><path d="M346.80074,131.9236c-0.85598,0.93631 -1.79229,0.08033 -1.79229,0.08033l-1.38285,-1.35724c-0.10392,-0.50496 -0.12678,-1.03366 -0.31175,-1.51487c-0.07737,-0.20128 -0.34355,-0.56344 -0.58458,-0.981c-0.55328,1.60833 -1.7113,3.61274 -2.84115,3.98499c-1.9696,0.64893 -2.92063,-0.65169 -3.62229,-2.09861c-0.20395,-0.42056 -0.53036,-0.99437 -0.74979,-1.54197c-0.1197,0.27705 -0.24059,0.53216 -0.32909,0.70975c-1.28476,2.57803 -2.24701,4.31317 -5.21619,4.91429c0,0 -1.25051,0.21356 -1.46407,-1.03695c-0.21356,-1.25051 1.03695,-1.46407 1.03695,-1.46407c2.83914,-0.33106 2.92917,-3.39775 4.29081,-5.36896c0.47269,-0.68429 0.81131,-1.93315 1.64124,-1.87925c2.13816,0.13886 2.61306,3.26608 3.08574,4.58651c0.10369,0.28967 0.27053,1.00832 0.48346,0.78625c0.82062,-0.85586 1.63272,-6.30968 3.46515,-6.02001c1.58936,0.25125 3.16533,4.2726 3.3426,5.70823l0.86777,0.70028c0,0 0.93631,0.85598 0.08033,1.79229z" fill="#000000" stroke="none" stroke-width="0.5"/><path d="M351.46373,128.92684c0.00561,0.314 0.01193,0.64189 0.02293,0.98561l-0.03152,0.0676l0.028,0.00219l-0.10905,1.39552c-0.00245,0.03569 -0.00641,0.07157 -0.01195,0.10757c-0.10651,0.69249 -0.75422,1.16753 -1.44672,1.06103c-0.50055,-0.07698 -0.88748,-0.43674 -1.0233,-0.89178l-0.57037,-1.77422l0.5246,-0.16864c-0.29875,-0.93256 -0.44829,-1.90164 -0.37524,-2.85149c0.00247,-0.03216 0.03064,-0.50902 0.07988,-1.14025c-0.21744,-0.34947 -0.53848,-0.66641 -1.00885,-0.94748c0,0 -1.03526,-0.73324 -0.30202,-1.76849c0.6205,-0.87608 1.45729,-0.48568 1.69993,-0.34492c0.03314,-0.11365 0.06762,-0.19592 0.10328,-0.23783c3.41239,-4.01082 10.79656,1.94979 6.85605,5.80612c-0.58016,0.56777 -3.06347,0.68705 -3.84167,0.75955zM350.81926,124.76255c0.26512,0.52152 0.41585,1.06169 0.50407,1.64614c0.22335,-0.0291 0.39224,-0.00312 0.39224,-0.00312l0.10809,0.05495c0.75245,-0.06929 1.72715,0.51653 2.26685,-0.01233c1.75999,-1.7246 -2.36753,-3.66316 -2.98232,-2.55252c-0.15229,0.27513 -0.24141,0.56584 -0.28893,0.86689z" fill="#000000" stroke="none" stroke-width="0.5"/><path d="M456.32402,269.99075c-1.26045,-0.14367 -1.11678,-1.40412 -1.11678,-1.40412l0.09304,-0.80825c0.15709,-2.06763 0.91951,-4.88699 0.71006,-6.91257c-0.37388,-3.61582 -1.80929,-7.29777 -2.15702,-11.05141c0,0 -0.11703,-1.26321 1.14618,-1.38023c1.26321,-0.11702 1.38023,1.14618 1.38023,1.14618c0.34605,3.73554 1.79951,7.39038 2.15212,11.00351c0.21451,2.19808 -0.53219,5.15655 -0.70164,7.38674l-0.10206,0.90337c0,0 -0.14367,1.26045 -1.40412,1.11678z" fill="#000000" stroke="none" stroke-width="0.5"/><path d="M332.91333,199.53441c-1.20774,0.38826 -1.596,-0.81947 -1.596,-0.81947l0.33889,-0.15992c-2.13032,-1.20169 -2.1511,-3.07846 -3.87755,-4.59666c0,0 -0.93631,-0.85599 -0.08033,-1.7923c0.85598,-0.93631 1.79229,-0.08033 1.79229,-0.08033c1.32624,1.2467 1.77133,3.55498 3.32451,4.2122l0.91767,1.64048c0,0 0.38826,1.20774 -0.81947,1.596z" fill="#0069ff" stroke="none" stroke-width="0.5"/><path d="M413.60112,214.50964l-0.1793,-0.7916c-0.08827,0.03313 -0.18668,0.05984 -0.29634,0.07857c-1.25051,0.21356 -1.46407,-1.03695 -1.46407,-1.03695l-0.24317,-1.52122c0.39017,-2.4721 0.10757,-4.91055 0.32126,-7.46845c-0.096,-0.46831 -0.17268,-0.93356 -0.21985,-1.39496c0,0 -0.11703,-1.26321 1.14618,-1.38023c0.76738,-0.07109 1.11177,0.36718 1.2639,0.72219c0.5829,0.42135 0.46066,1.21611 0.46066,1.21611c-0.04553,0.29603 -0.08196,0.58903 -0.11111,0.87951c0.60461,3.16676 1.97231,6.24344 1.49404,9.60143l0.24326,0.31908c0,0 0.28106,0.87427 -0.37892,1.37425c0.00747,5.26845 0.94574,9.82375 3.49359,14.57637c2.13826,2.86807 2.50128,7.11732 3.37857,10.48286c1.16297,4.46149 3.40977,8.99949 4.13508,13.59424c0.78284,4.95921 -0.56072,10.13339 0.31973,15.11717c-0.46641,2.8303 -1.42577,4.86918 -4.53249,5.54175l-0.19275,-0.03234l-0.00495,-0.1443c0.05497,-0.43336 0.0811,-0.85459 0.08816,-1.2681c0.18456,-2.32816 0.14048,-4.56752 -0.09803,-7.02729c0.27049,-1.89576 0.14665,-3.63872 -0.20973,-5.30454c0.04554,-0.45381 0.10065,-0.90905 0.16921,-1.36629c0.41235,-6.9709 -0.77935,-15.44595 -2.305,-22.31055c-1.37811,-6.2008 -4.22128,-11.86321 -5.0203,-18.26464c-0.12891,-1.03279 -0.29162,-2.16555 -0.42091,-3.33694c-0.61843,-0.17605 -0.83674,-0.85512 -0.83674,-0.85512z" fill="#0069ff" stroke="none" stroke-width="0.5"/><path d="M117.86016,318.85136l14.7689,-96.02656l489.49917,75.28506l-14.7689,96.02656z" fill="#1b1b1b" stroke="#000000" stroke-width="2"/><text transform="translate(135.75477,254.43187) rotate(8.74359) scale(0.63431,0.63431)" font-size="40" xml:space="preserve" fill="#ffffff" fill-rule="nonzero" stroke="none" stroke-width="1" stroke-linecap="butt" stroke-linejoin="miter" stroke-miterlimit="10" stroke-dasharray="" stroke-dashoffset="0" font-family="Sans Serif" font-weight="normal" text-anchor="start" style="mix-blend-mode: normal"><tspan x="0" dy="0">Oof! Upstart... amateur...!</tspan><tspan x="0" dy="46.150000000000006px">T-these accusations are... ludicrous! </tspan></text><path d="M131.64652,223.15561c0,0 0.89553,-18.12822 9.38194,-25.5112c8.43196,-7.33561 74.7506,4.62554 80.74441,12.4185c5.7286,7.44815 -1.0028,26.79991 -1.0028,26.79991z" fill="#0069ff" stroke="#000000" stroke-width="2"/><text transform="translate(137.80343,213.12441) rotate(8.74359) scale(0.41164,0.41164)" font-size="40" xml:space="preserve" fill="#ffffff" fill-rule="nonzero" stroke="none" stroke-width="1" stroke-linecap="butt" stroke-linejoin="miter" stroke-miterlimit="10" stroke-dasharray="" stroke-dashoffset="0" font-family="Handwriting" font-weight="normal" text-anchor="start" style="mix-blend-mode: normal"><tspan x="0" dy="0">shreder95ua</tspan></text></g></g></g></svg>