<svg version="1.1" xmlns="http://www.w3.org/2000/svg" xmlns:xlink="http://www.w3.org/1999/xlink" width="93.61769" height="24.71875" viewBox="0,0,93.61769,24.71875"><g transform="translate(-279.58231,-165.53125)"><g data-paper-data="{&quot;isPaintingLayer&quot;:true}" fill-rule="nonzero" stroke-linejoin="miter" stroke-miterlimit="10" stroke-dasharray="" stroke-dashoffset="0" style="mix-blend-mode: normal"><path d="M292.45,190v-20h80.5v20z" fill="#353535" stroke="#000000" stroke-width="0.5" stroke-linecap="butt"/><path d="M279.83231,169.98125v-4.2h4.2v4.2z" fill="#151515" stroke="#000000" stroke-width="0.5" stroke-linecap="butt"/><text transform="translate(281.20549,168.67472) scale(0.06232,0.06232)" font-size="40" xml:space="preserve" fill="#ffffff" fill-rule="nonzero" stroke="none" stroke-width="1" stroke-linecap="butt" stroke-linejoin="miter" stroke-miterlimit="10" stroke-dasharray="" stroke-dashoffset="0" font-family="Malgun Gothic" font-weight="normal" text-anchor="start" style="mix-blend-mode: normal"><tspan x="0" dy="0">1</tspan></text><path d="M284.06308,169.98125v-4.2h4.2v4.2z" fill="#141414" stroke="#000000" stroke-width="0.5" stroke-linecap="butt"/><text transform="translate(285.43626,168.67472) scale(0.06232,0.06232)" font-size="40" xml:space="preserve" fill="#ffffff" fill-rule="nonzero" stroke="none" stroke-width="1" stroke-linecap="butt" stroke-linejoin="miter" stroke-miterlimit="10" stroke-dasharray="" stroke-dashoffset="0" font-family="Malgun Gothic" font-weight="normal" text-anchor="start" style="mix-blend-mode: normal"><tspan x="0" dy="0">2</tspan></text><path d="M279.83232,174.28125v-4.2h4.2v4.2z" fill="#151515" stroke="#000000" stroke-width="0.5" stroke-linecap="butt"/><path d="M288.26309,169.98125v-4.2h4.2v4.2z" fill="#141414" stroke="#000000" stroke-width="0.5" stroke-linecap="butt"/><text transform="translate(289.63626,168.67472) scale(0.06232,0.06232)" font-size="40" xml:space="preserve" fill="#ffffff" fill-rule="nonzero" stroke="none" stroke-width="1" stroke-linecap="butt" stroke-linejoin="miter" stroke-miterlimit="10" stroke-dasharray="" stroke-dashoffset="0" font-family="Malgun Gothic" font-weight="normal" text-anchor="start" style="mix-blend-mode: normal"><tspan x="0" dy="0">3</tspan></text><path d="M284.03233,174.28125v-4.2h4.2v4.2z" fill="#151515" stroke="#000000" stroke-width="0.5" stroke-linecap="butt"/><path d="M284.03233,178.48125v-4.2h4.2v4.2z" fill="#151515" stroke="#000000" stroke-width="0.5" stroke-linecap="butt"/><path d="M292.56309,169.98125v-4.2h4.2v4.2z" fill="#ffffff" stroke="#000000" stroke-width="0.5" stroke-linecap="butt"/><text transform="translate(293.93627,168.67472) scale(0.06232,0.06232)" font-size="40" xml:space="preserve" fill="#141414" fill-rule="nonzero" stroke="none" stroke-width="1" stroke-linecap="butt" stroke-linejoin="miter" stroke-miterlimit="10" stroke-dasharray="" stroke-dashoffset="0" font-family="Malgun Gothic" font-weight="normal" text-anchor="start" style="mix-blend-mode: normal"><tspan x="0" dy="0">4</tspan></text><path d="M288.19899,174.28125v-4.2h4.2v4.2z" fill="#151515" stroke="#000000" stroke-width="0.5" stroke-linecap="butt"/><path d="M288.19899,178.48125v-4.2h4.2v4.2z" fill="#151515" stroke="#000000" stroke-width="0.5" stroke-linecap="butt"/><g data-paper-data="{&quot;index&quot;:null}" fill="none" stroke="#ffffff" stroke-width="0.5"><path d="M327.46704,186.01214v-14.17858h17.67857l4.10715,4.10715v6.07143l-4,4z" stroke-linecap="round"/><path d="M345.68133,172.22642l-2.03571,2.03572h-15.96429v-2.39286" stroke-linecap="round"/><path d="M327.46704,186.01214v-14.17858h17.67857l4.10715,4.10715v6.07143l-4,4z" stroke-linecap="round"/><path d="M325.82419,184.86928v-12.07143h1.28572v12.07143z" stroke-linecap="butt"/><path d="M332.04261,181.8639v-6.40693h12.37501v6.40693z" stroke-linecap="butt"/><path d="M317.75276,180.01214h-5.57143v-2.5h5.85715" stroke-linecap="round"/><path d="M325.6099,172.22642v13.42857l-7.71429,-5.64285v-2.42858z" stroke-linecap="round"/><path d="M304.18133,181.70499v-5.99285h7.92858v5.99285z" stroke-linecap="butt"/><path d="M327.68133,185.72642v-1.53572h16.53572l1.53571,1.53572" stroke-linecap="round"/><path d="M349.46704,176.01214h12.07143l1.35714,4.35714l5.64286,-2.07143l2.71429,6l-11.85715,3.14285l-1.5,-6.78571l-6,0.21428z" stroke-linecap="round"/><path d="M351.39561,179.86928c0,0 -0.3904,0.66922 -0.78571,0.64286c-0.39531,-0.02635 -1.35715,-0.78572 -1.35715,-0.78572" stroke-linecap="round"/><path d="M350.53847,178.15499l-0.21429,1.5" stroke-linecap="round"/></g><path d="M279.83232,178.48125v-4.2h4.2v4.2z" fill="#151515" stroke="#000000" stroke-width="0.5" stroke-linecap="butt"/></g></g></svg>