<svg version="1.1" xmlns="http://www.w3.org/2000/svg" xmlns:xlink="http://www.w3.org/1999/xlink" width="64.73235" height="97.79706" viewBox="0,0,64.73235,97.79706"><defs><radialGradient cx="309.00606" cy="161.8625" r="47.89853" gradientUnits="userSpaceOnUse" id="color-1"><stop offset="0" stop-color="#c27d5a"/><stop offset="1" stop-color="#bd5a39"/></radialGradient><linearGradient x1="340.92144" y1="151.59053" x2="340.92144" y2="155.48729" gradientUnits="userSpaceOnUse" id="color-2"><stop offset="0" stop-color="#082908"/><stop offset="1" stop-color="#184208"/></linearGradient><radialGradient cx="341.4699" cy="160.51831" r="3.54545" gradientUnits="userSpaceOnUse" id="color-3"><stop offset="0" stop-color="#42d663"/><stop offset="1" stop-color="#216310"/></radialGradient><radialGradient cx="342.68344" cy="166.51458" r="4.4" gradientUnits="userSpaceOnUse" id="color-4"><stop offset="0" stop-color="#84ffff"/><stop offset="1" stop-color="#39c6ef"/></radialGradient><radialGradient cx="342.7026" cy="174.44712" r="4.39226" gradientUnits="userSpaceOnUse" id="color-5"><stop offset="0" stop-color="#efdeff"/><stop offset="1" stop-color="#ce5ade"/></radialGradient><linearGradient x1="338.22713" y1="182.53045" x2="347.11153" y2="182.53045" gradientUnits="userSpaceOnUse" id="color-6"><stop offset="0" stop-color="#a5ffff"/><stop offset="1" stop-color="#18b5ad"/></linearGradient><radialGradient cx="342.3334" cy="189.66406" r="4.49226" gradientUnits="userSpaceOnUse" id="color-7"><stop offset="0" stop-color="#e7ffff"/><stop offset="1" stop-color="#63bd18"/></radialGradient><radialGradient cx="342.41863" cy="197.75568" r="4.49226" gradientUnits="userSpaceOnUse" id="color-8"><stop offset="0" stop-color="#c66b18"/><stop offset="1" stop-color="#b58b64"/></radialGradient><linearGradient x1="342.77924" y1="203.44508" x2="342.77924" y2="207.51174" gradientUnits="userSpaceOnUse" id="color-9"><stop offset="0" stop-color="#292121"/><stop offset="1" stop-color="#5a525a"/></linearGradient></defs><g transform="translate(-287.63383,-131.10147)"><g data-paper-data="{&quot;isPaintingLayer&quot;:true}" fill-rule="nonzero" stroke-linejoin="miter" stroke-miterlimit="10" stroke-dasharray="" stroke-dashoffset="0" style="mix-blend-mode: normal"><path d="M288.63383,227.89853v-95.79706h62.73235v95.79706z" fill="url(#color-1)" stroke="#000000" stroke-width="2" stroke-linecap="butt"/><path d="M288.6466,227.41323v-1.45882h62.95882v1.45882z" fill="#081008" stroke="none" stroke-width="0" stroke-linecap="butt"/><path d="M311.03999,214.87253v-12.1366h16.18214v12.1366z" fill="#292929" stroke="#000000" stroke-width="2" stroke-linecap="butt"/><path d="M311.84909,213.92858v-7.28196h14.42907v7.28196z" fill="#080000" stroke="none" stroke-width="0" stroke-linecap="butt"/><path d="M335.75256,211.22845v-64.31765h13.81471v64.31765z" fill="#101010" stroke="none" stroke-width="0" stroke-linecap="butt"/><path d="M338.42766,155.48729v-3.89676h4.98785v3.89676z" fill="url(#color-2)" stroke="#000000" stroke-width="1" stroke-linecap="butt"/><path d="M336.9243,162.10922v-5.54545h10.72727v5.54545z" fill="#101018" stroke="none" stroke-width="0" stroke-linecap="butt"/><path d="M337.9243,159.10922v-2.27273h7v2.27273z" fill="#106321" stroke="none" stroke-width="0" stroke-linecap="butt"/><path d="M346.06067,158.01831c0,-0.27614 0.22386,-0.5 0.5,-0.5c0.27614,0 0.5,0.22386 0.5,0.5c0,0.27614 -0.22386,0.5 -0.5,0.5c-0.27614,0 -0.5,-0.22386 -0.5,-0.5z" fill="#941018" stroke="none" stroke-width="0.5" stroke-linecap="butt"/><path d="M337.9243,161.10922v-1.18182h7.09091v1.18182z" fill="url(#color-3)" stroke="none" stroke-width="0" stroke-linecap="butt"/><path d="M338.28345,164.03125v-1.14615h8.8v1.14615z" fill="#ffffff" stroke="none" stroke-width="0" stroke-linecap="butt"/><path d="M338.28345,169.16458v-5.3h8.8v5.3z" fill="url(#color-4)" stroke="none" stroke-width="0" stroke-linecap="butt"/><path d="M340.33649,168.05906c0.09285,0.23212 -0.13927,0.32497 -0.13927,0.32497l-0.30118,0.10121c-1.5109,-0.01283 -1.30584,-2.34019 0,-2.375c0,0 0.25,0 0.25,0.25c0,0.25 -0.25,0.25 -0.25,0.25c-0.63186,-0.02848 -0.89252,1.38502 0,1.375l0.11549,-0.06545c0,0 0.23212,-0.09285 0.32497,0.13927z" fill="#ef5a94" stroke="none" stroke-width="0.5" stroke-linecap="butt"/><path d="M341.71397,166.91511c0.1118,-0.22361 0.33541,-0.1118 0.33541,-0.1118l0.25008,0.15077c0.72854,1.04375 -1.03271,1.92974 -1.68798,1.09637c-0.53673,-0.68262 0.32275,-1.84138 1.03386,-1.77012c0,0 0.2466,0.0411 0.2055,0.2877c-0.0411,0.2466 -0.2877,0.2055 -0.2877,0.2055c-0.32905,-0.11009 -0.75151,0.70892 -0.54947,0.97988c0.22948,0.30775 1.34998,-0.06952 0.89535,-0.48697l-0.08325,-0.0159c0,0 -0.22361,-0.1118 -0.1118,-0.33541z" fill="#ef5a94" stroke="none" stroke-width="0.5" stroke-linecap="butt"/><path d="M343.22561,168.19962c-0.21437,-0.12862 -0.08575,-0.343 -0.08575,-0.343l0.09899,-0.14839c0.28453,-0.98425 -0.14307,-2.11232 0.30844,-3.04312c0,0 0.1118,-0.22361 0.33541,-0.1118c0.22361,0.1118 0.1118,0.33541 0.1118,0.33541c-0.43636,0.83789 -0.01472,2.03685 -0.27489,2.95688l-0.15101,0.26828c0,0 -0.12862,0.21437 -0.343,0.08575z" fill="#ef5a94" stroke="none" stroke-width="0.5" stroke-linecap="butt"/><path d="M346.21478,168.72557c-0.24032,0.06888 -0.30921,-0.17144 -0.30921,-0.17144l-0.03034,-0.10584c-0.04249,-0.14902 -0.08112,-0.30267 -0.10026,-0.45734l-0.02477,0.01126l-0.02228,-0.04902c-1.5134,1.32765 -1.87931,-1.93174 -0.04093,-1.63121c0,0 0.2466,0.0411 0.2055,0.2877c-0.0411,0.2466 -0.2877,0.2055 -0.2877,0.2055c-0.8491,-0.14471 -0.98987,1.55133 -0.16889,0.73936l0.10896,-0.21792c0.04009,-0.08456 0.12623,-0.14304 0.22603,-0.14304c0.10318,0 0.19175,0.0625 0.22994,0.15171l0.20456,0.45003l-0.04691,0.02132c0.08039,0.15909 0.14836,0.32362 0.19741,0.49389l0.03034,0.10584c0,0 0.06888,0.24032 -0.17144,0.30921z" fill="#ef5a94" stroke="none" stroke-width="0.5" stroke-linecap="butt"/><path d="M338.21039,172.02404v-1.07692h8.84835v1.07692z" fill="#ffffff" stroke="none" stroke-width="0" stroke-linecap="butt"/><path d="M338.31046,177.10096v-5.30769h8.78452v5.30769z" fill="url(#color-5)" stroke="none" stroke-width="0" stroke-linecap="butt"/><path d="M346.33014,174.16957c-0.0411,0.2466 -0.2877,0.2055 -0.2877,0.2055l-0.31286,-0.053c-1.12435,-0.00252 -2.74248,-0.56215 -3.83994,-0.12475c-1.42542,0.56811 -1.44754,1.13854 -3.13486,0.78701c0,0 -0.24475,-0.05099 -0.19376,-0.29574c0.05099,-0.24474 0.29573,-0.19375 0.29573,-0.19375c1.75112,0.36481 1.64729,-0.67503 3.26173,-0.83774c1.23343,-0.12431 2.44378,0.16951 3.65235,0.16667l0.35381,0.05811c0,0 0.2466,0.04109 0.2055,0.28769z" fill="#ef5a94" stroke="none" stroke-width="0.5" stroke-linecap="butt"/><path d="M346.33353,175.12847c0,0.25 -0.25,0.25 -0.25,0.25h-0.11111c-0.57779,0 -1.14284,-0.05556 -1.72222,-0.05556c-1.93468,0 -3.53981,1.05556 -5.44444,1.05556c0,0 -0.25,0 -0.25,-0.25c0,-0.25 0.25,-0.25 0.25,-0.25c1.89206,0 3.5059,-1.05556 5.44444,-1.05556c0.5793,0 1.14495,0.05556 1.72222,0.05556h0.11111c0,0 0.25,0 0.25,0.25z" fill="#ef5a94" stroke="none" stroke-width="0.5" stroke-linecap="butt"/><path d="M338.22713,180.10737v-1.07692h8.84835v1.07692z" fill="#ffffff" stroke="none" stroke-width="0" stroke-linecap="butt"/><path d="M338.22713,185.18429v-5.30769h8.88452v5.30769z" fill="url(#color-6)" stroke="none" stroke-width="0" stroke-linecap="butt"/><path d="M342.6618,182.96706c0,0.25 -0.25,0.25 -0.25,0.25l-0.29335,-0.00085c-0.52609,-0.1038 -0.61995,-0.25143 -0.77242,-0.75993c-0.00961,-1.22224 1.59165,-2.51336 2.07942,-0.82868c0.22319,0.77086 -0.20713,1.67074 -0.31162,2.42027c0,0 -0.03536,0.24749 -0.28284,0.21213c-0.24749,-0.03536 -0.21213,-0.28284 -0.21213,-0.28284c0.09986,-0.68462 0.49464,-1.51106 0.32474,-2.21609c-0.26164,-1.08574 -1.09628,0.02302 -1.1024,0.62586c0.06853,0.2635 0.05244,0.30333 0.31849,0.33098l0.25211,-0.00085c0,0 0.25,0 0.25,0.25z" fill="#a86fde" stroke="none" stroke-width="0.5" stroke-linecap="butt"/><path d="M338.12702,192.98429v-6.20769h8.98452v6.20769z" fill="url(#color-7)" stroke="none" stroke-width="0" stroke-linecap="butt"/><path d="M338.12702,200.98429v-6.20769h8.98452v6.20769z" fill="url(#color-8)" stroke="none" stroke-width="0" stroke-linecap="butt"/><path d="M339.74576,207.51174v-4.06667h6.06667v4.06667z" fill="url(#color-9)" stroke="#000000" stroke-width="1" stroke-linecap="butt"/><path d="M342.16863,205.39299c0,-0.27614 0.22386,-0.5 0.5,-0.5c0.27614,0 0.5,0.22386 0.5,0.5c0,0.27614 -0.22386,0.5 -0.5,0.5c-0.27614,0 -0.5,-0.22386 -0.5,-0.5z" fill="#4a104a" stroke="none" stroke-width="0.5" stroke-linecap="butt"/><path d="M306.78173,152.54353c-0.15812,-0.47434 0.31623,-0.63245 0.31623,-0.63245l0.5,-0.16667c0.61074,-0.092 0.40549,-1.97513 -0.07782,-2.25149c-0.58042,-0.33189 -1.97152,0.48553 -2.5012,0.65115c-2.72008,2.72009 -9.64085,-0.89994 -4.87355,-4.17468c0,0 0.41602,-0.27735 0.69338,0.13868c0.27735,0.41602 -0.13867,0.69338 -0.13867,0.69338c-3.79854,2.42776 1.99358,4.29152 3.79312,2.49198c0.84423,-0.29608 2.54125,-1.26479 3.49879,-0.68218c1.36606,0.83118 1.26241,3.52788 -0.07781,4.08185l-0.5,0.16667c0,0 -0.47434,0.15811 -0.63245,-0.31623z" fill="#ffffff" stroke="none" stroke-width="0.5" stroke-linecap="butt"/><path d="M304.75606,155.21875c0,-0.04174 0.00349,-0.08 0.00988,-0.11506c-0.69923,-0.43645 -4.18401,-1.33703 -4.82299,-0.69806c-0.95225,0.95226 0.38614,2.98448 1.17112,3.35118c1.50162,0.49627 4.32274,1.91056 5.95065,1.33334c1.58591,-0.56233 -0.75829,-2.92238 -1.36167,-3.08891c-0.18589,-0.12215 -0.37179,-0.24431 -0.55768,-0.36647l0.11068,0.08398c0,0 -0.5,0 -0.5,-0.5zM305.59477,154.78281l0.10531,0.01991c0.14744,0.10007 0.29488,0.20013 0.44232,0.3002c1.54872,0.57954 3.75921,3.77473 1.305,4.9111c-1.77666,0.82264 -5.04597,-0.7725 -6.71602,-1.33334c-1.3066,-0.68137 -2.9916,-3.4861 -1.49554,-4.98216c1.11985,-1.11986 5.08261,-0.05193 6.1309,0.6042c0,0 0.2779,0.18527 0.22803,0.48009z" fill="#ffffff" stroke="none" stroke-width="0.5" stroke-linecap="butt"/><path d="M313.03664,170.60903c-0.22361,0.44721 -0.67082,0.2236 -0.67082,0.2236l-0.26784,-0.13954c-1.98191,-0.66064 -3.74324,-1.8815 -5.66667,-2.5c-1.45673,-0.48558 -2.91398,-1.06155 -4.42198,-1.31413c-0.17411,-0.02917 -1.39781,-0.12327 -1.47907,0.07572c-0.18842,0.46139 0.05916,1.72361 0.05916,2.26407c0,0 0,0.5 -0.5,0.5c-0.5,0 -0.5,-0.5 -0.5,-0.5c0,-0.61497 -0.27273,-2.22675 0.05916,-2.73593c0.22055,-0.33836 0.57072,-0.53388 1.00218,-0.6259c-1.03366,-1.76731 -2.10177,-5.20907 1.33308,-4.8011c1.28544,0.15267 3.19996,1.43347 4.25047,2.18438c1.73539,0.11072 1.68845,2.84912 1.68845,4.14521v0.16667c0,0 0,0.06761 -0.02486,0.1531c1.49146,0.66244 2.94686,1.51607 4.51631,2.03922l0.39882,0.1938c0,0 0.44722,0.2236 0.22361,0.67082zM306.74751,167.24441c0.05863,0.02049 0.11714,0.04146 0.17557,0.06289c0.00664,-0.84504 0.09413,-3.20891 -0.97857,-3.11c-1.75451,-1.1072 -7.18042,-3.81003 -4.74555,0.45607c0.17606,0.30847 0.27368,0.66082 0.47313,0.9547c0,0 0.05579,0.08369 0.0798,0.20101c1.7753,0.14294 4.0568,1.12239 4.99563,1.43533z" fill="#ffffff" stroke="none" stroke-width="0.5" stroke-linecap="butt"/><path d="M301.51466,174.34755c0.47694,-0.14103 1.02139,-0.02412 1.59495,0.51764c1.36293,1.28736 1.75623,2.15789 3.91052,2.74605c1.07079,-2.40862 -2.50223,-4.22261 -4.08885,-4.75149c-0.52805,-0.17602 -2.51664,-0.48242 -2.34188,-0.30767c0,0.74956 -0.27669,1.32185 0.55301,1.55084zM300.62214,174.96963c-1.142,-0.46562 -1.03271,-1.28724 -1.03271,-2.41754c0.23553,-1.37276 1.97447,-1.19475 3.15811,-0.80768c2.51326,0.82189 7.11861,3.46755 4.74448,6.74851c-2.50309,0.17404 -3.77173,-1.31834 -5.08948,-2.92061c-0.22118,-0.26894 -0.42339,-0.36854 -0.60456,-0.35435c-0.10888,0.13235 -0.23364,0.17313 -0.34471,0.17404c-0.44691,0.42858 -0.69718,1.51676 -0.69718,1.82676c0,0 0,0.5 -0.5,0.5c-0.5,0 -0.5,-0.5 -0.5,-0.5c0,-0.69803 0.32994,-1.62694 0.86605,-2.24912z" fill="#ffffff" stroke="none" stroke-width="0.5" stroke-linecap="butt"/><path d="M321.75192,152.72083c-0.33541,-0.67082 0.33541,-1.00623 0.33541,-1.00623l0.3902,-0.19221c0.57101,-0.12438 0.86341,-1.07364 0.46971,-1.55696c-0.06626,-0.08134 -2.53966,0.9723 -2.78393,0.99967c-2.94816,0.33045 -6.78523,-0.66316 -4.71702,-4.29889c0,0 0.38587,-0.64312 1.02899,-0.25725c0.64312,0.38587 0.25725,1.02899 0.25725,1.02899c-2.31643,3.56922 4.73275,1.22162 5.78298,1.20111c0.46414,-0.00906 1.01877,-0.12183 1.38273,0.16635c1.52383,1.20654 0.33263,3.5281 -0.86361,4.1097l-0.27646,0.14112c0,0 -0.67082,0.33541 -1.00623,-0.33541z" fill="#ffffff" stroke="none" stroke-width="0.5" stroke-linecap="butt"/><path d="M320.65349,155.66465c-0.5378,-0.33032 -0.86706,-0.59229 -1.51756,-0.70558c-6.6182,-1.15265 1.53749,6.86579 3.60213,3.62022c0.20261,-1.15995 -0.07928,-1.9124 -1.26053,-2.33085l-0.63749,-0.40565c0,0 -0.09527,-0.06352 -0.18655,-0.17814zM321.70153,154.61591l0.33308,0.23981c2.00676,0.86226 2.51562,2.26939 2.07281,4.33582c-1.99724,2.5323 -8.18148,0.98193 -9.07414,-2.27259c-0.79114,-2.88441 2.11691,-3.85731 4.34292,-3.44052c0.99606,0.1865 1.27862,0.44299 2.09906,0.93053c0,0 0.12079,0.07247 0.22626,0.20695z" fill="#ffffff" stroke="none" stroke-width="0.5" stroke-linecap="butt"/><path d="M330.83941,171.38542c0,0.75 -0.75,0.75 -0.75,0.75l-0.44521,-0.05364c-1.99828,-0.79945 -4.38041,-1.52756 -6.24903,-2.5389c-0.98522,-0.53323 -1.69031,-1.38047 -2.78618,-1.58868c-1.99043,-0.37818 -3.54186,-1.46642 -3.95081,0.57832c0,0 -0.14709,0.73543 -0.88252,0.58835c-0.73543,-0.14709 -0.58835,-0.88252 -0.58835,-0.88252c0.22393,-1.11962 0.6196,-1.77949 1.22686,-2.11821c-0.57477,-0.10663 -0.57476,-0.7347 -0.57476,-0.7347c0.07033,-1.0894 -1.36635,-2.61652 -0.05883,-3.74667c2.57198,-2.22305 7.57785,2.88049 8.02774,5.03296l0.31078,0.7685c0,0 0.05463,0.13657 0.05502,0.31294c2.04314,0.98977 4.06171,2.14988 6.02717,2.93592l-0.11187,-0.05365c0,0 0.75,0 0.75,0.75zM319.23123,165.98228c1.0326,0.18383 2.06477,0.51941 3.09293,0.93861c-0.50471,-1.56966 -3.91312,-5.16324 -5.5926,-4.12214c-0.12532,0.07769 0.60064,2.38642 0.60784,2.58666c0,0 0,0.26772 -0.15995,0.48325c0.55932,-0.08683 1.23816,-0.03123 2.05178,0.11362z" fill="#ffffff" stroke="none" stroke-width="0.5" stroke-linecap="butt"/><path d="M316.67274,177.05209c0,0.41422 -0.33578,0.75 -0.75,0.75c-0.39468,0 -0.71816,-0.30487 -0.74779,-0.69196c-0.1534,-0.04745 -0.30795,-0.15915 -0.42303,-0.38931c-0.33541,-0.67082 0.33541,-1.00623 0.33541,-1.00623l0.84408,-0.34747c-0.51292,-0.6867 -0.8909,-1.41434 -1.06479,-2.11484c-0.71073,-2.86311 2.36539,-2.62097 4.02892,-1.88488c0.75543,0.33426 1.64049,0.92272 2.31053,1.41801c0,0 0.01353,0.01014 0.03499,0.02941c0.17583,0.04537 0.29835,0.13726 0.29835,0.13726l0.70807,0.53341c1.4914,1.52675 1.73815,3.26755 0.46481,4.99521c-1.59677,0.63414 -3.67805,-0.19412 -5.31081,-1.56602c-0.25298,-0.0445 -0.50874,-0.07618 -0.76524,-0.09439c0.0237,0.07299 0.03651,0.1509 0.03651,0.2318zM320.60441,174.12268c-0.17583,-0.04537 -0.29835,-0.13726 -0.29835,-0.13726c-0.4285,-0.32731 -0.94653,-0.51684 -1.41744,-0.77951c-5.76759,-3.21708 0.50707,5.0647 2.91123,4.08423c0.66332,-0.83639 0.13834,-2.02198 -0.53519,-2.67146l-0.62527,-0.46659c0,0 -0.01353,-0.01014 -0.03499,-0.02941z" fill="#ffffff" stroke="none" stroke-width="0.5" stroke-linecap="butt"/><path d="M289.80607,136.2625v-2.4h60.2v2.4z" fill="#ffffff" stroke="none" stroke-width="0" stroke-linecap="butt"/><path d="M289.80607,138.0625v-0.8h60.2v0.8z" fill="#ffffff" stroke="none" stroke-width="0" stroke-linecap="butt"/><path d="M290.00606,142.0625v-1h60v1z" fill="#ffffff" stroke="none" stroke-width="0" stroke-linecap="butt"/><path d="M290.00606,139.8625v-0.8h59.8v0.8z" fill="#ffffff" stroke="none" stroke-width="0" stroke-linecap="butt"/><text transform="translate(299.8497,194.57499) scale(0.35879,0.35879)" font-size="40" xml:space="preserve" fill="#ffffff" fill-rule="nonzero" stroke="none" stroke-width="1" stroke-linecap="butt" stroke-linejoin="miter" stroke-miterlimit="10" stroke-dasharray="" stroke-dashoffset="0" font-family="Sans Serif" font-weight="normal" text-anchor="start" style="mix-blend-mode: normal"><tspan x="0" dy="0">pop</tspan></text><path d="M293.20606,145.6625v72" fill="none" stroke="#ffffff" stroke-width="1" stroke-linecap="round"/><path d="M290.65608,219.7625h58.75" fill="none" stroke="#ffffff" stroke-width="1" stroke-linecap="round"/><path d="M293.40608,221.2625v2.8" fill="none" stroke="#ffffff" stroke-width="1" stroke-linecap="round"/><path d="M337.45606,148.2625c0,-0.41421 0.33579,-0.75 0.75,-0.75c0.41421,0 0.75,0.33579 0.75,0.75c0,0.41421 -0.33579,0.75 -0.75,0.75c-0.41421,0 -0.75,-0.33579 -0.75,-0.75z" fill="#329e3b" stroke="none" stroke-width="0.5" stroke-linecap="butt"/></g></g></svg>