<svg version="1.1" xmlns="http://www.w3.org/2000/svg" xmlns:xlink="http://www.w3.org/1999/xlink" width="22.52105" height="14.43501" viewBox="0,0,22.52105,14.43501"><g transform="translate(-308.83609,-177.94832)"><g data-paper-data="{&quot;isPaintingLayer&quot;:true}" fill-rule="nonzero" stroke-linejoin="miter" stroke-miterlimit="10" stroke-dasharray="" stroke-dashoffset="0" style="mix-blend-mode: normal"><path d="M317.825,186.01563l4.9,0.25l-0.6,-1l0.55789,-3.23158l-1.15526,0.00263l-0.35263,3.07895l-3.25,-0.15z" fill="#434343" stroke="#000000" stroke-width="0.5" stroke-linecap="round"/><path d="M318.40385,183.76202l1.15384,1.11539l-0.65384,-1.96154" fill="#434343" stroke="#000000" stroke-width="0.25" stroke-linecap="round"/><path d="M309.67857,178.2009l-0.21428,3.92857l2,1.78571l-2.35714,6.42857l0.85714,1.78572l5.85715,-0.14286l1.71428,-2.14285l0.28572,-5.14285l1.07142,-2.21429h12.21429v-4.14285z" fill="#434343" stroke="#000000" stroke-width="0.5" stroke-linecap="round"/><path d="M310.725,191.11563h3.95" fill="none" stroke="#242424" stroke-width="0.5" stroke-linecap="round"/><path d="M310.7829,178.46826v2.63461" fill="none" stroke="#000000" stroke-width="0.5" stroke-linecap="round"/><path d="M311.825,178.41563v2.75" fill="none" stroke="#000000" stroke-width="0.5" stroke-linecap="round"/><path d="M312.925,178.31563l-0.05,2.70769" fill="none" stroke="#000000" stroke-width="0.5" stroke-linecap="round"/><path d="M313.75131,181.07396v-2.65833l1.82764,1.21925h8.47368v-1.15789" fill="none" stroke="#000000" stroke-width="0.5" stroke-linecap="round"/><path d="M309.68421,181.16119h21.05263" fill="none" stroke="#000000" stroke-width="0.5" stroke-linecap="round"/><path d="M318.78948,178.37171v1.21052" fill="none" stroke="#000000" stroke-width="0.5" stroke-linecap="round"/><path d="M313.89474,180.89803v-0.47368h12.35196v0.47368z" fill="#818181" stroke="#000000" stroke-width="0.5" stroke-linecap="butt"/><path d="M326.26316,180.31908v-0.73685h4.57894" fill="none" stroke="#000000" stroke-width="0.5" stroke-linecap="round"/><path d="M315.57895,185.42434h-0.78948v-1h2.05263" fill="none" stroke="#242424" stroke-width="0.25" stroke-linecap="round"/><path d="M311.48077,182.37741h5.65384" fill="none" stroke="#000000" stroke-width="0.5" stroke-linecap="round"/></g></g></svg>