<svg version="1.1" xmlns="http://www.w3.org/2000/svg" xmlns:xlink="http://www.w3.org/1999/xlink" width="8.75527" height="15.55715" viewBox="0,0,8.75527,15.55715"><defs><linearGradient x1="339.64789" y1="170.03773" x2="339.64789" y2="185.09488" gradientUnits="userSpaceOnUse" id="color-1"><stop offset="0" stop-color="#39c6ef"/><stop offset="1" stop-color="#c45ac0"/></linearGradient><linearGradient x1="336.87175" y1="174.60482" x2="336.87175" y2="176.81608" gradientUnits="userSpaceOnUse" id="color-2"><stop offset="0" stop-color="#ef5a94"/><stop offset="1" stop-color="#975aef"/></linearGradient><linearGradient x1="338.60334" y1="174.76027" x2="338.60334" y2="176.71846" gradientUnits="userSpaceOnUse" id="color-3"><stop offset="0" stop-color="#ef5a94"/><stop offset="1" stop-color="#975aef"/></linearGradient><linearGradient x1="340.56211" y1="173.12609" x2="340.56211" y2="176.58842" gradientUnits="userSpaceOnUse" id="color-4"><stop offset="0" stop-color="#ef5a94"/><stop offset="1" stop-color="#975aef"/></linearGradient><linearGradient x1="342.29259" y1="174.78363" x2="342.29259" y2="177.05139" gradientUnits="userSpaceOnUse" id="color-5"><stop offset="0" stop-color="#ef5a94"/><stop offset="1" stop-color="#975aef"/></linearGradient><linearGradient x1="339.6514" y1="171.93117" x2="339.6514" y2="172.47662" gradientUnits="userSpaceOnUse" id="color-6"><stop offset="0" stop-color="#000000"/><stop offset="1" stop-color="#000000" stop-opacity="0"/></linearGradient><linearGradient x1="339.6514" y1="174.65844" x2="339.6514" y2="175.20389" gradientUnits="userSpaceOnUse" id="color-7"><stop offset="0" stop-color="#000000"/><stop offset="1" stop-color="#000000" stop-opacity="0"/></linearGradient><linearGradient x1="339.6514" y1="177.38572" x2="339.6514" y2="177.93117" gradientUnits="userSpaceOnUse" id="color-8"><stop offset="0" stop-color="#000000"/><stop offset="1" stop-color="#000000" stop-opacity="0"/></linearGradient><linearGradient x1="339.6514" y1="180.11299" x2="339.6514" y2="180.65844" gradientUnits="userSpaceOnUse" id="color-9"><stop offset="0" stop-color="#000000"/><stop offset="1" stop-color="#000000" stop-opacity="0"/></linearGradient><linearGradient x1="339.6514" y1="182.84026" x2="339.6514" y2="183.38571" gradientUnits="userSpaceOnUse" id="color-10"><stop offset="0" stop-color="#000000"/><stop offset="1" stop-color="#000000" stop-opacity="0"/></linearGradient></defs><g transform="translate(-335.27024,-169.78772)"><g data-paper-data="{&quot;isPaintingLayer&quot;:true}" fill-rule="nonzero" stroke-linecap="butt" stroke-linejoin="miter" stroke-miterlimit="10" stroke-dasharray="" stroke-dashoffset="0" style="mix-blend-mode: normal"><path d="M335.52025,185.09488v-15.05715h8.25527v15.05715z" fill="url(#color-1)" stroke="#000000" stroke-width="0.5"/><path d="M337.55896,176.41928c0.08645,0.21612 -0.12966,0.30256 -0.12966,0.30256l-0.28042,0.09424c-1.40673,-0.01194 -1.2158,-2.17885 0,-2.21126c0,0 0.23276,0 0.23276,0.23277c0,0.23277 -0.23276,0.23277 -0.23276,0.23277c-0.5883,-0.02651 -0.83098,1.28953 0,1.2802l0.10752,-0.06094c0,0 0.21612,-0.08645 0.30257,0.12966z" fill="url(#color-2)" stroke="none" stroke-width="0.5"/><path d="M338.84147,175.3542c0.10409,-0.20819 0.31228,-0.1041 0.31228,-0.1041l0.23284,0.14038c0.67831,0.97179 -0.96151,1.79669 -1.5716,1.02078c-0.49973,-0.63556 0.3005,-1.71442 0.96258,-1.64808c0,0 0.2296,0.03826 0.19133,0.26787c-0.03827,0.2296 -0.26786,0.19133 -0.26786,0.19133c-0.30637,-0.1025 -0.6997,0.66004 -0.51159,0.91232c0.21366,0.28653 1.25691,-0.06473 0.83362,-0.4534l-0.07751,-0.0148c0,0 -0.20819,-0.10409 -0.10409,-0.31229z" fill="url(#color-3)" stroke="none" stroke-width="0.5"/><path d="M340.24889,176.55015c-0.19959,-0.11975 -0.07983,-0.31935 -0.07983,-0.31935l0.09216,-0.13816c0.26491,-0.91639 -0.13321,-1.96668 0.28717,-2.8333c0,0 0.10409,-0.20819 0.31229,-0.1041c0.20819,0.10409 0.10409,0.31229 0.10409,0.31229c-0.40627,0.78012 -0.01371,1.89642 -0.25594,2.75302l-0.1406,0.24978c0,0 -0.11975,0.19959 -0.31935,0.07984z" fill="url(#color-4)" stroke="none" stroke-width="0.5"/><path d="M343.03196,177.03984c-0.22375,0.06413 -0.28789,-0.15962 -0.28789,-0.15962l-0.02825,-0.09855c-0.03956,-0.13875 -0.07553,-0.2818 -0.09334,-0.42581l-0.02306,0.01048l-0.02075,-0.04564c-1.40906,1.23612 -1.74974,-1.79855 -0.03811,-1.51874c0,0 0.2296,0.03826 0.19133,0.26786c-0.03827,0.2296 -0.26786,0.19133 -0.26786,0.19133c-0.79055,-0.13474 -0.92162,1.44437 -0.15724,0.68838l0.10145,-0.2029c0.03733,-0.07873 0.11753,-0.13317 0.21044,-0.13317c0.09607,0 0.17854,0.05819 0.21409,0.14125l0.19045,0.419l-0.04368,0.01985c0.07484,0.14812 0.13813,0.30131 0.1838,0.45984l0.02825,0.09854c0,0 0.06413,0.22375 -0.15962,0.28789z" fill="url(#color-5)" stroke="none" stroke-width="0.5"/><path d="M341.93263,177.01401c0,0.25 -0.25,0.25 -0.25,0.25l-0.26605,-0.00122c-0.66381,0.13276 -1.38372,0.05935 -2.05939,0.05935c0,0 -0.25,0 -0.25,-0.25c0,-0.25 0.25,-0.25 0.25,-0.25c0.65979,0 1.36194,0.07272 2.01012,-0.05692l0.31531,-0.00122c0,0 0.25,0 0.25,0.25z" fill="#5bf068" stroke="none" stroke-width="0.5"/><path d="M343.15348,177.88605c0,0.25 -0.25,0.25 -0.25,0.25c-0.83328,0 -1.95724,0 -2.79052,0c0,0 -0.25,0 -0.25,-0.25c0,-0.25 0.25,-0.25 0.25,-0.25c0.83328,0 1.66656,0 2.49984,0h0.29068c0,0 0.25,0 0.25,0.25z" fill="#5bf068" stroke="none" stroke-width="0.5"/><path d="M336.36649,178.21877c0,-0.70959 0.57524,-1.28484 1.28483,-1.28484c0.70959,0 1.28484,0.57524 1.28484,1.28484c0,0.70959 -0.57524,1.28483 -1.28484,1.28483c-0.70959,0 -1.28483,-0.57524 -1.28483,-1.28483z" fill="#f0ce5b" stroke="#000000" stroke-width="0"/><path d="M335.76503,172.47662v-0.54545h7.77273v0.54545z" fill="url(#color-6)" stroke="none" stroke-width="0"/><path d="M335.76504,175.20389v-0.54545h7.77272v0.54545z" fill="url(#color-7)" stroke="none" stroke-width="0"/><path d="M335.76504,177.93117v-0.54545h7.77272v0.54545z" fill="url(#color-8)" stroke="none" stroke-width="0"/><path d="M335.76504,180.65844v-0.54545h7.77272v0.54545z" fill="url(#color-9)" stroke="none" stroke-width="0"/><path d="M335.76504,183.38571v-0.54545h7.77272v0.54545z" fill="url(#color-10)" stroke="none" stroke-width="0"/></g></g></svg>