<svg version="1.1" xmlns="http://www.w3.org/2000/svg" xmlns:xlink="http://www.w3.org/1999/xlink" width="147.17533" height="182.44895" viewBox="0,0,147.17533,182.44895"><defs><linearGradient x1="302.11111" y1="121.71528" x2="389.77778" y2="121.71528" gradientUnits="userSpaceOnUse" id="color-1"><stop offset="0" stop-color="#ff0000" stop-opacity="0.25882"/><stop offset="1" stop-color="#ff0000" stop-opacity="0"/></linearGradient></defs><g transform="translate(-264.02455,-90.74824)"><g data-paper-data="{&quot;isPaintingLayer&quot;:true}" fill-rule="nonzero" stroke-linejoin="miter" stroke-miterlimit="10" stroke-dasharray="" stroke-dashoffset="0" style="mix-blend-mode: normal"><path d="M343.62658,239.49745c0.68574,-2.28898 -1.55678,-2.97442 -1.55678,-2.97442l-0.80624,-0.25915c-3.4853,-1.48075 -6.17918,-3.58836 -9.21673,-5.74238c-2.8307,-2.00734 -6.18107,-3.29859 -9.45179,-4.54692c-0.72963,-0.90522 -2.00311,-0.90449 -2.00311,-0.90449l-0.2105,0.05483c-0.17667,-0.06941 -0.35375,-0.13897 -0.52912,-0.20913c0,0 -2.32791,-0.92796 -3.25638,1.39323c-0.20986,0.52465 -0.25409,0.97815 -0.19624,1.36586c-2.00503,2.12669 -3.46197,4.58552 -5.21071,7.13615c-1.46499,2.13676 -3.63585,3.90681 -5.45289,5.72614c-2.02288,2.36542 -4.1636,4.52489 -6.40514,6.5463c-3.57615,-6.46165 -7.83274,-12.65284 -12.30402,-18.52247c1.52048,-1.12312 3.00544,-2.29187 4.47625,-3.44751c3.56699,-2.80264 7.61969,-5.23272 8.50222,-10.11389c0.85694,-4.7397 -1.44346,-9.00847 -1.89785,-13.44266c0.08763,-0.01906 0.17533,-0.03925 0.26313,-0.06033c1.06423,-0.25549 1.93385,-1.04463 2.95968,-1.42612c3.72176,-1.38405 9.53519,-2.05847 11.96355,-5.75432c1.95922,-2.98184 0.68275,-8.24903 -1.01065,-10.9075c-2.36496,-3.71273 -5.49169,-3.68274 -8.73579,-5.21875c-0.26346,-0.33228 -0.64949,-0.6309 -0.97106,-0.76618c-0.53189,-1.27049 -1.0545,-2.58924 -1.50621,-3.92075c0.3329,-4.76454 0.31529,-9.55478 -0.04899,-14.33295l0.008,-1.80849c0,0 0.03471,-2.40623 -2.46529,-2.40623l-0.00001,-0.00004c-1.21966,0 -1.84197,0.59406 -2.16188,1.20353c-1.36872,0.60877 -1.36665,2.28089 -1.36665,2.28089c0,3.70951 -0.59585,8.03498 0.03018,11.67651c0.2433,1.41526 0.61904,2.84425 1.07049,4.26319c-0.08077,0.92645 -0.17819,1.84613 -0.29878,2.76062c0.07626,0.04131 0.15172,0.08371 0.22663,0.12698c-0.114,0.78924 0.18481,1.48315 0.18481,1.48315c0.51003,1.03877 0.64946,2.21909 1.46146,3.0436c1.7786,1.80601 6.12962,3.03925 8.50223,3.65157l0.17138,0.67611c0,0 0.94345,0.93769 2.13788,0.76147c0.82764,1.64209 1.36785,3.73772 0.55373,4.91803c-0.88259,1.27956 -5.22253,2.46695 -6.59336,2.8941c-1.30491,0.40662 -2.53566,1.02033 -3.81295,1.50547c0.01698,-0.11001 0.03355,-0.21916 0.05017,-0.3292c-0.9289,0.66675 -1.97557,1.17296 -3.10444,1.49121c-0.49149,0.00235 -0.88549,0.10077 -1.20162,0.25875c-0.49483,0.07533 -1.00149,0.1137 -1.51737,0.1137c-1.65447,0 -3.31412,-0.41581 -4.68866,-1.12713c-1.04778,-0.54223 -1.98696,-1.26696 -2.77762,-2.12805c-3.07119,-4.73644 -0.82023,-9.71743 -0.79114,-15.44639c0,0 0.00081,-1.18051 -0.80924,-1.91917c0.02869,-0.73102 0.08198,-1.48476 0.16472,-2.28244c0.74031,-7.13686 1.94085,-14.13502 2.41972,-21.29973c0.20301,-3.03736 -0.00768,-5.8896 1.06482,-8.63034c1.3396,-0.90887 2.57027,-2.11149 3.14281,-2.99585c0.85288,-0.45002 1.73134,-0.8233 2.45859,-1.14753c1.54017,-0.68667 3.08087,-1.409 4.69793,-1.8873l1.4008,-0.65882c0,0 1.00281,-0.50111 1.33015,-1.50269c3.77026,-0.24964 1.49379,3.6565 4.1178,6.11053c1.22906,1.14945 4.15212,1.86548 6.98182,2.11312c0.77067,0.03397 1.54397,0.0664 2.31599,0.09674c1.35911,-0.00904 2.56663,-0.14502 3.37471,-0.41281c1.88892,-0.62599 4.95038,-3.25837 5.6612,-5.1308c0.36164,-0.95262 -0.05845,-1.93938 -0.15015,-2.95419c-0.00172,-0.01901 0.00499,-0.13809 0.00043,-0.15814c0.38338,0.21216 0.70661,0.28669 0.70661,0.28669c3.22048,0.7154 7.22688,1.96658 9.59021,4.43784c0.35018,1.56589 1.14993,3.2584 1.55615,4.98297c0.03776,7.34397 0.65922,14.67713 0.78503,22.03219l-0.02851,0.08127c0,0 -0.11455,0.57707 0.04632,1.22694c0.0031,0.35389 0.00559,0.70826 0.00603,1.06229c-0.42777,0.36749 -0.76569,0.94914 -0.76569,1.86888c0,2.5 2.50422,2.50303 2.50422,2.50303c0.32864,-0.00014 7.03943,-0.01962 7.53188,0.06335c0.95612,0.16108 0.17592,1.93646 0.34929,2.89043c0.61808,3.40103 1.95216,6.42587 1.35118,10.06276c-0.83545,5.05573 -7.08659,4.24264 -10.8374,4.04734c-0.90406,-0.04707 -3.44805,-0.20127 -4.36817,-0.87912c-0.84872,-0.62526 -2.78991,-3.95073 -3.13333,-4.49681c-1.12322,-1.13337 -2.68832,-1.96708 -3.31958,-3.43258c-0.85276,-1.97972 -0.12324,-5.65358 -0.49273,-7.77748c-1.22801,-7.05885 -0.40877,-14.36001 -1.30536,-21.53279l0.01943,-1.02323c0,0 0.00276,-2.4997 -2.49724,-2.4997c-2.5,0 -2.49762,2.50014 -2.49762,2.50014l0.02281,1.54348c0.90821,7.26563 0.07456,14.63562 1.35773,21.79913c0.50073,2.7954 -0.29197,6.24013 0.83978,8.88766c0.55779,1.30486 2.9549,3.51388 4.02028,4.5685c1.10427,1.77852 2.46119,4.28565 4.20646,5.51153c0.77974,0.54769 1.69652,0.88584 2.62384,1.15002c0.04176,0.42844 0.09008,0.86184 0.14208,1.29188c-0.09208,0.36933 -0.09166,0.64807 -0.09166,0.64807l0.26469,2.12512c2.43568,4.71637 5.96337,7.06124 10.61053,9.37515c2.80943,2.01674 5.76843,4.05935 8.78764,5.73885c1.92184,1.06906 5.65276,2.31167 7.02545,4.08037c0.37516,0.4834 -0.07665,1.23249 0.01649,1.83727c0.0172,0.11169 1.39371,5.59876 1.41951,5.6763c1.34114,4.03172 1.9265,8.22636 2.261,12.46033c-2.573,0.25365 -5.02249,0.67702 -6.89568,1.02423c-3.57125,0.66197 -7.1358,1.36091 -10.69396,2.09075c-0.07024,-0.88252 -0.14205,-1.76518 -0.2155,-2.64806c0,0 -0.01525,-0.18099 -0.08613,-0.44147z" data-paper-data="{&quot;noHover&quot;:false,&quot;origItem&quot;:[&quot;Path&quot;,{&quot;applyMatrix&quot;:true,&quot;segments&quot;:[[[687.48273,479.95977],[0,0],[1.03841,12.48111]],[[690.157,517.39765],[-0.77544,-12.49018],[0.22673,3.65209]],[[690.16667,528.375],[0.61364,-3.6073],[-0.13304,0.7821]],[[688.91506,530.39932],[-0.42663,-0.66885],[0.38542,0.60424]],[[690.81069,529.38466],[-0.70845,0.10844],[1.56383,-0.23938]],[[695.55683,529.38265],[-1.57916,0.09563],[5.80984,-0.35183]],[[713.01345,526.26776],[-5.56047,1.74053],[3.49597,-1.0943]],[[723.22535,522.20687],[-3.56204,0.85511],[2.25383,-0.54106]],[[729.81057,519.9736],[-1.48215,1.78207],[-0.13823,-2.23686]],[[727.2688,513.74918],[0.89176,2.05607],[-2.291,-5.28218]],[[724.17432,499.98484],[0.35619,5.64294],[-0.9737,-15.42604]],[[718.42831,453.97124],[4.90938,14.75851],[-0.05159,-0.15508]],[[715.58501,442.62643],[0.0344,0.22338],[-0.18628,-1.20955]],[[715.55049,438.95516],[0.75033,0.9668],[-2.74537,-3.5374]],[[701.49871,430.79648],[3.84368,2.13813],[-6.03841,-3.35899]],[[683.92097,419.32519],[5.61886,4.03349],[-9.29432,-4.62781]],[[662.69453,400.61107],[4.87137,9.43275],[0,0]],[662.16667,396.375],[[662.35081,395.08286],[-0.18415,0.73866],[-0.10399,-0.86008]],[[662.06882,392.5072],[0.08352,0.85687],[-1.85464,-0.52836]],[[656.82628,390.22026],[1.55948,1.09538],[-3.49054,-2.45176]],[[648.44632,379.23614],[2.20854,3.55704],[-2.13076,-2.10924]],[[640.43938,370.11436],[1.11558,2.60972],[-2.2635,-5.29508]],[[638.7714,352.34114],[1.00146,5.5908],[-2.56634,-14.32702]],[[636.0645,308.74356],[1.81642,14.53126],[0,0]],[636.02588,305.45672],[[641.02588,300.45672],[-5,0],[5,0]],[646.02588,305.45672],[[645.98728,307.50322],[0,0],[1.79318,14.34556]],[[648.61372,350.57232],[-2.45602,-14.1177],[0.73898,4.2478]],[[649.6124,366.13244],[-1.70552,-3.95944],[1.26252,2.931]],[[656.27212,373.01064],[-2.24644,-2.26674],[0.68684,1.09216]],[[662.55882,382.02652],[-1.69744,-1.25052],[1.84024,1.3557]],[[671.30238,383.79772],[-1.80812,-0.09414],[7.50164,0.3906]],[[692.79466,375.78474],[-1.6709,10.11146],[1.20196,-7.27378]],[[690.10612,355.68218],[1.23616,6.80206],[-0.34674,-1.90794]],[[689.41172,349.9062],[1.91224,0.32216],[-0.9849,-0.16594]],[[674.35922,349.79006],[0.65728,-0.00028],[0,0]],[[669.35922,344.79006],[0,5],[0,-1.83948]],[[670.89148,341.05286],[-0.85554,0.73498],[-0.00088,-0.70806]],[[670.88074,338.9291],[0.0062,0.70778],[-0.32174,-1.29974]],[670.78964,336.47614],[[670.8467,336.31362],[0,0],[-0.25162,-14.71012]],[[669.29532,292.2577],[0.07552,14.68794],[-0.81244,-3.44914]],[[666.18772,282.2932],[0.70036,3.13178],[-4.72666,-4.94252]],[[647.0232,273.42062],[6.44096,1.4308],[0,0]],[[645.6111,272.84736],[0.76676,0.42432],[0.00912,0.0401]],[[645.63016,272.96464],[-0.00344,-0.03802],[0.1834,2.02964]],[[645.9098,279.07196],[0.72328,-1.90524],[-1.42166,3.74486]],[[634.59642,289.33412],[3.77784,-1.25198],[-1.61616,0.5356]],[[627.85302,290.15966],[2.71822,-0.01808],[-1.54404,-0.06068]],[[623.22514,289.96592],[1.54134,0.06794],[-5.6594,-0.49528]],[[609.27286,285.73806],[2.45812,2.2989],[-5.248,-4.90808]],[[601.04144,273.51606],[7.54052,-0.49928],[-0.65468,2.00316]],[598.3836,276.5208],[[595.58426,277.83778],[0,0],[-3.23412,0.95662]],[[586.1958,281.60984],[3.08034,-1.37334],[-1.4545,0.64846]],[[581.28252,283.9033],[1.70576,-0.90004],[-1.14508,1.76872]],[[575.00276,289.89222],[2.6792,-1.81774],[-2.145,5.48148]],[[572.88072,307.14852],[0.40602,-6.07472],[-0.95774,14.32942]],[[568.06574,349.72614],[1.48062,-14.27372],[-0.16548,1.59538]],[[567.73914,354.28732],[0.05738,-1.46204],[1.62008,1.47732]],[[569.35922,358.1234],[0,0],[-0.05818,11.45792]],[[570.95706,388.97968],[-6.14238,-9.47288],[1.58132,1.72218]],[[576.51324,393.2305],[-2.09556,-1.08446],[2.74908,1.42264]],[[585.69254,395.45672],[-3.30894,0],[1.03175,0]],[[588.72746,395.22794],[-0.98966,0.15066],[0.63224,-0.31596]],[[591.13101,394.70842],[-0.98297,0.0047],[2.25773,-0.63651]],[[597.34226,391.71542],[-1.85779,1.33351],[-0.03324,0.22008]],[[597.24144,392.37556],[0.03396,-0.22002],[2.55458,-0.97028]],[[604.87264,389.3495],[-2.60982,0.81324],[2.74166,-0.85432]],[[618.08804,383.52394],[-1.76518,2.55912],[1.62824,-2.36062]],[[617.0923,373.85294],[1.65528,3.28418],[-2.38886,0.35244]],[612.82366,372.3256],[[612.47984,370.9741],[0,0],[-4.74522,-1.22464]],[[595.49032,363.65892],[3.5572,3.61202],[-1.624,-1.64902]],[[592.43012,357.42632],[1.02006,2.07754],[0,0]],[[592.06258,354.4582],[-0.228,1.57848],[-0.14982,-0.08654]],[[591.6091,354.20442],[0.15252,0.08262],[0.24118,-1.82898]],[[592.2114,348.67934],[-0.16154,1.8529],[-0.9029,-2.83788]],[[590.07418,340.15022],[0.4866,2.83052],[-1.25206,-7.28308]],[[590.02584,316.79004],[0,7.41902],[0,0]],[[592.76328,312.2263],[-2.73744,1.21754],[0.6398,-1.21894]],[[597.09166,309.81732],[-2.43932,0],[0,0]],[[597.09168,309.8174],[0,0],[5,0]],[602.09168,314.8174],[[602.07696,318.43392],[0,0],[0.72856,9.55634]],[[602.1892,347.09326],[0.6658,-9.52908],[0.90342,2.66302]],[[605.20354,354.93366],[-1.06378,-2.54098],[0.64314,0.27056]],[[607.0457,356.2928],[-0.52692,-0.66456],[6.4882,3.07202]],[[624.54372,366.71996],[-4.72992,-7.42546],[3.3868,5.31694]],[[626.63036,388.72284],[3.91844,-5.96368],[-4.85672,7.3917]],[[602.7606,400.14614],[7.44352,-2.7681],[-2.05166,0.76298]],[[596.8413,402.98962],[2.12846,-0.51098],[-0.1756,0.04216]],[[596.31502,403.11001],[0.17525,-0.03811],[0.90878,8.86839]],[[600.08643,429.93379],[1.71389,-9.47941],[-1.76505,9.76233]],[[582.93481,450.29684],[7.13398,-5.60527],[-9.67087,7.59854]],[[551.47988,469.76278],[11.8025,-3.99114],[-3.81766,1.29098]],[[535.6459,473.26348],[4.10666,1.03715],[3.02672,2.52771]],[[542.12477,483.14249],[-2.00141,-3.33634],[4.37341,7.29044]],[[554.82455,505.1987],[-4.30447,-7.31782],[1.87273,3.18373]],[[562.3636,518.06249],[-3.12245,-2.23365],[3.22083,2.30403]],[[574.32645,512.92667],[-2.15729,1.48815],[13.66573,-9.42699]],[[611.49806,480.97775],[-10.90686,12.75369],[3.63407,-3.63865]],[[622.39302,469.52321],[-2.92999,4.27353],[3.49749,-5.10126]],[[632.79925,455.24977],[-4.01006,4.25338],[-0.1157,-0.77542]],[[633.19095,452.51805],[-0.41972,1.0493],[1.85695,-4.64238]],[[639.69029,449.73262],[0,0],[0.35074,0.1403]],[[640.74653,450.15118],[-0.35335,-0.13882],[0,0]],[641.16667,450.04167],[[645.166,451.8521],[-1.45927,-1.81044],[6.54144,2.49667]],[[664.04691,460.95459],[-5.6614,-4.01467],[6.0751,4.30803]],[[682.4696,472.44594],[-6.9706,-2.96149],[0,0]],[684.08114,472.96492],[[687.3108,479.07661],[1.37149,-4.57797],[0.14175,0.52096]]],&quot;closed&quot;:true}]}" fill="#7b8a52" stroke="none" stroke-width="0.5" stroke-linecap="butt"/><path d="M338.13384,203.03469c5.00023,3.94513 9.83972,8.97667 15.41497,11.94754c2.69432,1.43622 7.45131,4.78445 5.2786,8.50572c-1.06368,1.82177 -4.73105,1.47372 -6.40475,2.9558c-1.76115,1.59191 -3.64822,5.06668 -5.9441,5.91091c-1.04615,0.38468 -1.97065,-0.98898 -2.81457,-1.31861c-1.57829,-0.61646 -2.64391,-0.7236 -4.31539,-0.83972c-3.29555,-0.22896 -3.07293,-2.41635 -4.6108,-4.78135c-1.60825,-2.4732 -3.49291,-4.64224 -4.94747,-7.27644c-1.57953,-4.64308 -5.91949,-3.36015 -8.92269,-5.91851c-1.81379,-1.54513 -1.84501,-4.69197 -2.00676,-6.84617c0.03645,-3.58867 14.14965,-6.63786 19.27297,-2.33915z" data-paper-data="{&quot;index&quot;:null}" fill="#363c1a" stroke="none" stroke-width="0.5" stroke-linecap="butt"/><path d="" data-paper-data="{&quot;index&quot;:null}" fill="#363c1a" stroke="none" stroke-width="0.5" stroke-linecap="butt"/><path d="M305.37961,195.80047c0.00111,3.00894 1.28158,6.53184 0.58523,9.4845c-0.21231,0.90023 -0.57186,1.57185 -1.03284,2.05393c-1.63723,0.2629 -3.30006,0.46034 -5.00192,0.54737c-1.26679,-0.47311 -2.45949,-1.24467 -3.27667,-2.05752c-0.78929,-2.30157 -0.34969,-4.53378 -0.13167,-6.8944c0.41719,-4.51717 9.30164,-5.36327 8.85787,-3.13388z" data-paper-data="{&quot;index&quot;:null}" fill="#3b4208" stroke="none" stroke-width="0.5" stroke-linecap="butt"/><path d="M333.71511,194.26653l0.32079,0.39544c0.23592,0.77384 0.73323,1.39928 1.0058,2.21859c0.09826,0.39444 0.19515,0.79021 0.2907,1.18719c-1.60305,-0.34794 -3.95456,-0.6514 -5.86934,-0.80847c1.01646,-0.78643 2.87612,-1.98399 2.79852,-3.23918c0,0 0,-0.5 0.5,-0.5c0.5,0 0.5,0.5 0.5,0.5c-0.00118,0.03347 -0.00293,0.0667 -0.00522,0.09971c0.25384,-0.0582 0.45876,0.14673 0.45876,0.14673z" data-paper-data="{&quot;index&quot;:null}" fill="#363c1a" stroke="none" stroke-width="0.5" stroke-linecap="butt"/><path d="M319.13396,158.45486c0.01744,-0.00145 0.02761,-0.00145 0.02761,-0.00145l0.00892,0.00157c0.04549,0.00148 0.11026,0.00839 0.17796,0.03131l0.29047,0.0511c2.58679,1.73636 1.4292,7.85769 1.72066,10.77124c0.40729,4.08666 3.32581,14.34479 -3.59801,14.34479c-0.95947,-0.04615 -1.12354,-0.37491 -1.87689,-0.9119c-1.35014,-0.96239 -2.54152,-1.77798 -3.00166,-3.44321c-0.92653,-3.35307 1.47126,-6.24471 -1.30813,-9.0279c-3.57359,-5.32389 2.30021,-11.23269 7.53146,-11.81394c0,0 0.01011,-0.00113 0.0276,-0.00161z" data-paper-data="{&quot;index&quot;:null}" fill="#40770e" stroke="none" stroke-width="0.5" stroke-linecap="butt"/><path d="M302.88874,148.42618c5.23061,0.03127 7.16633,4.96235 7.16667,9.5c0.00012,1.73221 0.44218,3.67848 -0.78,4.98366c-1.9994,3.00729 -7.62085,7.13103 -11.6226,4.79051c-1.85804,-1.08672 -2.60447,-3.40809 -3.03627,-5.35526c-0.72032,-3.30387 -0.91488,-9.61746 1.91518,-12.10229c1.46305,-1.28459 3.96753,-1.46112 5.87832,-1.48102c0.0954,-0.3356 0.4787,-0.3356 0.4787,-0.3356z" data-paper-data="{&quot;index&quot;:null}" fill="#629200" stroke="none" stroke-width="0.5" stroke-linecap="butt"/><path d="M345.04101,240.52828l0.09799,0.00258l0.09078,-0.03698l4.59797,-0.65685l3.23921,-0.64784l1.47404,-0.32756l0.1374,0.00362l0.12885,-0.04786l1.33287,-0.1481l1.64253,-0.41063l0.98254,-0.42109l0.15873,-0.0256l0.13927,-0.08035l1.16667,-0.33333l0.34851,-0.01162l0.33829,-0.08457h0.35188l0.01647,-0.00659c-0.36239,-3.50097 -0.95672,-6.96056 -2.07086,-10.30988c-0.0258,-0.07754 -1.40445,-5.56071 -1.42165,-5.6724c-0.09314,-0.60477 0.3579,-1.35224 -0.01726,-1.83564c-1.37268,-1.7687 -5.10405,-3.01028 -7.02589,-4.07934c-3.0192,-1.6795 -5.97944,-3.7189 -8.78887,-5.73564c-4.64716,-2.31391 -8.17754,-4.64069 -10.61322,-9.35706l-0.26393,-2.11803c0,0 0,-0.27674 0.09207,-0.64607c-0.05199,-0.43004 -0.09924,-0.85939 -0.141,-1.28783c-0.92732,-0.26418 -1.84153,-0.59578 -2.62127,-1.14347c-1.74527,-1.22588 -3.08571,-3.71354 -4.18998,-5.49206c-1.06538,-1.05462 -3.44568,-3.25603 -4.00347,-4.56089c-1.13175,-2.64754 -0.33326,-6.09121 -0.83399,-8.88661c-1.28317,-7.16351 -0.44524,-14.53316 -1.35345,-21.79879l-0.01931,-1.64342c0,0 0,-2.5 2.5,-2.5c2.5,0 2.5,2.5 2.5,2.5l-0.0193,1.02325c0.89659,7.17278 0.08521,14.4757 1.31322,21.53455c0.36949,2.1239 -0.35342,5.80034 0.49934,7.78006c0.63126,1.4655 2.20664,2.30573 3.32986,3.4391c0.34342,0.54608 2.29463,3.88268 3.14335,4.50794c0.92012,0.67785 3.46772,0.83853 4.37178,0.8856c3.75082,0.1953 9.91069,1.04924 10.74614,-4.00649c0.60098,-3.63689 -0.72619,-6.65025 -1.34427,-10.05128c-0.17337,-0.95397 0.60892,-2.72691 -0.3472,-2.88799c-0.49245,-0.08297 -7.19761,-0.05821 -7.52625,-0.05807c0,0 -2.5,0 -2.5,-2.5c0,-0.91974 0.33836,-1.50111 0.76613,-1.8686c-0.00044,-0.35403 -0.00227,-0.70799 -0.00537,-1.06188c-0.16087,-0.64987 -0.04555,-1.22648 -0.04555,-1.22648l0.02853,-0.08126c-0.12581,-7.35506 -0.73793,-14.68399 -0.77569,-22.02796c-0.40622,-1.72457 -1.20362,-3.41636 -1.5538,-4.98225c-2.36333,-2.47126 -6.36178,-3.72089 -9.58226,-4.43629c0,0 -0.32267,-0.07447 -0.70605,-0.28663c0.00456,0.02005 0.00781,0.03963 0.00953,0.05864c0.0917,1.01482 0.50146,2.10104 0.13982,3.05366c-0.71083,1.87243 -3.76777,4.50509 -5.65669,5.13108c-0.80808,0.2678 -2.01259,0.40373 -3.3717,0.41277c-0.77202,-0.03034 -1.54327,-0.0629 -2.31394,-0.09687c-2.8297,-0.24764 -5.74708,-0.96448 -6.97614,-2.11393c-2.624,-2.45404 -0.34545,-6.36064 -4.11571,-6.111c-0.32734,1.00158 -1.32892,1.50237 -1.32892,1.50237l-1.39967,0.65849c-1.61706,0.47831 -3.15406,1.19936 -4.69423,1.88603c-0.72725,0.32423 -1.60376,0.69671 -2.45664,1.14673c-0.57254,0.88436 -1.80028,2.08559 -3.13988,2.99446c-1.0725,2.74074 -0.85801,5.59079 -1.06102,8.62815c-0.47887,7.16471 -1.66718,14.15195 -2.40749,21.28881c-0.08274,0.79769 -0.13461,1.54957 -0.1633,2.28059c0.81004,0.73866 0.81004,1.91804 0.81004,1.91804c-0.02909,5.72896 -2.27227,10.6917 0.79892,15.42814c0.79066,0.86109 1.73031,1.58318 2.77809,2.12541c1.37454,0.71132 2.93518,1.11311 4.58965,1.11311c0.51587,0 1.02263,-0.03906 1.51746,-0.11439c0.31612,-0.15798 0.71029,-0.25741 1.20177,-0.25976c1.12887,-0.31825 2.17673,-0.82975 3.10563,-1.4965c-0.01662,0.11004 -0.03343,0.22006 -0.05041,0.33007c1.27729,-0.48514 2.51069,-1.10641 3.8156,-1.51303c1.37083,-0.42716 5.72511,-1.63322 6.6077,-2.91278c0.81412,-1.18031 0.32977,-3.19341 -0.49787,-4.8355c-1.19443,0.17622 -2.13432,-0.76367 -2.13432,-0.76367l-0.17191,-0.67575c-2.37261,-0.61232 -6.71616,-1.85158 -8.49476,-3.65759c-0.812,-0.82451 -1.02007,-2.07753 -1.5301,-3.1163c0,0 -0.29777,-0.69482 -0.18377,-1.48406c-0.07491,-0.04327 -0.15048,-0.08558 -0.22674,-0.12689c0.12059,-0.91449 0.22038,-1.83609 0.30115,-2.76254c-0.45145,-1.41894 -0.82531,-2.8493 -1.06861,-4.26456c-0.62603,-3.64154 -0.02417,-7.97058 -0.02417,-11.68009c0,0 0,-1.6731 1.36872,-2.28187c0.3199,-0.60947 0.94453,-1.20449 2.16419,-1.20449l0.00001,0.00004c2.5,0 2.5,2.5 2.5,2.5l-0.00736,1.80826c0.36428,4.77817 0.38902,9.56513 0.05612,14.32967c0.45171,1.33151 0.97528,2.64971 1.50717,3.9202c0.32157,0.13528 0.65762,0.34729 0.92108,0.67957c3.2441,1.53601 6.38405,1.50085 8.74901,5.21358c1.6934,2.65847 3.00254,8.0196 1.04332,11.00144c-2.42836,3.69585 -8.21312,4.3276 -11.93488,5.71165c-1.02583,0.38149 -1.89542,1.16625 -2.95965,1.42174c-0.0878,0.02108 -0.17552,0.04114 -0.26314,0.06019c0.45439,4.43419 2.74265,8.67219 1.8857,13.41189c-0.88252,4.88117 -5.00882,7.37889 -8.57581,10.18152c-0.83391,0.65522 -1.67244,1.31456 -2.51947,1.96736c-0.12298,0.35746 -0.32474,0.67827 -0.58453,0.9417c-0.0603,0.10177 -0.12602,0.20333 -0.19674,0.30465c1.85914,1.7639 3.09422,5.51788 4.31007,6.79783c3.14672,3.31258 5.24224,7.29566 8.14572,10.69932c1.77934,-1.67964 3.49101,-3.45789 5.12657,-5.3704c1.81703,-1.81932 3.98248,-3.59051 5.44748,-5.72727c1.63781,-2.38883 3.013,-4.69763 4.82804,-6.72804c-2.12072,-1.51666 -4.32652,-2.86202 -6.47764,-4.39507l-0.00001,0.00001c0,0 -2.03433,-1.4531 -0.58124,-3.48743c1.4531,-2.03433 3.48743,-0.58124 3.48743,-0.58124c2.64989,1.89744 5.38222,3.52385 7.95572,5.49649l0.17453,-0.0455c0,0 1.27003,-0.00001 1.99967,0.90521c3.27072,1.24833 6.60976,2.54391 9.44045,4.55124c3.03755,2.15401 5.72604,4.26493 9.21134,5.74568l0.80577,0.25949c0,0 2.30057,0.76686 1.61483,3.05585c0.07088,0.26048 0.08596,0.44158 0.08596,0.44158c0.0228,0.27406 0.04543,0.5481 0.06789,0.82214zM366.58688,236.80208l0.02336,-0.01558l0.07009,0.01558l0.06966,0l0.55728,0.13932l0.56075,0.12461l0.06231,0.03115l0.06966,0.01742l0.0119,0.02083l0.74164,0l0.02336,-0.01558l0.07009,0.01558h0.06966l0.55728,0.13932l0.56075,0.12461l0.06231,0.03115l0.06966,0.01742l0.01393,0.02438l1.18744,0.59372l0.30513,0.26154l0.34461,0.20676l1.16667,1.16667l0.1075,0.17917l0.15906,0.1355l0.83333,1.16667l0.085,0.21578l0.14612,0.1801l1.16667,2.5l0.06139,0.31637l0.13283,0.29363l0.32283,1.77559l0.4868,2.10948l-0.00519,0.28531l0.06921,0.27684v2.66667l-0.05068,0.20271l0.01666,0.20829l-0.33333,2l-0.0165,0.03795l0.00197,0.04134l-0.15876,0.7938l-0.15526,0.93157l-0.16256,1.13789l-0.11316,0.27775l-0.04052,0.29717l-0.33333,0.83333l-0.06211,0.086l-0.02301,0.10356l-0.33333,0.66667l-0.32097,0.37447l-0.03749,0.18746l-0.27101,0.17246l-0.20905,0.24389l-0.19087,0.0106l-0.4161,0.26479l-0.4303,0.14343l-0.76512,0.30605l-0.1704,0.02324l-0.15174,0.08093l-0.66667,0.16667l-0.30776,0l-0.29857,0.07464l-0.83407,0l-2.33552,0.3114l-0.16719,-0.01888l-0.16322,0.04081h-1.67769l-5.17889,0.64736l-0.06052,-0.00734l-0.05783,0.01928l-4.22312,0.32486l-3.89096,0.64849l-0.20829,-0.01666l-0.20271,0.05068h-6.16667l-0.1876,-0.0469l-0.19255,0.01783l-2.16667,-0.33333l-0.07781,-0.03268l-0.08437,0.00222l-1.5,-0.33333l-0.66744,-0.33372l-0.18777,-0.01043l-0.12518,-0.14604l-0.17205,-0.08602l-0.05566,-0.17964l-0.48564,-0.56658l-0.1519,-0.3038l-0.04646,-0.04646l-0.20676,-0.34461l-0.26154,-0.30513l-0.09372,-0.18744l-0.02438,-0.01393l-0.01742,-0.06966l-0.03115,-0.06231l-0.02655,-0.11946l-0.0014,-0.00233l0.00049,-0.00178l-0.09715,-0.43719l-0.13932,-0.55728v-0.06966l-0.01558,-0.07009l0.01558,-0.02336v-7.67021l0.02803,-0.11213l-0.01777,-0.11421l0.16667,-1.83333l0.00847,-0.02427l-0.00344,-0.02547l0.15905,-1.43146l0.15899,-2.86186l0,-1.13254c-0.01629,0.00347 -0.03258,0.00694 -0.04887,0.01041c-0.08758,-1.00548 -0.17466,-2.00856 -0.25852,-3.0083c-3.56392,-1.61454 -6.47332,-3.76294 -9.63276,-6.03789c-1.88661,-1.35845 -4.08187,-2.34112 -6.31075,-3.21316c-0.98127,0.30696 -1.95046,-0.17764 -1.95046,-0.17764l-0.00001,0l-0.69679,-0.36925c-1.97293,1.93405 -3.26594,4.49514 -4.88171,6.80907c-1.63488,2.34127 -3.87734,4.26692 -5.88585,6.27273c-1.6247,1.89135 -3.38188,3.79287 -5.23824,5.62832c1.71552,1.76987 3.19964,3.72906 3.23729,6.45431c0.04812,3.48356 0.74363,10.67008 -2.93579,13.42965c-1.88329,1.41247 -4.84251,3.26115 -7.17433,3.63955c-2.20452,0.35774 -4.29206,0.01255 -6.47905,-0.0692c-11.15417,-0.41693 -12.71629,-10.95495 -16.95594,-19.00005c-4.40019,-8.34973 -11.04411,-16.78233 0.54444,-21.12804l0.17099,-0.08549c0.15458,-0.08138 0.31871,-0.14705 0.49029,-0.19487c0.60188,-0.60181 1.31841,-1.16943 1.86393,-1.65162c1.07017,-0.94593 2.21367,-1.72174 3.31776,-2.65109c1.34076,-1.12857 2.55602,-2.28385 4.07892,-3.17186c-0.13531,-0.18517 -0.26916,-0.37934 -0.40203,-0.58009c1.47435,-1.0212 2.93497,-2.10435 4.43006,-3.27906c2.3025,-1.80911 6.28549,-3.86716 6.75752,-7.15181c0.47492,-3.30476 -0.58541,-6.44065 -1.3486,-9.59936c-0.15818,0.20596 -0.30483,0.42577 -0.43894,0.66011c-0.12507,-0.68603 -0.22144,-1.37568 -0.27866,-2.07035l-0.31375,-0.0112c0.01281,-0.37153 0.0185,-0.74084 0.01652,-1.10682c0,0 0,-0.15615 0.03903,-0.3904c-0.25006,-0.05127 -0.49887,-0.10907 -0.74636,-0.17302h-0.3878c-0.0734,0.78035 -0.41325,1.28111 -0.81919,1.60246l-2.06004,-0.07358l-1.26581,0.26884c-4.35256,-2.58481 -7.73156,-6.41504 -8.67038,-11.48196c-0.09376,-0.16246 -0.18113,-0.30236 -0.26021,-0.40883c0.04735,-0.10686 0.09517,-0.21351 0.14333,-0.3199c-0.01219,-0.08972 -0.02362,-0.17981 -0.0343,-0.27027c-0.07732,-0.6551 -0.10223,-1.30249 -0.08994,-1.94443c-0.1606,-0.89126 -0.24526,-1.87081 -0.26213,-3.02769v-2c0,0 0,-0.69514 0.36656,-1.35231c-0.19214,-1.86703 -0.13653,-3.74634 -0.0615,-4.9329c0.22387,-3.54045 0.91075,-6.99482 1.51033,-10.4638c-0.26731,-0.17368 -0.42437,-0.33074 -0.42437,-0.33074l-1.6638,-2.40855c-1.13017,-9.06133 -0.79818,-17.77408 0.4668,-26.65267c-0.09804,-2.08974 -0.36565,-4.09185 0.18527,-5.78475c0.03023,-0.0929 0.06293,-0.18486 0.09825,-0.27586c-0.00001,-0.00081 -0.00003,-0.00163 -0.00004,-0.00245l-0.00001,0.00002c-0.10588,-6.31595 4.39974,-8.60447 9.71697,-9.12768c-0.91044,-1.99366 -1.71839,-4.03535 -2.36154,-6.15395c0,0 -0.05388,-0.17959 -0.08294,-0.45517c-2.19501,0.0049 -5.46835,-0.07213 -6.04026,-0.74544c-3.52594,-4.15104 1.34503,-7.03226 3.22692,-9.71169c1.57868,-2.24772 3.20638,-4.56132 4.67127,-6.88173c1.05734,-1.67485 1.96149,-4.17176 3.73871,-5.25838c4.69246,-2.86906 12.42849,-2.41597 17.63087,-2.41597c6.38507,0 12.47016,-0.20547 18.74029,1.04855l1.00971,-0.04855c0,0 2.5,0 2.5,2.5c0,0.74923 -0.22454,1.27392 -0.53904,1.64137c2.98154,3.86372 6.57761,8.16349 7.86296,12.43701c0.42277,1.4056 1.40748,3.02557 0.75177,4.33877c-1.16038,2.32394 -3.34637,3.0433 -5.56626,3.40022c-0.01453,0.03298 -0.02337,0.05066 -0.02337,0.05066c-1.22321,2.44641 -2.27654,4.88349 -3.25521,7.34584c2.61334,-0.57773 6.22157,-1.2331 8.33048,-0.32856c3.29398,1.41283 4.802,4.87335 4.86121,8.3389c0.39452,1.02122 0.36054,3.6206 0.35884,4.54174c-0.00334,1.80314 -0.01435,3.60634 -0.01404,5.40948c0.05987,1.51579 0.14495,3.02771 0.25915,4.54152c0.03807,0.15086 0.07833,0.30231 0.11906,0.45418c0.01551,-0.02458 0.0312,-0.04909 0.04708,-0.07351c0.07125,0.50647 0.16019,1.00918 0.26641,1.50251c-0.50489,1.81392 -0.48134,4.04379 -1.07541,5.40945c-0.94074,2.16261 -2.54075,3.12513 -3.61912,5.2974c0.00802,0.09268 0.00802,0.14705 0.00802,0.14705c0,1.7425 -0.01205,3.42753 0.0687,5.12276c0.4045,0.52012 0.89422,1.02683 1.37983,1.54001c-0.29716,0.28728 -0.69943,0.54586 -1.21964,0.62141c0.02547,0.2455 0.05375,0.49179 0.08514,0.73907l-0.23407,1.59266c0.0083,0.51433 0.01416,1.02878 0.0172,1.54335c2.51831,0.01691 5.48455,0.12568 6.54325,0.61601c4.14242,1.91854 2.408,3.44584 2.98613,6.44534c0.95252,4.94187 2.87151,10.14914 0.05217,15.00544c-0.63773,1.09849 -1.29397,2.25145 -2.27784,3.0548c-2.49029,2.03338 -7.46456,2.45394 -11.59089,2.13611c0.03302,0.27145 0.06818,0.54316 0.10525,0.81509c0.30195,0.72571 0.62424,1.43199 0.96134,2.12495c-0.06167,-0.00151 -0.12336,-0.00303 -0.18506,-0.00455c1.87683,2.47886 4.51168,3.79727 7.50176,5.29823c2.73994,1.94815 5.60577,3.96726 8.54447,5.59769c2.81861,1.56381 7.04931,3.21398 8.97411,5.92066c1.16897,1.64382 1.19573,6.40027 1.89442,8.49196c1.23589,3.69991 1.90457,7.53365 2.31288,11.41271zM343.91282,247.94076l-0.0209,0.06744l0.00945,0.06997l-0.16391,1.47516l-0.15414,1.6955l0,6.86265l0.29507,0.06557l1.89611,0.29171h5.76858l3.79591,-0.63265l0.11234,0.00899l0.10692,-0.03564l4.27402,-0.32877l5.2743,-0.65929l0.15683,0.01901l0.15326,-0.03831h1.6674l2.33552,-0.3114l0.16719,0.01888l0.16322,-0.04081h0.69224l0.20349,-0.05087l0.27624,-0.1105l0.06221,-0.15552l0.12428,-0.86999l0.01127,-0.02767l-0.00238,-0.02978l0.16667,-1l0.0165,-0.03795l-0.00197,-0.04134l0.15876,-0.7938l0.29269,-1.75615v-2.17504l-0.43598,-1.88924l0.00109,-0.06014l-0.02479,-0.0548l-0.2756,-1.5158l-0.93285,-1.99896l-0.57928,-0.811l-0.73349,-0.73349l-0.44261,-0.2213h-0.74671l-0.02336,0.01558l-0.07009,-0.01558h-0.06966l-0.55728,-0.13932l-0.56075,-0.12461l-0.06231,-0.03115l-0.06966,-0.01742l-0.0119,-0.02083h-1.93297l-1.02509,0.1139l-0.51823,0.20729l-0.46914,0.06397l-0.45934,0.11484h-0.4832l-0.67765,0.19361l-1.02103,0.43758l-0.19985,0.03223l-0.17861,0.09526l-2,0.5h-0.17046l-0.1598,0.05935l-1.36568,0.15174l-1.36807,0.30402l-0.02733,-0.00072l-0.02471,0.0117l-3.33333,0.66667l-0.07095,-0.00338l-0.06578,0.0268l-4.57162,0.65309l-1.40627,0.31251l-0.09799,-0.00258l-0.09078,0.03698l-0.40709,0.05816zM325.15103,96.38666c-5.26188,-0.79932 -10.4335,-0.61234 -15.82725,-0.61234c-4.2554,0 -10.94009,-0.59344 -14.86913,1.58403c-0.40033,0.22186 -2.2444,3.71489 -2.26129,3.74162c-1.63404,2.58612 -3.87358,7.14553 -6.53201,9.54307c1.58062,-0.11593 3.18904,0.05912 4.77571,0.13384c4.81126,0.22657 9.59221,1.01408 14.38671,0.99743c7.34688,0 15.0018,0.9002 22.30937,0.25728c2.1381,-0.18811 4.25558,-0.56435 6.37977,-0.87213c0.49998,-0.07244 1.17824,0.09899 1.48516,-0.3023c0.20221,-0.26439 -0.56706,-0.38201 -0.74823,-0.66123c-0.44474,-0.68547 -0.69438,-1.48145 -1.10158,-2.18987c-2.31081,-4.02026 -5.32247,-7.81458 -7.99723,-11.6194zM273.53716,241.79231c2.00537,4.49169 4.29232,8.7885 6.44891,13.22507c4.03433,8.29947 4.50772,14.79365 16.3961,13.11803c6.10465,-0.86042 6.41042,-6.87721 6.0345,-11.76097c-0.22712,-2.95065 -3.06695,-4.37914 -4.75389,-6.30523c-3.28531,-3.75107 -6.82953,-8.33779 -9.57945,-12.43379c-0.64339,-0.95833 -2.72721,-3.56667 -3.75002,-5.91156c-1.33978,0.92017 -2.6927,1.75862 -3.60242,2.4662c-0.65609,0.5103 -1.79941,1.64328 -2.90211,2.20178c-1.75327,2.52799 -6.17986,1.17115 -4.29162,5.40048zM319.55626,131.53756c0.83666,-0.70409 2.05343,-0.53275 3.21515,-0.48818l0.20285,-0.87942c1.66508,-4.57387 3.2423,-8.96855 5.22292,-13.34068c-7.70528,0.73591 -15.65482,-0.05496 -23.37343,-0.05496c-4.52388,-0.01377 -8.99875,-0.64136 -13.51983,-0.89515c1.86065,5.64789 5.01055,10.73408 7.90575,15.89515h1.11408c3.45993,0.16356 4.27692,-0.49478 6.66371,2.99766c0.85105,1.24528 -0.09326,3.39394 1.02362,4.40764c0.34702,0.31496 0.93359,0.08989 1.39637,0.16379c1.74507,0.27868 4.67219,1.04 6.44184,0.53817c4.16366,-1.18072 0.54938,-5.68676 3.70698,-8.34403zM283.38563,141.35529c1.19039,-1.8934 3.25803,-3.60631 4.88277,-3.99864c0.00975,-0.01444 0.01945,-0.02888 0.0291,-0.04334c0.01178,0.00952 0.0235,0.019 0.03516,0.02846c0.0424,-0.00939 0.08447,-0.01786 0.12621,-0.02538c2.13297,-1.2123 4.52081,-2.10599 6.57199,-2.7716c-1.3486,-2.42669 -2.7418,-4.83358 -4.05362,-7.27904c-0.09661,0.00858 -0.15349,0.00858 -0.15349,0.00858c-2.07424,-0.03702 -4.78672,0.25388 -6.62757,1.40203c-0.73662,0.45944 -0.40013,2.25909 -0.37374,2.775c-0.02179,0.02221 -0.04235,0.04502 -0.06175,0.06824c-0.03928,0.92993 -0.32117,2.03642 -0.34616,2.46805c-0.06857,1.18423 0.41388,4.69239 -0.0289,7.36764zM338.16222,140.56714c0.1433,0.71451 0.72161,2.33877 1.19317,4.14225c-0.00012,-0.00912 -0.00021,-0.01819 -0.00027,-0.0272c-0.0107,-1.5357 0.00053,-3.07151 0.00732,-4.60728c-0.06582,-0.34739 -0.12885,-0.69656 -0.18758,-1.04835c-0.04438,-0.2658 0.02327,-1.10232 0.08557,-1.89425c0.03429,-0.09704 0.05694,-0.19959 0.06627,-0.30595l0.03135,-0.31346c-0.00089,-0.08702 -0.00187,-0.17403 -0.00293,-0.26105c-0.01548,-1.27017 -0.16491,-2.21627 -0.17991,-2.99945c-0.13195,-0.15565 -0.30132,-0.27859 -0.49422,-0.35491c0.10168,-0.69866 0.09025,-1.47815 -0.06289,-2.4044c-0.16697,-1.00991 0.3052,-2.30936 -1.10568,-2.60409c-2.13385,-0.44576 -5.10345,0.34321 -7.12651,0.82129l-0.00001,0.00002c0,0 -0.75806,0.17494 -1.52601,-0.09325c-0.39474,1.07729 -0.78779,2.16359 -1.18665,3.26163l-0.15371,0.72827c2.74669,0.81814 5.75435,1.98471 7.86666,3.56741c0.97914,0.03848 1.81362,0.6401 2.18854,1.48998c0.11012,0.24962 0.1806,0.52066 0.20345,0.80513c0.17701,0.8338 0.34121,1.88415 0.38404,2.09768zM339.92641,149.82844c-0.04516,0.25842 -0.11036,0.5 -0.19863,0.72065c0.0698,2.29632 0.17594,4.59228 0.28535,6.8889c0.04782,0.0916 0.08876,0.18348 0.12384,0.27368c0.36923,-0.7066 0.74156,-1.41174 1.1067,-2.12446c-1.06594,-0.70059 -1.06594,-2.11683 -1.06594,-2.11683l0.01931,-1.27469c-0.0986,-0.79093 -0.18866,-1.57978 -0.27063,-2.36725zM339.98285,148.13163c0.01059,0.14752 0.01797,0.29304 0.02182,0.43612c0.03425,-0.01974 0.06649,-0.04091 0.09684,-0.06327c-0.04108,-0.12374 -0.08065,-0.24818 -0.11866,-0.37285z" fill="#000000" stroke="none" stroke-width="0.5" stroke-linecap="butt"/><path d="M343.98211,245.82008l0.40728,-0.05876l0.09085,-0.0372l0.09802,0.00248l1.40731,-0.31529l4.57814,-0.66456l0.06599,-0.02708l0.07109,0.0032l3.34728,-0.67898l0.02487,-0.0118l0.02747,0.00064l1.37714,-0.30816l1.37569,-0.15405l0.16104,-0.05949l0.17175,-0.00011l2.01414,-0.49901l0.17964,-0.09503l0.20106,-0.03193l1.02613,-0.43594l0.68066,-0.19235l0.48543,0.00109l0.46104,-0.11391l0.47084,-0.06295l0.51963,-0.20639l1.02809,-0.11171l1.93773,0.00427l0.01197,0.0209l0.06984,0.0176l0.0625,0.03135l0.56207,0.12604l0.5585,0.14075l0.06977,0.00014l0.07023,0.01575l0.02337,-0.01557l0.74779,0.00139l0.44356,0.22262l0.73551,0.73661l0.581,0.81414l0.93582,2.00627l0.27697,1.52113l0.02483,0.05501l-0.00105,0.06034l0.4368,1.89607l-0.0002,2.18273l-0.29373,1.76235l-0.15949,0.79656l0.00193,0.04147l-0.01654,0.03809l-0.16779,1.00331l0.00235,0.02987l-0.01131,0.02776l-0.12541,0.8727l-0.06245,0.15604l-0.27656,0.11118l-0.2037,0.0513l-0.69275,0.001l-0.16342,0.04117l-0.1673,-0.01867l-2.3387,0.31651l-1.67031,0.00372l-0.15368,0.03879l-0.15713,-0.01868l-5.29735,0.67383l-4.3014,0.32903l-0.10748,0.03548l-0.113,-0.00918l-3.81105,0.62508l-5.77992,-0.0116l-1.89836,-0.29521l-0.29539,-0.06612l-0.00634,-6.88335l0.15402,-1.70153l0.16441,-1.48046l-0.00942,-0.07021l0.02094,-0.06769z" data-paper-data="{&quot;noHover&quot;:false,&quot;origItem&quot;:[&quot;Path&quot;,{&quot;applyMatrix&quot;:true,&quot;segments&quot;:[[343.91282,247.94076],[343.89192,248.0082],[343.90138,248.07816],[343.73747,249.55332],[343.58333,251.24882],[343.58333,258.11147],[343.8784,258.17704],[345.77452,258.46875],[351.54309,258.46875],[355.339,257.8361],[355.45134,257.84509],[355.55826,257.80945],[359.83228,257.48068],[365.10658,256.82139],[365.26341,256.8404],[365.41667,256.80208],[367.08407,256.80208],[369.41959,256.49068],[369.58678,256.50956],[369.75,256.46875],[370.44224,256.46875],[370.64572,256.41788],[370.92196,256.30738],[370.98417,256.15186],[371.10846,255.28186],[371.11973,255.2542],[371.11735,255.22442],[371.28402,254.22442],[371.30052,254.18647],[371.29855,254.14513],[371.45731,253.35132],[371.75,251.59518],[371.75,249.42014],[371.31402,247.5309],[371.31512,247.47076],[371.29033,247.41596],[371.01473,245.90017],[370.08188,243.90121],[369.50259,243.09021],[368.7691,242.35672],[368.3265,242.13542],[367.57979,242.13542],[367.55642,242.15099],[367.48633,242.13542],[367.41667,242.13542],[366.85939,241.9961],[366.29863,241.87148],[366.23633,241.84033],[366.16667,241.82292],[366.15476,241.80208],[364.2218,241.80208],[363.19671,241.91598],[362.67848,242.12328],[362.20934,242.18725],[361.75,242.30208],[361.2668,242.30208],[360.58916,242.4957],[359.56813,242.93328],[359.36829,242.96551],[359.18967,243.06077],[357.18967,243.56077],[357.01921,243.56077],[356.85941,243.62013],[355.49373,243.77187],[354.12566,244.07588],[354.09833,244.07517],[354.07362,244.08687],[350.74029,244.75354],[350.66934,244.75016],[350.60355,244.77696],[346.03193,245.43005],[344.62566,245.74255],[344.52767,245.73997],[344.43689,245.77696],[344.0298,245.83511]],&quot;closed&quot;:true}]}" fill="#1b130b" stroke="none" stroke-width="0.5" stroke-linecap="butt"/><path d="M277.79932,236.35143c1.10271,-0.5585 2.25515,-1.69676 2.91124,-2.20706c0.90972,-0.70758 2.27369,-1.54948 3.61347,-2.46965c1.02281,2.34489 3.11706,4.95238 3.76044,5.9107c2.74991,4.096 6.343,8.73274 9.62831,12.48382c1.68693,1.92609 4.52267,3.37437 4.74979,6.32502c0.37592,4.88377 0.0457,10.92589 -6.05895,11.78632c-11.88838,1.67561 -12.42545,-4.83696 -16.45978,-13.13643c-2.15659,-4.43657 -4.44457,-8.78524 -6.44994,-13.27693c-1.88823,-4.22933 2.55214,-2.88781 4.30541,-5.4158z" data-paper-data="{&quot;noHover&quot;:false,&quot;origItem&quot;:[&quot;Path&quot;,{&quot;applyMatrix&quot;:true,&quot;segments&quot;:[[[547.07432,483.58462],[-3.77647,-8.45867],[4.01073,8.98338]],[[559.97214,510.03477],[-4.31318,-8.87314],[8.06866,16.59894]],[[592.76434,536.27083],[-23.77676,3.35123],[12.2093,-1.72085]],[[604.83333,512.74889],[0.75185,9.76753],[-0.45425,-5.9013]],[[595.32556,500.13842],[3.37386,3.85218],[-6.57063,-7.50215]],[[576.16667,475.27083],[5.49982,8.19201],[-1.28677,-1.91665]],[[568.66663,463.44771],[2.04562,4.68978],[-2.67957,1.84034]],[[561.4618,468.38011],[1.81945,-1.41515],[-1.31217,1.0206]],[[555.65757,472.78366],[2.20541,-1.11699],[-3.50654,5.05598]]],&quot;closed&quot;:true}]}" fill="#1b130b" stroke="none" stroke-width="0.5" stroke-linecap="butt"/><path d="" data-paper-data="{&quot;noHover&quot;:false,&quot;origItem&quot;:[&quot;Path&quot;,{&quot;applyMatrix&quot;:true,&quot;segments&quot;:[[[345.82912,276.08912],[0,0],[1.61993,3.19914]],[[353.58333,279.02083],[-2.95539,0.05317],[5.31843,-0.09568]],[[369.12184,277.73046],[-5.24021,0.95265],[2.03741,-0.37039]],[[375.25426,276.73671],[-1.86827,0.8932],[1.00046,-0.4783]],[[376.08815,274.03215],[-0.02256,0.77316],[0.06527,-2.23649]],[[375.24047,268.37566],[1.36537,1.76178],[-2.61811,-1.40856]],[[367.02524,264.93899],[2.75806,1.11121],[-0.18908,0.16812]],[[366.41863,265.39753],[0.21656,-0.13614],[-1.00815,0.63379]],[[362.88731,265.93823],[1.15276,-0.29867],[-5.08425,1.31729]],[[348.05491,269.68367],[5.44626,-0.31251],[-0.51996,0.02984]],[[345.93963,269.71526],[0.83805,0.01899],[-0.29909,1.93659]],[[345.82911,276.08912],[-0.72775,-1.4372],[0,0]]],&quot;closed&quot;:true,&quot;fillColor&quot;:[0,0,0,1]}]}" fill="#1b130b" stroke="none" stroke-width="0.5" stroke-linecap="butt"/><path d="" data-paper-data="{&quot;noHover&quot;:false,&quot;origItem&quot;:[&quot;Path&quot;,{&quot;applyMatrix&quot;:true,&quot;segments&quot;:[[[257.19959,244.99989],[0,0],[-1.48591,0.89195]],[[252.58062,247.38665],[1.34126,-1.0975],[-2.44621,2.00165]],[[252.87493,255.18821],[-0.89317,-2.02422],[2.84402,6.44551]],[[266.93178,270.08234],[-6.10738,-3.48993],[3.35222,2.42904]],[[279.47061,273.39428],[-4.20644,0.55126],[4.97262,-0.65166]],[[280.14891,264.95526],[2.34145,2.25347],[0,0]],[280.12611,265.22587],[[278.38484,262.90946],[-0.05434,1.71787],[-1.61011,-1.14896]],[[274.44158,257.81035],[1.24056,2.06165],[-2.16939,-3.60528]],[[268.40286,246.74372],[2.0647,3.66757],[-1.05079,-1.86653]],[[264.51984,240.62054],[1.03467,2.11186],[-2.53146,1.3248]],[[257.1996,244.99988],[2.52304,-1.51451],[0,0]]],&quot;closed&quot;:true,&quot;fillColor&quot;:[0,0,0,1]}]}" fill="#1b130b" stroke="none" stroke-width="0.5" stroke-linecap="butt"/><path d="" fill="#000000" stroke="none" stroke-width="0.5" stroke-linecap="butt"/><path d="" data-paper-data="{&quot;noHover&quot;:false,&quot;origItem&quot;:[&quot;Path&quot;,{&quot;applyMatrix&quot;:true,&quot;segments&quot;:[[[283.32747,267.56329],[0.82828,-2.05628],[-0.35616,0.88419]],[[285.21101,269.71506],[-0.8292,-0.47018],[1.52463,0.8645]],[[290.08737,271.68177],[-1.67482,-0.51657],[2.33238,0.71938]],[[297.22094,272.07997],[-2.39243,-0.0997],[4.48433,0.18688]],[[310.625,272.82813],[-4.50069,0.0008],[2.56843,-0.00046]],[[318.14071,271.80741],[-2.18099,1.55439],[1.09878,-3.01374]],[[315.58876,266.97186],[2.739,1.5991],[0,0]],[314.58443,266.69984],[[313.39663,265.90141],[0.51012,0.57254],[-1.7572,0.44316]],[[307.50972,265.35772],[1.63528,0.32318],[-5.2119,-1.03004]],[[291.75366,261.8941],[5.27326,0.46922],[-0.95067,-0.08459]],[[288.20559,261.88166],[1.28093,0.05145],[-1.64997,1.82361]]],&quot;closed&quot;:true,&quot;fillColor&quot;:[0,0,0,1]}]}" fill="#1b130b" stroke="none" stroke-width="0.5" stroke-linecap="butt"/><path d="" data-paper-data="{&quot;noHover&quot;:false,&quot;origItem&quot;:[&quot;Path&quot;,{&quot;applyMatrix&quot;:true,&quot;segments&quot;:[[[271.94072,223.95547],[0,0],[-1.59455,0.04123]],[[267.15704,224.07792],[1.5942,0.05289],[-0.44646,-0.01481]],[[265.85674,223.75363],[0.39465,-0.2093],[-0.37976,0.2014]],[[265.4568,224.97962],[0.1012,-0.41777],[-0.52725,2.17646]],[[265.125,231.57813],[0,-2.22097],[0,4.22377]],[[264.625,244.07813],[0.00244,-4.21876],[-0.00211,3.65879]],[[266.68318,251.69771],[-3.07656,-2.32252],[1.28946,0.61303]],[[270.875,252.57813],[-1.42769,0.0143],[4.78108,-0.0479]],[[281.1515,246.2151],[-0.66433,6.00648],[0.11495,-1.03936]],[[281.125,243.07813],[0.00883,1.04566],[0,0]],[281.125,242.07813],[[281.6272,240.51005],[-0.5022,0.71059],[-0.22544,-1.3569]],[[281.50002,236.40625],[0.0077,1.30145],[-0.02375,-4.01208]],[[282.08736,224.15747],[-0.30571,4.06901],[-3.38618,-0.18042]],[[271.94073,223.95547],[3.45667,-0.08939],[0,0]]],&quot;closed&quot;:true,&quot;fillColor&quot;:[0,0,0,1]}]}" fill="#1b130b" stroke="none" stroke-width="0.5" stroke-linecap="butt"/><path d="" data-paper-data="{&quot;noHover&quot;:false,&quot;origItem&quot;:[&quot;Path&quot;,{&quot;applyMatrix&quot;:true,&quot;segments&quot;:[[[632,488.8125],[0.32433,0],[-13.33333,0]],[[592,488.8125],[13.33333,0],[-1.06669,0]],[[588.77567,488.84569],[1.08168,-0.01951],[-1.87209,4.26871]],[[583.58319,501.81109],[1.6212,-4.32319],[-1.05827,2.12023]],[[580.40837,508.17179],[1.16295,-2.06468],[-1.05603,1.87486]],[[576.93544,513.61341],[1.15265,-1.81705],[-0.13833,0.21807]],[[576.53553,514.27697],[-0.25563,-0.03668],[6.42035,0.92114]],[[596.20526,515.95994],[-6.68521,-1.66595],[6.94761,1.73134]],[[616.98058,520.9096],[-7.05493,-1.42939],[0.75896,0.15377]],[[624.41886,522.06908],[-1.45442,0.26465],[2.65992,-0.48401]],[[627.03746,515.20158],[-0.0609,0.59591],[0.74118,-7.2523]],[[631.43547,491.77165],[-2.98072,6.91201],[0.43609,-1.01125]],[[632.98655,488.81916],[-0.55457,0.97096],[-0.33322,-0.00433]]],&quot;closed&quot;:true}]}" fill="#7b8a52" stroke="none" stroke-width="0.5" stroke-linecap="butt"/><path d="" data-paper-data="{&quot;noHover&quot;:false,&quot;origItem&quot;:[&quot;Path&quot;,{&quot;applyMatrix&quot;:true,&quot;segments&quot;:[[[324.09533,253.91176],[0,0],[0.85651,3.61029]],[[330.57041,262.99001],[-3.75187,-1.20045],[1.54264,0.49358]],[[335.42874,262.90626],[-1.61968,-0.00375],[3.40326,0.00788]],[[345.50666,261.44215],[-3.33793,0.66673],[5.10574,-0.64832]],[[359.53992,254.32752],[-4.22277,2.85575],[2.50144,-1.69166]],[[366.7143,248.24599],[-1.4317,2.8402],[2.2577,-4.47883]],[[360.40152,234.36115],[6.60882,-1.38345],[-3.5675,0.7468]],[[350.01585,240.78249],[2.55555,-2.47506],[-1.10838,2.65785]],[[344.10839,247.61045],[2.60899,-1.4752],[-0.78962,0.44648]],[[341.44917,248.18853],[0.82925,-0.36768],[-2.1557,0.95582]],[[335.15356,252.08568],[2.09082,-1.13332],[-2.98407,1.61748]],[[325.92875,253.90627],[3.30471,0.01081],[-0.59799,-0.00196]],[[324.09534,253.91178],[0.61933,0.00637],[0,0]]],&quot;closed&quot;:true,&quot;fillColor&quot;:[0,0,0,1]}]}" fill="#1b130b" stroke="none" stroke-width="0.5" stroke-linecap="butt"/><path d="" data-paper-data="{&quot;noHover&quot;:false,&quot;origItem&quot;:[&quot;Path&quot;,{&quot;applyMatrix&quot;:true,&quot;segments&quot;:[[[264.42874,219.40625],[0,0],[-1.34876,-0.03644]],[[260.38545,219.21595],[1.30765,-0.33247],[-0.67222,0.17091]],[[259.01584,220.78248],[0.37093,-0.5861],[-1.63062,2.57655]],[[258.42022,229.61245],[0.25908,-2.86779],[-0.18243,2.01936]],[[257.42022,235.61245],[0.18489,-2.01914],[-0.17939,1.95913]],[[257.38363,241.37902],[0.34606,-1.97774],[-0.26988,1.54233]],[[256.23844,247.44954],[-0.70954,-1.75258],[0.67413,1.66513]],[[260.80157,250.31691],[-1.50438,-0.98181],[0.92438,0.60328]],[[263.92874,251.40625],[-1.10073,0.08261],[6.13977,0.46079]],[[269.46102,239.00579],[-0.69952,3.80089],[0.21496,-1.16801]],[[270.55703,235.61568],[-0.36534,1.13003],[0,0]],[270.42874,234.40625],[[270.61805,233.44245],[-0.18931,0.51632],[-1.27471,-3.18909]],[[269.9409,222.6599],[-0.29248,3.56714],[0.08526,-1.03984]],[[269.97253,219.42036],[-0.04719,1.07284],[-1.84822,0.01653]],[[264.42873,219.40625],[1.84733,0.04991],[0,0]]],&quot;closed&quot;:true,&quot;fillColor&quot;:[0,0,0,1]}]}" fill="#1b130b" stroke="none" stroke-width="0.5" stroke-linecap="butt"/><path d="" fill="#000000" stroke="none" stroke-width="0.5" stroke-linecap="butt"/><path d="" fill="#000000" stroke="none" stroke-width="0.5" stroke-linecap="butt"/><path d="" fill="#000000" stroke="none" stroke-width="0.5" stroke-linecap="butt"/><path d="" data-paper-data="{&quot;noHover&quot;:false,&quot;origItem&quot;:[&quot;Path&quot;,{&quot;applyMatrix&quot;:true,&quot;segments&quot;:[[[301.02,284.43509],[0,0],[-0.48649,1.35086]],[[300.35678,288.69109],[-0.52267,-1.33728],[1.11613,2.85562]],[[308.45427,291.76454],[-2.24218,-0.42883],[3.74562,0.71638]],[[319.42965,293.09357],[-3.74915,-0.64317],[5.62646,0.96524]],[[336.01207,295.39178],[-5.76157,0.00622],[1.33333,0]],[[340.01207,295.39178],[-1.32656,-0.1342],[0.50986,0.05158]],[[341.44775,295.94168],[-0.42888,0.28049],[0.37573,-0.24574]],[[341.19366,294.61899],[0.03304,0.44774],[-0.21324,-2.89017]],[[338.49458,286.87855],[2.58696,1.91253],[-3.11025,-2.2994]],[[329.5094,284.67406],[3.45411,0.76575],[-2.70322,-0.59928]],[[324.07827,281.479],[1.99996,1.6369],[0,0]],[322.8454,280.55845],[[322.12528,279.72773],[0.30958,0.52281],[-0.68443,-0.00016]],[[320.67873,279.72511],[0.21452,0],[-4.35445,0]],[[308.54686,278.26081],[4.13278,1.46737],[-1.00529,-0.35693]],[[305.61331,277.34436],[0.91428,0.32012],[-1.65526,2.28608]],[[301.02,284.43508],[0.94333,-2.61939],[0,0]]],&quot;closed&quot;:true,&quot;fillColor&quot;:[0,0,0,1]}]}" fill="#1b130b" stroke="none" stroke-width="0.5" stroke-linecap="butt"/><path d="" data-paper-data="{&quot;noHover&quot;:false,&quot;origItem&quot;:[&quot;Path&quot;,{&quot;applyMatrix&quot;:true,&quot;segments&quot;:[[[262.34541,239.05845],[0,0],[-0.32826,-0.00287]],[[258.34269,239.42427],[0.77949,-0.75758],[-1.51727,1.47463]],[[256.33047,248.18522],[0.2052,-1.38223],[-0.42913,2.89071]],[[254.4564,256.74976],[0.69192,-2.83931],[-0.58439,2.39805]],[[254.08724,264.44429],[-0.1104,-2.59643],[0.66079,0.32787]],[[256.10654,265.36956],[-0.68186,-0.2935],[-0.71289,-0.16422]],[[254.099,264.72065],[0.61646,0.27296],[0.04118,0.9696]],[[254.17873,267.55845],[0,-0.91516],[0,2.65116]],[[255.25295,273.60918],[-1.65742,-2.05579],[1.39686,1.40923]],[[260.04949,277.13442],[-1.66322,-1.08204],[0.69886,0.45466]],[[262.06018,278.6221],[-0.74758,-0.36911],[7.62023,3.7625]],[[269.28806,266.60293],[0.25885,6.02446],[-0.33205,0.03141]],[[268.2657,266.62741],[0.34767,0.01294],[0.33082,-0.13584]],[[269.27026,266.19713],[-0.33957,0.15017],[-0.04654,-1.04389]],[[269.17873,263.55846],[0,0.68247],[0,0]],[269.17873,262.22513],[[269.36562,261.26796],[-0.18689,0.51352],[-0.9949,-2.34074]],[[268.84539,253.55846],[-0.00211,2.4075],[0.00398,-4.53963]],[[269.72042,239.3032],[-1.64723,4.26841],[-2.45342,-0.09127]],[[262.34539,239.05846],[2.47075,0.02163],[0,0]]],&quot;closed&quot;:true,&quot;fillColor&quot;:[0,0,0,1]}]}" fill="#1b130b" stroke="none" stroke-width="0.5" stroke-linecap="butt"/><path d="" data-paper-data="{&quot;noHover&quot;:false,&quot;origItem&quot;:[&quot;Path&quot;,{&quot;applyMatrix&quot;:true,&quot;segments&quot;:[[[685.18502,872.61899],[0,0],[1.43662,5.98084]],[[693.01062,884.03649],[-3.70218,-4.86454],[2.24742,2.23678]],[[699.59264,890.90413],[-2.72186,-1.62654],[0.9722,0.58098]],[[706.82094,891.32953],[-0.601,0.05898],[7.406,-0.72658]],[[726.8086,885.51977],[-6.97654,1.96418],[1.2142,-0.34184]],[[730.56748,885.08245],[-1.10602,0.60652],[2.30702,-1.26512]],[[734.3671,878.16373],[-0.68386,2.5407],[1.11344,-4.13668]],[[732.57348,864.12511],[1.20564,3.77476],[-0.59548,-1.8644]],[[730.63334,858.58331],[1.54934,1.19592],[-1.12408,-0.86766]],[[726.45242,859.40035],[1.41022,-0.16646],[-4.7625,0.5622]],[[712.46942,862.78461],[4.25664,-2.20872],[0,0]],[[709.1243,863.27397],[1.7568,0.3048],[-2.88902,2.03706]],[[699.0903,867.95487],[2.74046,-1.09482],[-4.28754,1.7129]],[[685.1907,871.99437],[4.76756,-0.4218],[0,0]]],&quot;closed&quot;:true,&quot;fillColor&quot;:[0,0,0,1]}]}" fill="#1b130b" stroke="none" stroke-width="0.5" stroke-linecap="butt"/><path d="" data-paper-data="{&quot;noHover&quot;:false,&quot;origItem&quot;:[&quot;Path&quot;,{&quot;applyMatrix&quot;:true,&quot;segments&quot;:[[[534.24752,820.15827],[0,0],[-4.04368,0.08802]],[[522.21394,821.21539],[3.95246,-0.81222],[-1.3621,0.26626]],[[510.4634,822.97835],[0.57882,-1.35172],[-1.33586,3.11964]],[[510.23336,835.31249],[0,-3.25428],[0,12.11958]],[[513.15144,871.41109],[-2.19068,-11.90282],[0.6726,3.65454]],[[517.2748,887.34391],[-3.32516,-2.37646],[3.6453,2.60526]],[[534.72606,889.33683],[-4.32258,0],[2.74784,0.54956]],[[542.9973,890.84037],[-2.70528,0.73084],[1.66574,-0.45002]],[[544.2577,885.81981],[-0.12208,1.72114],[0.32888,-4.6368]],[[543.33046,872.29307],[0.85138,4.52884],[-1.1888,-6.32378]],[[537.2817,856.00599],[1.2386,6.98638],[-0.92902,-5.24016]],[[537.2577,839.80517],[0.52952,5.28946],[-0.67414,-6.7343]],[[534.24754,820.15827],[0.19656,6.80238],[0,0]]],&quot;closed&quot;:true,&quot;fillColor&quot;:[0,0,0,1]}]}" fill="#1b130b" stroke="none" stroke-width="0.5" stroke-linecap="butt"/><path d="" data-paper-data="{&quot;noHover&quot;:false,&quot;origItem&quot;:[&quot;Path&quot;,{&quot;applyMatrix&quot;:true,&quot;segments&quot;:[[[644.56667,520.3125],[-10.74954,-0.02493],[3.36267,0.0078]],[[657.3306,521.84036],[-3.05094,0.66835],[1.47633,-0.32341]],[[657.56667,517.3125],[0.04604,1.51064],[-0.05077,-1.66589]],[[657.56667,512.3125],[0,1.66667],[0,0]],[[657.57078,512.18913],[-0.00411,0.07951],[-0.21417,-0.00276]],[[656.92826,512.1811],[0.21417,0.00259],[-0.00293,-2.76013]],[[656.93459,503.90085],[-0.01017,2.75998],[0.00586,-1.58768]],[[656.31577,495.58781],[1.02114,1.9155],[-2.49278,-4.6761]],[[639.82937,490.48677],[4.30574,0.4726],[0,0]],[[636.57153,488.90069],[1.32098,1.37088],[-1.41416,0.32306]],[[632.36463,489.80929],[1.36322,-0.31648],[-8.22084,1.90848]],[[605.46581,490.57783],[8.81122,0.25452],[2.4454,3.91253]],[[608.7703,504.32455],[-0.39088,-4.77593],[1.79637,1.46105]],[610.56667,508.3125],[[610.49864,510.49051],[0,0],[0.54381,3.26283]],[[612.31763,520.30909],[-0.32664,-3.21574],[10.74968,-0.00723]]],&quot;closed&quot;:true}]}" fill="#1b130b" stroke="none" stroke-width="0.5" stroke-linecap="butt"/><path d="" data-paper-data="{&quot;noHover&quot;:false,&quot;origItem&quot;:[&quot;Path&quot;,{&quot;applyMatrix&quot;:true,&quot;segments&quot;:[[[543.54233,513.80519],[0.25435,-1.57199],[-0.16076,0.99353]],[[542.23738,516.52799],[-0.14982,-0.99524],[0.09076,0.60292]],[[544.01629,516.95368],[-0.5763,-0.19908],[5.62853,1.94431]],[[559.05935,520.33683],[-5.90527,-0.5454],[5.35726,0.49479]],[[574.97907,523.32954],[-5.37617,-0.48875],[6.39739,0.58159]],[[594.56667,523.3125],[-6.42799,0],[1.05347,0]],[[597.74939,523.77999],[-1.06184,-0.22693],[0.76557,-2.95002]],[[602.32798,520.32402],[-0.86334,0.0657],[-0.39267,-2.8469]],[[600.73923,512.56397],[0.30508,1.24115],[-0.24825,0.0023]],[[599.99448,512.57075],[0.24825,-0.00221],[-0.31463,-0.78554]],[[599.28701,510.22629],[0.09634,0.77071],[-0.45798,-3.66384]],[[595.03927,494.42693],[5.15054,1.68118],[-2.34118,-0.76418]],[[587.69343,493.63671],[2.44862,0.2634],[0,0]],[[583.42357,489.59489],[0.44428,3.4953],[-12.37122,-1.33364]],[[546.30477,487.31331],[12.5632,0.22344],[-0.52082,7.35291]],[[544.01475,509.09149],[0.31456,-7.29039],[-0.14615,-0.02114]],[[543.57608,509.02896],[0.14629,0.02054],[0.04478,1.5967]]],&quot;closed&quot;:true}]}" fill="#1b130b" stroke="none" stroke-width="0.5" stroke-linecap="butt"/><path d="M338.6487,140.24248c-0.04283,-0.21353 -0.21464,-1.25298 -0.39165,-2.08678c-0.02285,-0.28447 -0.09614,-0.54895 -0.20626,-0.79857c-0.37492,-0.84988 -1.21213,-1.43363 -2.19127,-1.47211c-2.11231,-1.5827 -5.02735,-2.72467 -7.77404,-3.54281l0.07117,-0.78451c0.39886,-1.09804 0.80604,-2.19706 1.20078,-3.27435c0.76795,0.26819 1.53297,0.08977 1.53297,0.08977l0.00001,-0.00002c2.02306,-0.47808 5.0334,-1.26566 7.16725,-0.8199c1.41088,0.29473 0.95027,1.60199 1.11724,2.6119c0.15314,0.92625 0.17326,1.71602 0.07158,2.41468c0.1929,0.07632 0.36446,0.20305 0.49641,0.3587c0.015,0.78318 0.17007,1.7525 0.18555,3.02267c0.00106,0.08702 0.00198,0.17623 0.00287,0.26325l-0.03155,0.31611c-0.00933,0.10636 -0.03231,0.21153 -0.0666,0.30857c-0.0623,0.79193 -0.13441,1.64271 -0.09003,1.90851c0.05873,0.35179 0.11876,0.70628 0.18458,1.05367c-0.00679,1.53577 -0.03129,3.08533 -0.02059,4.62103c0.00006,0.00901 -0.05713,-0.06389 -0.05701,-0.05477c-0.47156,-1.80348 -1.05809,-3.42055 -1.20139,-4.13506z" data-paper-data="{&quot;noHover&quot;:false,&quot;origItem&quot;:[&quot;Path&quot;,{&quot;applyMatrix&quot;:true,&quot;segments&quot;:[[[283.03655,137.62096],[0,0],[0.04283,-0.21353]],[[283.42059,135.52328],[-0.17701,0.8338],[0.02285,-0.28447]],[[283.62404,134.71815],[-0.11012,0.24962],[0.37492,-0.84988]],[[285.81258,133.22817],[-0.97914,0.03848],[2.11231,-1.5827]],[[293.67924,129.66076],[-2.74669,0.81814],[0,0]],[[293.52553,128.93249],[0,0],[-0.39886,-1.09804]],[[292.33888,125.67086],[0.39474,1.07729],[-0.76795,0.26819]],[290.81287,125.76411],[[290.81286,125.76409],[0,0],[-2.02306,-0.47808]],[[283.68635,124.9428],[2.13385,-0.44576],[-1.41088,0.29473]],[[282.58067,127.54689],[0.16697,-1.00991],[-0.15314,0.92625]],[[282.51778,129.95129],[-0.10168,-0.69866],[-0.1929,0.07632]],[[282.02356,130.3062],[0.13195,-0.15565],[-0.015,0.78318]],[[281.84365,133.30565],[0.01548,-1.27017],[-0.00106,0.08702]],[[281.84072,133.5667],[0.00089,-0.08702],[0,0]],[[281.87207,133.88016],[0,0],[0.00933,0.10636]],[[281.93834,134.18611],[-0.03429,-0.09704],[0.0623,0.79193]],[[282.02391,136.08036],[0.04438,-0.2658],[-0.05873,0.35179]],[[281.83633,137.12871],[0.06582,-0.34739],[0.00679,1.53577]],[[281.84365,141.73599],[0.0107,-1.5357],[-0.00006,0.00901]],[[281.84338,141.76319],[0.00012,-0.00912],[0.47156,-1.80348]],[[283.03655,137.62094],[-0.1433,0.71451],[0,0]]],&quot;closed&quot;:true,&quot;fillColor&quot;:[0,0,0,1]}],&quot;index&quot;:null}" fill="#385130" stroke="none" stroke-width="0.5" stroke-linecap="butt"/><path d="M283.8771,141.10297c0.44278,-2.67525 -0.05774,-6.22473 0.01083,-7.40896c0.02499,-0.43163 0.3123,-1.55814 0.35158,-2.48807c0.0194,-0.02322 0.0403,-0.04668 0.06209,-0.06889c-0.02639,-0.51591 -0.35195,-2.32947 0.38467,-2.78891c1.84085,-1.14815 4.59775,-1.45042 6.67199,-1.4134c0,0 0.05787,0.00024 0.15448,-0.00834c1.31182,2.44546 2.7428,4.90285 4.0914,7.32954c-2.05118,0.66561 -4.50107,1.6058 -6.63404,2.8181c-0.04174,0.00752 -0.08559,0.01551 -0.12799,0.0249c-0.01166,-0.00946 -0.02402,-0.01913 -0.0358,-0.02865c-0.00965,0.01446 -0.01958,0.02883 -0.02933,0.04327c-1.62474,0.39233 -3.70949,2.096 -4.89988,3.9894z" data-paper-data="{&quot;noHover&quot;:false,&quot;origItem&quot;:[&quot;Path&quot;,{&quot;applyMatrix&quot;:true,&quot;segments&quot;:[[[337.78423,131.04145],[0.06857,1.18423],[-0.02499,-0.43163]],[[337.43807,128.5734],[0.03928,0.92993],[-0.0194,-0.02322]],[[337.37632,128.50516],[0.02179,0.02221],[0.02639,-0.51591]],[[337.00258,125.73016],[0.73662,0.45944],[-1.84085,-1.14815]],[[330.37501,124.32813],[2.07424,-0.03702],[0,0]],[[330.22152,124.31955],[0.09661,0.00858],[-1.31182,2.44546]],[[326.1679,131.59859],[1.3486,-2.42669],[2.05118,0.66561]],[[332.73989,134.37019],[-2.13297,-1.2123],[0.04174,0.00752]],[[332.8661,134.39557],[-0.0424,-0.00939],[0.01166,-0.00946]],[[332.90126,134.36711],[-0.01178,0.00952],[0.00965,0.01446]],[[332.93036,134.41045],[-0.00975,-0.01444],[1.62474,0.39233]],[[337.81313,138.40909],[-1.19039,-1.8934],[-0.44278,-2.67525]]],&quot;closed&quot;:true,&quot;fillColor&quot;:[0,0,0,1]}],&quot;index&quot;:null}" fill="#385130" stroke="none" stroke-width="0.5" stroke-linecap="butt"/><path d="" data-paper-data="{&quot;index&quot;:null}" fill="#000000" stroke="none" stroke-width="0.5" stroke-linecap="butt"/><path d="M325.71882,96.073c2.67476,3.80482 5.69117,7.63066 8.00198,11.65092c0.4072,0.70842 0.65599,1.50829 1.10073,2.19376c0.18117,0.27922 0.95021,0.39769 0.748,0.66208c-0.30692,0.40129 -0.98558,0.23123 -1.48556,0.30367c-2.12419,0.30778 -4.24435,0.69084 -6.38245,0.87895c-7.30757,0.64292 -15.03649,-0.23811 -22.38337,-0.23811c-4.7945,0.01664 -9.59386,-0.79551 -14.40512,-1.02208c-1.58667,-0.07472 -3.19604,-0.2529 -4.77666,-0.13697c2.65843,-2.39755 4.89686,-6.97782 6.5309,-9.56394c0.01689,-0.02673 1.86419,-3.53115 2.26452,-3.75301c3.92904,-2.17747 10.6537,-1.61441 14.9091,-1.61441c5.39375,0 10.61605,-0.16019 15.87794,0.63913z" data-paper-data="{&quot;noHover&quot;:false,&quot;origItem&quot;:[&quot;Path&quot;,{&quot;applyMatrix&quot;:true,&quot;segments&quot;:[[[592.09546,186.88092],[0,0],[-5.34952,7.60966]],[[576.101,210.11974],[4.62162,-8.04052],[-0.8144,1.41684]],[[573.89784,214.49948],[0.88948,-1.37094],[-0.36234,0.55844]],[[572.40138,215.82194],[-0.40442,-0.52878],[0.61384,0.80258]],[[575.3717,216.42654],[-0.99996,-0.14488],[4.24838,0.61556]],[[588.13124,218.1708],[-4.2762,-0.37622],[14.61514,1.28584]],[[632.74998,217.65624],[-14.69376,0],[9.589,0.0333]],[[661.5234,215.66138],[-9.62252,0.45314],[3.17334,-0.14944]],[[671.07482,215.3937],[-3.16124,-0.23186],[-5.31686,-4.79508]],[[658.0108,196.30756],[3.26808,5.17224],[-0.03378,-0.05346]],[[653.48822,188.82432],[0.80066,0.44372],[-7.85808,-4.35494]],[[623.74996,185.65626],[8.5108,0],[-10.7875,0]],[[592.09542,186.88094],[10.52378,-1.59864],[0,0]]],&quot;closed&quot;:true,&quot;fillColor&quot;:[0,0,0,1]}],&quot;index&quot;:null}" fill="#385130" stroke="none" stroke-width="0.5" stroke-linecap="butt"/><path d="M323.34337,130.77005c-1.16172,-0.04457 -2.38016,-0.21033 -3.21682,0.49376c-3.1576,2.65728 0.43248,7.19071 -3.73118,8.37143c-1.76964,0.50184 -4.72105,-0.25403 -6.46612,-0.53271c-0.46278,-0.07391 -1.05551,0.15061 -1.40253,-0.16436c-1.11688,-1.0137 -0.18372,-3.16544 -1.03476,-4.41072c-2.38679,-3.49244 -3.23133,-2.8617 -6.69126,-3.02526l-1.11474,-0.00173c-2.8952,-5.16107 -6.0399,-10.29166 -7.90055,-15.93955c4.52108,0.25379 9.01762,0.86302 13.5415,0.87679c7.71861,0 15.73111,0.81079 23.43639,0.07488c-1.98062,4.37213 -3.55133,8.80087 -5.21641,13.37474l-0.20352,0.88272z" data-paper-data="{&quot;noHover&quot;:false,&quot;origItem&quot;:[&quot;Path&quot;,{&quot;applyMatrix&quot;:true,&quot;segments&quot;:[[[603.28497,257.18272],[-1.67332,-1.40818],[6.31519,5.31455]],[[610.69892,273.87079],[-8.32731,-2.36145],[3.53929,1.00367]],[[623.5826,272.79444],[-3.49013,0.55736],[0.92557,-0.14781]],[[626.37534,272.46685],[-0.69405,0.62993],[2.23376,-2.0274]],[[628.42258,263.65157],[-1.70209,2.49057],[4.77358,-6.98488]],[[641.75,257.65625],[-6.91986,0.32711],[0,0]],[[643.97816,257.65625],[0,0],[5.79041,-10.32215]],[[659.78966,225.86595],[-3.7213,11.29577],[-9.04216,0.50758]],[[632.75,227.65625],[9.04776,-0.02754],[-15.43723,0]],[[586.00313,227.76618],[15.41056,1.47182],[3.96123,8.74426]],[[596.44897,254.44753],[-3.33017,-9.14774],[0,0]],[[596.85468,256.20637],[0,0],[2.32343,-0.08913]]],&quot;closed&quot;:true}],&quot;index&quot;:null}" fill="#131313" stroke="none" stroke-width="0.5" stroke-linecap="butt"/><path d="M306.08319,127.62411h-4.38889l-2.33333,-4.5l2.22222,-4.33334h4.05556l2.44444,4.16667z" data-paper-data="{&quot;index&quot;:null}" fill="#9d0201" stroke="#323231" stroke-width="2" stroke-linecap="round"/><path d="M310.44428,133.35672h0.11111c2.00799,0 3.99231,0.11111 6,0.11111c0,0 0.25,0 0.25,0.25c0,0.25 -0.25,0.25 -0.25,0.25c-2.00778,0 -3.99202,-0.11111 -6,-0.11111h-0.11111c0,0 -0.25,0 -0.25,-0.25c0,-0.25 0.25,-0.25 0.25,-0.25z" data-paper-data="{&quot;index&quot;:null}" fill="#000000" stroke="none" stroke-width="0.5" stroke-linecap="butt"/><path d="M310.69856,135.14735l0.37234,-0.12071c1.71688,-0.01144 3.44822,-0.10993 5.15116,-0.11434c0,0 0.25,0 0.25,0.25c0,0.25 -0.25,0.25 -0.25,0.25c-1.67671,-0.00486 -3.37895,0.12139 -5.07106,0.10788l-0.29433,0.10151c0,0 -0.23718,0.07906 -0.31623,-0.15811c-0.07905,-0.23717 0.15812,-0.31623 0.15812,-0.31623z" data-paper-data="{&quot;index&quot;:null}" fill="#000000" stroke="none" stroke-width="0.5" stroke-linecap="butt"/><path d="M309.66246,136.91232l0.33687,-0.00546c1.98494,-0.09118 3.99733,-0.43624 6.00053,-0.43902c0,0 0.25,0 0.25,0.25c0,0.25 -0.25,0.25 -0.25,0.25c-1.99721,-0.00304 -4.00534,0.3446 -5.98478,0.43878l-0.34449,0.00563c0,0 -0.24996,0.00407 -0.25403,-0.2459c-0.00407,-0.24997 0.2459,-0.25403 0.2459,-0.25403z" data-paper-data="{&quot;index&quot;:null}" fill="#000000" stroke="none" stroke-width="0.5" stroke-linecap="butt"/><path d="M306.08319,127.62411h-4.38889l-2.33333,-4.5l2.22222,-4.33334h4.05556l2.44444,4.16667z" data-paper-data="{&quot;index&quot;:null}" fill="none" stroke="#1a1a1a" stroke-width="0.5" stroke-linecap="round"/><g data-paper-data="{&quot;index&quot;:null}" fill="#000000" stroke="none" stroke-width="1" stroke-linecap="butt" font-family="&quot; Pro W3&quot;, &quot;Hiragino Kaku Gothic Pro&quot;, Osaka, &quot;&quot;, Meiryo, &quot; &quot;, &quot;MS PGothic&quot;" font-weight="normal" font-size="40" text-anchor="start"><text transform="translate(333.34708,108.25848) rotate(-180) scale(0.03846,-0.03846)" font-size="40" xml:space="preserve" fill="#000000" fill-rule="nonzero" stroke="none" stroke-width="1" stroke-linecap="butt" stroke-linejoin="miter" stroke-miterlimit="10" stroke-dasharray="" stroke-dashoffset="0" font-family="&quot; Pro W3&quot;, &quot;Hiragino Kaku Gothic Pro&quot;, Osaka, &quot;&quot;, Meiryo, &quot; &quot;, &quot;MS PGothic&quot;" font-weight="normal" text-anchor="start" style="mix-blend-mode: normal"><tspan x="0" dy="0">The Black Mesa</tspan><tspan x="0" dy="46.150000000000006px">Pivovar13</tspan></text><text transform="translate(326.93683,109.21777) rotate(-180) scale(0.01021,-0.01021)" font-size="40" xml:space="preserve" fill="#000000" fill-rule="nonzero" stroke="none" stroke-width="1" stroke-linecap="butt" stroke-linejoin="miter" stroke-miterlimit="10" stroke-dasharray="" stroke-dashoffset="0" font-family="&quot; Pro W3&quot;, &quot;Hiragino Kaku Gothic Pro&quot;, Osaka, &quot;&quot;, Meiryo, &quot; &quot;, &quot;MS PGothic&quot;" font-weight="normal" text-anchor="start" style="mix-blend-mode: normal"><tspan x="0" dy="0">TM</tspan></text></g><g data-paper-data="{&quot;index&quot;:null}"><path d="M320.23524,188.70146l9,-1.44445l2.55555,14.33334l-7.88889,2.44444z" fill="#121212" stroke="#000000" stroke-width="0" stroke-linecap="round"/><path d="M331.42713,192.11937c-2.33132,-1.13033 -1.55937,-5.03636 -2.36364,-4.54545c-0.90163,0.55034 0.63636,5.09091 0.63636,5.09091l2.27273,9.09091l-8.09091,2.18182l-2.81818,-8.54546l-0.72727,-6.72727h-0.81818l-0.54546,-0.54546l-8.54546,0.09091l0.18182,3l-0.72727,0.72728l-0.90341,-0.14844l-1.875,3.375l0.625,0.75l-1.375,1.25l-7.25,-2.375l5.875,-9.25v-2.125l-4,-2.5l-34,9.375l-2.375,-15.25l38.125,-2.25l-0.02841,-1.12428h1.18182l1.36364,-3.09091l0.90909,-0.09091l0.09091,-2l1.54546,-1.18182l3.27273,-0.27273c0,0 17.51031,0.40434 19.36364,1.18181c1.4205,0.5959 0.63636,4.72728 0.63636,4.72728l2.81819,0.63636l0.18182,-1.27273l28.54545,-0.36363l1,-3.63637l5.09091,-0.18181l0.45454,0.45454l10.54546,0.09091l4.45454,-5.72728l3.54546,-0.09091l-0.72727,11.72728h13.27273l1.09091,-1.09091h9.36364v4.81818l-9.45455,0.09091l-0.90909,-1l-13.81818,0.18182l1,1.45455l-0.09091,1.63637h-2.90909v-3h-5l-0.27273,0.81818l-1.54545,0.09091l-0.63637,3h-0.81818l0.18182,1l11.45455,0.18182l2,2v2.45454l-1.27273,2.18182l-20.27273,0.09091l-1.09091,1.36364h-27.63637c0,0 -0.29326,2.59003 -1.54545,3.09091c-1.25219,0.50088 -4.30503,1.31216 -6.63636,0.18182z" fill="#121111" stroke="#000000" stroke-width="1" stroke-linecap="round"/><path d="M313.60899,167.3921l15.18182,-0.18182l0.90909,1.18182l-0.09091,2.18182l-16.90909,0.63636l-0.18182,-1.45454z" fill="#000000" stroke="#000000" stroke-width="1" stroke-linecap="round"/><path d="M313.52414,185.08758c0,0 0.86066,1.06363 1.46667,1.33334c0.50661,0.22546 -0.73334,-1.53334 -0.73334,-1.53334l0.26667,-1.26667c0,0 2.85332,-0.30143 3.86666,0.6c0.694,0.61736 1.63086,2.42854 0.06666,3c-1.48294,0.54178 -4.26666,-0.06667 -4.26666,-0.06667c0,0 -1.79093,-0.64872 -1.93334,-1.53333c-0.22487,-1.39674 1,-2.06667 1,-2.06667z" fill="#000000" stroke="#000000" stroke-width="0.5" stroke-linecap="round"/><path d="M340.61222,176.23667l0.57143,-1h1.28571l0.57143,0.85715l-0.5,1.07143l-1.28571,0.07143z" fill="#000000" stroke="#000000" stroke-width="0.5" stroke-linecap="round"/><path d="M343.46937,173.12954l0.57142,-1.10714h1.28572l0.57143,0.94898l-0.5,1.18622l-1.28572,0.07908z" fill="#000000" stroke="#000000" stroke-width="0.5" stroke-linecap="round"/><path d="M347.0408,176.27238l0.57142,-1.10714h1.28572l0.57143,0.94898l-0.5,1.18623l-1.28571,0.07908z" fill="#000000" stroke="#000000" stroke-width="0.5" stroke-linecap="round"/><path d="M349.7551,172.98667l0.57142,-1.32143h1.28571l0.57143,1.13266l-0.5,1.41581l-1.28571,0.09439z" fill="#000000" stroke="#000000" stroke-width="0.5" stroke-linecap="round"/><path d="M356.11224,172.98666l0.60504,-1.32142h1.36134l0.60504,1.13266l-0.52941,1.41581l-1.36135,0.09439z" fill="#000000" stroke="#000000" stroke-width="0.5" stroke-linecap="round"/><path d="M353.32653,176.27239l0.57142,-1.32142h1.28571l0.57143,1.13265l-0.5,1.41581l-1.28571,0.09439z" fill="#000000" stroke="#000000" stroke-width="0.5" stroke-linecap="round"/><path d="M359.75508,176.41525l0.57143,-1.32142h1.28572l0.57143,1.13265l-0.5,1.41582l-1.28571,0.09438z" fill="#000000" stroke="#000000" stroke-width="0.5" stroke-linecap="round"/><path d="M362.68366,172.98667l0.57143,-1.32143h1.28571l0.57143,1.13266l-0.5,1.41581l-1.28572,0.09439z" fill="#000000" stroke="#000000" stroke-width="0.5" stroke-linecap="round"/><path d="M366.11224,176.12954l0.57142,-1.32143h1.28571l0.57143,1.13265l-0.5,1.41582l-1.28572,0.09438z" fill="#000000" stroke="#000000" stroke-width="0.5" stroke-linecap="round"/><path d="M383.33246,167.69278l0.75,0.08333l-0.33333,2.83333l-2.91667,-0.16667l0.08334,-1l2.41666,-3.41667z" fill="#000000" stroke="#000000" stroke-width="0.5" stroke-linecap="round"/><path d="M380.58246,172.85945v-1h3.16667v1z" fill="#000000" stroke="none" stroke-width="0" stroke-linecap="butt"/><path d="M369.0289,172.90335l0.60504,-1.32143h1.36135l0.60504,1.13265l-0.52941,1.41582l-1.36135,0.09438z" fill="#000000" stroke="#000000" stroke-width="0.5" stroke-linecap="round"/><path d="M372.67175,176.33191l0.57143,-1.32143h1.28571l0.57143,1.13266l-0.5,1.41582l-1.28571,0.09438z" fill="#000000" stroke="#000000" stroke-width="0.5" stroke-linecap="round"/><path d="M375.60033,172.90334l0.57143,-1.32142h1.28571l0.57143,1.13265l-0.5,1.41581l-1.28571,0.09439z" fill="#000000" stroke="#000000" stroke-width="0.5" stroke-linecap="round"/><path d="M331.9143,188.78277c0,0 0.93012,1.14948 1.58504,1.44095c0.5475,0.24366 -0.79253,-1.6571 -0.79253,-1.6571l0.28819,-1.3689c0,0 3.08362,-0.32575 4.17876,0.64843c0.75003,0.66719 1.76251,2.62455 0.07205,3.24214c-1.60264,0.58551 -4.61104,-0.07205 -4.61104,-0.07205c0,0 -1.93547,-0.70108 -2.08938,-1.65709c-0.24302,-1.50948 1.08071,-2.23348 1.08071,-2.23348z" fill="#000000" stroke="#000000" stroke-width="0.5" stroke-linecap="round"/></g><path d="M300.49876,123.19854l1.61235,-3.26104l87.66667,-26.88889v57.33334l-87.55556,-23.88889z" fill="url(#color-1)" stroke="#323231" stroke-width="0" stroke-linecap="round"/></g></g></svg>