<svg version="1.1" xmlns="http://www.w3.org/2000/svg" xmlns:xlink="http://www.w3.org/1999/xlink" width="164.06856" height="176.50357" viewBox="0,0,164.06856,176.50357"><defs><linearGradient x1="302.11111" y1="121.71528" x2="389.77778" y2="121.71528" gradientUnits="userSpaceOnUse" id="color-1"><stop offset="0" stop-color="#ff0000" stop-opacity="0.25882"/><stop offset="1" stop-color="#ff0000" stop-opacity="0"/></linearGradient></defs><g transform="translate(-247.13129,-90.74824)"><g data-paper-data="{&quot;isPaintingLayer&quot;:true}" fill-rule="nonzero" stroke-linejoin="miter" stroke-miterlimit="10" stroke-dasharray="" stroke-dashoffset="0" style="mix-blend-mode: normal"><path d="M308.53903,186.87697c0.82764,1.64209 1.35797,3.73612 0.54385,4.91643c-0.88259,1.27956 -5.32217,2.47276 -6.693,2.89992c-1.30491,0.40662 -2.53833,1.02784 -3.81562,1.51298c0.01698,-0.11001 0.12713,-0.2559 0.14375,-0.36594c-1.64032,1.17741 -3.74568,1.90461 -5.91891,1.90461c-1.65447,0 -3.21676,-0.40755 -4.5913,-1.11887c-1.04778,-0.54223 -1.98834,-1.26985 -2.779,-2.13094c-3.07119,-4.73644 -0.82259,-9.72771 -0.7935,-15.45667c0,0 0.00109,-1.18135 -0.80895,-1.92001c0.02869,-0.73102 0.08235,-1.48575 0.16509,-2.28344c0.74031,-7.13686 1.94446,-14.13905 2.42333,-21.30376c0.20301,-3.03736 -0.00693,-5.88981 1.06557,-8.63055c1.3396,-0.90887 2.5709,-2.11158 3.14344,-2.99594c0.85288,-0.45002 1.73177,-0.82332 2.45902,-1.14755c1.54017,-0.68667 3.08167,-1.40892 4.69873,-1.88723l1.40102,-0.65876c0,0 1.00298,-0.50103 1.33032,-1.50261c3.77026,-0.24964 1.49484,3.65656 4.11884,6.1106c1.22906,1.14945 4.15363,1.86613 6.98333,2.11377c0.77067,0.03397 1.54437,0.06671 2.31639,0.09705c1.35911,-0.00904 2.56705,-0.14451 3.37513,-0.41231c1.88892,-0.62599 4.95012,-3.25773 5.66095,-5.13016c0.36164,-0.95262 -0.07262,-1.94189 -0.16432,-2.95671c-0.00172,-0.01901 0.01874,-0.13574 0.01418,-0.15579c0.38338,0.21216 0.70669,0.28679 0.70669,0.28679c3.22048,0.7154 7.22768,1.96818 9.59101,4.43944c0.35018,1.56589 1.15058,3.25921 1.5568,4.98378c0.03776,7.34397 0.66264,14.683 0.78845,22.03806l-0.02849,0.0813c0,0 -0.11442,0.57763 0.04645,1.2275c0.0031,0.35389 0.0057,0.70877 0.00614,1.0628c-0.42777,0.36749 -0.7652,0.95003 -0.7652,1.86977c0,2.5 2.50304,2.50442 2.50304,2.50442c0.32864,-0.00014 7.03622,-0.02045 7.52867,0.06252c0.95612,0.16108 0.17526,1.9373 0.34863,2.89127c0.61808,3.40103 1.94844,6.4273 1.34746,10.06419c-0.83545,5.05573 -6.99503,4.20713 -10.74585,4.01183c-0.90406,-0.04707 -3.55162,-0.20556 -4.47174,-0.88341c-0.84872,-0.62526 -2.79802,-3.95013 -3.14144,-4.49621c-1.12322,-1.13337 -2.69397,-1.96264 -3.32523,-3.42814c-0.85276,-1.97972 -0.11994,-5.64385 -0.48943,-7.76775c-1.22801,-7.05885 -0.40003,-14.35182 -1.29662,-21.5246l0.01967,-1.02312c0,0 0.00353,-2.49891 -2.49647,-2.49891c-2.5,0 -2.49787,2.50052 -2.49787,2.50052l0.04156,1.54593c0.90821,7.26563 0.08592,14.64189 1.36909,21.8054c0.50073,2.7954 -0.28243,6.25455 0.84932,8.90209c0.55779,1.30486 2.94516,3.5252 4.01054,4.57982c1.10427,1.77852 2.44463,4.28202 4.1899,5.5079c0.77974,0.54769 1.69367,0.88084 2.62099,1.14502c0.04954,0.50826 0.10607,1.02097 0.16982,1.53143c0.03467,0.00421 0.06934,0.00842 0.104,0.01269c-0.1733,0.82296 0.12899,1.58403 0.12899,1.58403c3.73679,9.34199 9.27715,18.15865 14.13076,26.81474c1.51683,2.70517 2.64033,6.66444 3.20876,9.6785c0.43011,2.28062 -0.09925,4.5366 0.47568,6.8731c-1.05004,2.81082 -6.34138,3.68585 -9.00717,4.28141c-1.25377,0.2801 -1.88824,0.90186 -2.99084,-0.03185c-0.94593,-0.80103 -1.37274,-2.9005 -1.84127,-3.74054c-0.93935,-1.68416 -2.00629,-3.30641 -3.20948,-4.81343c-4.02117,-5.0366 -8.32235,-10.09108 -13.47864,-13.9583l-0.02845,-0.09642c0.28885,-0.47942 0.55878,-0.96677 0.78096,-1.47864c0.14921,-0.34376 1.03935,-4.90287 1.16443,-5.52828l0.49743,-2.49876c0,0 0.53562,-2.36232 -1.91583,-2.85261c-2.45145,-0.49029 -2.94879,1.96402 -2.94879,1.96402l-0.50234,2.50069c-0.29721,1.48605 -0.20197,3.09325 -0.83404,4.47062c-0.6839,1.49031 -1.79288,2.77385 -2.40186,4.29631c-2.55192,3.33305 -5.0184,7.14869 -8.3699,9.75421c-5.00294,3.88938 -11.34838,6.97219 -16.99534,9.68473c-1.70687,0.81991 -4.68468,0.28017 -6.48399,0.28017c-3.2055,0 -6.41651,-0.00344 -9.62201,-0.00344c-0.19017,-0.43194 -0.33739,-0.87793 -0.40836,-1.34726c-0.38702,-2.5595 0.26711,-5.31742 0.00886,-7.90214c-0.32636,-3.26644 -1.46073,-6.24317 -1.49233,-9.53955c0.66112,-0.06186 1.39431,-0.21222 2.04759,-0.33006c0.88327,-0.15933 1.62115,-0.81547 2.49936,-1.0007c1.77029,-0.37339 3.64077,0.31116 5.42475,0.00991c4.47404,-0.75549 9.07593,-3.0633 11.98258,-6.33413c2.29386,-2.58125 4.51018,-3.84954 5.47099,-7.40927c0.76975,-2.85183 1.06148,-6.20621 1.07454,-9.15457c0,0 -0.00054,-0.12071 -0.02686,-0.30823c0.22834,-0.04142 0.5331,-0.1548 0.7627,-0.20992c1.06423,-0.25549 1.93111,-1.04309 2.95694,-1.42458c3.72176,-1.38405 9.42879,-2.00556 11.85715,-5.70141c1.95922,-2.98184 0.67647,-8.27013 -1.01693,-10.9286c-2.36496,-3.71273 -5.46916,-3.6786 -8.71326,-5.21461c-0.26346,-0.33228 -0.59782,-0.54503 -0.91939,-0.68031c-0.53189,-1.27049 -1.09667,-2.6798 -1.54838,-4.01131c0.3329,-4.76454 0.31627,-9.5543 -0.04801,-14.33247l0.00797,-1.80841c0,0 0.02548,-2.40333 -2.47452,-2.40333l-0.00001,-0.00004c-1.21966,0 -1.84127,0.59404 -2.16117,1.20351c-1.36872,0.60877 -1.36609,2.28084 -1.36609,2.28084c0,3.70951 -0.59414,8.03444 0.03189,11.67598c0.2433,1.41526 0.61983,2.84376 1.07128,4.2627c-0.08077,0.92645 -0.17691,1.84504 -0.2975,2.75953c0.07626,0.04131 0.15167,0.08376 0.22658,0.12703c-0.114,0.78924 0.18545,1.48248 0.18545,1.48248c0.51003,1.03877 0.64541,2.22321 1.45741,3.04772c1.7786,1.80601 6.1385,3.03298 8.51111,3.6453l0.17099,0.67619c0,0 0.95493,0.93523 2.14936,0.75901z" data-paper-data="{&quot;noHover&quot;:false,&quot;origItem&quot;:[&quot;Path&quot;,{&quot;applyMatrix&quot;:true,&quot;segments&quot;:[[306.41181,186.16279],[[306.2399,185.48704],[0,0],[-2.37261,-0.61232]],[[297.74514,181.82945],[1.7786,1.80601],[-0.812,-0.82451]],[[296.21504,178.71315],[0.51003,1.03877],[0,0]],[[296.03127,177.22909],[-0.114,0.78924],[-0.07491,-0.04327]],[[295.80453,177.1022],[0.07626,0.04131],[0.12059,-0.91449]],[[296.10568,174.33966],[-0.08077,0.92645],[-0.45145,-1.41894]],[[295.03707,170.0751],[0.2433,1.41526],[-0.62603,-3.64154]],[[295.0129,158.39501],[0,3.70951],[0,0]],[[296.38162,156.11314],[-1.36872,0.60877],[0.3199,-0.60947]],[[298.54581,154.90865],[-1.21966,0],[0,0]],[[298.54582,154.90869],[0,0],[2.5,0]],[301.04582,157.40869],[[301.03846,159.21695],[0,0],[0.36428,4.77817]],[[301.09458,173.54662],[0.3329,-4.76454],[0.45171,1.33151]],[[302.60175,177.46682],[-0.53189,-1.27049],[0.32157,0.13528]],[[303.52283,178.14639],[-0.26346,-0.33228],[3.2441,1.53601]],[[312.27184,183.35997],[-2.36496,-3.71273],[1.6934,2.65847]],[[313.31516,194.36141],[1.95922,-2.98184],[-2.42836,3.69585]],[[301.38028,200.07306],[3.72176,-1.38405],[-1.02583,0.38149]],[[298.42063,201.4948],[1.06423,-0.25549],[-0.2296,0.05512]],[[297.73371,201.63949],[0.22834,-0.04142],[0.02632,0.18752]],[[297.76003,201.94709],[0,0],[-0.01306,2.94836]],[[296.67523,211.09269],[0.76975,-2.85183],[-0.96081,3.55973]],[[291.14866,218.58509],[2.29386,-2.58125],[-2.90665,3.27083]],[[279.16048,224.9148],[4.47404,-0.75549],[-1.78398,0.30125]],[[273.73279,224.90197],[1.77029,-0.37339],[-0.87821,0.18523]],[[271.23279,225.90197],[0.88327,-0.15933],[-0.65328,0.11784]],[[269.26049,226.16622],[0.66112,-0.06186],[0.0316,3.29638]],[[270.74786,235.70074],[-0.32636,-3.26644],[0.25825,2.58472]],[[270.73586,243.60033],[-0.38702,-2.5595],[0.07097,0.46933]],[[271.14352,244.94708],[-0.19017,-0.43194],[3.2055,0]],[[280.76002,244.94708],[-3.2055,0],[1.79931,0]],[[287.2396,244.66481],[-1.70687,0.81991],[5.64696,-2.71254]],[[304.22149,234.97656],[-5.00294,3.88938],[3.3515,-2.60552]],[[312.58061,225.22226],[-2.55192,3.33305],[0.60898,-1.52246]],[[314.97776,220.92665],[-0.6839,1.49031],[0.63207,-1.37737]],[[315.80857,216.45678],[-0.29721,1.48605],[0,0]],[316.30857,213.95678],[[319.25031,211.99562],[-2.45145,-0.49029],[2.45145,0.49029]],[321.21147,214.93736],[[320.71147,217.43736],[0,0],[-0.12508,0.62541]],[[319.54228,222.96749],[0.14921,-0.34376],[-0.22218,0.51187]],[[318.75962,224.44666],[0.28885,-0.47942],[0,0]],[[318.76003,224.44709],[0,0],[5.15629,3.86722]],[[332.23054,238.40856],[-4.02117,-5.0366],[1.20319,1.50702]],[[335.43944,243.22228],[-0.93935,-1.68416],[0.46853,0.84004]],[[337.28075,246.9628],[-0.94593,-0.80103],[1.1026,0.93371]],[[340.26974,246.99564],[-1.25377,0.2801],[2.66579,-0.59556]],[[349.2705,242.71852],[-1.05004,2.81082],[-0.57493,-2.3365]],[[348.79231,235.84754],[0.43011,2.28062],[-0.56843,-3.01406]],[[345.58062,226.1719],[1.51683,2.70517],[-4.85361,-8.65609]],[[331.43884,199.37556],[3.73679,9.34199],[0,0]],[[331.30893,197.79459],[-0.1733,0.82296],[-0.03466,-0.00427]],[[331.20494,197.78187],[0.03467,0.00421],[-0.06375,-0.51046]],[[331.03439,196.25359],[0.04954,0.50826],[-0.92732,-0.26418]],[[328.41312,195.11012],[0.77974,0.54769],[-1.74527,-1.22588]],[[324.22314,189.61806],[1.10427,1.77852],[-1.06538,-1.05462]],[[320.21967,185.05717],[0.55779,1.30486],[-1.13175,-2.64754]],[[319.38568,176.17056],[0.50073,2.7954],[-1.28317,-7.16351]],[[318.03223,154.37177],[0.90821,7.26563],[0,0]],[318.01292,152.72835],[[320.51292,150.22835],[-2.5,0],[2.5,0]],[323.01292,152.72835],[[322.99362,153.7516],[0,0],[0.89659,7.17278]],[[324.30684,175.28615],[-1.22801,-7.05885],[0.36949,2.1239]],[[324.80618,183.06621],[-0.85276,-1.97972],[0.63126,1.4655]],[[328.13604,186.50531],[-1.12322,-1.13337],[0.34342,0.54608]],[[331.27939,191.01325],[-0.84872,-0.62526],[0.92012,0.67785]],[[335.65117,191.89885],[-0.90406,-0.04707],[3.75082,0.1953]],[[346.39731,187.89236],[-0.83545,5.05573],[0.60098,-3.63689]],[[345.05304,177.84108],[0.61808,3.40103],[-0.17337,-0.95397]],[[344.70584,174.95309],[0.95612,0.16108],[-0.49245,-0.08297]],[[337.17959,174.89502],[0.32864,-0.00014],[0,0]],[[334.67959,172.39502],[0,2.5],[0,-0.91974]],[[335.44572,170.52642],[-0.42777,0.36749],[-0.00044,-0.35403]],[[335.44035,169.46454],[0.0031,0.35389],[-0.16087,-0.64987]],[335.3948,168.23806],[[335.42333,168.1568],[0,0],[-0.12581,-7.35506]],[[334.64764,146.12884],[0.03776,7.34397],[-0.40622,-1.72457]],[[333.09384,141.14659],[0.35018,1.56589],[-2.36333,-2.47126]],[[323.51158,136.7103],[3.22048,0.7154],[0,0]],[[322.80553,136.42367],[0.38338,0.21216],[0.00456,0.02005]],[[322.81506,136.48231],[-0.00172,-0.01901],[0.0917,1.01482]],[[322.95488,139.53597],[0.36164,-0.95262],[-0.71083,1.87243]],[[317.29819,144.66705],[1.88892,-0.62599],[-0.80808,0.2678]],[[313.92649,145.07982],[1.35911,-0.00904],[-0.77202,-0.03034]],[[311.61255,144.98295],[0.77067,0.03397],[-2.8297,-0.24764]],[[304.63641,142.86902],[1.22906,1.14945],[-2.624,-2.45404]],[[300.5207,136.75802],[3.77026,-0.24964],[-0.32734,1.00158]],[299.19178,138.26039],[[297.79211,138.91888],[0,0],[-1.61706,0.47831]],[[293.09788,140.80491],[1.54017,-0.68667],[-0.72725,0.32423]],[[290.64124,141.95164],[0.85288,-0.45002],[-0.57254,0.88436]],[[287.50136,144.9461],[1.3396,-0.90887],[-1.0725,2.74074]],[[286.44034,153.57425],[0.20301,-3.03736],[-0.47887,7.16471]],[[284.03285,174.86306],[0.74031,-7.13686],[-0.08274,0.79769]],[[283.86955,177.14365],[0.02869,-0.73102],[0.81004,0.73866]],[[284.67959,179.06169],[0,0],[-0.02909,5.72896]],[[285.47851,194.48983],[-3.07119,-4.73644],[0.79066,0.86109]],[[288.2566,196.61524],[-1.04778,-0.54223],[1.37454,0.71132]],[[292.84625,197.72835],[-1.65447,0],[2.17323,0]],[[298.67111,195.8577],[-1.64032,1.17741],[-0.01662,0.11004]],[[298.6207,196.18777],[0.01698,-0.11001],[1.27729,-0.48514]],[[302.4363,194.67474],[-1.30491,0.40662],[1.37083,-0.42716]],[[309.044,191.76196],[-0.88259,1.27956],[0.81412,-1.18031]],[[308.54613,186.92646],[0.82764,1.64209],[-1.19443,0.17622]]],&quot;closed&quot;:true,&quot;fillColor&quot;:[0,0,0,1]}]}" fill="#7b8a52" stroke="none" stroke-width="0.5" stroke-linecap="butt"/><path d="M333.14283,193.1861c0.42947,0.6856 0.17261,2.15979 0.64932,2.87973c3.21894,5.78394 4.37759,12.10337 7.10684,18.20898c2.77307,5.7338 4.92674,12.37448 8.64283,17.48332c1.79563,2.46937 4.61081,7.55999 1.03017,9.95739c-1.75293,1.17366 -4.89937,-0.74227 -7.0525,-0.14077c-2.2798,0.66207 -5.49579,2.96262 -7.92975,2.71848c-1.10907,-0.11124 -1.34021,-1.75082 -1.95519,-2.41615c-1.15013,-1.24428 -2.06175,-1.80639 -3.51438,-2.64138c-2.86404,-1.6463 -1.70778,-3.51641 -2.05734,-6.31571c-0.36555,-2.92739 -1.11266,-5.702 -1.26963,-8.70702c0.60865,-4.86648 -3.85557,-5.60942 -5.43856,-9.22308c-0.95605,-2.18249 0.39124,-5.02649 1.18729,-7.03473c1.60126,-3.21182 1.90539,-6.781 3.99623,-9.74261c0.70143,-0.99356 2.98221,-4.37693 2.98979,-4.34431c0.00758,0.03262 0.01456,0.06517 0.02094,0.09764c0,0 3.16446,-1.46537 3.59393,-0.77978z" data-paper-data="{&quot;index&quot;:null}" fill="#363c1a" stroke="none" stroke-width="0.5" stroke-linecap="butt"/><path d="M333.7151,194.26651l0.32079,0.39544c0.23592,0.77384 0.73323,1.39928 1.0058,2.21859c0.09826,0.39444 0.19515,0.79021 0.2907,1.18719c-1.60305,-0.34794 -3.95456,-0.6514 -5.86934,-0.80847c1.01646,-0.78643 2.87612,-1.98399 2.79852,-3.23918c0,0 0,-0.5 0.5,-0.5c0.5,0 0.5,0.5 0.5,0.5c-0.00118,0.03347 -0.00293,0.0667 -0.00522,0.09971c0.25384,-0.0582 0.45876,0.14673 0.45876,0.14673z" data-paper-data="{&quot;index&quot;:null}" fill="#363c1a" stroke="none" stroke-width="0.5" stroke-linecap="butt"/><path d="M304.46293,197.38378c0.00111,3.00894 1.28158,6.53184 0.58523,9.4845c-0.21231,0.90023 -0.57186,1.57185 -1.03284,2.05393c-1.63723,0.2629 -3.30006,0.46034 -5.00192,0.54737c-1.26679,-0.47311 -2.45949,-1.24467 -3.27667,-2.05752c-0.78929,-2.30157 -0.34969,-4.53378 -0.13167,-6.8944c0.41719,-4.51717 9.30164,-5.36327 8.85787,-3.13388z" data-paper-data="{&quot;index&quot;:null}" fill="#3b4208" stroke="none" stroke-width="0.5" stroke-linecap="butt"/><path d="M319.13395,158.45484c0.01744,-0.00145 0.02761,-0.00145 0.02761,-0.00145l0.00892,0.00157c0.04549,0.00148 0.11026,0.00839 0.17796,0.03131l0.29047,0.0511c2.58679,1.73636 1.4292,7.85769 1.72066,10.77124c0.40729,4.08666 3.32581,14.34479 -3.59801,14.34479c-0.95947,-0.04615 -1.12354,-0.37491 -1.87689,-0.9119c-1.35014,-0.96239 -2.54152,-1.77798 -3.00166,-3.44321c-0.92653,-3.35307 1.47126,-6.24471 -1.30813,-9.0279c-3.57359,-5.32389 2.30021,-11.23269 7.53146,-11.81394c0,0 0.01011,-0.00113 0.0276,-0.00161z" data-paper-data="{&quot;index&quot;:null}" fill="#40770e" stroke="none" stroke-width="0.5" stroke-linecap="butt"/><path d="M302.88874,148.42616c5.23061,0.03127 7.16633,4.96235 7.16667,9.5c0.00012,1.73221 0.44218,3.67848 -0.78,4.98366c-1.9994,3.00729 -7.62085,7.13103 -11.6226,4.79051c-1.85804,-1.08672 -2.60447,-3.40809 -3.03627,-5.35526c-0.72032,-3.30387 -0.91488,-9.61746 1.91518,-12.10229c1.46305,-1.28459 3.96753,-1.46112 5.87832,-1.48102c0.0954,-0.3356 0.4787,-0.3356 0.4787,-0.3356z" data-paper-data="{&quot;index&quot;:null}" fill="#629200" stroke="none" stroke-width="0.5" stroke-linecap="butt"/><path d="M306.41181,186.16279l-0.17191,-0.67575c-2.37261,-0.61232 -6.71616,-1.85158 -8.49476,-3.65759c-0.812,-0.82451 -1.02007,-2.07753 -1.5301,-3.1163c0,0 -0.29777,-0.69482 -0.18377,-1.48406c-0.07491,-0.04327 -0.15048,-0.08558 -0.22674,-0.12689c0.12059,-0.91449 0.22038,-1.83609 0.30115,-2.76254c-0.45145,-1.41894 -0.82531,-2.8493 -1.06861,-4.26456c-0.62603,-3.64154 -0.02417,-7.97058 -0.02417,-11.68009c0,0 0,-1.6731 1.36872,-2.28187c0.3199,-0.60947 0.94453,-1.20449 2.16419,-1.20449l0.00001,0.00004c2.5,0 2.5,2.5 2.5,2.5l-0.00736,1.80826c0.36428,4.77817 0.38902,9.56513 0.05612,14.32967c0.45171,1.33151 0.97528,2.64971 1.50717,3.9202c0.32157,0.13528 0.65762,0.34729 0.92108,0.67957c3.2441,1.53601 6.38405,1.50085 8.74901,5.21358c1.6934,2.65847 3.00254,8.0196 1.04332,11.00144c-2.42836,3.69585 -8.21312,4.3276 -11.93488,5.71165c-1.02583,0.38149 -1.89542,1.16625 -2.95965,1.42174c-0.2296,0.05512 -0.45858,0.10327 -0.68692,0.14469c0.02632,0.18752 0.02632,0.3076 0.02632,0.3076c-0.01306,2.94836 -0.31505,6.29377 -1.0848,9.1456c-0.96081,3.55973 -3.23271,4.91115 -5.52657,7.4924c-2.90665,3.27083 -7.51414,5.57422 -11.98818,6.32971c-1.78398,0.30125 -3.6574,-0.38622 -5.42769,-0.01283c-0.87821,0.18523 -1.61673,0.84067 -2.5,1c-0.65328,0.11784 -1.31118,0.20239 -1.9723,0.26425c0.0316,3.29638 1.16101,6.26808 1.48737,9.53452c0.25825,2.58472 -0.39902,5.34009 -0.012,7.89959c0.07097,0.46933 0.21749,0.91481 0.40766,1.34675c3.2055,0 6.411,0 9.6165,0c1.79931,0 4.77271,0.53764 6.47958,-0.28227c5.64696,-2.71254 11.97895,-5.79887 16.98189,-9.68825c3.3515,-2.60552 5.8072,-6.42125 8.35912,-9.7543c0.60898,-1.52246 1.71325,-2.8053 2.39715,-4.29561c0.63207,-1.37737 0.5336,-2.98382 0.83081,-4.46987l0.5,-2.5c0,0 0.49029,-2.45145 2.94174,-1.96116c2.45145,0.49029 1.96116,2.94174 1.96116,2.94174l-0.5,2.5c-0.12508,0.62541 -1.01998,5.18637 -1.16919,5.53013c-0.22218,0.51187 -0.49381,0.99975 -0.78266,1.47917l0.00041,0.00043c5.15629,3.86722 9.44934,8.92487 13.47051,13.96147c1.20319,1.50702 2.26955,3.12956 3.2089,4.81372c0.46853,0.84004 0.89538,2.93949 1.84131,3.74052c1.1026,0.93371 1.73522,0.31294 2.98899,0.03284c2.66579,-0.59556 7.95072,-1.4663 9.00076,-4.27712c-0.57493,-2.3365 -0.04808,-4.59036 -0.47819,-6.87098c-0.56843,-3.01406 -1.69486,-6.97047 -3.21169,-9.67564c-4.85361,-8.65609 -10.40499,-17.45435 -14.14178,-26.79634c0,0 -0.30321,-0.75801 -0.12991,-1.58097c-0.03466,-0.00427 -0.06932,-0.00851 -0.10399,-0.01272c-0.06375,-0.51046 -0.12101,-1.02002 -0.17055,-1.52828c-0.92732,-0.26418 -1.84153,-0.59578 -2.62127,-1.14347c-1.74527,-1.22588 -3.08571,-3.71354 -4.18998,-5.49206c-1.06538,-1.05462 -3.44568,-3.25603 -4.00347,-4.56089c-1.13175,-2.64754 -0.33326,-6.09121 -0.83399,-8.88661c-1.28317,-7.16351 -0.44524,-14.53316 -1.35345,-21.79879l-0.01931,-1.64342c0,0 0,-2.5 2.5,-2.5c2.5,0 2.5,2.5 2.5,2.5l-0.0193,1.02325c0.89659,7.17278 0.08521,14.4757 1.31322,21.53455c0.36949,2.1239 -0.35342,5.80034 0.49934,7.78006c0.63126,1.4655 2.20664,2.30573 3.32986,3.4391c0.34342,0.54608 2.29463,3.88268 3.14335,4.50794c0.92012,0.67785 3.46772,0.83853 4.37178,0.8856c3.75082,0.1953 9.91069,1.04924 10.74614,-4.00649c0.60098,-3.63689 -0.72619,-6.65025 -1.34427,-10.05128c-0.17337,-0.95397 0.60892,-2.72691 -0.3472,-2.88799c-0.49245,-0.08297 -7.19761,-0.05821 -7.52625,-0.05807c0,0 -2.5,0 -2.5,-2.5c0,-0.91974 0.33836,-1.50111 0.76613,-1.8686c-0.00044,-0.35403 -0.00227,-0.70799 -0.00537,-1.06188c-0.16087,-0.64987 -0.04555,-1.22648 -0.04555,-1.22648l0.02853,-0.08126c-0.12581,-7.35506 -0.73793,-14.68399 -0.77569,-22.02796c-0.40622,-1.72457 -1.20362,-3.41636 -1.5538,-4.98225c-2.36333,-2.47126 -6.36178,-3.72089 -9.58226,-4.43629c0,0 -0.32267,-0.07447 -0.70605,-0.28663c0.00456,0.02005 0.00781,0.03963 0.00953,0.05864c0.0917,1.01482 0.50146,2.10104 0.13982,3.05366c-0.71083,1.87243 -3.76777,4.50509 -5.65669,5.13108c-0.80808,0.2678 -2.01259,0.40373 -3.3717,0.41277c-0.77202,-0.03034 -1.54327,-0.0629 -2.31394,-0.09687c-2.8297,-0.24764 -5.74708,-0.96448 -6.97614,-2.11393c-2.624,-2.45404 -0.34545,-6.36064 -4.11571,-6.111c-0.32734,1.00158 -1.32892,1.50237 -1.32892,1.50237l-1.39967,0.65849c-1.61706,0.47831 -3.15406,1.19936 -4.69423,1.88603c-0.72725,0.32423 -1.60376,0.69671 -2.45664,1.14673c-0.57254,0.88436 -1.80028,2.08559 -3.13988,2.99446c-1.0725,2.74074 -0.85801,5.59079 -1.06102,8.62815c-0.47887,7.16471 -1.66718,14.15195 -2.40749,21.28881c-0.08274,0.79769 -0.13461,1.54957 -0.1633,2.28059c0.81004,0.73866 0.81004,1.91804 0.81004,1.91804c-0.02909,5.72896 -2.27227,10.6917 0.79892,15.42814c0.79066,0.86109 1.73031,1.58318 2.77809,2.12541c1.37454,0.71132 2.93518,1.11311 4.58965,1.11311c2.17323,0 4.18454,-0.69324 5.82486,-1.87065c-0.01662,0.11004 -0.03343,0.22006 -0.05041,0.33007c1.27729,-0.48514 2.51069,-1.10641 3.8156,-1.51303c1.37083,-0.42716 5.72511,-1.63322 6.6077,-2.91278c0.81412,-1.18031 0.32977,-3.19341 -0.49787,-4.8355c-1.19443,0.17622 -2.13432,-0.76367 -2.13432,-0.76367zM289.17958,203.56169l-1.57368,-0.32939c-4.39402,-2.58532 -7.81141,-6.43256 -8.7564,-11.53281c-0.09376,-0.16246 -0.18113,-0.30236 -0.26021,-0.40883c0.04735,-0.10686 0.09517,-0.21351 0.14333,-0.3199c-0.01219,-0.08972 -0.02362,-0.17981 -0.0343,-0.27027c-0.07732,-0.6551 -0.10223,-1.30249 -0.08994,-1.94443c-0.1606,-0.89126 -0.24526,-1.87081 -0.26213,-3.02769v-2c0,0 0,-0.69514 0.36656,-1.35231c-0.19214,-1.86703 -0.13653,-3.74634 -0.0615,-4.9329c0.22387,-3.54045 0.91075,-6.99482 1.51033,-10.4638c-0.26731,-0.17368 -0.42437,-0.33074 -0.42437,-0.33074l-1.6638,-2.40855c-1.13017,-9.06133 -0.79818,-17.77408 0.4668,-26.65267c-0.09804,-2.08974 -0.36565,-4.09185 0.18527,-5.78475c0.03023,-0.0929 0.06293,-0.18486 0.09825,-0.27586c-0.00001,-0.00081 -0.00003,-0.00163 -0.00004,-0.00245l-0.00001,0.00002c-0.10588,-6.31595 4.39974,-8.60447 9.71697,-9.12768c-0.91044,-1.99366 -1.71839,-4.03535 -2.36154,-6.15395c0,0 -0.05388,-0.17959 -0.08294,-0.45517c-2.19501,0.0049 -5.46835,-0.07213 -6.04026,-0.74544c-3.52594,-4.15104 1.34503,-7.03226 3.22692,-9.71169c1.57868,-2.24772 3.20638,-4.56132 4.67127,-6.88173c1.05734,-1.67485 1.96149,-4.17176 3.73871,-5.25838c4.69246,-2.86906 12.42849,-2.41597 17.63087,-2.41597c6.38507,0 12.47016,-0.20547 18.74029,1.04855l1.00971,-0.04855c0,0 2.5,0 2.5,2.5c0,0.74923 -0.22454,1.27392 -0.53904,1.64137c2.98154,3.86372 6.57761,8.16349 7.86296,12.43701c0.42277,1.4056 1.40748,3.02557 0.75177,4.33877c-1.16038,2.32394 -3.34637,3.0433 -5.56626,3.40022c-0.01453,0.03298 -0.02337,0.05066 -0.02337,0.05066c-1.22321,2.44641 -2.27654,4.88349 -3.25521,7.34584c2.61334,-0.57773 6.22157,-1.2331 8.33048,-0.32856c3.29398,1.41283 4.802,4.87335 4.86121,8.3389c0.39452,1.02122 0.36054,3.6206 0.35884,4.54174c-0.00334,1.80314 -0.01435,3.60634 -0.01404,5.40948c0.05987,1.51579 0.14495,3.02771 0.25915,4.54152c0.03807,0.15086 0.07833,0.30231 0.11906,0.45418c0.01551,-0.02458 0.0312,-0.04909 0.04708,-0.07351c0.07125,0.50647 0.16019,1.00918 0.26641,1.50251c-0.50489,1.81392 -0.48134,4.04379 -1.07541,5.40945c-0.94074,2.16261 -2.54075,3.12513 -3.61912,5.2974c0.00802,0.09268 0.00802,0.14705 0.00802,0.14705c0,1.7425 -0.01205,3.42753 0.0687,5.12276c0.4045,0.52012 0.89422,1.02683 1.37983,1.54001c-0.29716,0.28728 -0.69943,0.54586 -1.21964,0.62141c0.02547,0.2455 0.05375,0.49179 0.08514,0.73907l-0.23407,1.59266c0.0083,0.51433 0.01416,1.02878 0.0172,1.54335c2.51831,0.01691 5.48455,0.12568 6.54325,0.61601c4.14242,1.91854 2.408,3.44584 2.98613,6.44534c0.95252,4.94187 2.87151,10.14914 0.05217,15.00544c-0.63773,1.09849 -1.29397,2.25145 -2.27784,3.0548c-2.49029,2.03338 -7.46456,2.45394 -11.59089,2.13611c0.03302,0.27145 0.06818,0.54316 0.10525,0.81509c1.75367,4.21477 4.19322,7.77412 6.23815,11.8758c0.78187,1.56826 1.08987,3.35365 1.93979,4.88609c0.82011,1.47869 2.2688,2.55724 3.03504,4.06455c1.66077,3.267 3.60321,6.87257 4.68191,10.4479c1.30888,4.33828 1.29878,8.44826 1.91658,12.80037c1.95516,-0.62893 4.00496,-0.99257 6.03646,-1.03729v-0.00001c1.65312,-0.03639 3.59253,-0.62939 4.95061,0.31388c3.5222,2.44639 5.26271,11.10094 4.13312,15.20979c-0.41965,1.52648 -2.59551,5.54515 -4.10019,6.54064c-0.89429,0.59166 -2.09801,0.45852 -3.12056,0.78134c-5.12577,1.6182 -11.95091,5.21756 -17.39201,2.30783c-0.4439,-0.23738 -4.18207,-4.03705 -4.70899,-4.56618c-1.03399,-1.40219 -2.79949,-2.21193 -3.67075,-3.72063c-0.79766,-1.38125 -0.9443,-3.04708 -1.41645,-4.57062l-0.01455,-2.01498c-0.17865,-0.10651 -0.35549,-0.22218 -0.53033,-0.34748c-2.81972,-2.02077 -3.78568,-6.74661 -5.9498,-9.44576c-3.65613,-4.56006 -7.51624,-9.18367 -12.14609,-12.74721c-4.67519,6.19153 -9.76284,11.6152 -16.68868,15.40474c-2.47711,1.35538 -5.46485,2.09582 -7.9699,3.48336c-0.79474,0.4402 -1.36717,1.25008 -2.20439,1.60285c-4.40692,1.85691 -10.70326,1.08058 -15.86921,0.80171c0.34596,1.61354 0.80919,3.89514 0.83662,4.16968c0.36014,3.6046 0.59757,10.0252 -3.3698,11.98241c-1.93742,0.95578 -4.84565,0.15551 -6.86438,-0.24823c-3.30645,0 -8.54274,0.08155 -11.27437,-2.00354c-2.77727,-2.11993 -2.81572,-5.41791 -3.43073,-8.494c-1.41992,-7.10195 -2.04855,-14.24703 -2.04855,-21.49029c0,-2.52318 -0.62664,-6.62691 0.88498,-8.83293c2.39811,-3.49974 5.67389,-2.40938 9.12473,-3.11852c4.29642,-0.83986 8.75712,-0.22218 13.01752,-1.00344c0.88281,-0.16189 1.6184,-0.83165 2.5,-1c1.82447,-0.34841 3.73927,0.28726 5.57231,-0.01283c3.30272,-0.54068 6.9496,-2.27174 9.01182,-4.67029c1.58392,-1.84224 3.91447,-2.99607 4.47343,-5.5076c0.56173,-2.524 0.92914,-5.27207 0.9152,-7.8544c0,0 0,-0.15615 0.03903,-0.3904c-0.25006,-0.05127 -0.49887,-0.10907 -0.74636,-0.17302h-0.3878c-0.20488,2.17801 -2.48532,2.17801 -2.48532,2.17801zM325.15102,96.38664c-5.26188,-0.79932 -10.4335,-0.61234 -15.82725,-0.61234c-4.2554,0 -10.94009,-0.59344 -14.86913,1.58403c-0.40033,0.22186 -2.2444,3.71489 -2.26129,3.74162c-1.63404,2.58612 -3.87358,7.14553 -6.53201,9.54307c1.58062,-0.11593 3.18904,0.05912 4.77571,0.13384c4.81126,0.22657 9.59221,1.01408 14.38671,0.99743c7.34688,0 15.0018,0.9002 22.30937,0.25728c2.1381,-0.18811 4.25558,-0.56435 6.37977,-0.87213c0.49998,-0.07244 1.17824,0.09899 1.48516,-0.3023c0.20221,-0.26439 -0.56706,-0.38201 -0.74823,-0.66123c-0.44474,-0.68547 -0.69438,-1.48145 -1.10158,-2.18987c-2.31081,-4.02026 -5.32247,-7.81458 -7.99723,-11.6194zM319.55625,131.53754c0.83666,-0.70409 2.05343,-0.53275 3.21515,-0.48818l0.20285,-0.87942c1.66508,-4.57387 3.2423,-8.96855 5.22292,-13.34068c-7.70528,0.73591 -15.65482,-0.05496 -23.37343,-0.05496c-4.52388,-0.01377 -8.99875,-0.64136 -13.51983,-0.89515c1.86065,5.64789 5.01055,10.73408 7.90575,15.89515h1.11408c3.45993,0.16356 4.27692,-0.49478 6.66371,2.99766c0.85105,1.24528 -0.09326,3.39394 1.02362,4.40764c0.34702,0.31496 0.93359,0.08989 1.39637,0.16379c1.74507,0.27868 4.67219,1.04 6.44184,0.53817c4.16366,-1.18072 0.54938,-5.68676 3.70698,-8.34403zM264.26711,226.36999c-2.02184,0.04401 -4.04056,0.12245 -6.01679,0.52856c-0.68105,0.13313 -5.58586,0.20562 -5.87527,0.88148c-0.66793,1.55982 -0.11502,4.53993 -0.11502,6.16707c0,6.05979 0.3637,12.09789 1.45904,18.0493c0.3363,1.82727 0.3991,6.77818 2.06168,7.96641c1.82265,1.30263 6.56434,0.99646 8.72563,0.99646c1.37392,0.27478 2.78298,1.11719 4.13562,0.75177c0.83287,-0.22501 0.56916,-1.64971 0.6302,-2.51028c0.16444,-2.3184 -0.03793,-4.49895 -0.46362,-6.76337c-0.5944,-3.16189 -2.40508,-4.65035 -3.02438,-8.14354c-0.46451,-2.62008 0.25276,-5.45568 -0.012,-8.10041c-0.33707,-3.36715 -1.4068,-6.42226 -1.50508,-9.82345zM339.73586,252.60035c0.71831,2.99042 2.06171,3.27648 3.9128,5.70875c1.12371,1.11839 1.93008,2.62055 3.29101,3.43382c0.4861,0.29049 3.31365,0.24219 3.61415,0.2127c3.703,-0.36329 6.50556,-1.92279 9.99383,-2.90488c0.6071,-0.17092 1.32643,0.0846 1.87944,-0.21866c1.15351,-0.63256 1.55788,-2.18901 1.89981,-3.45936c0.55672,-2.06834 -0.29399,-5.13193 -0.89681,-7.01931c-0.29774,-0.9322 -0.1954,-2.17294 -0.97007,-2.7709c-0.56204,-0.43383 -1.38535,0.32529 -2.09046,0.40852c-2.38125,0.2811 -4.86318,0.58777 -6.9915,1.69213c0,0 -0.79416,0.39708 -1.67256,0.24468c-1.44451,1.01853 -3.64677,1.79304 -5.017,2.34045c-2.14377,0.85645 -4.56602,1.80885 -6.9498,2.01975zM283.38563,141.35527c1.19039,-1.8934 3.25803,-3.60631 4.88277,-3.99864c0.00975,-0.01444 0.01945,-0.02888 0.0291,-0.04334c0.01178,0.00952 0.0235,0.019 0.03516,0.02846c0.0424,-0.00939 0.08447,-0.01786 0.12621,-0.02538c2.13297,-1.2123 4.52081,-2.10599 6.57199,-2.7716c-1.3486,-2.42669 -2.7418,-4.83358 -4.05362,-7.27904c-0.09661,0.00858 -0.15349,0.00858 -0.15349,0.00858c-2.07424,-0.03702 -4.78672,0.25388 -6.62757,1.40203c-0.73662,0.45944 -0.40013,2.25909 -0.37374,2.775c-0.02179,0.02221 -0.04235,0.04502 -0.06175,0.06824c-0.03928,0.92993 -0.32117,2.03642 -0.34616,2.46805c-0.06857,1.18423 0.41388,4.69239 -0.0289,7.36764zM338.16221,140.56712c0.1433,0.71451 0.72161,2.33877 1.19317,4.14225c-0.00012,-0.00912 -0.00021,-0.01819 -0.00027,-0.0272c-0.0107,-1.5357 0.00053,-3.07151 0.00732,-4.60728c-0.06582,-0.34739 -0.12885,-0.69656 -0.18758,-1.04835c-0.04438,-0.2658 0.02327,-1.10232 0.08557,-1.89425c0.03429,-0.09704 0.05694,-0.19959 0.06627,-0.30595l0.03135,-0.31346c-0.00089,-0.08702 -0.00187,-0.17403 -0.00293,-0.26105c-0.01548,-1.27017 -0.16491,-2.21627 -0.17991,-2.99945c-0.13195,-0.15565 -0.30132,-0.27859 -0.49422,-0.35491c0.10168,-0.69866 0.09025,-1.47815 -0.06289,-2.4044c-0.16697,-1.00991 0.3052,-2.30936 -1.10568,-2.60409c-2.13385,-0.44576 -5.10345,0.34321 -7.12651,0.82129l-0.00001,0.00002c0,0 -0.75806,0.17494 -1.52601,-0.09325c-0.39474,1.07729 -0.78779,2.16359 -1.18665,3.26163l-0.15371,0.72827c2.74669,0.81814 5.75435,1.98471 7.86666,3.56741c0.97914,0.03848 1.81362,0.6401 2.18854,1.48998c0.11012,0.24962 0.1806,0.52066 0.20345,0.80513c0.17701,0.8338 0.34121,1.88415 0.38404,2.09768zM339.9264,149.82844c-0.04516,0.25842 -0.11036,0.5 -0.19863,0.72065c0.0698,2.29632 0.17594,4.59228 0.28535,6.8889c0.04782,0.0916 0.08876,0.18348 0.12384,0.27368c0.36923,-0.7066 0.74156,-1.41174 1.1067,-2.12446c-1.06594,-0.70059 -1.06594,-2.11683 -1.06594,-2.11683l0.01931,-1.27469c-0.0986,-0.79093 -0.18866,-1.57978 -0.27063,-2.36725zM339.98284,148.13161c0.01059,0.14752 0.01797,0.29304 0.02182,0.43612c0.03425,-0.01974 0.06649,-0.04091 0.09684,-0.06327c-0.04108,-0.12374 -0.08065,-0.24818 -0.11866,-0.37285z" fill="#000000" stroke="none" stroke-width="0.5" stroke-linecap="butt"/><path d="M340.21235,251.99147c2.38378,-0.2109 4.81347,-1.18436 6.95725,-2.04081c1.37023,-0.54741 3.61113,-1.34501 5.05563,-2.36354c0.8784,0.1524 1.68634,-0.24376 1.68634,-0.24376c2.12832,-1.10436 4.63655,-1.39625 7.0178,-1.67736c0.70511,-0.08323 1.53122,-0.83909 2.09326,-0.40526c0.77467,0.59796 0.67821,1.8482 0.97595,2.7804c0.60282,1.88738 1.4579,4.97912 0.90118,7.04746c-0.34193,1.27035 -0.75107,2.8423 -1.90458,3.47486c-0.55301,0.30326 -1.27488,0.05225 -1.88198,0.22317c-3.48827,0.98209 -6.34242,2.56396 -10.04541,2.92725c-0.3005,0.02949 -3.14582,0.07068 -3.63192,-0.21981c-1.36093,-0.81327 -2.18414,-2.33361 -3.30785,-3.452c-1.85109,-2.43227 -3.20033,-2.74664 -3.91864,-5.73706z" data-paper-data="{&quot;noHover&quot;:false,&quot;origItem&quot;:[&quot;Path&quot;,{&quot;applyMatrix&quot;:true,&quot;segments&quot;:[[[685.18502,872.61899],[0,0],[1.43662,5.98084]],[[693.01062,884.03649],[-3.70218,-4.86454],[2.24742,2.23678]],[[699.59264,890.90413],[-2.72186,-1.62654],[0.9722,0.58098]],[[706.82094,891.32953],[-0.601,0.05898],[7.406,-0.72658]],[[726.8086,885.51977],[-6.97654,1.96418],[1.2142,-0.34184]],[[730.56748,885.08245],[-1.10602,0.60652],[2.30702,-1.26512]],[[734.3671,878.16373],[-0.68386,2.5407],[1.11344,-4.13668]],[[732.57348,864.12511],[1.20564,3.77476],[-0.59548,-1.8644]],[[730.63334,858.58331],[1.54934,1.19592],[-1.12408,-0.86766]],[[726.45242,859.40035],[1.41022,-0.16646],[-4.7625,0.5622]],[[712.46942,862.78461],[4.25664,-2.20872],[0,0]],[[709.1243,863.27397],[1.7568,0.3048],[-2.88902,2.03706]],[[699.0903,867.95487],[2.74046,-1.09482],[-4.28754,1.7129]],[[685.1907,871.99437],[4.76756,-0.4218],[0,0]]],&quot;closed&quot;:true,&quot;fillColor&quot;:[0,0,0,1]}]}" fill="#1b130b" stroke="none" stroke-width="0.5" stroke-linecap="butt"/><path d="M264.80034,226.03013c0.09828,3.40119 1.18518,6.46328 1.52225,9.83043c0.26476,2.64473 -0.42963,5.5244 0.03488,8.14448c0.6193,3.49319 2.41487,5.01546 3.00928,8.17735c0.42569,2.26442 0.6179,4.4526 0.45346,6.771c-0.06104,0.86057 0.19855,2.28737 -0.63432,2.51238c-1.35264,0.36542 -2.77123,-0.4738 -4.14515,-0.74858c-2.16129,0 -6.92878,0.30518 -8.75143,-0.99746c-1.66258,-1.18823 -1.74367,-6.14939 -2.07997,-7.97666c-1.09534,-5.95141 -1.45795,-12.06548 -1.45795,-18.12527c0,-1.62714 -0.54366,-4.61335 0.12427,-6.17317c0.28941,-0.67586 5.20991,-0.75331 5.89096,-0.88644c1.97623,-0.40611 4.01187,-0.48406 6.03371,-0.52806z" data-paper-data="{&quot;noHover&quot;:false,&quot;origItem&quot;:[&quot;Path&quot;,{&quot;applyMatrix&quot;:true,&quot;segments&quot;:[[[534.24752,820.15827],[0,0],[-4.04368,0.08802]],[[522.21394,821.21539],[3.95246,-0.81222],[-1.3621,0.26626]],[[510.4634,822.97835],[0.57882,-1.35172],[-1.33586,3.11964]],[[510.23336,835.31249],[0,-3.25428],[0,12.11958]],[[513.15144,871.41109],[-2.19068,-11.90282],[0.6726,3.65454]],[[517.2748,887.34391],[-3.32516,-2.37646],[3.6453,2.60526]],[[534.72606,889.33683],[-4.32258,0],[2.74784,0.54956]],[[542.9973,890.84037],[-2.70528,0.73084],[1.66574,-0.45002]],[[544.2577,885.81981],[-0.12208,1.72114],[0.32888,-4.6368]],[[543.33046,872.29307],[0.85138,4.52884],[-1.1888,-6.32378]],[[537.2817,856.00599],[1.2386,6.98638],[-0.92902,-5.24016]],[[537.2577,839.80517],[0.52952,5.28946],[-0.67414,-6.7343]],[[534.24754,820.15827],[0.19656,6.80238],[0,0]]],&quot;closed&quot;:true,&quot;fillColor&quot;:[0,0,0,1]}]}" fill="#1b130b" stroke="none" stroke-width="0.5" stroke-linecap="butt"/><path d="M315.22504,198.57236c0.23901,-0.03882 0.45864,-0.05072 0.66039,-0.04057c-0.53406,0.11513 -1.0679,0.23326 -1.60203,0.35272c0.25473,-0.1415 0.56472,-0.25093 0.94164,-0.31215z" fill="#000000" stroke="none" stroke-width="0.5" stroke-linecap="butt"/><path d="" data-paper-data="{&quot;noHover&quot;:false,&quot;origItem&quot;:[&quot;Path&quot;,{&quot;applyMatrix&quot;:true,&quot;segments&quot;:[[[644.56667,520.3125],[-10.74954,-0.02493],[3.36267,0.0078]],[[657.3306,521.84036],[-3.05094,0.66835],[1.47633,-0.32341]],[[657.56667,517.3125],[0.04604,1.51064],[-0.05077,-1.66589]],[[657.56667,512.3125],[0,1.66667],[0,0]],[[657.57078,512.18913],[-0.00411,0.07951],[-0.21417,-0.00276]],[[656.92826,512.1811],[0.21417,0.00259],[-0.00293,-2.76013]],[[656.93459,503.90085],[-0.01017,2.75998],[0.00586,-1.58768]],[[656.31577,495.58781],[1.02114,1.9155],[-2.49278,-4.6761]],[[639.82937,490.48677],[4.30574,0.4726],[0,0]],[[636.57153,488.90069],[1.32098,1.37088],[-1.41416,0.32306]],[[632.36463,489.80929],[1.36322,-0.31648],[-8.22084,1.90848]],[[605.46581,490.57783],[8.81122,0.25452],[2.4454,3.91253]],[[608.7703,504.32455],[-0.39088,-4.77593],[1.79637,1.46105]],[610.56667,508.3125],[[610.49864,510.49051],[0,0],[0.54381,3.26283]],[[612.31763,520.30909],[-0.32664,-3.21574],[10.74968,-0.00723]]],&quot;closed&quot;:true}]}" fill="#1b130b" stroke="none" stroke-width="0.5" stroke-linecap="butt"/><path d="" data-paper-data="{&quot;noHover&quot;:false,&quot;origItem&quot;:[&quot;Path&quot;,{&quot;applyMatrix&quot;:true,&quot;segments&quot;:[[[543.54233,513.80519],[0.25435,-1.57199],[-0.16076,0.99353]],[[542.23738,516.52799],[-0.14982,-0.99524],[0.09076,0.60292]],[[544.01629,516.95368],[-0.5763,-0.19908],[5.62853,1.94431]],[[559.05935,520.33683],[-5.90527,-0.5454],[5.35726,0.49479]],[[574.97907,523.32954],[-5.37617,-0.48875],[6.39739,0.58159]],[[594.56667,523.3125],[-6.42799,0],[1.05347,0]],[[597.74939,523.77999],[-1.06184,-0.22693],[0.76557,-2.95002]],[[602.32798,520.32402],[-0.86334,0.0657],[-0.39267,-2.8469]],[[600.73923,512.56397],[0.30508,1.24115],[-0.24825,0.0023]],[[599.99448,512.57075],[0.24825,-0.00221],[-0.31463,-0.78554]],[[599.28701,510.22629],[0.09634,0.77071],[-0.45798,-3.66384]],[[595.03927,494.42693],[5.15054,1.68118],[-2.34118,-0.76418]],[[587.69343,493.63671],[2.44862,0.2634],[0,0]],[[583.42357,489.59489],[0.44428,3.4953],[-12.37122,-1.33364]],[[546.30477,487.31331],[12.5632,0.22344],[-0.52082,7.35291]],[[544.01475,509.09149],[0.31456,-7.29039],[-0.14615,-0.02114]],[[543.57608,509.02896],[0.14629,0.02054],[0.04478,1.5967]]],&quot;closed&quot;:true}]}" fill="#1b130b" stroke="none" stroke-width="0.5" stroke-linecap="butt"/><path d="M338.64869,140.24246c-0.04283,-0.21353 -0.21464,-1.25298 -0.39165,-2.08678c-0.02285,-0.28447 -0.09614,-0.54895 -0.20626,-0.79857c-0.37492,-0.84988 -1.21213,-1.43363 -2.19127,-1.47211c-2.11231,-1.5827 -5.02735,-2.72467 -7.77404,-3.54281l0.07117,-0.78451c0.39886,-1.09804 0.80604,-2.19706 1.20078,-3.27435c0.76795,0.26819 1.53297,0.08977 1.53297,0.08977l0.00001,-0.00002c2.02306,-0.47808 5.0334,-1.26566 7.16725,-0.8199c1.41088,0.29473 0.95027,1.60199 1.11724,2.6119c0.15314,0.92625 0.17326,1.71602 0.07158,2.41468c0.1929,0.07632 0.36446,0.20305 0.49641,0.3587c0.015,0.78318 0.17007,1.7525 0.18555,3.02267c0.00106,0.08702 0.00198,0.17623 0.00287,0.26325l-0.03155,0.31611c-0.00933,0.10636 -0.03231,0.21153 -0.0666,0.30857c-0.0623,0.79193 -0.13441,1.64271 -0.09003,1.90851c0.05873,0.35179 0.11876,0.70628 0.18458,1.05367c-0.00679,1.53577 -0.03129,3.08533 -0.02059,4.62103c0.00006,0.00901 -0.05713,-0.06389 -0.05701,-0.05477c-0.47156,-1.80348 -1.05809,-3.42055 -1.20139,-4.13506z" data-paper-data="{&quot;noHover&quot;:false,&quot;origItem&quot;:[&quot;Path&quot;,{&quot;applyMatrix&quot;:true,&quot;segments&quot;:[[[283.03655,137.62096],[0,0],[0.04283,-0.21353]],[[283.42059,135.52328],[-0.17701,0.8338],[0.02285,-0.28447]],[[283.62404,134.71815],[-0.11012,0.24962],[0.37492,-0.84988]],[[285.81258,133.22817],[-0.97914,0.03848],[2.11231,-1.5827]],[[293.67924,129.66076],[-2.74669,0.81814],[0,0]],[[293.52553,128.93249],[0,0],[-0.39886,-1.09804]],[[292.33888,125.67086],[0.39474,1.07729],[-0.76795,0.26819]],[290.81287,125.76411],[[290.81286,125.76409],[0,0],[-2.02306,-0.47808]],[[283.68635,124.9428],[2.13385,-0.44576],[-1.41088,0.29473]],[[282.58067,127.54689],[0.16697,-1.00991],[-0.15314,0.92625]],[[282.51778,129.95129],[-0.10168,-0.69866],[-0.1929,0.07632]],[[282.02356,130.3062],[0.13195,-0.15565],[-0.015,0.78318]],[[281.84365,133.30565],[0.01548,-1.27017],[-0.00106,0.08702]],[[281.84072,133.5667],[0.00089,-0.08702],[0,0]],[[281.87207,133.88016],[0,0],[0.00933,0.10636]],[[281.93834,134.18611],[-0.03429,-0.09704],[0.0623,0.79193]],[[282.02391,136.08036],[0.04438,-0.2658],[-0.05873,0.35179]],[[281.83633,137.12871],[0.06582,-0.34739],[0.00679,1.53577]],[[281.84365,141.73599],[0.0107,-1.5357],[-0.00006,0.00901]],[[281.84338,141.76319],[0.00012,-0.00912],[0.47156,-1.80348]],[[283.03655,137.62094],[-0.1433,0.71451],[0,0]]],&quot;closed&quot;:true,&quot;fillColor&quot;:[0,0,0,1]}],&quot;index&quot;:null}" fill="#385130" stroke="none" stroke-width="0.5" stroke-linecap="butt"/><path d="M283.8771,141.10295c0.44278,-2.67525 -0.05774,-6.22473 0.01083,-7.40896c0.02499,-0.43163 0.3123,-1.55814 0.35158,-2.48807c0.0194,-0.02322 0.0403,-0.04668 0.06209,-0.06889c-0.02639,-0.51591 -0.35195,-2.32947 0.38467,-2.78891c1.84085,-1.14815 4.59775,-1.45042 6.67199,-1.4134c0,0 0.05787,0.00024 0.15448,-0.00834c1.31182,2.44546 2.7428,4.90285 4.0914,7.32954c-2.05118,0.66561 -4.50107,1.6058 -6.63404,2.8181c-0.04174,0.00752 -0.08559,0.01551 -0.12799,0.0249c-0.01166,-0.00946 -0.02402,-0.01913 -0.0358,-0.02865c-0.00965,0.01446 -0.01958,0.02883 -0.02933,0.04327c-1.62474,0.39233 -3.70949,2.096 -4.89988,3.9894z" data-paper-data="{&quot;noHover&quot;:false,&quot;origItem&quot;:[&quot;Path&quot;,{&quot;applyMatrix&quot;:true,&quot;segments&quot;:[[[337.78423,131.04145],[0.06857,1.18423],[-0.02499,-0.43163]],[[337.43807,128.5734],[0.03928,0.92993],[-0.0194,-0.02322]],[[337.37632,128.50516],[0.02179,0.02221],[0.02639,-0.51591]],[[337.00258,125.73016],[0.73662,0.45944],[-1.84085,-1.14815]],[[330.37501,124.32813],[2.07424,-0.03702],[0,0]],[[330.22152,124.31955],[0.09661,0.00858],[-1.31182,2.44546]],[[326.1679,131.59859],[1.3486,-2.42669],[2.05118,0.66561]],[[332.73989,134.37019],[-2.13297,-1.2123],[0.04174,0.00752]],[[332.8661,134.39557],[-0.0424,-0.00939],[0.01166,-0.00946]],[[332.90126,134.36711],[-0.01178,0.00952],[0.00965,0.01446]],[[332.93036,134.41045],[-0.00975,-0.01444],[1.62474,0.39233]],[[337.81313,138.40909],[-1.19039,-1.8934],[-0.44278,-2.67525]]],&quot;closed&quot;:true,&quot;fillColor&quot;:[0,0,0,1]}],&quot;index&quot;:null}" fill="#385130" stroke="none" stroke-width="0.5" stroke-linecap="butt"/><path d="" data-paper-data="{&quot;index&quot;:null}" fill="#000000" stroke="none" stroke-width="0.5" stroke-linecap="butt"/><path d="M325.71882,96.07298c2.67476,3.80482 5.69117,7.63066 8.00198,11.65092c0.4072,0.70842 0.65599,1.50829 1.10073,2.19376c0.18117,0.27922 0.95021,0.39769 0.748,0.66208c-0.30692,0.40129 -0.98558,0.23123 -1.48556,0.30367c-2.12419,0.30778 -4.24435,0.69084 -6.38245,0.87895c-7.30757,0.64292 -15.03649,-0.23811 -22.38337,-0.23811c-4.7945,0.01664 -9.59386,-0.79551 -14.40512,-1.02208c-1.58667,-0.07472 -3.19604,-0.2529 -4.77666,-0.13697c2.65843,-2.39755 4.89686,-6.97782 6.5309,-9.56394c0.01689,-0.02673 1.86419,-3.53115 2.26452,-3.75301c3.92904,-2.17747 10.6537,-1.61441 14.9091,-1.61441c5.39375,0 10.61605,-0.16019 15.87794,0.63913z" data-paper-data="{&quot;noHover&quot;:false,&quot;origItem&quot;:[&quot;Path&quot;,{&quot;applyMatrix&quot;:true,&quot;segments&quot;:[[[592.09546,186.88092],[0,0],[-5.34952,7.60966]],[[576.101,210.11974],[4.62162,-8.04052],[-0.8144,1.41684]],[[573.89784,214.49948],[0.88948,-1.37094],[-0.36234,0.55844]],[[572.40138,215.82194],[-0.40442,-0.52878],[0.61384,0.80258]],[[575.3717,216.42654],[-0.99996,-0.14488],[4.24838,0.61556]],[[588.13124,218.1708],[-4.2762,-0.37622],[14.61514,1.28584]],[[632.74998,217.65624],[-14.69376,0],[9.589,0.0333]],[[661.5234,215.66138],[-9.62252,0.45314],[3.17334,-0.14944]],[[671.07482,215.3937],[-3.16124,-0.23186],[-5.31686,-4.79508]],[[658.0108,196.30756],[3.26808,5.17224],[-0.03378,-0.05346]],[[653.48822,188.82432],[0.80066,0.44372],[-7.85808,-4.35494]],[[623.74996,185.65626],[8.5108,0],[-10.7875,0]],[[592.09542,186.88094],[10.52378,-1.59864],[0,0]]],&quot;closed&quot;:true,&quot;fillColor&quot;:[0,0,0,1]}],&quot;index&quot;:null}" fill="#385130" stroke="none" stroke-width="0.5" stroke-linecap="butt"/><path d="M323.34337,130.77003c-1.16172,-0.04457 -2.38016,-0.21033 -3.21682,0.49376c-3.1576,2.65728 0.43248,7.19071 -3.73118,8.37143c-1.76964,0.50184 -4.72105,-0.25403 -6.46612,-0.53271c-0.46278,-0.07391 -1.05551,0.15061 -1.40253,-0.16436c-1.11688,-1.0137 -0.18372,-3.16544 -1.03476,-4.41072c-2.38679,-3.49244 -3.23133,-2.8617 -6.69126,-3.02526l-1.11474,-0.00173c-2.8952,-5.16107 -6.0399,-10.29166 -7.90055,-15.93955c4.52108,0.25379 9.01762,0.86302 13.5415,0.87679c7.71861,0 15.73111,0.81079 23.43639,0.07488c-1.98062,4.37213 -3.55133,8.80087 -5.21641,13.37474l-0.20352,0.88272z" data-paper-data="{&quot;noHover&quot;:false,&quot;origItem&quot;:[&quot;Path&quot;,{&quot;applyMatrix&quot;:true,&quot;segments&quot;:[[[603.28497,257.18272],[-1.67332,-1.40818],[6.31519,5.31455]],[[610.69892,273.87079],[-8.32731,-2.36145],[3.53929,1.00367]],[[623.5826,272.79444],[-3.49013,0.55736],[0.92557,-0.14781]],[[626.37534,272.46685],[-0.69405,0.62993],[2.23376,-2.0274]],[[628.42258,263.65157],[-1.70209,2.49057],[4.77358,-6.98488]],[[641.75,257.65625],[-6.91986,0.32711],[0,0]],[[643.97816,257.65625],[0,0],[5.79041,-10.32215]],[[659.78966,225.86595],[-3.7213,11.29577],[-9.04216,0.50758]],[[632.75,227.65625],[9.04776,-0.02754],[-15.43723,0]],[[586.00313,227.76618],[15.41056,1.47182],[3.96123,8.74426]],[[596.44897,254.44753],[-3.33017,-9.14774],[0,0]],[[596.85468,256.20637],[0,0],[2.32343,-0.08913]]],&quot;closed&quot;:true}],&quot;index&quot;:null}" fill="#131313" stroke="none" stroke-width="0.5" stroke-linecap="butt"/><path d="M306.08318,127.62409h-4.38889l-2.33333,-4.5l2.22222,-4.33334h4.05556l2.44444,4.16667z" data-paper-data="{&quot;index&quot;:null}" fill="#9d0201" stroke="#323231" stroke-width="2" stroke-linecap="round"/><path d="M310.44428,133.3567h0.11111c2.00799,0 3.99231,0.11111 6,0.11111c0,0 0.25,0 0.25,0.25c0,0.25 -0.25,0.25 -0.25,0.25c-2.00778,0 -3.99202,-0.11111 -6,-0.11111h-0.11111c0,0 -0.25,0 -0.25,-0.25c0,-0.25 0.25,-0.25 0.25,-0.25z" data-paper-data="{&quot;index&quot;:null}" fill="#000000" stroke="none" stroke-width="0.5" stroke-linecap="butt"/><path d="M310.69856,135.14733l0.37234,-0.12071c1.71688,-0.01144 3.44822,-0.10993 5.15116,-0.11434c0,0 0.25,0 0.25,0.25c0,0.25 -0.25,0.25 -0.25,0.25c-1.67671,-0.00486 -3.37895,0.12139 -5.07106,0.10788l-0.29433,0.10151c0,0 -0.23718,0.07906 -0.31623,-0.15811c-0.07905,-0.23717 0.15812,-0.31623 0.15812,-0.31623z" data-paper-data="{&quot;index&quot;:null}" fill="#000000" stroke="none" stroke-width="0.5" stroke-linecap="butt"/><path d="M309.66245,136.9123l0.33687,-0.00546c1.98494,-0.09118 3.99733,-0.43624 6.00053,-0.43902c0,0 0.25,0 0.25,0.25c0,0.25 -0.25,0.25 -0.25,0.25c-1.99721,-0.00304 -4.00534,0.3446 -5.98478,0.43878l-0.34449,0.00563c0,0 -0.24996,0.00407 -0.25403,-0.2459c-0.00407,-0.24997 0.2459,-0.25403 0.2459,-0.25403z" data-paper-data="{&quot;index&quot;:null}" fill="#000000" stroke="none" stroke-width="0.5" stroke-linecap="butt"/><path d="M306.08318,127.62409h-4.38889l-2.33333,-4.5l2.22222,-4.33334h4.05556l2.44444,4.16667z" data-paper-data="{&quot;index&quot;:null}" fill="none" stroke="#1a1a1a" stroke-width="0.5" stroke-linecap="round"/><g data-paper-data="{&quot;index&quot;:null}" fill="#000000" stroke="none" stroke-width="1" stroke-linecap="butt" font-family="&quot;ヒラギノ角ゴ Pro W3&quot;, &quot;Hiragino Kaku Gothic Pro&quot;, Osaka, &quot;メイリオ&quot;, Meiryo, &quot;ＭＳ Ｐゴシック&quot;, &quot;MS PGothic&quot;" font-weight="normal" font-size="40" text-anchor="start"><text transform="translate(333.34707,108.25846) rotate(-180) scale(0.03846,-0.03846)" font-size="40" xml:space="preserve" fill="#000000" fill-rule="nonzero" stroke="none" stroke-width="1" stroke-linecap="butt" stroke-linejoin="miter" stroke-miterlimit="10" stroke-dasharray="" stroke-dashoffset="0" font-family="&quot;ヒラギノ角ゴ Pro W3&quot;, &quot;Hiragino Kaku Gothic Pro&quot;, Osaka, &quot;メイリオ&quot;, Meiryo, &quot;ＭＳ Ｐゴシック&quot;, &quot;MS PGothic&quot;" font-weight="normal" text-anchor="start" style="mix-blend-mode: normal"><tspan x="0" dy="0">The Black Mesa</tspan><tspan x="0" dy="46.150000000000006px">Pivovar13</tspan></text><text transform="translate(326.93683,109.21775) rotate(-180) scale(0.01021,-0.01021)" font-size="40" xml:space="preserve" fill="#000000" fill-rule="nonzero" stroke="none" stroke-width="1" stroke-linecap="butt" stroke-linejoin="miter" stroke-miterlimit="10" stroke-dasharray="" stroke-dashoffset="0" font-family="&quot;ヒラギノ角ゴ Pro W3&quot;, &quot;Hiragino Kaku Gothic Pro&quot;, Osaka, &quot;メイリオ&quot;, Meiryo, &quot;ＭＳ Ｐゴシック&quot;, &quot;MS PGothic&quot;" font-weight="normal" text-anchor="start" style="mix-blend-mode: normal"><tspan x="0" dy="0">TM</tspan></text></g><g data-paper-data="{&quot;index&quot;:null}"><path d="M320.23522,188.70144l9,-1.44445l2.55555,14.33334l-7.88889,2.44444z" fill="#121212" stroke="#000000" stroke-width="0" stroke-linecap="round"/><path d="M331.42711,192.11935c-2.33132,-1.13033 -1.55937,-5.03636 -2.36364,-4.54545c-0.90163,0.55034 0.63636,5.09091 0.63636,5.09091l2.27273,9.09091l-8.09091,2.18182l-2.81818,-8.54546l-0.72727,-6.72727h-0.81818l-0.54546,-0.54546l-8.54546,0.09091l0.18182,3l-0.72727,0.72728l-0.90341,-0.14844l-1.875,3.375l0.625,0.75l-1.375,1.25l-7.25,-2.375l5.875,-9.25v-2.125l-4,-2.5l-34,9.375l-2.375,-15.25l38.125,-2.25l-0.02841,-1.12428h1.18182l1.36364,-3.09091l0.90909,-0.09091l0.09091,-2l1.54546,-1.18182l3.27273,-0.27273c0,0 17.51031,0.40434 19.36364,1.18181c1.4205,0.5959 0.63636,4.72728 0.63636,4.72728l2.81819,0.63636l0.18182,-1.27273l28.54545,-0.36363l1,-3.63637l5.09091,-0.18181l0.45454,0.45454l10.54546,0.09091l4.45454,-5.72728l3.54546,-0.09091l-0.72727,11.72728h13.27273l1.09091,-1.09091h9.36364v4.81818l-9.45455,0.09091l-0.90909,-1l-13.81818,0.18182l1,1.45455l-0.09091,1.63637h-2.90909v-3h-5l-0.27273,0.81818l-1.54545,0.09091l-0.63637,3h-0.81818l0.18182,1l11.45455,0.18182l2,2v2.45454l-1.27273,2.18182l-20.27273,0.09091l-1.09091,1.36364h-27.63637c0,0 -0.29326,2.59003 -1.54545,3.09091c-1.25219,0.50088 -4.30503,1.31216 -6.63636,0.18182z" fill="#121111" stroke="#000000" stroke-width="1" stroke-linecap="round"/><path d="M313.60897,167.39208l15.18182,-0.18182l0.90909,1.18182l-0.09091,2.18182l-16.90909,0.63636l-0.18182,-1.45454z" fill="#000000" stroke="#000000" stroke-width="1" stroke-linecap="round"/><path d="M313.52414,185.08756c0,0 0.86066,1.06363 1.46667,1.33334c0.50661,0.22546 -0.73334,-1.53334 -0.73334,-1.53334l0.26667,-1.26667c0,0 2.85332,-0.30143 3.86666,0.6c0.694,0.61736 1.63086,2.42854 0.06666,3c-1.48294,0.54178 -4.26666,-0.06667 -4.26666,-0.06667c0,0 -1.79093,-0.64872 -1.93334,-1.53333c-0.22487,-1.39674 1,-2.06667 1,-2.06667z" fill="#000000" stroke="#000000" stroke-width="0.5" stroke-linecap="round"/><path d="M340.6122,176.23665l0.57143,-1h1.28571l0.57143,0.85715l-0.5,1.07143l-1.28571,0.07143z" fill="#000000" stroke="#000000" stroke-width="0.5" stroke-linecap="round"/><path d="M343.46935,173.12952l0.57142,-1.10714h1.28572l0.57143,0.94898l-0.5,1.18622l-1.28572,0.07908z" fill="#000000" stroke="#000000" stroke-width="0.5" stroke-linecap="round"/><path d="M347.04078,176.27236l0.57142,-1.10714h1.28572l0.57143,0.94898l-0.5,1.18623l-1.28571,0.07908z" fill="#000000" stroke="#000000" stroke-width="0.5" stroke-linecap="round"/><path d="M349.75508,172.98665l0.57142,-1.32143h1.28571l0.57143,1.13266l-0.5,1.41581l-1.28571,0.09439z" fill="#000000" stroke="#000000" stroke-width="0.5" stroke-linecap="round"/><path d="M356.11222,172.98664l0.60504,-1.32142h1.36134l0.60504,1.13266l-0.52941,1.41581l-1.36135,0.09439z" fill="#000000" stroke="#000000" stroke-width="0.5" stroke-linecap="round"/><path d="M353.32651,176.27237l0.57142,-1.32142h1.28571l0.57143,1.13265l-0.5,1.41581l-1.28571,0.09439z" fill="#000000" stroke="#000000" stroke-width="0.5" stroke-linecap="round"/><path d="M359.75506,176.41523l0.57143,-1.32142h1.28572l0.57143,1.13265l-0.5,1.41582l-1.28571,0.09438z" fill="#000000" stroke="#000000" stroke-width="0.5" stroke-linecap="round"/><path d="M362.68364,172.98665l0.57143,-1.32143h1.28571l0.57143,1.13266l-0.5,1.41581l-1.28572,0.09439z" fill="#000000" stroke="#000000" stroke-width="0.5" stroke-linecap="round"/><path d="M366.11222,176.12952l0.57142,-1.32143h1.28571l0.57143,1.13265l-0.5,1.41582l-1.28572,0.09438z" fill="#000000" stroke="#000000" stroke-width="0.5" stroke-linecap="round"/><path d="M383.33244,167.69276l0.75,0.08333l-0.33333,2.83333l-2.91667,-0.16667l0.08334,-1l2.41666,-3.41667z" fill="#000000" stroke="#000000" stroke-width="0.5" stroke-linecap="round"/><path d="M380.58244,172.85943v-1h3.16667v1z" fill="#000000" stroke="none" stroke-width="0" stroke-linecap="butt"/><path d="M369.02888,172.90333l0.60504,-1.32143h1.36135l0.60504,1.13265l-0.52941,1.41582l-1.36135,0.09438z" fill="#000000" stroke="#000000" stroke-width="0.5" stroke-linecap="round"/><path d="M372.67173,176.33189l0.57143,-1.32143h1.28571l0.57143,1.13266l-0.5,1.41582l-1.28571,0.09438z" fill="#000000" stroke="#000000" stroke-width="0.5" stroke-linecap="round"/><path d="M375.60031,172.90332l0.57143,-1.32142h1.28571l0.57143,1.13265l-0.5,1.41581l-1.28571,0.09439z" fill="#000000" stroke="#000000" stroke-width="0.5" stroke-linecap="round"/><path d="M331.91428,188.78275c0,0 0.93012,1.14948 1.58504,1.44095c0.5475,0.24366 -0.79253,-1.6571 -0.79253,-1.6571l0.28819,-1.3689c0,0 3.08362,-0.32575 4.17876,0.64843c0.75003,0.66719 1.76251,2.62455 0.07205,3.24214c-1.60264,0.58551 -4.61104,-0.07205 -4.61104,-0.07205c0,0 -1.93547,-0.70108 -2.08938,-1.65709c-0.24302,-1.50948 1.08071,-2.23348 1.08071,-2.23348z" fill="#000000" stroke="#000000" stroke-width="0.5" stroke-linecap="round"/></g><path d="M302.22222,126.49306l87.55556,23.88889v-57.33334l-87.66667,26.88889l-1.61235,3.26104z" fill="url(#color-1)" stroke="#323231" stroke-width="0" stroke-linecap="round"/></g></g></svg>