<svg version="1.1" xmlns="http://www.w3.org/2000/svg" xmlns:xlink="http://www.w3.org/1999/xlink" width="23.51173" height="16.68726" viewBox="0,0,23.51173,16.68726"><g transform="translate(-308.84318,-176.89295)"><g data-paper-data="{&quot;isPaintingLayer&quot;:true}" fill-rule="nonzero" stroke="#000000" stroke-width="0.25" stroke-linejoin="miter" stroke-miterlimit="10" stroke-dasharray="" stroke-dashoffset="0" style="mix-blend-mode: normal"><path d="M319.98681,182.74665l1.8073,2.24376l-2.73555,-0.89443l0.08415,-1.35265z" data-paper-data="{&quot;index&quot;:null}" fill="#202526" stroke-linecap="round"/><path d="M318.53339,186.46161c-0.39897,0.24192 -2.17978,5.9077 -2.17978,5.9077l-7.33831,0.043c0,0 0.60956,-2.31471 1.57124,-4.46854c0.80937,-1.81272 1.99726,-3.47113 1.99726,-3.94095c0,-0.73234 -0.69156,-1.65977 -0.69156,-1.65977l13.1982,0.11065c0,0 0.07928,4.0443 -1.40554,4.09704c-1.64864,0.05855 -4.99468,-0.18422 -5.15151,-0.08913zM319.52437,185.87496c0.842,0 3.50912,0.50805 4.35127,-0.15972c0.65976,-0.52315 0.70697,-2.923 0.70697,-2.923l-5.3922,-0.01001c0,0 -0.50805,3.09273 0.33395,3.09273z" data-paper-data="{&quot;index&quot;:null}" fill="#202526" stroke-linecap="butt"/><path d="M311.3159,179.73351c0,0 -0.74689,-0.57498 -0.74689,-0.78377c0,-0.20879 0.16926,-0.37806 0.37806,-0.37806c0.2088,0 0.87599,0.72845 0.87599,0.72845zM311.06926,178.94052c0,-0.07639 -0.06192,-0.13831 -0.13831,-0.13831c-0.07639,0 -0.13831,0.06192 -0.13831,0.13831c0,0.07639 0.06192,0.13831 0.13831,0.13831c0.07639,0 0.13831,-0.06192 0.13831,-0.13831z" data-paper-data="{&quot;index&quot;:null}" fill="#15181a" stroke-linecap="butt"/><path d="M320.3266,179.23282v-1.16184h8.90741v1.16184z" data-paper-data="{&quot;index&quot;:null}" fill="#15181a" stroke-linecap="butt"/><path d="M331.3447,179.90239v-1.84419c0,0 0.76276,-0.32152 0.88521,0c0.10807,0.28376 0.14949,1.53274 0,1.84419c-0.14949,0.31145 -0.88521,0 -0.88521,0z" data-paper-data="{&quot;index&quot;:null}" fill="#202526" stroke-linecap="butt"/><path d="M329.64044,182.24391v-1.94975h2.14673c0,0 0.0427,1.56497 -0.15333,1.80352c-0.19456,0.23674 -1.9934,0.14623 -1.9934,0.14623z" data-paper-data="{&quot;index&quot;:null}" fill="#15181a" stroke-linecap="butt"/><path d="M330.0971,180.24251l-0.26556,-1.96959" data-paper-data="{&quot;index&quot;:null}" fill="none" stroke-linecap="round"/><path d="M312.63636,178.18163v-1.05303c0,0 0.11694,-0.11065 0.24897,-0.11065c0.16644,0 0.24897,0.11065 0.24897,0.11065v1.05303z" data-paper-data="{&quot;index&quot;:null}" fill="#202526" stroke-linecap="butt"/><path d="M313.1343,178.31996v-0.91288h1.02352v0.19364h2.84926l0.24897,0.30429z" data-paper-data="{&quot;index&quot;:null}" fill="#15181a" stroke-linecap="round"/><path d="M331.53557,177.85244l0.35408,2.3458l-0.11065,0.08852l-20.55898,0.02213c0,0 0.00863,-0.82419 0.15415,-1.16374c0.14209,-0.33154 0.79192,-1.09907 0.79192,-1.09907l1.65977,0.0249l0.15214,-0.34578h6.92952v0.53942l0.60858,0.35962l1.54911,0.02766l0.27663,-0.16598l5.28359,-0.08299l0.71923,-0.60858z" data-paper-data="{&quot;index&quot;:null}" fill="#202526" stroke-linecap="round"/><path d="M311.99825,182.48752c0,0 -0.60268,-0.47411 -0.98246,-0.63542c-0.85827,-0.36456 -1.94154,-0.60864 -2.04761,-0.67046c-0.15299,-0.08917 -0.1021,-0.23696 0.21493,-0.33494c0.211,-0.06521 0.7685,0.26004 1.16999,0.14957c0.50462,-0.13886 0.84293,-0.70947 0.84293,-0.70947h18.45107v2.20073z" data-paper-data="{&quot;index&quot;:null}" fill="#202526" stroke-linecap="butt"/><path d="M309.13976,193.45427l0.29507,-1.06962h6.52841l-0.36884,1.03274z" data-paper-data="{&quot;index&quot;:null}" fill="#2a3133" stroke-linecap="butt"/><path d="M323.36923,178.54201l0.65049,1.62623" fill="none" stroke-linecap="round"/><path d="M324.50758,180.16824l-0.65049,-1.62623" fill="none" stroke-linecap="round"/><path d="M324.3043,178.54201l0.65049,1.62623" fill="none" stroke-linecap="round"/><path d="M325.44266,180.16824l-0.65049,-1.62623" fill="none" stroke-linecap="round"/><path d="M325.28003,178.54201l0.65049,1.62623" fill="none" stroke-linecap="round"/><path d="M326.41839,180.16824l-0.65049,-1.62623" fill="none" stroke-linecap="round"/><path d="M326.21512,178.54201l0.65049,1.62623" fill="none" stroke-linecap="round"/><path d="M326.70298,178.54201l0.65049,1.62623" fill="none" stroke-linecap="round"/><path d="M327.19085,178.54201l0.65049,1.62623" fill="none" stroke-linecap="round"/><path d="M328.3292,180.16824l-0.65049,-1.62623" fill="none" stroke-linecap="round"/><path d="M328.77641,180.16824l-0.65049,-1.62623" fill="none" stroke-linecap="round"/></g></g></svg>