<svg version="1.1" xmlns="http://www.w3.org/2000/svg" xmlns:xlink="http://www.w3.org/1999/xlink" width="18.45614" height="26.05163" viewBox="0,0,18.45614,26.05163"><g transform="translate(-310.77193,-166.97419)"><g data-paper-data="{&quot;isPaintingLayer&quot;:true}" fill-rule="nonzero" stroke-width="0.5" stroke-linecap="butt" stroke-linejoin="miter" stroke-miterlimit="10" stroke-dasharray="" stroke-dashoffset="0" style="mix-blend-mode: normal"><path d="M329.12188,189.1033c0.22031,0.22031 0.03433,0.44061 0.00401,0.4736c-0.19545,0.93526 -0.48298,1.97707 -1.05386,2.73871c-0.20248,0.27014 -0.35539,0.51712 -0.69908,0.65672c-0.26581,0.10797 -0.83181,0.01905 -1.1255,0.01905c-0.91031,0 -1.82065,0.00171 -2.73095,-0.00115c-1.01996,-0.16999 -2.08688,-0.03294 -3.11397,-0.13565c-0.41338,-0.04134 -0.7919,-0.0148 -1.16637,-0.25689c-0.30593,-0.19778 -0.57732,-0.53352 -0.8126,-0.80405c-0.32531,-0.37405 -0.44889,-0.60975 -0.54911,-1.1012c0,0 -0.06626,-0.33132 0.26506,-0.39759c0.33132,-0.06626 0.39759,0.26506 0.39759,0.26506c0.07886,0.40375 0.12918,0.48716 0.39697,0.79096c0.20287,0.23015 0.41817,0.5042 0.67409,0.68265c0.25252,0.17607 0.58113,0.12059 0.86095,0.14857c1.0237,0.10237 2.08573,-0.0349 3.10312,0.13466c0.89172,-0.00331 1.78349,-0.00115 2.67522,-0.00115c0.21642,0 0.70476,0.09529 0.90182,0.01905c0.34059,-0.13177 0.54438,-0.69528 0.68765,-0.98012c0.30055,-0.59753 0.51644,-1.34182 0.64714,-2.01101l0.15998,-0.24023c0,0 0.23892,-0.23892 0.47784,0z" fill="#3b00df" stroke="none"/><path d="M318.88155,178.39472c-0.33789,0 -0.33789,-0.33789 -0.33789,-0.33789v-0.06758c0.00116,-0.21528 -0.02371,-0.43137 -0.06593,-0.64248c-0.00261,-0.58866 0.16002,-1.45386 -0.04841,-2.01144c-0.37327,-0.99853 -1.14302,-1.2638 -2.03481,-1.62617c-0.84374,-0.34285 -1.66975,-0.93485 -2.29421,-1.58735c-0.21952,-0.08325 -0.41744,-0.21538 -0.63096,-0.31299c-0.35859,-0.16393 -0.79472,-0.17821 -1.14554,-0.3364c-0.20535,-0.0926 -0.33347,-0.31696 -0.54062,-0.40546c-0.41242,-0.17621 -0.81,-0.22683 -0.99356,-0.74223c-0.02173,-0.06101 -0.01734,-0.67313 -0.01734,-0.78262c0,-0.74335 0,-1.4867 0,-2.23005c0,0 0,-0.33789 0.33789,-0.33789c0.33789,0 0.33789,0.33789 0.33789,0.33789c0,0.63072 0,1.26144 0,1.89216c0,0.24826 -0.08355,0.6712 -0.01734,0.90681c0.07812,0.27799 0.44628,0.25559 0.62829,0.33901c0.20477,0.09385 0.33405,0.31563 0.54062,0.40546c0.35278,0.15342 0.79041,0.17581 1.15208,0.33937c0.24503,0.11081 0.47236,0.25932 0.72059,0.36278c0.61907,0.60038 1.35211,1.20172 2.16588,1.5212c1.05913,0.41581 2.00484,0.84463 2.42528,2.02299c0.22766,0.63807 0.09036,1.50864 0.08674,2.17834c0.04657,0.23287 0.06817,0.47159 0.06922,0.70907v0.06758c0,0 0,0.33789 -0.33789,0.33789z" fill="#dd0000" stroke="none"/><path d="M315.48039,190.56123l0.46649,-12.89923l7.48464,0.25705l-0.46649,12.89923z" fill="#b7b8b8" stroke="#000000"/></g></g></svg>