<svg version="1.1" xmlns="http://www.w3.org/2000/svg" xmlns:xlink="http://www.w3.org/1999/xlink" width="81" height="20.5" viewBox="0,0,81,20.5"><g transform="translate(-288.03335,-169.75)"><g data-paper-data="{&quot;isPaintingLayer&quot;:true}" fill-rule="nonzero" stroke-linejoin="miter" stroke-miterlimit="10" stroke-dasharray="" stroke-dashoffset="0" style="mix-blend-mode: normal"><path d="M288.28335,190v-20h80.5v20z" fill="#151515" stroke="#000000" stroke-width="0.5" stroke-linecap="butt"/><path d="M327.87147,173.12369l-0.06223,-1.74241h4.97831l0.12446,1.61795l6.59626,-0.18669l0.31114,0.4356h3.36036l0.37337,-0.24891h5.91174l0.74675,-1.36904l5.165,0.06223l2.05355,1.99132l8.64981,-0.31114l0.93343,1.86686l-1.05789,10.64114l-2.55138,-0.06223l-3.2359,-7.46746l-3.73373,-0.56006l-0.93343,2.67584l-7.90307,-0.62229l-0.62229,1.30681h-0.62229l3.42259,7.28078l-4.48048,0.18669l-1.61795,-7.21855l-4.48048,-0.18668l-1.4935,-0.99566l-2.8003,-0.12445v2.42693l-9.2721,-2.8003l-0.99566,-2.86253l1.05789,-3.36036z" data-paper-data="{&quot;index&quot;:null}" fill="none" stroke="#000000" stroke-width="0" stroke-linecap="round"/><g fill="none" stroke="#ffffff" stroke-linecap="round"><path d="M366.08001,173.3104l0.93343,1.92909l-1.05789,10.57891l-2.61361,-0.06223l-3.2359,-7.40523l-3.6715,-0.62229l0.8712,-4.04488z" data-paper-data="{&quot;index&quot;:null}" stroke-width="0.5"/><path d="M327.87147,173.12369l-0.06223,-1.74241h4.97831l0.12446,1.61795l6.59626,-0.18669l0.31114,0.4356h3.36036l0.37337,-0.24891h5.91174l0.74675,-1.36904l5.165,0.06223l2.05355,1.99132l8.64981,-0.31114l0.93343,1.86686l-1.05789,10.64114l-2.55138,-0.06223l-3.2359,-7.46746l-3.73373,-0.56006l-0.93343,2.67584l-7.90307,-0.62229l-0.62229,1.30681h-0.62229l3.42259,7.28078l-4.48048,0.18669l-1.61795,-7.21855l-4.48048,-0.18668l-1.4935,-0.99566l-2.8003,-0.12445v2.42693l-9.2721,-2.8003l-0.99566,-2.86253l1.05789,-3.36036z" data-paper-data="{&quot;index&quot;:null}" stroke-width="0.5"/><path d="M350.91395,173.55931h3.85819" data-paper-data="{&quot;index&quot;:null}" stroke-width="1"/></g></g></g></svg>