<svg version="1.1" xmlns="http://www.w3.org/2000/svg" xmlns:xlink="http://www.w3.org/1999/xlink" width="24.97071" height="9.16802" viewBox="0,0,24.97071,9.16802"><defs><radialGradient cx="317.83901" cy="179.54798" r="9.09572" gradientUnits="userSpaceOnUse" id="color-1"><stop offset="0" stop-color="#1b1b1b"/><stop offset="1" stop-color="#000000"/></radialGradient></defs><g transform="translate(-307.52196,-174.42087)"><g data-paper-data="{&quot;isPaintingLayer&quot;:true}" fill-rule="nonzero" stroke="none" stroke-width="0.5" stroke-linecap="butt" stroke-linejoin="miter" stroke-miterlimit="10" stroke-dasharray="" stroke-dashoffset="0" style="mix-blend-mode: normal"><path d="M309.37397,176.02938c-0.02063,0.38208 -0.06466,0.77918 -0.11922,1.18373c0.0235,1.07205 0.13377,2.15123 -0.03665,3.2011c-0.03588,0.22101 -0.22471,0.47554 -0.38627,0.71826c0.0082,0.23272 0.02862,0.45876 0.06437,0.67627c0.07682,0.46732 0.91411,0.25585 1.38175,0.33069c0.23078,0.03693 0.46438,0.06405 0.69997,0.08356c1.07492,-0.02242 2.22249,-0.14464 2.86569,-0.14464c2.73374,0 5.46069,-0.08482 8.19158,-0.13172c1.09335,-0.04688 2.18859,-0.08083 3.29032,-0.08083c0.42949,0 0.90259,0.03253 1.38928,0.05904c0.00583,-0.13984 -0.50325,-2.00049 -0.53991,-2.15417c-0.23245,-0.99447 -0.39867,-2.01034 -0.39927,-3.02211c-0.0002,-0.33827 0.43479,-0.8328 0.15371,-1.0409c-1.77382,-0.12354 -3.53783,-0.03239 -4.47721,-0.03277c-4.02487,0.31063 -8.03939,0.351 -12.07816,0.35449zM331.02155,179.81301c0.09522,-0.27835 0.15598,-0.53834 0.18545,-0.78116c-0.00075,-0.43282 -0.06872,-0.88351 -0.19715,-1.31019c-0.61054,-1.22761 -2.4177,-1.74309 -4.34813,-1.94983c0.00732,0.22397 0.00187,0.45035 0.00187,0.52276c0,1.12958 0.12337,2.23835 0.38468,3.35163c0.10845,0.45468 0.62396,1.5923 0.52131,2.31112c0.24727,0.00328 0.49358,-0.0006 0.73512,-0.01654c0.75979,-0.10243 1.31473,-0.34528 1.98208,-0.82471c0.26458,-0.42358 0.58537,-0.86638 0.73477,-1.30309zM308.11967,175.9963c-0.18295,-0.05525 -0.4259,-0.20197 -0.4259,-0.59163c0,-0.625 0.625,-0.625 0.625,-0.625h0.35431c4.2599,0 8.48883,-0.02853 12.73107,-0.35385c1.57732,-0.00062 4.24096,-0.07388 6.56226,0.36556c0.845,0.02698 1.66751,0.14921 2.33514,0.55239c0.22919,0.1384 0.43756,0.30985 0.62433,0.50687c1.31951,0.85127 1.98639,2.20561 1.28151,4.35767c-0.22687,0.69265 -0.82672,1.46603 -1.19896,2.08894c-1.68919,1.15795 -3.71758,0.81857 -5.68292,0.81857c-3.55813,0 -7.05111,0.35431 -10.62922,0.35431c-1.6763,0 -6.09975,0.6725 -6.95495,-1.18301c-0.61516,-1.3347 0.24477,-4.48468 0.37832,-6.2908z" fill="#000000"/><path d="M327.55219,182.02374c0.12868,-0.71588 -0.42347,-1.89956 -0.53396,-2.3628c-0.26132,-1.11328 -0.37543,-2.25912 -0.37543,-3.3887c0,-0.10538 0.01531,-0.53869 -0.01777,-0.81425c1.07099,-0.04255 2.3248,-0.09471 3.1265,0.39528c1.49052,0.911 1.98834,3.96337 0.83273,5.07748c-1.00921,0.78233 -1.72736,1.0538 -3.03206,1.09298z" data-paper-data="{&quot;noHover&quot;:false,&quot;origItem&quot;:[&quot;Path&quot;,{&quot;applyMatrix&quot;:true,&quot;segments&quot;:[[[661.13265,361.81388],[-2.01841,1.56465],[2.31123,-2.22823]],[[659.48756,351.76035],[2.98104,1.82199],[-1.6034,-0.97999]],[[653.2841,350.96436],[2.14197,-0.08511],[0.06616,0.55111]],[[653.32717,352.58918],[0,-0.21076],[0,2.25917]],[[654.09653,359.29243],[-0.52263,-2.22655],[0.22098,0.92647]],[[655.12622,363.99497],[0.25735,-1.43177],[2.6094,-0.07837]]],&quot;closed&quot;:true}]}" fill="#ad1d1d"/><path d="M315.28035,175.70423c2.48957,-0.10143 5.0409,-0.14171 7.53412,-0.14171c0.76187,0 2.39223,-0.21531 3.08406,0.0967c0.40068,0.1807 -0.08944,0.72079 -0.08923,1.08056c0.00059,1.01177 0.16834,2.04015 0.40079,3.03462c0.03795,0.1591 0.5796,2.155 0.53469,2.16968c-0.59249,0.1937 -2.57329,-0.00997 -3.32885,-0.00139c-3.18311,0.03617 -6.41179,0.15595 -9.59636,0.15595c-1.18557,0 -4.09311,0.40617 -5.09236,-0.15377c-0.54328,-0.30444 0.37255,-1.0082 0.45633,-1.52432c0.24531,-1.51123 -0.08853,-3.1013 0.08957,-4.62529c1.99953,-0.00102 4.00812,-0.08665 6.00724,-0.09103z" data-paper-data="{&quot;noHover&quot;:false,&quot;origItem&quot;:[&quot;Path&quot;,{&quot;applyMatrix&quot;:true,&quot;segments&quot;:[[[618.61045,351.61405],[3.99906,-0.00203],[-0.35621,3.04799]],[[618.43619,360.8284],[0.49062,-3.02245],[-0.16756,1.03223]],[[617.51932,363.86734],[-1.08657,-0.60888],[1.99849,1.11989]],[[627.68722,364.15669],[-2.37114,0],[6.36915,0]],[[646.77331,363.85414],[-6.36623,0.07235],[1.51113,-0.01717]],[[653.42444,363.86611],[-1.18499,0.3874],[0.08983,-0.02937]],[[652.34979,359.54132],[0.0759,0.3182],[-0.4649,-1.98894]],[[651.55125,353.4971],[0.00119,2.02353],[-0.00042,-0.71954]],[[651.73354,351.34313],[0.80137,0.36141],[-1.38365,-0.62401]],[[645.57412,351.16011],[1.52374,0],[-4.98645,0]],[[630.59645,351.45611],[4.97915,-0.20287],[-3.99824,0.00876]]],&quot;closed&quot;:true}]}" fill="url(#color-1)"/><path d="M326.03376,177.2644c-0.17678,0.17678 -0.35355,0 -0.35355,0l-0.13541,-0.15355c-0.20491,-0.41928 -0.50856,-0.75615 -0.83894,-1.08653c0,0 -0.17678,-0.17678 0,-0.35355c0.17678,-0.17678 0.35355,0 0.35355,0c0.37159,0.37159 0.6942,0.74837 0.9326,1.21647l0.04175,0.0236c0,0 0.17678,0.17678 0,0.35355z" fill="#6f5757"/><path d="M325.51894,177.81291c0.05546,0.00511 0.23374,0.03795 0.23374,0.24906c0,0.25 -0.25,0.25 -0.25,0.25l-0.26535,-0.07322c-0.58158,-0.58247 -1.10118,-1.18975 -1.68296,-1.77154c0,0 -0.17678,-0.17678 0,-0.35355c0.17678,-0.17678 0.35355,0 0.35355,0c0.5586,0.5586 1.05729,1.13945 1.61102,1.69925z" fill="#6f5757"/></g></g></svg>