<svg version="1.1" xmlns="http://www.w3.org/2000/svg" xmlns:xlink="http://www.w3.org/1999/xlink" width="151.85068" height="181.97049" viewBox="0,0,151.85068,181.97049"><defs><linearGradient x1="302.11111" y1="121.71529" x2="389.77778" y2="121.71529" gradientUnits="userSpaceOnUse" id="color-1"><stop offset="0" stop-color="#ff0000" stop-opacity="0.25882"/><stop offset="1" stop-color="#ff0000" stop-opacity="0"/></linearGradient></defs><g transform="translate(-259.34919,-90.74826)"><g data-paper-data="{&quot;isPaintingLayer&quot;:true}" fill-rule="nonzero" stroke-linejoin="miter" stroke-miterlimit="10" stroke-dasharray="" stroke-dashoffset="0" style="mix-blend-mode: normal"><path d="M302.23673,223.3253c4.90395,-0.00967 9.78974,0.02049 14.69324,0.02906c2.18455,-0.61067 4.87946,-0.59891 7.16661,0.16631c3.22762,-0.05897 5.97666,-0.9582 6.38099,-5.75592c0.1192,-1.4144 -1.16177,-2.48504 -1.88268,-3.70776c-1.97104,-3.34304 -4.18937,-6.52696 -6.36723,-9.76694l-0.89191,-2.26443c0,0 -0.93924,-2.31916 -3.26043,-1.39069c-0.86473,0.34589 -1.28413,0.88518 -1.46287,1.42563c-1.68561,0.47335 -1.69047,2.39522 -1.69047,2.39522l0.01288,1.43471l0.08907,0.01982l0.03014,0.93656c0.74196,3.70978 1.52082,7.6789 2.15021,11.60941c-1.56805,0 -3.14381,-0.00057 -4.71186,-0.00057c-3.64905,0 -7.31552,-0.03347 -10.96581,-0.03197c-0.01666,-0.24104 -0.03756,-0.48118 -0.06223,-0.71964c-0.3066,-2.96311 -1.49971,-5.7798 -2.03776,-8.71046c-0.4674,-2.54579 -1.52444,-4.48927 -1.46728,-7.05825c0,0 -0.00034,-0.12269 -0.02736,-0.31307c0.14895,-0.03005 0.37992,-0.12056 0.52939,-0.15644c1.06423,-0.25549 1.93299,-1.04138 2.95882,-1.42288c3.72176,-1.38405 9.49292,-2.02821 11.92128,-5.72406c1.95922,-2.98184 0.58837,-8.33581 -1.10503,-10.99428c-2.36496,-3.71273 -5.42934,-3.61249 -8.67344,-5.1485c-0.26346,-0.33228 -0.67991,-0.60376 -1.00148,-0.73904c-0.53189,-1.27049 -1.05216,-2.5927 -1.50387,-3.92421c0.3329,-4.76454 0.3208,-9.56148 -0.04348,-14.33964l0.00848,-1.80886c0,0 0.0475,-2.41201 -2.4525,-2.41201l-0.00001,-0.00004c-1.21966,0 -1.84151,0.59335 -2.16141,1.20282c-1.36872,0.60877 -1.36608,2.28003 -1.36608,2.28003c0,3.70951 -0.593,8.03011 0.03303,11.67165c0.2433,1.41526 0.62025,2.84144 1.0717,4.26038c-0.08077,0.92645 -0.17795,1.84361 -0.29854,2.7581c0.07626,0.04131 0.15184,0.08361 0.22674,0.12688c-0.114,0.78924 0.18495,1.48165 0.18495,1.48165c0.51003,1.03877 0.72006,2.28675 1.53206,3.11126c1.7786,1.80601 6.12316,3.04177 8.49577,3.65409l0.17252,0.67301c0,0 0.94023,0.93791 2.13466,0.76169c0.82764,1.64209 1.30832,3.62768 0.4942,4.80799c-0.88259,1.27956 -5.32842,2.52587 -6.69925,2.95302c-1.30491,0.40662 -2.53846,1.02755 -3.81575,1.51269c0.01698,-0.11001 0.03351,-0.22068 0.05013,-0.33072c-1.64032,1.17741 -3.65199,1.86975 -5.82522,1.86975c-1.65447,0 -3.21657,-0.40606 -4.59111,-1.11738c-1.04778,-0.54223 -1.98847,-1.26857 -2.77913,-2.12966c-3.07119,-4.73644 -0.82709,-9.72248 -0.798,-15.45144c0,0 0.00069,-1.1816 -0.80935,-1.92026c0.02869,-0.73102 0.08163,-1.48582 0.16437,-2.28351c0.74031,-7.13686 1.94184,-14.14282 2.4207,-21.30753c0.20301,-3.03736 -0.00657,-5.89124 1.06592,-8.63198c1.3396,-0.90887 2.57074,-2.11224 3.14328,-2.9966c0.85288,-0.45002 1.73163,-0.82371 2.45888,-1.14794c1.54017,-0.68667 3.08152,-1.40966 4.69858,-1.88797l1.40103,-0.65901c0,0 1.00312,-0.50132 1.33046,-1.50289c3.77026,-0.24964 1.49378,3.65634 4.11778,6.11038c1.22906,1.14945 4.15339,1.8649 6.98309,2.11254c0.77067,0.03397 1.54455,0.06627 2.31657,0.09661c1.35911,-0.00904 2.56751,-0.14511 3.37559,-0.41291c1.88892,-0.62599 4.95161,-3.25829 5.66244,-5.13072c0.36164,-0.95262 -0.05953,-1.9395 -0.15123,-2.95432c-0.00172,-0.01901 0.00595,-0.13799 0.00139,-0.15804c0.38338,0.21216 0.70675,0.28671 0.70675,0.28671c3.22048,0.7154 7.22884,1.9673 9.59217,4.43856c0.35018,1.56589 1.15073,3.25887 1.55696,4.98344c0.03776,7.34397 0.66436,14.68212 0.79017,22.03718l-0.02848,0.0813c0,0 -0.11413,0.57774 0.04674,1.22761c0.0031,0.35389 0.00596,0.70889 0.0064,1.06292c-0.42777,0.36749 -0.76495,0.95012 -0.76495,1.86986c0,2.5 2.5045,2.50581 2.5045,2.50581c0.32864,-0.00014 7.03722,-0.0189 7.52967,0.06406c0.95612,0.16108 0.17564,1.93828 0.34901,2.89225c0.61808,3.40103 1.94837,6.43125 1.34739,10.06814c-0.83545,5.05573 -6.99628,4.2121 -10.7471,4.0168c-0.90406,-0.04707 -3.54975,-0.22722 -4.46987,-0.90507c-0.84872,-0.62526 -2.80029,-3.9445 -3.14371,-4.49058c-1.12322,-1.13337 -2.69073,-1.95343 -3.32199,-3.41893c-0.85276,-1.97972 -0.11259,-5.64028 -0.48208,-7.76418c-1.22801,-7.05885 -0.40074,-14.35619 -1.29733,-21.52897l0.01951,-1.02321c0,0 0.00374,-2.49952 -2.49626,-2.49952c-2.5,0 -2.49681,2.50018 -2.49681,2.50018l0.02189,1.54345c0.90821,7.26563 0.07816,14.63611 1.36133,21.79962c0.50073,2.7954 -0.27197,6.25251 0.85978,8.90005c0.55779,1.30486 2.95213,3.5517 4.01751,4.60632c1.10427,1.77852 2.43832,4.28253 4.18359,5.50841c0.77974,0.54769 1.69457,0.87824 2.62189,1.14242c0.04954,0.50826 0.10487,1.0209 0.16862,1.53136c0.03467,0.00421 0.06941,0.00833 0.10407,0.0126c-0.1733,0.82296 0.1279,1.58373 0.1279,1.58373c0.80014,2.00034 1.67924,3.98051 2.6211,5.93493c-0.1153,0.59235 -0.01674,1.09191 -0.01674,1.09191c0.27881,1.11422 0.23336,2.36572 0.83419,3.34461c0.96942,1.5794 3.01981,2.23265 4.14546,3.70479c2.82347,3.69258 6.43642,8.0806 8.14776,12.39126c0.65778,1.65686 3.89123,5.99411 3.08332,7.95486c-0.5167,1.25398 -2.57463,0.87484 -3.89151,1.1993c-4.42803,1.09097 -8.83082,2.21001 -13.22146,3.44845c-2.21426,0.00606 -4.38981,0.63421 -6.57173,1.01129c-1.09665,0.18953 -2.34631,0.24327 -3.63556,0.23228c0.00365,-0.02897 0.00729,-0.05795 0.01089,-0.08693c-1.64415,0.47215 -3.51121,0.49457 -5.14995,0.30236c-0.27526,0 -0.54715,-0.01779 -0.81301,-0.05229c-0.55703,-0.07228 -1.09258,-0.21794 -1.59357,-0.4269c-4.4847,0 -8.98194,-0.00203 -13.46663,-0.00203c-2.19927,0.77124 -5.22041,0.07012 -7.5436,0.18806c-0.81448,0.04135 -2.32843,0.04046 -3.48114,-0.19149c-0.31961,0 -0.63986,-0.00034 -0.95947,-0.00034c-0.83333,0 -1.67418,-0.09975 -2.50163,-0.00091c-0.3904,0.04664 -0.74073,0.59158 -1.09896,0.42953c-0.2746,-0.12422 0.04438,-0.60152 0.05302,-0.90278c0.02417,-0.8422 0.03777,-1.68529 0.04417,-2.52782c0.00693,-0.91242 0.05955,-1.82183 0.13063,-2.72858l-0.2153,-0.37646c0.10557,-0.18474 0.20298,-0.37768 0.29482,-0.57625c0.25487,-2.89629 0.57867,-5.78149 0.02038,-8.70475c1.9746,-0.85121 5.73412,-0.7785 8.35388,-0.71579c0.11669,-0.04128 0.2355,-0.08019 0.35672,-0.11643l0.00985,0.01726c0.50051,0.8759 4.28354,0.92956 6.81257,0.07784z" data-paper-data="{&quot;noHover&quot;:false,&quot;origItem&quot;:[&quot;Path&quot;,{&quot;applyMatrix&quot;:true,&quot;segments&quot;:[[[590.79566,446.57991],[1.00102,1.75179],[0,0]],[[590.77592,446.54537],[0,0],[-0.24244,0.07249]],[[590.062,446.77792],[0.23339,-0.08256],[-5.23952,-0.12542]],[[573.47214,448.04857],[3.94919,-1.70242],[1.11659,5.84653]],[[573.42309,465.45175],[0.50974,-5.79257],[-0.18368,0.39714]],[[572.83333,466.60417],[0.21114,-0.36949],[0,0]],[[573.26335,467.35669],[0,0],[-0.14217,1.8135]],[[573,472.8125],[0.01385,-1.82484],[-0.01279,1.68504]],[[572.90978,477.86696],[0.04834,-1.6844],[-0.01729,0.60253]],[[572.80314,479.67216],[-0.5492,-0.24844],[0.71646,0.3241]],[[575,478.8125],[-0.78081,0.09327],[1.6549,-0.19768]],[[580,478.8125],[-1.66667,0],[0.63922,0]],[[581.91765,478.8125],[-0.63922,0],[2.30543,0.4639]],[[588.87481,479.19304],[-1.62895,0.0827],[4.64638,-0.23589]],[[603.94999,478.8125],[-4.39854,1.54249],[8.9694,0]],[[630.85819,478.8125],[-8.9694,0],[1.00197,0.41792]],[[634.04222,479.66624],[-1.11405,-0.14457],[0.53172,0.069]],[[635.66667,479.77083],[-0.55052,0],[3.27748,0.38442]],[[645.95661,479.16675],[-3.2883,0.94429],[-0.0072,0.05795]],[[645.93486,479.34058],[0.0073,-0.05794],[2.57851,0.02198]],[[653.19909,478.87706],[-2.19329,0.37905],[4.36384,-0.75416]],[[666.3303,476.85755],[-4.42852,0.01212],[8.78129,-2.47688]],[[692.75063,469.97111],[-8.85606,2.18193],[2.63376,-0.6489]],[[700.52786,467.57643],[-1.03339,2.50796],[1.61583,-3.92149]],[[694.35762,451.66945],[1.31555,3.31371],[-3.42268,-8.6213]],[[678.05897,426.88956],[5.64695,7.38516],[-2.25129,-2.94427]],[[669.76997,419.47836],[1.93883,3.15879],[-1.20166,-1.95777]],[[668.0971,412.79308],[0.55762,2.22843],[0,0]],[[668.1283,410.61143],[-0.2306,1.1847],[-1.88372,-3.90884]],[[662.87765,398.75111],[1.60027,4.00067],[0,0]],[[662.61783,395.58917],[-0.3466,1.64592],[-0.06932,-0.00854]],[[662.40985,395.56373],[0.06934,0.00842],[-0.1275,-1.02092]],[[662.06875,392.50717],[0.09908,1.01652],[-1.85464,-0.52836]],[[656.82621,390.22023],[1.55948,1.09538],[-3.49054,-2.45176]],[[648.44625,379.23611],[2.20854,3.55704],[-2.13076,-2.10924]],[[640.43931,370.11433],[1.11558,2.60972],[-2.2635,-5.29508]],[[638.77133,352.34111],[1.00146,5.5908],[-2.56634,-14.32702]],[[636.06443,308.74353],[1.81642,14.53126],[0,0]],[636.02581,305.45669],[[641.02581,300.45669],[-5,0],[5,0]],[646.02581,305.45669],[[645.98721,307.50319],[0,0],[1.79318,14.34556]],[[648.61365,350.57229],[-2.45602,-14.1177],[0.73898,4.2478]],[[649.61233,366.13241],[-1.70552,-3.95944],[1.26252,2.931]],[[656.27205,373.01061],[-2.24644,-2.26674],[0.68684,1.09216]],[[662.55875,382.02649],[-1.69744,-1.25052],[1.84024,1.3557]],[[671.30231,383.79769],[-1.80812,-0.09414],[7.50164,0.3906]],[[692.79459,375.78471],[-1.6709,10.11146],[1.20196,-7.27378]],[[690.10605,355.68215],[1.23616,6.80206],[-0.34674,-1.90794]],[[689.41165,349.90617],[1.91224,0.32216],[-0.9849,-0.16594]],[[674.35915,349.79003],[0.65728,-0.00028],[0,0]],[[669.35915,344.79003],[0,5],[0,-1.83948]],[[670.89141,341.05283],[-0.85554,0.73498],[-0.00088,-0.70806]],[[670.88067,338.92907],[0.0062,0.70778],[-0.32174,-1.29974]],[670.78957,336.47611],[[670.84663,336.31359],[0,0],[-0.25162,-14.71012]],[[669.29525,292.25767],[0.07552,14.68794],[-0.81244,-3.44914]],[[666.18765,282.29317],[0.70036,3.13178],[-4.72666,-4.94252]],[[647.02313,273.42059],[6.44096,1.4308],[0,0]],[[645.61103,272.84733],[0.76676,0.42432],[0.00912,0.0401]],[[645.63009,272.96461],[-0.00344,-0.03802],[0.1834,2.02964]],[[645.90973,279.07193],[0.72328,-1.90524],[-1.42166,3.74486]],[[634.59635,289.33409],[3.77784,-1.25198],[-1.61616,0.5356]],[[627.85295,290.15963],[2.71822,-0.01808],[-1.54404,-0.06068]],[[623.22507,289.96589],[1.54134,0.06794],[-5.6594,-0.49528]],[[609.27279,285.73803],[2.45812,2.2989],[-5.248,-4.90808]],[[601.04137,273.51603],[7.54052,-0.49928],[-0.65468,2.00316]],[598.38353,276.52077],[[595.58419,277.83775],[0,0],[-3.23412,0.95662]],[[586.19573,281.60981],[3.08034,-1.37334],[-1.4545,0.64846]],[[581.28245,283.90327],[1.70576,-0.90004],[-1.14508,1.76872]],[[575.00269,289.89219],[2.6792,-1.81774],[-2.145,5.48148]],[[572.88065,307.14849],[0.40602,-6.07472],[-0.95774,14.32942]],[[568.06567,349.72611],[1.48062,-14.27372],[-0.16548,1.59538]],[[567.73907,354.28729],[0.05738,-1.46204],[1.62008,1.47732]],[[569.35915,358.12337],[0,0],[-0.05818,11.45792]],[[570.95699,388.97965],[-6.14238,-9.47288],[1.58132,1.72218]],[[576.51317,393.23047],[-2.09556,-1.08446],[2.74908,1.42264]],[[585.69247,395.45669],[-3.30894,0],[4.34646,0]],[[597.34219,391.71539],[-3.28064,2.35482],[-0.03324,0.22008]],[[597.24137,392.37553],[0.03396,-0.22002],[2.55458,-0.97028]],[[604.87257,389.34947],[-2.60982,0.81324],[2.74166,-0.85432]],[[618.08797,383.52391],[-1.76518,2.55912],[1.62824,-2.36062]],[[617.09223,373.85291],[1.65528,3.28418],[-2.38886,0.35244]],[612.82359,372.32557],[[612.47977,370.97407],[0,0],[-4.74522,-1.22464]],[[595.49025,363.65889],[3.5572,3.61202],[-1.624,-1.64902]],[[592.43005,357.42629],[1.02006,2.07754],[0,0]],[[592.06251,354.45817],[-0.228,1.57848],[-0.14982,-0.08654]],[[591.60903,354.20439],[0.15252,0.08262],[0.24118,-1.82898]],[[592.21133,348.67931],[-0.16154,1.8529],[-0.9029,-2.83788]],[[590.07411,340.15019],[0.4866,2.83052],[-1.25206,-7.28308]],[[590.02577,316.79001],[0,7.41902],[0,0]],[[592.76321,312.22627],[-2.73744,1.21754],[0.6398,-1.21894]],[[597.09159,309.81729],[-2.43932,0],[0,0]],[[597.09161,309.81737],[0,0],[5,0]],[602.09161,314.81737],[[602.07689,318.43389],[0,0],[0.72856,9.55634]],[[602.18913,347.09323],[0.6658,-9.52908],[0.90342,2.66302]],[[605.20347,354.93363],[-1.06378,-2.54098],[0.64314,0.27056]],[[607.04563,356.29277],[-0.52692,-0.66456],[6.4882,3.07202]],[[624.54365,366.71993],[-4.72992,-7.42546],[3.3868,5.31694]],[[626.63029,388.72281],[3.91844,-5.96368],[-4.85672,7.3917]],[[602.76053,400.14611],[7.44352,-2.7681],[-2.05166,0.76298]],[[596.84123,402.98959],[2.12846,-0.51098],[-0.29895,0.07177]],[[595.94596,403.18731],[0.29789,-0.06009],[0.05404,0.38077]],[[596,403.8125],[0,0],[-0.11433,5.13795]],[[598.91808,417.9111],[-0.93479,-5.09158],[1.07611,5.86132]],[[602.97567,435.31981],[-0.61319,-5.92621],[0.04935,0.47692]],[[603.09911,436.75855],[-0.03333,-0.48208],[7.30059,-0.00299]],[[625,436.8125],[-7.29811,0],[3.1361,0]],[[634.40831,436.8125],[-3.1361,0],[-1.25879,-7.86102]],[[630.0971,413.79308],[1.48391,7.41955],[0,0]],[630.03607,411.91987],[629.85743,411.88017],[629.85743,408.81243],[[633.22864,404.02116],[-3.37121,0.94671],[0.35749,-1.0809]],[[636.14305,401.17012],[-1.72946,0.69178],[4.64238,-1.85695]],[642.64238,403.95555],[[644.42511,408.48476],[0,0],[4.35571,6.47997]],[[657.14924,428.02256],[-3.94208,-6.68608],[1.44181,2.44543]],[[660.99632,435.62062],[0.2384,-2.8288],[-0.80865,9.59544]],[[648.21254,447.13942],[6.45523,-0.11794],[-4.5743,-1.53044]],[[633.85939,446.80869],[4.36911,-1.22134],[-9.807,-0.01714]],[[604.43442,446.74263],[9.8079,-0.01933],[-5.05807,1.70345]]],&quot;closed&quot;:true}]}" fill="#7b8a52" stroke="none" stroke-width="0.5" stroke-linecap="butt"/><path d="M340.83886,207.4495c2.52753,5.84619 4.39777,12.5722 7.89395,17.83397c1.68934,2.54327 4.2862,7.74864 0.60716,9.99211c-1.80111,1.0983 -4.8635,-0.94928 -7.04019,-0.43959c-2.30582,0.56484 -5.61643,2.72699 -8.03786,2.3799c-1.10336,-0.15815 -1.26479,-1.80606 -1.85101,-2.49686c-1.09635,-1.29191 -1.98333,-1.89216 -3.39925,-2.78798c-2.79168,-1.76623 -1.55719,-3.58564 -1.78777,-6.39724c-0.24113,-2.94025 -0.86996,-5.74404 -0.8994,-8.75301c0.81439,-4.83631 -3.61432,-5.76781 -5.04271,-9.44533c-0.86268,-2.22105 0.60396,-5.00539 1.48442,-6.97808c1.73597,-3.14106 15.60468,0.87629 18.07266,7.09211z" data-paper-data="{&quot;index&quot;:null}" fill="#363c1a" stroke="none" stroke-width="0.5" stroke-linecap="butt"/><path d="" data-paper-data="{&quot;index&quot;:null}" fill="#363c1a" stroke="none" stroke-width="0.5" stroke-linecap="butt"/><path d="M305.21294,198.13381c0.00111,3.00894 1.28158,6.53184 0.58523,9.4845c-0.21231,0.90023 -0.57186,1.57185 -1.03284,2.05393c-1.63723,0.2629 -3.30006,0.46034 -5.00192,0.54737c-1.26679,-0.47311 -2.45949,-1.24467 -3.27667,-2.05752c-0.78929,-2.30157 -0.34969,-4.53378 -0.13167,-6.8944c0.41719,-4.51717 9.30164,-5.36327 8.85787,-3.13388z" data-paper-data="{&quot;index&quot;:null}" fill="#3b4208" stroke="none" stroke-width="0.5" stroke-linecap="butt"/><path d="M333.71511,194.26654l0.32079,0.39544c0.23592,0.77384 0.73323,1.39928 1.0058,2.21859c0.09826,0.39444 0.19515,0.79021 0.2907,1.18719c-1.60305,-0.34794 -3.95456,-0.6514 -5.86934,-0.80847c1.01646,-0.78643 2.87612,-1.98399 2.79852,-3.23918c0,0 0,-0.5 0.5,-0.5c0.5,0 0.5,0.5 0.5,0.5c-0.00118,0.03347 -0.00293,0.0667 -0.00522,0.09971c0.25384,-0.0582 0.45876,0.14673 0.45876,0.14673z" data-paper-data="{&quot;index&quot;:null}" fill="#363c1a" stroke="none" stroke-width="0.5" stroke-linecap="butt"/><path d="M319.13396,158.45487c0.01744,-0.00145 0.02761,-0.00145 0.02761,-0.00145l0.00892,0.00157c0.04549,0.00148 0.11026,0.00839 0.17796,0.03131l0.29047,0.0511c2.58679,1.73636 1.4292,7.85769 1.72066,10.77124c0.40729,4.08666 3.32581,14.34479 -3.59801,14.34479c-0.95947,-0.04615 -1.12354,-0.37491 -1.87689,-0.9119c-1.35014,-0.96239 -2.54152,-1.77798 -3.00166,-3.44321c-0.92653,-3.35307 1.47126,-6.24471 -1.30813,-9.0279c-3.57359,-5.32389 2.30021,-11.23269 7.53146,-11.81394c0,0 0.01011,-0.00113 0.0276,-0.00161z" data-paper-data="{&quot;index&quot;:null}" fill="#40770e" stroke="none" stroke-width="0.5" stroke-linecap="butt"/><path d="M302.88874,148.42619c5.23061,0.03127 7.16633,4.96235 7.16667,9.5c0.00012,1.73221 0.44218,3.67848 -0.78,4.98366c-1.9994,3.00729 -7.62085,7.13103 -11.6226,4.79051c-1.85804,-1.08672 -2.60447,-3.40809 -3.03627,-5.35526c-0.72032,-3.30387 -0.91488,-9.61746 1.91518,-12.10229c1.46305,-1.28459 3.96753,-1.46112 5.87832,-1.48102c0.0954,-0.3356 0.4787,-0.3356 0.4787,-0.3356z" data-paper-data="{&quot;index&quot;:null}" fill="#629200" stroke="none" stroke-width="0.5" stroke-linecap="butt"/><path d="M319.75,251.88542c-0.03131,0.1409 -0.07321,0.28611 -0.12488,0.43288l0.85122,0.07738l0.15349,0.05354l0.1625,-0.00428l1.5,0.33333l0.35945,0.17972l0.38446,0.11701l1.66667,1l0.0431,0.0431l0.05741,0.0205l0.8705,0.58033l0.19412,0.09706l0.45059,0.38622l0.1913,0.04699l0.13352,0.23143l0.20286,0.17388l0.01093,0.19669l0.29657,0.51405l0.33333,1.16667l0.01162,0.34851l0.08457,0.33829v1l-0.06039,0.24157l0.01184,0.24872l-0.14875,0.74377l-0.15534,1.2427l-0.01312,0.03388l0.00335,0.03618l-0.33333,2.16667l-0.04557,0.10851v0.11769l-0.33333,1.33333l-0.16171,0.30321l-0.09304,0.3308l-0.66667,1.16667l-0.15356,0.16024l-0.09649,0.19987l-0.7096,0.85152l-0.85116,1.4186l-0.38411,0.76823l0.00348,0.02786l-0.04528,0.05573l-0.03115,0.06231l-0.37384,0.43614l-0.36223,0.44582l-0.05573,0.0418l-0.04673,0.05452l-0.02804,0.00156l-0.53617,0.40213l-0.18812,0.07921l-0.06188,0.10829l-0.48077,0.12019l-0.45673,0.19231l-0.11448,-0.0495l-0.19802,0.0495h-0.5l-0.11558,-0.02889l-0.11777,0.01798l-5.24235,-0.49147l-8.07531,-0.1648l-0.36414,-0.09897l-0.37623,-0.02907l-2.01291,-0.67174l-0.05642,-0.03593l-0.06633,-0.00863l-4.30499,-1.69124l-1.78624,-0.1374l-4.65985,-0.33285l-0.08572,-0.02805l-0.08972,0.00928l-2.29467,-0.32781l-1.46119,-0.16235l-0.31716,-0.1178l-0.33523,-0.04571l-0.56292,-0.22517l-0.00485,0.00132l-0.01631,-0.00979l-0.24925,-0.0997l-0.40787,-0.29457l-0.43142,-0.25885l-0.18983,-0.18983l-0.01542,-0.01114l-0.00069,-0.00498l-0.12739,-0.12739l-0.12811,-0.21352l-0.18425,-0.1675l-1.33333,-2l-0.13021,-0.3646l-0.19347,-0.33535l-0.31841,-1.11443l-0.0933,-0.27991l-0.01426,-0.02852l-0.02438,-0.01393l-0.01742,-0.06966l-0.03115,-0.06231l-0.12461,-0.56075l-0.13932,-0.55728v-0.06966l-0.01558,-0.07009l0.01558,-0.02336l0,-0.33688l0.06578,-0.26313l-0.00803,-0.27111l1.16667,-5.33333l0.10278,-0.20727l0.03538,-0.22863l1.33333,-3.16667l0.00492,-0.00656l0.00131,-0.0081l0.5,-1.16667l0.10406,-0.13692l0.02998,-0.09851c-0.4121,0.51809 -0.77387,1.07801 -1.0779,1.67236c-0.0483,0.02726 -0.09635,0.05491 -0.14414,0.08295c0.61118,-0.9991 1.23156,-1.95652 1.67761,-2.84688c0.07705,-0.20547 0.15444,-0.41129 0.23222,-0.61739l0.02672,-0.10686l-0.01666,-0.20829l0.13265,-0.79591v-0.45976c0,-0.42612 0.10661,-0.82733 0.29461,-1.17843l0.01789,-0.07157l0.03296,-0.01883c0.23526,-0.39862 0.57799,-0.72626 0.98833,-0.94306c0.00474,-0.01161 0.00948,-0.02322 0.01422,-0.03483c-0.47999,-0.01296 -0.95752,-0.03396 -1.43133,-0.06578c-0.43707,-0.02935 -0.90206,0.00153 -1.36637,0.02589c0.03818,2.22589 0.12648,3.08015 -0.95154,5.60893c-3.60626,8.45943 -13.6017,9.24515 -21.11528,5.91747c-2.87967,-2.3768 -3.93944,-2.39578 -4.66722,-6.28052c-0.18311,-0.97739 0.18851,-1.98084 0.2285,-2.97443c0.14175,-3.52184 0.15096,-6.88225 0.50906,-10.37181c0.33814,-3.29498 -0.37306,-6.70516 0,-10c0.27062,-2.39013 1.03694,-5.48549 3.25609,-6.92916c1.0377,-0.67508 2.46347,-0.25888 3.6997,-0.32429c1.57152,-0.08316 3.14639,-0.08122 4.7196,-0.12122c4.50198,-0.11447 8.77159,0.09272 13.2578,0.36315c0.17247,-0.09762 0.35223,-0.18236 0.5412,-0.25081c1.75154,-0.63447 8.84794,-0.63978 10.84919,-0.6628c0.02465,-0.00028 0.04929,-0.00056 0.07394,-0.00084c-0.00698,-0.08456 -0.01447,-0.16897 -0.02251,-0.25321c-0.49009,-5.13148 -3.03371,-9.97329 -3.45492,-15.08741l-0.31375,-0.0112c0.01281,-0.37153 0.0185,-0.74084 0.01652,-1.10682c0,0 0,-0.15615 0.03903,-0.3904c-0.25006,-0.05127 -0.49887,-0.10907 -0.74636,-0.17302h-0.3878c-0.0734,0.78035 -0.41325,1.28111 -0.81919,1.60246l-2.06004,-0.07358l-1.26581,0.26884c-4.35256,-2.58481 -7.73156,-6.41504 -8.67038,-11.48196c-0.09376,-0.16246 -0.18113,-0.30236 -0.26021,-0.40883c0.04735,-0.10686 0.09517,-0.21351 0.14333,-0.3199c-0.01219,-0.08972 -0.02362,-0.17981 -0.0343,-0.27027c-0.07732,-0.6551 -0.10223,-1.30249 -0.08994,-1.94443c-0.1606,-0.89126 -0.24526,-1.87081 -0.26213,-3.02769v-2c0,0 0,-0.69514 0.36656,-1.35231c-0.19214,-1.86703 -0.13653,-3.74634 -0.0615,-4.9329c0.22387,-3.54045 0.91075,-6.99482 1.51033,-10.4638c-0.26731,-0.17368 -0.42437,-0.33074 -0.42437,-0.33074l-1.6638,-2.40855c-1.13017,-9.06133 -0.79818,-17.77408 0.4668,-26.65267c-0.09804,-2.08974 -0.36565,-4.09185 0.18527,-5.78475c0.03023,-0.0929 0.06293,-0.18486 0.09825,-0.27586c-0.00001,-0.00081 -0.00003,-0.00163 -0.00004,-0.00245l-0.00001,0.00002c-0.10588,-6.31595 4.39974,-8.60447 9.71697,-9.12768c-0.91044,-1.99366 -1.71839,-4.03535 -2.36154,-6.15395c0,0 -0.05388,-0.17959 -0.08294,-0.45517c-2.19501,0.0049 -5.46835,-0.07213 -6.04026,-0.74544c-3.52594,-4.15104 1.34503,-7.03226 3.22692,-9.71169c1.57868,-2.24772 3.20638,-4.56132 4.67127,-6.88173c1.05734,-1.67485 1.96149,-4.17176 3.73871,-5.25838c4.69246,-2.86906 12.42849,-2.41597 17.63087,-2.41597c6.38507,0 12.47016,-0.20547 18.74029,1.04855l1.00971,-0.04855c0,0 2.5,0 2.5,2.5c0,0.74923 -0.22454,1.27392 -0.53904,1.64137c2.98154,3.86372 6.57761,8.16349 7.86296,12.43701c0.42277,1.4056 1.40748,3.02557 0.75177,4.33877c-1.16038,2.32394 -3.34637,3.0433 -5.56626,3.40022c-0.01453,0.03298 -0.02337,0.05066 -0.02337,0.05066c-1.22321,2.44641 -2.27654,4.88349 -3.25521,7.34584c2.61334,-0.57773 6.22157,-1.2331 8.33048,-0.32856c3.29398,1.41283 4.802,4.87335 4.86121,8.3389c0.39452,1.02122 0.36054,3.6206 0.35884,4.54174c-0.00334,1.80314 -0.01435,3.60634 -0.01404,5.40948c0.05987,1.51579 0.14495,3.02771 0.25915,4.54152c0.03807,0.15086 0.07833,0.30231 0.11906,0.45418c0.01551,-0.02458 0.0312,-0.04909 0.04708,-0.07351c0.07125,0.50647 0.16019,1.00918 0.26641,1.50251c-0.50489,1.81392 -0.48134,4.04379 -1.07541,5.40945c-0.94074,2.16261 -2.54075,3.12513 -3.61912,5.2974c0.00802,0.09268 0.00802,0.14705 0.00802,0.14705c0,1.7425 -0.01205,3.42753 0.0687,5.12276c0.4045,0.52012 0.89422,1.02683 1.37983,1.54001c-0.29716,0.28728 -0.69943,0.54586 -1.21964,0.62141c0.02547,0.2455 0.05375,0.49179 0.08514,0.73907l-0.23407,1.59266c0.0083,0.51433 0.01416,1.02878 0.0172,1.54335c2.51831,0.01691 5.48455,0.12568 6.54325,0.61601c4.14242,1.91854 2.408,3.44584 2.98613,6.44534c0.95252,4.94187 2.87151,10.14914 0.05217,15.00544c-0.63773,1.09849 -1.29397,2.25145 -2.27784,3.0548c-2.49029,2.03338 -7.46456,2.45394 -11.59089,2.13611c0.03302,0.27145 0.06818,0.54316 0.10525,0.81509c0.86021,2.06743 1.88545,3.97716 2.94819,5.87055c1.45416,0.45388 1.62331,2.14538 1.62331,2.14538c0.08209,0.95872 0.28724,1.91303 0.56883,2.86508c0.51196,0.40372 1.05256,0.87152 1.56871,1.52626c4.4028,5.58501 8.81669,11.99934 11.36129,18.63704c1.49418,3.89763 1.25471,7.51527 -2.71992,9.64062c-1.26652,0.67724 -7.84608,2.04971 -8.8708,2.30884c-2.9833,0.75443 -5.93517,1.62822 -8.90623,2.42951c-2.17004,-0.00617 -4.29203,0.64472 -6.43439,0.99025c-1.64179,0.26479 -3.51665,0.28558 -5.40172,0.2343c-0.44139,1.44857 -1.00075,2.84425 -1.55244,4.25114c-0.1368,0.90515 -0.44603,1.8998 -0.6963,3.026zM292.58333,246.71875v0.66667l-0.05068,0.20271l0.01666,0.20829l-0.13265,0.79591v0.12997l0.01558,0.02336l-0.01558,0.07009v0.06966l-0.03215,0.1286l0.76128,0.03806h2.27087l0.41065,0.10266l0.4214,0.03986l2.76142,0.97462l0.99604,0.28458l1.42725,0.28545l1.85752,0.15479l0.26189,0.08915l0.27618,0.01601l2.4531,0.76659l2.2902,0.28627h6.17769l0.05647,0.01412l0.05705,-0.01154l0.28461,0.01294c-0.16325,-1.69396 -0.03096,-3.8682 0.27437,-5.17332c-0.03162,-0.00191 -0.06334,-0.00372 -0.09517,-0.00543c0.12062,-0.34352 0.25042,-0.67846 0.39039,-1.00303c0.21805,-0.50563 0.49825,-0.99077 0.77554,-1.47625c-0.16661,-0.00216 -0.33111,-0.00333 -0.49327,-0.00333l0.00001,0.00002c-6.66667,0 -13.33333,0 -20,0c-0.53334,0 -1.07133,0.00684 -1.61217,0.01659c-0.26783,0.61072 -0.52859,1.22573 -0.78339,1.84321c-0.35182,0.03418 -0.69831,0.08659 -1.0385,0.15628c0.01148,0.09721 0.01739,0.19612 0.01739,0.29642zM289.47652,256.31062l-1.0146,4.63818l0.15979,0.47938l0.00427,0.05553l0.02783,0.04824l0.22612,0.79143l0.85732,1.28598l1.12216,0.12468l0.03759,0.01396l0.03989,-0.00413l2.24595,0.32085l4.57862,0.32704l0.00669,0.00219l0.00694,-0.00118l2.16667,0.16667l0.3532,0.11773l0.36919,0.04803l4.59297,1.80438l1.5905,0.53077l7.78675,0.15891l0.09007,0.02448l0.09227,-0.01409l4.50494,0.42234l0.02564,-0.05129l0.06379,-0.07443l0.02854,-0.09378l1,-1.66667l0.13821,-0.13821l0.08497,-0.17602l0.69246,-0.83095l0.38638,-0.67617l0.22168,-0.88671l0.31039,-2.01756l0.16228,-1.29824l0.03368,-0.08701l-0.00444,-0.09319l0.11812,-0.59059l0,-0.30338l-0.50392,-0.33595l-1.26777,-0.76066l-0.94755,-0.21057l-1.61744,-0.14704l-3.55344,-0.16152h-6.27654l-0.15326,-0.03831l-0.15683,0.01901l-2.66667,-0.33333l-0.21038,-0.08144l-0.22522,-0.01306l-2.40343,-0.75107l-1.72516,-0.14376l-0.13754,-0.04682l-0.14513,0.00691l-1.66667,-0.33333l-0.09332,-0.0442l-0.1032,-0.00344l-1.16667,-0.33333l-0.06758,-0.03899l-0.07767,-0.00735l-2.42951,-0.85748h-1.9051l-0.06207,-0.01552l-0.06277,0.0124l-2.47754,-0.12388zM314.85846,202.6244l-0.02907,-1.44654c-0.44444,-0.77778 -0.88889,-1.55556 -1.33333,-2.33333c0,0 -1.24035,-2.17061 0.93026,-3.41096c2.17061,-1.24035 3.41096,0.93026 3.41096,0.93026c0.44444,0.77778 0.88889,1.55556 1.33333,2.33333l0.33737,1.70385c1.27681,0.23565 1.81327,1.5768 1.81327,1.5768l0.89137,2.2646c2.17786,3.23998 4.39102,6.42586 6.36206,9.7689c0.72091,1.22271 2.04274,2.38463 1.92354,3.79903c-0.40432,4.79772 -3.16427,5.70043 -6.39189,5.7594c-2.28715,-0.76522 -4.99202,-0.77603 -7.17658,-0.16536c-4.9035,-0.00857 -9.80853,-0.0427 -14.71248,-0.03303c-2.52904,0.85172 -6.31887,0.79453 -6.81938,-0.08136l-0.00005,-0.00002l-0.00987,-0.01727c-0.12122,0.03625 -0.24027,0.075 -0.35696,0.11628c-2.61976,-0.06271 -6.32033,-0.21589 -8.29493,0.63532c0.55829,2.92326 0.23034,5.80531 -0.02452,8.70159c-0.09184,0.19857 -0.18931,0.39147 -0.29488,0.57621l0.21501,0.37626c-0.07108,0.90675 -0.12475,1.81548 -0.13167,2.7279c-0.00639,0.84252 -0.02094,1.68503 -0.04511,2.52723c-0.00865,0.30127 -0.32792,0.77838 -0.05332,0.9026c0.35823,0.16205 0.70803,-0.3832 1.09843,-0.42983c0.82745,-0.09884 1.66667,0 2.5,0c0.31961,0 0.63921,0 0.95882,0c1.15272,0.23195 2.66411,0.23162 3.47858,0.19027c2.32319,-0.11794 5.33832,0.58097 7.53759,-0.19027c4.4847,0 8.9694,0 13.4541,0c0.50099,0.20896 1.03499,0.35459 1.59202,0.42687c0.26586,0.0345 0.53696,0.05229 0.81222,0.05229c1.63874,0.19221 3.50082,0.17011 5.14497,-0.30204c-0.0036,0.02898 -0.00723,0.05795 -0.01087,0.08692c1.28926,0.01099 2.53547,-0.04224 3.63211,-0.23176c2.18192,-0.37708 4.35134,-1.00369 6.56561,-1.00975c4.39065,-1.23844 8.78214,-2.35225 13.21017,-3.44322c1.31688,-0.32445 3.37192,0.05664 3.88862,-1.19734c0.80791,-1.96075 -2.42735,-6.29664 -3.08512,-7.95349c-1.71134,-4.31065 -5.32585,-8.69736 -8.14932,-12.38994c-1.12565,-1.47214 -3.17509,-2.1262 -4.1445,-3.7056c-0.60083,-0.97888 -0.55762,-2.22843 -0.83643,-3.34264c0,0 -0.0997,-0.49847 0.0156,-1.09082c-0.94186,-1.95442 -1.82519,-3.92982 -2.62532,-5.93016c0,0 -0.30321,-0.75801 -0.12991,-1.58097c-0.03466,-0.00427 -0.06932,-0.00851 -0.10399,-0.01272c-0.06375,-0.51046 -0.12101,-1.02002 -0.17055,-1.52828c-0.92732,-0.26418 -1.84153,-0.59578 -2.62127,-1.14347c-1.74527,-1.22588 -3.08571,-3.71354 -4.18998,-5.49206c-1.06538,-1.05462 -3.44568,-3.25603 -4.00347,-4.56089c-1.13175,-2.64754 -0.33326,-6.09121 -0.83399,-8.88661c-1.28317,-7.16351 -0.44524,-14.53316 -1.35345,-21.79879l-0.01931,-1.64342c0,0 0,-2.5 2.5,-2.5c2.5,0 2.5,2.5 2.5,2.5l-0.0193,1.02325c0.89659,7.17278 0.08521,14.4757 1.31322,21.53455c0.36949,2.1239 -0.35342,5.80034 0.49934,7.78006c0.63126,1.4655 2.20664,2.30573 3.32986,3.4391c0.34342,0.54608 2.29463,3.88268 3.14335,4.50794c0.92012,0.67785 3.46772,0.83853 4.37178,0.8856c3.75082,0.1953 9.91069,1.04924 10.74614,-4.00649c0.60098,-3.63689 -0.72619,-6.65025 -1.34427,-10.05128c-0.17337,-0.95397 0.60892,-2.72691 -0.3472,-2.88799c-0.49245,-0.08297 -7.19761,-0.05821 -7.52625,-0.05807c0,0 -2.5,0 -2.5,-2.5c0,-0.91974 0.33836,-1.50111 0.76613,-1.8686c-0.00044,-0.35403 -0.00227,-0.70799 -0.00537,-1.06188c-0.16087,-0.64987 -0.04555,-1.22648 -0.04555,-1.22648l0.02853,-0.08126c-0.12581,-7.35506 -0.73793,-14.68399 -0.77569,-22.02796c-0.40622,-1.72457 -1.20362,-3.41636 -1.5538,-4.98225c-2.36333,-2.47126 -6.36178,-3.72089 -9.58226,-4.43629c0,0 -0.32267,-0.07447 -0.70605,-0.28663c0.00456,0.02005 0.00781,0.03963 0.00953,0.05864c0.0917,1.01482 0.50146,2.10104 0.13982,3.05366c-0.71083,1.87243 -3.76777,4.50509 -5.65669,5.13108c-0.80808,0.2678 -2.01259,0.40373 -3.3717,0.41277c-0.77202,-0.03034 -1.54327,-0.0629 -2.31394,-0.09687c-2.8297,-0.24764 -5.74708,-0.96448 -6.97614,-2.11393c-2.624,-2.45404 -0.34545,-6.36064 -4.11571,-6.111c-0.32734,1.00158 -1.32892,1.50237 -1.32892,1.50237l-1.39967,0.65849c-1.61706,0.47831 -3.15406,1.19936 -4.69423,1.88603c-0.72725,0.32423 -1.60376,0.69671 -2.45664,1.14673c-0.57254,0.88436 -1.80028,2.08559 -3.13988,2.99446c-1.0725,2.74074 -0.85801,5.59079 -1.06102,8.62815c-0.47887,7.16471 -1.66718,14.15195 -2.40749,21.28881c-0.08274,0.79769 -0.13461,1.54957 -0.1633,2.28059c0.81004,0.73866 0.81004,1.91804 0.81004,1.91804c-0.02909,5.72896 -2.27227,10.6917 0.79892,15.42814c0.79066,0.86109 1.73031,1.58318 2.77809,2.12541c1.37454,0.71132 2.93518,1.11311 4.58965,1.11311c2.17323,0 4.18454,-0.69324 5.82486,-1.87065c-0.01662,0.11004 -0.03343,0.22006 -0.05041,0.33007c1.27729,-0.48514 2.51069,-1.10641 3.8156,-1.51303c1.37083,-0.42716 5.72511,-1.63322 6.6077,-2.91278c0.81412,-1.18031 0.32977,-3.19341 -0.49787,-4.8355c-1.19443,0.17622 -2.13432,-0.76367 -2.13432,-0.76367l-0.17191,-0.67575c-2.37261,-0.61232 -6.71616,-1.85158 -8.49476,-3.65759c-0.812,-0.82451 -1.02007,-2.07753 -1.5301,-3.1163c0,0 -0.29777,-0.69482 -0.18377,-1.48406c-0.07491,-0.04327 -0.15048,-0.08558 -0.22674,-0.12689c0.12059,-0.91449 0.22038,-1.83609 0.30115,-2.76254c-0.45145,-1.41894 -0.82531,-2.8493 -1.06861,-4.26456c-0.62603,-3.64154 -0.02417,-7.97058 -0.02417,-11.68009c0,0 0,-1.6731 1.36872,-2.28187c0.3199,-0.60947 0.94453,-1.20449 2.16419,-1.20449l0.00001,0.00004c2.5,0 2.5,2.5 2.5,2.5l-0.00736,1.80826c0.36428,4.77817 0.38902,9.56513 0.05612,14.32967c0.45171,1.33151 0.97528,2.64971 1.50717,3.9202c0.32157,0.13528 0.65762,0.34729 0.92108,0.67957c3.2441,1.53601 6.38405,1.50085 8.74901,5.21358c1.6934,2.65847 3.00254,8.0196 1.04332,11.00144c-2.42836,3.69585 -8.21312,4.3276 -11.93488,5.71165c-1.02583,0.38149 -1.89542,1.16625 -2.95965,1.42174c-0.14947,0.03589 -0.29869,0.06882 -0.44763,0.09886c0.02702,0.19038 0.02702,0.31259 0.02702,0.31259c-0.05716,2.56897 0.99165,4.50351 1.45904,7.0493c0.53805,2.93066 1.7222,5.74125 2.0288,8.70436c0.02468,0.23846 0.04505,0.47833 0.06172,0.71937c3.65029,-0.0015 7.30139,0.02697 10.95045,0.02697c1.56805,0 3.1361,0 4.70416,0c-0.62939,-3.93051 -1.41365,-7.79994 -2.15561,-11.50971l-0.03051,-0.9366l-0.08932,-0.01985v-1.53387c0,0 0,-0.45304 0.19285,-0.9734c-0.2099,-0.43559 -0.26317,-0.80845 -0.26317,-0.80845zM325.15103,96.38667c-5.26188,-0.79932 -10.4335,-0.61234 -15.82725,-0.61234c-4.2554,0 -10.94009,-0.59344 -14.86913,1.58403c-0.40033,0.22186 -2.2444,3.71489 -2.26129,3.74162c-1.63404,2.58612 -3.87358,7.14553 -6.53201,9.54307c1.58062,-0.11593 3.18904,0.05912 4.77571,0.13384c4.81126,0.22657 9.59221,1.01408 14.38671,0.99743c7.34688,0 15.0018,0.9002 22.30937,0.25728c2.1381,-0.18811 4.25558,-0.56435 6.37977,-0.87213c0.49998,-0.07244 1.17824,0.09899 1.48516,-0.3023c0.20221,-0.26439 -0.56706,-0.38201 -0.74823,-0.66123c-0.44474,-0.68547 -0.69438,-1.48145 -1.10158,-2.18987c-2.31081,-4.02026 -5.32247,-7.81458 -7.99723,-11.6194zM319.55626,131.53757c0.83666,-0.70409 2.05343,-0.53275 3.21515,-0.48818l0.20285,-0.87942c1.66508,-4.57387 3.2423,-8.96855 5.22292,-13.34068c-7.70528,0.73591 -15.65482,-0.05496 -23.37343,-0.05496c-4.52388,-0.01377 -8.99875,-0.64136 -13.51983,-0.89515c1.86065,5.64789 5.01055,10.73408 7.90575,15.89515h1.11408c3.45993,0.16356 4.27692,-0.49478 6.66371,2.99766c0.85105,1.24528 -0.09326,3.39394 1.02362,4.40764c0.34702,0.31496 0.93359,0.08989 1.39637,0.16379c1.74507,0.27868 4.67219,1.04 6.44184,0.53817c4.16366,-1.18072 0.54938,-5.68676 3.70698,-8.34403zM271.94072,223.95548c-1.59455,0.04123 -3.18948,0.17534 -4.78368,0.12245c-0.44646,-0.01481 -0.90565,-0.53359 -1.3003,-0.32429c-0.37976,0.2014 -0.29874,0.80822 -0.39994,1.22599c-0.52725,2.17646 -0.3318,4.37754 -0.3318,6.59851c0,4.22377 -0.49756,8.28124 -0.5,12.5c-0.00211,3.65879 -1.01838,5.29706 2.05818,7.61958c1.28946,0.61303 2.76413,0.89472 4.19182,0.88042c4.78108,-0.0479 9.61217,-0.35655 10.2765,-6.36303c0.11495,-1.03936 -0.01767,-2.09131 -0.0265,-3.13697v-1c0,0 0,-0.85749 0.5022,-1.56808c-0.22544,-1.3569 -0.11948,-2.80235 -0.12718,-4.1038c-0.02375,-4.01208 0.28163,-8.17977 0.58734,-12.24878c-3.38618,-0.18042 -6.68996,-0.29139 -10.14663,-0.202zM283.38563,141.3553c1.19039,-1.8934 3.25803,-3.60631 4.88277,-3.99864c0.00975,-0.01444 0.01945,-0.02888 0.0291,-0.04334c0.01178,0.00952 0.0235,0.019 0.03516,0.02846c0.0424,-0.00939 0.08447,-0.01786 0.12621,-0.02538c2.13297,-1.2123 4.52081,-2.10599 6.57199,-2.7716c-1.3486,-2.42669 -2.7418,-4.83358 -4.05362,-7.27904c-0.09661,0.00858 -0.15349,0.00858 -0.15349,0.00858c-2.07424,-0.03702 -4.78672,0.25388 -6.62757,1.40203c-0.73662,0.45944 -0.40013,2.25909 -0.37374,2.775c-0.02179,0.02221 -0.04235,0.04502 -0.06175,0.06824c-0.03928,0.92993 -0.32117,2.03642 -0.34616,2.46805c-0.06857,1.18423 0.41388,4.69239 -0.0289,7.36764zM338.16222,140.56715c0.1433,0.71451 0.72161,2.33877 1.19317,4.14225c-0.00012,-0.00912 -0.00021,-0.01819 -0.00027,-0.0272c-0.0107,-1.5357 0.00053,-3.07151 0.00732,-4.60728c-0.06582,-0.34739 -0.12885,-0.69656 -0.18758,-1.04835c-0.04438,-0.2658 0.02327,-1.10232 0.08557,-1.89425c0.03429,-0.09704 0.05694,-0.19959 0.06627,-0.30595l0.03135,-0.31346c-0.00089,-0.08702 -0.00187,-0.17403 -0.00293,-0.26105c-0.01548,-1.27017 -0.16491,-2.21627 -0.17991,-2.99945c-0.13195,-0.15565 -0.30132,-0.27859 -0.49422,-0.35491c0.10168,-0.69866 0.09025,-1.47815 -0.06289,-2.4044c-0.16697,-1.00991 0.3052,-2.30936 -1.10568,-2.60409c-2.13385,-0.44576 -5.10345,0.34321 -7.12651,0.82129l-0.00001,0.00002c0,0 -0.75806,0.17494 -1.52601,-0.09325c-0.39474,1.07729 -0.78779,2.16359 -1.18665,3.26163l-0.15371,0.72827c2.74669,0.81814 5.75435,1.98471 7.86666,3.56741c0.97914,0.03848 1.81362,0.6401 2.18854,1.48998c0.11012,0.24962 0.1806,0.52066 0.20345,0.80513c0.17701,0.8338 0.34121,1.88415 0.38404,2.09768zM325.50184,218.0022c-0.50275,-1.30822 -1.90677,-2.08021 -2.62847,-3.28161c-0.60114,-1.00072 -1.18814,-1.97351 -1.77733,-2.93594c0.41481,2.21921 0.80677,4.46659 1.14588,6.72891c1.24683,0.16116 3.59522,0.36115 3.25992,-0.51136zM339.92641,149.82844c-0.04516,0.25842 -0.11036,0.5 -0.19863,0.72065c0.0698,2.29632 0.17594,4.59228 0.28535,6.8889c0.04782,0.0916 0.08876,0.18348 0.12384,0.27368c0.36923,-0.7066 0.74156,-1.41174 1.1067,-2.12446c-1.06594,-0.70059 -1.06594,-2.11683 -1.06594,-2.11683l0.01931,-1.27469c-0.0986,-0.79093 -0.18866,-1.57978 -0.27063,-2.36725zM339.98285,148.13163c0.01059,0.14752 0.01797,0.29304 0.02182,0.43612c0.03425,-0.01974 0.06649,-0.04091 0.09684,-0.06327c-0.04108,-0.12374 -0.08065,-0.24818 -0.11866,-0.37285z" fill="#000000" stroke="none" stroke-width="0.5" stroke-linecap="butt"/><path d="M290.43547,253.90433l2.47896,0.121l0.06284,-0.01252l0.0621,0.01547l1.90694,-0.00313l2.43117,0.85505l0.07779,0.00719l0.0676,0.03895l1.16814,0.33143l0.10342,0.00316l0.09341,0.04409l1.67052,0.32917l0.1457,-0.00745l0.13791,0.04649l1.73344,0.13763l2.42276,0.74448l0.22786,0.0128l0.21288,0.08133l2.69602,0.34213l0.15786,-0.01828l0.1545,0.03924l6.29223,0.02066l3.55527,0.16686l1.61793,0.14894l0.94785,0.21189l1.2683,0.76362l0.50408,0.33712l0.0001,0.30425l-0.11797,0.59228l0.00446,0.09347l-0.03366,0.08726l-0.16219,1.30208l-0.31086,2.02364l-0.22213,0.88943l-0.38687,0.67838l-0.69327,0.8339l-0.08516,0.1766l-0.13838,0.13873l-1.00231,1.67238l-0.02868,0.09406l-0.06393,0.0747l-0.02573,0.05145l-4.50861,-0.41612l-0.09243,0.01432l-0.09015,-0.02436l-7.81726,-0.13882l-1.60314,-0.52975l-4.6295,-1.82285l-0.37046,-0.04966l-0.35451,-0.11958l-2.17057,-0.17357l-0.00694,0.00117l-0.0067,-0.00221l-4.58159,-0.33527l-2.24663,-0.32375l-0.03989,0.00411l-0.0376,-0.01403l-1.12236,-0.12574l-0.85789,-1.29018l-0.22629,-0.79382l-0.02784,-0.04839l-0.00428,-0.05569l-0.15983,-0.4808l1.01644,-4.65209z" data-paper-data="{&quot;noHover&quot;:false,&quot;origItem&quot;:[&quot;Path&quot;,{&quot;applyMatrix&quot;:true,&quot;segments&quot;:[[289.47652,256.31062],[288.46192,260.9488],[288.62171,261.42818],[288.62598,261.48371],[288.65381,261.53195],[288.87993,262.32338],[289.73725,263.60936],[290.85941,263.73404],[290.897,263.748],[290.93689,263.74388],[293.18283,264.06473],[297.76145,264.39177],[297.76814,264.39396],[297.77507,264.39278],[299.94174,264.55945],[300.29494,264.67718],[300.66413,264.7252],[305.2571,266.52958],[306.84759,267.06036],[314.63434,267.21927],[314.72441,267.24375],[314.81669,267.22966],[319.32162,267.652],[319.34727,267.60072],[319.41106,267.52629],[319.4396,267.43251],[320.4396,265.76584],[320.57781,265.62764],[320.66278,265.45162],[321.35524,264.62067],[321.74162,263.9445],[321.9633,263.05779],[322.27369,261.04023],[322.43597,259.742],[322.46965,259.65499],[322.46521,259.56179],[322.58333,258.9712],[322.58333,258.66782],[322.07941,258.33187],[320.81164,257.57121],[319.86409,257.36064],[318.24665,257.2136],[314.69321,257.05208],[308.41667,257.05208],[308.26341,257.01377],[308.10658,257.03278],[305.43991,256.69944],[305.22953,256.61801],[305.00431,256.60495],[302.60088,255.85388],[300.87572,255.71011],[300.73817,255.66329],[300.59304,255.6702],[298.92638,255.33687],[298.83306,255.29267],[298.72986,255.28923],[297.5632,254.95589],[297.49562,254.91691],[297.41795,254.90956],[294.98843,254.05208],[293.08333,254.05208],[293.02126,254.03657],[292.95849,254.04896],[290.48095,253.92509]],&quot;closed&quot;:true}]}" fill="#1b130b" stroke="none" stroke-width="0.5" stroke-linecap="butt"/><path d="M292.51652,246.41478c0.34019,-0.06969 0.68691,-0.12349 1.03873,-0.15767c0.2548,-0.61748 0.518,-1.24128 0.78584,-1.852c0.54084,-0.00975 1.08005,-0.01952 1.61339,-0.01952c6.66667,0 13.42632,0.00494 20.09299,0.00494l-0.00001,-0.00002c0.16216,0 0.32685,0.00177 0.49346,0.00393c-0.27729,0.48548 -0.5562,0.97555 -0.77425,1.48118c-0.13997,0.32457 -0.2691,0.66357 -0.38972,1.00709c0.03183,0.00171 0.06356,0.0036 0.09518,0.00551c-0.30533,1.30512 -0.44017,3.50227 -0.27692,5.19622l-0.28474,-0.01258l-0.0571,0.01167l-0.05648,-0.01409l-6.18784,0.01656l-2.30379,-0.27587l-2.48702,-0.76209l-0.28076,-0.01725l-0.26637,-0.09084l-1.87612,-0.1687l-1.43354,-0.29508l-0.99843,-0.29018l-2.76397,-0.98558l-0.42146,-0.04037l-0.41073,-0.10346l-2.27095,-0.0009l-0.7613,-0.03845l0.03212,-0.12913l-0.00001,-0.06995l0.01556,-0.07038l-0.01558,-0.02346l-0.00002,-0.13051l0.13266,-0.79924l-0.01662,-0.20915l0.05073,-0.20357l0.00028,-0.66944c0,-0.1003 -0.00574,-0.20042 -0.01722,-0.29762z" data-paper-data="{&quot;noHover&quot;:false,&quot;origItem&quot;:[&quot;Path&quot;,{&quot;applyMatrix&quot;:true,&quot;segments&quot;:[[[292.58333,246.71875],[0,-0.1003],[0,0]],[292.58333,247.38542],[292.53266,247.58813],[292.54932,247.79641],[292.41667,248.59232],[292.41667,248.7223],[292.43224,248.74566],[292.41667,248.81576],[292.41667,248.88542],[292.38452,249.01402],[293.14579,249.05208],[295.41667,249.05208],[295.82731,249.15474],[296.24872,249.19461],[299.01013,250.16923],[300.00618,250.45381],[301.43343,250.73926],[303.29095,250.89405],[303.55284,250.98321],[303.82902,250.99922],[306.28212,251.76581],[308.57231,252.05208],[314.75,252.05208],[314.80647,252.0662],[314.86352,252.05466],[[315.14813,252.0676],[0,0],[-0.16325,-1.69396]],[[315.4225,246.89428],[-0.30533,1.30512],[-0.03162,-0.00191]],[[315.32733,246.88885],[0.03183,0.00171],[0.12062,-0.34352]],[[315.71772,245.88582],[-0.13997,0.32457],[0.21805,-0.50563]],[[316.49326,244.40957],[-0.27729,0.48548],[-0.16661,-0.00216]],[[315.99999,244.40624],[0.16216,0],[0,0]],[[316,244.40626],[0,0],[-6.66667,0]],[[296,244.40626],[6.66667,0],[-0.53334,0]],[[294.38783,244.42285],[0.54084,-0.00975],[-0.26783,0.61072]],[[293.60444,246.26605],[0.2548,-0.61748],[-0.35182,0.03418]],[[292.56594,246.42233],[0.34019,-0.06969],[0.01148,0.09721]]],&quot;closed&quot;:true}]}" fill="#7b8a52" stroke="none" stroke-width="0.5" stroke-linecap="butt"/><path d="" data-paper-data="{&quot;noHover&quot;:false,&quot;origItem&quot;:[&quot;Path&quot;,{&quot;applyMatrix&quot;:true,&quot;segments&quot;:[[[283.32747,267.56329],[0.82828,-2.05628],[-0.35616,0.88419]],[[285.21101,269.71506],[-0.8292,-0.47018],[1.52463,0.8645]],[[290.08737,271.68177],[-1.67482,-0.51657],[2.33238,0.71938]],[[297.22094,272.07997],[-2.39243,-0.0997],[4.48433,0.18688]],[[310.625,272.82813],[-4.50069,0.0008],[2.56843,-0.00046]],[[318.14071,271.80741],[-2.18099,1.55439],[1.09878,-3.01374]],[[315.58876,266.97186],[2.739,1.5991],[0,0]],[314.58443,266.69984],[[313.39663,265.90141],[0.51012,0.57254],[-1.7572,0.44316]],[[307.50972,265.35772],[1.63528,0.32318],[-5.2119,-1.03004]],[[291.75366,261.8941],[5.27326,0.46922],[-0.95067,-0.08459]],[[288.20559,261.88166],[1.28093,0.05145],[-1.64997,1.82361]]],&quot;closed&quot;:true,&quot;fillColor&quot;:[0,0,0,1]}]}" fill="#1b130b" stroke="none" stroke-width="0.5" stroke-linecap="butt"/><path d="M271.93604,223.9057c3.45667,-0.08939 6.79179,0.02906 10.17797,0.20948c-0.30571,4.06901 -0.58882,8.26868 -0.56507,12.28076c0.0077,1.30145 -0.09908,2.77086 0.12636,4.12776c-0.5022,0.71059 -0.50561,1.57685 -0.50561,1.57685l-0.00237,1.0042c0.00883,1.04566 0.13404,2.10678 0.01909,3.14614c-0.66433,6.00648 -5.53853,6.32866 -10.31961,6.37656c-1.42769,0.0143 -2.91603,-0.27175 -4.20549,-0.88478c-3.07656,-2.32252 -2.07965,-3.97746 -2.07754,-7.63625c0.00244,-4.21876 0.50228,-8.33588 0.50228,-12.55965c0,-2.22097 -0.18204,-4.43368 0.34521,-6.61014c0.1012,-0.41777 0.0228,-1.02604 0.40256,-1.22744c0.39465,-0.2093 0.85681,0.30807 1.30327,0.32288c1.5942,0.05289 3.20439,-0.08515 4.79894,-0.12638z" data-paper-data="{&quot;noHover&quot;:false,&quot;origItem&quot;:[&quot;Path&quot;,{&quot;applyMatrix&quot;:true,&quot;segments&quot;:[[[271.94072,223.95547],[0,0],[-1.59455,0.04123]],[[267.15704,224.07792],[1.5942,0.05289],[-0.44646,-0.01481]],[[265.85674,223.75363],[0.39465,-0.2093],[-0.37976,0.2014]],[[265.4568,224.97962],[0.1012,-0.41777],[-0.52725,2.17646]],[[265.125,231.57813],[0,-2.22097],[0,4.22377]],[[264.625,244.07813],[0.00244,-4.21876],[-0.00211,3.65879]],[[266.68318,251.69771],[-3.07656,-2.32252],[1.28946,0.61303]],[[270.875,252.57813],[-1.42769,0.0143],[4.78108,-0.0479]],[[281.1515,246.2151],[-0.66433,6.00648],[0.11495,-1.03936]],[[281.125,243.07813],[0.00883,1.04566],[0,0]],[281.125,242.07813],[[281.6272,240.51005],[-0.5022,0.71059],[-0.22544,-1.3569]],[[281.50002,236.40625],[0.0077,1.30145],[-0.02375,-4.01208]],[[282.08736,224.15747],[-0.30571,4.06901],[-3.38618,-0.18042]],[[271.94073,223.95547],[3.45667,-0.08939],[0,0]]],&quot;closed&quot;:true,&quot;fillColor&quot;:[0,0,0,1]}]}" fill="#1b130b" stroke="none" stroke-width="0.5" stroke-linecap="butt"/><path d="" data-paper-data="{&quot;noHover&quot;:false,&quot;origItem&quot;:[&quot;Path&quot;,{&quot;applyMatrix&quot;:true,&quot;segments&quot;:[[[324.09533,253.91176],[0,0],[0.85651,3.61029]],[[330.57041,262.99001],[-3.75187,-1.20045],[1.54264,0.49358]],[[335.42874,262.90626],[-1.61968,-0.00375],[3.40326,0.00788]],[[345.50666,261.44215],[-3.33793,0.66673],[5.10574,-0.64832]],[[359.53992,254.32752],[-4.22277,2.85575],[2.50144,-1.69166]],[[366.7143,248.24599],[-1.4317,2.8402],[2.2577,-4.47883]],[[360.40152,234.36115],[6.60882,-1.38345],[-3.5675,0.7468]],[[350.01585,240.78249],[2.55555,-2.47506],[-1.10838,2.65785]],[[344.10839,247.61045],[2.60899,-1.4752],[-0.78962,0.44648]],[[341.44917,248.18853],[0.82925,-0.36768],[-2.1557,0.95582]],[[335.15356,252.08568],[2.09082,-1.13332],[-2.98407,1.61748]],[[325.92875,253.90627],[3.30471,0.01081],[-0.59799,-0.00196]],[[324.09534,253.91178],[0.61933,0.00637],[0,0]]],&quot;closed&quot;:true,&quot;fillColor&quot;:[0,0,0,1]}]}" fill="#1b130b" stroke="none" stroke-width="0.5" stroke-linecap="butt"/><path d="" data-paper-data="{&quot;noHover&quot;:false,&quot;origItem&quot;:[&quot;Path&quot;,{&quot;applyMatrix&quot;:true,&quot;segments&quot;:[[[264.42874,219.40625],[0,0],[-1.34876,-0.03644]],[[260.38545,219.21595],[1.30765,-0.33247],[-0.67222,0.17091]],[[259.01584,220.78248],[0.37093,-0.5861],[-1.63062,2.57655]],[[258.42022,229.61245],[0.25908,-2.86779],[-0.18243,2.01936]],[[257.42022,235.61245],[0.18489,-2.01914],[-0.17939,1.95913]],[[257.38363,241.37902],[0.34606,-1.97774],[-0.26988,1.54233]],[[256.23844,247.44954],[-0.70954,-1.75258],[0.67413,1.66513]],[[260.80157,250.31691],[-1.50438,-0.98181],[0.92438,0.60328]],[[263.92874,251.40625],[-1.10073,0.08261],[6.13977,0.46079]],[[269.46102,239.00579],[-0.69952,3.80089],[0.21496,-1.16801]],[[270.55703,235.61568],[-0.36534,1.13003],[0,0]],[270.42874,234.40625],[[270.61805,233.44245],[-0.18931,0.51632],[-1.27471,-3.18909]],[[269.9409,222.6599],[-0.29248,3.56714],[0.08526,-1.03984]],[[269.97253,219.42036],[-0.04719,1.07284],[-1.84822,0.01653]],[[264.42873,219.40625],[1.84733,0.04991],[0,0]]],&quot;closed&quot;:true,&quot;fillColor&quot;:[0,0,0,1]}]}" fill="#1b130b" stroke="none" stroke-width="0.5" stroke-linecap="butt"/><path d="" fill="#000000" stroke="none" stroke-width="0.5" stroke-linecap="butt"/><path d="" fill="#000000" stroke="none" stroke-width="0.5" stroke-linecap="butt"/><path d="" fill="#000000" stroke="none" stroke-width="0.5" stroke-linecap="butt"/><path d="" data-paper-data="{&quot;noHover&quot;:false,&quot;origItem&quot;:[&quot;Path&quot;,{&quot;applyMatrix&quot;:true,&quot;segments&quot;:[[[301.02,284.43509],[0,0],[-0.48649,1.35086]],[[300.35678,288.69109],[-0.52267,-1.33728],[1.11613,2.85562]],[[308.45427,291.76454],[-2.24218,-0.42883],[3.74562,0.71638]],[[319.42965,293.09357],[-3.74915,-0.64317],[5.62646,0.96524]],[[336.01207,295.39178],[-5.76157,0.00622],[1.33333,0]],[[340.01207,295.39178],[-1.32656,-0.1342],[0.50986,0.05158]],[[341.44775,295.94168],[-0.42888,0.28049],[0.37573,-0.24574]],[[341.19366,294.61899],[0.03304,0.44774],[-0.21324,-2.89017]],[[338.49458,286.87855],[2.58696,1.91253],[-3.11025,-2.2994]],[[329.5094,284.67406],[3.45411,0.76575],[-2.70322,-0.59928]],[[324.07827,281.479],[1.99996,1.6369],[0,0]],[322.8454,280.55845],[[322.12528,279.72773],[0.30958,0.52281],[-0.68443,-0.00016]],[[320.67873,279.72511],[0.21452,0],[-4.35445,0]],[[308.54686,278.26081],[4.13278,1.46737],[-1.00529,-0.35693]],[[305.61331,277.34436],[0.91428,0.32012],[-1.65526,2.28608]],[[301.02,284.43508],[0.94333,-2.61939],[0,0]]],&quot;closed&quot;:true,&quot;fillColor&quot;:[0,0,0,1]}]}" fill="#1b130b" stroke="none" stroke-width="0.5" stroke-linecap="butt"/><path d="" data-paper-data="{&quot;noHover&quot;:false,&quot;origItem&quot;:[&quot;Path&quot;,{&quot;applyMatrix&quot;:true,&quot;segments&quot;:[[[262.34541,239.05845],[0,0],[-0.32826,-0.00287]],[[258.34269,239.42427],[0.77949,-0.75758],[-1.51727,1.47463]],[[256.33047,248.18522],[0.2052,-1.38223],[-0.42913,2.89071]],[[254.4564,256.74976],[0.69192,-2.83931],[-0.58439,2.39805]],[[254.08724,264.44429],[-0.1104,-2.59643],[0.66079,0.32787]],[[256.10654,265.36956],[-0.68186,-0.2935],[-0.71289,-0.16422]],[[254.099,264.72065],[0.61646,0.27296],[0.04118,0.9696]],[[254.17873,267.55845],[0,-0.91516],[0,2.65116]],[[255.25295,273.60918],[-1.65742,-2.05579],[1.39686,1.40923]],[[260.04949,277.13442],[-1.66322,-1.08204],[0.69886,0.45466]],[[262.06018,278.6221],[-0.74758,-0.36911],[7.62023,3.7625]],[[269.28806,266.60293],[0.25885,6.02446],[-0.33205,0.03141]],[[268.2657,266.62741],[0.34767,0.01294],[0.33082,-0.13584]],[[269.27026,266.19713],[-0.33957,0.15017],[-0.04654,-1.04389]],[[269.17873,263.55846],[0,0.68247],[0,0]],[269.17873,262.22513],[[269.36562,261.26796],[-0.18689,0.51352],[-0.9949,-2.34074]],[[268.84539,253.55846],[-0.00211,2.4075],[0.00398,-4.53963]],[[269.72042,239.3032],[-1.64723,4.26841],[-2.45342,-0.09127]],[[262.34539,239.05846],[2.47075,0.02163],[0,0]]],&quot;closed&quot;:true,&quot;fillColor&quot;:[0,0,0,1]}]}" fill="#1b130b" stroke="none" stroke-width="0.5" stroke-linecap="butt"/><path d="" data-paper-data="{&quot;noHover&quot;:false,&quot;origItem&quot;:[&quot;Path&quot;,{&quot;applyMatrix&quot;:true,&quot;segments&quot;:[[[685.18502,872.61899],[0,0],[1.43662,5.98084]],[[693.01062,884.03649],[-3.70218,-4.86454],[2.24742,2.23678]],[[699.59264,890.90413],[-2.72186,-1.62654],[0.9722,0.58098]],[[706.82094,891.32953],[-0.601,0.05898],[7.406,-0.72658]],[[726.8086,885.51977],[-6.97654,1.96418],[1.2142,-0.34184]],[[730.56748,885.08245],[-1.10602,0.60652],[2.30702,-1.26512]],[[734.3671,878.16373],[-0.68386,2.5407],[1.11344,-4.13668]],[[732.57348,864.12511],[1.20564,3.77476],[-0.59548,-1.8644]],[[730.63334,858.58331],[1.54934,1.19592],[-1.12408,-0.86766]],[[726.45242,859.40035],[1.41022,-0.16646],[-4.7625,0.5622]],[[712.46942,862.78461],[4.25664,-2.20872],[0,0]],[[709.1243,863.27397],[1.7568,0.3048],[-2.88902,2.03706]],[[699.0903,867.95487],[2.74046,-1.09482],[-4.28754,1.7129]],[[685.1907,871.99437],[4.76756,-0.4218],[0,0]]],&quot;closed&quot;:true,&quot;fillColor&quot;:[0,0,0,1]}]}" fill="#1b130b" stroke="none" stroke-width="0.5" stroke-linecap="butt"/><path d="" data-paper-data="{&quot;noHover&quot;:false,&quot;origItem&quot;:[&quot;Path&quot;,{&quot;applyMatrix&quot;:true,&quot;segments&quot;:[[[534.24752,820.15827],[0,0],[-4.04368,0.08802]],[[522.21394,821.21539],[3.95246,-0.81222],[-1.3621,0.26626]],[[510.4634,822.97835],[0.57882,-1.35172],[-1.33586,3.11964]],[[510.23336,835.31249],[0,-3.25428],[0,12.11958]],[[513.15144,871.41109],[-2.19068,-11.90282],[0.6726,3.65454]],[[517.2748,887.34391],[-3.32516,-2.37646],[3.6453,2.60526]],[[534.72606,889.33683],[-4.32258,0],[2.74784,0.54956]],[[542.9973,890.84037],[-2.70528,0.73084],[1.66574,-0.45002]],[[544.2577,885.81981],[-0.12208,1.72114],[0.32888,-4.6368]],[[543.33046,872.29307],[0.85138,4.52884],[-1.1888,-6.32378]],[[537.2817,856.00599],[1.2386,6.98638],[-0.92902,-5.24016]],[[537.2577,839.80517],[0.52952,5.28946],[-0.67414,-6.7343]],[[534.24754,820.15827],[0.19656,6.80238],[0,0]]],&quot;closed&quot;:true,&quot;fillColor&quot;:[0,0,0,1]}]}" fill="#1b130b" stroke="none" stroke-width="0.5" stroke-linecap="butt"/><path d="" data-paper-data="{&quot;noHover&quot;:false,&quot;origItem&quot;:[&quot;Path&quot;,{&quot;applyMatrix&quot;:true,&quot;segments&quot;:[[[644.56667,520.3125],[-10.74954,-0.02493],[3.36267,0.0078]],[[657.3306,521.84036],[-3.05094,0.66835],[1.47633,-0.32341]],[[657.56667,517.3125],[0.04604,1.51064],[-0.05077,-1.66589]],[[657.56667,512.3125],[0,1.66667],[0,0]],[[657.57078,512.18913],[-0.00411,0.07951],[-0.21417,-0.00276]],[[656.92826,512.1811],[0.21417,0.00259],[-0.00293,-2.76013]],[[656.93459,503.90085],[-0.01017,2.75998],[0.00586,-1.58768]],[[656.31577,495.58781],[1.02114,1.9155],[-2.49278,-4.6761]],[[639.82937,490.48677],[4.30574,0.4726],[0,0]],[[636.57153,488.90069],[1.32098,1.37088],[-1.41416,0.32306]],[[632.36463,489.80929],[1.36322,-0.31648],[-8.22084,1.90848]],[[605.46581,490.57783],[8.81122,0.25452],[2.4454,3.91253]],[[608.7703,504.32455],[-0.39088,-4.77593],[1.79637,1.46105]],[610.56667,508.3125],[[610.49864,510.49051],[0,0],[0.54381,3.26283]],[[612.31763,520.30909],[-0.32664,-3.21574],[10.74968,-0.00723]]],&quot;closed&quot;:true}]}" fill="#1b130b" stroke="none" stroke-width="0.5" stroke-linecap="butt"/><path d="" data-paper-data="{&quot;noHover&quot;:false,&quot;origItem&quot;:[&quot;Path&quot;,{&quot;applyMatrix&quot;:true,&quot;segments&quot;:[[[543.54233,513.80519],[0.25435,-1.57199],[-0.16076,0.99353]],[[542.23738,516.52799],[-0.14982,-0.99524],[0.09076,0.60292]],[[544.01629,516.95368],[-0.5763,-0.19908],[5.62853,1.94431]],[[559.05935,520.33683],[-5.90527,-0.5454],[5.35726,0.49479]],[[574.97907,523.32954],[-5.37617,-0.48875],[6.39739,0.58159]],[[594.56667,523.3125],[-6.42799,0],[1.05347,0]],[[597.74939,523.77999],[-1.06184,-0.22693],[0.76557,-2.95002]],[[602.32798,520.32402],[-0.86334,0.0657],[-0.39267,-2.8469]],[[600.73923,512.56397],[0.30508,1.24115],[-0.24825,0.0023]],[[599.99448,512.57075],[0.24825,-0.00221],[-0.31463,-0.78554]],[[599.28701,510.22629],[0.09634,0.77071],[-0.45798,-3.66384]],[[595.03927,494.42693],[5.15054,1.68118],[-2.34118,-0.76418]],[[587.69343,493.63671],[2.44862,0.2634],[0,0]],[[583.42357,489.59489],[0.44428,3.4953],[-12.37122,-1.33364]],[[546.30477,487.31331],[12.5632,0.22344],[-0.52082,7.35291]],[[544.01475,509.09149],[0.31456,-7.29039],[-0.14615,-0.02114]],[[543.57608,509.02896],[0.14629,0.02054],[0.04478,1.5967]]],&quot;closed&quot;:true}]}" fill="#1b130b" stroke="none" stroke-width="0.5" stroke-linecap="butt"/><path d="M338.6487,140.24248c-0.04283,-0.21353 -0.21464,-1.25298 -0.39165,-2.08678c-0.02285,-0.28447 -0.09614,-0.54895 -0.20626,-0.79857c-0.37492,-0.84988 -1.21213,-1.43363 -2.19127,-1.47211c-2.11231,-1.5827 -5.02735,-2.72467 -7.77404,-3.54281l0.07117,-0.78451c0.39886,-1.09804 0.80604,-2.19706 1.20078,-3.27435c0.76795,0.26819 1.53297,0.08977 1.53297,0.08977l0.00001,-0.00002c2.02306,-0.47808 5.0334,-1.26566 7.16725,-0.8199c1.41088,0.29473 0.95027,1.60199 1.11724,2.6119c0.15314,0.92625 0.17326,1.71602 0.07158,2.41468c0.1929,0.07632 0.36446,0.20305 0.49641,0.3587c0.015,0.78318 0.17007,1.7525 0.18555,3.02267c0.00106,0.08702 0.00198,0.17623 0.00287,0.26325l-0.03155,0.31611c-0.00933,0.10636 -0.03231,0.21153 -0.0666,0.30857c-0.0623,0.79193 -0.13441,1.64271 -0.09003,1.90851c0.05873,0.35179 0.11876,0.70628 0.18458,1.05367c-0.00679,1.53577 -0.03129,3.08533 -0.02059,4.62103c0.00006,0.00901 -0.05713,-0.06389 -0.05701,-0.05477c-0.47156,-1.80348 -1.05809,-3.42055 -1.20139,-4.13506z" data-paper-data="{&quot;noHover&quot;:false,&quot;origItem&quot;:[&quot;Path&quot;,{&quot;applyMatrix&quot;:true,&quot;segments&quot;:[[[283.03655,137.62096],[0,0],[0.04283,-0.21353]],[[283.42059,135.52328],[-0.17701,0.8338],[0.02285,-0.28447]],[[283.62404,134.71815],[-0.11012,0.24962],[0.37492,-0.84988]],[[285.81258,133.22817],[-0.97914,0.03848],[2.11231,-1.5827]],[[293.67924,129.66076],[-2.74669,0.81814],[0,0]],[[293.52553,128.93249],[0,0],[-0.39886,-1.09804]],[[292.33888,125.67086],[0.39474,1.07729],[-0.76795,0.26819]],[290.81287,125.76411],[[290.81286,125.76409],[0,0],[-2.02306,-0.47808]],[[283.68635,124.9428],[2.13385,-0.44576],[-1.41088,0.29473]],[[282.58067,127.54689],[0.16697,-1.00991],[-0.15314,0.92625]],[[282.51778,129.95129],[-0.10168,-0.69866],[-0.1929,0.07632]],[[282.02356,130.3062],[0.13195,-0.15565],[-0.015,0.78318]],[[281.84365,133.30565],[0.01548,-1.27017],[-0.00106,0.08702]],[[281.84072,133.5667],[0.00089,-0.08702],[0,0]],[[281.87207,133.88016],[0,0],[0.00933,0.10636]],[[281.93834,134.18611],[-0.03429,-0.09704],[0.0623,0.79193]],[[282.02391,136.08036],[0.04438,-0.2658],[-0.05873,0.35179]],[[281.83633,137.12871],[0.06582,-0.34739],[0.00679,1.53577]],[[281.84365,141.73599],[0.0107,-1.5357],[-0.00006,0.00901]],[[281.84338,141.76319],[0.00012,-0.00912],[0.47156,-1.80348]],[[283.03655,137.62094],[-0.1433,0.71451],[0,0]]],&quot;closed&quot;:true,&quot;fillColor&quot;:[0,0,0,1]}],&quot;index&quot;:null}" fill="#385130" stroke="none" stroke-width="0.5" stroke-linecap="butt"/><path d="M283.8771,141.10297c0.44278,-2.67525 -0.05774,-6.22473 0.01083,-7.40896c0.02499,-0.43163 0.3123,-1.55814 0.35158,-2.48807c0.0194,-0.02322 0.0403,-0.04668 0.06209,-0.06889c-0.02639,-0.51591 -0.35195,-2.32947 0.38467,-2.78891c1.84085,-1.14815 4.59775,-1.45042 6.67199,-1.4134c0,0 0.05787,0.00024 0.15448,-0.00834c1.31182,2.44546 2.7428,4.90285 4.0914,7.32954c-2.05118,0.66561 -4.50107,1.6058 -6.63404,2.8181c-0.04174,0.00752 -0.08559,0.01551 -0.12799,0.0249c-0.01166,-0.00946 -0.02402,-0.01913 -0.0358,-0.02865c-0.00965,0.01446 -0.01958,0.02883 -0.02933,0.04327c-1.62474,0.39233 -3.70949,2.096 -4.89988,3.9894z" data-paper-data="{&quot;noHover&quot;:false,&quot;origItem&quot;:[&quot;Path&quot;,{&quot;applyMatrix&quot;:true,&quot;segments&quot;:[[[337.78423,131.04145],[0.06857,1.18423],[-0.02499,-0.43163]],[[337.43807,128.5734],[0.03928,0.92993],[-0.0194,-0.02322]],[[337.37632,128.50516],[0.02179,0.02221],[0.02639,-0.51591]],[[337.00258,125.73016],[0.73662,0.45944],[-1.84085,-1.14815]],[[330.37501,124.32813],[2.07424,-0.03702],[0,0]],[[330.22152,124.31955],[0.09661,0.00858],[-1.31182,2.44546]],[[326.1679,131.59859],[1.3486,-2.42669],[2.05118,0.66561]],[[332.73989,134.37019],[-2.13297,-1.2123],[0.04174,0.00752]],[[332.8661,134.39557],[-0.0424,-0.00939],[0.01166,-0.00946]],[[332.90126,134.36711],[-0.01178,0.00952],[0.00965,0.01446]],[[332.93036,134.41045],[-0.00975,-0.01444],[1.62474,0.39233]],[[337.81313,138.40909],[-1.19039,-1.8934],[-0.44278,-2.67525]]],&quot;closed&quot;:true,&quot;fillColor&quot;:[0,0,0,1]}],&quot;index&quot;:null}" fill="#385130" stroke="none" stroke-width="0.5" stroke-linecap="butt"/><path d="" data-paper-data="{&quot;index&quot;:null}" fill="#000000" stroke="none" stroke-width="0.5" stroke-linecap="butt"/><path d="M325.71882,96.07301c2.67476,3.80482 5.69117,7.63066 8.00198,11.65092c0.4072,0.70842 0.65599,1.50829 1.10073,2.19376c0.18117,0.27922 0.95021,0.39769 0.748,0.66208c-0.30692,0.40129 -0.98558,0.23123 -1.48556,0.30367c-2.12419,0.30778 -4.24435,0.69084 -6.38245,0.87895c-7.30757,0.64292 -15.03649,-0.23811 -22.38337,-0.23811c-4.7945,0.01664 -9.59386,-0.79551 -14.40512,-1.02208c-1.58667,-0.07472 -3.19604,-0.2529 -4.77666,-0.13697c2.65843,-2.39755 4.89686,-6.97782 6.5309,-9.56394c0.01689,-0.02673 1.86419,-3.53115 2.26452,-3.75301c3.92904,-2.17747 10.6537,-1.61441 14.9091,-1.61441c5.39375,0 10.61605,-0.16019 15.87794,0.63913z" data-paper-data="{&quot;noHover&quot;:false,&quot;origItem&quot;:[&quot;Path&quot;,{&quot;applyMatrix&quot;:true,&quot;segments&quot;:[[[592.09546,186.88092],[0,0],[-5.34952,7.60966]],[[576.101,210.11974],[4.62162,-8.04052],[-0.8144,1.41684]],[[573.89784,214.49948],[0.88948,-1.37094],[-0.36234,0.55844]],[[572.40138,215.82194],[-0.40442,-0.52878],[0.61384,0.80258]],[[575.3717,216.42654],[-0.99996,-0.14488],[4.24838,0.61556]],[[588.13124,218.1708],[-4.2762,-0.37622],[14.61514,1.28584]],[[632.74998,217.65624],[-14.69376,0],[9.589,0.0333]],[[661.5234,215.66138],[-9.62252,0.45314],[3.17334,-0.14944]],[[671.07482,215.3937],[-3.16124,-0.23186],[-5.31686,-4.79508]],[[658.0108,196.30756],[3.26808,5.17224],[-0.03378,-0.05346]],[[653.48822,188.82432],[0.80066,0.44372],[-7.85808,-4.35494]],[[623.74996,185.65626],[8.5108,0],[-10.7875,0]],[[592.09542,186.88094],[10.52378,-1.59864],[0,0]]],&quot;closed&quot;:true,&quot;fillColor&quot;:[0,0,0,1]}],&quot;index&quot;:null}" fill="#385130" stroke="none" stroke-width="0.5" stroke-linecap="butt"/><path d="M323.34337,130.77006c-1.16172,-0.04457 -2.38016,-0.21033 -3.21682,0.49376c-3.1576,2.65728 0.43248,7.19071 -3.73118,8.37143c-1.76964,0.50184 -4.72105,-0.25403 -6.46612,-0.53271c-0.46278,-0.07391 -1.05551,0.15061 -1.40253,-0.16436c-1.11688,-1.0137 -0.18372,-3.16544 -1.03476,-4.41072c-2.38679,-3.49244 -3.23133,-2.8617 -6.69126,-3.02526l-1.11474,-0.00173c-2.8952,-5.16107 -6.0399,-10.29166 -7.90055,-15.93955c4.52108,0.25379 9.01762,0.86302 13.5415,0.87679c7.71861,0 15.73111,0.81079 23.43639,0.07488c-1.98062,4.37213 -3.55133,8.80087 -5.21641,13.37474l-0.20352,0.88272z" data-paper-data="{&quot;noHover&quot;:false,&quot;origItem&quot;:[&quot;Path&quot;,{&quot;applyMatrix&quot;:true,&quot;segments&quot;:[[[603.28497,257.18272],[-1.67332,-1.40818],[6.31519,5.31455]],[[610.69892,273.87079],[-8.32731,-2.36145],[3.53929,1.00367]],[[623.5826,272.79444],[-3.49013,0.55736],[0.92557,-0.14781]],[[626.37534,272.46685],[-0.69405,0.62993],[2.23376,-2.0274]],[[628.42258,263.65157],[-1.70209,2.49057],[4.77358,-6.98488]],[[641.75,257.65625],[-6.91986,0.32711],[0,0]],[[643.97816,257.65625],[0,0],[5.79041,-10.32215]],[[659.78966,225.86595],[-3.7213,11.29577],[-9.04216,0.50758]],[[632.75,227.65625],[9.04776,-0.02754],[-15.43723,0]],[[586.00313,227.76618],[15.41056,1.47182],[3.96123,8.74426]],[[596.44897,254.44753],[-3.33017,-9.14774],[0,0]],[[596.85468,256.20637],[0,0],[2.32343,-0.08913]]],&quot;closed&quot;:true}],&quot;index&quot;:null}" fill="#131313" stroke="none" stroke-width="0.5" stroke-linecap="butt"/><path d="M306.08319,127.62412h-4.38889l-2.33333,-4.5l2.22222,-4.33334h4.05556l2.44444,4.16667z" data-paper-data="{&quot;index&quot;:null}" fill="#9d0201" stroke="#323231" stroke-width="2" stroke-linecap="round"/><path d="M310.44428,133.35673h0.11111c2.00799,0 3.99231,0.11111 6,0.11111c0,0 0.25,0 0.25,0.25c0,0.25 -0.25,0.25 -0.25,0.25c-2.00778,0 -3.99202,-0.11111 -6,-0.11111h-0.11111c0,0 -0.25,0 -0.25,-0.25c0,-0.25 0.25,-0.25 0.25,-0.25z" data-paper-data="{&quot;index&quot;:null}" fill="#000000" stroke="none" stroke-width="0.5" stroke-linecap="butt"/><path d="M310.69856,135.14736l0.37234,-0.12071c1.71688,-0.01144 3.44822,-0.10993 5.15116,-0.11434c0,0 0.25,0 0.25,0.25c0,0.25 -0.25,0.25 -0.25,0.25c-1.67671,-0.00486 -3.37895,0.12139 -5.07106,0.10788l-0.29433,0.10151c0,0 -0.23718,0.07906 -0.31623,-0.15811c-0.07905,-0.23717 0.15812,-0.31623 0.15812,-0.31623z" data-paper-data="{&quot;index&quot;:null}" fill="#000000" stroke="none" stroke-width="0.5" stroke-linecap="butt"/><path d="M309.66246,136.91233l0.33687,-0.00546c1.98494,-0.09118 3.99733,-0.43624 6.00053,-0.43902c0,0 0.25,0 0.25,0.25c0,0.25 -0.25,0.25 -0.25,0.25c-1.99721,-0.00304 -4.00534,0.3446 -5.98478,0.43878l-0.34449,0.00563c0,0 -0.24996,0.00407 -0.25403,-0.2459c-0.00407,-0.24997 0.2459,-0.25403 0.2459,-0.25403z" data-paper-data="{&quot;index&quot;:null}" fill="#000000" stroke="none" stroke-width="0.5" stroke-linecap="butt"/><path d="M306.08319,127.62412h-4.38889l-2.33333,-4.5l2.22222,-4.33334h4.05556l2.44444,4.16667z" data-paper-data="{&quot;index&quot;:null}" fill="none" stroke="#1a1a1a" stroke-width="0.5" stroke-linecap="round"/><g data-paper-data="{&quot;index&quot;:null}" fill="#000000" stroke="none" stroke-width="1" stroke-linecap="butt" font-family="&quot; Pro W3&quot;, &quot;Hiragino Kaku Gothic Pro&quot;, Osaka, &quot;&quot;, Meiryo, &quot; &quot;, &quot;MS PGothic&quot;" font-weight="normal" font-size="40" text-anchor="start"><text transform="translate(333.34708,108.25849) rotate(-180) scale(0.03846,-0.03846)" font-size="40" xml:space="preserve" fill="#000000" fill-rule="nonzero" stroke="none" stroke-width="1" stroke-linecap="butt" stroke-linejoin="miter" stroke-miterlimit="10" stroke-dasharray="" stroke-dashoffset="0" font-family="&quot; Pro W3&quot;, &quot;Hiragino Kaku Gothic Pro&quot;, Osaka, &quot;&quot;, Meiryo, &quot; &quot;, &quot;MS PGothic&quot;" font-weight="normal" text-anchor="start" style="mix-blend-mode: normal"><tspan x="0" dy="0">The Black Mesa</tspan><tspan x="0" dy="46.15px">Pivovar13</tspan></text><text transform="translate(326.93683,109.21778) rotate(-180) scale(0.01021,-0.01021)" font-size="40" xml:space="preserve" fill="#000000" fill-rule="nonzero" stroke="none" stroke-width="1" stroke-linecap="butt" stroke-linejoin="miter" stroke-miterlimit="10" stroke-dasharray="" stroke-dashoffset="0" font-family="&quot; Pro W3&quot;, &quot;Hiragino Kaku Gothic Pro&quot;, Osaka, &quot;&quot;, Meiryo, &quot; &quot;, &quot;MS PGothic&quot;" font-weight="normal" text-anchor="start" style="mix-blend-mode: normal"><tspan x="0" dy="0">TM</tspan></text></g><g data-paper-data="{&quot;index&quot;:null}"><path d="M320.23523,188.70146l9,-1.44445l2.55555,14.33334l-7.88889,2.44444z" fill="#121212" stroke="#000000" stroke-width="0" stroke-linecap="round"/><path d="M331.42712,192.11937c-2.33132,-1.13033 -1.55937,-5.03636 -2.36364,-4.54545c-0.90163,0.55034 0.63636,5.09091 0.63636,5.09091l2.27273,9.09091l-8.09091,2.18182l-2.81818,-8.54546l-0.72727,-6.72727h-0.81818l-0.54546,-0.54546l-8.54546,0.09091l0.18182,3l-0.72727,0.72728l-0.90341,-0.14844l-1.875,3.375l0.625,0.75l-1.375,1.25l-7.25,-2.375l5.875,-9.25v-2.125l-4,-2.5l-34,9.375l-2.375,-15.25l38.125,-2.25l-0.02841,-1.12428h1.18182l1.36364,-3.09091l0.90909,-0.09091l0.09091,-2l1.54546,-1.18182l3.27273,-0.27273c0,0 17.51031,0.40434 19.36364,1.18181c1.4205,0.5959 0.63636,4.72728 0.63636,4.72728l2.81819,0.63636l0.18182,-1.27273l28.54545,-0.36363l1,-3.63637l5.09091,-0.18181l0.45454,0.45454l10.54546,0.09091l4.45454,-5.72728l3.54546,-0.09091l-0.72727,11.72728h13.27273l1.09091,-1.09091h9.36364v4.81818l-9.45455,0.09091l-0.90909,-1l-13.81818,0.18182l1,1.45455l-0.09091,1.63637h-2.90909v-3h-5l-0.27273,0.81818l-1.54545,0.09091l-0.63637,3h-0.81818l0.18182,1l11.45455,0.18182l2,2v2.45454l-1.27273,2.18182l-20.27273,0.09091l-1.09091,1.36364h-27.63637c0,0 -0.29326,2.59003 -1.54545,3.09091c-1.25219,0.50088 -4.30503,1.31216 -6.63636,0.18182z" fill="#121111" stroke="#000000" stroke-width="1" stroke-linecap="round"/><path d="M313.60898,167.3921l15.18182,-0.18182l0.90909,1.18182l-0.09091,2.18182l-16.90909,0.63636l-0.18182,-1.45454z" fill="#000000" stroke="#000000" stroke-width="1" stroke-linecap="round"/><path d="M313.52414,185.08758c0,0 0.86066,1.06363 1.46667,1.33334c0.50661,0.22546 -0.73334,-1.53334 -0.73334,-1.53334l0.26667,-1.26667c0,0 2.85332,-0.30143 3.86666,0.6c0.694,0.61736 1.63086,2.42854 0.06666,3c-1.48294,0.54178 -4.26666,-0.06667 -4.26666,-0.06667c0,0 -1.79093,-0.64872 -1.93334,-1.53333c-0.22487,-1.39674 1,-2.06667 1,-2.06667z" fill="#000000" stroke="#000000" stroke-width="0.5" stroke-linecap="round"/><path d="M340.61221,176.23667l0.57143,-1h1.28571l0.57143,0.85715l-0.5,1.07143l-1.28571,0.07143z" fill="#000000" stroke="#000000" stroke-width="0.5" stroke-linecap="round"/><path d="M343.46936,173.12954l0.57142,-1.10714h1.28572l0.57143,0.94898l-0.5,1.18622l-1.28572,0.07908z" fill="#000000" stroke="#000000" stroke-width="0.5" stroke-linecap="round"/><path d="M347.04079,176.27238l0.57142,-1.10714h1.28572l0.57143,0.94898l-0.5,1.18623l-1.28571,0.07908z" fill="#000000" stroke="#000000" stroke-width="0.5" stroke-linecap="round"/><path d="M349.75509,172.98667l0.57142,-1.32143h1.28571l0.57143,1.13266l-0.5,1.41581l-1.28571,0.09439z" fill="#000000" stroke="#000000" stroke-width="0.5" stroke-linecap="round"/><path d="M356.11223,172.98666l0.60504,-1.32142h1.36134l0.60504,1.13266l-0.52941,1.41581l-1.36135,0.09439z" fill="#000000" stroke="#000000" stroke-width="0.5" stroke-linecap="round"/><path d="M353.32652,176.27239l0.57142,-1.32142h1.28571l0.57143,1.13265l-0.5,1.41581l-1.28571,0.09439z" fill="#000000" stroke="#000000" stroke-width="0.5" stroke-linecap="round"/><path d="M359.75507,176.41525l0.57143,-1.32142h1.28572l0.57143,1.13265l-0.5,1.41582l-1.28571,0.09438z" fill="#000000" stroke="#000000" stroke-width="0.5" stroke-linecap="round"/><path d="M362.68365,172.98667l0.57143,-1.32143h1.28571l0.57143,1.13266l-0.5,1.41581l-1.28572,0.09439z" fill="#000000" stroke="#000000" stroke-width="0.5" stroke-linecap="round"/><path d="M366.11223,176.12954l0.57142,-1.32143h1.28571l0.57143,1.13265l-0.5,1.41582l-1.28572,0.09438z" fill="#000000" stroke="#000000" stroke-width="0.5" stroke-linecap="round"/><path d="M383.33245,167.69278l0.75,0.08333l-0.33333,2.83333l-2.91667,-0.16667l0.08334,-1l2.41666,-3.41667z" fill="#000000" stroke="#000000" stroke-width="0.5" stroke-linecap="round"/><path d="M380.58245,172.85945v-1h3.16667v1z" fill="#000000" stroke="none" stroke-width="0" stroke-linecap="butt"/><path d="M369.02889,172.90335l0.60504,-1.32143h1.36135l0.60504,1.13265l-0.52941,1.41582l-1.36135,0.09438z" fill="#000000" stroke="#000000" stroke-width="0.5" stroke-linecap="round"/><path d="M372.67174,176.33191l0.57143,-1.32143h1.28571l0.57143,1.13266l-0.5,1.41582l-1.28571,0.09438z" fill="#000000" stroke="#000000" stroke-width="0.5" stroke-linecap="round"/><path d="M375.60032,172.90334l0.57143,-1.32142h1.28571l0.57143,1.13265l-0.5,1.41581l-1.28571,0.09439z" fill="#000000" stroke="#000000" stroke-width="0.5" stroke-linecap="round"/><path d="M331.91429,188.78277c0,0 0.93012,1.14948 1.58504,1.44095c0.5475,0.24366 -0.79253,-1.6571 -0.79253,-1.6571l0.28819,-1.3689c0,0 3.08362,-0.32575 4.17876,0.64843c0.75003,0.66719 1.76251,2.62455 0.07205,3.24214c-1.60264,0.58551 -4.61104,-0.07205 -4.61104,-0.07205c0,0 -1.93547,-0.70108 -2.08938,-1.65709c-0.24302,-1.50948 1.08071,-2.23348 1.08071,-2.23348z" fill="#000000" stroke="#000000" stroke-width="0.5" stroke-linecap="round"/></g><path d="M300.49876,123.19855l1.61235,-3.26104l87.66667,-26.88889v57.33334l-87.55556,-23.88889z" fill="url(#color-1)" stroke="#323231" stroke-width="0" stroke-linecap="round"/><path d="M271.93604,223.9057c3.45667,-0.08939 6.79179,0.02906 10.17797,0.20948c-0.30571,4.06901 -0.58882,8.26868 -0.56507,12.28076c0.0077,1.30145 -0.09908,2.77086 0.12636,4.12776c-0.5022,0.71059 -0.50561,1.57685 -0.50561,1.57685l-0.00237,1.0042c0.00883,1.04566 0.13404,2.10678 0.01909,3.14614c-0.66433,6.00648 -5.53853,6.32866 -10.31961,6.37656c-1.42769,0.0143 -2.91603,-0.27175 -4.20549,-0.88478c-3.07656,-2.32252 -2.07965,-3.97746 -2.07754,-7.63625c0.00244,-4.21876 0.50228,-8.33588 0.50228,-12.55965c0,-2.22097 -0.18204,-4.43368 0.34521,-6.61014c0.1012,-0.41777 0.0228,-1.02604 0.40256,-1.22744c0.39465,-0.2093 0.85681,0.30807 1.30327,0.32288c1.5942,0.05289 3.20439,-0.08515 4.79894,-0.12638z" data-paper-data="{&quot;noHover&quot;:false,&quot;origItem&quot;:[&quot;Path&quot;,{&quot;applyMatrix&quot;:true,&quot;segments&quot;:[[[271.94072,223.95547],[0,0],[-1.59455,0.04123]],[[267.15704,224.07792],[1.5942,0.05289],[-0.44646,-0.01481]],[[265.85674,223.75363],[0.39465,-0.2093],[-0.37976,0.2014]],[[265.4568,224.97962],[0.1012,-0.41777],[-0.52725,2.17646]],[[265.125,231.57813],[0,-2.22097],[0,4.22377]],[[264.625,244.07813],[0.00244,-4.21876],[-0.00211,3.65879]],[[266.68318,251.69771],[-3.07656,-2.32252],[1.28946,0.61303]],[[270.875,252.57813],[-1.42769,0.0143],[4.78108,-0.0479]],[[281.1515,246.2151],[-0.66433,6.00648],[0.11495,-1.03936]],[[281.125,243.07813],[0.00883,1.04566],[0,0]],[281.125,242.07813],[[281.6272,240.51005],[-0.5022,0.71059],[-0.22544,-1.3569]],[[281.50002,236.40625],[0.0077,1.30145],[-0.02375,-4.01208]],[[282.08736,224.15747],[-0.30571,4.06901],[-3.38618,-0.18042]],[[271.94073,223.95547],[3.45667,-0.08939],[0,0]]],&quot;closed&quot;:true,&quot;fillColor&quot;:[0,0,0,1]}]}" fill="#1b130b" stroke="none" stroke-width="0.5" stroke-linecap="butt"/></g></g></svg>