<svg version="1.1" xmlns="http://www.w3.org/2000/svg" xmlns:xlink="http://www.w3.org/1999/xlink" width="68.76708" height="92.88184" viewBox="0,0,68.76708,92.88184"><defs><linearGradient x1="338.39226" y1="132.53851" x2="338.39226" y2="161.19731" gradientUnits="userSpaceOnUse" id="color-1"><stop offset="0" stop-color="#0d4000"/><stop offset="1" stop-color="#104e00"/></linearGradient><linearGradient x1="303.50266" y1="121.6683" x2="303.50266" y2="160.54406" gradientUnits="userSpaceOnUse" id="color-2"><stop offset="0" stop-color="#0d4000"/><stop offset="1" stop-color="#104e00"/></linearGradient></defs><g transform="translate(-284.61809,-117.3595)"><g data-paper-data="{&quot;isPaintingLayer&quot;:true}" fill-rule="nonzero" stroke-linejoin="miter" stroke-miterlimit="10" stroke-dasharray="" stroke-dashoffset="0" style="mix-blend-mode: normal"><g stroke="none" stroke-width="0.5" stroke-linecap="butt"><path d="M326.88698,163.64382c0.08623,-0.15091 0.17575,-0.2943 0.26842,-0.43053c-0.17169,-0.33893 -0.26842,-0.72226 -0.26842,-1.12817c0,-0.27513 0.04444,-0.53986 0.12653,-0.78744c-0.89657,-2.9769 -0.49618,-7.00486 -0.96429,-9.88949c-0.72888,-4.49152 -3.425,-11.31106 -2.29314,-15.83853c1.56143,-6.24572 9.5367,-9.44724 15.46195,-7.8097c3.85297,1.06483 7.67394,3.65374 7.78838,7.98305c0.03123,1.18137 0.08624,2.6591 -0.57575,3.72481c-0.84353,1.35798 -1.18831,1.77682 -1.87106,2.71907c-0.02672,0.03688 -0.14211,0.09491 -0.0966,0.0966c5.9976,0.22314 12.72668,4.51445 6.33142,10.34672c-1.45391,1.32592 -3.94968,2.30157 -5.87701,2.72454c-0.2983,0.06546 -0.77152,-0.09527 -0.89777,0.18281c-0.8103,1.78468 -0.38876,5.28213 -1.51872,6.98228c0.1883,0.33427 0.29699,0.75343 0.29699,1.27986c0,3.68096 -8.34145,2.02327 -10.44112,2.03239c-0.9908,0.0043 -3.65595,0.98599 -4.23864,-0.03372zM338.124,161.14382c0.02762,0.00121 0.05549,0.00237 0.08361,0.00349c-0.63837,-2.89444 0.60866,-7.62079 1.92727,-9.15916c1.78301,-2.08018 7.68123,-1.10895 7.63874,-4.46317c-0.01319,-1.04147 -2.07428,-0.27432 -3.11532,-0.24148c-1.20084,0.03788 -5.30832,3.72564 -6.54562,1.86969c-2.94841,-4.42262 2.28692,-8.06943 3.89373,-12.06286c0.89699,-2.22932 -2.18286,-4.34282 -3.98464,-4.45865c-1.25774,-0.08086 -2.52105,-0.03103 -3.78101,0c-0.64857,0.01597 -1.86691,0.26347 -2.49119,0.54339c-4.00017,1.79357 -2.62677,5.49947 -2.07243,8.89953c0.7581,4.64984 1.61604,9.48159 1.8981,14.14936c0.06726,1.11309 0.58375,2.98333 0.70497,4.554c1.86521,-0.0557 3.90621,0.28102 5.84379,0.36587z" fill="#000000"/><path d="M332.26013,160.82374c-0.12122,-1.57067 -0.64705,-3.44627 -0.71431,-4.55935c-0.28206,-4.66777 -1.15438,-9.56406 -1.91249,-14.21391c-0.55433,-3.40006 -1.90574,-7.12684 2.09443,-8.92041c0.62428,-0.27991 1.85046,-0.53043 2.49902,-0.5464c1.25995,-0.03103 2.53597,-0.08283 3.79371,-0.00197c1.80178,0.11584 4.90028,2.23243 4.00329,4.46175c-1.6068,3.99343 -6.8536,7.63748 -3.90519,12.06009c1.2373,1.85594 5.28898,-1.78547 6.48982,-1.82335c1.04104,-0.03284 3.20189,-0.79319 3.21509,0.24828c0.04249,3.35423 -5.88944,2.42681 -7.67245,4.50699c-1.3186,1.53837 -2.58243,6.2674 -1.94406,9.16185c-0.02812,-0.00112 -0.05629,-0.00229 -0.08391,-0.00349c-1.93758,-0.08485 -3.99775,-0.42578 -5.86296,-0.37007z" data-paper-data="{&quot;noHover&quot;:false,&quot;origItem&quot;:[&quot;Path&quot;,{&quot;applyMatrix&quot;:true,&quot;segments&quot;:[[[676.248,322.28764],[-3.87516,-0.16969],[0.05524,0.00242]],[[676.41523,322.29462],[-0.05624,-0.00224],[-1.27675,-5.78889]],[[680.26976,303.9763],[-2.63721,3.07674],[3.56602,-4.16036]],[[695.54724,295.04995],[0.08498,6.70845],[-0.02639,-2.08294]],[[689.31661,294.56699],[2.08207,-0.06567],[-2.40168,0.07575]],[[676.22537,298.30637],[2.47459,3.71189],[-5.89682,-8.84523]],[[684.01282,274.18065],[-3.2136,7.98685],[1.79398,-4.45864]],[[676.04354,265.26335],[3.60357,0.23167],[-2.51548,-0.16172]],[[668.48152,265.26335],[2.51991,-0.06206],[-1.29713,0.03194]],[[663.49914,266.35013],[1.24857,-0.55983],[-8.00034,3.58714]],[[659.35427,284.14918],[-1.10867,-6.80012],[1.5162,9.29969]],[[663.15048,312.44791],[-0.56412,-9.33554],[0.13452,2.22617]],[[664.56043,321.55591],[-0.24244,-3.14135],[3.73042,-0.11141]]],&quot;closed&quot;:true}]}" fill="url(#color-1)"/></g><g stroke="none" stroke-width="0.5" stroke-linecap="butt"><path d="M314.11471,165.20784c-3.27132,3.27131 -9.25021,0.41121 -13.8755,0.3125c-0.02521,-0.00054 -0.051,-0.0009 -0.07725,-0.00117c-1.27638,-0.03874 -2.31213,-1.03421 -2.41445,-2.29362c-2.66958,-0.66329 -1.09873,-9.6766 -2.19048,-11.88942c-0.11298,-0.22899 -0.51074,-0.00503 -0.76603,0c-1.98541,0.03918 -4.46779,-1.17514 -5.96597,-2.42872c-3.66372,-3.06556 -5.04019,-10.70059 -3.71056,-15.03788c0.31069,-1.01349 2.75023,-2.00316 3.90207,-2.02936c1.45837,-0.03316 3.89108,0.00051 6.07506,0.546c-0.38995,-3.21751 -0.66199,-9.14932 1.80434,-11.44556c5.40733,-5.03441 13.27322,-5.34643 15.21205,2.86658c0.45779,1.93926 0.7509,4.18157 0.76281,6.16862c0.00042,0.07028 0.07058,0.83383 0.12874,1.9772c2.79963,-1.2166 6.56161,-1.0586 8.19632,2.39246c1.13834,2.40317 1.70757,7.62974 0.87053,9.97345c-1.38482,3.87749 -5.86141,5.66108 -6.38993,10.30747c-0.14253,1.25305 0.92747,6.05221 -0.4924,7.82686c0.09405,0.91579 -0.29133,1.97658 -1.06934,2.75459zM310.83233,157.71677c-0.12311,-2.861 0.11307,-8.25128 2.58587,-10.58992c0.65612,-0.62052 3.93146,-4.04668 3.96068,-4.81486c0.13517,-3.55292 -0.12197,-6.97961 -3.60659,-4.9884c-0.20373,0.3452 -0.48805,0.63717 -0.82709,0.85002c-0.28478,3.28421 -1.11127,6.30422 -3.19789,6.30422c-3.60893,0 -2.30944,-3.96031 -1.98046,-5.88088c0.65364,-3.81593 0.45297,-10.66968 -0.81936,-14.96417c-0.13684,-0.46188 -0.80822,-1.14158 -1.28265,-1.37396c-7.11291,-3.48403 -5.27877,10.94992 -5.26369,12.23722c0.01718,1.46651 0.92792,3.6586 -0.34546,4.38625c-0.01015,0.01719 -0.0205,0.03425 -0.03104,0.05118c0.15155,1.16205 0.19227,2.29564 -0.55949,3.0474c-6.24856,6.24856 -2.37371,-9.52624 -9.66321,-5.14069c-0.86154,0.51833 1.23916,7.17834 1.90038,7.92424c2.07092,2.33613 4.94738,0.69976 7.29294,2.04008c0.86178,0.49245 3.03541,11.86968 2.57364,13.56283c0.01082,0.04191 0.02058,0.08424 0.02925,0.12697c3.09281,-0.05245 6.18687,-0.0582 9.27979,-0.01136c-0.10996,-0.94638 -0.01166,-1.97714 -0.04562,-2.76618z" fill="#000000"/><path d="M310.89574,160.52968c-3.09291,-0.04684 -6.20965,-0.03806 -9.30246,0.01438c-0.00867,-0.04273 -0.01853,-0.08507 -0.02936,-0.12698c0.46177,-1.69315 -1.73787,-13.08092 -2.59965,-13.57336c-2.34556,-1.34032 -5.23876,0.27164 -7.30968,-2.06449c-0.66122,-0.7459 -2.76191,-7.43559 -1.90037,-7.95391c7.28949,-4.38555 3.51126,11.39352 9.75982,5.14496c0.75176,-0.75176 0.61977,-1.90126 0.46822,-3.0633c0.01054,-0.01692 0.02128,-0.0346 0.03142,-0.05179c1.27337,-0.72764 0.38342,-2.93789 0.36624,-4.4044c-0.01508,-1.2873 -1.82228,-15.72565 5.29063,-12.24162c0.47443,0.23238 1.14977,0.91269 1.28661,1.37458c1.27233,4.29449 1.50642,11.17193 0.85278,14.98786c-0.32898,1.92057 -1.71556,5.88248 1.89337,5.88248c2.08662,0 2.90936,-2.98143 3.19414,-6.26564c0.33904,-0.21285 0.71803,-0.53693 0.92176,-0.88213c3.48462,-1.99122 3.74466,1.45708 3.60949,5.01c-0.02922,0.76818 -3.31164,4.21596 -3.96776,4.83649c-2.4728,2.33864 -2.73154,7.74872 -2.60843,10.60971c0.03395,0.78904 -0.06673,1.82079 0.04323,2.76717z" data-paper-data="{&quot;noHover&quot;:false,&quot;origItem&quot;:[&quot;Path&quot;,{&quot;applyMatrix&quot;:true,&quot;segments&quot;:[[[621.66465,315.43353],[0.06791,1.57808],[-0.24623,-5.722]],[[626.83639,294.25369],[-4.9456,4.67727],[1.31224,-1.24105]],[[634.75776,284.62397],[-0.05845,1.53636],[0.27034,-7.10584]],[[627.54457,274.64717],[6.96925,-3.98243],[-0.40746,0.6904]],[[625.89038,276.34722],[0.67808,-0.4257],[-0.56956,6.56842]],[[619.49461,288.95566],[4.17324,0],[-7.21786,0]],[[615.53368,277.19391],[-0.65796,3.84113],[1.30728,-7.63186]],[[613.89496,247.26558],[2.54466,8.58898],[-0.27369,-0.92377]],[[611.32967,244.51766],[0.94886,0.46477],[-14.22582,-6.96805]],[[600.8023,268.99209],[-0.03016,-2.5746],[0.03436,2.93302]],[[600.11138,277.76458],[2.54675,-1.45528],[-0.02029,0.03438]],[[600.04931,277.86693],[0.02108,-0.03385],[0.30311,2.32409]],[[598.93033,283.96173],[1.50351,-1.50351],[-12.49712,12.49712]],[[579.60392,273.68035],[14.57899,-8.7711],[-1.72308,1.03665]],[[583.40469,289.52883],[-1.32244,-1.4918],[4.14184,4.67226]],[[597.99056,293.609],[-4.69112,-2.68064],[1.72356,0.98489]],[[603.13783,320.73466],[0.92354,-3.3863],[0.02164,0.08382]],[[603.19632,320.98861],[-0.01734,-0.08546],[6.18562,-0.10489]],[[621.75589,320.9659],[-6.18582,-0.09369],[-0.21992,-1.89277]]],&quot;closed&quot;:true}]}" fill="url(#color-2)"/></g><path d="M298.2649,173.23437l6.57604,34.50697h25.17871l8.32826,-34.25476z" fill="#400505" stroke="#000000" stroke-width="5" stroke-linecap="round"/><path d="M287.85995,162.94667l1.1711,10.24715h56.5057l2.04943,-10.24715z" fill="#400505" stroke="#000000" stroke-width="5" stroke-linecap="round"/></g></g></svg>