<svg version="1.1" xmlns="http://www.w3.org/2000/svg" xmlns:xlink="http://www.w3.org/1999/xlink" width="81" height="20.5" viewBox="0,0,81,20.5"><g transform="translate(-296.46667,-169.75)"><g data-paper-data="{&quot;isPaintingLayer&quot;:true}" fill-rule="nonzero" stroke-width="0.5" stroke-linejoin="miter" stroke-miterlimit="10" stroke-dasharray="" stroke-dashoffset="0" style="mix-blend-mode: normal"><path d="M296.71667,190v-20h80.5v20z" fill="#151515" stroke="#000000" stroke-linecap="butt"/><g fill="none" stroke="#ffffff" stroke-linecap="round"><path d="M373.42011,181.62905c0,0 -6.2533,2.82967 -12.61905,-0.09524"/><path d="M373.61059,179.86715l-12.90476,0.14285"/><path d="M360.8963,178.62084c6.36575,-2.92491 12.61905,-0.09524 12.61905,-0.09524" data-paper-data="{&quot;index&quot;:null}"/><path d="M370.1344,175.86715c1.0203,0.15004 3.15345,1.32095 3.52381,2.38095c0.37036,1.06 0.24183,2.47105 0.09524,3.33333c-0.14659,0.86228 -2.18879,2.3711 -4.14286,2.76191c-1.95407,0.39081 -3.67096,0.34704 -5.09524,0.04762c-1.42428,-0.29942 -3.68471,-1.25397 -3.85714,-2.61905c-0.17243,-1.36508 0.02255,-3.36091 0.02255,-3.36091c0,0 -0.38513,-1.13281 2.6099,-2.12736c2.48964,-0.82674 6.2398,-0.50531 6.84374,-0.41649z"/><path d="M370.42012,175.91478c0,0 -4.373,-0.22958 -6.09524,0.19048c-1.72223,0.42005 -3.45796,0.86867 -3.66666,2.19047c-0.2087,1.3218 0.04762,3.42857 0.04762,3.42857l-1.52381,0.19047l-0.04762,0.90476l-1.19048,0.23809l-0.14286,-5.57143c0,0 1.88749,-1.4711 3.7619,-2.19047c1.87441,-0.71937 3.3741,-1.13899 5.04762,-1.19048c1.67351,-0.05149 4.23809,0.66667 4.23809,0.66667l-0.42857,1.14285z"/><path d="M363.6892,184.15615c0,0 -0.61995,-2.3369 -0.63158,-4.10526c-0.01396,-2.12345 0.63158,-3.47368 0.63158,-3.47368"/><path d="M370.21551,176.05088c0,0 0.60299,1.02498 0.63158,3.73685c0.02572,2.43919 -0.63158,4.31579 -0.63158,4.31579"/><path d="M367.21551,175.99825v8.52632"/></g></g></g></svg>