<svg version="1.1" xmlns="http://www.w3.org/2000/svg" xmlns:xlink="http://www.w3.org/1999/xlink" width="50.65481" height="12.60195" viewBox="0,0,50.65481,12.60195"><defs><linearGradient x1="320.56541" y1="176.39273" x2="320.56541" y2="180.91972" gradientUnits="userSpaceOnUse" id="color-1"><stop offset="0" stop-color="#224198"/><stop offset="1" stop-color="#111d41"/></linearGradient><linearGradient x1="310.0263" y1="176.20803" x2="310.0263" y2="179.05766" gradientUnits="userSpaceOnUse" id="color-2"><stop offset="0" stop-color="#215719"/><stop offset="1" stop-color="#13310e"/></linearGradient><linearGradient x1="332.70273" y1="173.83334" x2="332.70273" y2="182.0053" gradientUnits="userSpaceOnUse" id="color-3"><stop offset="0" stop-color="#7c2a10"/><stop offset="1" stop-color="#b66c40"/></linearGradient></defs><g transform="translate(-294.65721,-173.70833)"><g data-paper-data="{&quot;isPaintingLayer&quot;:true}" fill-rule="nonzero" stroke-width="0.25" stroke-linejoin="miter" stroke-miterlimit="10" stroke-dasharray="" stroke-dashoffset="0" style="mix-blend-mode: normal"><path d="M312.15976,182.84963l-1.65851,3.07579l-4.37245,-0.99511l-11.30806,1.23635l1.29666,-5.3374l9.98124,2.41239l2.533,-1.62836" fill="#121010" stroke="#000000" stroke-linecap="round"/><path d="M312.85332,174.31582h7.84025l0.99511,1.32681l3.92013,-0.03016l0.6031,3.34718l-0.03015,0.78403l-0.6031,3.61858h-17.2184v-7.71963h3.64873z" fill="#657474" stroke="#000000" stroke-linecap="round"/><path d="M321.08558,176.39273l0.51263,0.54656v3.98044h-2.0656v-3.9352l0.58802,-0.58802z" fill="url(#color-1)" stroke="#000000" stroke-linecap="round"/><path d="M321.08558,176.39273l0.46175,0.49567l-1.92425,0.00565l0.49755,-0.49755z" fill="#afadac" stroke="#000000" stroke-linecap="round"/><path d="M325.00948,176.23065l-0.72372,0.9838h-0.30532l-0.9838,-0.9838z" fill="#631e09" stroke="#000000" stroke-linecap="round"/><path d="M308.59018,179.05766v-2.84963h2.87225v2.84963z" fill="url(#color-2)" stroke="#000000" stroke-linecap="butt"/><path d="M311.48504,177.565c0,0.02262 -0.02262,0.02262 -0.02262,0.02262h-0.01759c-0.21,0 -0.56571,-0.06721 -0.75486,0.02601c-0.19693,0.08142 -0.21727,0.21489 -0.38235,0.33714c-0.1036,0.07672 -0.31313,-0.01392 -0.41708,-0.04972c-0.2536,-0.20018 -0.38921,-0.45167 -0.58748,-0.7213c-0.16889,-0.1606 -0.47515,-0.3168 -0.71289,-0.31585c0,0 -0.02262,0 -0.02262,-0.02262c0,-0.02262 0.02262,-0.02262 0.02262,-0.02262c0.25151,0.00089 0.56836,0.16021 0.74682,0.33118c0.19589,0.26432 0.32933,0.51456 0.57516,0.71147c0.08122,0.02671 0.28807,0.11829 0.36789,0.05359c0.16379,-0.13276 0.19084,-0.25585 0.39129,-0.34249c0.20073,-0.09517 0.55258,-0.03003 0.77349,-0.03003h0.01759c0,0 0.02262,0 0.02262,0.02262z" fill="#571919" stroke="none" stroke-linecap="butt"/><path d="M311.48504,177.90426c-0.00002,0.02262 -0.02263,0.0226 -0.02263,0.0226l-0.03787,-0.00003c-0.31148,-0.00064 -0.37732,-0.19981 -0.53269,-0.42216c-0.04081,-0.0584 -0.11256,-0.08216 -0.15089,-0.15179c-0.07416,-0.03533 -0.13941,-0.11202 -0.22301,-0.12749c-0.23994,-0.04442 -0.42485,0.06246 -0.62829,0.13436c-0.17345,0.18225 -0.22393,0.72477 -0.48071,0.77944c-0.25355,0.10115 -0.52165,0.17216 -0.79616,0.17216c0,0 -0.02262,0 -0.02262,-0.02262c0,-0.02262 0.02262,-0.02262 0.02262,-0.02262c0.27072,0 0.53298,-0.07154 0.7832,-0.17026c0.10342,-0.02057 0.16501,-0.16124 0.18905,-0.25491c0.04796,-0.18687 0.14045,-0.37994 0.28035,-0.51937c0.21468,-0.07475 0.40855,-0.1883 0.66089,-0.14065c0.0922,0.01741 0.16537,0.09717 0.24572,0.13904c0.04194,0.07008 0.11383,0.09708 0.15694,0.1588c0.1471,0.21062 0.20308,0.40224 0.4957,0.40284l0.03781,0.00003c0,0 0.02262,0.00002 0.0226,0.02263z" fill="#281957" stroke="none" stroke-linecap="butt"/><path d="M311.32623,176.22594c0.00471,0.02212 -0.01742,0.02683 -0.01742,0.02683l-0.01015,0.00216c-0.32046,0.05632 -0.38437,0.45105 -0.46979,0.70313c0.00091,0.13133 0.00123,0.47563 -0.0629,0.58768c-0.04654,0.08132 -0.2259,0.13933 -0.30468,0.20183c-0.176,0.13788 -0.3501,0.23761 -0.50024,0.38047c0.01909,0.19132 0.07654,0.37133 0.07655,0.58128c0,0.10482 -0.00613,0.20359 0.03671,0.30137l0.00818,0.04305c0,0 0.00391,0.02228 -0.01837,0.02618c-0.02228,0.00391 -0.02618,-0.01837 -0.02618,-0.01837l-0.00513,-0.03286c-0.04485,-0.10435 -0.04044,-0.20779 -0.04044,-0.31937c0,-0.19525 -0.04804,-0.36542 -0.07014,-0.54275c-0.05478,0.05675 -0.1059,0.12059 -0.1522,0.19584c-0.13278,0.21582 -0.2631,0.50986 -0.44015,0.68862c0,0 -0.01599,0.01599 -0.03198,0c-0.01599,-0.01599 0,-0.03198 0,-0.03198c0.17463,-0.17271 0.30388,-0.46947 0.43361,-0.68033c0.05553,-0.09026 0.11774,-0.16406 0.18465,-0.22883c-0.00914,-0.10386 -0.00694,-0.21128 0.021,-0.32853c0.06407,-0.26117 0.02057,-0.67105 -0.10447,-0.90563c-0.22382,-0.11459 -0.38319,-0.4374 -0.47195,-0.6593c0,0 -0.0084,-0.021 0.0126,-0.0294c0.021,-0.0084 0.0294,0.0126 0.0294,0.0126c0.08913,0.22282 0.24187,0.5232 0.46154,0.64372c0.14194,0.24183 0.1821,0.67433 0.11685,0.94862c-0.02431,0.09927 -0.02938,0.19136 -0.02444,0.28023c0.14563,-0.13028 0.31067,-0.22668 0.47651,-0.36007c0.07169,-0.05682 0.25291,-0.11748 0.2935,-0.18882c0.06174,-0.1085 0.05675,-0.44373 0.05753,-0.5725c0.09363,-0.2858 0.16293,-0.65826 0.50503,-0.74013l0.01015,-0.00216c0,0 0.02212,-0.00471 0.02683,0.01742z" fill="#574e19" stroke="none" stroke-linecap="butt"/><path d="M308.59018,179.05766v-2.84963h2.87225v2.84963z" fill="none" stroke="#000000" stroke-linecap="butt"/><path d="M322.74825,176.60479l1.0262,0.6767l0.04067,0.3026l-0.844,1.10607z" fill="#631e09" stroke="#000000" stroke-linecap="round"/><path d="M325.66611,178.5759l-1.07347,-0.8851l-0.02923,-0.30391l0.86476,-0.81458z" data-paper-data="{&quot;index&quot;:null}" fill="#631e09" stroke="#000000" stroke-linecap="round"/><path d="M323.36841,179.0066l0.74202,-0.97026l0.3043,-0.02489l0.91458,0.98938z" data-paper-data="{&quot;index&quot;:null}" fill="#631e09" stroke="#000000" stroke-linecap="round"/><path d="M308.34139,183.35472v-3.77689h3.64119v3.77689z" fill="#2c3034" stroke="none" stroke-linecap="butt"/><path d="M321.97891,183.35472l0.61064,-3.77689h3.57335l-0.54279,3.77689z" fill="#2c3034" stroke="none" stroke-linecap="butt"/><path d="M313.54311,183.01548v-1.2665h3.70904v1.2665z" fill="#171818" stroke="#000000" stroke-linecap="butt"/><path d="M313.54311,181.7716l-0.02262,-2.94009h3.48288l0.23747,2.94009z" fill="#505c5c" stroke="none" stroke-linecap="butt"/><path d="M313.56572,179.3969v-0.45232h3.3698l0.02262,0.45232z" fill="#288c91" stroke="#000000" stroke-linecap="butt"/><path d="M312.85332,174.31582h7.84025l0.99511,1.32681l3.92013,-0.03016l0.6031,3.34718l-0.03015,0.78403l-0.6031,3.61858h-17.2184v-7.71963h3.64873z" fill="none" stroke="#000000" stroke-linecap="round"/><path d="M345.17928,179.29136l-0.09046,0.51263h-4.34229l-0.90464,2.2013h-6.39282l-1.29666,-0.18093l-0.6031,-0.6031l-0.30155,-1.44743h-5.03586v-0.75387h5.12632l0.18093,-1.11573l0.75387,-0.75387h0.81418v-2.62347h-12.12224v0.9348l-0.15077,0.21108v0.72372h-0.27139v-1.92991l0.09046,-0.16585h-0.40709l0.19601,-0.19601h0.36186l0.27139,-0.27139h12.27301l0.39201,0.51263l-0.24124,2.77424h6.48329l0.66341,1.89975h4.34229z" fill="url(#color-3)" stroke="#000000" stroke-linecap="round"/></g></g></svg>