<svg version="1.1" xmlns="http://www.w3.org/2000/svg" xmlns:xlink="http://www.w3.org/1999/xlink" width="5.87168" height="7.21928" viewBox="0,0,5.87168,7.21928"><defs><radialGradient cx="320.4537" cy="180.39304" r="2.84653" gradientUnits="userSpaceOnUse" id="color-1"><stop offset="0" stop-color="#800000"/><stop offset="1" stop-color="#bf3030"/></radialGradient><linearGradient x1="319.49363" y1="179.25537" x2="321.88007" y2="179.25537" gradientUnits="userSpaceOnUse" id="color-2"><stop offset="0" stop-color="#b32d2d"/><stop offset="1" stop-color="#b37c7c"/></linearGradient><linearGradient x1="320.13485" y1="181.24532" x2="322.63416" y2="181.24532" gradientUnits="userSpaceOnUse" id="color-3"><stop offset="0" stop-color="#b32d2d"/><stop offset="1" stop-color="#b37c7c"/></linearGradient></defs><g transform="translate(-317.06416,-176.39036)"><g data-paper-data="{&quot;isPaintingLayer&quot;:true}" fill-rule="nonzero" stroke="none" stroke-linecap="butt" stroke-linejoin="miter" stroke-miterlimit="10" stroke-dasharray="" stroke-dashoffset="0" style="mix-blend-mode: normal"><path d="M318.54569,177.0399c0,-0.08918 0.07229,-0.16147 0.16147,-0.16147c0.00353,0 0.00703,0.00011 0.0105,0.00034c0.01808,-0.08271 0.02308,-0.14435 0.00655,-0.17033l-0.04375,-0.06338c0,0 -0.08957,-0.13435 0.04478,-0.22391c0.13435,-0.08957 0.22391,0.04478 0.22391,0.04478l0.06389,0.09809c0.14788,0.3375 -0.21279,0.94525 -0.28117,1.36358c0,0 -0.02655,0.15927 -0.18582,0.13273c-0.15927,-0.02655 -0.13273,-0.18582 -0.13273,-0.18582c0.02363,-0.13864 0.13269,-0.43265 0.2172,-0.69245c-0.05052,-0.02729 -0.08484,-0.08072 -0.08484,-0.14216z" fill="#800000" stroke-width="0.5"/><path d="M317.06558,176.93225c0,-0.16147 0.16147,-0.16147 0.16147,-0.16147l0.20677,0.01705c0.43697,0.21901 0.51165,0.34666 0.54639,0.83337c0,0 0.01074,0.16111 -0.15037,0.17185c-0.16111,0.01074 -0.17185,-0.15037 -0.17185,-0.15037c-0.02418,-0.39487 -0.02778,-0.39605 -0.36859,-0.56601l-0.06235,0.01704c0,0 -0.16147,0 -0.16147,-0.16147z" fill="#800000" stroke-width="0.5"/><g><path d="M319.46954,177.70363c0.00326,-0.00977 0.00693,-0.0187 0.01095,-0.02687c-0.41668,-0.09477 -0.8903,0.28546 -1.33758,0.34991c-0.25037,0.03608 -0.70988,-0.42897 -0.73782,-0.17756c-0.03475,0.31279 0.03048,0.69654 0.03048,1.02118c-0.05108,1.64439 0.85772,3.89037 2.44788,4.42042c2.81795,-0.02811 1.00118,-2.69216 0.64471,-4.12954c-0.19025,-0.37949 -0.31642,-1.05478 -0.78035,-1.19457l-0.17615,-0.05872c0,0 -0.15318,-0.05106 -0.10212,-0.20424zM319.82523,177.652l0.02469,0.00823c0.59651,0.21177 0.72799,0.88135 0.98111,1.3889c0.42196,1.6749 2.21794,4.58607 -0.99932,4.56035c-1.83144,-0.61048 -2.68142,-2.88007 -2.71908,-4.73918c0,-0.26561 -0.12717,-0.99753 0.03048,-1.21c0.27199,-0.3666 0.61783,0.09784 0.90622,0.05731c0.77818,-0.10937 0.73734,-0.76516 1.70431,-0.28346c0,0 0.14442,0.07221 0.07221,0.21663c-0.00021,0.00041 -0.00042,0.00083 -0.00063,0.00124z" fill="#000000" stroke-width="0.5"/><path d="M319.47019,177.67135c-0.05106,0.15318 0.10346,0.2043 0.10346,0.2043l0.17843,0.05894c0.46393,0.1398 0.60672,0.82245 0.79697,1.20195c0.35646,1.43738 2.15768,4.15793 -0.66028,4.18604c-1.59016,-0.53005 -2.52935,-2.82824 -2.47827,-4.47263c0,-0.32464 -0.05978,-0.7137 -0.02502,-1.02648c0.02793,-0.25142 0.49219,0.21062 0.74256,0.17455c0.44728,-0.06444 0.93653,-0.44829 1.35322,-0.35353c-0.00402,0.00817 -0.00911,0.08168 -0.01236,0.09145z" data-paper-data="{&quot;noHover&quot;:false,&quot;origItem&quot;:[&quot;Path&quot;,{&quot;applyMatrix&quot;:true,&quot;segments&quot;:[[[639.07111,348.02371],[0,0],[0.01008,-0.03024]],[[639.10501,347.94049],[-0.01244,0.0253],[-1.2903,-0.29346]],[[634.96307,349.02401],[1.38504,-0.19956],[-0.7753,0.11172]],[[632.67835,348.47419],[0.0865,-0.77854],[-0.10762,0.96858]],[[632.77273,351.63639],[0,-1.00528],[-0.15818,5.09202]],[[640.35283,365.32467],[-4.92408,-1.64136],[8.72608,-0.08704]],[[642.34925,352.53713],[1.10382,4.451],[-0.58912,-1.17514]],[[639.93281,348.83801],[1.4366,0.4329],[0,0]],[639.38735,348.65619],[[639.07111,348.02373],[-0.1581,0.47434],[0,0]]],&quot;closed&quot;:true,&quot;fillColor&quot;:[0,0,0,1],&quot;strokeWidth&quot;:0.5}]}" fill="url(#color-1)" stroke-width="0.25"/></g><g stroke-width="0.5"><path d="M320.67408,178.82016c-0.04706,0.05893 -0.12953,0.05893 -0.12953,0.05893c-0.4956,0 -1.21413,-0.01449 -0.97323,0.7605c0.04291,0.13805 1.55619,0.02799 1.74418,0.04044c1.07552,-0.83283 0.4018,-0.86021 -0.64143,-0.85987zM320.21146,178.61514c0.02616,-0.1177 0.15695,-0.1177 0.15695,-0.1177h0.05872c0.50924,0 2.60221,-0.05071 1.8401,1.06837c-0.1459,0.21423 -0.63548,0.2646 -0.8496,0.42058c-0.50756,0.01851 -1.3824,0.17606 -1.85932,0.00136c-1.02078,-0.37393 -0.0591,-1.15268 0.65315,-1.37261z" fill="#000000"/><path d="M321.34238,179.69794c-0.18799,-0.01245 -1.75878,0.08994 -1.80169,-0.0481c-0.2409,-0.775 0.49672,-0.8009 0.99231,-0.8009c0,0 0.09269,-0.00211 0.13975,-0.06104c1.04323,-0.00034 1.74515,0.07721 0.66963,0.91004z" data-paper-data="{&quot;noHover&quot;:false,&quot;origItem&quot;:[&quot;Path&quot;,{&quot;applyMatrix&quot;:true,&quot;segments&quot;:[[[653.4011,348.68115],[3.23046,-0.00106],[-0.14574,0.18249]],[[653.00001,348.86364],[0,0],[-1.53465,0]],[[649.9863,351.21862],[-0.74597,-2.39986],[0.13287,0.42747]],[[655.38735,351.34384],[-0.58214,-0.03856],[3.33045,-2.57893]]],&quot;closed&quot;:true}]}" fill="url(#color-2)"/></g><g stroke-width="0.5"><path d="M321.38519,180.78136c-0.01822,0.13222 -0.15954,0.13222 -0.15954,0.13222c-0.36701,-0.00078 -1.67436,0.53657 -0.7262,0.79698c0.52707,0.14476 1.27874,-0.04309 1.77482,-0.2028c0.91035,-0.79866 -0.26109,-0.82458 -0.88908,-0.7264zM320.95912,180.62263c0.03103,-0.06192 0.10178,-0.08361 0.10178,-0.08361l0.2202,-0.06713c0.99265,-0.16486 2.42594,0.23262 1.15268,1.31666c-0.59844,0.2049 -1.71498,0.49023 -2.3007,0.09271c-0.88938,-0.60358 0.17676,-1.12675 0.82603,-1.25864z" fill="#000000"/><path d="M322.30531,181.51669c-0.49608,0.15972 -1.30746,0.35348 -1.83453,0.20873c-0.94816,-0.26041 0.37412,-0.84183 0.74113,-0.84106c0,0 0.1551,-0.00307 0.17332,-0.13529c0.62799,-0.09819 1.83043,-0.03105 0.92008,0.76762z" data-paper-data="{&quot;noHover&quot;:false,&quot;origItem&quot;:[&quot;Path&quot;,{&quot;applyMatrix&quot;:true,&quot;segments&quot;:[[[654.40314,354.45421],[1.94462,-0.30403],[-0.05641,0.40943]],[[653.9091,354.86364],[0,0],[-1.13647,-0.0024]],[[651.66034,357.33156],[-2.93607,-0.80639],[1.63211,0.44826]],[[657.15627,356.70357],[-1.53616,0.49457],[2.81897,-2.47315]]],&quot;closed&quot;:true}]}" fill="url(#color-3)"/></g></g></g></svg>