<svg version="1.1" xmlns="http://www.w3.org/2000/svg" xmlns:xlink="http://www.w3.org/1999/xlink" width="695.17417" height="495.69549" viewBox="0,0,695.17417,495.69549"><g transform="translate(29.09159,48.6875)"><g data-paper-data="{&quot;isPaintingLayer&quot;:true}" fill="#000000" fill-rule="nonzero" stroke-linecap="butt" stroke-linejoin="miter" stroke-miterlimit="10" stroke-dasharray="" stroke-dashoffset="0" style="mix-blend-mode: normal"><path d="M-28.09159,392.3125v-440h693.17417v440z" stroke="#000000" stroke-width="2"/><path d="M26.95796,440.04917c-0.00019,-1 0.99981,-1.00019 0.99981,-1.00019l1.64392,-0.00031c3.93605,-0.00073 7.87182,-0.02466 11.80775,-0.03239c1.7699,-0.71684 3.55357,-1.39871 5.32412,-2.11351c0.40543,-0.16368 1.03232,-0.10896 1.20893,-0.50893c0.39004,-0.88334 -1.10854,-1.59384 -1.79149,-2.27647c-2.2308,-2.22978 -5.42725,-4.66 -7.12491,-7.30899c-3.89172,-6.07251 -3.81358,-14.22279 -1.09225,-20.60649c7.89269,-0.56532 17.09556,-1.07833 24.70034,1.11104c4.28166,1.23266 8.24423,3.82946 8.36582,8.71202c0,0 0,1 -1,1c-1,0 -1,-1 -1,-1c0.13678,-3.91211 -3.67051,-5.85482 -6.91913,-6.79008c-7.51317,-2.16299 -15.31222,-0.39359 -22.9855,-1.40483c-1.21364,5.9739 -1.91393,12.3934 1.61459,17.8992c1.62958,2.54275 4.74905,4.81073 6.86501,6.98374c1.02287,1.05045 2.8976,2.46037 2.24456,4.37133c-0.66183,1.93668 -6.31954,3.23662 -8.0257,3.89468c-4.06384,0.0759 -8.12733,0.06892 -12.19176,0.06968l-1.64392,0.00031c0,0 -1,0.00019 -1.00019,-0.99981z" stroke="none" stroke-width="0.5"/><path d="M122.55341,442.55049c-1,0.00086 -1.00086,-0.99914 -1.00086,-0.99914l-0.00122,-1.41683c-0.00471,-5.49905 -0.64637,-10.22316 -1.83208,-15.58205c-0.1807,-0.81669 -1.06355,-4.06755 -1.86236,-4.46609c-0.77356,-0.38594 -0.30935,1.70134 -0.48865,2.54703c-0.14973,0.70619 -0.52514,1.34488 -0.78771,2.01732c-1.00869,2.50277 -0.45168,5.43072 -1.46363,7.8338c-0.07041,0.16721 -2.44496,3.10129 -2.64944,3.35551c-2.09268,2.6017 -4.19163,5.19562 -6.32211,7.76648c-0.31076,0.37499 -2.64245,3.23225 -2.91127,3.35344c-0.26881,0.1212 -3.95389,-0.02335 -4.44067,-0.03877c-4.49151,-0.14228 -8.00484,-1.48914 -12.14877,-3.18779c-4.06856,-8.64236 0.52459,-17.96738 3.74271,-25.96974c1.22329,-3.04188 1.874,-6.31869 2.66652,-9.48875c0,0 0.24254,-0.97014 1.21268,-0.72761c0.97014,0.24254 0.72761,1.21268 0.72761,1.21268c-0.81511,3.26046 -1.4931,6.62137 -2.75123,9.74989c-1.43034,3.55675 -3.87601,7.04284 -4.61168,10.85815c-0.34457,1.78699 -0.09194,3.99597 -0.09991,5.81356c-0.01038,2.36583 -0.39616,4.88225 0.48298,7.09442c3.81962,1.21436 6.80651,2.51835 10.84242,2.64619c1.18667,0.03759 2.47298,0.70249 3.55532,0.21451c1.04001,-0.46889 2.71736,-3.43867 3.4695,-4.34628c2.16056,-2.60713 6.08831,-5.98595 7.3921,-9.08209c0.98183,-2.33157 0.47324,-5.31717 1.44853,-7.79693c0.50332,-1.2379 0.12763,-2.79664 0.85722,-3.9162c2.4755,-3.79869 4.48481,-0.528 5.58912,1.98332c2.40487,5.46891 2.37778,12.32394 2.3828,18.15427l0.00122,1.41683c0,0 0.00086,1 -0.99914,1.00086z" stroke="none" stroke-width="0.5"/><path d="M142.57387,443.07618c-0.02419,-0.99971 0.97551,-1.0239 0.97551,-1.0239l0.22718,-0.0055c2.88558,-0.06984 8.40266,0.53697 9.33251,-3.40328c0.15287,-0.6478 -0.2147,-3.06687 -0.28277,-3.61089c-0.32781,-2.78246 -1.82461,-6.47065 -3.41265,-8.82255c-1.56092,-2.31173 -6.36289,-5.07058 -6.41796,-8.2018c-0.09942,-5.65241 7.2687,-2.172 9.70171,-1.11011c0.89143,0.38907 3.42064,0.50734 4.11638,1.05873c0.6335,0.50208 0.77849,1.4169 1.16773,2.12535c0,0 0.44721,0.89443 -0.44721,1.34164c-0.89443,0.44721 -1.34164,-0.44721 -1.34164,-0.44721c-1.02912,-2.40635 -2.01519,-1.27047 -4.28819,-2.24242c-1.12721,-0.482 -2.20435,-1.16793 -3.41381,-1.36828c-0.44726,-0.07409 -4.04364,-1.41148 -3.50536,0.43851c0.86158,2.96114 4.44262,4.85268 6.0859,7.28638c1.77287,2.62562 3.33896,6.60461 3.73986,9.69521c0.12588,1.02044 0.50552,3.36877 0.23422,4.35854c-1.3869,5.05976 -7.16887,4.80352 -11.22033,4.90158l-0.22718,0.0055c0,0 -0.99971,0.02419 -1.0239,-0.97551z" stroke="none" stroke-width="0.5"/></g></g></svg>