<svg version="1.1" xmlns="http://www.w3.org/2000/svg" xmlns:xlink="http://www.w3.org/1999/xlink" width="23.23403" height="12.71759" viewBox="0,0,23.23403,12.71759"><g transform="translate(-308.84931,-173.67754)"><g data-paper-data="{&quot;isPaintingLayer&quot;:true}" fill-rule="nonzero" stroke="none" stroke-linecap="butt" stroke-linejoin="miter" stroke-miterlimit="10" stroke-dasharray="" stroke-dashoffset="0" style="mix-blend-mode: normal"><path d="M327.23053,184.17955c0.58864,0.0104 1.99897,0.32392 2.35792,0.78687c0.50556,0.18058 0.54824,0.8473 0.99051,1.08366c0.57382,0.30667 1.15089,-0.13578 0.89014,-0.70398c-0.05236,-0.11409 -0.2682,-0.23703 -0.4582,-0.34572l-0.02479,0.04958l-0.18358,-0.09179c-0.03928,-0.01862 -0.06645,-0.05864 -0.06645,-0.10501c0,-0.06414 0.052,-0.11614 0.11614,-0.11614h0.18217c0.47304,-0.03235 0.6189,-0.68393 0.74697,-0.89393v-0.06618l-0.02003,-0.0267c-0.4508,0.03384 -0.487,0.17055 -0.86088,0.38112c-0.76656,0.72256 -2.79122,-0.83789 -3.77553,-0.92373c0.0983,0.33568 0.1285,0.67309 0.04004,0.97195zM329.64674,183.80869c0.35493,0.09879 0.83244,0.44073 1.1141,0.137c0.45343,-0.24478 0.5389,-0.42903 1.11893,-0.4043l0.0256,0.04572l0.01537,-0.01153l0.13867,0.18489c0.01501,0.01957 0.02393,0.04406 0.02393,0.07062c0,0.06414 -0.052,0.11614 -0.11614,0.11614h-0.01414c-0.18893,0.19387 -0.23825,0.75904 -0.68202,0.95913c0.43354,0.19037 0.7808,0.9588 0.38556,1.25346c-1.10981,0.82737 -1.51027,-0.77499 -2.20523,-1.00591c-0.30633,-0.42961 -1.68806,-0.73352 -2.22476,-0.74213l-0.15991,0.00001c-0.00851,0.01501 -0.01742,0.02988 -0.02673,0.04459c-0.30113,0.47592 -1.1668,0.74411 -1.64443,0.97469c-1.49617,-0.01594 -3.24091,-0.91296 -4.705,-1.31339c-1.55218,-0.42453 -3.12784,-0.95904 -4.65192,-1.48101c-1.58001,-0.54137 -2.75605,-1.63838 -4.06073,-2.65347c-0.49156,-0.38245 -1.0612,-1.01729 -1.62659,-1.26963c-0.35568,-0.15874 -1.04377,-0.17942 -1.32329,-0.46832c-0.31631,-0.32692 -0.18294,-1.2319 0.16756,-1.37913c0.16994,-0.09807 1.06097,-0.53052 1.10348,-0.68451c0.08168,-0.29588 -0.24378,-1.13943 -0.18894,-1.4711c0.04408,-0.26653 0.61749,-0.5083 0.89373,-0.67493c-0.00524,-0.0067 -0.01044,-0.01345 -0.01559,-0.02024l-0.11239,-0.14908c0,0 -0.06992,-0.09274 0.02282,-0.16266c0.09274,-0.06992 0.16266,0.02282 0.16266,0.02282l0.11239,0.14908c0.47044,0.6284 1.39489,0.86975 2.08936,1.21711c1.44602,0.72326 2.85859,1.54429 4.3439,2.17788c1.48537,0.63361 3.06331,1.16287 4.50782,1.87404c1.50785,0.74362 3.11399,1.00859 4.09016,2.47781c0.2853,0.30956 0.63516,0.81497 0.84,1.34929c0.87179,0.0027 1.75616,0.60167 2.60177,0.83704zM311.15841,174.2096c-0.21754,0.12824 -0.81947,0.4418 -0.81796,0.53089c0.00362,0.21324 0.25491,1.26866 0.18272,1.50216c-0.08528,0.27584 -0.98468,0.69385 -1.23215,0.83527c-0.21101,0.0448 -0.29575,0.81348 -0.0984,1.00349c0.26512,0.25525 0.92334,0.26871 1.25453,0.42061c0.58719,0.26932 1.16188,0.89992 1.67338,1.29788c1.28301,0.99823 2.44036,2.08492 3.99338,2.61705c1.51934,0.52083 3.09039,1.05345 4.63791,1.4767c1.4455,0.39535 3.11941,1.24485 4.59322,1.31072c0.41786,-0.2178 1.23271,-0.45187 1.49864,-0.87216c0.48134,-0.76074 -0.33457,-2.03476 -0.82143,-2.56641c-0.95666,-1.43052 -2.53371,-1.68477 -4.01018,-2.41291c-1.43902,-0.71097 -3.01532,-1.237 -4.49622,-1.8687c-1.4897,-0.63545 -2.90641,-1.45841 -4.35667,-2.18379c-0.65904,-0.32964 -1.47582,-0.56739 -2.00076,-1.09079z" fill="#000000" stroke-width="0.5"/><path d="M326.98742,184.17459c0.08846,-0.29886 0.06132,-0.64373 -0.03698,-0.97941c0.98432,0.08585 3.05034,1.65048 3.8169,0.92792c0.37388,-0.21057 0.40991,-0.34774 0.8607,-0.38157l0.02014,0.02698l0.0002,0.06673c-0.12807,0.21 -0.27259,0.87028 -0.74562,0.90263l-0.18217,0.00011c-0.06414,0 -0.11633,0.05416 -0.11633,0.1183c0,0.04636 0.0269,0.08796 0.06618,0.10659l0.13826,0.08162l0.07012,-0.03942c0.19,0.10869 0.40515,0.23424 0.4575,0.34833c0.26075,0.56819 -0.32363,1.02131 -0.89745,0.71463c-0.44227,-0.23636 -0.4898,-0.90002 -0.99536,-1.0806c-0.35895,-0.46295 -1.75651,-0.79239 -2.34515,-0.80279z" data-paper-data="{&quot;noHover&quot;:false,&quot;origItem&quot;:[&quot;Path&quot;,{&quot;applyMatrix&quot;:true,&quot;selected&quot;:true,&quot;segments&quot;:[[[327.23053,184.17955],[0,0],[0.58864,0.0104],7],[[329.58845,184.96641],[-0.35895,-0.46295],[0.50556,0.18058],7],[[330.57896,186.05008],[-0.44227,-0.23636],[0.57382,0.30667],7],[[331.4691,185.3461],[0.26075,0.56819],[-0.05236,-0.11409],7],[[331.0109,185.00037],[0.19,0.10869],[0,0],7],[[330.98611,185.04995],[0,0],[0,0],7],[[330.80253,184.95816],[0,0],[-0.03928,-0.01862],7],[[330.73608,184.85316],[0,0.04636],[0,-0.06414],7],[[330.85222,184.73701],[-0.06414,0],[0,0],7],[[331.03439,184.73701],[0,0],[0.47304,-0.03235],7],[[331.78137,183.84309],[-0.12807,0.21],[0,0],7],[[331.78137,183.7769],[0,0],[0,0],7],[[331.76134,183.7502],[0,0],[-0.4508,0.03384],7],[[330.90046,184.13132],[0.37388,-0.21057],[-0.76656,0.72256],7],[[327.12493,183.20759],[0.98432,0.08585],[0.0983,0.33568],7],[[327.16497,184.17954],[0.08846,-0.29886],[0,0],7]],&quot;closed&quot;:true,&quot;fillColor&quot;:[0,0,0],&quot;strokeWidth&quot;:0.5}]}" fill="#805050" stroke-width="0.25"/><path d="M311.14027,174.19509c0.52494,0.52341 1.34263,0.76009 2.00167,1.08972c1.45026,0.72538 2.87892,1.54129 4.36862,2.17675c1.4809,0.6317 3.08562,1.1783 4.52465,1.88926c1.47647,0.72815 3.05287,0.99025 4.00954,2.42077c0.48687,0.53165 1.30085,1.81068 0.8195,2.57142c-0.26593,0.42029 -1.08278,0.65753 -1.50064,0.87532c-1.47381,-0.06587 -3.15365,-0.90984 -4.59914,-1.30519c-1.54752,-0.42326 -3.14465,-0.95642 -4.66399,-1.47724c-1.55302,-0.53213 -2.72016,-1.63741 -4.00317,-2.63564c-0.5115,-0.39797 -1.08591,-1.03257 -1.6731,-1.30189c-0.33118,-0.1519 -0.98931,-0.16592 -1.25443,-0.42117c-0.19735,-0.19 -0.11201,-0.96118 0.099,-1.00598c0.24748,-0.14142 1.14803,-0.56247 1.2333,-0.83831c0.07219,-0.23349 -0.17752,-1.29178 -0.18114,-1.50503c-0.00151,-0.08909 0.60178,-0.40457 0.81933,-0.5328z" data-paper-data="{&quot;noHover&quot;:false,&quot;origItem&quot;:[&quot;Path&quot;,{&quot;applyMatrix&quot;:true,&quot;selected&quot;:true,&quot;segments&quot;:[[[311.15841,174.2096],[0,0],[-0.21754,0.12824],7],[[310.34046,174.74049],[-0.00151,-0.08909],[0.00362,0.21324],7],[[310.52318,176.24265],[0.07219,-0.23349],[-0.08528,0.27584],7],[[309.29102,177.07791],[0.24748,-0.14142],[-0.21101,0.0448],7],[[309.19262,178.0814],[-0.19735,-0.19],[0.26512,0.25525],7],[[310.44715,178.50201],[-0.33118,-0.1519],[0.58719,0.26932],7],[[312.12053,179.79989],[-0.5115,-0.39797],[1.28301,0.99823],7],[[316.11391,182.41695],[-1.55302,-0.53213],[1.51934,0.52083],7],[[320.75182,183.89365],[-1.54752,-0.42326],[1.4455,0.39535],7],[[325.34504,185.20437],[-1.47381,-0.06587],[0.41786,-0.2178],7],[[326.84367,184.3322],[-0.26593,0.42029],[0.48134,-0.76074],7],[[326.02224,181.76579],[0.48687,0.53165],[-0.95666,-1.43052],7],[[322.01206,179.35288],[1.47647,0.72815],[-1.43902,-0.71097],7],[[317.51584,177.48417],[1.4809,0.6317],[-1.4897,-0.63545],7],[[313.15917,175.30038],[1.45026,0.72538],[-0.65904,-0.32964],7],[[311.15841,174.20959],[0.52494,0.52341],[0,0],7]],&quot;closed&quot;:true,&quot;fillColor&quot;:[0,0,0],&quot;strokeWidth&quot;:0.5}]}" fill="#800000" stroke-width="0.25"/><path d="M328.59085,184.28489c-0.08213,0.08213 -0.16425,0 -0.16425,0l-0.00622,-0.02356c-0.43387,-0.14462 -0.7971,-0.1489 -1.25375,-0.1489c0,0 -0.11614,0 -0.11614,-0.11614c0,-0.11614 0.11614,-0.11614 0.11614,-0.11614c0.47973,0 0.86991,0.00839 1.3272,0.16082l0.09702,0.07968c0,0 0.08213,0.08213 0,0.16425z" fill="#800000" stroke-width="0.5"/><path d="M331.05096,184.25438c0,0.11614 -0.11614,0.11614 -0.11614,0.11614l-0.01489,-0.00596c-0.59444,0.19815 -0.7602,0.36596 -1.43044,0.36729c0,0 -0.11614,0 -0.11614,-0.11614c0,-0.11614 0.11614,-0.11614 0.11614,-0.11614c0.68213,0.00122 0.73962,-0.14959 1.35699,-0.35537l0.08835,-0.00596c0,0 0.11614,0 0.11614,0.11614z" fill="#800000" stroke-width="0.5"/><path d="M330.7806,185.5968c-0.05194,0.10388 -0.15582,0.05194 -0.15582,0.05194l-0.20648,-0.10324c0,0 -0.10388,-0.05194 -0.05194,-0.15582c0.05194,-0.10388 0.15582,-0.05194 0.15582,-0.05194l0.20648,0.10324c0,0 0.10388,0.05194 0.05194,0.15582z" fill="#800000" stroke-width="0.5"/></g></g></svg>