<svg version="1.1" xmlns="http://www.w3.org/2000/svg" xmlns:xlink="http://www.w3.org/1999/xlink" width="23.35023" height="45.50538" viewBox="0,0,23.35023,45.50538"><g transform="translate(-310.31061,-156.29862)"><g data-paper-data="{&quot;isPaintingLayer&quot;:true}" fill-rule="nonzero" stroke="#000000" stroke-linejoin="miter" stroke-miterlimit="10" stroke-dasharray="" stroke-dashoffset="0" style="mix-blend-mode: normal"><path d="M328.51267,156.60992c3.22831,0.42113 3.50927,2.05443 4.85543,6.37591c0.5453,1.75053 -4.29082,-4.05734 -5.16667,-3.99882c-1.06113,0.08434 -3.03062,-1.23203 -3.89252,3.40196c-0.89411,4.80718 -5.14858,29.14718 -6.38087,36.40768c-0.6203,3.65475 -6.79121,2.623 -6.79121,2.623c0,0 3.16561,-1.50209 4.25269,-2.62342c0.61285,-0.63217 6.5857,-37.00418 6.5857,-37.00418c0,0 0.9979,-5.90476 6.53745,-5.18213z" fill="#4d4d4d" stroke-width="0.5" stroke-linecap="round"/><path d="M316.14725,196.81919l6.0399,-34.81409l1.89453,0.31555l-6.08686,34.80626z" fill="#7a3838" stroke-width="0" stroke-linecap="butt"/></g></g></svg>