<svg version="1.1" xmlns="http://www.w3.org/2000/svg" xmlns:xlink="http://www.w3.org/1999/xlink" width="81" height="20.5" viewBox="0,0,81,20.5"><g transform="translate(-283.83334,-169.75)"><g data-paper-data="{&quot;isPaintingLayer&quot;:true}" fill-rule="nonzero" stroke-linejoin="miter" stroke-miterlimit="10" stroke-dasharray="" stroke-dashoffset="0" style="mix-blend-mode: normal"><path d="M284.08335,190v-20h80.5v20z" fill="#151515" stroke="#000000" stroke-width="0.5" stroke-linecap="butt"/><g fill="none" stroke="#ffffff" stroke-linecap="round"><path d="M349.61068,181.25952l-5.6053,0.28598l0.68637,-1.14394l-0.52449,-3.12821l1.32155,0.00301l0.28968,2.95361l3.7178,-0.17159z" data-paper-data="{&quot;index&quot;:null}" stroke-width="0.5"/><path d="M348.94851,178.68153l-1.31992,1.27594l0.74795,-2.24389" data-paper-data="{&quot;index&quot;:null}" stroke-width="0.25"/><path d="M358.9297,172.31995l0.24512,4.49404l-2.28788,2.04275l2.69642,7.35389l-0.98052,2.04276l-6.70022,-0.16343l-1.96104,-2.45129l-0.32684,-5.88311l-1.22564,-2.53302h-13.9724v-4.73917z" data-paper-data="{&quot;index&quot;:null}" stroke-width="0.5"/><path d="M353.21409,187.09362h4.51856" data-paper-data="{&quot;index&quot;:null}" stroke-width="0.5"/><path d="M354.27073,172.56558l-2.09071,1.39475h-9.69337v-1.32455" data-paper-data="{&quot;index&quot;:null}" stroke-width="0.5"/><path d="M334.84031,175.70634h24.08293" data-paper-data="{&quot;index&quot;:null}" stroke-width="0.5"/><path d="M350.40043,177.09763h6.46765" data-paper-data="{&quot;index&quot;:null}" stroke-width="0.5"/></g></g></g></svg>