<svg version="1.1" xmlns="http://www.w3.org/2000/svg" xmlns:xlink="http://www.w3.org/1999/xlink" width="68.19957" height="98.5" viewBox="0,0,68.19957,98.5"><g transform="translate(-286.19001,-128.51875)"><g data-paper-data="{&quot;isPaintingLayer&quot;:true}" fill-rule="nonzero" stroke-linejoin="miter" stroke-miterlimit="10" stroke-dasharray="" stroke-dashoffset="0" style="mix-blend-mode: normal"><text transform="translate(292.48001,150.26875) scale(0.5,0.5)" font-size="40" xml:space="preserve" fill-opacity="0.50196" fill="#ffffff" fill-rule="nonzero" stroke="none" stroke-width="1" stroke-linecap="butt" stroke-linejoin="miter" stroke-miterlimit="10" stroke-dasharray="" stroke-dashoffset="0" font-family="Sans Serif" font-weight="normal" text-anchor="start" style="mix-blend-mode: normal"><tspan x="0" dy="0">Entity</tspan></text><g stroke-opacity="0.25098" stroke="#ffffff" stroke-width="2" stroke-linecap="round"><path d="M322.22485,152.16401c0,0 22.99528,10.91313 23,11.5c0.00582,0.72352 -27.5,11.5 -27.5,11.5c0,0 -22.78152,-12.26903 -23.16667,-12.83333c-0.17749,-0.26006 27.66667,-10.16667 27.66667,-10.16667z" fill-opacity="0.25098" fill="#52f77b"/><path d="M317.72484,175.33068c0,0 0.55019,32.40069 -0.16667,32.33333c-0.36428,-0.03423 -23.5,-15 -23.5,-15c0,0 0.31617,-29.35913 0.16667,-30c-0.11238,-0.48171 23.5,12.66667 23.5,12.66667z" fill-opacity="0.25098" fill="#287a39"/><path d="M345.55818,164.16401c1.2115,-0.65581 -0.83333,30 -0.83333,30c0,0 -26.38803,13.36591 -26.66667,13.66667c-0.45203,0.48793 0,-32.83333 0,-32.83333c0,0 26.83372,-10.47266 27.5,-10.83333z" fill-opacity="0.25098" fill="#287a39"/></g><text transform="translate(286.44002,220.76875) scale(0.5,0.5)" font-size="40" xml:space="preserve" fill-opacity="0.50196" fill="#ffffff" fill-rule="nonzero" stroke="none" stroke-width="1" stroke-linecap="butt" stroke-linejoin="miter" stroke-miterlimit="10" stroke-dasharray="" stroke-dashoffset="0" font-family="Sans Serif" font-weight="normal" text-anchor="start" style="mix-blend-mode: normal"><tspan x="0" dy="0">Master</tspan></text><g><path d="M350.97531,167.99656c3.02943,1.19244 2.90537,2.84508 3.16187,7.3641c0.1039,1.83055 -3.17717,-4.97783 -4.04101,-5.13374c-1.04985,-0.17586 -2.64074,-1.93107 -4.6021,2.35493c-2.03466,4.44618 -12.0722,27.02458 -15.03065,33.76854c-1.48921,3.39473 -7.22488,0.8954 -7.22488,0.8954c0,0 3.43561,-0.68844 4.76244,-1.51223c0.74802,-0.46444 15.37419,-34.29745 15.37419,-34.29745c0,0 2.40186,-5.48571 7.60014,-3.43956z" fill-opacity="0.25098" fill="#4d4d4d" stroke-opacity="0.25098" stroke="#ffffff" stroke-width="0.5" stroke-linecap="round"/><path d="M329.2161,203.99969l14.31292,-32.30544l1.7612,0.76614l-14.35657,32.28644z" fill-opacity="0.50196" fill="#7a3838" stroke="#000000" stroke-width="0" stroke-linecap="butt"/></g><path d="M323.18819,184.90611c-1.04006,-0.69338 -0.34669,-1.73344 -0.34669,-1.73344l0.79755,-1.1915c3.93814,-4.50073 4.11231,-7.87775 1.04565,-12.972c0,0 -0.64312,-1.07187 0.42875,-1.71499c1.07187,-0.64312 1.71499,0.42875 1.71499,0.42875c3.52129,5.88646 3.37634,10.54292 -1.20435,15.778l-0.70245,1.0585c0,0 -0.69338,1.04006 -1.73344,0.34669z" fill-opacity="0.50196" fill="#ffffff" stroke="none" stroke-width="0.5" stroke-linecap="butt"/><path d="M311.68819,185.03111c-1.04006,-0.69338 -0.34669,-1.73344 -0.34669,-1.73344l0.66717,-0.98081c1.36875,-4.21333 3.88852,-8.83686 0.55717,-12.62768c0,0 -0.82313,-0.94072 0.11759,-1.76385c0.94072,-0.82313 1.76385,0.11759 1.76385,0.11759c4.13606,4.74504 1.59433,10.1218 -0.19283,15.37232l-0.83283,1.26919c0,0 -0.69338,1.04006 -1.73344,0.34669z" fill-opacity="0.50196" fill="#ffffff" stroke="none" stroke-width="0.5" stroke-linecap="butt"/></g></g></svg>