<svg version="1.1" xmlns="http://www.w3.org/2000/svg" xmlns:xlink="http://www.w3.org/1999/xlink" width="296.48296" height="189.86122" viewBox="0,0,296.48296,189.86122"><g transform="translate(-171.75852,-116.06939)"><g data-paper-data="{&quot;isPaintingLayer&quot;:true}" fill-rule="nonzero" stroke-linejoin="miter" stroke-miterlimit="10" stroke-dasharray="" stroke-dashoffset="0" style="mix-blend-mode: normal"><path d="M382.09891,202.87006l73.82186,-12.24239c0,0 33.6941,108.41927 -15.17599,114.00205c-58.93716,6.73281 -58.64586,-101.75966 -58.64586,-101.75966z" data-paper-data="{&quot;index&quot;:null}" fill="#1b1b1b" stroke="#ffffff" stroke-width="2" stroke-linecap="butt"/><path d="M196.98092,304.62972c-48.87009,-5.58278 -8.67599,-113.50205 -8.67599,-113.50205l71.32186,6.74239c0,0 -3.70871,113.49247 -62.64586,106.75966z" fill="#1b1b1b" stroke="#ffffff" stroke-width="2" stroke-linecap="butt"/><path d="M376.79327,216.31939h-122.25l-45.5,-76.75l3.75,-22.5h41l3.5,22.25h128.25l4.25,-22.25h39.25l5.5,21.75z" fill="#1b1b1b" stroke="#ffffff" stroke-width="2" stroke-linecap="round"/><path d="M249.04327,224.69439c0,-16.22336 13.15164,-29.375 29.375,-29.375c16.22337,0 29.375,13.15164 29.375,29.375c0,16.22337 -13.15163,29.375 -29.375,29.375c-16.22336,0 -29.375,-13.15163 -29.375,-29.375z" fill="#1b1b1b" stroke="#ffffff" stroke-width="2" stroke-linecap="butt"/><path d="M256.04327,224.52772c0,-12.26532 9.94301,-22.20833 22.20833,-22.20833c12.26533,0 22.20833,9.94301 22.20833,22.20833c0,12.26533 -9.94301,22.20833 -22.20833,22.20833c-12.26532,0 -22.20833,-9.94301 -22.20833,-22.20833z" fill="#1b1b1b" stroke="#ffffff" stroke-width="2" stroke-linecap="butt"/><path d="M335.29327,224.69439c0,-16.22336 13.15164,-29.375 29.375,-29.375c16.22337,0 29.375,13.15164 29.375,29.375c0,16.22337 -13.15163,29.375 -29.375,29.375c-16.22336,0 -29.375,-13.15163 -29.375,-29.375z" fill="#1b1b1b" stroke="#ffffff" stroke-width="2" stroke-linecap="butt"/><path d="M342.3766,224.52773c0,-12.26532 9.94302,-22.20834 22.20833,-22.20834c12.26533,0 22.20833,9.94302 22.20833,22.20834c0,12.26533 -9.943,22.20833 -22.20833,22.20833c-12.26532,0 -22.20833,-9.943 -22.20833,-22.20833z" fill="#1b1b1b" stroke="#ffffff" stroke-width="2" stroke-linecap="butt"/><path d="M364.04327,180.06939c0,-25.81931 20.93069,-46.75 46.75,-46.75c25.81931,0 46.75,20.93069 46.75,46.75c0,25.81931 -20.93069,46.75 -46.75,46.75c-25.81931,0 -46.75,-20.93069 -46.75,-46.75z" fill="#1b1b1b" stroke="#ffffff" stroke-width="2" stroke-linecap="butt"/><text transform="translate(285.0016,160.80515) scale(0.16493,0.16493)" font-size="40" xml:space="preserve" fill="#ffffff" fill-rule="nonzero" stroke="#ffffff" stroke-width="1" stroke-linecap="butt" stroke-linejoin="miter" stroke-miterlimit="10" stroke-dasharray="" stroke-dashoffset="0" font-family="&quot;Microsoft YaHei&quot;, &quot;微软雅黑&quot;, STXihei, &quot;华文细黑&quot;" font-weight="normal" text-anchor="start" style="mix-blend-mode: normal"><tspan x="0" dy="0">SELECT</tspan></text><text transform="translate(337.80161,160.80515) scale(0.16493,0.16493)" font-size="40" xml:space="preserve" fill="#ffffff" fill-rule="nonzero" stroke="#ffffff" stroke-width="1" stroke-linecap="butt" stroke-linejoin="miter" stroke-miterlimit="10" stroke-dasharray="" stroke-dashoffset="0" font-family="&quot;Microsoft YaHei&quot;, &quot;微软雅黑&quot;, STXihei, &quot;华文细黑&quot;" font-weight="normal" text-anchor="start" style="mix-blend-mode: normal"><tspan x="0" dy="0">START</tspan></text><path d="M186.29327,180.06939c0,-25.81931 20.93069,-46.75 46.75,-46.75c25.81931,0 46.75,20.93069 46.75,46.75c0,25.81931 -20.93069,46.75 -46.75,46.75c-25.81931,0 -46.75,-20.93069 -46.75,-46.75z" fill="#1b1b1b" stroke="#ffffff" stroke-width="2" stroke-linecap="butt"/><path d="M222.12661,166.31939v-18.41666h22.58333v18.91666h21.58334v26.5h-20.58334v19.08334h-23.83333v-19.83334h-20.5v-26h20.5" fill="none" stroke="#ffffff" stroke-width="2" stroke-linecap="round"/><text transform="translate(230.83494,129.15273) scale(0.26165,0.26165)" font-size="40" xml:space="preserve" fill="#ffffff" fill-rule="nonzero" stroke="none" stroke-width="1" stroke-linecap="butt" stroke-linejoin="miter" stroke-miterlimit="10" stroke-dasharray="" stroke-dashoffset="0" font-family="&quot;Microsoft YaHei&quot;, &quot;微软雅黑&quot;, STXihei, &quot;华文细黑&quot;" font-weight="normal" text-anchor="start" style="mix-blend-mode: normal"><tspan x="0" dy="0">L</tspan></text><text transform="translate(406.83494,129.15273) scale(0.26165,0.26165)" font-size="40" xml:space="preserve" fill="#ffffff" fill-rule="nonzero" stroke="none" stroke-width="1" stroke-linecap="butt" stroke-linejoin="miter" stroke-miterlimit="10" stroke-dasharray="" stroke-dashoffset="0" font-family="&quot;Microsoft YaHei&quot;, &quot;微软雅黑&quot;, STXihei, &quot;华文细黑&quot;" font-weight="normal" text-anchor="start" style="mix-blend-mode: normal"><tspan x="0" dy="0">R</tspan></text><path d="M240.38316,151.98441v18.64575l-6.72469,6.72468l-7.23415,-7.23413v-18.13631z" fill="none" stroke="#ffffff" stroke-width="2" stroke-linecap="round"/><path d="M262.42228,186.64905h-18.64574l-6.72469,-6.72469l7.23414,-7.23415h18.1363z" fill="none" stroke="#ffffff" stroke-width="2" stroke-linecap="round"/><path d="M226.92432,207.68818v-18.64575l6.72469,-6.72469l7.23415,7.23414v18.1363z" fill="none" stroke="#ffffff" stroke-width="2" stroke-linecap="round"/><path d="M204.96852,173.27354h18.64575l6.72469,6.72469l-7.23413,7.23415h-18.1363z" fill="none" stroke="#ffffff" stroke-width="2" stroke-linecap="round"/><path d="M398.62661,166.31939v-18.41666h22.58333v18.91666h21.58333v26.5h-20.58333v19.08334h-23.83333v-19.83334h-20.5v-26h20.5" fill="none" stroke="#ffffff" stroke-width="2" stroke-linecap="round"/></g></g></svg>