<svg version="1.1" xmlns="http://www.w3.org/2000/svg" xmlns:xlink="http://www.w3.org/1999/xlink" width="236" height="225" viewBox="0,0,236,225"><defs><radialGradient cx="313.65556" cy="100.08003" r="95.5" gradientUnits="userSpaceOnUse" id="color-1"><stop offset="0" stop-color="#fcce7e"/><stop offset="1" stop-color="#a68753"/></radialGradient><linearGradient x1="317.5957" y1="68.69262" x2="317.5957" y2="91.85278" gradientUnits="userSpaceOnUse" id="color-2"><stop offset="0" stop-color="#44463c"/><stop offset="1" stop-color="#101818"/></linearGradient><radialGradient cx="294.05273" cy="79.60278" r="5.55079" gradientUnits="userSpaceOnUse" id="color-3"><stop offset="0" stop-color="#fefe6b"/><stop offset="1" stop-color="#a58714"/></radialGradient><radialGradient cx="309.75716" cy="79.60278" r="5.55078" gradientUnits="userSpaceOnUse" id="color-4"><stop offset="0" stop-color="#fefe6b"/><stop offset="1" stop-color="#a58714"/></radialGradient><radialGradient cx="325.44336" cy="79.60278" r="5.55078" gradientUnits="userSpaceOnUse" id="color-5"><stop offset="0" stop-color="#fefe6b"/><stop offset="1" stop-color="#a58714"/></radialGradient><radialGradient cx="341.02383" cy="79.60278" r="5.55078" gradientUnits="userSpaceOnUse" id="color-6"><stop offset="0" stop-color="#fefe6b"/><stop offset="1" stop-color="#a58714"/></radialGradient></defs><g transform="translate(-202,-63.73017)"><g data-paper-data="{&quot;isPaintingLayer&quot;:true}" fill-rule="nonzero" stroke="#000000" stroke-linejoin="miter" stroke-miterlimit="10" stroke-dasharray="" stroke-dashoffset="0" style="mix-blend-mode: normal"><path d="M203,287.73017v-223h234v223z" fill="#c0c0c0" stroke-width="2" stroke-linecap="butt"/><path d="M231.75,287.26988v-191h175v191z" fill="url(#color-1)" stroke-width="2" stroke-linecap="butt"/><path d="M234.75,272.40625v-29h168.5v30.5" fill="none" stroke-width="2" stroke-linecap="round"/><path d="M231.75,286.40626v-15h175v15z" fill="#423929" stroke-width="2" stroke-linecap="butt"/><path d="M297.625,276.82813h-41.25" fill="none" stroke-width="2" stroke-linecap="round"/><path d="M255.875,280.07813h41.75" fill="none" stroke-width="2" stroke-linecap="round"/><path d="M341.625,276.32813h41.5" fill="none" stroke-width="2" stroke-linecap="round"/><path d="M341.375,280.07813h41.75" fill="none" stroke-width="2" stroke-linecap="round"/><path d="M317.75,103.65625v167" fill="none" stroke-width="2" stroke-linecap="round"/><path d="M231.75,103.15625h173.5" fill="none" stroke-width="2" stroke-linecap="round"/><path d="M403.25,104.15625v130.5h-168.25v-130.5" fill="none" stroke-width="2" stroke-linecap="round"/><path d="M357.25,249.53125v-5.75h8.75v5.75z" fill="#423929" stroke-width="2" stroke-linecap="butt"/><path d="M271.5,249.78125v-6h8.5v6z" fill="#423929" stroke-width="2" stroke-linecap="butt"/><g stroke-linecap="butt"><path d="M281.41992,91.85278v-23.16016h72.35156v23.16016z" fill="url(#color-2)" stroke-width="2"/><path d="M288.50195,79.60278c0,-3.0656 2.48518,-5.55078 5.55078,-5.55078c3.0656,0 5.55079,2.48518 5.55079,5.55078c0,3.0656 -2.48518,5.55078 -5.55079,5.55078c-3.0656,0 -5.55078,-2.48517 -5.55078,-5.55078z" fill="url(#color-3)" stroke-width="0"/><path d="M304.20638,79.60278c0,-3.0656 2.48518,-5.55078 5.55078,-5.55078c3.0656,0 5.55078,2.48518 5.55078,5.55078c0,3.0656 -2.48518,5.55078 -5.55078,5.55078c-3.0656,0 -5.55078,-2.48517 -5.55078,-5.55078z" fill="url(#color-4)" stroke-width="0"/><path d="M319.89258,79.60278c0,-3.0656 2.48518,-5.55078 5.55078,-5.55078c3.0656,0 5.55078,2.48518 5.55078,5.55078c0,3.0656 -2.48517,5.55078 -5.55078,5.55078c-3.0656,0 -5.55078,-2.48517 -5.55078,-5.55078z" fill="url(#color-5)" stroke-width="0"/><path d="M335.47305,79.60278c0,-3.0656 2.48518,-5.55078 5.55078,-5.55078c3.0656,0 5.55078,2.48518 5.55078,5.55078c0,3.0656 -2.48518,5.55078 -5.55078,5.55078c-3.0656,0 -5.55078,-2.48517 -5.55078,-5.55078z" fill="url(#color-6)" stroke-width="0"/></g></g></g></svg>