<svg version="1.1" xmlns="http://www.w3.org/2000/svg" xmlns:xlink="http://www.w3.org/1999/xlink" width="33" height="65" viewBox="0,0,33,65"><defs><radialGradient cx="305.67273" cy="149.82912" r="24.92632" gradientUnits="userSpaceOnUse" id="color-1"><stop offset="0" stop-color="#484e53"/><stop offset="1" stop-color="#161a1e"/></radialGradient><radialGradient cx="304.77005" cy="149.5" r="30.7" gradientUnits="userSpaceOnUse" id="color-2"><stop offset="0" stop-color="#62696f"/><stop offset="1" stop-color="#171b1f"/></radialGradient><radialGradient cx="320" cy="164.08889" r="9.6" gradientUnits="userSpaceOnUse" id="color-3"><stop offset="0" stop-color="#868789"/><stop offset="1" stop-color="#202020"/></radialGradient><radialGradient cx="320" cy="196.31111" r="9.6" gradientUnits="userSpaceOnUse" id="color-4"><stop offset="0" stop-color="#868789"/><stop offset="1" stop-color="#202020"/></radialGradient></defs><g transform="translate(-303.3,-147.3)"><g data-paper-data="{&quot;isPaintingLayer&quot;:true}" fill-rule="nonzero" stroke-linejoin="miter" stroke-miterlimit="10" stroke-dasharray="" stroke-dashoffset="0" style="mix-blend-mode: normal"><path d="M303.8,211.8v-64h32v64z" fill="none" stroke="#000000" stroke-width="1" stroke-linecap="butt"/><path d="M305,210.44211v-61.4421h29.6v61.44211z" fill="#161a1e" stroke="url(#color-1)" stroke-width="2.5" stroke-linecap="butt"/><path d="M305.08824,210.5v-61.4h29.21177v61.4z" fill="#161b1f" stroke="url(#color-2)" stroke-width="2.5" stroke-linecap="butt"/><path d="M310.4,164.08889c0,-5.30194 4.29807,-9.6 9.6,-9.6c5.30194,0 9.6,4.29806 9.6,9.6c0,5.30194 -4.29807,9.6 -9.6,9.6c-5.30194,0 -9.6,-4.29806 -9.6,-9.6z" fill="url(#color-3)" stroke="#252525" stroke-width="2.5" stroke-linecap="butt"/><path d="M319.82708,159.52932c0,0 4.90155,4.81446 5.03341,4.82707c0.14564,0.01393 -2.92064,0 -2.92064,0v4.2406h-4.02256v-4.28572c0,0 -3.04847,0.02939 -2.97744,0c-0.01557,-0.10085 4.88722,-4.78195 4.88722,-4.78195z" fill="none" stroke="#252525" stroke-width="1" stroke-linecap="round"/><path d="M320,186.71111c5.30194,0 9.6,4.29807 9.6,9.6c0,5.30193 -4.29807,9.6 -9.6,9.6c-5.30194,0 -9.6,-4.29807 -9.6,-9.6c0,-5.30193 4.29807,-9.6 9.6,-9.6z" data-paper-data="{&quot;index&quot;:null}" fill="url(#color-4)" stroke="#252525" stroke-width="2.5" stroke-linecap="butt"/><path d="M319.82707,200.87068c0,0 -4.90279,-4.6811 -4.88722,-4.78195c-0.07103,-0.02939 2.97744,0 2.97744,0v-4.28572h4.02256v4.2406c0,0 3.06628,-0.01393 2.92064,0c-0.13186,0.01261 -5.03341,4.82707 -5.03341,4.82707z" data-paper-data="{&quot;index&quot;:null}" fill="none" stroke="#252525" stroke-width="1" stroke-linecap="round"/></g></g></svg>