<svg version="1.1" xmlns="http://www.w3.org/2000/svg" xmlns:xlink="http://www.w3.org/1999/xlink" width="8.34874" height="7.57152" viewBox="0,0,8.34874,7.57152"><g transform="translate(-315.75,-176.37914)"><g data-paper-data="{&quot;isPaintingLayer&quot;:true}" fill="none" fill-rule="nonzero" stroke-width="0.5" stroke-linecap="round" stroke-linejoin="miter" stroke-miterlimit="10" stroke-dasharray="" stroke-dashoffset="0" style="mix-blend-mode: normal"><path d="M316,178.27961c0,-0.90049 0.70477,-1.79223 1.63158,-1.63158c0.9268,0.16065 1.01595,2.26991 2.31579,2.31579c1.29984,0.04588 0.91051,-2.00411 2.15789,-2.15789c1.24738,-0.15379 1.96082,0.7077 1.68421,1.68421" stroke-opacity="0.50196" stroke="#40ff6a"/><path d="M316,180.64803c0,-0.90049 0.70477,-1.79223 1.63158,-1.63158c0.92681,0.16065 1.01595,2.26991 2.31579,2.31579c1.29984,0.04588 0.91051,-2.00411 2.15789,-2.1579c1.24738,-0.15379 1.96082,0.7077 1.68421,1.68421" stroke-opacity="0.50196" stroke="#40ff6a"/><path d="M316,183.01645c0,-0.90049 0.70477,-1.79223 1.63158,-1.63158c0.92681,0.16065 1.01595,2.26991 2.31579,2.31579c1.29984,0.04588 0.91051,-2.00411 2.15789,-2.1579c1.24738,-0.15379 1.96082,0.7077 1.68421,1.68421" stroke-opacity="0.50196" stroke="#40ff6a"/></g></g></svg>