<svg version="1.1" xmlns="http://www.w3.org/2000/svg" xmlns:xlink="http://www.w3.org/1999/xlink" width="236.7862" height="340.63683" viewBox="0,0,236.7862,340.63683"><g transform="translate(-201.52219,2.71785)"><g data-paper-data="{&quot;isPaintingLayer&quot;:true}" fill-rule="nonzero" stroke="none" stroke-linecap="butt" stroke-linejoin="miter" stroke-miterlimit="10" stroke-dasharray="" stroke-dashoffset="0" style="mix-blend-mode: normal"><text transform="translate(288.86442,14.63909) scale(0.39901,0.39901)" font-size="40" xml:space="preserve" fill="#ffb840" fill-rule="nonzero" stroke="none" stroke-width="1" stroke-linecap="butt" stroke-linejoin="miter" stroke-miterlimit="10" stroke-dasharray="" stroke-dashoffset="0" font-family="Sans Serif" font-weight="normal" text-anchor="start" style="mix-blend-mode: normal"><tspan x="0" dy="0">CREDITS</tspan></text><text transform="translate(201.93148,28.15638) scale(0.27286,0.27286)" font-size="40" xml:space="preserve" fill="#ffd080" fill-rule="nonzero" stroke="none" stroke-width="1" stroke-linecap="butt" stroke-linejoin="miter" stroke-miterlimit="10" stroke-dasharray="" stroke-dashoffset="0" font-family="Sans Serif" font-weight="normal" text-anchor="start" style="mix-blend-mode: normal"><tspan x="0" dy="0">OST &amp; AUDIO DESIGN</tspan></text><text transform="translate(204.83155,37.4985) scale(0.15734,0.15734)" font-size="40" xml:space="preserve" fill="#ffe8bf" fill-rule="nonzero" stroke="none" stroke-width="1" stroke-linecap="butt" stroke-linejoin="miter" stroke-miterlimit="10" stroke-dasharray="" stroke-dashoffset="0" font-family="Sans Serif" font-weight="normal" text-anchor="start" style="mix-blend-mode: normal"><tspan x="0" dy="0">                         muddasheep - main menu ost (three thousand years), and the</tspan><tspan x="0" dy="46.150000000000006px">track you're hearing right now (offence). thx for the suffering!</tspan></text><text transform="translate(205.31489,51.61216) scale(0.15734,0.15734)" font-size="40" xml:space="preserve" fill="#ffe8bf" fill-rule="nonzero" stroke="none" stroke-width="1" stroke-linecap="butt" stroke-linejoin="miter" stroke-miterlimit="10" stroke-dasharray="" stroke-dashoffset="0" font-family="Sans Serif" font-weight="normal" text-anchor="start" style="mix-blend-mode: normal"><tspan x="0" dy="0">                         kelly bailey - almost the whole ost and sound design. thx for the</tspan><tspan x="0" dy="46.150000000000006px">awesome mood of hl1!</tspan></text><text transform="translate(205.31489,67.85253) scale(0.15734,0.15734)" font-size="40" xml:space="preserve" fill="#ffe8bf" fill-rule="nonzero" stroke="none" stroke-width="1" stroke-linecap="butt" stroke-linejoin="miter" stroke-miterlimit="10" stroke-dasharray="" stroke-dashoffset="0" font-family="Sans Serif" font-weight="normal" text-anchor="start" style="mix-blend-mode: normal"><tspan x="0" dy="0">                         noriyuki iwadare &amp; yasuko yamada - ost for the jrpg part of the</tspan><tspan x="0" dy="46.150000000000006px">game (that's the music from ace attorney, guys!)</tspan></text><text transform="translate(250.78392,94.55203) scale(0.39901,0.39901)" font-size="40" xml:space="preserve" fill="#ffb840" fill-rule="nonzero" stroke="none" stroke-width="1" stroke-linecap="butt" stroke-linejoin="miter" stroke-miterlimit="10" stroke-dasharray="" stroke-dashoffset="0" font-family="Sans Serif" font-weight="normal" text-anchor="start" style="mix-blend-mode: normal"><tspan x="0" dy="0">GOLDBOX STUDIO</tspan></text><text transform="translate(201.93148,107.90822) scale(0.27286,0.27286)" font-size="40" xml:space="preserve" fill="#ffd080" fill-rule="nonzero" stroke="none" stroke-width="1" stroke-linecap="butt" stroke-linejoin="miter" stroke-miterlimit="10" stroke-dasharray="" stroke-dashoffset="0" font-family="Sans Serif" font-weight="normal" text-anchor="start" style="mix-blend-mode: normal"><tspan x="0" dy="0">CODING</tspan></text><text transform="translate(245.91583,117.25034) scale(0.15734,0.15734)" font-size="40" xml:space="preserve" fill="#ffe8bf" fill-rule="nonzero" stroke="none" stroke-width="1" stroke-linecap="butt" stroke-linejoin="miter" stroke-miterlimit="10" stroke-dasharray="" stroke-dashoffset="0" font-family="Sans Serif" font-weight="normal" text-anchor="start" style="mix-blend-mode: normal"><tspan x="0" dy="0">barney86</tspan><tspan x="0" dy="46.150000000000006px">wlodekm</tspan></text><text transform="translate(201.93148,136.90888) scale(0.27286,0.27286)" font-size="40" xml:space="preserve" fill="#ffd080" fill-rule="nonzero" stroke="none" stroke-width="1" stroke-linecap="butt" stroke-linejoin="miter" stroke-miterlimit="10" stroke-dasharray="" stroke-dashoffset="0" font-family="Sans Serif" font-weight="normal" text-anchor="start" style="mix-blend-mode: normal"><tspan x="0" dy="0">ART</tspan></text><text transform="translate(245.91583,143.83428) scale(0.15734,0.15734)" font-size="40" xml:space="preserve" fill="#ffe8bf" fill-rule="nonzero" stroke="none" stroke-width="1" stroke-linecap="butt" stroke-linejoin="miter" stroke-miterlimit="10" stroke-dasharray="" stroke-dashoffset="0" font-family="Sans Serif" font-weight="normal" text-anchor="start" style="mix-blend-mode: normal"><tspan x="0" dy="0">barney86</tspan><tspan x="0" dy="46.150000000000006px">ellaker</tspan></text><text transform="translate(309.14802,126.78832) scale(0.15734,0.15734)" font-size="40" xml:space="preserve" fill="#ffe8bf" fill-rule="nonzero" stroke="none" stroke-width="1" stroke-linecap="butt" stroke-linejoin="miter" stroke-miterlimit="10" stroke-dasharray="" stroke-dashoffset="0" font-family="Sans Serif" font-weight="normal" text-anchor="start" style="mix-blend-mode: normal"><tspan x="0" dy="0">he's the king of coding in tw.</tspan><tspan x="0" dy="46.150000000000006px">(behind griffpatch ofc)</tspan></text><text transform="translate(201.93148,168.17344) scale(0.27286,0.27286)" font-size="40" xml:space="preserve" fill="#ffd080" fill-rule="nonzero" stroke="none" stroke-width="1" stroke-linecap="butt" stroke-linejoin="miter" stroke-miterlimit="10" stroke-dasharray="" stroke-dashoffset="0" font-family="Sans Serif" font-weight="normal" text-anchor="start" style="mix-blend-mode: normal"><tspan x="0" dy="0">VOICE ACTING</tspan></text><text transform="translate(245.91583,178.57892) scale(0.15734,0.15734)" font-size="40" xml:space="preserve" fill="#ffe8bf" fill-rule="nonzero" stroke="none" stroke-width="1" stroke-linecap="butt" stroke-linejoin="miter" stroke-miterlimit="10" stroke-dasharray="" stroke-dashoffset="0" font-family="Sans Serif" font-weight="normal" text-anchor="start" style="mix-blend-mode: normal"><tspan x="0" dy="0">ellaker, богдан онищенко - black mesa security personnel</tspan><tspan x="0" dy="46.150000000000006px">robokop, тимур ганlжа - h.e.c.u.</tspan></text><text transform="translate(234.02797,209.49962) scale(0.39901,0.39901)" font-size="40" xml:space="preserve" fill="#ffb840" fill-rule="nonzero" stroke="none" stroke-width="1" stroke-linecap="butt" stroke-linejoin="miter" stroke-miterlimit="10" stroke-dasharray="" stroke-dashoffset="0" font-family="Sans Serif" font-weight="normal" text-anchor="start" style="mix-blend-mode: normal"><tspan x="0" dy="0">SPECIAL THANKS TO...</tspan></text><text transform="translate(204.83155,219.79208) scale(0.15734,0.15734)" font-size="40" xml:space="preserve" fill="#ffe8bf" fill-rule="nonzero" stroke="none" stroke-width="1" stroke-linecap="butt" stroke-linejoin="miter" stroke-miterlimit="10" stroke-dasharray="" stroke-dashoffset="0" font-family="Sans Serif" font-weight="normal" text-anchor="start" style="mix-blend-mode: normal"><tspan x="0" dy="0">                         muddasheep for the sadistic trilogy "half-quake"</tspan><tspan x="0" dy="46.150000000000006px">                         valve for my favorite franchise half-life</tspan><tspan x="0" dy="46.150000000000006px">                         WR weider.tv, Jabiksus0, Drifters, Di Zander, kavunchik99, Reez,</tspan><tspan x="0" dy="46.150000000000006px">FROGGYPOWER, ddededodediamante, Gh0ul, Коля2023, kolya, VekselYT for </tspan><tspan x="0" dy="46.150000000000006px">being the greates fans, and...</tspan></text><text transform="translate(295.54422,335.40286) scale(0.20129,0.20129)" font-size="40" xml:space="preserve" fill="#ffe8bf" fill-rule="nonzero" stroke="none" stroke-width="1" stroke-linecap="butt" stroke-linejoin="miter" stroke-miterlimit="10" stroke-dasharray="" stroke-dashoffset="0" font-family="Sans Serif" font-weight="normal" text-anchor="start" style="mix-blend-mode: normal"><tspan x="0" dy="0">...thanks to you all for supporting us!</tspan></text><path d="M290.23899,128.62681c-0.37993,0.29879 -0.67872,-0.08112 -0.67872,-0.08112l-0.15044,-0.19129c-1.01856,-1.31303 -1.88969,-2.82554 -2.82233,-4.2782c-0.12064,0.03869 -0.24109,0.07797 -0.36122,0.11801c0,0 -0.45854,0.15284 -0.61138,-0.3057c-0.07444,-0.22332 -0.00386,-0.37414 0.08814,-0.4701c-0.06534,-0.07142 -0.11295,-0.17551 -0.11295,-0.3272c0,-0.15299 0.04842,-0.25755 0.11462,-0.32902c-0.00819,-0.0115 -0.01639,-0.02302 -0.02459,-0.0345c0,0 -0.28094,-0.39331 0.11238,-0.67425c0.39332,-0.28094 0.67426,0.11237 0.67426,0.11237c0.10764,0.1507 0.21378,0.30355 0.31873,0.45812c0.33962,0.01518 0.6772,0.04077 1.0131,0.07546c1.78489,-0.53628 3.54765,-1.12085 4.90227,-2.41372l0.12812,-0.12214c0,0 0.34984,-0.33352 0.68336,0.01632c0.33352,0.34984 -0.01632,0.68336 -0.01632,0.68336l-0.12812,0.12213c-1.01405,0.96572 -2.21527,1.56593 -3.48839,2.03702c4.29844,0.86791 8.41962,2.79748 13.05872,2.80672c0.96652,0.00042 1.93305,0.00084 2.89957,0.00103l0.85836,0.00004c0,0 0.48333,0.00003 0.48332,0.48337c-0.00002,0.48334 -0.48336,0.48332 -0.48336,0.48332l-0.8585,-0.00004c-0.96685,-0.00019 -1.93371,-0.00062 -2.90056,-0.00103c-5.34752,-0.01075 -10.03011,-2.5745 -15.05318,-3.11994c-0.11555,0.03518 -0.23118,0.07029 -0.34685,0.1055c0.85765,1.36607 1.67741,2.78044 2.63265,3.97546l0.15044,0.19129c0,0 0.2988,0.37993 -0.08112,0.67872z" fill="#ffe8bf" stroke-width="0.5"/><path d="M430.59295,44.07647c0.02147,0.48287 -0.4614,0.50434 -0.4614,0.50434l-0.24046,-0.00779c-3.81362,1.24593 -7.11702,0.66507 -9.2056,-2.46257c0,0 -0.26811,-0.40217 0.13406,-0.67028c0.40217,-0.26811 0.67027,0.13406 0.67027,0.13406c1.83165,2.75182 4.65262,3.25628 8.09558,2.08172l0.50321,-0.04086c0,0 0.48287,-0.02148 0.50434,0.46139z" fill="#ffe8bf" stroke-width="0.5"/><path d="M428.66005,39.58673c0,0.48334 -0.48334,0.48334 -0.48334,0.48334l-0.00852,-0.11564c-2.26014,1.92484 -5.28085,3.89826 -5.30827,-0.68994c0,0 0,-0.48334 0.48334,-0.48334c0.48334,0 0.48334,0.48334 0.48334,0.48334c-0.02524,3.59648 2.03602,1.38899 3.71415,-0.04547l0.63595,-0.11564c0,0 0.48334,0 0.48334,0.48334z" fill="#ffe8bf" stroke-width="0.5"/><path d="M282.18713,60.22897c-0.34177,-0.34177 0,-0.68356 0,-0.68356l0.32223,-0.32223c1.00202,-0.98944 1.91685,-1.58213 2.90007,-2.57784c0,0 0.24704,-0.24704 0.53109,-0.11103c-0.02006,-0.80927 -0.11992,-1.4976 -0.76565,-1.71386c-0.89558,-0.29994 -2.36765,0.38889 -3.29042,0.39441c0,0 -0.48334,0 -0.48334,-0.48334c0,-0.48334 0.48334,-0.48334 0.48334,-0.48334c1.02824,0.00722 2.81238,-0.81814 3.79863,-0.25004c1.92744,1.11023 -0.35546,5.12885 2.64595,5.08349h0.64446c0,0 0.48334,0 0.48334,0.48334c0,0.48334 -0.48334,0.48334 -0.48334,0.48334h-0.64446c-2.0875,-0.02505 -2.33786,-1.29435 -2.37543,-2.58416c-0.91967,0.87925 -1.86105,1.5294 -2.76069,2.4426l-0.32223,0.32223c0,0 -0.34178,0.34177 -0.68356,0z" fill="#ffe8bf" stroke-width="0.5"/><g fill="#ffe8bf" stroke-width="0.5"><path d="M399.22192,76.75772c-0.05496,-0.19809 0.14314,-0.25304 0.14314,-0.25304l0.21868,-0.05535c0.14643,-0.0062 0.29287,-0.0124 0.4393,-0.0186c1.53962,0.36326 1.79054,3.0581 0.0077,2.92116c-1.08825,-0.08359 -1.40019,-2.14033 -0.40302,-2.49315c-0.00825,0.00043 -0.01648,0.00086 -0.02473,0.00129l-0.12803,0.04083c0,0 -0.19809,0.05496 -0.25305,-0.14314zM399.76191,76.85175c0.05361,0.0131 0.11106,0.05006 0.13729,0.14286c0.05589,0.19782 -0.14193,0.25373 -0.14193,0.25373c-0.62327,0.12812 -0.29372,1.66322 0.30111,1.69334c1.23046,0.06231 0.99085,-1.85046 -0.07329,-2.10155c-0.0744,0.00388 -0.14878,0.00775 -0.22318,0.01163z"/><path d="M401.32199,78.78985c-0.05589,-0.19782 0.14192,-0.25373 0.14192,-0.25373l0.17565,-0.01376c0.05396,0.02097 0.11407,0.02844 0.17368,0.0251c0.04468,-0.06165 0.11883,-0.08259 0.11883,-0.08259l0.11304,-0.03195c1.16516,-0.32923 0.82805,-0.80396 0.05141,-0.99261l-0.18272,0.04844c-0.10839,0.029 -0.2203,-0.03439 -0.2509,-0.1427c-0.02597,-0.09193 0.01489,-0.18694 0.09359,-0.23315l0.34585,-0.2138l0.00509,0.00823l0.0202,-0.02153c1.28748,-0.36944 -0.41072,-0.78519 -0.83238,-0.22998c0,0 -0.1336,0.15625 -0.28984,0.02265c-0.15625,-0.1336 -0.02265,-0.28984 -0.02265,-0.28984c1.01956,-1.11682 3.00257,0.31033 1.42562,0.83835c0.59571,0.24289 1.55591,1.07794 -0.22004,1.5926c-0.04259,0.07318 -0.12852,0.09746 -0.12852,0.09746c-0.17678,0.04428 -0.37158,0.04692 -0.54671,-0.00346l0.06259,0.01819c0,0 -0.19782,0.05589 -0.25372,-0.14193z"/><path d="M403.59515,75.81743c-0.04585,-0.20039 0.15454,-0.24623 0.15454,-0.24623l0.19701,-0.04425c2.89193,-0.39505 0.24103,3.60647 -0.81864,2.07195c0,0 -0.10221,-0.17836 0.07616,-0.28057c0.17836,-0.10221 0.28057,0.07616 0.28057,0.07616c0.21187,0.66415 2.71511,-1.76043 0.51757,-1.46017l-0.16097,0.03767c0,0 -0.20038,0.04584 -0.24623,-0.15455z"/><path d="M407.18959,75.16955c0.00624,0.20548 -0.19923,0.21172 -0.19923,0.21172l-0.23717,0.00715c-0.2018,0.0158 -0.39724,0.02926 -0.59195,0.06364c0.13288,0.91082 -0.33501,2.03454 0.60714,1.76833l0.16957,-0.04792c0,0 0.19783,-0.05589 0.25373,0.14193c0.05589,0.19782 -0.14193,0.25373 -0.14193,0.25373l-0.16957,0.04791c-1.49838,0.42338 -0.91848,-1.08169 -1.1255,-2.12596c-0.03743,-0.02107 -0.07165,-0.05879 -0.09022,-0.1245c-0.05589,-0.19782 0.14192,-0.25373 0.14192,-0.25373c0.0136,-0.0038 0.02719,-0.00747 0.04077,-0.01104c0.00507,-0.00175 0.0103,-0.00339 0.01575,-0.00493c0.01094,-0.00309 0.02146,-0.0054 0.03155,-0.00702c0.27635,-0.0672 0.55032,-0.08865 0.83647,-0.11098l0.24694,-0.00757c0,0 0.20549,-0.00624 0.21173,0.19923z"/><path d="M407.33931,76.36368c-0.00953,0.20535 -0.21488,0.19582 -0.21488,0.19582l-0.16976,-0.00849c-0.1605,0.00374 -0.32078,0.03503 -0.47502,0.07957c0,0 -0.19783,0.05589 -0.25373,-0.14193c-0.05589,-0.19782 0.14193,-0.25373 0.14193,-0.25373c0.18698,-0.05185 0.38041,-0.08784 0.57432,-0.09486l0.20131,0.00873c0,0 0.20535,0.00953 0.19582,0.21489z"/><path d="M409.50163,76.86394c0.09361,0.18302 -0.08941,0.27663 -0.08941,0.27663l-0.28513,0.14471c-1.6676,0.47827 -2.07475,-2.74089 -0.2115,-2.80145c0,0 0.20548,-0.00625 0.21172,0.19922c0.00624,0.20548 -0.19923,0.21173 -0.19923,0.21173c-1.26287,0.03552 -0.98793,2.29551 0.04878,2.00778l0.24815,-0.12805c0,0 0.18301,-0.0936 0.27663,0.08942z"/><path d="M411.39201,74.331c-0.03847,0.20194 -0.24042,0.16347 -0.24042,0.16347l-0.07452,-0.02158c-0.48108,0.03758 -0.91377,0.00572 -1.39286,-0.04481c0,0 -0.20444,-0.02157 -0.18287,-0.226c0.02157,-0.20444 0.226,-0.18287 0.226,-0.18287c0.45474,0.04801 0.86132,0.07946 1.3177,0.04378l0.1835,0.02759c0,0 0.20194,0.03847 0.16347,0.24042z"/><path d="M410.83547,76.92566c-0.19782,0.05589 -0.25373,-0.14192 -0.25373,-0.14192l-0.02362,-0.10617c-0.01241,-0.53232 -0.25491,-1.09558 -0.39898,-1.60547c0,0 -0.05589,-0.19783 0.14193,-0.25373c0.19782,-0.05589 0.25372,0.14193 0.25372,0.14193c0.15518,0.5492 0.39359,1.13247 0.41429,1.70477l0.00831,0.00687c0,0 0.05589,0.19782 -0.14193,0.25372z"/><path d="M412.45148,76.93477c-0.20194,-0.03847 -0.16347,-0.24042 -0.16347,-0.24042l0.02869,-0.03464c-0.26086,-0.9232 -0.52171,-1.84639 -0.78257,-2.76958c0,0 -0.05589,-0.19783 0.14193,-0.25373c0.19782,-0.05589 0.25373,0.14193 0.25373,0.14193c0.26086,0.9232 0.52171,1.84639 0.78257,2.76958l-0.02046,0.22338c0,0 -0.03847,0.20194 -0.24042,0.16347z"/><path d="M414.35702,73.35342c-0.03447,0.02348 -0.06622,0.03244 -0.06622,0.03244c-3.11405,0.87991 0.17253,5.08118 0.81502,2.30548c0.09957,-0.42025 -0.0564,-2.48265 -0.55632,-2.32169l-0.01664,0.00885c0,0 -0.09825,0.02776 -0.17584,-0.02509zM414.35484,73.01529c0.03447,-0.02348 0.06622,-0.03244 0.06622,-0.03244l0.09641,-0.02309c1.00375,0.02023 1.17041,2.02372 0.9889,2.8243c-0.8442,3.64716 -5.33043,-1.66273 -1.32737,-2.79385c0,0 0.09825,-0.02776 0.17584,0.02509z"/><path d="M417.10217,72.1032c0.19782,-0.05589 0.25373,0.14193 0.25373,0.14193l0.02363,0.10617c0.02459,0.81916 0.52798,1.80469 0.43747,2.60567l0.00294,0.01041l0.10519,0.02004l-0.04832,0.25366c-0.01281,0.07588 -0.06791,0.14142 -0.14688,0.16373c-0.10926,0.03088 -0.22285,-0.03267 -0.25373,-0.14193l-0.06388,-0.22609c-0.18384,-0.68133 -0.60882,-1.26883 -1.02758,-1.84597c0.19584,0.92019 0.24159,1.88042 0.32187,2.81813c0,0 0.01754,0.20482 -0.18729,0.22236c-0.20482,0.01754 -0.22236,-0.18729 -0.22236,-0.18729c-0.09102,-1.06333 -0.12347,-2.17388 -0.41923,-3.19812l-0.03194,-0.11304c0,0 -0.05589,-0.19783 0.14193,-0.25373c0.00856,-0.00242 0.01686,-0.00436 0.02489,-0.00587c0.01442,-0.02452 0.03649,-0.04862 0.06901,-0.07073c0.17,-0.11559 0.28559,0.05441 0.28559,0.05441c0.23064,0.34027 0.47803,0.67144 0.70687,1.01173c-0.06865,-0.46932 -0.09957,-0.91209 -0.1055,-1.10487l-0.00831,-0.00687c0,0 -0.0559,-0.19783 0.14192,-0.25373z"/><path d="M418.79772,74.4317c-0.19782,0.05589 -0.25373,-0.14193 -0.25373,-0.14193c-0.181,-0.64059 -0.42589,-1.50725 -0.6069,-2.14784c0,0 -0.05589,-0.19783 0.14193,-0.25373c0.19782,-0.05589 0.25373,0.14193 0.25373,0.14193c0.181,0.64059 0.36201,1.28116 0.54301,1.92175l0.06389,0.22609c0,0 0.05589,0.19783 -0.14193,0.25373z"/><path d="M418.66926,75.59714c-0.03088,-0.10926 0.03267,-0.22285 0.14193,-0.25373c0.10926,-0.03088 0.22285,0.03267 0.25373,0.14193c0.03088,0.10926 -0.03267,0.22285 -0.14193,0.25373c-0.10926,0.03088 -0.22285,-0.03267 -0.25373,-0.14193z"/><path d="M399.87339,80.55604c0.37656,-0.50824 0.98473,-1.35978 1.35484,-1.3861c0.38143,-0.02713 1.0559,1.25334 1.55581,0.92311c0.59209,-0.39112 1.06354,-1.17543 1.62449,-1.64472c1.09627,-0.62548 1.54656,0.91834 2.16046,0.74488c0.42729,-0.12073 0.15954,-1.51075 0.99248,-1.36785c0.12845,0.02204 1.35028,0.88344 1.58323,1.01375c0.88484,0.02705 1.03936,-1.10209 1.87062,-1.064c0.8292,0.038 1.21511,1.31544 2.01775,1.39518c0.23965,0.02381 0.60206,-0.94348 0.80406,-1.15695c0.77075,-0.5188 2.30974,0.47997 3.30274,0.3333c0.4423,-0.06533 -0.21557,-0.97801 0.04614,-1.34051c0.4756,-0.65875 1.26452,0.03669 1.7394,0.30233c0.45068,0.25759 1.03401,0.30941 1.50998,0.53112c0.16193,0.07543 -0.1171,-0.33774 -0.16568,-0.50964c-0.08822,-0.31221 -0.3721,-0.88737 -0.19313,-1.20732c0.30205,-0.53998 1.81392,-0.80877 2.31494,-1.2745c0.12595,-0.05749 -2.63443,-0.46722 -2.71998,-0.59991c-0.37994,-0.58926 0.62803,-1.69042 1.1161,-2.01496c0.00083,-0.00055 0.00155,-0.00102 0.00216,-0.00141c-0.0281,0.01669 -0.28608,0.15688 -0.60376,-0.01088c-1.52708,-0.48972 -0.46387,-1.50446 -1.21142,-2.28557c-0.1602,-0.16739 -0.92558,0.22907 -1.07438,0.28696c-1.29851,0.50524 -1.75445,1.79209 -2.736,0.12843c-2.39594,-2.09998 -1.72953,2.38849 -3.52805,2.26742c-0.36016,-0.02424 -1.09353,-0.72517 -1.37571,-0.95229c-0.24047,-0.13349 -1.79936,-1.06179 -1.90575,-0.78988c-0.67417,1.72289 -0.17661,3.69134 -2.40592,1.90601c-2.06451,-1.76651 -1.83658,1.67108 -3.76805,1.21715c-0.86057,-0.20225 -1.02447,-1.31098 -2.02933,-1.36939c-0.64506,0.09338 -0.3827,2.00456 -0.72182,2.40168c-0.32569,0.3814 -1.39061,0.59917 -2.29037,0.76487c0.32191,0.11831 0.59622,0.32404 0.73529,0.62687c0.27198,0.59218 -1.40206,1.38629 -0.86388,1.75376c0.46191,0.31539 2.58772,0.32607 1.4057,1.25809c-1.7737,1.14013 0.38172,1.02693 1.41455,1.07486zM399.14024,74.73945c0.54744,-0.73447 -0.21119,-2.12722 0.96421,-2.51807c1.17284,0.04377 1.25365,1.03921 2.16444,1.37626c0.62778,0.23231 1.93617,-1.78228 2.51957,-1.93343c0.62687,-0.1624 1.00899,0.44783 1.42247,0.8011c2.11169,1.69051 0.89773,-0.48375 1.82942,-1.8542c0.44873,-0.66005 1.98313,0.45104 2.44976,0.71378c0.28229,0.225 0.87355,0.80519 1.19421,0.88501c0.18246,0.04542 0.73251,-1.09327 0.82108,-1.28178c0.76796,-1.63458 1.68346,-1.99911 2.97544,-0.83964c1.08814,1.79765 1.66133,-0.77902 3.36355,-0.59243c0.97365,0.10673 0.35808,1.9747 1.50604,2.34807c0.19786,0.11932 0.78692,0.01111 0.89911,0.20386c0.31189,0.53587 -1.63512,1.46761 -1.25524,1.94554c0.40409,0.50838 3.37675,-0.48208 2.71927,1.11022c-0.42046,0.3783 -2.07408,0.85479 -2.27815,1.2196c-0.18954,0.33884 0.46656,1.14345 0.3928,1.52868c-0.12962,0.67696 -1.69796,0.03829 -2.10352,-0.18473c-0.23441,-0.13112 -0.95778,-0.77464 -1.20969,-0.41459c-0.27959,0.39959 0.37159,1.1209 -0.18792,1.45999c-0.89164,0.54038 -2.59948,-0.81707 -3.22372,-0.38604c-0.39336,0.41267 -0.40985,1.22889 -1.07795,1.25471c-0.84704,0.03274 -1.27452,-1.35978 -2.01775,-1.39518c-0.69605,-0.03316 -1.01957,1.10065 -1.97587,1.04826c-0.58355,-0.32642 -1.01779,-0.62483 -1.55091,-1.00592c-0.42796,-0.30592 -0.29386,1.21729 -0.8001,1.36033c-0.7901,0.22326 -1.1358,-1.32272 -2.0368,-0.80349c-0.52746,0.44617 -1.0991,1.4054 -1.70598,1.6889c-0.75524,0.35279 -1.33662,-0.93432 -1.69187,-0.89358c-0.21601,0.02478 -1.08383,1.29787 -1.28056,1.52796c0,0 -0.13359,0.15625 -0.28983,0.02265c-0.09113,-0.07792 -0.08367,-0.16354 -0.06162,-0.22138c-1.40742,-0.08773 -3.35164,-0.45657 -1.42893,-1.81482c0.45748,-0.21591 -1.38337,-0.35372 -1.57018,-0.8063c-0.20123,-0.4875 1.17085,-1.13526 0.90809,-1.6522c-0.22208,-0.4369 -0.95977,-0.47243 -1.45225,-0.62872c-0.01854,0.00483 -0.0364,0.00967 -0.05352,0.0145l-0.39566,0.1118c-0.10926,0.03088 -0.22285,-0.03267 -0.25373,-0.14193c-0.0266,-0.09415 0.01691,-0.19152 0.09936,-0.2364l0.29043,-0.16643l0.039,0.06805l0.1088,-0.03074c0.61251,-0.17308 2.89881,-0.43663 3.23471,-0.88729z"/></g><path d="M243.62312,85.51713c2.27159,2.28964 1.91024,7.94256 -1.88848,7.97862c0,0 -0.05225,0 -0.12239,-0.01718c-1.20505,1.03178 -4.49939,1.46337 -5.1576,0.10549c-0.45083,-0.93004 -0.08008,-2.9538 -0.04018,-4.06944c-1.18925,0.76023 -4.59189,0.51408 -4.98661,-0.57067c-0.31493,-0.86546 -0.27365,-3.37366 -0.01199,-4.20457c0,0 0.00189,-0.00567 0.00588,-0.01554c-0.02737,-0.0192 -0.05491,-0.0423 -0.08245,-0.06984c-0.34177,-0.34177 0,-0.68356 0,-0.68356c2.20387,-2.12495 3.07435,-2.46162 6.33524,-2.46162h0.58001v0c0.26493,0 0.48009,0.21315 0.48332,0.47732c0.11071,0.09179 0.15939,0.21467 0.15939,0.21467l0.03437,0.08673c0.37959,0.96352 0.58566,1.80679 0.60879,2.58207c1.57328,-0.28255 3.142,-0.18011 3.61831,0.52467zM241.10899,87.76947l0.28162,-0.51002c2.12383,-2.15216 0.20241,-1.92069 -1.92739,-1.398c-0.11765,0.60834 -0.36689,1.18508 -0.75327,1.76108c0.81103,-0.04308 1.62452,0.07669 2.34506,0.3829c0.00187,-0.13171 0.05399,-0.23596 0.05399,-0.23596zM242.07868,87.93844l-0.10506,0.26334c0,0 -0.06165,0.12328 -0.18492,0.20526c0.06288,0.04338 0.12456,0.08864 0.18492,0.13578c0.06742,1.0519 0.36395,2.80024 0.15365,3.96079c2.39365,-0.35399 2.42699,-4.27866 1.04484,-6.04083c-0.17301,0.40846 -0.52285,0.89743 -1.09342,1.47567zM237.38454,89.33898c0,1.2136 -0.23871,2.68568 -0.03679,3.87513c0.06341,0.37347 3.55872,0.18907 3.73502,-0.54789c0.27243,-1.13884 -0.13969,-2.50805 0.02623,-3.69109c-0.72718,-0.49712 -2.28935,-0.48677 -3.30206,-0.24878c-0.03936,0.04109 -0.0794,0.08227 -0.12015,0.12356c-0.05239,0.08266 -0.13732,0.15846 -0.27492,0.18703c-0.03383,0.01095 -0.07057,0.01887 -0.10944,0.02145c0.08213,0.1323 0.08212,0.28058 0.08212,0.28058zM237.13502,87.91375c0.05108,-0.01651 0.10244,-0.03237 0.15407,-0.04757c0.72366,-0.79049 1.13816,-1.50689 1.2634,-2.30521c-0.02684,-0.13041 -0.00723,-0.23228 0.03393,-0.31112c0.04672,-0.74595 -0.14275,-1.57581 -0.55353,-2.60626l-0.00008,-0.00018l-0.33546,0.16773l-0.00801,-0.01604c-0.34966,0.3011 -0.70015,0.60082 -1.04574,0.91049l-0.14995,0.08079c0.0537,0.06076 0.09575,0.14569 0.11267,0.26413c0.01018,0.07125 0.00824,0.13341 -0.00246,0.18761c0.00732,0.04452 0.00731,0.07409 0.00731,0.07409v0.58001c-0.02779,1.00809 0.50365,2.08588 0.45198,3.1633zM235.71835,83.10654l0.2804,-0.12111c0.19572,-0.17514 0.35945,-0.3483 0.51952,-0.49667c-1.70998,0.05217 -2.48919,0.29513 -3.64573,1.33698c0.8745,-0.00751 1.74172,-0.02473 2.60968,-0.11439c-0.16708,-0.40321 0.23613,-0.60482 0.23613,-0.60482zM232.45776,84.79554l-0.10586,0.00001c0.01949,0.13423 -0.01895,0.24952 -0.01895,0.24952c-0.13067,0.36304 -0.13782,3.59464 0.14931,3.67081c0.37109,0.09844 3.24604,0.46486 3.41832,-0.00171c0.50703,-1.37312 -0.2319,-2.52985 -0.25608,-3.82195v-0.22669c-1.05933,0.11228 -2.11622,0.12261 -3.18674,0.13001z" fill="#ffb840" stroke-width="0.5"/><path d="M399.56513,89.24231c-0.07771,1.0913 -0.25364,2.48281 0.15096,3.32265c0.09171,0.19037 4.10327,0.44531 4.27385,0.29901c0.01181,-0.01013 -0.32123,-3.02023 -0.38668,-3.37654c-1.29761,-0.23847 -2.58537,-0.24511 -3.91166,-0.24511zM399.5068,88.27563h0.1848c1.57509,0 3.11978,-0.04606 4.59521,0.52825c0.29772,0.76392 1.01863,4.09079 0.38668,4.74365c-0.68175,0.7043 -5.29658,0.26565 -5.77972,-0.47434c-0.70273,-1.07633 -0.26553,-3.28273 -0.26553,-4.50754c0,0 0,-0.48334 0.48334,-0.48334c0.20926,0 0.32792,0.09059 0.39521,0.19334z" fill="#ffb840" stroke-width="0.5"/><path d="M398.68002,91.80748c-0.34177,0.34177 -0.68356,0 -0.68356,0l-0.28388,-0.31896c-0.25779,-0.51556 -0.51556,-1.03114 -0.77335,-1.5467c0,0 -0.08154,-0.16309 -0.04429,-0.33901c-0.00674,-0.04251 -0.00674,-0.07049 -0.00674,-0.07049c0,-0.84356 0,-2.12879 0,-3.08487c-0.10275,-0.06729 -0.19334,-0.18595 -0.19334,-0.39521c0,-0.48334 0.48334,-0.48334 0.48334,-0.48334c0.10149,0 0.20376,0 0.30669,0c0.0673,-0.01484 0.12838,-0.01267 0.18289,0c1.39178,0 2.8941,0 4.2732,0c0.03177,-0.00283 0.06249,-0.00241 0.0911,0c0.05787,0 0.11551,0 0.1729,0c0,0 0.40391,0 0.47327,0.36923l0.01547,0.01079c0.43231,0.86464 0.86464,1.72927 1.29695,2.59391c0,0 0.21615,0.43231 -0.21616,0.64847c-0.43231,0.21616 -0.64847,-0.21616 -0.64847,-0.21616c-0.40659,-0.81318 -0.81318,-1.62637 -1.21977,-2.43955c-1.169,0 -2.338,0 -3.50699,0c0.2798,0.48546 0.56198,0.96897 0.85078,1.45028l0.08265,0.13776c0,0 0.24868,0.41446 -0.16579,0.66314c-0.41447,0.24868 -0.66314,-0.16579 -0.66314,-0.16579l-0.08266,-0.13776c-0.1912,-0.31869 -0.37955,-0.63832 -0.56624,-0.95885c0,0.47598 0,0.95197 0,1.42794v0.58001c0,0 0.00001,0.02642 -0.00617,0.06689c0.24283,0.48566 0.48566,0.97133 0.7285,1.45699l0.1028,0.06772c0,0 0.34177,0.34178 0,0.68356z" fill="#ffb840" stroke-width="0.5"/><g fill="#ffe8bf" stroke-width="0.5"><path d="M278.66101,114.59822c0.04482,0.09678 0.09115,0.19359 0.13426,0.29312c0,0 0.07754,0.17908 -0.10154,0.25662c-0.17908,0.07754 -0.25662,-0.10153 -0.25662,-0.10153c-0.15208,-0.35133 -0.42902,-0.7772 -0.41396,-1.17981c0.0049,-0.13114 -0.00637,-0.28497 0.07735,-0.38603c0.07447,-0.08989 0.21955,-0.08077 0.33281,-0.10904c0.08978,-0.02242 0.16589,-0.04235 0.23522,-0.04882c-0.0454,-0.03295 -0.0915,-0.06459 -0.14191,-0.08869c-0.27992,-0.1338 -0.54781,-0.00452 -0.82931,0.05585c-0.21582,0.04629 -0.41718,0.07229 -0.61072,0.14137c-0.04177,0.07838 -0.13614,0.09862 -0.13614,0.09862c-0.02172,0.00196 -0.04634,-0.00203 -0.07013,-0.00431c-0.0081,0.00465 -0.01619,0.00942 -0.02427,0.01432c0,0 -0.03195,0.01885 -0.07621,0.02618c-0.05434,0.07374 -0.06758,0.17474 -0.10793,0.25838c-0.089,0.18449 -0.21533,0.34863 -0.31655,0.52671c-0.10506,0.18485 -0.13574,0.40299 -0.20231,0.60492c-0.04075,0.1236 -0.12486,0.23028 -0.16355,0.35454c-0.04698,0.15086 -0.07995,0.3111 -0.10413,0.4732c0.05254,-0.04863 0.12444,-0.05489 0.12444,-0.05489c0.40818,-0.03555 0.65911,-0.05415 1.06442,0.0234l0.19595,0.03843c0.0762,0.01316 0.14046,0.07121 0.15767,0.15145c0.02013,0.09388 -0.03093,0.18645 -0.11681,0.22152c0.00575,0.01262 0.01025,0.02606 0.01327,0.04019c0.02106,0.09823 -0.03582,0.19503 -0.12899,0.22602l-0.01218,0.00425c0.03152,-0.00437 0.1406,-0.01184 0.19672,0.08202c0.05309,-0.10733 0.23457,-0.48908 0.30159,-0.5557c0.27864,-0.27699 0.69463,-0.34235 1.05749,-0.41919c0.22024,-0.04664 0.43801,-0.1134 0.668,-0.02698c0.00079,0.0003 0.00158,0.0006 0.00236,0.00091c0.02197,-0.0311 0.05305,-0.05587 0.09037,-0.06992l0.18824,-0.07469c0.02201,-0.04708 0.05962,-0.09984 0.11652,-0.15901c0.03534,-0.03675 0.07905,-0.05505 0.12776,-0.06234l-0.00482,-0.02248l0.22897,-0.04911c0.10538,-0.0226 0.20912,0.04452 0.23172,0.14989c0.00729,0.03401 0.00524,0.06785 -0.00443,0.09885c0.01259,0.00398 0.02487,0.0086 0.03683,0.01394l0.10663,-0.02286c0.05397,-0.01157 0.10751,0.00038 0.14993,0.02895c-0.06301,-0.15884 -0.11189,-0.3173 -0.19911,-0.48152c-0.07784,-0.14656 -0.21743,-0.25144 -0.31334,-0.38685c-0.06098,-0.08609 -0.07289,-0.20201 -0.13856,-0.28458c-0.07409,-0.09317 -0.18469,-0.15048 -0.27186,-0.23153c-0.05463,-0.05079 -0.08563,-0.13117 -0.15291,-0.16337c-0.07422,-0.03552 -0.17184,0.00977 -0.24534,-0.02722c-0.09214,-0.04638 -0.14018,-0.15459 -0.2269,-0.21048c-0.02572,-0.01658 -0.05328,-0.02961 -0.08169,-0.041c0.00063,0.0008 0.00128,0.00161 0.0019,0.00243c0.02907,0.03725 0.13917,0.55842 0.12951,0.60397c-0.02356,0.111 -0.11782,0.19397 -0.17673,0.29095l-0.24856,0.15271c0,0 -0.03996,0.02358 -0.09242,0.02825zM278.51991,114.26124c0.01921,-0.01799 0.03521,-0.02742 0.03521,-0.02742l0.17663,-0.09814c0.04884,-0.06176 0.06504,-0.43603 -0.06376,-0.43049c-0.05334,0.0023 -0.09991,0.0409 -0.15283,0.04797c-0.0415,0.00554 -0.09427,-0.03915 -0.12512,-0.01085c-0.0263,0.02415 0.01509,0.0698 0.02291,0.10464c0.01482,0.066 0.03065,0.13177 0.04501,0.19787c0.01611,0.07423 0.03732,0.14607 0.06196,0.21641zM277.10361,116.84996c-0.01402,0.00301 -0.028,0.0064 -0.04196,0.01006c0.00015,0.02673 -0.00524,0.05267 -0.01526,0.07647c0.02442,-0.00408 0.04894,-0.00755 0.07359,-0.01021c0.03453,-0.00373 0.08184,0.03012 0.11027,0.02191c0.00603,-0.00831 0.01307,-0.01632 0.02125,-0.02384c0.01066,-0.03033 -0.00507,-0.06694 -0.01477,-0.10294zM276.25483,117.01283c-0.06051,-0.01426 -0.11205,-0.05705 -0.13614,-0.11644c-0.00323,-0.00082 -0.00645,-0.00164 -0.00968,-0.00247l0.00006,0.00421l-0.2922,0.00404c-0.05096,0.07234 -0.1389,0.14428 -0.0826,0.18716c0.11389,0.08674 0.20617,-0.0051 0.32445,-0.01382c0.12158,-0.00897 0.2445,-0.00992 0.36622,-0.01881zM275.87206,116.24657l0.00232,0.00387c0.00855,-0.00629 0.01733,-0.0123 0.02638,-0.018c0.01337,-0.00843 0.02725,-0.01559 0.04154,-0.02171c0.02412,-0.04446 0.06529,-0.07935 0.11685,-0.09435c-0.00512,0.00044 -0.01028,0.0009 -0.01547,0.00135c0,0 -0.13248,0.01153 -0.18824,-0.09381c-0.00854,0.08262 -0.01545,0.16476 -0.02142,0.24542zM277.6155,112.90826c0.38811,-0.08322 0.6755,-0.19937 1.06788,-0.03166c0.12422,0.05309 0.22257,0.15408 0.34128,0.21856c0.1028,0.05584 0.22314,0.07758 0.32126,0.14129c0.0709,0.04603 0.10086,0.14443 0.17659,0.18199c0.07371,0.03655 0.17223,-0.01056 0.24533,0.02722c0.10054,0.05197 0.16639,0.15347 0.25058,0.22911c0.10501,0.09435 0.2285,0.17086 0.31701,0.28084c0.06837,0.08496 0.08201,0.20425 0.14502,0.29326c0.05277,0.07456 0.14055,0.11863 0.19723,0.19025c0.07682,0.09707 0.26336,0.46474 0.29816,0.55819c0.05072,0.13622 0.08291,0.28202 0.15823,0.40634c0.08925,0.15448 0.30443,0.44674 0.17029,0.64671c-0.07846,0.11696 -0.26912,0.08491 -0.39819,0.14127c-0.14504,0.06333 -0.28847,0.13437 -0.44156,0.17452c-0.08791,0.02306 -0.18661,0.10607 -0.27308,0.12939c0.01775,0.09528 0.03179,0.19056 0.04956,0.28036c0.01881,0.0951 0.06505,0.18985 0.05277,0.28601c-0.04077,0.31927 -0.17078,0.38964 -0.37366,0.60074c-0.52895,0.31019 -1.34356,0.512 -1.92174,0.22749c-0.0288,-0.01417 -0.41001,-0.26542 -0.42223,-0.2782c-0.09457,-0.09885 -0.15896,-0.2329 -0.27599,-0.30377l-0.0012,-0.00237c-0.19207,0.04997 -0.43809,0.07519 -0.55516,0.10029c-0.21308,0.04473 -0.43331,0.04393 -0.65056,0.05819c-0.26958,0.0177 -0.39649,0.17813 -0.65688,-0.12272c-0.08749,-0.10107 -0.09856,-0.25676 -0.09212,-0.39028c0.00355,-0.07351 0.10661,-0.113 0.11991,-0.18538c0.01151,-0.06267 -0.04861,-0.1203 -0.05206,-0.18393c-0.00488,-0.09008 0.02156,-0.1792 0.02748,-0.26921c0.05839,-0.88752 0.33329,-1.7263 0.78904,-2.48328c0.09471,-0.1573 0.23405,-0.50564 0.33391,-0.59675c0.04052,-0.03697 0.09385,-0.05074 0.15002,-0.05935c0.29011,-0.15346 0.57459,-0.19471 0.90288,-0.2651zM279.99598,115.95752c-0.01972,-0.00766 -0.03806,-0.01848 -0.05429,-0.03196c0.00318,0.00304 0.00632,0.00613 0.00941,0.00928c0.01645,0.01682 0.03176,0.03435 0.04601,0.05248c-0.00043,-0.00998 -0.0008,-0.01991 -0.00113,-0.0298zM279.87568,115.81645c-0.00741,-0.0346 -0.00516,-0.06902 0.00493,-0.10045l-0.16429,0.06386c0.07171,0.04366 0.14964,0.07917 0.21215,0.13366c-0.02574,-0.02569 -0.04459,-0.05887 -0.05279,-0.09707zM280.41269,115.90087l-0.01818,0.0039c-0.00056,0.02409 -0.00207,0.04868 -0.00507,0.07247c0.05299,-0.0093 0.11227,-0.00402 0.16222,-0.02376c0.07652,-0.03025 0.13318,-0.10392 0.2126,-0.12543c0.06841,-0.01853 0.14426,0.02988 0.21239,0.01033c0.02719,-0.0078 -0.04998,-0.02946 -0.06704,-0.05203c-0.04334,-0.05732 -0.07447,-0.12293 -0.11171,-0.1844c-0.01294,-0.02241 -0.02508,-0.04474 -0.03653,-0.06702c-0.01088,0.07904 -0.06994,0.14649 -0.15246,0.16418l-0.04096,0.00879c0.00916,0.1577 -0.15527,0.19296 -0.15527,0.19296zM277.58253,117.02346c0.05354,0.03095 0.10753,0.06139 0.14987,0.10564c0.05688,0.05945 0.07008,0.1517 0.12542,0.2126c0.36727,0.40425 0.85143,0.27999 1.30665,0.18397c0.17673,-0.03728 0.35936,-0.07745 0.51454,-0.16988c0.26814,-0.27048 0.20449,-0.37769 0.13136,-0.72704c-0.02224,-0.10626 -0.03788,-0.33044 -0.14089,-0.42369c-0.07552,-0.06836 -0.17927,-0.09882 -0.25888,-0.16237c-0.06008,-0.04796 -0.08597,-0.13894 -0.15659,-0.16931c-0.06979,-0.03002 -0.15241,-0.00464 -0.2279,0.00398c-0.32522,0.03717 -0.81798,0.11692 -1.06677,0.35715c-0.13425,0.12963 -0.16215,0.33643 -0.2529,0.49951c-0.03028,0.05441 -0.08396,0.09571 -0.10555,0.15412c-0.01524,0.04124 -0.01669,0.08857 -0.01837,0.13531z"/><path d="M278.41211,117.36768c-0.19081,0.04092 -0.23172,-0.14989 -0.23172,-0.14989c-0.0491,-0.22897 -0.13093,-0.61058 -0.18003,-0.83955c0,0 -0.04092,-0.1908 0.14989,-0.23172c0.19081,-0.04092 0.23172,0.14989 0.23172,0.14989c0.0491,0.22897 0.0982,0.45793 0.14729,0.6869l0.03273,0.15264c0,0 0.04092,0.19081 -0.14989,0.23172z"/><path d="M279.26801,117.26398c-0.17314,0.03713 -0.22285,-0.11654 -0.23057,-0.14532c-0.06464,-0.03676 -0.13206,-0.07084 -0.17271,-0.1309c-0.11281,-0.16671 -0.13448,-0.55629 -0.17747,-0.7568c0,0 -0.04092,-0.19081 0.14989,-0.23172c0.19081,-0.04092 0.23172,0.14989 0.23172,0.14989c0.05035,0.23476 0.02999,0.57243 0.24786,0.68388l0.10118,0.19925c0,0 0.04091,0.19081 -0.14989,0.23172zM279.08394,117.14652l0.02081,0.01417c-0.00678,-0.00488 -0.01373,-0.00959 -0.02081,-0.01417z"/><path d="M278.15543,115.34637c-0.18659,0.05713 -0.24372,-0.12947 -0.24372,-0.12947l-0.04232,-0.14032c-0.00387,-0.00979 -0.08803,-0.21621 -0.15709,-0.39885c-0.32463,0.20319 -0.42796,-0.01462 -0.58534,-0.25052c-0.00738,0.22772 -0.02559,0.45394 -0.04444,0.6884c0,0 -0.01564,0.19453 -0.21016,0.17889c-0.19452,-0.01564 -0.17888,-0.21016 -0.17888,-0.21016c0.0312,-0.38802 0.06274,-0.75123 0.03864,-1.14017l-0.01167,-0.19232c-0.00742,-0.09591 0.05703,-0.18489 0.15368,-0.20561c0.08583,-0.01841 0.17058,0.0227 0.21128,0.09553l0.12043,0.20413c0.08746,0.09585 0.15367,0.2099 0.2171,0.3231c0.02806,0.05009 0.01577,0.12145 0.05524,0.16317c0.01936,0.02046 0.07033,0.00794 0.08273,-0.01736c0.01132,-0.02309 -0.0016,-0.04912 -0.01256,-0.0749l-0.00627,0.00134l-0.0491,-0.22897c-0.0226,-0.10538 0.04452,-0.20911 0.14989,-0.23172c0.09904,-0.02124 0.19663,0.03675 0.22678,0.1313l0.12273,0.36801c0.11621,0.20078 0.15465,0.43754 0.23996,0.65327l0.05255,0.16952c0,0 0.05712,0.1866 -0.12947,0.24373z"/></g><g stroke-width="0.5"><path d="M279.55228,124.42542c-0.08251,0 -0.11475,-0.05027 -0.12734,-0.08956c-0.5606,-0.18977 -1.09617,-0.39445 -1.61271,-0.68324c-0.11474,-0.06415 -0.24778,-0.0879 -0.3715,-0.13234c-0.38622,-0.13873 -0.78147,-0.25079 -1.17494,-0.36754c-0.00625,0.04182 0.0146,0.08728 0.00767,0.12979c-0.0165,0.10127 -0.05369,0.20071 -0.05242,0.30331l-0.06404,0.10232c0.56362,0.1744 1.17452,0.20448 1.73663,0.3884c0.22019,0.07205 0.53068,0.19048 0.73149,0.3048c0.15181,0.08642 0.28517,0.20636 0.4451,0.27663c0.14287,0.06278 0.27169,0.08296 0.40693,0.11247c-0.01404,-0.04538 0.00082,-0.08995 0.00082,-0.08995l0.05262,-0.15754c0.0081,-0.0324 0.01615,-0.06494 0.02419,-0.09757c-0.00083,0.00001 -0.00166,0.00002 -0.0025,0.00002zM276.06425,122.9511c0.01396,-0.04654 0.03962,-0.07138 0.06678,-0.08408c0.05967,-0.12543 0.0701,-0.26989 0.11815,-0.40045c0.03485,-0.09469 0.08934,-0.19122 0.13207,-0.29038c-0.03283,-0.02324 -0.0663,-0.06596 -0.04783,-0.13985c0.01888,-0.07553 0.07033,-0.09678 0.11066,-0.1012c0.0013,-0.06963 -0.01158,-0.1403 -0.00464,-0.20975c0.01563,-0.15643 0.05295,-0.3115 0.05244,-0.46871c0,0 0,-0.00464 0.00086,-0.01221c-0.18448,-0.06209 -0.37302,-0.10825 -0.56979,-0.1202c-0.00539,0.03179 -0.01057,0.06367 -0.01549,0.09568c-0.02307,0.15009 -0.02835,0.30411 -0.06998,0.45014c-0.0675,0.23676 -0.18525,0.4294 -0.2119,0.67832c-0.03603,0.33656 -0.03255,0.71877 -0.16078,1.04246c0.14429,0.06644 0.29078,0.14063 0.43857,0.20366c0.01259,-0.03053 0.03234,-0.05029 0.03234,-0.05029l0.0145,0.04159c0.00111,-0.11705 0.0363,-0.23129 0.05592,-0.34669c0.01006,-0.05918 -0.01484,-0.12307 0.00406,-0.18005c0.01037,-0.03125 0.02875,-0.05857 0.04875,-0.08517c0.00119,-0.00728 0.00294,-0.01488 0.00532,-0.02283zM277.53226,123.26539c0.13403,0.04812 0.27686,0.0769 0.40175,0.14533c0.08037,0.04404 0.14848,0.10838 0.229,0.15214c0.44101,0.23966 0.95834,0.38597 1.43224,0.54456l0.02522,0.04981c0.05551,-0.2253 0.1135,-0.45144 0.18264,-0.66879c0.02835,-0.08912 0.06096,-0.17386 0.09425,-0.25663c-0.0121,0.00194 -0.02009,0.00194 -0.02009,0.00194l-0.15116,-0.00695c-0.35631,-0.11877 -0.72085,-0.17068 -1.08019,-0.26983c-0.14295,-0.03944 -0.26534,-0.13408 -0.40474,-0.18465c-0.16823,-0.06102 -0.34733,-0.08725 -0.51804,-0.14097c-0.22783,-0.07168 -0.43533,-0.18627 -0.65535,-0.27268c-0.13363,-0.05248 -0.28278,-0.08268 -0.42913,-0.11267c-0.00698,0.02374 -0.01485,0.04722 -0.02378,0.07038c-0.07228,0.18756 -0.12632,0.40669 -0.20693,0.59601c0.37677,0.11143 0.75455,0.22024 1.1243,0.35298zM277.16177,122.10467c0.21698,0.08403 0.42038,0.19852 0.64465,0.26898c0.03645,0.01145 0.49999,0.13424 0.52712,0.14408c0.13514,0.04902 0.25292,0.14305 0.39176,0.18031c0.36238,0.09725 0.72783,0.15229 1.08647,0.27184l0.06551,-0.00695c0,0 0.06916,0 0.10863,0.04943c0.07552,-0.19378 0.13673,-0.38882 0.13512,-0.61818c0,0 0,-0.00823 0.00203,-0.02063c-0.47365,-0.13197 -0.95395,-0.24884 -1.42362,-0.39183c-0.17201,-0.05237 -0.33595,-0.12976 -0.50904,-0.17845c-0.26254,-0.07386 -0.53778,-0.11066 -0.79606,-0.20235c-0.21328,-0.07571 -0.42271,-0.17101 -0.63494,-0.25667c-0.00945,0.13647 -0.03674,0.27192 -0.05049,0.40821c-0.00761,0.07544 -0.0132,0.15197 -0.02148,0.22798c0.16095,0.03382 0.32583,0.06673 0.47434,0.12424zM280.39011,122.6867c-0.05068,0.3123 -0.23659,0.59134 -0.33034,0.8882c-0.10502,0.33254 -0.18447,0.68509 -0.26915,1.02379l-0.05572,0.16746c0,0 -0.01339,0.04016 -0.04764,0.06808c0.1504,0.14407 0.30338,0.14509 0.48585,0.26674c0.03422,0.02281 0.04322,0.07677 0.08098,0.09308c0.03402,0.01469 0.07379,-0.00687 0.11068,-0.01031h0.05417c0,0 0.02142,0 0.04721,0.00852c0.05425,-0.23459 0.11092,-0.4684 0.16945,-0.70227c0.11068,-0.44224 0.27219,-0.87124 0.43077,-1.2985c0.05992,-0.16146 0.11949,-0.32564 0.18267,-0.48903l-0.0011,-0.00048c-0.28655,-0.10351 -0.5642,-0.18773 -0.85537,-0.25983c0.00262,0.0818 0.01059,0.16405 -0.00247,0.24454zM280.36478,125.45459c-0.07144,-0.00344 -0.14752,0.01525 -0.21432,-0.01031c-0.05714,-0.02186 -0.08479,-0.08965 -0.13569,-0.12359c-0.17107,-0.11405 -0.33228,-0.11827 -0.47951,-0.2655c-0.20842,-0.06532 -0.35645,-0.0552 -0.57318,-0.1489c-0.1693,-0.07319 -0.31144,-0.19795 -0.47138,-0.28982c-0.18752,-0.10771 -0.47552,-0.21518 -0.68129,-0.28251c-0.5763,-0.18857 -1.20392,-0.21524 -1.77953,-0.40199c-0.23758,-0.07708 -0.47297,-0.20239 -0.70284,-0.30636c-0.00549,0.01002 -0.01063,0.02022 -0.0153,0.03067c-0.05503,0.12325 -0.08457,0.26963 -0.18435,0.36054c0.00139,0.0144 0.01307,0.16989 0.02758,0.18028c0.05807,0.04156 0.13626,0.04296 0.20323,0.06775c0.24149,0.08939 0.48224,0.18463 0.72228,0.27809c0.47484,0.18487 0.9449,0.43196 1.43599,0.56895c0.35304,0.09848 0.72069,0.12889 1.06398,0.26789c0.12704,0.05144 0.23247,0.1537 0.36461,0.19008c0.2525,0.06952 0.5154,0.13407 0.77279,0.19017c0.1471,0.03223 0.37155,0.07923 0.51803,0.11968c0.0344,0.0095 0.07978,0.06485 0.10083,0.03602c0.03663,-0.05017 -0.00044,-0.12472 0.00877,-0.18615c0.01338,-0.08928 0.03917,-0.17626 0.05875,-0.26438c0.00079,-0.00354 0.00157,-0.00707 0.00236,-0.01061zM281.62645,122.71902c-0.03383,0.07777 -0.09517,0.08565 -0.1363,0.08068c-0.27374,0.64805 -0.48824,1.34182 -0.65748,2.01873c-0.08028,0.32108 -0.13485,0.65119 -0.22278,0.96989c-0.03187,0.1155 -0.01842,0.26387 -0.10873,0.34261c-0.07639,0.0666 -0.20259,0.02538 -0.30358,0.01687c-0.18322,-0.01544 -0.35805,-0.08389 -0.53766,-0.12323c-0.26474,-0.05827 -0.54157,-0.12281 -0.80044,-0.19778c-0.13708,-0.0397 -0.24837,-0.14244 -0.38066,-0.196c-0.3332,-0.13491 -0.69234,-0.16219 -1.0352,-0.25808c-0.4999,-0.1398 -0.97781,-0.38914 -1.4612,-0.57734c-0.24125,-0.09393 -0.48637,-0.17787 -0.72479,-0.27908c-0.10066,-0.04273 -0.22017,-0.05836 -0.29969,-0.13342c-0.1243,-0.11731 -0.08583,-0.32966 -0.08075,-0.46972c0.03909,-0.04204 0.0912,-0.07497 0.11728,-0.12611c0.03792,-0.07437 0.03593,-0.1642 0.06969,-0.24055c0.03607,-0.08156 0.10242,-0.14742 0.13803,-0.22918c0.13179,-0.30257 0.11739,-0.67802 0.15393,-0.99626c0.03079,-0.26809 0.14638,-0.46651 0.21933,-0.71949c0.0395,-0.13698 0.04263,-0.28192 0.06432,-0.42282c0.04075,-0.26466 0.06374,-0.6046 0.16282,-0.88361c-0.00913,-0.01759 -0.01488,-0.03974 -0.01488,-0.06765c0,-0.09569 0.06761,-0.12376 0.10729,-0.132c0.0277,-0.04595 0.05911,-0.08836 0.09487,-0.12626c0,0 0.09575,-0.09575 0.19151,0c0.04497,0.04497 0.0477,0.08994 0.03795,0.125c0.22258,0.01089 0.42865,0.05941 0.65582,0.07148c0.18257,0.02723 0.36954,0.02361 0.55052,0.05993c0.268,0.05378 0.46039,0.216 0.70943,0.30757c0.21715,0.07984 0.46476,0.10127 0.68799,0.16922c0.32522,0.099 0.63814,0.2449 0.97226,0.31307c0.45948,0.09376 0.93468,0.16261 1.40091,0.21531c0.04179,0.00472 0.55545,0.05409 0.57448,0.06361c0.11777,0.05887 0.19601,0.17585 0.29402,0.26377c-0.13819,0.34746 -0.31719,0.66793 -0.4717,1.00652c0.03155,0.02681 0.06705,0.07693 0.03341,0.15428zM277.48523,121.34579c0.2523,0.08954 0.52216,0.12446 0.77861,0.19679c0.04502,0.0127 0.46193,0.16405 0.51337,0.17971c0.50054,0.15237 1.01327,0.2747 1.51688,0.41811c0.36393,0.08292 0.70295,0.18294 1.05396,0.30993l0.00202,0.00088c0.12346,-0.2936 0.26562,-0.57861 0.45035,-0.83399c-0.20014,-0.10934 -0.40918,-0.09179 -0.63459,-0.11726c-0.47356,-0.05352 -0.95665,-0.12297 -1.42328,-0.21879c-0.34347,-0.07053 -0.66409,-0.21786 -0.99835,-0.31962c-0.22734,-0.06921 -0.47814,-0.09197 -0.69973,-0.17309c-0.23221,-0.08501 -0.4229,-0.24932 -0.67111,-0.29705c-0.17305,-0.03328 -0.35138,-0.03018 -0.52566,-0.05622c-0.24434,-0.0138 -0.46494,-0.07346 -0.70792,-0.07225h-0.06389c-0.009,0.03469 -0.0161,0.06987 -0.02295,0.10361c-0.02661,0.13121 -0.05434,0.26101 -0.08033,0.3912c0.53739,0.04696 1.00885,0.30926 1.51261,0.48804z" fill="#ffe8bf"/><path d="M276.2752,120.55252c0,-0.07479 0.06063,-0.13542 0.13542,-0.13542c0.07479,0 0.13542,0.06063 0.13542,0.13542c0,0.07479 -0.06063,0.13542 -0.13542,0.13542c-0.07479,0 -0.13542,-0.06063 -0.13542,-0.13542z" fill="#ffe8bf"/><path d="M276.9252,120.87752c0,-0.07479 0.06063,-0.13542 0.13542,-0.13542c0.07479,0 0.13542,0.06063 0.13542,0.13542c0,0.07479 -0.06063,0.13542 -0.13542,0.13542c-0.07479,0 -0.13542,-0.06063 -0.13542,-0.13542z" fill="#ffe8bf"/><path d="M277.79187,121.09418c0,-0.07479 0.06063,-0.13542 0.13542,-0.13542c0.07479,0 0.13542,0.06063 0.13542,0.13542c0,0.07479 -0.06063,0.13542 -0.13542,0.13542c-0.07479,0 -0.13542,-0.06063 -0.13542,-0.13542z" fill="#ffe8bf"/><path d="M278.44186,121.36502c0,-0.07479 0.06063,-0.13542 0.13542,-0.13542c0.07479,0 0.13542,0.06063 0.13542,0.13542c0,0.07479 -0.06063,0.13542 -0.13542,0.13542c-0.07479,0 -0.13542,-0.06063 -0.13542,-0.13542z" fill="#ffe8bf"/><path d="M279.3627,121.58168c0,-0.07479 0.06063,-0.13542 0.13542,-0.13542c0.07479,0 0.13542,0.06063 0.13542,0.13542c0,0.07479 -0.06063,0.13542 -0.13542,0.13542c-0.07479,0 -0.13542,-0.06063 -0.13542,-0.13542z" fill="#ffe8bf"/><path d="M280.12103,121.74418c0,-0.07479 0.06063,-0.13542 0.13542,-0.13542c0.07479,0 0.13542,0.06063 0.13542,0.13542c0,0.07479 -0.06063,0.13542 -0.13542,0.13542c-0.07479,0 -0.13542,-0.06063 -0.13542,-0.13542z" fill="#ffe8bf"/><path d="M280.77102,121.96085c0,-0.07479 0.06063,-0.13542 0.13542,-0.13542c0.07479,0 0.13542,0.06063 0.13542,0.13542c0,0.07479 -0.06063,0.13542 -0.13542,0.13542c-0.07479,0 -0.13542,-0.06063 -0.13542,-0.13542z" fill="#ffe8bf"/><path d="M275.30021,124.01918c0,-0.07479 0.06063,-0.13542 0.13542,-0.13542c0.07479,0 0.13542,0.06063 0.13542,0.13542c0,0.07479 -0.06063,0.13542 -0.13542,0.13542c-0.07479,0 -0.13542,-0.06063 -0.13542,-0.13542z" fill="#ffe8bf"/><path d="M275.89604,124.18167c0,-0.07479 0.06063,-0.13542 0.13542,-0.13542c0.07479,0 0.13542,0.06063 0.13542,0.13542c0,0.07479 -0.06063,0.13542 -0.13542,0.13542c-0.07479,0 -0.13542,-0.06063 -0.13542,-0.13542z" fill="#ffe8bf"/><path d="M276.38354,124.45251c0,-0.07479 0.06063,-0.13542 0.13542,-0.13542c0.07479,0 0.13542,0.06063 0.13542,0.13542c0,0.07479 -0.06063,0.13542 -0.13542,0.13542c-0.07479,0 -0.13542,-0.06063 -0.13542,-0.13542z" fill="#ffe8bf"/><path d="M277.14187,124.66917c0,-0.07479 0.06063,-0.13542 0.13542,-0.13542c0.07479,0 0.13542,0.06063 0.13542,0.13542c0,0.07479 -0.06063,0.13542 -0.13542,0.13542c-0.07479,0 -0.13542,-0.06063 -0.13542,-0.13542z" fill="#ffe8bf"/><path d="M277.79187,124.77751c0,-0.07479 0.06063,-0.13542 0.13542,-0.13542c0.07479,0 0.13542,0.06063 0.13542,0.13542c0,0.07479 -0.06063,0.13542 -0.13542,0.13542c-0.07479,0 -0.13542,-0.06063 -0.13542,-0.13542z" fill="#ffe8bf"/><path d="M278.3877,125.15667c0,-0.07479 0.06063,-0.13542 0.13542,-0.13542c0.07479,0 0.13542,0.06063 0.13542,0.13542c0,0.07479 -0.06063,0.13542 -0.13542,0.13542c-0.07479,0 -0.13542,-0.06063 -0.13542,-0.13542z" fill="#ffe8bf"/><path d="M278.98353,125.31917c0,-0.07479 0.06063,-0.13542 0.13542,-0.13542c0.07479,0 0.13542,0.06063 0.13542,0.13542c0,0.07479 -0.06063,0.13542 -0.13542,0.13542c-0.07479,0 -0.13542,-0.06063 -0.13542,-0.13542z" fill="#ffe8bf"/><path d="M279.63353,125.53584c0,-0.07479 0.06063,-0.13542 0.13542,-0.13542c0.07479,0 0.13542,0.06063 0.13542,0.13542c0,0.07479 -0.06063,0.13542 -0.13542,0.13542c-0.07479,0 -0.13542,-0.06063 -0.13542,-0.13542z" fill="#ffe8bf"/><path d="M277.9002,121.90668c0,0.13542 -0.13542,0.13542 -0.13542,0.13542l-0.11473,-0.0143c-0.07843,-0.03987 -0.16228,-0.0705 -0.23529,-0.1196c-0.03413,-0.02295 -0.29442,-0.05616 -0.39339,-0.08858c-0.07432,-0.02435 -0.13225,-0.08351 -0.19837,-0.12527c0,0 -0.11267,-0.07512 -0.03756,-0.18779c0.07512,-0.11267 0.18779,-0.03756 0.18779,-0.03756c0.04221,0.03047 0.07738,0.07453 0.12663,0.0914c0.10646,0.03647 0.42224,0.09434 0.47327,0.12808c0.06133,0.04055 0.13203,0.06471 0.19805,0.09707l-0.00639,-0.0143c0,0 0.13542,0 0.13542,0.13542z" fill="#ffb840"/><path d="M277.71938,121.86594c0.10574,0.08459 0.02115,0.19034 0.02115,0.19034l-0.05332,0.06533c-0.15357,0.15313 -0.34718,0.34468 -0.5895,0.30941c-0.37732,-0.05491 -0.39889,-0.51134 -0.30545,-0.78655c0,0 0.04555,-0.12753 0.17307,-0.08198c0.12753,0.04555 0.08198,0.17307 0.08198,0.17307c-0.03355,0.0877 -0.08997,0.42136 0.08455,0.42678c0.14975,0.00465 0.26913,-0.13725 0.36383,-0.23225l0.03334,-0.04301c0,0 0.08459,-0.10574 0.19034,-0.02115z" fill="#ffb840"/><path d="M279.15652,122.49286c0.00596,0.08416 -0.00287,0.17082 0.01855,0.25242c0.01413,0.05384 0.19339,0.03868 0.22804,0.02205c0.10038,-0.04815 0.14482,-0.15959 0.18608,-0.25621c-0.14415,-0.03192 -0.28753,-0.06541 -0.43243,-0.09572zM279.72196,122.83905c-0.17897,0.2262 -0.61894,0.33057 -0.78913,0.02735c-0.03029,-0.05397 -0.04136,-0.28347 -0.04645,-0.35424l-0.00034,-0.12881c0,0 0,-0.01534 0.00516,-0.03568c-0.03059,-0.02256 -0.05841,-0.06195 -0.04636,-0.12907c0.02392,-0.13329 0.15721,-0.10936 0.15721,-0.10936c0.29878,0.05363 0.58591,0.12526 0.88082,0.19118l0.14932,0.08514c0,0 0.11697,0.06823 0.04874,0.1852c-0.06823,0.11697 -0.1852,0.04874 -0.1852,0.04874l-0.04681,-0.02813c-0.04045,0.08377 -0.06937,0.17494 -0.12695,0.24771z" fill="#ffb840"/><path d="M278.45317,124.01959c-0.00779,-0.09345 0.05453,-0.12758 0.09359,-0.13973c-0.3471,-0.13794 -0.7048,-0.25517 -1.04856,-0.39563c-0.16882,-0.06898 -0.35125,-0.08123 -0.52373,-0.13824c0,0 -0.12847,-0.04282 -0.08564,-0.17129c0.04282,-0.12847 0.17129,-0.08564 0.17129,-0.08564c0.17794,0.05988 0.3619,0.07278 0.53793,0.14342c0.40662,0.16316 0.8317,0.3001 1.23636,0.47303c-0.03927,-0.06103 -0.07504,-0.12437 -0.10741,-0.18909c0,0 -0.06056,-0.12112 0.06056,-0.18168c0.12112,-0.06056 0.18168,0.06056 0.18168,0.06056c0.04286,0.08572 0.25291,0.48024 0.2333,0.56278c-0.03401,0.14315 -0.37881,0.16077 -0.46527,0.1735l-0.1379,0.01173c0,0 -0.13495,0.01125 -0.14619,-0.1237z" fill="#ffb840"/></g><g fill="#ffe8bf" stroke-width="0.5"><path d="M278.80178,141.00139c-0.02572,0.1035 -0.05029,0.20798 -0.07907,0.31256c0,0 -0.0518,0.18814 -0.23995,0.13634c-0.18814,-0.0518 -0.13635,-0.23994 -0.13635,-0.23994c0.10166,-0.36909 0.15274,-0.87451 0.41679,-1.17882c0.086,-0.09912 0.17362,-0.22606 0.3022,-0.25234c0.11437,-0.02338 0.22171,0.07465 0.32769,0.12359c0.08401,0.03879 0.15582,0.07096 0.2139,0.10937c-0.01472,-0.05413 -0.03082,-0.10768 -0.055,-0.15805c-0.13429,-0.27969 -0.42406,-0.34683 -0.68126,-0.4762c-0.19719,-0.09918 -0.3704,-0.20511 -0.56451,-0.27256c-0.08167,0.0349 -0.16789,-0.00846 -0.16789,-0.00846c-0.01816,-0.01208 -0.03484,-0.03062 -0.05195,-0.04731c-0.00923,-0.00145 -0.01852,-0.00281 -0.02789,-0.00406c0,0 -0.03671,-0.00533 -0.0758,-0.02736c-0.08855,0.02341 -0.16217,0.09382 -0.24603,0.13371c-0.18498,0.08799 -0.38628,0.13673 -0.57676,0.21207c-0.19771,0.07821 -0.35833,0.22897 -0.53675,0.34462c-0.10921,0.07078 -0.24161,0.10121 -0.34964,0.17379c-0.13115,0.08812 -0.25727,0.19232 -0.3777,0.3035c0.07142,-0.00497 0.13137,0.03521 0.13137,0.03521c0.34037,0.2281 0.54756,0.37085 0.81481,0.6853l0.12862,0.15274c0.05114,0.05801 0.06483,0.14351 0.02795,0.21683c-0.04315,0.08577 -0.14095,0.12591 -0.22985,0.09942c-0.00343,0.01344 -0.00835,0.02673 -0.01484,0.03963c-0.04514,0.08974 -0.15013,0.12954 -0.24216,0.0953l-0.01216,-0.00432c0.0273,0.01635 0.11699,0.07889 0.1019,0.1872c0.10864,-0.05037 0.48929,-0.23412 0.58327,-0.24404c0.39072,-0.04123 0.75586,0.16853 1.08678,0.33605c0.20086,0.10167 0.41239,0.18612 0.53746,0.3976c0.00043,0.00073 0.00085,0.00145 0.00127,0.00219c0.03661,-0.01046 0.07636,-0.01029 0.11424,0.00214l0.1935,0.05977c0.04666,-0.02289 0.10902,-0.04044 0.19045,-0.05089c0.05057,-0.00649 0.0961,0.00664 0.13863,0.03148l0.01033,-0.02054l0.20921,0.10522c0.09628,0.04843 0.13507,0.16575 0.08664,0.26203c-0.01563,0.03107 -0.03844,0.05616 -0.0654,0.07426c0.00731,0.01099 0.01399,0.02229 0.01997,0.03394l0.09742,0.04901c0.04931,0.02481 0.08354,0.06767 0.09869,0.11652c0.05044,-0.16326 0.11165,-0.31738 0.1466,-0.50001c0.03119,-0.16299 -0.01186,-0.3322 -0.00175,-0.49783c0.00643,-0.1053 0.0698,-0.2031 0.07037,-0.3086c0.00065,-0.11903 -0.04961,-0.23301 -0.06676,-0.3508c-0.01074,-0.07381 0.01547,-0.15588 -0.01678,-0.22314c-0.03558,-0.07419 -0.14003,-0.10007 -0.17412,-0.17496c-0.04274,-0.09389 -0.01236,-0.20832 -0.04491,-0.30621c-0.00966,-0.02904 -0.02297,-0.05647 -0.03797,-0.08315c-0.00001,0.00102 -0.00002,0.00206 -0.00004,0.00308c-0.00069,0.04724 -0.2415,0.52238 -0.27758,0.55182c-0.08792,0.07174 -0.21337,0.07732 -0.32006,0.11598l-0.2894,-0.03677c0,0 -0.04592,-0.00667 -0.08972,-0.0359zM278.903,140.65037c0.02624,-0.00198 0.04462,0.00069 0.04462,0.00069l0.19915,0.03422c0.07676,-0.01752 0.32394,-0.29903 0.22009,-0.37542c-0.04301,-0.03164 -0.10349,-0.03074 -0.14916,-0.0584c-0.03581,-0.02169 -0.04893,-0.08959 -0.0907,-0.08686c-0.03563,0.00233 -0.03199,0.06385 -0.04773,0.0959c-0.02981,0.06072 -0.05869,0.12189 -0.08893,0.1824c-0.03396,0.06795 -0.06245,0.13722 -0.08734,0.20747zM276.177,141.78011c-0.01281,-0.00644 -0.02583,-0.01256 -0.03901,-0.01846c-0.01664,0.02092 -0.03709,0.03776 -0.05981,0.05002c0.02159,0.01212 0.04287,0.02479 0.06375,0.03817c0.02925,0.01873 0.0449,0.07476 0.0722,0.08618c0.00991,-0.0027 0.02041,-0.00453 0.0315,-0.00526c0.02731,-0.01695 0.03801,-0.05534 0.053,-0.08948zM275.4135,141.37511c-0.03821,-0.04903 -0.05156,-0.11468 -0.03312,-0.17605c-0.002,-0.00266 -0.00399,-0.00532 -0.006,-0.00799l-0.0026,0.00332l-0.23024,-0.17997c-0.08505,0.02443 -0.19866,0.02538 -0.18166,0.09408c0.03439,0.13897 0.16386,0.12522 0.2615,0.19256c0.10037,0.0692 0.19675,0.1455 0.29717,0.21485zM275.59543,140.5381l-0.00062,0.00447c0.0106,0.00045 0.02121,0.00128 0.03184,0.00251c0.0157,0.00181 0.03101,0.00493 0.04598,0.00911c0.04666,-0.01953 0.1006,-0.02092 0.15019,-0.00029c-0.00427,-0.00286 -0.00857,-0.00574 -0.0129,-0.00864c0,0 -0.11047,-0.07404 -0.0879,-0.19107c-0.05843,0.05904 -0.11529,0.11871 -0.1705,0.17783zM279.04611,139.02925c0.35459,0.17837 0.65134,0.26796 0.85201,0.64456c0.06353,0.11922 0.07688,0.25955 0.12898,0.38419c0.04512,0.10793 0.12527,0.20029 0.1618,0.31143c0.0264,0.0803 -0.01191,0.17576 0.02357,0.25249c0.03453,0.07468 0.14083,0.09971 0.17412,0.17496c0.04578,0.1035 0.03348,0.22387 0.05169,0.33557c0.02271,0.13933 0.07098,0.27634 0.07103,0.41752c0.00004,0.10906 -0.06409,0.21056 -0.07077,0.31942c-0.0056,0.09117 0.03518,0.18053 0.03447,0.27186c-0.00096,0.12378 -0.08602,0.5272 -0.11746,0.62183c-0.04584,0.13794 -0.11213,0.27173 -0.13134,0.41581c-0.02726,0.17631 -0.04273,0.53891 -0.27258,0.61068c-0.13444,0.04198 -0.26293,-0.10248 -0.39883,-0.13945c-0.15271,-0.04155 -0.309,-0.07607 -0.45347,-0.14073c-0.08295,-0.03713 -0.21189,-0.03429 -0.29389,-0.0703c-0.04588,0.08537 -0.09465,0.16843 -0.13707,0.24954c-0.04494,0.0859 -0.06828,0.18871 -0.13812,0.25595c-0.23185,0.22325 -0.37726,0.19662 -0.66766,0.23397c-0.60659,-0.08976 -1.36786,-0.44301 -1.64012,-1.02705c-0.01356,-0.02909 -0.15317,-0.46379 -0.15469,-0.4814c-0.01175,-0.1363 0.02208,-0.28112 -0.0247,-0.40968l0.00055,-0.0026c-0.18099,-0.08143 -0.38851,-0.21595 -0.49547,-0.26975c-0.19408,-0.09868 -0.36519,-0.23732 -0.54343,-0.36236c-0.22117,-0.15515 -0.4206,-0.10966 -0.43498,-0.50729c-0.00484,-0.13358 0.0841,-0.26186 0.1728,-0.36186c0.04883,-0.05506 0.15389,-0.02125 0.20962,-0.06932c0.04825,-0.04162 0.03752,-0.12421 0.0747,-0.17596c0.05265,-0.07325 0.1291,-0.12614 0.19013,-0.19257c0.60169,-0.65503 1.34157,-1.13639 2.17111,-1.44067c0.17238,-0.06323 0.49926,-0.24736 0.63418,-0.25577c0.05475,-0.00341 0.10493,0.01927 0.1541,0.04776c0.32225,0.06222 0.56978,0.20836 0.86972,0.35923zM278.99023,142.89726c-0.01057,-0.01832 -0.01807,-0.03825 -0.02228,-0.05893c0.00058,0.00436 0.00109,0.00874 0.00151,0.01313c0.00228,0.02342 0.00322,0.04667 0.00297,0.06973c0.00592,-0.00804 0.01185,-0.01602 0.0178,-0.02393zM278.98488,142.71193c0.0159,-0.03161 0.03923,-0.05702 0.06679,-0.07519l-0.16805,-0.05319c0.02852,0.07896 0.067,0.15548 0.08156,0.23711c-0.00396,-0.03616 0.00214,-0.07382 0.0197,-0.10873zM279.35046,143.11426l-0.01661,-0.00836c-0.01553,0.01842 -0.03212,0.03664 -0.04936,0.0533c0.04712,0.02596 0.09001,0.06723 0.1413,0.08314c0.07859,0.02438 0.16891,0.00248 0.24428,0.03549c0.06493,0.02843 0.09369,0.11369 0.15903,0.14116c0.02608,0.01096 -0.02048,-0.05428 -0.01964,-0.08256c0.00215,-0.07183 0.01901,-0.14247 0.02851,-0.2137c0.00396,-0.02557 0.0085,-0.05058 0.01353,-0.07512c-0.05801,0.05477 -0.14631,0.07033 -0.2217,0.0324l-0.03742,-0.01882c-0.09168,0.12863 -0.24192,0.05306 -0.24192,0.05306zM276.44148,142.21545c0.02233,0.05768 0.04532,0.11523 0.05058,0.17624c0.00707,0.08197 -0.04045,0.16214 -0.0355,0.24427c0.03287,0.54519 0.48803,0.75177 0.90295,0.96222c0.16108,0.08171 0.32857,0.16485 0.50743,0.19007c0.37846,-0.04274 0.39605,-0.16617 0.55799,-0.48424c0.04926,-0.09674 0.17756,-0.28125 0.15573,-0.41846c-0.01601,-0.1006 -0.07777,-0.18936 -0.09998,-0.28877c-0.01676,-0.07502 0.02008,-0.16215 -0.01593,-0.23007c-0.03558,-0.06713 -0.11586,-0.09913 -0.18009,-0.13972c-0.27673,-0.17485 -0.7107,-0.42151 -1.05513,-0.39021c-0.18586,0.01688 -0.33719,0.16055 -0.51011,0.23077c-0.05769,0.02343 -0.12541,0.02197 -0.17884,0.05395c-0.03772,0.02258 -0.06851,0.05856 -0.09911,0.09393z"/><path d="M276.87223,143.00357c-0.17433,-0.08769 -0.08665,-0.26202 -0.08665,-0.26202c0.10523,-0.2092 0.28061,-0.55786 0.38584,-0.76706c0,0 0.08768,-0.17433 0.26201,-0.08664c0.17433,0.08769 0.08665,0.26202 0.08665,0.26202c-0.10523,0.2092 -0.21046,0.41839 -0.31569,0.62759l-0.07015,0.13946c0,0 -0.08769,0.17433 -0.26202,0.08665z"/><path d="M277.60421,143.45914c-0.1582,-0.07957 -0.10062,-0.23048 -0.08861,-0.25774c-0.02734,-0.06916 -0.05852,-0.13796 -0.05255,-0.21024c0.01656,-0.20061 0.24383,-0.51778 0.33598,-0.70097c0,0 0.08769,-0.17433 0.26202,-0.08665c0.17433,0.08769 0.08665,0.26202 0.08665,0.26202c-0.10789,0.21449 -0.33537,0.46487 -0.23543,0.68826l-0.04602,0.21868c0,0 -0.08769,0.17433 -0.26203,0.08664zM277.53437,143.25226l0.00734,0.02409c-0.00222,-0.00805 -0.00469,-0.01608 -0.00734,-0.02409z"/><path d="M277.93894,141.26756c-0.18121,-0.07241 -0.10879,-0.25363 -0.10879,-0.25363l0.05496,-0.13587c0.00312,-0.01005 0.0669,-0.22365 0.12754,-0.40925c-0.38031,-0.0451 -0.32434,-0.27959 -0.29914,-0.56205c-0.14846,0.17284 -0.30442,0.33771 -0.46604,0.5086c0,0 -0.1341,0.14179 -0.27588,0.0077c-0.14178,-0.13409 -0.00769,-0.27587 -0.00769,-0.27587c0.26748,-0.28282 0.51968,-0.5461 0.74464,-0.86429l0.11143,-0.15718c0.05432,-0.07939 0.16031,-0.10834 0.24862,-0.06392c0.07842,0.03945 0.11871,0.12459 0.10478,0.20685l-0.03408,0.23454c0.00809,0.1295 -0.01179,0.25987 -0.0333,0.38783c-0.00952,0.05662 -0.06383,0.10453 -0.05921,0.16177c0.00226,0.02808 0.04983,0.05026 0.07535,0.03832c0.02329,-0.0109 0.02954,-0.03928 0.03715,-0.06624l-0.00573,-0.00288l0.10523,-0.2092c0.04843,-0.09628 0.16574,-0.13506 0.26202,-0.08663c0.09049,0.04551 0.1302,0.15187 0.09444,0.24443l-0.13499,0.36369c-0.03527,0.22929 -0.15369,0.43788 -0.2224,0.65945l-0.06528,0.16503c0,0 -0.07243,0.18121 -0.25363,0.1088z"/></g></g></g></svg>