<svg version="1.1" xmlns="http://www.w3.org/2000/svg" xmlns:xlink="http://www.w3.org/1999/xlink" width="645.90303" height="363.11906" viewBox="0,0,645.90303,363.11906"><defs><linearGradient x1="320.09089" y1="101.62642" x2="320.09089" y2="335.36352" gradientUnits="userSpaceOnUse" id="color-1"><stop offset="0" stop-color="#6b857b"/><stop offset="1" stop-color="#758569"/></linearGradient><linearGradient x1="320.37476" y1="106.22542" x2="320.37476" y2="109.47176" gradientUnits="userSpaceOnUse" id="color-2"><stop offset="0" stop-color="#000000" stop-opacity="0"/><stop offset="1" stop-color="#000000"/></linearGradient><linearGradient x1="320.30547" y1="128.13826" x2="320.30547" y2="146.85888" gradientUnits="userSpaceOnUse" id="color-3"><stop offset="0" stop-color="#000000"/><stop offset="1" stop-color="#000000" stop-opacity="0"/></linearGradient><linearGradient x1="192.4223" y1="242.02563" x2="192.85699" y2="268.52206" gradientUnits="userSpaceOnUse" id="color-4"><stop offset="0" stop-color="#408cff"/><stop offset="1" stop-color="#0070cc"/></linearGradient></defs><g transform="translate(1.62559,0.49999)"><g data-paper-data="{&quot;isPaintingLayer&quot;:true}" fill-rule="nonzero" stroke-linejoin="miter" stroke-miterlimit="10" stroke-dasharray="" stroke-dashoffset="0" style="mix-blend-mode: normal"><path d="M-1.62559,335.36352v-233.7371h643.43298v233.7371z" fill="url(#color-1)" stroke-opacity="0.50588" stroke="#000000" stroke-width="0" stroke-linecap="butt"/><path d="M105.54741,335.90458v-206.6842" fill="none" stroke-opacity="0.50588" stroke="#000000" stroke-width="1" stroke-linecap="round"/><path d="M641.87502,128.54406h-640.49854" fill="none" stroke="#000000" stroke-width="2" stroke-linecap="round"/><path d="M640.62405,107.84859h-640.49854" fill="none" stroke="url(#color-2)" stroke-width="2" stroke-linecap="round"/><path d="M-1.05554,146.85888v-18.72062h642.72207v18.72062z" fill="url(#color-3)" stroke-opacity="0.50588" stroke="#000000" stroke-width="0" stroke-linecap="butt"/><path d="M-1.05424,362.2v-26.9988h642.72076v26.9988z" fill="#737b7b" stroke-opacity="0.50588" stroke="#000000" stroke-width="0" stroke-linecap="butt"/><path d="M3.39563,357.11405v-18.17955h47.07206v18.17955z" fill="#080000" stroke-opacity="0.50588" stroke="#000000" stroke-width="0" stroke-linecap="butt"/><path d="M55.66184,357.11405v-18.17955h47.07206v18.17955z" fill="#080000" stroke-opacity="0.50588" stroke="#000000" stroke-width="0" stroke-linecap="butt"/><path d="M106.52132,357.11405v-18.17955h47.07205v18.17955z" fill="#080000" stroke-opacity="0.50588" stroke="#000000" stroke-width="0" stroke-linecap="butt"/><path d="M157.7054,357.11405v-18.17955h47.07206v18.17955z" fill="#080000" stroke-opacity="0.50588" stroke="#000000" stroke-width="0" stroke-linecap="butt"/><path d="M60.23379,176.29244c0,-0.22411 0.18168,-0.4058 0.40579,-0.4058c0.22411,0 0.40579,0.18169 0.40579,0.4058c0,0.22411 -0.18168,0.40579 -0.40579,0.40579c-0.22411,0 -0.40579,-0.18168 -0.40579,-0.40579z" fill="#588573" stroke="none" stroke-width="0.5" stroke-linecap="butt"/><path d="M53.74108,194.68842c0,-0.22411 0.18168,-0.40579 0.40579,-0.40579c0.22411,0 0.4058,0.18168 0.4058,0.40579c0,0.22411 -0.18169,0.40579 -0.4058,0.40579c-0.22411,0 -0.40579,-0.18168 -0.40579,-0.40579z" fill="#588573" stroke="none" stroke-width="0.5" stroke-linecap="butt"/><path d="M59.69273,160.60176c0,-0.22411 0.18168,-0.40579 0.40579,-0.40579c0.22411,0 0.4058,0.18168 0.4058,0.40579c0,0.22411 -0.18169,0.40579 -0.4058,0.40579c-0.22411,0 -0.40579,-0.18168 -0.40579,-0.40579z" fill="#588573" stroke="none" stroke-width="0.5" stroke-linecap="butt"/><path d="M78.62977,179.53879c0,-0.22411 0.18169,-0.40579 0.40579,-0.40579c0.22411,0 0.40579,0.18168 0.40579,0.40579c0,0.22411 -0.18169,0.40579 -0.40579,0.40579c-0.22411,0 -0.40579,-0.18168 -0.40579,-0.40579z" fill="#588573" stroke="none" stroke-width="0.5" stroke-linecap="butt"/><path d="M41.83781,195.77053c0,-0.22411 0.18168,-0.40579 0.40579,-0.40579c0.22411,0 0.4058,0.18168 0.4058,0.40579c0,0.22411 -0.18169,0.4058 -0.4058,0.4058c-0.22411,0 -0.40579,-0.18169 -0.40579,-0.4058z" fill="#588573" stroke="none" stroke-width="0.5" stroke-linecap="butt"/><path d="M24.41574,166.44518c0,-0.22411 0.18169,-0.40579 0.4058,-0.40579c0.22411,0 0.4058,0.18168 0.4058,0.40579c0,0.22411 -0.18169,0.4058 -0.4058,0.4058c-0.22411,0 -0.4058,-0.18169 -0.4058,-0.4058z" fill="#588573" stroke="none" stroke-width="0.5" stroke-linecap="butt"/><path d="M261.66184,357.11405v-18.17955h47.07205v18.17955z" fill="#080000" stroke-opacity="0.50588" stroke="#000000" stroke-width="0" stroke-linecap="butt"/><path d="M312.52133,357.11405v-18.17955h47.07205v18.17955z" fill="#080000" stroke-opacity="0.50588" stroke="#000000" stroke-width="0" stroke-linecap="butt"/><path d="M363.70541,357.11405v-18.17955h47.07206v18.17955z" fill="#080000" stroke-opacity="0.50588" stroke="#000000" stroke-width="0" stroke-linecap="butt"/><path d="M414.89565,357.11405v-18.17955h47.07205v18.17955z" fill="#080000" stroke-opacity="0.50588" stroke="#000000" stroke-width="0" stroke-linecap="butt"/><path d="M467.16186,357.11405v-18.17955h47.07205v18.17955z" fill="#080000" stroke-opacity="0.50588" stroke="#000000" stroke-width="0" stroke-linecap="butt"/><path d="M518.02131,357.11405v-18.17955h47.07206v18.17955z" fill="#080000" stroke-opacity="0.50588" stroke="#000000" stroke-width="0" stroke-linecap="butt"/><path d="M569.20539,357.11405v-18.17955h47.07206v18.17955z" fill="#080000" stroke-opacity="0.50588" stroke="#000000" stroke-width="0" stroke-linecap="butt"/><path d="M621.20539,357.11405v-18.17955h23.07205v18.17955z" fill="#080000" stroke-opacity="0.50588" stroke="#000000" stroke-width="0" stroke-linecap="butt"/><path d="M-0.83332,101.43399v-101.43398h101.83334v101.43399z" fill="#413834" stroke="#000000" stroke-width="1" stroke-linecap="butt"/><path d="M1.69587,3.92691c0,-0.69842 0.56618,-1.26459 1.2646,-1.26459c0.69842,0 1.2646,0.56618 1.2646,1.26459c0,0.69842 -0.56618,1.2646 -1.2646,1.2646c-0.69842,0 -1.2646,-0.56618 -1.2646,-1.2646z" fill="none" stroke="#000000" stroke-width="1" stroke-linecap="butt"/><path d="M44.8253,3.92691c0,-0.69842 0.56618,-1.26459 1.26459,-1.26459c0.69841,0 1.26459,0.56618 1.26459,1.26459c0,0.69842 -0.56618,1.2646 -1.26459,1.2646c-0.69841,0 -1.26459,-0.56618 -1.26459,-1.2646z" fill="none" stroke="#000000" stroke-width="1" stroke-linecap="butt"/><path d="M53.21156,3.92691c0,-0.69842 0.56618,-1.26459 1.26459,-1.26459c0.69841,0 1.2646,0.56618 1.2646,1.26459c0,0.69842 -0.56619,1.2646 -1.2646,1.2646c-0.69841,0 -1.26459,-0.56618 -1.26459,-1.2646z" fill="none" stroke="#000000" stroke-width="1" stroke-linecap="butt"/><path d="M96.54066,3.92691c0,-0.69842 0.56618,-1.26459 1.26459,-1.26459c0.69841,0 1.2646,0.56618 1.2646,1.26459c0,0.69842 -0.56619,1.2646 -1.2646,1.2646c-0.69841,0 -1.26459,-0.56618 -1.26459,-1.2646z" fill="none" stroke="#000000" stroke-width="1" stroke-linecap="butt"/><path d="M1.69587,98.77168c0,-0.69841 0.56618,-1.26459 1.2646,-1.26459c0.69842,0 1.2646,0.56618 1.2646,1.26459c0,0.69841 -0.56618,1.2646 -1.2646,1.2646c-0.69842,0 -1.2646,-0.56619 -1.2646,-1.2646z" fill="none" stroke="#000000" stroke-width="1" stroke-linecap="butt"/><path d="M44.8253,98.77168c0,-0.69841 0.56618,-1.26459 1.26459,-1.26459c0.69841,0 1.26459,0.56618 1.26459,1.26459c0,0.69841 -0.56618,1.2646 -1.26459,1.2646c-0.69841,0 -1.26459,-0.56619 -1.26459,-1.2646z" fill="none" stroke="#000000" stroke-width="1" stroke-linecap="butt"/><path d="M53.21156,98.77168c0,-0.69841 0.56618,-1.26459 1.26459,-1.26459c0.69841,0 1.2646,0.56618 1.2646,1.26459c0,0.69841 -0.56619,1.2646 -1.2646,1.2646c-0.69841,0 -1.26459,-0.56619 -1.26459,-1.2646z" fill="none" stroke="#000000" stroke-width="1" stroke-linecap="butt"/><path d="M96.54066,98.77168c0,-0.69841 0.56618,-1.26459 1.26459,-1.26459c0.69841,0 1.2646,0.56618 1.2646,1.26459c0,0.69841 -0.56619,1.2646 -1.2646,1.2646c-0.69841,0 -1.26459,-0.56619 -1.26459,-1.2646z" fill="none" stroke="#000000" stroke-width="1" stroke-linecap="butt"/><path d="M50.18318,0.59902v100.03628" fill="none" stroke="#000000" stroke-width="2" stroke-linecap="round"/><path d="M101.66669,101.43399v-101.43398h101.83334v101.43399z" fill="#413834" stroke="#000000" stroke-width="1" stroke-linecap="butt"/><path d="M104.19588,3.92691c0,-0.69842 0.56618,-1.26459 1.26459,-1.26459c0.69841,0 1.2646,0.56618 1.2646,1.26459c0,0.69842 -0.56619,1.2646 -1.2646,1.2646c-0.69841,0 -1.26459,-0.56618 -1.26459,-1.2646z" fill="none" stroke="#000000" stroke-width="1" stroke-linecap="butt"/><path d="M147.32529,3.92691c0,-0.69842 0.56618,-1.26459 1.26459,-1.26459c0.69842,0 1.2646,0.56618 1.2646,1.26459c0,0.69842 -0.56618,1.2646 -1.2646,1.2646c-0.69842,0 -1.26459,-0.56618 -1.26459,-1.2646z" fill="none" stroke="#000000" stroke-width="1" stroke-linecap="butt"/><path d="M155.71156,3.92691c0,-0.69842 0.56617,-1.26459 1.26459,-1.26459c0.69842,0 1.2646,0.56618 1.2646,1.26459c0,0.69842 -0.56618,1.2646 -1.2646,1.2646c-0.69842,0 -1.26459,-0.56618 -1.26459,-1.2646z" fill="none" stroke="#000000" stroke-width="1" stroke-linecap="butt"/><path d="M199.04066,3.92691c0,-0.69842 0.56617,-1.26459 1.26459,-1.26459c0.69842,0 1.2646,0.56618 1.2646,1.26459c0,0.69842 -0.56618,1.2646 -1.2646,1.2646c-0.69842,0 -1.26459,-0.56618 -1.26459,-1.2646z" fill="none" stroke="#000000" stroke-width="1" stroke-linecap="butt"/><path d="M104.19588,98.77168c0,-0.69841 0.56618,-1.26459 1.26459,-1.26459c0.69841,0 1.2646,0.56618 1.2646,1.26459c0,0.69841 -0.56619,1.2646 -1.2646,1.2646c-0.69841,0 -1.26459,-0.56619 -1.26459,-1.2646z" fill="none" stroke="#000000" stroke-width="1" stroke-linecap="butt"/><path d="M147.32529,98.77168c0,-0.69841 0.56618,-1.26459 1.26459,-1.26459c0.69842,0 1.2646,0.56618 1.2646,1.26459c0,0.69841 -0.56618,1.2646 -1.2646,1.2646c-0.69842,0 -1.26459,-0.56619 -1.26459,-1.2646z" fill="none" stroke="#000000" stroke-width="1" stroke-linecap="butt"/><path d="M155.71156,98.77168c0,-0.69841 0.56617,-1.26459 1.26459,-1.26459c0.69842,0 1.2646,0.56618 1.2646,1.26459c0,0.69841 -0.56618,1.2646 -1.2646,1.2646c-0.69842,0 -1.26459,-0.56619 -1.26459,-1.2646z" fill="none" stroke="#000000" stroke-width="1" stroke-linecap="butt"/><path d="M199.04066,98.77168c0,-0.69841 0.56617,-1.26459 1.26459,-1.26459c0.69842,0 1.2646,0.56618 1.2646,1.26459c0,0.69841 -0.56618,1.2646 -1.2646,1.2646c-0.69842,0 -1.26459,-0.56619 -1.26459,-1.2646z" fill="none" stroke="#000000" stroke-width="1" stroke-linecap="butt"/><path d="M152.68318,100.6353v-100.03628" fill="none" stroke="#000000" stroke-width="2" stroke-linecap="round"/><path d="M203.66669,101.43399v-101.43398h101.83334v101.43399z" fill="#413834" stroke="#000000" stroke-width="1" stroke-linecap="butt"/><path d="M206.19588,3.92691c0,-0.69842 0.56618,-1.26459 1.26459,-1.26459c0.69842,0 1.2646,0.56618 1.2646,1.26459c0,0.69842 -0.56618,1.2646 -1.2646,1.2646c-0.69842,0 -1.26459,-0.56618 -1.26459,-1.2646z" fill="none" stroke="#000000" stroke-width="1" stroke-linecap="butt"/><path d="M249.3253,3.92691c0,-0.69842 0.56618,-1.26459 1.26459,-1.26459c0.69842,0 1.2646,0.56618 1.2646,1.26459c0,0.69842 -0.56618,1.2646 -1.2646,1.2646c-0.69842,0 -1.26459,-0.56618 -1.26459,-1.2646z" fill="none" stroke="#000000" stroke-width="1" stroke-linecap="butt"/><path d="M257.71155,3.92691c0,-0.69842 0.56617,-1.26459 1.26459,-1.26459c0.69842,0 1.2646,0.56618 1.2646,1.26459c0,0.69842 -0.56619,1.2646 -1.2646,1.2646c-0.69842,0 -1.26459,-0.56618 -1.26459,-1.2646z" fill="none" stroke="#000000" stroke-width="1" stroke-linecap="butt"/><path d="M301.04067,3.92691c0,-0.69842 0.56617,-1.26459 1.26459,-1.26459c0.69842,0 1.2646,0.56618 1.2646,1.26459c0,0.69842 -0.56618,1.2646 -1.2646,1.2646c-0.69842,0 -1.26459,-0.56618 -1.26459,-1.2646z" fill="none" stroke="#000000" stroke-width="1" stroke-linecap="butt"/><path d="M206.19588,98.77168c0,-0.69841 0.56618,-1.26459 1.26459,-1.26459c0.69842,0 1.2646,0.56618 1.2646,1.26459c0,0.69841 -0.56618,1.2646 -1.2646,1.2646c-0.69842,0 -1.26459,-0.56619 -1.26459,-1.2646z" fill="none" stroke="#000000" stroke-width="1" stroke-linecap="butt"/><path d="M249.3253,98.77168c0,-0.69841 0.56618,-1.26459 1.26459,-1.26459c0.69842,0 1.2646,0.56618 1.2646,1.26459c0,0.69841 -0.56618,1.2646 -1.2646,1.2646c-0.69842,0 -1.26459,-0.56619 -1.26459,-1.2646z" fill="none" stroke="#000000" stroke-width="1" stroke-linecap="butt"/><path d="M257.71155,98.77168c0,-0.69841 0.56617,-1.26459 1.26459,-1.26459c0.69842,0 1.2646,0.56618 1.2646,1.26459c0,0.69841 -0.56619,1.2646 -1.2646,1.2646c-0.69842,0 -1.26459,-0.56619 -1.26459,-1.2646z" fill="none" stroke="#000000" stroke-width="1" stroke-linecap="butt"/><path d="M301.04067,98.77168c0,-0.69841 0.56617,-1.26459 1.26459,-1.26459c0.69842,0 1.2646,0.56618 1.2646,1.26459c0,0.69841 -0.56618,1.2646 -1.2646,1.2646c-0.69842,0 -1.26459,-0.56619 -1.26459,-1.2646z" fill="none" stroke="#000000" stroke-width="1" stroke-linecap="butt"/><path d="M254.68318,0.59902v100.03628" fill="none" stroke="#000000" stroke-width="2" stroke-linecap="round"/><path d="M306.16668,101.43399v-101.43398h101.83333v101.43399z" fill="#413834" stroke="#000000" stroke-width="1" stroke-linecap="butt"/><path d="M308.69588,3.92691c0,-0.69842 0.56618,-1.26459 1.2646,-1.26459c0.69842,0 1.2646,0.56618 1.2646,1.26459c0,0.69842 -0.56618,1.2646 -1.2646,1.2646c-0.69842,0 -1.2646,-0.56618 -1.2646,-1.2646z" fill="none" stroke="#000000" stroke-width="1" stroke-linecap="butt"/><path d="M351.82531,3.92691c0,-0.69842 0.56618,-1.26459 1.2646,-1.26459c0.69842,0 1.26459,0.56618 1.26459,1.26459c0,0.69842 -0.56618,1.2646 -1.26459,1.2646c-0.69842,0 -1.2646,-0.56618 -1.2646,-1.2646z" fill="none" stroke="#000000" stroke-width="1" stroke-linecap="butt"/><path d="M360.21158,3.92691c0,-0.69842 0.56617,-1.26459 1.26459,-1.26459c0.69842,0 1.2646,0.56618 1.2646,1.26459c0,0.69842 -0.56619,1.2646 -1.2646,1.2646c-0.69842,0 -1.26459,-0.56618 -1.26459,-1.2646z" fill="none" stroke="#000000" stroke-width="1" stroke-linecap="butt"/><path d="M403.54067,3.92691c0,-0.69842 0.56617,-1.26459 1.26459,-1.26459c0.69842,0 1.2646,0.56618 1.2646,1.26459c0,0.69842 -0.56618,1.2646 -1.2646,1.2646c-0.69842,0 -1.26459,-0.56618 -1.26459,-1.2646z" fill="none" stroke="#000000" stroke-width="1" stroke-linecap="butt"/><path d="M308.69588,98.77168c0,-0.69841 0.56618,-1.26459 1.2646,-1.26459c0.69842,0 1.2646,0.56618 1.2646,1.26459c0,0.69841 -0.56618,1.2646 -1.2646,1.2646c-0.69842,0 -1.2646,-0.56619 -1.2646,-1.2646z" fill="none" stroke="#000000" stroke-width="1" stroke-linecap="butt"/><path d="M351.82531,98.77168c0,-0.69841 0.56618,-1.26459 1.2646,-1.26459c0.69842,0 1.26459,0.56618 1.26459,1.26459c0,0.69841 -0.56618,1.2646 -1.26459,1.2646c-0.69842,0 -1.2646,-0.56619 -1.2646,-1.2646z" fill="none" stroke="#000000" stroke-width="1" stroke-linecap="butt"/><path d="M360.21158,98.77168c0,-0.69841 0.56617,-1.26459 1.26459,-1.26459c0.69842,0 1.2646,0.56618 1.2646,1.26459c0,0.69841 -0.56619,1.2646 -1.2646,1.2646c-0.69842,0 -1.26459,-0.56619 -1.26459,-1.2646z" fill="none" stroke="#000000" stroke-width="1" stroke-linecap="butt"/><path d="M403.54067,98.77168c0,-0.69841 0.56617,-1.26459 1.26459,-1.26459c0.69842,0 1.2646,0.56618 1.2646,1.26459c0,0.69841 -0.56618,1.2646 -1.2646,1.2646c-0.69842,0 -1.26459,-0.56619 -1.26459,-1.2646z" fill="none" stroke="#000000" stroke-width="1" stroke-linecap="butt"/><path d="M357.1832,0.59902v100.03628" fill="none" stroke="#000000" stroke-width="2" stroke-linecap="round"/><path d="M407.90131,101.44637v-101.43398h101.83333v101.43399z" fill="#413834" stroke="#000000" stroke-width="1" stroke-linecap="butt"/><path d="M410.4305,3.93929c0,-0.69842 0.56618,-1.2646 1.26459,-1.2646c0.69842,0 1.2646,0.56618 1.2646,1.2646c0,0.69842 -0.56618,1.2646 -1.2646,1.2646c-0.69842,0 -1.26459,-0.56618 -1.26459,-1.2646z" fill="none" stroke="#000000" stroke-width="1" stroke-linecap="butt"/><path d="M453.55992,3.93929c0,-0.69842 0.56618,-1.2646 1.26459,-1.2646c0.69842,0 1.26459,0.56618 1.26459,1.2646c0,0.69842 -0.56618,1.2646 -1.26459,1.2646c-0.69842,0 -1.26459,-0.56618 -1.26459,-1.2646z" fill="none" stroke="#000000" stroke-width="1" stroke-linecap="butt"/><path d="M461.94619,3.93929c0,-0.69842 0.56617,-1.2646 1.26459,-1.2646c0.69842,0 1.2646,0.56618 1.2646,1.2646c0,0.69842 -0.56618,1.2646 -1.2646,1.2646c-0.69842,0 -1.26459,-0.56618 -1.26459,-1.2646z" fill="none" stroke="#000000" stroke-width="1" stroke-linecap="butt"/><path d="M505.27528,3.93929c0,-0.69842 0.56617,-1.2646 1.26459,-1.2646c0.69842,0 1.2646,0.56618 1.2646,1.2646c0,0.69842 -0.56619,1.2646 -1.2646,1.2646c-0.69842,0 -1.26459,-0.56618 -1.26459,-1.2646z" fill="none" stroke="#000000" stroke-width="1" stroke-linecap="butt"/><path d="M410.4305,98.78406c0,-0.69841 0.56618,-1.26459 1.26459,-1.26459c0.69842,0 1.2646,0.56618 1.2646,1.26459c0,0.69841 -0.56618,1.2646 -1.2646,1.2646c-0.69842,0 -1.26459,-0.56619 -1.26459,-1.2646z" fill="none" stroke="#000000" stroke-width="1" stroke-linecap="butt"/><path d="M453.55992,98.78406c0,-0.69841 0.56618,-1.26459 1.26459,-1.26459c0.69842,0 1.26459,0.56618 1.26459,1.26459c0,0.69841 -0.56618,1.2646 -1.26459,1.2646c-0.69842,0 -1.26459,-0.56619 -1.26459,-1.2646z" fill="none" stroke="#000000" stroke-width="1" stroke-linecap="butt"/><path d="M461.94619,98.78406c0,-0.69841 0.56617,-1.26459 1.26459,-1.26459c0.69842,0 1.2646,0.56618 1.2646,1.26459c0,0.69841 -0.56618,1.2646 -1.2646,1.2646c-0.69842,0 -1.26459,-0.56619 -1.26459,-1.2646z" fill="none" stroke="#000000" stroke-width="1" stroke-linecap="butt"/><path d="M505.27528,98.78406c0,-0.69841 0.56617,-1.26459 1.26459,-1.26459c0.69842,0 1.2646,0.56618 1.2646,1.26459c0,0.69841 -0.56619,1.2646 -1.2646,1.2646c-0.69842,0 -1.26459,-0.56619 -1.26459,-1.2646z" fill="none" stroke="#000000" stroke-width="1" stroke-linecap="butt"/><path d="M458.91781,0.61141v100.03627" fill="none" stroke="#000000" stroke-width="2" stroke-linecap="round"/><path d="M510.40131,101.44637v-101.43398h101.83333v101.43399z" fill="#413834" stroke="#000000" stroke-width="1" stroke-linecap="butt"/><path d="M512.93049,3.93929c0,-0.69842 0.56618,-1.2646 1.26459,-1.2646c0.69841,0 1.2646,0.56618 1.2646,1.2646c0,0.69842 -0.56619,1.2646 -1.2646,1.2646c-0.69841,0 -1.26459,-0.56618 -1.26459,-1.2646z" fill="none" stroke="#000000" stroke-width="1" stroke-linecap="butt"/><path d="M556.05991,3.93929c0,-0.69842 0.56618,-1.2646 1.26459,-1.2646c0.69841,0 1.26459,0.56618 1.26459,1.2646c0,0.69842 -0.56618,1.2646 -1.26459,1.2646c-0.69841,0 -1.26459,-0.56618 -1.26459,-1.2646z" fill="none" stroke="#000000" stroke-width="1" stroke-linecap="butt"/><path d="M564.44618,3.93929c0,-0.69842 0.56618,-1.2646 1.26459,-1.2646c0.69841,0 1.2646,0.56618 1.2646,1.2646c0,0.69842 -0.56619,1.2646 -1.2646,1.2646c-0.69841,0 -1.26459,-0.56618 -1.26459,-1.2646z" fill="none" stroke="#000000" stroke-width="1" stroke-linecap="butt"/><path d="M607.77528,3.93929c0,-0.69842 0.56618,-1.2646 1.26459,-1.2646c0.69841,0 1.2646,0.56618 1.2646,1.2646c0,0.69842 -0.56619,1.2646 -1.2646,1.2646c-0.69841,0 -1.26459,-0.56618 -1.26459,-1.2646z" fill="none" stroke="#000000" stroke-width="1" stroke-linecap="butt"/><path d="M512.93049,98.78406c0,-0.69841 0.56618,-1.26459 1.26459,-1.26459c0.69841,0 1.2646,0.56618 1.2646,1.26459c0,0.69841 -0.56619,1.2646 -1.2646,1.2646c-0.69841,0 -1.26459,-0.56619 -1.26459,-1.2646z" fill="none" stroke="#000000" stroke-width="1" stroke-linecap="butt"/><path d="M556.05991,98.78406c0,-0.69841 0.56618,-1.26459 1.26459,-1.26459c0.69841,0 1.26459,0.56618 1.26459,1.26459c0,0.69841 -0.56618,1.2646 -1.26459,1.2646c-0.69841,0 -1.26459,-0.56619 -1.26459,-1.2646z" fill="none" stroke="#000000" stroke-width="1" stroke-linecap="butt"/><path d="M564.44618,98.78406c0,-0.69841 0.56618,-1.26459 1.26459,-1.26459c0.69841,0 1.2646,0.56618 1.2646,1.26459c0,0.69841 -0.56619,1.2646 -1.2646,1.2646c-0.69841,0 -1.26459,-0.56619 -1.26459,-1.2646z" fill="none" stroke="#000000" stroke-width="1" stroke-linecap="butt"/><path d="M607.77528,98.78406c0,-0.69841 0.56618,-1.26459 1.26459,-1.26459c0.69841,0 1.2646,0.56618 1.2646,1.26459c0,0.69841 -0.56619,1.2646 -1.2646,1.2646c-0.69841,0 -1.26459,-0.56619 -1.26459,-1.2646z" fill="none" stroke="#000000" stroke-width="1" stroke-linecap="butt"/><path d="M561.41781,100.64768v-100.03627" fill="none" stroke="#000000" stroke-width="2" stroke-linecap="round"/><path d="M612.10962,101.57137v-101.43398h30.83334v101.43399z" fill="#413834" stroke="#000000" stroke-width="1" stroke-linecap="butt"/><path d="M614.63884,4.06429c0,-0.69841 0.56618,-1.26459 1.26459,-1.26459c0.69841,0 1.2646,0.56618 1.2646,1.26459c0,0.69842 -0.56619,1.2646 -1.2646,1.2646c-0.69841,0 -1.26459,-0.56619 -1.26459,-1.2646z" fill="none" stroke="#000000" stroke-width="1" stroke-linecap="butt"/><path d="M614.63884,98.90906c0,-0.69841 0.56618,-1.26459 1.26459,-1.26459c0.69841,0 1.2646,0.56618 1.2646,1.26459c0,0.69841 -0.56619,1.2646 -1.2646,1.2646c-0.69841,0 -1.26459,-0.56619 -1.26459,-1.2646z" fill="none" stroke="#000000" stroke-width="1" stroke-linecap="butt"/><path d="M305.5474,129.22038v206.6842" fill="none" stroke-opacity="0.50588" stroke="#000000" stroke-width="1" stroke-linecap="round"/><path d="M404.54742,129.22038v206.6842" fill="none" stroke-opacity="0.50588" stroke="#000000" stroke-width="1" stroke-linecap="round"/><path d="M504.54742,129.22038v206.6842" fill="none" stroke-opacity="0.50588" stroke="#000000" stroke-width="1" stroke-linecap="round"/><path d="M604.54742,129.22038v206.6842" fill="none" stroke-opacity="0.50588" stroke="#000000" stroke-width="1" stroke-linecap="round"/><path d="M205.54741,335.90458v-206.6842" fill="none" stroke-opacity="0.50588" stroke="#000000" stroke-width="1" stroke-linecap="round"/><path d="M293.47207,172.50001v-44h59.5v44z" fill="#000000" stroke="#000000" stroke-width="1" stroke-linecap="butt"/><g><path d="M209.39564,357.11405v-18.17955h47.07205v18.17955z" fill="#080000" stroke-opacity="0.50588" stroke="#000000" stroke-width="0" stroke-linecap="butt"/><path d="M169.88097,362.11907v-174.02983h86.33333v174.02983z" fill="#808080" stroke="#000000" stroke-width="1" stroke-linecap="butt"/><path d="M242.14142,201.16246v-3.99859h9.54211v3.99859z" fill="#313929" stroke="#000000" stroke-width="0" stroke-linecap="butt"/><path d="M228.50981,201.16246v-3.99859h9.54211v3.99859z" fill="#313929" stroke="#000000" stroke-width="0" stroke-linecap="butt"/><path d="M214.87824,201.16246v-3.99859h9.5421v3.99859z" fill="#313929" stroke="#000000" stroke-width="0" stroke-linecap="butt"/><path d="M170.62106,355.92632h85.42457" fill="none" stroke="#000000" stroke-width="1" stroke-linecap="round"/><path d="M255.59124,350.01931h-84.51579" fill="none" stroke="#000000" stroke-width="1" stroke-linecap="round"/><path d="M171.07544,344.56668h84.97017" fill="none" stroke="#000000" stroke-width="1" stroke-linecap="round"/><path d="M171.07545,340.02282h84.51579" fill="none" stroke="#000000" stroke-width="1" stroke-linecap="round"/><path d="M232.64474,199.16316c0,-0.37642 0.30516,-0.68158 0.68158,-0.68158c0.37642,0 0.68158,0.30516 0.68158,0.68158c0,0.37642 -0.30516,0.68157 -0.68158,0.68157c-0.37642,0 -0.68158,-0.30515 -0.68158,-0.68157z" fill="#008442" stroke="none" stroke-width="0.5" stroke-linecap="butt"/><path d="M230.00931,199.16316c0,-0.37642 0.30516,-0.68158 0.68158,-0.68158c0.37642,0 0.68158,0.30516 0.68158,0.68158c0,0.37642 -0.30516,0.68157 -0.68158,0.68157c-0.37642,0 -0.68158,-0.30515 -0.68158,-0.68157z" fill="#52d663" stroke="none" stroke-width="0.5" stroke-linecap="butt"/><path d="M235.37106,199.16316c0,-0.37642 0.30516,-0.68158 0.68158,-0.68158c0.37642,0 0.68158,0.30516 0.68158,0.68158c0,0.37642 -0.30516,0.68157 -0.68158,0.68157c-0.37642,0 -0.68158,-0.30515 -0.68158,-0.68157z" fill="#52d663" stroke="none" stroke-width="0.5" stroke-linecap="butt"/><path d="M243.55001,199.16316c0,-0.37642 0.30516,-0.68158 0.68158,-0.68158c0.37642,0 0.68158,0.30516 0.68158,0.68158c0,0.37642 -0.30516,0.68157 -0.68158,0.68157c-0.37642,0 -0.68158,-0.30515 -0.68158,-0.68157z" fill="#52d663" stroke="none" stroke-width="0.5" stroke-linecap="butt"/><path d="M246.36719,199.16316c0,-0.37642 0.30516,-0.68158 0.68158,-0.68158c0.37642,0 0.68158,0.30516 0.68158,0.68158c0,0.37642 -0.30516,0.68157 -0.68158,0.68157c-0.37642,0 -0.68158,-0.30515 -0.68158,-0.68157z" fill="#52d663" stroke="none" stroke-width="0.5" stroke-linecap="butt"/><path d="M249.09352,199.16316c0,-0.37642 0.30515,-0.68158 0.68157,-0.68158c0.37642,0 0.68158,0.30516 0.68158,0.68158c0,0.37642 -0.30516,0.68157 -0.68158,0.68157c-0.37642,0 -0.68157,-0.30515 -0.68157,-0.68157z" fill="#52d663" stroke="none" stroke-width="0.5" stroke-linecap="butt"/><path d="M221.83036,199.16316c0,-0.37642 0.30516,-0.68158 0.68158,-0.68158c0.37642,0 0.68158,0.30516 0.68158,0.68158c0,0.37642 -0.30516,0.68157 -0.68158,0.68157c-0.37642,0 -0.68158,-0.30515 -0.68158,-0.68157z" fill="#90b18c" stroke="none" stroke-width="0.5" stroke-linecap="butt"/><path d="M219.10405,199.16316c0,-0.37642 0.30516,-0.68158 0.68158,-0.68158c0.37642,0 0.68157,0.30516 0.68157,0.68158c0,0.37642 -0.30515,0.68157 -0.68157,0.68157c-0.37642,0 -0.68158,-0.30515 -0.68158,-0.68157z" fill="#90b18c" stroke="none" stroke-width="0.5" stroke-linecap="butt"/><path d="M216.37773,199.16316c0,-0.37642 0.30515,-0.68158 0.68157,-0.68158c0.37642,0 0.68158,0.30516 0.68158,0.68158c0,0.37642 -0.30516,0.68157 -0.68158,0.68157c-0.37642,0 -0.68157,-0.30515 -0.68157,-0.68157z" fill="#90b18c" stroke="none" stroke-width="0.5" stroke-linecap="butt"/><path d="M180.73115,208.02369v-4.08947h2.72631v4.08947z" fill="#313129" stroke="#000000" stroke-width="0" stroke-linecap="butt"/><path d="M185.04781,208.02369v-4.08947h2.72631v4.08947z" fill="#313129" stroke="#000000" stroke-width="0" stroke-linecap="butt"/><path d="M189.13728,208.02369v-4.08947h2.72631v4.08947z" fill="#313129" stroke="#000000" stroke-width="0" stroke-linecap="butt"/><path d="M180.73115,213.70352v-4.08948h2.72631v4.08948z" fill="#313129" stroke="#000000" stroke-width="0" stroke-linecap="butt"/><path d="M185.04781,213.70352v-4.08948h2.72631v4.08948z" fill="#313129" stroke="#000000" stroke-width="0" stroke-linecap="butt"/><path d="M189.13728,213.70352v-4.08948h2.72631v4.08948z" fill="#313129" stroke="#000000" stroke-width="0" stroke-linecap="butt"/><path d="M180.73115,218.92895v-4.08947h2.72631v4.08947z" fill="#313129" stroke="#000000" stroke-width="0" stroke-linecap="butt"/><path d="M185.04781,218.92895v-4.08947h2.72631v4.08947z" fill="#313129" stroke="#000000" stroke-width="0" stroke-linecap="butt"/><path d="M189.13728,218.92895v-4.08947h2.72631v4.08947z" fill="#313129" stroke="#000000" stroke-width="0" stroke-linecap="butt"/><path d="M180.73115,224.60878v-4.08947h2.72631v4.08947z" fill="#313129" stroke="#000000" stroke-width="0" stroke-linecap="butt"/><path d="M185.04781,224.60878v-4.08947h2.72631v4.08947z" fill="#313129" stroke="#000000" stroke-width="0" stroke-linecap="butt"/><path d="M189.13728,224.60878v-4.08947h2.72631v4.08947z" fill="#313129" stroke="#000000" stroke-width="0" stroke-linecap="butt"/><path d="M180.73115,229.60703v-4.08947h2.72631v4.08947z" fill="#313129" stroke="#000000" stroke-width="0" stroke-linecap="butt"/><path d="M185.04781,229.60703v-4.08947h2.72631v4.08947z" fill="#313129" stroke="#000000" stroke-width="0" stroke-linecap="butt"/><path d="M189.13728,229.60703v-4.08947h2.72631v4.08947z" fill="#313129" stroke="#000000" stroke-width="0" stroke-linecap="butt"/><path d="M180.95833,202.57106v-2.9535h2.95351v2.9535z" fill="#313129" stroke="#000000" stroke-width="0" stroke-linecap="butt"/><path d="M184.7449,202.57106v-2.9535h2.95352v2.9535z" fill="#313129" stroke="#000000" stroke-width="0" stroke-linecap="butt"/><path d="M188.98581,202.57106v-2.9535h2.95352v2.9535z" fill="#313129" stroke="#000000" stroke-width="0" stroke-linecap="butt"/><path d="M198.72484,208.02369v-4.08947h2.72631v4.08947z" fill="#313129" stroke="#000000" stroke-width="0" stroke-linecap="butt"/><path d="M203.04149,208.02369v-4.08947h2.72631v4.08947z" fill="#313129" stroke="#000000" stroke-width="0" stroke-linecap="butt"/><path d="M207.13096,208.02369v-4.08947h2.72631v4.08947z" fill="#313129" stroke="#000000" stroke-width="0" stroke-linecap="butt"/><path d="M198.72484,213.70352v-4.08948h2.72631v4.08948z" fill="#313129" stroke="#000000" stroke-width="0" stroke-linecap="butt"/><path d="M203.04149,213.70352v-4.08948h2.72631v4.08948z" fill="#313129" stroke="#000000" stroke-width="0" stroke-linecap="butt"/><path d="M207.13096,213.70352v-4.08948h2.72631v4.08948z" fill="#313129" stroke="#000000" stroke-width="0" stroke-linecap="butt"/><path d="M198.72484,218.92895v-4.08947h2.72631v4.08947z" fill="#313129" stroke="#000000" stroke-width="0" stroke-linecap="butt"/><path d="M203.04149,218.92895v-4.08947h2.72631v4.08947z" fill="#313129" stroke="#000000" stroke-width="0" stroke-linecap="butt"/><path d="M207.13096,218.92895v-4.08947h2.72631v4.08947z" fill="#313129" stroke="#000000" stroke-width="0" stroke-linecap="butt"/><path d="M198.72484,224.60878v-4.08947h2.72631v4.08947z" fill="#313129" stroke="#000000" stroke-width="0" stroke-linecap="butt"/><path d="M203.04149,224.60878v-4.08947h2.72631v4.08947z" fill="#313129" stroke="#000000" stroke-width="0" stroke-linecap="butt"/><path d="M207.13096,224.60878v-4.08947h2.72631v4.08947z" fill="#313129" stroke="#000000" stroke-width="0" stroke-linecap="butt"/><path d="M198.72484,229.60703v-4.08947h2.72631v4.08947z" fill="#313129" stroke="#000000" stroke-width="0" stroke-linecap="butt"/><path d="M203.04149,229.60703v-4.08947h2.72631v4.08947z" fill="#313129" stroke="#000000" stroke-width="0" stroke-linecap="butt"/><path d="M207.13096,229.60703v-4.08947h2.72631v4.08947z" fill="#313129" stroke="#000000" stroke-width="0" stroke-linecap="butt"/><path d="M198.95203,202.57106v-2.9535h2.9535v2.9535z" fill="#313129" stroke="#000000" stroke-width="0" stroke-linecap="butt"/><path d="M202.73857,202.57106v-2.9535h2.95351v2.9535z" fill="#313129" stroke="#000000" stroke-width="0" stroke-linecap="butt"/><path d="M206.97952,202.57106v-2.9535h2.9535v2.9535z" fill="#313129" stroke="#000000" stroke-width="0" stroke-linecap="butt"/><path d="M215.10957,206.85527v-2.85022h1.11531v2.85022z" fill="#9c7b31" stroke="#000000" stroke-width="0" stroke-linecap="butt"/><path d="M219.19906,206.85527v-2.85022h1.11531v2.85022z" fill="#9c7b31" stroke="#000000" stroke-width="0" stroke-linecap="butt"/><path d="M223.28853,206.85527v-2.85022h1.11531v2.85022z" fill="#9c7b31" stroke="#000000" stroke-width="0" stroke-linecap="butt"/><path d="M215.10957,212.43183v-2.85023h1.11531v2.85023z" fill="#9c7b31" stroke="#000000" stroke-width="0" stroke-linecap="butt"/><path d="M219.19906,212.43183v-2.85023h1.11531v2.85023z" fill="#9c7b31" stroke="#000000" stroke-width="0" stroke-linecap="butt"/><path d="M223.28853,212.43183v-2.85023h1.11531v2.85023z" fill="#9c7b31" stroke="#000000" stroke-width="0" stroke-linecap="butt"/><path d="M215.10957,217.63659v-2.85023h1.11531v2.85023z" fill="#9c7b31" stroke="#000000" stroke-width="0" stroke-linecap="butt"/><path d="M219.19906,217.63659v-2.85023h1.11531v2.85023z" fill="#9c7b31" stroke="#000000" stroke-width="0" stroke-linecap="butt"/><path d="M223.28853,217.63659v-2.85023h1.11531v2.85023z" fill="#9c7b31" stroke="#000000" stroke-width="0" stroke-linecap="butt"/><path d="M215.10957,223.33709v-2.85022h1.11531v2.85022z" fill="#9c7b31" stroke="#000000" stroke-width="0" stroke-linecap="butt"/><path d="M219.19906,223.33709v-2.85022h1.11531v2.85022z" fill="#9c7b31" stroke="#000000" stroke-width="0" stroke-linecap="butt"/><path d="M223.28853,223.33709v-2.85022h1.11531v2.85022z" fill="#9c7b31" stroke="#000000" stroke-width="0" stroke-linecap="butt"/><path d="M215.10957,228.78972v-2.85023h1.11531v2.85023z" fill="#9c7b31" stroke="#000000" stroke-width="0" stroke-linecap="butt"/><path d="M219.19906,228.78972v-2.85023h1.11531v2.85023z" fill="#9c7b31" stroke="#000000" stroke-width="0" stroke-linecap="butt"/><path d="M223.28853,228.78972v-2.85023h1.11531v2.85023z" fill="#9c7b31" stroke="#000000" stroke-width="0" stroke-linecap="butt"/><path d="M228.74116,206.85527v-2.85022h1.11531v2.85022z" fill="#9c7b31" stroke="#000000" stroke-width="0" stroke-linecap="butt"/><path d="M232.83064,206.85527v-2.85022h1.11531v2.85022z" fill="#9c7b31" stroke="#000000" stroke-width="0" stroke-linecap="butt"/><path d="M236.9201,206.85527v-2.85022h1.11531v2.85022z" fill="#9c7b31" stroke="#000000" stroke-width="0" stroke-linecap="butt"/><path d="M228.74116,212.43183v-2.85023h1.11531v2.85023z" fill="#9c7b31" stroke="#000000" stroke-width="0" stroke-linecap="butt"/><path d="M232.83064,212.43183v-2.85023h1.11531v2.85023z" fill="#9c7b31" stroke="#000000" stroke-width="0" stroke-linecap="butt"/><path d="M236.9201,212.43183v-2.85023h1.11531v2.85023z" fill="#9c7b31" stroke="#000000" stroke-width="0" stroke-linecap="butt"/><path d="M228.74116,217.63659v-2.85023h1.11531v2.85023z" fill="#9c7b31" stroke="#000000" stroke-width="0" stroke-linecap="butt"/><path d="M232.83064,217.63659v-2.85023h1.11531v2.85023z" fill="#9c7b31" stroke="#000000" stroke-width="0" stroke-linecap="butt"/><path d="M236.9201,217.63659v-2.85023h1.11531v2.85023z" fill="#9c7b31" stroke="#000000" stroke-width="0" stroke-linecap="butt"/><path d="M228.74116,223.33709v-2.85022h1.11531v2.85022z" fill="#9c7b31" stroke="#000000" stroke-width="0" stroke-linecap="butt"/><path d="M232.83064,223.33709v-2.85022h1.11531v2.85022z" fill="#9c7b31" stroke="#000000" stroke-width="0" stroke-linecap="butt"/><path d="M236.9201,223.33709v-2.85022h1.11531v2.85022z" fill="#9c7b31" stroke="#000000" stroke-width="0" stroke-linecap="butt"/><path d="M228.74116,228.78972v-2.85023h1.11531v2.85023z" fill="#9c7b31" stroke="#000000" stroke-width="0" stroke-linecap="butt"/><path d="M232.83064,228.78972v-2.85023h1.11531v2.85023z" fill="#9c7b31" stroke="#000000" stroke-width="0" stroke-linecap="butt"/><path d="M236.9201,228.78972v-2.85023h1.11531v2.85023z" fill="#9c7b31" stroke="#000000" stroke-width="0" stroke-linecap="butt"/><path d="M242.24881,206.85527v-2.85022h1.11531v2.85022z" fill="#9c7b31" stroke="#000000" stroke-width="0" stroke-linecap="butt"/><path d="M246.33829,206.85527v-2.85022h1.11531v2.85022z" fill="#9c7b31" stroke="#000000" stroke-width="0" stroke-linecap="butt"/><path d="M250.42777,206.85527v-2.85022h1.11531v2.85022z" fill="#9c7b31" stroke="#000000" stroke-width="0" stroke-linecap="butt"/><path d="M242.24881,212.43183v-2.85023h1.11531v2.85023z" fill="#9c7b31" stroke="#000000" stroke-width="0" stroke-linecap="butt"/><path d="M246.33829,212.43183v-2.85023h1.11531v2.85023z" fill="#9c7b31" stroke="#000000" stroke-width="0" stroke-linecap="butt"/><path d="M250.42777,212.43183v-2.85023h1.11531v2.85023z" fill="#9c7b31" stroke="#000000" stroke-width="0" stroke-linecap="butt"/><path d="M242.24881,217.63659v-2.85023h1.11531v2.85023z" fill="#9c7b31" stroke="#000000" stroke-width="0" stroke-linecap="butt"/><path d="M246.33829,217.63659v-2.85023h1.11531v2.85023z" fill="#9c7b31" stroke="#000000" stroke-width="0" stroke-linecap="butt"/><path d="M250.42777,217.63659v-2.85023h1.11531v2.85023z" fill="#9c7b31" stroke="#000000" stroke-width="0" stroke-linecap="butt"/><path d="M242.24881,223.33709v-2.85022h1.11531v2.85022z" fill="#9c7b31" stroke="#000000" stroke-width="0" stroke-linecap="butt"/><path d="M246.33829,223.33709v-2.85022h1.11531v2.85022z" fill="#9c7b31" stroke="#000000" stroke-width="0" stroke-linecap="butt"/><path d="M250.42777,223.33709v-2.85022h1.11531v2.85022z" fill="#9c7b31" stroke="#000000" stroke-width="0" stroke-linecap="butt"/><path d="M242.24881,228.78972v-2.85023h1.11531v2.85023z" fill="#9c7b31" stroke="#000000" stroke-width="0" stroke-linecap="butt"/><path d="M246.33829,228.78972v-2.85023h1.11531v2.85023z" fill="#9c7b31" stroke="#000000" stroke-width="0" stroke-linecap="butt"/><path d="M173.65966,335.92539v-4.08947h79.33509v4.08947z" fill="#000800" stroke="#000000" stroke-width="0" stroke-linecap="butt"/><path d="M173.625,233.75h79.25" fill="none" stroke="#000000" stroke-width="1" stroke-linecap="round"/><path d="M215.5,254.86509v-15.88889h35.55556v15.88889z" fill="#a19678" stroke="#000000" stroke-width="1" stroke-linecap="butt"/><path d="M218.61111,244.53176h29.66667" fill="none" stroke="#000000" stroke-width="1" stroke-linecap="round"/><path d="M242.72222,252.53176v-3.33334h6.11112v3.33334z" fill="#a18870" stroke="#000000" stroke-width="1" stroke-linecap="butt"/><path d="M215.5,270.86509v-15.88889h35.55556v15.88889z" fill="#a19678" stroke="#000000" stroke-width="1" stroke-linecap="butt"/><path d="M218.61111,260.53175h29.66667" fill="none" stroke="#000000" stroke-width="1" stroke-linecap="round"/><path d="M242.72222,268.53175v-3.33333h6.11112v3.33333z" fill="#a18870" stroke="#000000" stroke-width="1" stroke-linecap="butt"/><g><path d="M176.73416,268.78657c-3.40428,-2.82681 -1.94119,-24.32932 -0.43469,-26.49643c1.97491,-2.84091 29.43275,-3.21848 32.24566,-0.52901c2.28895,2.1885 3.27201,23.89841 0.43469,26.49644c-3.26487,2.98952 -29.83066,2.53435 -32.24566,0.529z" fill="url(#color-4)" stroke="#000000" stroke-width="0" stroke-linecap="butt"/><path d="M179.35318,254.42064c0,-6.74577 5.46852,-12.21429 12.21429,-12.21429c6.74577,0 12.21428,5.46852 12.21428,12.21429c0,6.74577 -5.46852,12.21429 -12.21428,12.21429c-6.74577,0 -12.21429,-5.46852 -12.21429,-12.21429z" fill="none" stroke="#ffffff" stroke-width="2" stroke-linecap="butt"/><path d="M201.67461,261.02778l-3.17857,-3.17858h-10.07143l-5.14286,5.14286c0,0 5.88041,4.05577 8.95289,3.72764c3.05841,-0.32662 9.43998,-5.69192 9.43998,-5.69192z" fill="#ffffff" stroke="#ffffff" stroke-width="1" stroke-linecap="round"/><path d="M176.73416,268.78657c-3.40428,-2.82681 -1.94119,-24.32932 -0.43469,-26.49643c1.97491,-2.84091 29.43275,-3.21848 32.24566,-0.52901c2.28895,2.1885 3.27201,23.89841 0.43469,26.49644c-3.26487,2.98952 -29.83066,2.53435 -32.24566,0.529z" fill="none" stroke="#000000" stroke-width="1" stroke-linecap="butt"/><path d="M176.06746,244.0635h33.42857" fill="none" stroke-opacity="0.25098" stroke="#000000" stroke-width="1" stroke-linecap="round"/><path d="M177.78175,241.49207h30.14286" fill="none" stroke-opacity="0.25098" stroke="#000000" stroke-width="1" stroke-linecap="round"/><path d="M175.78175,246.77778h34.42857" fill="none" stroke-opacity="0.25098" stroke="#000000" stroke-width="1" stroke-linecap="round"/><path d="M175.21032,249.34921h34.71429" fill="none" stroke-opacity="0.25098" stroke="#000000" stroke-width="1" stroke-linecap="round"/><path d="M210.49604,252.20635h-35.42857" fill="none" stroke-opacity="0.25098" stroke="#000000" stroke-width="1" stroke-linecap="round"/><path d="M175.06746,255.20635h35.14286" fill="none" stroke-opacity="0.25098" stroke="#000000" stroke-width="1" stroke-linecap="round"/><path d="M210.21032,257.77778h-35" fill="none" stroke-opacity="0.25098" stroke="#000000" stroke-width="1" stroke-linecap="round"/><path d="M175.06746,260.34921h35.42857" fill="none" stroke-opacity="0.25098" stroke="#000000" stroke-width="1" stroke-linecap="round"/><path d="M210.35318,262.96826h-35.28571" fill="none" stroke-opacity="0.25098" stroke="#000000" stroke-width="1" stroke-linecap="round"/><path d="M175.62302,265.55556h34.01587" fill="none" stroke-opacity="0.25098" stroke="#000000" stroke-width="1" stroke-linecap="round"/><path d="M209.49604,267.80953h-33.14286" fill="none" stroke-opacity="0.25098" stroke="#000000" stroke-width="1" stroke-linecap="round"/></g><path d="M173.625,274.91667h79.25" fill="none" stroke="#000000" stroke-width="1" stroke-linecap="round"/></g></g></g></svg>