<svg version="1.1" xmlns="http://www.w3.org/2000/svg" xmlns:xlink="http://www.w3.org/1999/xlink" width="621.83675" height="319.05" viewBox="0,0,621.83675,319.05"><g transform="translate(-8.33862,-14.975)"><g data-paper-data="{&quot;isPaintingLayer&quot;:true}" fill-rule="nonzero" stroke-linejoin="miter" stroke-miterlimit="10" stroke-dasharray="" stroke-dashoffset="0" style="mix-blend-mode: normal"><path d="M79.90765,334v-319h549v319z" fill="#2b666f" stroke="#445934" stroke-width="0.05" stroke-linecap="butt"/><path d="M79.49098,334v-152h550v152z" fill="#445934" stroke="#445934" stroke-width="0.05" stroke-linecap="butt"/><path d="M429.99098,247l-10.33333,-85l16,2l5.33333,82.33334z" fill="#3e311d" stroke="#000000" stroke-width="0" stroke-linecap="butt"/><path d="M359.08872,135.46428l-1.19709,114.93856l-86.80291,-5.38765l10.17691,-82.61235" fill="#967a4e" stroke="#000000" stroke-width="0.05" stroke-linecap="round"/><path d="M289.64675,245.01518l2.39448,-41.30603l23.94568,-2.99347l-1.19739,46.09528z" fill="#574122" stroke="none" stroke-width="0" stroke-linecap="butt"/><path d="M427.93259,157.61388l5.98635,89.19739l-53.87741,4.12229l0.59869,-111.8777" fill="#967a4e" stroke="#000000" stroke-width="0.05" stroke-linecap="round"/><path d="M30.33862,177.75532l-22,-96.8" fill="none" stroke="none" stroke-width="0" stroke-linecap="round"/><path d="M386.62627,136.06297l3.59187,114.34016l-17.36064,1.79608l-21.55091,-1.79608l0.59869,-113.14307" fill="#3e311d" stroke="#000000" stroke-width="0.05" stroke-linecap="round"/><path d="M283.06171,165.995l-6.58504,79.61888l-8.38083,-0.59869l5.98635,-76.02731" fill="#413521" stroke="#000000" stroke-width="0.05" stroke-linecap="round"/><path d="M274.08218,170.18526l2.39448,-16.76195l8.38112,-1.19709l7.18344,1.79579l59.86405,-24.54408l1.1,-8.92261l18.33333,-6.6l14.96587,9.0244l-0.27661,9.49139l31.12912,18.55773l9.57821,-1.19739l7.78243,3.59157l1.79579,17.36064l-64.65301,-33.52389z" fill="#4e4e4e" stroke="#000000" stroke-width="0.05" stroke-linecap="round"/><path d="M404.58531,221.6682l-1.19709,-22.74829l20.35381,4.78896l0.5984,19.75512z" fill="#392e1e" stroke="#8fabaf" stroke-width="0.05" stroke-linecap="butt"/><path d="M414.76251,221.66819l-1.19739,-20.35381" fill="none" stroke="#8fabaf" stroke-width="0.05" stroke-linecap="round"/><path d="M409.37456,205.50494l-2.39448,5.38765" fill="none" stroke="#8fabaf" stroke-width="0.05" stroke-linecap="round"/><path d="M418.35438,212.68838l1.79579,-5.38765" fill="none" stroke="#8fabaf" stroke-width="0.05" stroke-linecap="round"/><path d="M413.56513,212.08999l-3.59187,7.18373" fill="none" stroke="#8fabaf" stroke-width="0.05" stroke-linecap="round"/><path d="M420.74856,215.68185l-2.99317,2.99317" fill="none" stroke="#8fabaf" stroke-width="0.05" stroke-linecap="round"/><path d="M387.82366,46.26689l-7.18373,-7.78243l-0.59869,-4.19027l11.37429,-8.38112l4.19056,8.97952l-3.59187,1.79579l1.79579,4.19056z" fill="#7c5e48" stroke="#7c5e48" stroke-width="0.05" stroke-linecap="round"/><path d="M206.436,76.19892l10.17691,-15.56485l52.08163,26.34016l-10.17691,13.17008z" fill="#cfdcff" stroke="none" stroke-width="0" stroke-linecap="butt"/><path d="M81.32024,257.58657l8.97952,2.69554h51.48323l488.36717,10.60855l-0.42179,49.3691l-177.8504,-26.28249l-13.76848,8.76094l-64.05432,-12.13046l-20.95251,5.3911l-23.94568,-6.73904l-27.53755,8.08697l-34.12259,-12.13045l-33.5236,6.06539l-9.57821,-4.71713l-38.31285,4.71713l-8.38083,-4.71713l-44.2992,5.3911l-1.19739,-4.71745l-51.48293,5.39109" fill="#3e2b1d" stroke="#402c1e" stroke-width="0.05" stroke-linecap="round"/><path d="M80.15765,264v-85h12.5v85z" fill="#413521" stroke="#000000" stroke-width="0.05" stroke-linecap="butt"/><path d="M80.22214,52.25294l59.48833,22.74829l-4.80727,16.76195l31.24624,10.7756l0.60094,11.97269l20.43039,3.59187l8.41236,37.71416l18.0266,4.78925l-7.81171,40.10893l-18.62755,7.78243l-45.0668,-2.99317l1.80254,-7.78243l-35.45256,-2.99317l-7.21076,21.55091l-21.03134,-1.79579" fill="#0f1609" stroke="#3e5c26" stroke-width="0.05" stroke-linecap="round"/></g></g></svg>