<svg version="1.1" xmlns="http://www.w3.org/2000/svg" xmlns:xlink="http://www.w3.org/1999/xlink" width="81" height="20.5" viewBox="0,0,81,20.5"><g transform="translate(-279.50001,-169.75)"><g data-paper-data="{&quot;isPaintingLayer&quot;:true}" fill-rule="nonzero" stroke-width="0.5" stroke-linejoin="miter" stroke-miterlimit="10" stroke-dasharray="" stroke-dashoffset="0" style="mix-blend-mode: normal"><path d="M279.75001,190v-20h80.5v20z" fill="#141414" stroke="#000000" stroke-linecap="butt"/><g data-paper-data="{&quot;index&quot;:null}" fill="none" stroke="#ffffff"><path d="M316.85436,176.54148c0,0 36.85906,0.08399 37.58333,-0.41667c1.2847,-0.88808 3.28646,-3.76389 3.28646,-3.76389c0,0 0.0039,6.25656 -3.7031,6.26798c-7.3643,0.02269 -32.07254,0.22044 -36.96129,0.31262c-4.71263,0.08886 -3.73772,2.24786 -3.99525,3.28071c-0.20163,0.85434 4.73278,6.57893 3.09563,5.75344c-4.04159,-2.03786 -5.60653,-2.58334 -5.49155,-5.83697c0.1973,-5.583 6.18577,-5.59722 6.18577,-5.59722z" stroke-linecap="round"/><path d="M352.36307,178.42045l-35.33333,0.28571v-1.92063l35.33333,-0.2381z" stroke-linecap="butt"/></g></g></g></svg>