<svg version="1.1" xmlns="http://www.w3.org/2000/svg" xmlns:xlink="http://www.w3.org/1999/xlink" width="78.17366" height="117.67112" viewBox="0,0,78.17366,117.67112"><g transform="translate(-280.91317,-121.16444)"><g data-paper-data="{&quot;isPaintingLayer&quot;:true}" fill-rule="nonzero" stroke-width="2" stroke-linejoin="miter" stroke-miterlimit="10" stroke-dasharray="" stroke-dashoffset="0" style="mix-blend-mode: normal"><path d="M281.91317,237.83556v-115.67112h76.17366v115.67112z" fill="#52803f" stroke="#000000" stroke-linecap="butt"/><path d="M346.63902,209.24479v-38.5h4.5v38.5z" fill="#bfbfbf" stroke="#2f2f2f" stroke-linecap="butt"/><g stroke="#bfbfbf"><path d="M303.25343,156.4915v-26.24073h33.52981v26.24073z" fill="#000000" stroke-linecap="butt"/><path d="M304.34679,146.96362l9.21549,9.2155" fill="none" stroke-linecap="round"/><path d="M304.34679,139.15388l17.18143,17.18143" fill="none" stroke-linecap="round"/><path d="M304.16457,131.29573l24.94503,24.94504" fill="none" stroke-linecap="round"/><path d="M311.05386,130.49722l25.2291,25.2291" fill="none" stroke-linecap="round"/><path d="M319.40707,130.93062l16.65349,16.65349" fill="none" stroke-linecap="round"/><path d="M326.29636,130.74178l10.47504,9.9873" fill="none" stroke-linecap="round"/><path d="M327.25244,156.05787l9.2155,-9.2155" data-paper-data="{&quot;index&quot;:null}" fill="none" stroke-linecap="round"/><path d="M336.46794,139.03263l-17.18143,17.18143" data-paper-data="{&quot;index&quot;:null}" fill="none" stroke-linecap="round"/><path d="M311.70511,156.11952l24.94504,-24.94503" data-paper-data="{&quot;index&quot;:null}" fill="none" stroke-linecap="round"/><path d="M304.53175,155.60508l25.2291,-25.2291" data-paper-data="{&quot;index&quot;:null}" fill="none" stroke-linecap="round"/><path d="M321.40765,130.80937l-16.65349,16.6535" data-paper-data="{&quot;index&quot;:null}" fill="none" stroke-linecap="round"/><path d="M304.04333,140.60784l10.47504,-9.9873" data-paper-data="{&quot;index&quot;:null}" fill="none" stroke-linecap="round"/></g></g></g></svg>