<svg version="1.1" xmlns="http://www.w3.org/2000/svg" xmlns:xlink="http://www.w3.org/1999/xlink" width="75.50688" height="169.0121" viewBox="0,0,75.50688,169.0121"><g transform="translate(-282.24656,-95.49395)"><g data-paper-data="{&quot;isPaintingLayer&quot;:true}" fill-rule="nonzero" stroke-linejoin="miter" stroke-miterlimit="10" stroke-dasharray="" stroke-dashoffset="0" style="mix-blend-mode: normal"><path d="M328.08922,176.39371v-22.83334h10.5v22.83334z" fill="#3a7fb5" stroke="#3a7fb5" stroke-width="0" stroke-linecap="butt"/><path d="M309.75589,173.56037v-21.16666h9.33333v21.16666z" fill="#3a7fb5" stroke="#3a7fb5" stroke-width="0" stroke-linecap="butt"/><path d="M338.42663,141.89619c-0.00048,-5.58911 -0.38601,-15.1058 -6.01657,-18.48221c-3.12383,-1.87322 -8.8725,-0.90861 -12.31648,-0.55671c-1.92256,0.19644 -4.38583,0.21499 -6.04632,1.42255c-4.15092,3.01867 -4.8825,10.45056 -5.0875,15.29438c-0.02663,0.62909 0.42835,1.32762 0.27413,1.93809c-0.27654,1.09466 -2.2614,0.11945 -3.38989,0.08392c-3.06083,0 -6.4734,-0.41487 -9.50538,-0.00771c-0.47375,0.06362 -0.87506,0.74701 -1.31758,0.56628c-0.3156,-0.12889 0.33447,-0.61355 0.37472,-0.95207c0.09006,-0.75741 -0.02927,-1.52872 0.00847,-2.29053c0.09267,-1.87038 0.49892,-5.45002 0.75955,-7.11451c1.45704,-9.30532 2.82342,-24.29264 12.26952,-29.07198c0.72517,0.04994 1.33146,-0.22019 1.33146,-0.22019c8.45105,-3.82253 16.56526,-1.76624 25.00695,0.64542c2.51321,0.71798 7.2162,1.29585 9.45753,3.01606c4.39463,3.37286 4.3197,11.98982 5.43973,16.84434c1.09738,4.3893 2.28012,8.68952 2.84569,13.19276c0.04122,0.32819 0.82866,5.06381 0.15623,5.37922c-1.28982,0.60502 -2.85171,0.00926 -4.27638,0.0075c-3.39619,-0.00418 -6.66434,-0.19481 -9.96787,0.30537z" data-paper-data="{&quot;noHover&quot;:false,&quot;origItem&quot;:[&quot;Path&quot;,{&quot;applyMatrix&quot;:true,&quot;segments&quot;:[[[686.65875,375.4345],[-6.79239,-0.00836],[2.84934,0.00351]],[[695.20677,375.42568],[-2.57964,1.21004],[1.34487,-0.63084]],[[694.88734,364.67866],[0.08244,0.65639],[-1.13115,-9.00648]],[[689.18483,338.33273],[2.19476,8.7786],[-2.24007,-9.70905]],[[678.32497,304.71048],[8.78927,6.74572],[-4.48267,-3.44043]],[[659.43882,298.70444],[5.02641,1.43597],[-16.88337,-4.82334]],[[609.53643,297.40757],[16.90209,-7.64507],[0,0]],[[606.87737,297.84489],[1.45035,0.09988],[-18.8922,9.55867]],[[582.36777,355.87671],[2.91409,-18.61063],[-0.52126,3.32898]],[[580.84022,370.08856],[0.18535,-3.74077],[-0.07549,1.52361]],[[580.82021,374.66495],[0.18011,-1.51481],[-0.0805,0.67705]],[[580.06986,376.56779],[-0.6312,-0.25779],[0.88504,0.36146]],[[582.70447,375.4345],[-0.9475,0.12724],[6.06395,-0.81432]],[[601.70119,375.4345],[-6.12165,0],[2.25698,0.07105]],[[608.47325,375.26043],[-0.55307,2.18932],[0.30844,-1.22095]],[[607.80281,371.54249],[-0.05325,1.25818],[0.41,-9.68763]],[[617.94545,340.90529],[-8.30184,6.03734],[3.32099,-2.41512]],[[630.22644,337.99356],[-3.84512,0.39288],[6.88797,-0.70379]],[[654.8638,339.16901],[-6.24766,-3.74645],[11.26114,6.75282]],[[666.85747,376.19092],[-0.00096,-11.17823],[6.60706,-1.00036]]],&quot;closed&quot;:true}]}" fill="#ffffff" stroke="none" stroke-width="0.5" stroke-linecap="butt"/><path d="M331.93684,251.41168c-0.5233,-1.45632 -0.71646,-3.13272 -1.64905,-4.36025c3.19116,-0.50578 6.41626,-0.83365 9.79558,-1.06679c0.92846,-0.06405 1.93738,0.03661 2.91199,0.09114c0.54243,0.88401 1.61852,1.15686 1.61852,1.15686l1.07511,-0.01257c0.69923,0.60961 4.91126,3.08963 4.98038,4.22233c0.12209,2.00091 -2.27022,2.70989 -3.47112,3.36647c-5.09088,2.78337 -10.01653,3.86362 -15.66204,4.52408c1.41176,-2.0788 1.58694,-4.61972 0.40061,-7.92126z" data-paper-data="{&quot;noHover&quot;:false,&quot;origItem&quot;:[&quot;Path&quot;,{&quot;applyMatrix&quot;:true,&quot;segments&quot;:[[[326.95966,297.57729],[0,0],[1.18633,3.30154]],[[326.54964,305.46142],[1.41176,-2.0788],[5.64551,-0.66046]],[[342.12399,300.95201],[-5.09088,2.78337],[1.2009,-0.65658]],[[345.59308,297.6067],[0.12209,2.00091],[-0.06912,-1.1327]],[[340.62775,293.41455],[0.69923,0.60961],[0,0]],[339.55692,293.43078],[[337.95085,292.28086],[0.54243,0.88401],[-0.97461,-0.05453]],[[335.05967,292.19293],[0.92846,-0.06405],[-3.37932,0.23314]],[[325.30495,293.23391],[3.19116,-0.50578],[0.93259,1.22753]],[[326.95967,297.57728],[-0.5233,-1.45632],[0,0]]],&quot;closed&quot;:true,&quot;fillColor&quot;:[0,0,0,1],&quot;strokeWidth&quot;:0.5}]}" fill="#1b0d0d" stroke="none" stroke-width="0.25" stroke-linecap="butt"/><path d="M323.71347,259.52198c-3.99612,-0.00089 -8.02425,0.0236 -12.02038,0.0236c-4.71668,0 -10.13045,0.38675 -14.5573,-1.63472c-1.84458,-0.84231 -3.78831,-1.71846 -5.20613,-3.16821c-0.31792,-0.32509 0.23963,-0.88338 0.30087,-1.33395c0.11975,-0.8811 0.11291,-1.78428 0.24028,-2.66431c0.44048,-3.04323 0.36118,-5.66758 2.77966,-7.28234c3.12626,0.19754 6.30408,0.28081 9.11735,0.90982c4.38023,1.02291 8.64608,2.18867 13.16289,2.45759c0.77627,0.04621 1.59145,0.21084 2.38997,0.2943c0.48215,1.24396 1.95249,1.49683 1.95249,1.49683c1.1506,0.16993 3.65948,0.20863 4.52655,1.47542c0.58127,0.84924 0.58743,1.98158 0.91008,2.95881c0.96646,2.92721 0.69408,3.8176 -1.79446,5.19394c-0.53122,0.1002 -1.38767,0.40107 -1.80185,1.27321z" data-paper-data="{&quot;noHover&quot;:false,&quot;origItem&quot;:[&quot;Path&quot;,{&quot;applyMatrix&quot;:true,&quot;segments&quot;:[[[320.44274,304.3874],[-0.53122,0.1002],[2.48854,-1.37634]],[[322.23333,299.20879],[0.96646,2.92721],[-0.32265,-0.97723]],[[321.32324,296.25863],[0.58127,0.84924],[-0.86707,-1.26679]],[[316.79789,294.79062],[1.1506,0.16993],[0,0]],[[314.84816,293.30206],[0.48215,1.24396],[-0.79852,-0.08346]],[[312.46132,293.0138],[0.77627,0.04621],[-4.51681,-0.26892]],[[299.37155,290.56995],[4.38023,1.02291],[-2.81327,-0.62901]],[[290.26759,289.64459],[3.12626,0.19754],[-2.41848,1.61476]],[[287.49411,296.90497],[0.44048,-3.04323],[-0.12737,0.88003]],[[287.25359,299.56171],[0.11975,-0.8811],[-0.06124,0.45057]],[[286.95221,300.89214],[-0.31792,-0.32509],[1.41782,1.44975]],[[292.15378,304.04672],[-1.84458,-0.84231],[4.42685,2.02147]],[[306.65515,305.65525],[-4.71668,0],[3.99613,0]],[[318.64352,305.65536],[-3.99612,-0.00089],[0.41418,-0.87214]]],&quot;closed&quot;:true,&quot;fillColor&quot;:[0,0,0,1],&quot;strokeWidth&quot;:0.5}]}" fill="#1b0d0d" stroke="none" stroke-width="0.25" stroke-linecap="butt"/><path d="M316.00052,148.07604c-1.36404,-1.12562 -1.57446,-2.77525 -2.07681,-4.35598c0.36974,-1.04603 -0.03743,-2.36905 0.10621,-3.5072c0.34805,-2.7578 0.42611,-6.79206 1.36025,-9.57315c0.07509,-0.90266 0.5711,-1.43658 1.07425,-1.74367c2.17173,-1.76985 7.2045,-1.23634 9.38167,-1.24016c0.07865,-0.00014 3.72965,-0.12464 4.3046,0.19749c0.09726,0.05449 0.19263,0.12927 0.28355,0.21889c0.55142,0.32538 1.06903,0.92299 1.1008,2.00141c0.19964,0.53019 0.35305,1.01531 0.44659,1.26654c1.43046,3.84215 1.6923,6.68007 1.6923,10.76747l-0.24147,1.49968c0,0 -0.03665,0.25054 -0.00643,0.60122c-0.99758,0.3981 -1.42946,1.47192 -1.42946,1.47192l-0.20863,0.75001c-3.26038,4.44825 -6.97775,3.19709 -11.93119,2.46921c-1.14643,-0.16847 -2.82397,0.02813 -3.85624,-0.8237z" data-paper-data="{&quot;noHover&quot;:false,&quot;origItem&quot;:[&quot;Path&quot;,{&quot;applyMatrix&quot;:true,&quot;segments&quot;:[[[621.66847,388.10593],[0,0],[2.06454,1.70366]],[[629.35313,389.73713],[-2.29286,-0.33694],[9.90688,1.45576]],[[653.10827,384.82215],[-6.52076,8.8965],[0,0]],[653.52127,383.32677],[[656.36947,380.39797],[-1.99516,0.7962],[-0.06044,-0.70136]],[656.38001,379.19975],[[656.85745,376.21305],[0,0],[0,-8.1748]],[[653.49237,354.77789],[2.86092,7.6843],[-0.18707,-0.50247]],[[652.6068,352.25248],[0.39927,1.06039],[-0.06355,-2.15684]],[[650.41906,348.26017],[1.10285,0.65075],[-0.18182,-0.17925]],[[649.85441,347.82389],[0.19452,0.10898],[-1.14992,-0.64424]],[[641.27767,347.44111],[0.1573,-0.00028],[-4.35435,0.00764]],[[622.59295,349.90293],[4.34346,-3.5397],[-1.00632,0.6142]],[[620.45677,353.37928],[0.15019,-1.80531],[-1.86829,5.56218]],[[617.76237,372.44059],[0.69611,-5.5156],[-0.28728,2.2763]],[[617.54007,379.42521],[0.73948,-2.09206],[1.0047,3.16146]],[[621.66847,388.10595],[-2.72808,-2.25124],[0,0]]],&quot;closed&quot;:true}]}" fill="#ffce79" stroke="none" stroke-width="0.5" stroke-linecap="butt"/><path d="M334.30268,199.36466c1.46162,8.92338 3.19359,17.80707 5.9142,26.45837c1.26785,4.03166 2.99922,7.92705 4.16889,11.98582c0.30539,1.05971 1.20885,3.03425 0.14071,3.30874c-0.67455,0.17335 -1.36899,-0.31428 -2.06544,-0.31997c-2.57995,-0.02107 -5.15636,0.33139 -7.72802,0.53914c-3.13148,0.25298 -6.0566,0.82543 -9.02396,1.51938c0.16739,-1.15643 0.03202,-2.51641 0.05833,-3.85779c0.13864,-7.06819 -0.58028,-15.86881 -2.7856,-22.61887l0.13021,-0.78964c0,0 0.01469,-2.48655 -2.48531,-2.48655c-2.5,0 -2.45538,2.41084 -2.45538,2.41084l0.14065,2.38088c1.91885,5.61532 2.10688,12.76772 2.49641,18.68146c0.0367,0.55725 0.64133,5.61573 -0.3869,5.77887c-0.83236,0.13207 -1.66142,-0.31868 -2.49663,-0.43138c-4.33943,-0.58551 -8.16603,-1.34572 -12.44026,-2.34382c-4.56566,-1.00882 -8.56256,-1.20481 -13.17127,-1.68616c-1.47332,-0.15388 -2.92348,-0.51621 -4.39762,-0.66212c-0.28864,-0.02857 -0.82867,0.4261 -0.85938,0.13767c-0.03573,-0.33553 0.63952,-0.31676 0.80896,-0.60855c0.45548,-0.78438 0.6576,-1.69288 1.00986,-2.52872c1.0808,-2.56451 2.1536,-5.13733 3.18603,-7.72028c1.8879,-4.72319 4.4886,-9.01508 6.99058,-13.46159c2.70474,-4.80685 4.38784,-10.03667 7.70782,-14.44824c0.5099,0.43601 1.08048,0.59058 1.08048,0.59058c8.71711,2.37039 17.91461,3.58744 26.43781,0.18182z" data-paper-data="{&quot;noHover&quot;:false,&quot;origItem&quot;:[&quot;Path&quot;,{&quot;applyMatrix&quot;:true,&quot;segments&quot;:[[[329.21878,245.57096],[0,0],[-8.5232,3.40562]],[[302.83123,245.39783],[8.71711,2.37039],[0,0]],[[301.7523,244.80663],[0.5099,0.43601],[-3.31998,4.41157]],[[294.0707,259.22936],[2.70474,-4.80685],[-2.50198,4.44651]],[[287.08316,272.65864],[1.8879,-4.72319],[-1.03243,2.58295]],[[283.8933,280.36839],[1.0808,-2.56451],[-0.35226,0.83583]],[[282.88212,282.89464],[0.45548,-0.78438],[-0.16944,0.29179]],[[282.07306,283.50302],[-0.03573,-0.33553],[0.03071,0.28843]],[[282.9322,283.36494],[-0.28864,-0.02857],[1.47413,0.14591]],[[287.32721,284.02306],[-1.47332,-0.15388],[4.60871,0.48134]],[[300.4824,285.69489],[-4.56566,-1.00882],[4.27423,0.99809]],[[312.89381,288.03253],[-4.33943,-0.58551],[0.83521,0.11269]],[[315.38494,288.4647],[-0.83236,0.13207],[1.02823,-0.16314]],[[315.76736,282.68696],[0.0367,0.55725],[-0.38953,-5.91375]],[[313.25412,264.09243],[1.91885,5.61532],[0,0]],[313.12582,261.7188],[[315.62582,259.2188],[-2.5,0],[2.5,0]],[318.12582,261.7188],[[317.99753,262.51129],[0,0],[2.20532,6.75006]],[[320.76426,285.20086],[0.13864,-7.06819],[-0.02631,1.34138]],[[320.66243,288.96869],[0.16739,-1.15643],[2.96736,-0.69395]],[[329.67281,287.4581],[-3.13148,0.25298],[2.57166,-0.20776]],[[337.3946,286.92575],[-2.57995,-0.02107],[0.69645,0.00569]],[[339.4592,287.24686],[-0.67455,0.17335],[1.06813,-0.2745]],[[339.31632,283.94141],[0.30539,1.05971],[-1.16967,-4.05876]],[[335.14132,271.97109],[1.26785,4.03166],[-2.72061,-8.6513]],[[329.24356,245.56105],[1.46162,8.92338],[0,0]]],&quot;closed&quot;:true}]}" fill="#3a7fb5" stroke="none" stroke-width="0.5" stroke-linecap="butt"/><path d="M323.70459,163.92605c-0.26678,-0.06148 -0.55349,-0.10636 -0.84454,-0.13301l-0.30154,-2.48917c-0.10221,-2.35808 -0.20994,-4.81565 -0.42485,-7.16605c0.63435,0.10233 1.29531,0.19651 1.93787,0.26885c-0.08553,0.30708 -0.09925,0.52879 -0.09925,0.52879c-0.1854,2.97997 -0.25109,6.02216 -0.26769,8.9906z" data-paper-data="{&quot;noHover&quot;:false,&quot;origItem&quot;:[&quot;Path&quot;,{&quot;applyMatrix&quot;:true,&quot;segments&quot;:[[[318.93524,201.14273],[-0.1854,2.97997],[0,0]],[[319.03463,200.61397],[-0.08553,0.30708],[-0.64257,-0.07235]],[[317.11672,200.34523],[0.63435,0.10233],[0.21491,2.35041]],[[317.5435,207.41361],[-0.10221,-2.35808],[0,0]],[[317.83595,209.90147],[0,0],[0.29104,0.02666]],[[318.67183,210.03479],[-0.26678,-0.06148],[0.0166,-2.96844]]],&quot;closed&quot;:true}]}" fill="#3a7fb5" stroke="none" stroke-width="0.5" stroke-linecap="butt"/><path d="M324.90774,109.84553c0,0 -0.87781,-2.34082 1.46301,-3.21864c0.00648,-0.00243 0.01296,-0.00483 0.01943,-0.00722c0.07968,-2.21174 1.12038,-3.6973 6.26774,-2.70165c2.27745,0.44053 6.63193,6.35189 4.69839,9.15328c-1.23753,1.79299 -3.88448,1.9561 -5.85798,2.898l-0.17001,2.89014c-0.06739,1.32052 -1.15943,2.37049 -2.49671,2.37049c-1.21126,0 -2.22133,-0.86141 -2.45101,-2.00505c-0.26977,0.35023 -0.68727,0.65797 -1.3241,0.84667c-2.397,0.71022 -3.10721,-1.68677 -3.10721,-1.68677l-0.69031,-2.32978c-0.25784,-0.97702 -0.54348,-1.96126 -0.75498,-2.95442c-0.74451,1.50779 -1.43797,3.12383 -2.89835,3.11347c-1.00893,-0.00716 -3.49885,-2.69495 -4.84811,-5.08898c-0.1877,1.82258 -0.92467,3.59847 -1.2545,5.41363c0,0 -0.44721,2.45968 -2.90689,2.01246c-2.45968,-0.44721 -2.01246,-2.90689 -2.01246,-2.90689c0.20587,-1.13165 1.04838,-5.93613 1.34361,-6.71403c0.66219,-1.74481 0.66226,-4.82899 2.52072,-4.99917c2.77211,-0.25385 5.01576,1.64261 6.13912,3.94582c0.1479,-1.23961 1.20284,-2.2007 2.48226,-2.2007c0.57191,0 1.09897,0.19204 1.52021,0.51515l3.14592,2.35944l-0.02751,0.03668c0.20457,0.16362 0.3986,0.34131 0.57995,0.53592c1.31502,1.41125 1.17667,3.67412 1.76499,5.51117l0.2725,0.9197c-0.07526,-1.9527 -0.71283,-3.88398 -1.41773,-5.70872zM331.70956,110.99614c0.42829,-0.08142 0.85125,-0.18209 1.26183,-0.32746c0.20305,-0.07189 -0.4276,-0.1459 -0.56686,-0.31024c-0.41764,-0.49286 -0.60676,-1.16455 -1.06699,-1.6179c-0.15106,-0.14881 -0.67262,-0.26565 -0.63355,-0.05723c0.10052,0.53622 0.7962,0.84024 0.88135,1.37911c0.0516,0.32654 0.09282,0.63706 0.12422,0.93372z" fill="#000000" stroke="none" stroke-width="0.5" stroke-linecap="butt"/><path d="M320.83922,146.57079c-1.25,0 -1.25,-1.25 -1.25,-1.25v-1.55556c0,-1.10797 -0.01325,-2.21266 -0.03327,-3.31562c-0.44292,-0.366 -0.44292,-0.99193 -0.44292,-0.99193v-0.28572c0.00142,-2.05062 0.14285,-4.08876 0.14285,-6.14285c0,0 0,-0.27285 0.12748,-0.5636c-0.01023,-0.75086 -0.01636,-1.50265 -0.01636,-2.25585c0,0 0,-1.25 1.25,-1.25c1.25,0 1.25,1.25 1.25,1.25c0,4.53384 0.22222,9.01727 0.22222,13.55556v1.55556c0,0 0,1.25 -1.25,1.25z" fill="#000000" stroke="none" stroke-width="0.5" stroke-linecap="butt"/><path d="M327.617,145.23745c-1.25,0 -1.25,-1.25 -1.25,-1.25v-0.11111c0,-1.15462 0.0237,-2.30472 0.05845,-3.45196c-0.37578,-0.56362 -0.03759,-1.23999 -0.03759,-1.23999l0.01854,0.13526c0.04045,-0.3589 0.0706,-0.71693 0.09528,-1.07465c0.0925,-2.42197 0.19865,-4.83588 0.19865,-7.25755c0,0 0,-1.25 1.25,-1.25c1.25,0 1.25,1.25 1.25,1.25c0,1.31581 -0.03128,2.62841 -0.07468,3.94084c0.07451,0.27059 0.05368,0.49972 0.05368,0.49972c-0.08813,0.96046 -0.11906,1.91153 -0.17947,2.86508c-0.07066,1.8534 -0.13286,3.71164 -0.13286,5.58325v0.11111c0,0 0,1.25 -1.25,1.25z" fill="#000000" stroke="none" stroke-width="0.5" stroke-linecap="butt"/><path d="M310.25589,158.89371l0.66667,16l19.66666,4.33333l7.66667,-7.33333l-8,-18.66667l6.33333,-7.16666l14.16667,21.5l-4.83333,12.33334l-35,10.5l-13,-8.33334l1.5,-23.5l9.5,-11l5.33333,4.66666z" fill="#3a7fb5" stroke="#3a7fb5" stroke-width="0.5" stroke-linecap="round"/><path d="M310.57049,176.60784c-3.79079,-6.04266 -4.42874,-11.82487 -1.79899,-19.20648c0.32859,-0.92233 2.26614,-5.02066 3.70708,-6.14203c-0.51337,-0.4661 -1.038,-0.9199 -1.57436,-1.35886c0.00786,-0.00946 0.01573,-0.01893 0.0236,-0.02839c-0.32247,-0.48007 -0.56727,-0.96833 -0.77868,-1.48534c-1.3173,2.31168 -5.62404,4.27233 -7.48474,8.38856c-1.50673,3.33315 -2.62829,9.40609 -2.90852,12.80961c-0.44579,5.41431 1.86722,14.20429 7.79245,16.65996c0.52293,0.21672 1.34103,0.31039 2.32111,0.34816c0.74887,-2.32208 1.43527,-4.62117 2.4301,-6.87525l0.05915,-0.18237c-0.01289,-0.21162 -0.00051,-0.34784 -0.00051,-0.34784l-0.00002,-0.00002c0.02783,-0.30343 0.05709,-0.61516 0.08859,-0.93361c-0.85476,-0.53227 -1.54566,-1.11911 -1.87626,-1.64611zM316.37705,154.55083c-0.34182,1.875 -3.41066,3.00076 -3.78782,7.67769l-0.00001,-0.00001c-0.22337,2.76983 -1.45681,6.0345 0.10063,8.33586c0.27819,0.41108 0.54695,0.8489 0.82156,1.28872c0.78726,-2.8979 2.11539,-5.56017 4.49688,-7.00632c-0.08128,-0.26173 -0.10276,-0.44551 -0.10276,-0.44551l-0.31943,-2.74688c-0.11037,-2.53075 -0.22358,-5.06403 -0.4766,-7.58452c0,0 -0.02577,-0.25774 0.02223,-0.61558c-0.13014,-0.01146 -0.25765,-0.02296 -0.3831,-0.03525c-0.0314,0.41352 -0.16339,0.79892 -0.37158,1.1318zM335.25588,173.25882c0.04004,-1.4501 0.08281,-2.90367 0,-4.35196c-0.09517,-1.66445 -5.93373,-9.06127 -5.75414,-9.71979c-0.01096,-0.04249 -0.02084,-0.08542 -0.0296,-0.12875c-0.23233,-0.30743 -0.45301,-0.63357 -0.66012,-0.9611c-0.09992,2.61859 -0.11883,5.22342 -0.11883,7.86068v1.05537c0,0 0,0.07677 -0.01345,0.20341c0.46336,0.42808 0.93815,0.85023 1.44739,1.23645c1.94192,-0.11715 2.44907,1.91145 2.44907,1.91145h-0.00002l0.51424,2.05929c0.20216,0.74142 0.38242,1.47621 0.54558,2.20685c0.86955,-0.47342 1.60692,-0.90312 1.61987,-1.3719zM334.09346,157.21388c0.79618,1.01462 1.46341,2.27866 1.58242,2.46205c3.14237,4.84221 6.48134,9.60235 4.2675,15.80111c-0.57101,1.59883 -3.12495,3.57254 -5.38513,4.22393c0.09615,0.63701 0.1877,1.27529 0.27787,1.91654c4.99708,-2.02566 12.56198,-4.64732 12.91976,-10.01047c0.50502,-7.57039 -2.83093,-12.30831 -6.86858,-18.25051c-0.56413,-0.83023 -4.69014,-4.38871 -4.72985,-5.10339c-0.02566,-0.03952 -0.05023,-0.07982 -0.07367,-0.12085l-0.14132,0.31475c-1.13531,0.56364 -3.44011,2.5978 -4.4586,4.53104c1.03994,1.29623 2.08053,2.94265 2.60961,4.23579zM344.92197,150.45663c5.1504,7.16582 8.02991,12.68441 7.83391,21.60375c-0.1857,8.45042 -9.76486,10.38993 -15.20943,13.75485c-0.46436,0.28698 -1.15732,0.70085 -1.95356,1.10503c0.06261,0.4608 0.12325,0.92191 0.18736,1.38249c-0.5428,0.99373 -0.05111,3.39109 0.28813,4.34097c1.22504,3.43012 2.33916,6.98964 3.82097,10.49824c0.53686,1.27117 -0.03742,3.79996 1.13511,4.985c1.7349,8.19792 3.92187,16.21343 6.78241,24.26673c1.18642,3.34015 3.13639,7.81296 1.10502,11.08767l0.035,0.01194c1.48047,1.30072 3.42617,2.09364 4.67689,3.61658c2.94151,3.58171 2.11739,7.84369 -1.33532,10.77387c-0.76675,0.65071 -1.85077,0.79695 -2.72706,1.29032c-6.25535,3.52191 -12.39113,4.61133 -19.54989,5.3197c-6.10991,0.00464 -12.21981,0.00311 -18.32972,0.00311c-5.51412,0 -11.46755,0.26743 -16.63215,-2.08528c-2.77457,-1.26394 -5.71049,-2.79345 -7.46291,-5.28841c-0.7583,-1.07961 -0.29874,-2.62713 -0.30138,-3.94643c-0.00747,-3.72456 0.48288,-7.39488 2.20017,-10.34711c-1.09921,-0.21691 -2.15801,-0.50435 -3.15565,-0.89585c-1.483,-0.58195 -3.23573,-1.324 -3.89004,-2.77652c-0.98846,-2.19428 2.09618,-7.12617 2.90139,-9.19793c2.64872,-6.815 5.76763,-12.89776 9.37457,-19.29708c0.44648,-0.79215 0.86684,-1.59161 1.27167,-2.39464l-0.3183,-0.04422c0.90978,-0.50424 1.87388,-1.38702 2.23045,-1.87679c1.66672,-2.28931 1.61871,-4.71875 2.8359,-7.06367c1.29825,-2.50108 5.31088,-2.92122 6.62736,-5.76519c0.04291,-0.00765 0.0858,-0.01636 0.12867,-0.02616c0.35037,-0.08015 0.28039,-0.66244 0.39877,-1.00181c0.11479,-0.3291 0.22787,-0.65879 0.33988,-0.98885c-1.72271,-0.25841 -3.39053,-0.83385 -5.02772,-2.02708c-9.29143,-6.77193 -9.2509,-18.38049 -6.71756,-28.48184c0.72422,-2.88772 1.01551,-5.52061 2.779,-7.94637c0.63206,-0.86943 2.9245,-4.14089 4.97787,-6.46895c-2.61582,0.05073 -5.28223,0.18009 -7.8629,-0.0178c-1.50322,-0.11527 -3.32526,0.39394 -4.48725,-0.56664c-1.17046,-0.96759 -1.13708,-2.83544 -1.43055,-4.32545c-0.61939,-3.14486 0.3324,-7.59955 0.80928,-10.65798c1.31842,-8.45556 2.45048,-17.84739 7.22249,-25.23276c0.5529,-0.85569 4.05188,-5.62454 4.8151,-6.18545c1.24284,-0.9134 2.81528,-1.26095 4.22292,-1.89143c0,0 0.63322,-0.27139 1.37732,-0.19682c9.21486,-3.59994 17.92561,-1.76949 27.20114,0.88093c5.00296,1.42956 10.20704,1.99458 13.47577,6.47388c3.44509,4.72097 3.61483,11.43399 4.89549,16.98228c1.36151,5.44633 3.0211,10.89787 3.23224,16.55418c0.08794,2.35575 0.23656,5.41038 -2.02173,7.11428c-1.64274,1.23947 -5.28107,1.04857 -7.33509,1.05096c-2.12137,0.00247 -4.17212,-0.07846 -6.2216,0.02081c0.88373,1.05142 1.76349,2.45215 2.78755,3.87695zM334.24543,199.41259c-8.5232,3.40562 -17.67043,2.19726 -26.38755,-0.17313c0,0 -0.56903,-0.15519 -1.07893,-0.5912c-3.31998,4.41157 -4.97687,9.61588 -7.6816,14.42273c-2.50198,4.44651 -5.09964,8.7061 -6.98754,13.42928c-1.03243,2.58295 -2.10906,5.14524 -3.18986,7.70975c-0.35226,0.83583 -0.5557,1.74187 -1.01118,2.52625c-0.16944,0.29179 -0.84479,0.27285 -0.80906,0.60838c0.03071,0.28843 0.5705,-0.16665 0.85914,-0.13808c1.47413,0.14591 2.92168,0.50424 4.395,0.65812c4.60871,0.48134 8.58954,0.66302 13.15519,1.67184c4.27423,0.99809 8.07198,1.75212 12.41141,2.33764c0.83521,0.11269 1.65876,0.56424 2.49113,0.43217c1.02823,-0.16314 0.41913,-5.2205 0.38243,-5.77774c-0.38953,-5.91375 -0.59439,-12.97921 -2.51324,-18.59453l-0.1283,-2.37363c0,0 0,-2.5 2.5,-2.5c2.5,0 2.5,2.5 2.5,2.5l-0.12829,0.79249c2.20532,6.75006 2.90537,15.62138 2.76673,22.68957c-0.02631,1.34138 0.06556,2.6114 -0.10183,3.76783c2.96736,-0.69395 5.87891,-1.25761 9.01039,-1.51059c2.57166,-0.20776 5.14184,-0.55342 7.72179,-0.53235c0.69645,0.00569 1.39004,0.49446 2.06459,0.32111c1.06813,-0.2745 0.16251,-2.24573 -0.14288,-3.30544c-1.16967,-4.05876 -2.90714,-7.93866 -4.17499,-11.97032c-2.72061,-8.6513 -4.43614,-17.48666 -5.89776,-26.41004zM335.16386,123.35369c4.83665,0.01528 9.36478,-1.57169 14.16492,-1.81569c-0.85379,-4.96168 -1.16067,-12.28728 -5.13964,-15.34113c-2.24133,-1.72021 -6.92987,-2.28504 -9.44308,-3.00302c-8.44169,-2.41167 -16.50015,-4.47097 -24.95119,-0.64843c0,0 -0.60435,0.2686 -1.32953,0.21866c-6.28551,3.18021 -8.98707,10.85537 -10.5205,18.37697c4.63164,0.71358 9.04931,2.0241 13.72188,2.48889l1.92464,0.77921c0,0 0.05637,0.02818 0.14672,0.08454c0.08555,-0.06846 0.17264,-0.13495 0.2613,-0.19942c1.6605,-1.20756 4.21794,-1.25942 6.14049,-1.45586c3.44398,-0.3519 9.19485,-1.2855 12.31868,0.58773c0.31579,0.18937 0.61502,0.39813 0.89855,0.62453c0.73985,-0.69697 1.80675,-0.69697 1.80675,-0.69697zM325.46939,258.22902c2.48854,-1.37634 2.75705,-2.2514 1.79059,-5.17861c-0.32265,-0.97723 -0.32882,-2.10092 -0.91009,-2.95016c-0.86707,-1.26679 -3.37475,-1.29808 -4.52535,-1.46801c0,0 -1.46758,-0.2446 -1.94973,-1.48856c-0.79852,-0.08346 -1.61057,-0.24205 -2.38684,-0.28826c-4.51681,-0.26892 -8.70954,-1.42094 -13.08977,-2.44385c-2.81327,-0.62901 -5.9777,-0.72782 -9.10396,-0.92536c-2.41848,1.61476 -2.333,4.21715 -2.77348,7.26038c-0.12737,0.88003 -0.12077,1.77564 -0.24052,2.65674c-0.06124,0.45057 -0.6193,1.00534 -0.30138,1.33043c1.41782,1.44975 3.35699,2.31227 5.20157,3.15458c4.42685,2.02147 9.78469,1.60853 14.50137,1.60853c3.99613,0 7.99225,-0.00078 11.98837,0.00011c0.41418,-0.87214 1.268,-1.16776 1.79922,-1.26796zM315.86088,147.89459c1.03227,0.85183 2.6959,0.64713 3.84233,0.8156c4.95344,0.72788 8.61719,1.99076 11.87757,-2.45749l0.2065,-0.74769c0,0 0.42652,-1.0663 1.4241,-1.4644c-0.03022,-0.35068 0.00527,-0.59911 0.00527,-0.59911l0.23872,-1.49335c0,-4.0874 -0.25208,-6.87543 -1.68254,-10.71758c-0.09353,-0.25124 -0.24315,-0.73251 -0.44279,-1.26271c-0.03177,-1.07842 -0.54245,-1.67078 -1.09387,-1.99615c-0.09091,-0.08963 -0.18506,-0.16365 -0.28232,-0.21814c-0.57496,-0.32212 -4.20972,-0.19153 -4.28837,-0.19139c-2.17717,0.00382 -7.17063,-0.53894 -9.34236,1.23091c-0.50316,0.3071 -0.993,0.83552 -1.06809,1.73817c-0.93415,2.78109 -0.99914,6.77285 -1.3472,9.53065c-0.14364,1.13815 0.25859,2.44628 -0.11115,3.49231c0.50235,1.58073 0.70016,3.21475 2.0642,4.34037zM331.98631,251.41891c1.18633,3.30154 1.00174,5.80533 -0.41002,7.88413c5.64551,-0.66046 10.48347,-1.72604 15.57435,-4.50941c1.2009,-0.65658 3.59118,-1.3444 3.46909,-3.34531c-0.06912,-1.1327 -4.2661,-3.58254 -4.96533,-4.19215l-1.07083,0.01623c0,0 -1.06364,-0.26591 -1.60607,-1.14992c-0.97461,-0.05453 -1.96272,-0.15198 -2.89118,-0.08793c-3.37932,0.23314 -6.56356,0.5352 -9.75472,1.04098c0.93259,1.22753 1.13142,2.88705 1.65472,4.34337zM323.96188,154.98436c0,0 0.01385,-0.22168 0.09938,-0.52876c-0.64257,-0.07235 -1.28356,-0.16641 -1.91791,-0.26874c0.21491,2.35041 0.32458,4.7103 0.42678,7.06838l0.29245,2.48786c0.29104,0.02666 0.5691,0.07184 0.83589,0.13332c0.0166,-2.96844 0.07801,-5.91209 0.26341,-8.89207z" fill="#000000" stroke="none" stroke-width="0.5" stroke-linecap="butt"/><path d="M328.75589,167.39371l0.29857,0.07464h0.30777l0.66667,0.16667l0.08649,0.04613l0.09774,0.00751l0.5,0.16667l0.20051,0.12759l0.13566,-0.00936l0.35084,0.31895l0.40003,0.25456l0.02667,0.13334l0.17585,0.15986l0.10257,0.15385l0.08925,0.08114l0.49104,0.42088l0.00212,0.03826l0.31502,0.47253l0.05313,0.14877l0.10281,0.11995l0.09372,0.18743l0.02438,0.01393l0.01742,0.06966l0.03115,0.06231l0.12461,0.56075l0.13932,0.55728v0.06966l0.01558,0.0701l-0.01558,0.02336v3.33688l-0.07464,0.29857v0.30777l-0.09202,0.36809v0.3589l-0.05068,0.20271l0.01666,0.20829l-0.16667,1l-0.05133,0.11807l-0.00274,0.12873l-0.5,1.83333l-0.15533,0.27691l-0.08596,0.30564l-0.63224,1.10642l-0.3023,0.6046l-0.26154,0.30513l-0.14119,0.23532v0.00818l-0.07464,0.29857v0.30776l-0.09202,0.36809v1.02557l-0.11484,0.45934l-0.06398,0.46913l-0.27032,0.6758l-0.29218,1.16873l-0.17398,0.32621l-0.10764,0.35369l-0.5,0.83334l-0.04311,0.0431l-0.0205,0.05741l-0.33334,0.5l-0.28498,0.25907l-0.23341,0.30635l-0.83333,0.66666l-0.24016,0.11008l-0.07157,0.12525l-0.44375,0.11094l-0.41582,0.19058l-0.13414,-0.0531l-0.2563,0.06408h-5.5l-0.29857,-0.07465h-0.30777l-0.36809,-0.09202h-0.19223l-1.01653,-0.25414l-0.11021,0.00761l-0.05333,-0.04849l-0.06993,-0.01748l-0.05481,-0.09592l-0.77531,-0.70483l-0.33334,-0.5l-0.11231,-0.31447l-0.17928,-0.28171l-0.16666,-0.5l-0.03082,-0.4007l-0.09747,-0.38987v-4.90983l-0.16647,-0.33293l-0.247,-0.37049l-0.08795,-0.24628l-0.15311,-0.212l-0.29471,-0.73678l-0.10539,-0.21079l-0.04647,-0.04647l-0.12811,-0.21352l-0.18425,-0.1675l-0.3117,-0.46756l-0.03439,-0.01652l-0.20208,-0.61747l-0.21852,-0.61185l0.01706,-0.03412l-0.16388,-2.29444l0.01574,-0.08973l-0.02209,-0.08839v-0.67021l-0.01558,-0.02336l0.01558,-0.0701v-0.06966l0.13932,-0.55729l0.12461,-0.56075l0.03116,-0.06231l0.01741,-0.06966l0.02438,-0.01394l0.92705,-1.8541l0.08542,-0.09965l0.0415,-0.1245l1.16667,-1.83333l0.19973,-0.18949l0.14165,-0.23609l0.66666,-0.66667l0.12072,-0.07242l0.08531,-0.11198l0.83334,-0.66666l0.33474,-0.15342l0.29852,-0.2156l0.83333,-0.33334l0.46913,-0.06397l0.45934,-0.11483h1.5c0.42611,0 0.82733,0.10661 1.17843,0.2946l0.07157,0.0179l0.01884,0.03296c0.02292,0.01353 0.04561,0.02741 0.06805,0.04164l0.62216,-0.2118l2,-0.16666l0.1047,0.01709l0.10291,-0.02572z" fill="#0e0e0e" stroke="none" stroke-width="0.5" stroke-linecap="butt"/><path d="M320.75589,175.31037c0,-1.70288 1.38045,-3.08334 3.08333,-3.08334c1.70288,0 3.08334,1.38046 3.08334,3.08334c0,1.70288 -1.38046,3.08334 -3.08334,3.08334c-1.70288,0 -3.08333,-1.38046 -3.08333,-3.08334z" fill="none" stroke="#000000" stroke-width="1.25" stroke-linecap="butt"/><path d="M319.52366,180.29261c1.94858,2.15152 2.06873,6.26415 -0.69121,7.92012c-2.76481,1.65888 -6.79591,1.26335 -6.20921,-2.89668c0.20381,-1.44514 0.80202,-3.07071 1.04519,-3.96231c-0.05169,-0.20028 -0.0792,-0.41027 -0.0792,-0.6267c0,-1.38071 1.11929,-2.5 2.5,-2.5c0.67203,-0.52031 2.99401,1.57927 3.43444,2.06557z" fill="#ffce79" stroke="none" stroke-width="0.5" stroke-linecap="butt"/><path d="M334.42256,185.06037c-0.68402,2.73608 -5.99021,6.59527 -8.1875,2.75c-1.6433,-2.87577 1.14119,-9.93097 5.02083,-9.25c0.88429,0 1.66134,0.45912 2.1058,1.15198c0.87739,0.70081 1.55771,1.59921 1.06087,2.34447z" fill="#ffce79" stroke="none" stroke-width="0.5" stroke-linecap="butt"/><path d="M323.61006,187.31037c-1.17449,1.95748 -8.6875,6.04291 -8.6875,0.91666c0,-2.4658 2.66015,-2.27944 4,-3.50463c0.8845,-0.80881 -2.48347,-1.17808 -2.71852,-2.35335c-0.3829,-0.43924 -0.61481,-1.01355 -0.61481,-1.64203c0,-1.38071 1.11929,-2.5 2.5,-2.5c0.43194,0 0.8383,0.10955 1.19281,0.30238c3.51645,0.05385 5.89012,6.17747 4.32802,8.78096z" fill="#ffce79" stroke="none" stroke-width="0.5" stroke-linecap="butt"/><path d="M328.25589,185.06037c-0.14335,0.47927 5.16875,4.6888 -0.16667,5.33333c-7.58781,0.91662 -5.83517,-9.2807 0.25787,-11.49636l0.90879,-0.17031c0.15047,0 0.29784,0.01329 0.44099,0.03877c2.96145,0.31756 2.93634,1.56385 2.02612,2.86778c-0.1653,1.01076 -0.93677,1.81771 -1.92894,2.03538c-0.79998,0.70916 -1.4955,1.24873 -1.53817,1.3914z" fill="#ffce79" stroke="none" stroke-width="0.5" stroke-linecap="butt"/></g></g></svg>