<svg version="1.1" xmlns="http://www.w3.org/2000/svg" xmlns:xlink="http://www.w3.org/1999/xlink" width="1103.6983" height="693.79029" viewBox="0,0,1103.6983,693.79029"><defs><linearGradient x1="329.08627" y1="-101.40331" x2="329.08627" y2="411.18648" gradientUnits="userSpaceOnUse" id="color-1"><stop offset="0" stop-color="#a7c9e3"/><stop offset="1" stop-color="#7ba5c6"/></linearGradient><radialGradient cx="354.90991" cy="14.23673" r="216.21622" gradientUnits="userSpaceOnUse" id="color-2"><stop offset="0" stop-color="#ff9500" stop-opacity="0.50196"/><stop offset="1" stop-color="#ff9500" stop-opacity="0"/></radialGradient><linearGradient x1="352.57207" y1="-32.86009" x2="352.57207" y2="45.239" gradientUnits="userSpaceOnUse" id="color-3"><stop offset="0" stop-color="#ffbb00"/><stop offset="1" stop-color="#ff9600"/></linearGradient></defs><g transform="translate(240.30931,201.97948)"><g data-paper-data="{&quot;isPaintingLayer&quot;:true}" fill-rule="nonzero" stroke="#000000" stroke-linejoin="miter" stroke-miterlimit="10" stroke-dasharray="" stroke-dashoffset="0" style="mix-blend-mode: normal"><path d="M-147.47311,411.18648v-512.58984h953.11875v512.58984z" fill="url(#color-1)" stroke-width="0" stroke-linecap="butt"/><path d="M138.69369,230.45295v-432.43243h432.43243v432.43243z" fill="url(#color-2)" stroke-width="0" stroke-linecap="butt"/><path d="M53,-16.57627l18,77l18,17l-19,23l15,17l8,39l-129,6l21,-177z" fill="#97524a" stroke-width="2" stroke-linecap="round"/><path d="M162,156.42371l29,-32l21,14l23,-42l19,59z" fill="#97524a" stroke-width="2" stroke-linecap="round"/><path d="M454,154.38561l27,-92l22,33l23,-68l25,38l-14,92z" fill="#97524a" stroke-width="2" stroke-linecap="round"/><path d="M400,156.0261l-8,-38.77509l17.4985,-19.70558l31.5015,-63.19287l46,77.55017l-14,53.48287z" fill="#97524a" stroke-width="2" stroke-linecap="round"/><path d="M524,152.38561l11,-108l35,-8l-16,-49l97,4l-2,58l-21,33l23,34l-4,40z" fill="#97524a" stroke-width="2" stroke-linecap="round"/><path d="M-161.11862,490.15628v-345.43382h1023.50761v345.43382z" fill="#ababab" stroke-width="2" stroke-linecap="butt"/><path d="M313.52252,6.18945c0,-21.56647 17.48308,-39.04955 39.04955,-39.04955c21.56647,0 39.04955,17.48308 39.04955,39.04955c0,21.56647 -17.48308,39.04955 -39.04955,39.04955c-21.56647,0 -39.04955,-17.48308 -39.04955,-39.04955z" fill="url(#color-3)" stroke-width="2" stroke-linecap="butt"/><path d="M-239.30931,490.81081v-138.13814h1097.5976v138.13814z" fill="#bdb168" stroke-width="2" stroke-linecap="butt"/></g></g></svg>