<svg version="1.1" xmlns="http://www.w3.org/2000/svg" xmlns:xlink="http://www.w3.org/1999/xlink" width="39.6" height="39.6" viewBox="0,0,39.6,39.6"><g transform="translate(-310.7,-170.7)"><g data-paper-data="{&quot;isPaintingLayer&quot;:true}" fill-rule="nonzero" stroke-linecap="butt" stroke-linejoin="miter" stroke-miterlimit="10" stroke-dasharray="" stroke-dashoffset="0" style="mix-blend-mode: normal"><path d="M312.2,190.5c0,-10.10682 8.19319,-18.3 18.3,-18.3c10.10681,0 18.3,8.19319 18.3,18.3c0,10.10682 -8.19319,18.3 -18.3,18.3c-10.10681,0 -18.3,-8.19318 -18.3,-18.3z" fill="none" stroke-opacity="0.50196" stroke="#ff0000" stroke-width="3"/><path d="M323.93077,184.40001c0,-1.29576 1.05039,-2.34615 2.34616,-2.34615c1.29577,0 2.34616,1.05039 2.34616,2.34615c0,1.29576 -1.05039,2.34616 -2.34616,2.34616c-1.29577,0 -2.34616,-1.05039 -2.34616,-2.34616z" fill-opacity="0.50196" fill="#ff1414" stroke="none" stroke-width="0.5"/><path d="M333.31538,190.5c0,-1.29576 1.05039,-2.34616 2.34616,-2.34616c1.29577,0 2.34616,1.05039 2.34616,2.34616c0,1.29576 -1.05039,2.34616 -2.34616,2.34616c-1.29577,0 -2.34616,-1.05039 -2.34616,-2.34616z" fill-opacity="0.50196" fill="#ff1414" stroke="none" stroke-width="0.5"/><path d="M324.40001,195.19232c0,-1.29576 1.05042,-2.34616 2.34615,-2.34616c1.29573,0 2.34616,1.0504 2.34616,2.34616c0,1.29576 -1.05042,2.34615 -2.34616,2.34615c-1.29573,0 -2.34615,-1.05039 -2.34615,-2.34615z" fill-opacity="0.50196" fill="#ff1414" stroke="none" stroke-width="0.5"/></g></g></svg>