<svg version="1.1" xmlns="http://www.w3.org/2000/svg" xmlns:xlink="http://www.w3.org/1999/xlink" width="92.6112" height="223.95208" viewBox="0,0,92.6112,223.95208"><g transform="translate(-277.8098,-48.55904)"><g data-paper-data="{&quot;isPaintingLayer&quot;:true}" fill-rule="nonzero" stroke-linejoin="miter" stroke-miterlimit="10" stroke-dasharray="" stroke-dashoffset="0" style="mix-blend-mode: normal"><path d="M294.12984,242.05079c0,-3.48651 0.00082,-6.976 -0.00466,-10.4625c-0.02231,-14.20339 5.68521,-28.02951 5.68521,-42.2069c0,0 0.00007,-0.04921 -0.00677,-0.13337c0.35353,-1.42366 0.53715,-2.97883 0.69053,-3.96985c1.1351,-7.33419 1.4059,-14.7862 0.84111,-22.19447l0.00845,-1.80892c0,0 0.05174,-2.41444 -2.44826,-2.41444l-0.00001,-0.00004c-2.5,0 -2.4965,2.49762 -2.4965,2.49762l0.00868,2.19072c0.47065,6.06031 0.52741,12.40582 -0.36652,18.42422c-0.24931,1.67851 -0.69464,3.32824 -0.76598,5.02367c-0.00929,0.22084 0.13373,0.47682 0.23156,0.71251c-0.13824,0.16868 -0.24432,0.34869 -0.32611,0.52753c-0.20599,-0.17307 -0.42423,-0.54485 -0.67794,-0.60014c-0.9455,-0.20605 -1.93036,-0.13763 -2.89563,-0.20605c-2.00111,0 -4.00265,-0.32923 -5.99968,-0.20154c-0.49992,0.03197 -1.05728,0.62989 -1.52571,0.45238c-0.29975,-0.11359 0.18765,-0.6274 0.17159,-0.94756c-0.14232,-2.836 -0.24012,-5.11818 0.05682,-7.98079c0.74031,-7.13686 1.94072,-14.14142 2.41959,-21.30613c0.20301,-3.03736 -0.00687,-5.8912 1.06563,-8.63194c1.3396,-0.90887 2.5705,-2.11222 3.14304,-2.99658c0.85288,-0.45002 1.73146,-0.82371 2.45871,-1.14794c1.54017,-0.68667 3.0812,-1.40972 4.69826,-1.88803l1.40094,-0.65903c0,0 1.00305,-0.50136 1.33039,-1.50294c3.77026,-0.24964 1.49335,3.65638 4.11735,6.11042c1.22906,1.14945 4.15273,1.86465 6.98243,2.11229c0.77067,0.03397 1.54437,0.06612 2.31639,0.09646c1.35911,-0.00904 2.56733,-0.14536 3.37541,-0.41316c1.88892,-0.62599 4.95178,-3.25869 5.66261,-5.13112c0.36164,-0.95262 -0.05305,-1.93896 -0.14475,-2.95378c-0.00172,-0.01901 -0.00033,-0.13848 -0.00489,-0.15853c0.38338,0.21216 0.70672,0.28667 0.70672,0.28667c3.22048,0.7154 7.22858,1.96656 9.59191,4.43782c0.35018,1.56589 1.15045,3.25852 1.55667,4.98309c0.0421,8.18817 0.81346,16.36575 0.81346,24.57359l0.0025,2.40208c0,0 0.00538,2.5056 2.50538,2.5056c2.5,0 2.42313,-2.43604 2.42313,-2.43604l0.0022,-2.39756c0,-1.55519 -0.02347,-3.10546 -0.06821,-4.65855c1.47891,-0.07304 2.09274,-1.6098 2.09274,-1.6098c1.30722,-3.28042 3.13098,-6.13019 4.58075,-9.34587c0.81309,-1.80348 0.42906,-4.09241 1.53647,-5.7317c0.23332,-0.34539 0.80938,0.32589 1.22376,0.37088c0.99416,0.10795 2.00187,0.00603 3.00186,0.00143c1.21094,-0.00557 2.79458,-0.80306 3.63426,0.06949c1.08848,1.13108 0.23788,3.13447 0.2711,4.70388c0.07843,3.70507 0.43651,7.64088 0.21227,11.34738c-0.20444,3.37906 -1.76346,6.78683 -2.95665,9.9166c-3.36434,5.76564 -8.98588,8.65739 -15.76183,8.4184c-1.29819,-0.04579 -2.86976,-0.15004 -4.33779,-0.53803c-0.39527,-0.54507 -1.13604,-1.20188 -2.33583,-0.96959c-0.67622,-0.42848 -1.24799,-0.97229 -1.66181,-1.68144c-1.08834,-1.86506 -1.14835,-4.49463 -1.22037,-6.57952c-0.15736,-4.5551 0.01166,-9.14192 0.01166,-13.70011l0.00009,-0.19998c0,0 0.00084,-0.5447 -0.25357,-1.12573c0.07749,-0.58121 0.15531,-1.16234 0.2328,-1.74355h-0.00001c0,0 0.33421,-2.47725 -2.14386,-2.80766c-2.47807,-0.33041 -2.80491,2.14815 -2.80491,2.14815c-0.13333,1 -0.26651,2.00002 -0.39984,3.00002l-0.01214,0.43089c0,0 0.00091,0.71731 0.38506,1.38343c-0.16829,6.72134 -1.52509,16.05449 2.01038,21.73434c1.08953,1.75036 2.64618,3.08237 4.46163,4.00561c0.72714,2.70681 0.67357,5.36449 0.9277,8.24692c0.39755,4.50922 1.41777,9.1496 2.234,13.59321c1.93576,10.53842 6.38262,21.40758 6.29178,32.22319c0.16804,0.34339 0.83685,0.84169 0.50422,1.03013c-0.83737,0.47438 -1.91362,0.23325 -2.87286,0.31122c-4.81793,0.39161 -9.65188,0.28219 -14.48097,0.28219c-0.94169,0 -1.94866,0.4677 -2.8736,0.50112c-0.49289,-0.34772 -1.05734,-0.45417 -1.35589,-0.48674c-0.53078,-0.69726 -0.21873,-2.07906 -0.2517,-3.04089c-0.06719,-1.96016 0.00356,-3.92263 0.00356,-5.88394c0,-7.71262 -0.00256,-15.42543 -0.00256,-23.13805c-0.00111,-2.66836 -0.15505,-5.33619 -0.32086,-7.9994l-0.35274,-2.22833c0,0 -0.41541,-2.474 -2.88308,-2.07323c-2.46767,0.40077 -2.01248,2.78455 -2.01248,2.78455l0.2912,1.73593c0.16059,2.55932 0.29993,5.11897 0.2988,7.68332c0,8.66348 -0.01386,17.32494 -0.00848,25.98842c0.00107,1.73006 -0.12346,3.79922 0.1542,5.64755c-6.31727,-0.68516 -12.57864,-1.13259 -19.03823,-1.04127c-0.21261,-0.21979 -0.4891,-0.40948 -0.84666,-0.53083c-0.131,-0.70738 0.29342,-1.98423 0.29342,-3.03135z" data-paper-data="{&quot;noHover&quot;:false,&quot;origItem&quot;:[&quot;Path&quot;,{&quot;applyMatrix&quot;:true,&quot;segments&quot;:[[[327.36806,235.15171],[0,0],[0,-3.48651]],[[327.36806,224.69213],[-0.00548,3.4865],[0.02231,-14.20339]],[[321.66283,182.53686],[0,14.17739],[0,0]],[[321.66967,182.40378],[-0.00684,0.08416],[-0.35353,-1.42366]],[[320.98199,178.44268],[0.15338,0.99102],[-1.1351,-7.33419]],[[320.16028,156.2708],[-0.56479,7.40827],[0,0]],[320.15292,154.46254],[[322.65292,151.96254],[-2.5,0],[0,0]],[[322.65293,151.9625],[0,0],[2.5,0]],[325.15293,154.4625],[[325.14557,156.65424],[0,0],[-0.47065,6.06031]],[[325.52587,175.09565],[-0.89393,-6.0184],[0.24931,1.67851]],[[326.29512,180.12798],[-0.07134,-1.69543],[0.00929,0.22084]],[[326.06387,180.84166],[0.09783,-0.23569],[0.13824,0.16868]],[[326.39024,181.37029],[-0.08179,-0.17884],[0.20599,-0.17307]],[[327.068,180.76936],[-0.25371,0.05529],[0.9455,-0.20605]],[[329.96381,180.5641],[-0.96527,0.06842],[2.00111,0]],[[335.96381,180.3641],[-1.99703,-0.12769],[0.49992,0.03197]],[[337.39115,180.83441],[-0.46843,0.17751],[0.29975,-0.11359]],[[337.2198,179.88813],[-0.01606,0.32016],[0.14232,-2.836]],[[337.1659,171.9169],[0.29694,2.86261],[-0.74031,-7.13686]],[[334.75841,150.62809],[0.47887,7.16471],[-0.20301,-3.03736]],[[333.69739,141.99994],[1.0725,2.74074],[-1.3396,-0.90887]],[[330.55751,139.00548],[0.57254,0.88436],[-0.85288,-0.45002]],[[328.10087,137.85875],[0.72725,0.32423],[-1.54017,-0.68667]],[[323.40664,135.97272],[1.61706,0.47831],[0,0]],[322.00697,135.31423],[[320.67805,133.81186],[0.32734,1.00158],[-3.77026,-0.24964]],[[316.56234,139.92286],[2.624,-2.45404],[-1.22906,1.14945]],[[309.5862,142.03679],[2.8297,-0.24764],[-0.77067,0.03397]],[[307.27226,142.13366],[0.77202,-0.03034],[-1.35911,-0.00904]],[[303.90056,141.72089],[0.80808,0.2678],[-1.88892,-0.62599]],[[298.24387,136.58981],[0.71083,1.87243],[-0.36164,-0.95262]],[[298.38369,133.53615],[-0.0917,1.01482],[0.00172,-0.01901]],[[298.39322,133.47751],[-0.00456,0.02005],[-0.38338,0.21216]],[[297.68717,133.76414],[0,0],[-3.22048,0.7154]],[[288.10491,138.20043],[2.36333,-2.47126],[-0.35018,1.56589]],[[286.55111,143.18268],[0.40622,-1.72457],[-0.0421,8.18817]],[[285.75292,167.74814],[0,-8.20784],[0,0]],[285.75292,170.14814],[[283.25292,172.64814],[2.5,0],[-2.5,0]],[280.75292,170.14814],[[280.75292,167.74814],[0,0],[0,-1.55519]],[[280.82512,163.08587],[-0.04474,1.55309],[-1.47891,-0.07304]],[[278.73173,161.47662],[0,0],[-1.30722,-3.28042]],[[274.15331,152.12886],[1.44977,3.21568],[-0.81309,-1.80348]],[[272.61868,146.39582],[1.10741,1.63929],[-0.23332,-0.34539]],[[271.45292,146.84815],[0.41438,-0.04499],[-0.99416,0.10795]],[[268.45292,146.84815],[0.99999,0.0046],[-1.21094,-0.00557]],[[264.82069,146.91592],[0.83968,-0.87255],[-1.08848,1.13108]],[[264.55196,151.61752],[0.03322,-1.56941],[-0.07843,3.70507]],[[264.34564,162.95753],[-0.22424,-3.7065],[0.20444,3.37906]],[[267.30661,172.86609],[-1.19319,-3.12977],[3.36434,5.76564]],[[282.9749,181.24937],[-6.77595,0.23899],[1.29819,-0.04579]],[[287.315,180.70554],[-1.46803,0.38799],[0.39527,-0.54507]],[[289.65427,179.72983],[-1.19979,-0.23229],[0.67622,-0.42848]],[[291.32159,178.04145],[-0.41382,0.70915],[1.08834,-1.86506]],[[292.55475,171.45221],[-0.07202,2.08489],[0.15736,-4.5551]],[[292.55291,157.74815],[0,4.55819],[0,0]],[292.55291,157.54815],[[292.80732,156.42219],[-0.25441,0.58103],[-0.07749,-0.58121]],[[292.57484,154.67856],[0.07749,0.58121],[0,0]],[292.57485,154.67856],[[294.72251,151.87008],[-2.47807,0.33041],[2.47807,-0.33041]],[[297.53099,154.01774],[0,0],[0.13333,1]],[[297.93099,157.01774],[-0.13333,-1],[0,0]],[297.95292,157.54815],[[297.56877,158.93148],[0.38415,-0.66612],[0.16829,6.72134]],[[295.58424,180.65485],[3.53547,-5.67985],[-1.08953,1.75036]],[[291.13938,184.63414],[1.81545,-0.92324],[-0.72714,2.70681]],[[290.20729,192.84505],[0.25413,-2.88243],[-0.39755,4.50922]],[[287.95705,206.42035],[0.81623,-4.44361],[-1.93576,10.53842]],[[281.65494,238.63824],[-0.09084,-10.81561],[-0.16804,0.34339]],[[281.15081,239.66841],[-0.33263,-0.18844],[0.83737,0.47438]],[[284.02129,239.9788],[-0.95924,-0.07797],[4.81793,0.39161]],[[298.48931,240.25868],[-4.82909,0],[0.94169,0]],[[301.36022,240.75975],[-0.92494,-0.03342],[0.49289,-0.34772]],[[302.71483,240.27304],[-0.29855,0.03257],[0.53078,-0.69726]],[[302.96618,237.23216],[-0.03297,0.96183],[0.06719,-1.96016]],[[302.96235,231.34823],[0,1.96131],[0,-7.71262]],[[302.96235,208.21037],[0,7.71262],[0.00111,-2.66836]],[[303.27911,200.21155],[-0.16581,2.66321],[0,0]],[303.6286,197.98393],[[306.49704,195.91703],[-2.46767,-0.40077],[2.46767,0.40077]],[308.56394,198.78547],[[308.26938,200.52343],[0,0],[-0.16059,2.55932]],[[307.96236,208.21036],[-0.00113,-2.56435],[0,8.66348]],[[307.96236,234.20083],[0.00538,-8.66348],[-0.00107,1.73006]],[[307.7942,239.74936],[0.27766,-1.84833],[6.31727,-0.68516]],[[326.81649,238.71299],[-6.45959,-0.09132],[0.21261,-0.21979]],[[327.66238,238.18255],[-0.35756,0.12135],[0.131,-0.70738]],[[327.36804,235.1517],[0,1.04712],[0,0]]],&quot;closed&quot;:true,&quot;fillColor&quot;:[0,0,0,1]}],&quot;index&quot;:null}" fill="#7b8a52" stroke="none" stroke-width="0.5" stroke-linecap="butt"/><path d="M333.2563,198.11977c0.25385,-0.05821 0.45879,0.14673 0.45879,0.14673l0.32079,0.39544c0.23592,0.77384 0.73323,1.39928 1.0058,2.21859c1.60005,6.42304 2.83529,13.19866 3.87873,19.80461c1.18266,6.25841 1.53095,13.2309 3.78693,19.13176c1.0899,2.85205 2.48086,8.50049 -1.6009,9.8817c-1.99826,0.67618 -4.53653,-1.99366 -6.77201,-1.97418c-2.37356,0.04494 -6.07804,1.4277 -8.36422,0.55757c-1.04174,-0.39648 -0.83752,-2.03963 -1.25782,-2.84226c-0.78604,-1.50105 -1.51963,-2.28135 -2.7044,-3.46612c-2.33592,-2.33592 -0.73217,-3.84 -0.33999,-6.63364c0.41013,-2.92148 0.41206,-5.79491 1.0438,-8.73697c1.85609,-4.53961 -2.26016,-6.42049 -2.84651,-10.32185c-0.35412,-2.35624 1.6879,-4.75075 2.97989,-6.48208c2.38309,-2.68341 3.60703,-6.04994 6.39756,-8.36418c0.93616,-0.77638 3.10244,-2.06214 3.01881,-3.41483c0,0 0,-0.5 0.5,-0.5c0.5,0 0.5,0.5 0.5,0.5c-0.00118,0.03347 -0.00293,0.06671 -0.00523,0.09972z" data-paper-data="{&quot;index&quot;:null}" fill="#363c1a" stroke="none" stroke-width="0.5" stroke-linecap="butt"/><path d="M309.46462,187.38381c-0.77487,2.07666 -2.55792,3.43724 -3.00169,5.66663c0.00111,3.00894 1.28158,6.53184 0.58523,9.4845c-1.17826,4.99606 -6.89142,2.95096 -9.31143,0.54378c-0.78929,-2.30157 -0.34969,-4.53378 -0.13167,-6.8944c0.41719,-4.51717 1.04786,-7.82695 2.47642,-12.10405c0.13315,-0.52254 0.19071,-1.06598 0.20151,-1.6051l0.46252,-0.73246c0,0 0.27735,-0.41603 0.69338,-0.13868c0.05502,0.03668 0.09791,0.07578 0.13092,0.11603c3.00032,0.004 9.45136,1.49216 7.89481,5.66375z" data-paper-data="{&quot;index&quot;:null}" fill="#3b4208" stroke="none" stroke-width="0.5" stroke-linecap="butt"/><path d="M324.13394,166.1215c0.01744,-0.00145 0.02761,-0.00145 0.02761,-0.00145l0.00892,0.00157c0.04549,0.00148 0.11026,0.00839 0.17796,0.03131l0.29047,0.0511c2.58679,1.73636 1.4292,7.85769 1.72066,10.77124c0.40729,4.08666 3.32581,14.34479 -3.59801,14.34479c-0.95947,-0.04615 -1.12354,-0.37491 -1.87689,-0.9119c-1.35014,-0.96239 -2.54152,-1.77798 -3.00166,-3.44321c-0.92653,-3.35307 1.47126,-6.24471 -1.30813,-9.0279c-3.57359,-5.32389 2.30021,-11.23269 7.53146,-11.81394c0,0 0.01011,-0.00113 0.0276,-0.00161z" data-paper-data="{&quot;index&quot;:null}" fill="#40770e" stroke="none" stroke-width="0.5" stroke-linecap="butt"/><path d="M302.88875,152.42613c5.23061,0.03127 7.16633,4.96235 7.16667,9.5c0.00012,1.73221 0.44218,3.67848 -0.78,4.98366c-1.9994,3.00729 -7.62085,7.13103 -11.6226,4.79051c-1.85804,-1.08672 -2.60447,-3.40809 -3.03627,-5.35526c-0.72032,-3.30387 -0.91488,-9.61746 1.91518,-12.10229c1.46305,-1.28459 3.96753,-1.46112 5.87832,-1.48102c0.0954,-0.3356 0.4787,-0.3356 0.4787,-0.3356z" data-paper-data="{&quot;index&quot;:null}" fill="#629200" stroke="none" stroke-width="0.5" stroke-linecap="butt"/><path d="M356.15973,262.81156c0,3.38843 0.86097,7.14502 -2.88197,9.23607c-2.09199,1.16872 -6.27668,-0.24206 -8.61803,-0.23607c-5.81521,0.01488 -11.63062,0.00444 -17.44591,0.00099c-0.11023,0.12704 -0.22833,0.25253 -0.35475,0.37637c-7.79968,-0.20692 -15.60666,-0.24126 -23.40787,-0.08255c-0.67636,-0.13524 -1.35476,-0.24591 -2.03782,-0.30698c-2.22816,-0.19923 -4.50996,-0.37924 -6.61355,-1.14037c-1.96544,-0.71114 -5.05139,-1.80617 -5.97546,-3.95521c-0.77711,-1.80727 0.34598,-3.92502 0.33536,-5.89225c0,0 0,-0.68321 0.35715,-1.33531c0.30881,-3.49197 0.95893,-6.90576 1.08393,-10.47291c-0.30565,-0.18616 -0.57885,-0.41242 -0.80161,-0.70103c-0.81153,-1.05144 -0.35437,-2.63455 -0.44519,-3.95964c-0.19995,-2.91729 0,-5.95363 0,-8.87479c0,-8.84611 1.20994,-17.79965 2.90499,-26.49954c0.25253,-1.29612 0.51402,-2.58692 0.77117,-3.87553h-1.05811c-1.94284,-0.01 -3.9022,-0.16933 -5.80673,-0.56178c-3.06072,1.71201 -5.74643,1.04095 -7.79789,-2.56024c-1.81401,-3.18437 1.27242,-7.6196 2.50835,-10.9168c-1.92598,-2.21509 -1.8537,-7.48969 -1.70118,-9.90172c0.22387,-3.54045 0.91075,-6.99482 1.51033,-10.4638c-0.26731,-0.17368 -0.42437,-0.33074 -0.42437,-0.33074l-1.6638,-2.40855c-1.13017,-9.06133 -0.79818,-17.77408 0.4668,-26.65267c-0.09804,-2.08974 -0.36565,-4.09185 0.18527,-5.78475c0.03023,-0.0929 0.06293,-0.18486 0.09825,-0.27586c-0.00001,-0.00081 -0.00003,-0.00163 -0.00004,-0.00245l-0.00001,0.00002c-0.10588,-6.31595 4.39974,-8.60447 9.71697,-9.12768c-0.91044,-1.99366 -1.71839,-4.03535 -2.36154,-6.15395c0,0 -0.05388,-0.17959 -0.08294,-0.45517c-2.19501,0.0049 -5.46835,-0.07213 -6.04026,-0.74544c-3.52594,-4.15104 1.34503,-7.03226 3.22692,-9.71169c1.57868,-2.24772 3.20638,-4.56132 4.67127,-6.88173c1.05734,-1.67485 1.96149,-4.17176 3.73871,-5.25838c4.69246,-2.86906 12.42849,-2.41597 17.63087,-2.41597c6.38507,0 12.47016,-0.20547 18.74029,1.04855l1.00971,-0.04855c0,0 2.5,0 2.5,2.5c0,0.74923 -0.22454,1.27392 -0.53904,1.64137c2.98154,3.86372 6.57761,8.16349 7.86296,12.43701c0.42277,1.4056 1.40748,3.02557 0.75177,4.33877c-1.16038,2.32394 -3.34637,3.0433 -5.56626,3.40022c-0.01453,0.03298 -0.02337,0.05066 -0.02337,0.05066c-1.22321,2.44641 -2.27654,4.88349 -3.25521,7.34584c2.61334,-0.57773 6.22157,-1.2331 8.33048,-0.32856c3.29398,1.41283 4.802,4.87335 4.86121,8.3389c0.39452,1.02122 0.36054,3.6206 0.35884,4.54174c-0.00334,1.80314 -0.01435,3.60634 -0.01404,5.40948c0.05987,1.51579 0.14495,3.02771 0.25915,4.54152c0.03807,0.15086 0.07833,0.30231 0.11906,0.45418c0.2689,-0.42621 0.59286,-0.82879 0.99231,-1.19881c0.9927,-0.91957 2.68386,-0.36549 4.03424,-0.45233c2.76102,-0.17755 8.00761,-0.60603 10.16777,1.53223c1.04573,1.03512 1.18988,2.71356 1.49749,4.15245c0.35646,1.66743 0.19651,7.0556 0.23366,8.54188c0.17682,7.07339 -0.68707,12.35252 -3.24523,18.9555c-1.53127,2.62564 -3.24703,5.53249 -5.79192,7.34604c-4.12157,2.93713 -11.12386,4.67615 -17.18418,3.85599c0.28162,2.03801 0.36909,4.08702 0.55707,6.28168c0.3714,4.33614 1.419,8.77677 2.18716,13.04908c1.96366,10.92134 6.30232,21.87336 6.37617,33.07525c-0.07338,0.58819 0.00766,1.2537 0.04083,1.89524c3.73544,0.47064 7.74968,1.34669 9.77729,4.79694c1.50865,2.56718 1.37025,6.52521 1.15465,10.07582c0.11984,0.42011 0.11984,0.75 0.11984,0.75zM294.35403,241.80701c0,1.04712 -0.42534,2.32347 -0.29434,3.03085c0.35756,0.12135 0.63328,0.31065 0.84589,0.53044c6.45959,-0.09132 12.70502,0.35121 19.02229,1.03637c-0.27766,-1.84833 -0.16709,-3.81847 -0.16816,-5.54853c-0.00538,-8.66348 0,-17.32699 0,-25.99047c0.00113,-2.56435 -0.14643,-5.12761 -0.30702,-7.68693l-0.29456,-1.73796c0,0 -0.40077,-2.46767 2.0669,-2.86844c2.46767,-0.40077 2.86844,2.0669 2.86844,2.0669l0.34949,2.22762c0.16581,2.66321 0.31565,5.33046 0.31676,7.99882c0,7.71262 0,15.42524 0,23.13786c0,1.96131 -0.07102,3.92377 -0.00383,5.88393c0.03297,0.96183 -0.27943,2.34362 0.25135,3.04088c0.29855,0.03257 0.86172,0.13899 1.35461,0.48671c0.92494,-0.03342 1.92922,-0.50107 2.87091,-0.50107c4.82909,0 9.65009,0.11173 14.46802,-0.27988c0.95924,-0.07797 2.03311,0.16399 2.87048,-0.31039c0.33263,-0.18844 -0.33609,-0.68678 -0.50413,-1.03017c0.09084,-10.81561 -4.36635,-21.67947 -6.30211,-32.21789c-0.81623,-4.44361 -1.85269,-9.06608 -2.25024,-13.5753c-0.25413,-2.88243 -0.20495,-5.5041 -0.93209,-8.21091c-1.81545,-0.92324 -3.35533,-2.22893 -4.44486,-3.97929c-3.53547,-5.67985 -2.15282,-15.00203 -1.98453,-21.72337c-0.38415,-0.66612 -0.38415,-1.38333 -0.38415,-1.38333l0.02193,-0.53041c0.13333,-1 0.26667,-2 0.4,-3c0,0 0.33041,-2.47807 2.80848,-2.14766c2.47807,0.33041 2.14766,2.80848 2.14766,2.80848h0.00001c-0.07749,0.58121 -0.15499,1.16242 -0.23248,1.74363c0.25441,0.58103 0.25441,1.12596 0.25441,1.12596v0.2c0,4.55819 -0.1592,9.14896 -0.00184,13.70406c0.07202,2.08489 0.14482,4.72418 1.23316,6.58924c0.41382,0.70915 0.9911,1.2599 1.66732,1.68838c1.19979,-0.23229 1.944,0.43064 2.33927,0.97571c1.46803,0.38799 3.04191,0.49804 4.3401,0.54383c6.77595,0.23899 12.30395,-2.61764 15.66829,-8.38328c1.19319,-3.12977 2.75653,-6.5295 2.96097,-9.90856c0.22424,-3.7065 -0.12789,-7.63494 -0.20632,-11.34001c-0.03322,-1.56941 0.81975,-3.57052 -0.26873,-4.7016c-0.83968,-0.87255 -2.42129,-0.07334 -3.63223,-0.06777c-0.99999,0.0046 -2.00584,0.10795 -3,0c-0.41438,-0.04499 -0.93244,-0.79772 -1.16576,-0.45233c-1.10741,1.63929 -0.72154,3.92956 -1.53463,5.73304c-1.44977,3.21568 -3.2712,6.06734 -4.57842,9.34776c0,0 -0.61448,1.53621 -2.09339,1.60925c0.04474,1.55309 0.0722,3.10708 0.0722,4.66227v2.4c0,0 0,2.5 -2.5,2.5c-2.5,0 -2.5,-2.5 -2.5,-2.5v-2.4c0,-8.20784 -0.75609,-16.37729 -0.79819,-24.56546c-0.40622,-1.72457 -1.20362,-3.41636 -1.5538,-4.98225c-2.36333,-2.47126 -6.36178,-3.72089 -9.58226,-4.43629c0,0 -0.32267,-0.07447 -0.70605,-0.28663c0.00456,0.02005 0.00781,0.03963 0.00953,0.05864c0.0917,1.01482 0.50146,2.10104 0.13982,3.05366c-0.71083,1.87243 -3.76777,4.50509 -5.65669,5.13108c-0.80808,0.2678 -2.01259,0.40373 -3.3717,0.41277c-0.77202,-0.03034 -1.54327,-0.0629 -2.31394,-0.09687c-2.8297,-0.24764 -5.74708,-0.96448 -6.97614,-2.11393c-2.624,-2.45404 -0.34545,-6.36064 -4.11571,-6.111c-0.32734,1.00158 -1.32892,1.50237 -1.32892,1.50237l-1.39967,0.65849c-1.61706,0.47831 -3.15406,1.19936 -4.69423,1.88603c-0.72725,0.32423 -1.60376,0.69671 -2.45664,1.14673c-0.57254,0.88436 -1.80028,2.08559 -3.13988,2.99446c-1.0725,2.74074 -0.85801,5.59079 -1.06102,8.62815c-0.47887,7.16471 -1.66718,14.15195 -2.40749,21.28881c-0.29694,2.86261 -0.19622,5.13523 -0.0539,7.97123c0.01606,0.32016 -0.4711,0.83269 -0.17135,0.94628c0.46843,0.17751 0.92742,-0.43834 1.42734,-0.47031c1.99703,-0.12769 3.99889,0.2 6,0.2c0.96527,0.06842 1.95031,-0.00079 2.89581,0.20526c0.25371,0.05529 0.47177,0.42786 0.67776,0.60093c0.08179,-0.17884 0.18813,-0.35995 0.32637,-0.52863c-0.09783,-0.23569 -0.24054,-0.49284 -0.23125,-0.71368c0.07134,-1.69543 0.51994,-3.35382 0.76925,-5.03233c0.89393,-6.0184 0.85095,-12.3811 0.3803,-18.44141l-0.00736,-2.19174c0,0 0,-2.5 2.5,-2.5l0.00001,0.00004c2.5,0 2.5,2.5 2.5,2.5l-0.00736,1.80826c0.56479,7.40827 0.31339,14.83769 -0.82171,22.17188c-0.15338,0.99102 -0.33415,2.53744 -0.68768,3.9611c0.00684,0.08416 0.00684,0.13308 0.00684,0.13308c0,14.17739 -5.72754,27.95188 -5.70523,42.15527c0.00548,3.4865 0,6.97307 0,10.45958zM325.67433,100.09579c-5.26188,-0.79932 -10.4335,-0.61234 -15.82725,-0.61234c-4.2554,0 -10.94009,-0.59344 -14.86913,1.58403c-0.40033,0.22186 -2.2444,3.71489 -2.26129,3.74162c-1.63404,2.58612 -3.87358,7.14553 -6.53201,9.54307c1.58062,-0.11593 3.18904,0.05912 4.77571,0.13384c4.81126,0.22657 9.59221,1.01408 14.38671,0.99743c7.34688,0 15.0018,0.9002 22.30937,0.25728c2.1381,-0.18811 4.25558,-0.56435 6.37977,-0.87213c0.49998,-0.07244 1.17824,0.09899 1.48516,-0.3023c0.20221,-0.26439 -0.56706,-0.38201 -0.74823,-0.66123c-0.44474,-0.68547 -0.69438,-1.48145 -1.10158,-2.18987c-2.31081,-4.02026 -5.32247,-7.81458 -7.99723,-11.6194zM320.07956,135.24668c0.83666,-0.70409 2.05343,-0.53275 3.21515,-0.48818l0.20285,-0.87942c1.66508,-4.57387 3.2423,-8.96855 5.22292,-13.34068c-7.70528,0.73591 -15.65482,-0.05496 -23.37343,-0.05496c-4.52388,-0.01377 -8.99875,-0.64136 -13.51983,-0.89515c1.86065,5.64789 5.01055,10.73408 7.90575,15.89515h1.11408c3.45993,0.16356 4.27692,-0.49478 6.66371,2.99766c0.85105,1.24528 -0.09326,3.39394 1.02362,4.40764c0.34702,0.31496 0.93359,0.08989 1.39637,0.16379c1.74507,0.27868 4.67219,1.04 6.44184,0.53817c4.16366,-1.18072 0.54938,-5.68676 3.70698,-8.34403zM294.14756,263.55791c-0.08038,0.49676 -0.72738,0.86378 -0.65247,1.3614c0.04538,0.30146 0.60131,0.1133 0.88945,0.21284c2.81426,0.97215 4.56889,1.41888 7.52153,1.69158c2.67863,0.24739 5.27177,1.25198 7.95986,1.49635c3.19869,0.2908 6.57981,-0.00852 9.7938,-0.00852c0.52673,0 1.06044,0.12028 1.59136,0.23374c0.38279,-1.47501 1.85763,-1.69513 2.2893,-1.72798c-0.19633,-1.42345 -0.64184,-3.25945 -0.79438,-3.88002c-0.12412,0.00115 -0.24825,0.00228 -0.37238,0.00339c-0.15731,-0.39277 -0.30556,-0.78687 -0.35373,-1.17223c-0.22899,-1.83192 0.4514,-7.05909 -2.12387,-7.89968c-1.17059,-0.38209 -2.44861,-0.26341 -3.67292,-0.39511c0,0 -1.91279,-0.27326 -2.13493,-2.02091c-6.18561,-0.66682 -12.2778,-1.02907 -18.5594,-1.14079c-0.26041,3.67646 -0.98773,7.2439 -1.14501,10.88909c-0.07308,-0.01057 -0.14619,-0.021 -0.21934,-0.03127c0.02239,0.79835 0.1103,1.60212 -0.01688,2.38812zM344.65973,266.81156c1.68133,0.0039 4.85649,1.09811 6.38196,0.76393c0.73816,-0.1617 0.14105,-1.50861 0.11804,-2.26393c-0.02539,-0.83294 0,-1.66667 0,-2.5c0,0 0,-0.02193 0.00205,-0.06169c-0.10708,-0.00138 -0.21418,-0.00272 -0.32126,-0.00401c-0.00146,-1.38007 -0.00192,-2.76013 0.00316,-4.14013c0.00293,-0.79384 0.20116,-3.19877 -0.30941,-4.15652c-1.24639,-2.33805 -6.09033,-2.31422 -8.2432,-2.55052c0,0 -0.96843,-0.1076 -1.62892,-0.79304c-0.70708,0.16153 -1.42184,0.29606 -2.10345,0.4543c-4.11042,0.95424 -9.0438,0.51153 -13.44941,0.38427c1.2227,1.95627 1.4568,4.4854 1.65224,6.87336c0.89819,0.73052 0.89819,1.99397 0.89819,1.99397l-0.03402,1.089c0.27191,1.63142 0.74617,3.30142 0.90949,4.90929c5.37484,-0.00362 10.74975,-0.01076 16.12452,0.00171zM283.90894,145.06439c1.19039,-1.8934 3.25803,-3.60631 4.88277,-3.99864c0.00975,-0.01444 0.01945,-0.02888 0.0291,-0.04334c0.01178,0.00952 0.0235,0.019 0.03516,0.02846c0.0424,-0.00939 0.08447,-0.01786 0.12621,-0.02538c2.13297,-1.2123 4.52081,-2.10599 6.57199,-2.7716c-1.3486,-2.42669 -2.7418,-4.83358 -4.05362,-7.27904c-0.09661,0.00858 -0.15349,0.00858 -0.15349,0.00858c-2.07424,-0.03702 -4.78672,0.25388 -6.62757,1.40203c-0.73662,0.45944 -0.40013,2.25909 -0.37374,2.775c-0.02179,0.02221 -0.04235,0.04502 -0.06175,0.06824c-0.03928,0.92993 -0.32117,2.03642 -0.34616,2.46805c-0.06857,1.18423 0.41388,4.69239 -0.0289,7.36764zM338.68552,144.27624c0.1433,0.71451 0.72161,2.33877 1.19317,4.14225c-0.00012,-0.00912 -0.00021,-0.01819 -0.00027,-0.0272c-0.0107,-1.5357 0.00053,-3.07151 0.00732,-4.60728c-0.06582,-0.34739 -0.12885,-0.69656 -0.18758,-1.04835c-0.04438,-0.2658 0.02327,-1.10232 0.08557,-1.89425c0.03429,-0.09704 0.05694,-0.19959 0.06627,-0.30595l0.03135,-0.31346c-0.00089,-0.08702 -0.00187,-0.17403 -0.00293,-0.26105c-0.01548,-1.27017 -0.16491,-2.21627 -0.17991,-2.99945c-0.13195,-0.15565 -0.30132,-0.27859 -0.49422,-0.35491c0.10168,-0.69866 0.09025,-1.47815 -0.06289,-2.4044c-0.16697,-1.00991 0.3052,-2.30936 -1.10568,-2.60409c-2.13385,-0.44576 -5.10345,0.34321 -7.12651,0.82129l-0.00001,0.00002c0,0 -0.75806,0.17494 -1.52601,-0.09325c-0.39474,1.07729 -0.78779,2.16359 -1.18665,3.26163l-0.15371,0.72827c2.74669,0.81814 5.75435,1.98471 7.86666,3.56741c0.97914,0.03848 1.81362,0.6401 2.18854,1.48998c0.11012,0.24962 0.1806,0.52066 0.20345,0.80513c0.17701,0.8338 0.34121,1.88415 0.38404,2.09768zM293.30541,200.09281c0,0 0.28187,0 0.65632,0.09465c0.4476,-2.56567 0.8111,-5.13853 0.98553,-7.74346c-1.37017,-0.05853 -2.74485,-0.18293 -3.36722,-0.22775c-1.14097,0 -3.59194,0.15559 -5.84473,0.10119c-0.746,2.25106 -1.86642,4.16889 -2.64762,6.4447c-0.17456,0.50852 -0.06116,2.69679 0.93057,1.26031c0.72311,-1.04739 0.9175,-2.54427 1.19513,-3.70265l0.52262,-1.17836c0,0 1.11803,-2.23606 3.3541,-1.11803c2.23606,1.11803 1.11803,3.3541 1.11803,3.3541l-0.14405,0.15497c-0.18655,0.72282 -0.3673,1.58746 -0.61257,2.45746c0.83843,0.07837 1.68219,0.10806 2.52055,0.10287zM340.44971,153.53758c-0.04516,0.25842 -0.11036,0.5 -0.19863,0.72065c0.07455,2.45234 0.19053,4.90427 0.30769,7.35703c0.40238,-0.77178 0.80957,-1.54083 1.2082,-2.31891c-1.06594,-0.70059 -1.06594,-2.11683 -1.06594,-2.11683l0.01931,-1.27469c-0.0986,-0.79093 -0.18866,-1.57978 -0.27063,-2.36725zM340.50615,151.84075c0.01059,0.14752 0.01797,0.29304 0.02182,0.43612c0.03425,-0.01974 0.06649,-0.04091 0.09684,-0.06327c-0.04108,-0.12374 -0.08065,-0.24818 -0.11866,-0.37285z" fill="#000000" stroke="none" stroke-width="0.5" stroke-linecap="butt"/><path d="M328.49549,266.84025c-0.16332,-1.60787 -0.64652,-3.29669 -0.91843,-4.9281l0.03312,-1.09385c0,0 -0.0004,-1.27258 -0.89859,-2.00311c-0.19544,-2.38797 -0.42314,-4.93928 -1.64583,-6.89554c4.40561,0.12726 9.38444,0.5446 13.49486,-0.40965c0.68161,-0.15824 1.40841,-0.29082 2.11549,-0.45235c0.66049,0.68544 1.63871,0.79705 1.63871,0.79705c2.15287,0.2363 7.01948,0.23786 8.26587,2.57592c0.51057,0.95775 0.31584,3.37825 0.31291,4.17209c-0.00509,1.37999 -0.00624,2.77605 -0.00478,4.15612c0.10708,0.0013 0.21425,0.00234 0.32133,0.00373c-0.00205,0.03976 -0.00212,0.0619 -0.00212,0.0619c0,0.83334 -0.02828,1.67509 -0.00289,2.50803c0.02302,0.75532 0.61679,2.10832 -0.12137,2.27002c-1.52547,0.33418 -4.7101,-0.74913 -6.39144,-0.75303c-5.37477,-0.01247 -10.822,-0.01284 -16.19684,-0.00923z" data-paper-data="{&quot;noHover&quot;:false,&quot;origItem&quot;:[&quot;Path&quot;,{&quot;applyMatrix&quot;:true,&quot;segments&quot;:[[[644.56667,520.3125],[-10.74954,-0.02493],[3.36267,0.0078]],[[657.3306,521.84036],[-3.05094,0.66835],[1.47633,-0.32341]],[[657.56667,517.3125],[0.04604,1.51064],[-0.05077,-1.66589]],[[657.56667,512.3125],[0,1.66667],[0,0]],[[657.57078,512.18913],[-0.00411,0.07951],[-0.21417,-0.00276]],[[656.92826,512.1811],[0.21417,0.00259],[-0.00293,-2.76013]],[[656.93459,503.90085],[-0.01017,2.75998],[0.00586,-1.58768]],[[656.31577,495.58781],[1.02114,1.9155],[-2.49278,-4.6761]],[[639.82937,490.48677],[4.30574,0.4726],[0,0]],[[636.57153,488.90069],[1.32098,1.37088],[-1.41416,0.32306]],[[632.36463,489.80929],[1.36322,-0.31648],[-8.22084,1.90848]],[[605.46581,490.57783],[8.81122,0.25452],[2.4454,3.91253]],[[608.7703,504.32455],[-0.39088,-4.77593],[1.79637,1.46105]],[610.56667,508.3125],[[610.49864,510.49051],[0,0],[0.54381,3.26283]],[[612.31763,520.30909],[-0.32664,-3.21574],[10.74968,-0.00723]]],&quot;closed&quot;:true}]}" fill="#1b130b" stroke="none" stroke-width="0.5" stroke-linecap="butt"/><path d="M294.1148,261.17582c0.07315,0.01027 0.14628,0.02089 0.21936,0.03146c0.15728,-3.6452 0.89329,-7.24759 1.1537,-10.92404c6.2816,0.11172 12.44335,0.46171 18.62896,1.12853c0.22214,1.74765 2.14586,2.03133 2.14586,2.03133c1.22431,0.1317 2.50769,0.02164 3.67828,0.40373c2.57527,0.84059 1.89922,6.09824 2.12821,7.93016c0.04817,0.38536 0.19562,0.78321 0.35293,1.17597c0.12412,-0.0011 0.24833,-0.00255 0.37246,-0.0037c0.15254,0.62057 0.59436,2.46667 0.7907,3.89012c-0.43167,0.03285 -1.91073,0.26001 -2.29351,1.73502c-0.53092,-0.11347 -1.06618,-0.23168 -1.59292,-0.23168c-3.214,0 -6.62669,0.31758 -9.82539,0.02679c-2.68809,-0.24437 -5.32206,-1.26111 -8.00069,-1.5085c-2.95263,-0.2727 -4.72032,-0.73799 -7.53458,-1.71015c-0.28815,-0.09954 -0.84467,0.08707 -0.89005,-0.21439c-0.07491,-0.49762 0.57101,-0.86799 0.65139,-1.36476c0.12718,-0.78599 0.03768,-1.59755 0.01529,-2.3959z" data-paper-data="{&quot;noHover&quot;:false,&quot;origItem&quot;:[&quot;Path&quot;,{&quot;applyMatrix&quot;:true,&quot;segments&quot;:[[[543.54233,513.80519],[0.25435,-1.57199],[-0.16076,0.99353]],[[542.23738,516.52799],[-0.14982,-0.99524],[0.09076,0.60292]],[[544.01629,516.95368],[-0.5763,-0.19908],[5.62853,1.94431]],[[559.05935,520.33683],[-5.90527,-0.5454],[5.35726,0.49479]],[[574.97907,523.32954],[-5.37617,-0.48875],[6.39739,0.58159]],[[594.56667,523.3125],[-6.42799,0],[1.05347,0]],[[597.74939,523.77999],[-1.06184,-0.22693],[0.76557,-2.95002]],[[602.32798,520.32402],[-0.86334,0.0657],[-0.39267,-2.8469]],[[600.73923,512.56397],[0.30508,1.24115],[-0.24825,0.0023]],[[599.99448,512.57075],[0.24825,-0.00221],[-0.31463,-0.78554]],[[599.28701,510.22629],[0.09634,0.77071],[-0.45798,-3.66384]],[[595.03927,494.42693],[5.15054,1.68118],[-2.34118,-0.76418]],[[587.69343,493.63671],[2.44862,0.2634],[0,0]],[[583.42357,489.59489],[0.44428,3.4953],[-12.37122,-1.33364]],[[546.30477,487.31331],[12.5632,0.22344],[-0.52082,7.35291]],[[544.01475,509.09149],[0.31456,-7.29039],[-0.14615,-0.02114]],[[543.57608,509.02896],[0.14629,0.02054],[0.04478,1.5967]]],&quot;closed&quot;:true}]}" fill="#1b130b" stroke="none" stroke-width="0.5" stroke-linecap="butt"/><path d="M293.34324,200.12548l-1.33992,0.00635c-0.83836,0.00519 -1.70698,-0.01394 -2.54541,-0.09231c0.24527,-0.87 0.38574,-1.821 0.57229,-2.54382l0.13948,-0.15016c0,0 1.15421,-2.15417 -1.08185,-3.2722c-2.23607,-1.11803 -3.30501,1.08565 -3.30501,1.08565l-0.51944,1.16133c-0.27763,1.15838 -0.48178,2.62505 -1.20489,3.67244c-0.99173,1.43648 -1.19167,-0.70324 -1.01711,-1.21176c0.7812,-2.27581 1.91661,-4.25148 2.66261,-6.50254c2.25279,0.0544 4.76163,-0.10458 5.9026,-0.10458c0.62237,0.04482 2.0123,0.18415 3.38247,0.24268c-0.17443,2.60493 -0.54009,5.23571 -0.98769,7.80138c-0.37445,-0.09465 -0.65812,-0.09244 -0.65812,-0.09244z" data-paper-data="{&quot;noHover&quot;:false,&quot;origItem&quot;:[&quot;Path&quot;,{&quot;applyMatrix&quot;:true,&quot;segments&quot;:[[328.41667,193.4375],[[329.75,193.4375],[0,0],[0.83836,0.00519]],[[332.27055,193.33463],[-0.83843,0.07837],[-0.24527,-0.87]],[[331.65798,190.87717],[0.18655,0.72282],[0,0]],[331.51393,190.7222],[[332.63196,187.3681],[-2.23606,1.11803],[2.23607,-1.11803]],[335.98606,188.48613],[[336.50868,189.66449],[0,0],[0.27763,1.15838]],[[337.70381,193.36714],[-0.72311,-1.04739],[0.99173,1.43648]],[[338.63438,192.10683],[0.17456,0.50852],[-0.7812,-2.27581]],[[335.98676,185.66213],[0.746,2.25106],[-2.25279,0.0544]],[[330.14203,185.56094],[1.14097,0],[-0.62237,0.04482]],[[326.77481,185.78869],[1.37017,-0.05853],[0.17443,2.60493]],[[327.76034,193.53215],[-0.4476,-2.56567],[0.37445,-0.09465]],[328.41666,193.4375]],&quot;closed&quot;:true,&quot;fillColor&quot;:[0,0,0,1]}],&quot;index&quot;:null}" fill="#131313" stroke="none" stroke-width="0.5" stroke-linecap="butt"/><path d="M338.64868,144.24245c-0.04283,-0.21353 -0.21464,-1.25298 -0.39165,-2.08678c-0.02285,-0.28447 -0.09614,-0.54895 -0.20626,-0.79857c-0.37492,-0.84988 -1.21213,-1.43363 -2.19127,-1.47211c-2.11231,-1.5827 -5.02735,-2.72467 -7.77404,-3.54281l0.07117,-0.78451c0.39886,-1.09804 0.80604,-2.19706 1.20078,-3.27435c0.76795,0.26819 1.53297,0.08977 1.53297,0.08977l0.00001,-0.00002c2.02306,-0.47808 5.0334,-1.26566 7.16725,-0.8199c1.41088,0.29473 0.95027,1.60199 1.11724,2.6119c0.15314,0.92625 0.17326,1.71602 0.07158,2.41468c0.1929,0.07632 0.36446,0.20305 0.49641,0.3587c0.015,0.78318 0.17007,1.7525 0.18555,3.02267c0.00106,0.08702 0.00198,0.17623 0.00287,0.26325l-0.03155,0.31611c-0.00933,0.10636 -0.03231,0.21153 -0.0666,0.30857c-0.0623,0.79193 -0.13441,1.64271 -0.09003,1.90851c0.05873,0.35179 0.11876,0.70628 0.18458,1.05367c-0.00679,1.53577 -0.03129,3.08533 -0.02059,4.62103c0.00006,0.00901 -0.05713,-0.06389 -0.05701,-0.05477c-0.47156,-1.80348 -1.05809,-3.42055 -1.20139,-4.13506z" data-paper-data="{&quot;noHover&quot;:false,&quot;origItem&quot;:[&quot;Path&quot;,{&quot;applyMatrix&quot;:true,&quot;segments&quot;:[[[283.03655,137.62096],[0,0],[0.04283,-0.21353]],[[283.42059,135.52328],[-0.17701,0.8338],[0.02285,-0.28447]],[[283.62404,134.71815],[-0.11012,0.24962],[0.37492,-0.84988]],[[285.81258,133.22817],[-0.97914,0.03848],[2.11231,-1.5827]],[[293.67924,129.66076],[-2.74669,0.81814],[0,0]],[[293.52553,128.93249],[0,0],[-0.39886,-1.09804]],[[292.33888,125.67086],[0.39474,1.07729],[-0.76795,0.26819]],[290.81287,125.76411],[[290.81286,125.76409],[0,0],[-2.02306,-0.47808]],[[283.68635,124.9428],[2.13385,-0.44576],[-1.41088,0.29473]],[[282.58067,127.54689],[0.16697,-1.00991],[-0.15314,0.92625]],[[282.51778,129.95129],[-0.10168,-0.69866],[-0.1929,0.07632]],[[282.02356,130.3062],[0.13195,-0.15565],[-0.015,0.78318]],[[281.84365,133.30565],[0.01548,-1.27017],[-0.00106,0.08702]],[[281.84072,133.5667],[0.00089,-0.08702],[0,0]],[[281.87207,133.88016],[0,0],[0.00933,0.10636]],[[281.93834,134.18611],[-0.03429,-0.09704],[0.0623,0.79193]],[[282.02391,136.08036],[0.04438,-0.2658],[-0.05873,0.35179]],[[281.83633,137.12871],[0.06582,-0.34739],[0.00679,1.53577]],[[281.84365,141.73599],[0.0107,-1.5357],[-0.00006,0.00901]],[[281.84338,141.76319],[0.00012,-0.00912],[0.47156,-1.80348]],[[283.03655,137.62094],[-0.1433,0.71451],[0,0]]],&quot;closed&quot;:true,&quot;fillColor&quot;:[0,0,0,1]}],&quot;index&quot;:null}" fill="#385130" stroke="none" stroke-width="0.5" stroke-linecap="butt"/><path d="M283.87709,145.10294c0.44278,-2.67525 -0.05774,-6.22473 0.01083,-7.40896c0.02499,-0.43163 0.3123,-1.55814 0.35158,-2.48807c0.0194,-0.02322 0.0403,-0.04668 0.06209,-0.06889c-0.02639,-0.51591 -0.35195,-2.32947 0.38467,-2.78891c1.84085,-1.14815 4.59775,-1.45042 6.67199,-1.4134c0,0 0.05787,0.00024 0.15448,-0.00834c1.31182,2.44546 2.7428,4.90285 4.0914,7.32954c-2.05118,0.66561 -4.50107,1.6058 -6.63404,2.8181c-0.04174,0.00752 -0.08559,0.01551 -0.12799,0.0249c-0.01166,-0.00946 -0.02402,-0.01913 -0.0358,-0.02865c-0.00965,0.01446 -0.01958,0.02883 -0.02933,0.04327c-1.62474,0.39233 -3.70949,2.096 -4.89988,3.9894z" data-paper-data="{&quot;noHover&quot;:false,&quot;origItem&quot;:[&quot;Path&quot;,{&quot;applyMatrix&quot;:true,&quot;segments&quot;:[[[337.78423,131.04145],[0.06857,1.18423],[-0.02499,-0.43163]],[[337.43807,128.5734],[0.03928,0.92993],[-0.0194,-0.02322]],[[337.37632,128.50516],[0.02179,0.02221],[0.02639,-0.51591]],[[337.00258,125.73016],[0.73662,0.45944],[-1.84085,-1.14815]],[[330.37501,124.32813],[2.07424,-0.03702],[0,0]],[[330.22152,124.31955],[0.09661,0.00858],[-1.31182,2.44546]],[[326.1679,131.59859],[1.3486,-2.42669],[2.05118,0.66561]],[[332.73989,134.37019],[-2.13297,-1.2123],[0.04174,0.00752]],[[332.8661,134.39557],[-0.0424,-0.00939],[0.01166,-0.00946]],[[332.90126,134.36711],[-0.01178,0.00952],[0.00965,0.01446]],[[332.93036,134.41045],[-0.00975,-0.01444],[1.62474,0.39233]],[[337.81313,138.40909],[-1.19039,-1.8934],[-0.44278,-2.67525]]],&quot;closed&quot;:true,&quot;fillColor&quot;:[0,0,0,1]}],&quot;index&quot;:null}" fill="#385130" stroke="none" stroke-width="0.5" stroke-linecap="butt"/><path d="" data-paper-data="{&quot;index&quot;:null}" fill="#000000" stroke="none" stroke-width="0.5" stroke-linecap="butt"/><path d="M325.71883,100.07297c2.67476,3.80482 5.69117,7.63066 8.00198,11.65092c0.4072,0.70842 0.65599,1.50829 1.10073,2.19376c0.18117,0.27922 0.95021,0.39769 0.748,0.66208c-0.30692,0.40129 -0.98558,0.23123 -1.48556,0.30367c-2.12419,0.30778 -4.24435,0.69084 -6.38245,0.87895c-7.30757,0.64292 -15.03649,-0.23811 -22.38337,-0.23811c-4.7945,0.01664 -9.59386,-0.79551 -14.40512,-1.02208c-1.58667,-0.07472 -3.19604,-0.2529 -4.77666,-0.13697c2.65843,-2.39755 4.89686,-6.97782 6.5309,-9.56394c0.01689,-0.02673 1.86419,-3.53115 2.26452,-3.75301c3.92904,-2.17747 10.6537,-1.61441 14.9091,-1.61441c5.39375,0 10.61605,-0.16019 15.87794,0.63913z" data-paper-data="{&quot;noHover&quot;:false,&quot;origItem&quot;:[&quot;Path&quot;,{&quot;applyMatrix&quot;:true,&quot;segments&quot;:[[[592.09546,186.88092],[0,0],[-5.34952,7.60966]],[[576.101,210.11974],[4.62162,-8.04052],[-0.8144,1.41684]],[[573.89784,214.49948],[0.88948,-1.37094],[-0.36234,0.55844]],[[572.40138,215.82194],[-0.40442,-0.52878],[0.61384,0.80258]],[[575.3717,216.42654],[-0.99996,-0.14488],[4.24838,0.61556]],[[588.13124,218.1708],[-4.2762,-0.37622],[14.61514,1.28584]],[[632.74998,217.65624],[-14.69376,0],[9.589,0.0333]],[[661.5234,215.66138],[-9.62252,0.45314],[3.17334,-0.14944]],[[671.07482,215.3937],[-3.16124,-0.23186],[-5.31686,-4.79508]],[[658.0108,196.30756],[3.26808,5.17224],[-0.03378,-0.05346]],[[653.48822,188.82432],[0.80066,0.44372],[-7.85808,-4.35494]],[[623.74996,185.65626],[8.5108,0],[-10.7875,0]],[[592.09542,186.88094],[10.52378,-1.59864],[0,0]]],&quot;closed&quot;:true,&quot;fillColor&quot;:[0,0,0,1]}],&quot;index&quot;:null}" fill="#385130" stroke="none" stroke-width="0.5" stroke-linecap="butt"/><path d="M323.34337,134.77002c-1.16172,-0.04457 -2.38016,-0.21033 -3.21682,0.49376c-3.1576,2.65728 0.43248,7.19071 -3.73118,8.37143c-1.76964,0.50184 -4.72105,-0.25403 -6.46612,-0.53271c-0.46278,-0.07391 -1.05551,0.15061 -1.40253,-0.16436c-1.11688,-1.0137 -0.18372,-3.16544 -1.03476,-4.41072c-2.38679,-3.49244 -3.23133,-2.8617 -6.69126,-3.02526l-1.11474,-0.00173c-2.8952,-5.16107 -6.0399,-10.29166 -7.90055,-15.93955c4.52108,0.25379 9.01762,0.86302 13.5415,0.87679c7.71861,0 15.73111,0.81079 23.43639,0.07488c-1.98062,4.37213 -3.55133,8.80087 -5.21641,13.37474l-0.20352,0.88272z" data-paper-data="{&quot;noHover&quot;:false,&quot;origItem&quot;:[&quot;Path&quot;,{&quot;applyMatrix&quot;:true,&quot;segments&quot;:[[[603.28497,257.18272],[-1.67332,-1.40818],[6.31519,5.31455]],[[610.69892,273.87079],[-8.32731,-2.36145],[3.53929,1.00367]],[[623.5826,272.79444],[-3.49013,0.55736],[0.92557,-0.14781]],[[626.37534,272.46685],[-0.69405,0.62993],[2.23376,-2.0274]],[[628.42258,263.65157],[-1.70209,2.49057],[4.77358,-6.98488]],[[641.75,257.65625],[-6.91986,0.32711],[0,0]],[[643.97816,257.65625],[0,0],[5.79041,-10.32215]],[[659.78966,225.86595],[-3.7213,11.29577],[-9.04216,0.50758]],[[632.75,227.65625],[9.04776,-0.02754],[-15.43723,0]],[[586.00313,227.76618],[15.41056,1.47182],[3.96123,8.74426]],[[596.44897,254.44753],[-3.33017,-9.14774],[0,0]],[[596.85468,256.20637],[0,0],[2.32343,-0.08913]]],&quot;closed&quot;:true}],&quot;index&quot;:null}" fill="#131313" stroke="none" stroke-width="0.5" stroke-linecap="butt"/><path d="M306.08317,131.62408h-4.38889l-2.33333,-4.5l2.22222,-4.33334h4.05556l2.44444,4.16667z" data-paper-data="{&quot;index&quot;:null}" fill="#9d0201" stroke="#323231" stroke-width="2" stroke-linecap="round"/><path d="M310.44428,137.35669h0.11111c2.00799,0 3.99231,0.11111 6,0.11111c0,0 0.25,0 0.25,0.25c0,0.25 -0.25,0.25 -0.25,0.25c-2.00778,0 -3.99202,-0.11111 -6,-0.11111h-0.11111c0,0 -0.25,0 -0.25,-0.25c0,-0.25 0.25,-0.25 0.25,-0.25z" data-paper-data="{&quot;index&quot;:null}" fill="#000000" stroke="none" stroke-width="0.5" stroke-linecap="butt"/><path d="M310.69856,139.1473l0.37234,-0.12071c1.71688,-0.01144 3.44822,-0.10993 5.15116,-0.11434c0,0 0.25,0 0.25,0.25c0,0.25 -0.25,0.25 -0.25,0.25c-1.67671,-0.00486 -3.37895,0.12139 -5.07106,0.10788l-0.29433,0.10151c0,0 -0.23718,0.07906 -0.31623,-0.15811c-0.07905,-0.23717 0.15812,-0.31623 0.15812,-0.31623z" data-paper-data="{&quot;index&quot;:null}" fill="#000000" stroke="none" stroke-width="0.5" stroke-linecap="butt"/><path d="M309.66244,140.9123l0.33687,-0.00546c1.98494,-0.09118 3.99733,-0.43624 6.00053,-0.43902c0,0 0.25,0 0.25,0.25c0,0.25 -0.25,0.25 -0.25,0.25c-1.99721,-0.00304 -4.00534,0.3446 -5.98478,0.43878l-0.34449,0.00563c0,0 -0.24996,0.00407 -0.25403,-0.2459c-0.00407,-0.24997 0.2459,-0.25403 0.2459,-0.25403z" data-paper-data="{&quot;index&quot;:null}" fill="#000000" stroke="none" stroke-width="0.5" stroke-linecap="butt"/><path d="M306.08317,131.62408h-4.38889l-2.33333,-4.5l2.22222,-4.33334h4.05556l2.44444,4.16667z" data-paper-data="{&quot;index&quot;:null}" fill="none" stroke="#1a1a1a" stroke-width="0.5" stroke-linecap="round"/><g data-paper-data="{&quot;index&quot;:null}" fill="#000000" stroke="none" stroke-width="1" stroke-linecap="butt" font-family="&quot;ヒラギノ角ゴ Pro W3&quot;, &quot;Hiragino Kaku Gothic Pro&quot;, Osaka, &quot;メイリオ&quot;, Meiryo, &quot;ＭＳ Ｐゴシック&quot;, &quot;MS PGothic&quot;" font-weight="normal" font-size="40" text-anchor="start"><text transform="translate(333.34706,112.25845) rotate(-180) scale(0.03846,-0.03846)" font-size="40" xml:space="preserve" fill="#000000" fill-rule="nonzero" stroke="none" stroke-width="1" stroke-linecap="butt" stroke-linejoin="miter" stroke-miterlimit="10" stroke-dasharray="" stroke-dashoffset="0" font-family="&quot;ヒラギノ角ゴ Pro W3&quot;, &quot;Hiragino Kaku Gothic Pro&quot;, Osaka, &quot;メイリオ&quot;, Meiryo, &quot;ＭＳ Ｐゴシック&quot;, &quot;MS PGothic&quot;" font-weight="normal" text-anchor="start" style="mix-blend-mode: normal"><tspan x="0" dy="0">The Black Mesa</tspan><tspan x="0" dy="46.150000000000006px">Pivovar13</tspan></text><text transform="translate(326.93682,113.21774) rotate(-180) scale(0.01021,-0.01021)" font-size="40" xml:space="preserve" fill="#000000" fill-rule="nonzero" stroke="none" stroke-width="1" stroke-linecap="butt" stroke-linejoin="miter" stroke-miterlimit="10" stroke-dasharray="" stroke-dashoffset="0" font-family="&quot;ヒラギノ角ゴ Pro W3&quot;, &quot;Hiragino Kaku Gothic Pro&quot;, Osaka, &quot;メイリオ&quot;, Meiryo, &quot;ＭＳ Ｐゴシック&quot;, &quot;MS PGothic&quot;" font-weight="normal" text-anchor="start" style="mix-blend-mode: normal"><tspan x="0" dy="0">TM</tspan></text></g><g data-paper-data="{&quot;index&quot;:null}"><path d="M354.57895,139.52368l-1.44445,-9l14.33334,-2.55555l2.44444,7.88889z" fill="#121212" stroke="#000000" stroke-width="0" stroke-linecap="round"/><path d="M357.99686,128.33179c-1.13033,2.33132 -5.03636,1.55937 -4.54545,2.36364c0.55034,0.90163 5.09091,-0.63636 5.09091,-0.63636l9.09091,-2.27273l2.18182,8.09091l-8.54546,2.81818l-6.72727,0.72727v0.81818l-0.54546,0.54546l0.09091,8.54546l3,-0.18182l0.72728,0.72727l-0.14844,0.90341l3.375,1.875l0.75,-0.625l1.25,1.375l-2.375,7.25l-9.25,-5.875h-2.125l-2.5,4l9.375,34l-15.25,2.375l-2.25,-38.125l-1.12428,0.02841v-1.18182l-3.09091,-1.36364l-0.09091,-0.90909l-2,-0.09091l-1.18182,-1.54546l-0.27273,-3.27273c0,0 0.40434,-17.51031 1.18181,-19.36364c0.5959,-1.4205 4.72728,-0.63636 4.72728,-0.63636l0.63636,-2.81819l-1.27273,-0.18182l-0.36363,-28.54545l-3.63637,-1l-0.18181,-5.09091l0.45454,-0.45454l0.09091,-10.54546l-5.72728,-4.45454l-0.09091,-3.54546l11.72728,0.72727v-13.27273l-1.09091,-1.09091v-9.36364h4.81818l0.09091,9.45455l-1,0.90909l0.18182,13.81818l1.45455,-1l1.63637,0.09091v2.90909h-3v5l0.81818,0.27273l0.09091,1.54545l3,0.63637v0.81818l1,-0.18182l0.18182,-11.45455l2,-2h2.45454l2.18182,1.27273l0.09091,20.27273l1.36364,1.09091v27.63637c0,0 2.59003,0.29326 3.09091,1.54545c0.50088,1.25219 1.31216,4.30503 0.18182,6.63636z" fill="#121111" stroke="#000000" stroke-width="1" stroke-linecap="round"/><path d="M333.26959,146.14994l-0.18182,-15.18182l1.18182,-0.90909l2.18182,0.09091l0.63636,16.90909l-1.45454,0.18182z" fill="#000000" stroke="#000000" stroke-width="1" stroke-linecap="round"/><path d="M350.96507,146.23476c0,0 1.06363,-0.86066 1.33334,-1.46667c0.22546,-0.50661 -1.53334,0.73334 -1.53334,0.73334l-1.26667,-0.26667c0,0 -0.30143,-2.85332 0.6,-3.86666c0.61736,-0.694 2.42854,-1.63086 3,-0.06666c0.54178,1.48294 -0.06667,4.26666 -0.06667,4.26666c0,0 -0.64872,1.79093 -1.53333,1.93334c-1.39674,0.22487 -2.06667,-1 -2.06667,-1z" fill="#000000" stroke="#000000" stroke-width="0.5" stroke-linecap="round"/><path d="M342.11416,119.1467l-1,-0.57143v-1.28571l0.85715,-0.57143l1.07143,0.5l0.07143,1.28571z" fill="#000000" stroke="#000000" stroke-width="0.5" stroke-linecap="round"/><path d="M339.00703,116.28955l-1.10714,-0.57142v-1.28572l0.94898,-0.57143l1.18622,0.5l0.07908,1.28572z" fill="#000000" stroke="#000000" stroke-width="0.5" stroke-linecap="round"/><path d="M342.14987,112.71812l-1.10714,-0.57142v-1.28572l0.94898,-0.57143l1.18623,0.5l0.07908,1.28571z" fill="#000000" stroke="#000000" stroke-width="0.5" stroke-linecap="round"/><path d="M338.86416,110.00383l-1.32143,-0.57142v-1.28571l1.13266,-0.57143l1.41581,0.5l0.09439,1.28571z" fill="#000000" stroke="#000000" stroke-width="0.5" stroke-linecap="round"/><path d="M338.86415,103.64667l-1.32142,-0.60504v-1.36134l1.13266,-0.60504l1.41581,0.52941l0.09439,1.36135z" fill="#000000" stroke="#000000" stroke-width="0.5" stroke-linecap="round"/><path d="M342.14988,106.43239l-1.32142,-0.57142v-1.28571l1.13265,-0.57143l1.41581,0.5l0.09439,1.28571z" fill="#000000" stroke="#000000" stroke-width="0.5" stroke-linecap="round"/><path d="M342.29274,100.00384l-1.32142,-0.57143v-1.28572l1.13265,-0.57143l1.41582,0.5l0.09438,1.28571z" fill="#000000" stroke="#000000" stroke-width="0.5" stroke-linecap="round"/><path d="M338.86416,97.07526l-1.32143,-0.57143v-1.28571l1.13266,-0.57143l1.41581,0.5l0.09439,1.28572z" fill="#000000" stroke="#000000" stroke-width="0.5" stroke-linecap="round"/><path d="M342.00703,93.64667l-1.32143,-0.57142v-1.28571l1.13265,-0.57143l1.41582,0.5l0.09438,1.28572z" fill="#000000" stroke="#000000" stroke-width="0.5" stroke-linecap="round"/><path d="M333.57027,76.42646l0.08333,-0.75l2.83333,0.33333l-0.16667,2.91667l-1,-0.08334l-3.41667,-2.41666z" fill="#000000" stroke="#000000" stroke-width="0.5" stroke-linecap="round"/><path d="M338.73694,79.17646h-1v-3.16667h1z" fill="#000000" stroke="none" stroke-width="0" stroke-linecap="butt"/><path d="M338.78084,90.73002l-1.32143,-0.60504v-1.36135l1.13265,-0.60504l1.41582,0.52941l0.09438,1.36135z" fill="#000000" stroke="#000000" stroke-width="0.5" stroke-linecap="round"/><path d="M342.2094,87.08717l-1.32143,-0.57143v-1.28571l1.13266,-0.57143l1.41582,0.5l0.09438,1.28571z" fill="#000000" stroke="#000000" stroke-width="0.5" stroke-linecap="round"/><path d="M338.78083,84.1586l-1.32142,-0.57143v-1.28571l1.13265,-0.57143l1.41581,0.5l0.09439,1.28571z" fill="#000000" stroke="#000000" stroke-width="0.5" stroke-linecap="round"/><path d="M354.66026,127.84462c0,0 1.14948,-0.93012 1.44095,-1.58504c0.24366,-0.5475 -1.6571,0.79253 -1.6571,0.79253l-1.3689,-0.28819c0,0 -0.32575,-3.08362 0.64843,-4.17876c0.66719,-0.75003 2.62455,-1.76251 3.24214,-0.07205c0.58551,1.60264 -0.07205,4.61104 -0.07205,4.61104c0,0 -0.70108,1.93547 -1.65709,2.08938c-1.50948,0.24302 -2.23348,-1.08071 -2.23348,-1.08071z" fill="#000000" stroke="#000000" stroke-width="0.5" stroke-linecap="round"/></g></g></g></svg>