<svg version="1.1" xmlns="http://www.w3.org/2000/svg" xmlns:xlink="http://www.w3.org/1999/xlink" width="201.38638" height="167.55206" viewBox="0,0,201.38638,167.55206"><g transform="translate(-220.80681,-98.30395)"><g data-paper-data="{&quot;isPaintingLayer&quot;:true}" fill-rule="evenodd" stroke="none" stroke-linecap="butt" stroke-linejoin="miter" stroke-miterlimit="10" stroke-dasharray="" stroke-dashoffset="0" style="mix-blend-mode: normal"><path d="M372.60696,163.97468c1.92346,-0.54588 10.99307,-0.80166 14.23179,-0.39259c17.89085,2.25871 21.92472,3.64958 23.85428,8.13584c1.95732,4.54924 1.11167,5.75583 -5.64278,7.98812c-3.08701,1.02065 -4.50475,1.62963 -4.86574,2.07528c-0.94344,1.16491 -10.08885,0.77596 -16.3367,-0.70321c-10.08595,-2.38739 -18.70988,-7.53947 -18.70988,-11.14799c0,-2.13747 3.29974,-4.77362 7.46904,-5.95546" data-paper-data="{&quot;noHover&quot;:false,&quot;origItem&quot;:[&quot;Path&quot;,{&quot;applyMatrix&quot;:true,&quot;segments&quot;:[[[430.75599,404.384],[0,0],[-5.68,-1.612]],[[388.79999,403.274],[9.564,-1.208],[-52.832,6.67]],[[318.47399,427.206],[5.698,-13.248],[-5.78,13.434]],[[335.12999,450.752],[-19.946,-6.592],[9.116,3.014]],[[349.48599,456.858],[-1.066,-1.316],[2.786,3.44]],[[397.59999,454.754],[-18.45,4.368],[29.784,-7.05]],[[452.79999,421.934],[0,10.656],[0,-6.312]],[[430.75599,404.384],[12.312,3.49],[0,0]]],&quot;fillColor&quot;:[0,0,0,1],&quot;fillRule&quot;:&quot;evenodd&quot;}],&quot;index&quot;:null}" fill="#ff6cbf" stroke-width="0.5"/><path d="M409.53291,102.83768c-1.30375,0.04944 -3.43716,0.04944 -4.74091,0c-1.30375,-0.04944 -0.23705,-0.09008 2.37046,-0.09008c2.6075,0 3.67421,0.04064 2.37046,0.09008M362.53014,104.4523c-0.33525,0.06502 -0.88384,0.06502 -1.21909,0c-0.33525,-0.06434 -0.06095,-0.11717 0.60955,-0.11717c0.6705,0 0.9448,0.05283 0.60955,0.11717M401.69279,107.25418c-0.25195,0.14697 -0.76871,0.66102 -1.14866,1.14256l-0.69014,0.87639l-0.00339,-1.15136l-0.00271,-1.15136l1.15136,0.00813c0.88791,0.00677 1.04639,0.06976 0.69353,0.27565M419.63918,108.25722l0.93328,1.01591l-1.01591,-0.93328c-0.55875,-0.51405 -1.01591,-0.97121 -1.01591,-1.01591c0,-0.20725 0.22892,-0.01219 1.09854,0.93328M391.08263,107.71946c-0.41449,0.67118 -0.70707,3.85233 -0.41314,4.49777c1.09244,2.39619 4.03113,1.13917 4.03113,-1.72502c0,-0.98814 0.60955,-2.70909 0.95902,-2.70909c0.07315,0 0.10024,0.83982 0.06095,1.86724c-0.0745,1.9431 0.40501,3.00913 1.35387,3.00913c0.27497,0 0.32915,0.14223 0.17948,0.47409c-1.51777,3.37147 2.48356,4.37248 4.24312,1.06129c2.62172,-4.93326 7.87669,-7.67351 11.44931,-5.97016c1.03826,0.49509 2.37384,3.88078 1.8029,4.56889c-0.14697,0.17745 -0.20386,0.38605 -0.12597,0.46325c0.21944,0.22011 -2.09684,3.50963 -2.85538,4.05484c-0.3725,0.26752 -1.63968,0.62783 -2.81543,0.80054c-3.13307,0.45987 -4.04671,1.83202 -2.46798,3.70807c0.93667,1.11276 1.74059,1.2428 3.70536,0.59736c2.07923,-0.68269 1.79884,-1.28479 2.5479,5.46424c0.35218,3.17506 0.77006,6.6129 0.92719,7.63897c0.3488,2.26887 0.23298,2.49033 -0.40636,0.78157c-2.64475,-7.0599 -9.20753,-11.57799 -13.57188,-9.34299c-5.92682,3.03554 -8.28305,19.68359 -3.98711,28.17457c3.11207,6.15032 11.76017,8.42731 17.19123,4.52622c0.72401,-0.52082 1.42905,-0.94615 1.56721,-0.94615c0.45445,0 1.37351,-1.41415 1.37351,-2.11377c0,-1.76904 0.38198,0.05012 0.82492,3.93022c1.77852,15.57322 2.15034,23.55218 1.18591,25.40994c-1.22586,2.3603 -5.70196,4.08464 -12.98265,5.00302c-5.38161,0.67863 -23.96057,1.1385 -24.93449,0.617c-0.29258,-0.15645 -2.25397,-1.66745 -4.35825,-3.3586c-7.95525,-6.39143 -18.15025,-10.6745 -20.87221,-8.76798c-0.92583,0.64883 -2.67049,-6.82217 -3.36198,-14.3968c-0.37318,-4.09073 -0.33593,-4.28714 0.86014,-4.52622c3.26852,-0.65425 6.747,-5.27257 6.74767,-8.95829c0,-2.16186 -0.74297,-3.6119 -2.74093,-5.34978c-1.36674,-1.18929 -1.66677,-1.62071 -2.01963,-2.90821c-1.14053,-4.1571 -1.80358,-5.97694 -2.67184,-7.3369c-1.25905,-1.97154 -1.39721,-4.32168 -0.2831,-4.82964c2.72535,-1.24144 -0.48831,-5.19401 -4.22348,-5.19401c-0.41991,0 -1.0938,-0.28378 -1.49745,-0.63122l-0.73349,-0.63122l0.65492,-1.73924c1.6539,-4.39009 12.05072,-5.78324 12.05072,-5.78324c0,0 4.1036,-7.61594 5.51775,-9.50147c1.62816,0.9685 6.48692,4.47 6.65827,4.47c0.17135,0 0.54385,0.2594 0.82763,0.57704c2.48492,2.77818 7.15675,1.32746 5.11477,-1.58821c-0.39756,-0.56756 -0.37453,-0.60006 0.60955,-0.85878c1.937,-0.50863 8.88312,-1.87808 11.04633,-2.17676c1.192,-0.16458 2.57567,-0.36573 3.07414,-0.44632c0.50254,-0.08127 0.8405,-0.03928 0.75787,0.09482M343.0924,120.24496c-0.58178,0.596 -1.11886,1.08364 -1.19336,1.08364c-0.0745,0 0.34067,-0.48764 0.92245,-1.08364c0.58178,-0.596 1.11886,-1.08364 1.19336,-1.08364c0.0745,0 -0.34067,0.48764 -0.92245,1.08364M235.85971,120.09325c3.61258,1.12901 6.94815,4.48355 8.17469,8.21939c0.98814,3.01048 1.81848,15.79875 1.54147,23.74249l-0.18828,5.39719l-0.79173,0.73958c-1.27192,1.18861 -0.90145,2.35962 1.55773,4.92445c0.88994,0.92854 2.92447,0.13275 3.11817,-1.21977c0.07789,-0.54385 0.4172,-0.65966 3.67488,-1.25905c4.06296,-0.74771 4.02436,-0.75516 3.42971,0.66847c-0.59058,1.41347 -0.3786,2.67049 0.97256,5.77917c2.50049,5.74937 4.50454,8.12863 8.41715,9.99317c4.88043,2.32576 7.2089,2.50591 11.76966,0.91026c3.48118,-1.21774 5.97287,-1.62681 11.73037,-1.92481c6.76325,-0.35083 8.20043,-0.80799 10.55056,-3.35792c2.87503,-3.11884 2.34269,-7.55566 -1.18591,-9.89361c-0.70369,-0.46596 -1.22112,-0.84727 -1.14933,-0.84727c0.07179,0 2.86622,0.30342 6.20992,0.67456c3.3437,0.37115 7.92884,0.75584 10.19025,0.85404c4.08938,0.17812 4.11376,0.18286 4.66506,0.92922c0.36776,0.49712 1.04571,0.89265 2.00947,1.17304c2.71654,0.7897 3.28071,1.61191 2.45715,3.5821c-1.86182,4.45646 3.06466,9.89225 9.35721,10.32368c3.81644,0.26143 5.62475,-0.67456 8.91359,-4.61155c2.03995,-2.44292 3.51843,-3.40262 5.61663,-3.64576l1.09854,-0.12733l0.60548,3.07753c1.71147,8.70093 5.14118,17.18107 8.32775,20.58911c0.68743,0.73484 37.62795,1.31323 43.93133,0.68811l2.235,-0.22215v1.32339c0,0.72807 0.12868,2.01963 0.28581,2.87028c0.20995,1.13579 0.20183,1.7792 -0.03048,2.42125c-0.25601,0.70843 -0.23163,1.15678 0.12936,2.36368c1.24415,4.15507 0.0982,30.78546 -1.4304,33.25886c-0.12191,0.19709 -1.07348,0.21605 -3.01996,0.06028c-1.56315,-0.1253 -5.61595,-0.31561 -9.0057,-0.42397c-3.38975,-0.10769 -6.16319,-0.21334 -6.16319,-0.23434c0,-0.021 -0.36437,-2.03385 -0.81002,-4.47271c-1.44733,-7.92207 -2.18692,-13.58272 -2.55264,-19.52918c-0.54656,-8.89531 -2.56551,-11.68093 -10.42865,-14.38732c-7.36196,-2.53368 -10.52009,4.67589 -9.09646,20.76249c0.67524,7.63219 1.21096,15.06933 1.213,16.84717l0.00203,1.67693l-1.15136,0.14223c-0.63325,0.07856 -3.83337,0.50525 -7.11137,0.94886c-8.11915,1.09786 -8.48691,1.13308 -8.67316,0.83169c-1.09651,-1.77446 -2.27699,-19.47364 -2.0711,-31.05501c0.15916,-8.94407 -1.35793,-10.13743 -13.12691,-10.32571l-6.80389,-0.10836l-0.13884,-2.23365c-0.23163,-3.70875 -1.60785,-5.92208 -5.90853,-9.50147c-5.5848,-4.64813 -7.97422,-4.53164 -13.62809,0.66644c-2.95494,2.71654 -4.27834,3.62815 -8.27086,5.69722c-2.25871,1.17033 -2.96239,1.67354 -3.28139,2.34607c-0.35489,0.74636 -0.61293,0.89671 -2.02505,1.1771c-3.84285,0.76193 -6.23904,3.28816 -7.15065,7.53737c-0.62986,2.93666 -0.34067,6.05347 1.8625,20.09402c1.28546,8.18959 1.89501,13.0497 1.89501,15.10794v0.96308l-9.68501,-0.20115c-5.32675,-0.1104 -10.35551,-0.28242 -11.17501,-0.38198l-1.49,-0.18151l-0.33728,-3.92819c-0.32374,-3.77918 -0.30884,-4.12866 0.40027,-9.21092c2.28038,-16.34396 -0.62445,-31.86842 -4.85334,-25.93889c-0.87097,1.22045 -1.2218,14.10896 -0.58787,21.60434c0.62919,7.43714 0.60006,9.91257 -0.16187,13.92474l-0.66305,3.49405l-4.48423,-0.17677c-2.46595,-0.09753 -9.26307,-0.25736 -15.10455,-0.35489c-8.08461,-0.13545 -10.65148,-0.25804 -10.75036,-0.51473c-0.42397,-1.10599 -1.26311,-32.01945 -1.26041,-46.44334c0.00068,-2.3095 -0.1727,-5.42157 -0.38537,-6.91631c-0.92583,-6.5086 -0.97527,-7.77442 -0.99762,-25.39504c-0.0237,-18.51462 0.05892,-20.34935 1.12698,-25.12142c1.35455,-6.05144 4.8425,-13.08627 7.05516,-14.23087c0.91161,-0.47138 1.12292,-0.47206 2.60547,-0.00813M377.36242,125.93405c-9.68027,4.93868 -8.68332,27.29005 1.45478,32.62019c1.5706,0.8256 1.4365,0.88858 -2.26751,1.06671c-12.17196,0.58584 -19.21086,9.24952 -12.80927,15.76489c6.44764,6.56278 18.99277,10.78964 32.04383,10.79845c7.99724,0.00474 10.83637,-0.64815 10.83637,-2.49169c0,-0.3664 0.32509,-0.60819 1.15136,-0.85472c6.43681,-1.92346 8.55735,-5.11883 7.10257,-10.7043c-1.75346,-6.73006 -6.20992,-9.3037 -19.48177,-11.24883c-4.9678,-0.72807 -6.80592,-1.08702 -5.56312,-1.08702c1.3173,0 2.03385,-2.10361 1.1175,-3.28207c-0.45106,-0.58042 -0.48019,-0.93464 -0.28581,-3.49067c0.63528,-8.36229 -0.16255,-15.31383 -2.48762,-21.67275c-1.85031,-5.06126 -6.72329,-7.50351 -10.81131,-5.41819M382.26656,129.80196c2.9116,1.95258 4.6847,10.04938 4.52825,20.68257l-0.08601,5.85638l-1.83947,-0.15306c-5.46898,-0.45513 -8.68806,-4.33184 -9.82317,-11.83196c-1.45817,-9.63354 2.53977,-17.69173 7.22041,-14.55393M403.87429,130.84767c4.94816,2.47679 9.34569,13.95183 8.56006,22.3358l-0.18354,1.96138l-1.4751,1.09312c-3.69249,2.73551 -9.47438,1.07822 -11.68161,-3.34844c-2.29054,-4.59462 -1.97019,-14.41373 0.65492,-20.07303c1.11615,-2.40703 2.20927,-2.92853 4.12527,-1.96883M249.15933,134.06133c0,0.5215 -0.05554,0.73484 -0.12394,0.47409c-0.06773,-0.26075 -0.06773,-0.68743 0,-0.94818c0.0684,-0.26075 0.12394,-0.04741 0.12394,0.47409M346.3704,140.15679c-0.00068,2.235 -0.04199,3.11343 -0.09346,1.9519c-0.0508,-1.16152 -0.05012,-2.99016 0.00068,-4.06364c0.05147,-1.07348 0.09346,-0.12326 0.09279,2.11174M249.43024,138.39588c0,0.5215 -0.05554,0.73484 -0.12394,0.47409c-0.06773,-0.26075 -0.06773,-0.68743 0,-0.94818c0.0684,-0.26075 0.12394,-0.04741 0.12394,0.47409M405.89324,140.88147c-0.71859,0.67524 -0.79918,1.64036 -0.2472,2.96713c0.20928,0.50254 0.59736,2.00812 0.86217,3.34573c0.6766,3.41278 1.97154,4.52283 3.67218,3.14526c0.84388,-0.68337 0.81137,-1.94919 -0.149,-5.84825c-0.98679,-4.00201 -2.40432,-5.23871 -4.13814,-3.60987M376.45081,140.8537c-0.9536,0.74974 -0.92109,1.53876 0.22485,5.4981c1.0728,3.70536 1.43379,4.23499 2.88044,4.23499c2.03317,0 2.25397,-1.09651 1.05722,-5.23939c-0.447,-1.54689 -0.81273,-3.01793 -0.81273,-3.2692c0,-1.43108 -2.10767,-2.20114 -3.34979,-1.22451M249.70115,143.00134c0,0.5215 -0.05554,0.73484 -0.12394,0.47409c-0.06773,-0.26075 -0.06773,-0.68743 0,-0.94818c0.0684,-0.26075 0.12394,-0.04741 0.12394,0.47409M220.96106,145.16861c0,0.9685 -0.04944,1.36471 -0.10904,0.88046c-0.06028,-0.48425 -0.06028,-1.27666 0,-1.76091c0.0596,-0.48425 0.10904,-0.08805 0.10904,0.88046M346.66298,154.37953c0,0.9685 -0.04944,1.36471 -0.10904,0.88046c-0.06028,-0.48425 -0.06028,-1.27666 0,-1.76091c0.0596,-0.48425 0.10904,-0.08805 0.10904,0.88046M249.68286,154.10862c0,0.8195 -0.0508,1.15475 -0.1131,0.745c-0.06163,-0.40975 -0.06163,-1.08025 0,-1.49c0.06231,-0.40975 0.1131,-0.0745 0.1131,0.745M220.92516,163.04863c0,5.4385 -0.0359,7.66335 -0.07992,4.9441c-0.0447,-2.71925 -0.0447,-7.16894 0,-9.88819c0.04402,-2.71925 0.07992,-0.49441 0.07992,4.9441M261.21005,155.66161c-0.63325,0.05689 -1.66948,0.05689 -2.30273,0c-0.63325,-0.05689 -0.11514,-0.10362 1.15136,-0.10362c1.2665,0 1.78462,0.04673 1.15136,0.10362M280.58007,157.00464c-0.26075,0.06773 -0.68743,0.06773 -0.94818,0c-0.26075,-0.0684 -0.04741,-0.12394 0.47409,-0.12394c0.5215,0 0.73484,0.05554 0.47409,0.12394M286.13371,157.27961c-0.33525,0.06502 -0.88384,0.06502 -1.21909,0c-0.33525,-0.06434 -0.06095,-0.11717 0.60955,-0.11717c0.6705,0 0.9448,0.05283 0.60955,0.11717M292.22578,157.55391c-0.41246,0.06231 -1.02201,0.06095 -1.35455,-0.00339c-0.33322,-0.06434 0.00339,-0.11581 0.74839,-0.11378c0.745,0.00203 1.01794,0.05486 0.60616,0.11717M329.34375,159.44282c-0.26075,0.06773 -0.68743,0.06773 -0.94818,0c-0.26075,-0.0684 -0.04741,-0.12394 0.47409,-0.12394c0.5215,0 0.73484,0.05554 0.47409,0.12394M314.17283,159.44282c-0.26075,0.06773 -0.68743,0.06773 -0.94818,0c-0.26075,-0.0684 -0.04741,-0.12394 0.47409,-0.12394c0.5215,0 0.73484,0.05554 0.47409,0.12394M227.2983,167.01339c-0.69217,0.88046 -0.70233,1.35387 -0.05147,2.42193c0.44226,0.72468 0.46055,0.91838 0.14426,1.49c-1.16694,2.107 0.98272,4.12324 2.99219,2.80662c0.5872,-0.38469 0.72265,-0.38469 1.46697,0c2.54113,1.31391 4.06296,-1.19403 2.06568,-3.40465c-0.61158,-0.67727 -0.94818,-1.32068 -0.94818,-1.81374c0,-1.95055 -4.39957,-3.1141 -5.66945,-1.50016M404.93219,173.885c0,0.5215 -0.05554,0.73484 -0.12394,0.47409c-0.06773,-0.26075 -0.06773,-0.68743 0,-0.94818c0.0684,-0.26075 0.12394,-0.04741 0.12394,0.47409M220.97054,175.375c-0.00203,0.745 -0.05486,1.01794 -0.11717,0.60616c-0.06231,-0.41246 -0.06095,-1.02201 0.00339,-1.35455c0.06434,-0.33322 0.11581,0.00339 0.11378,0.74839M222.29325,190.95229c0,2.3095 -0.04131,3.2543 -0.09211,2.09955c-0.0508,-1.15475 -0.0508,-3.04434 0,-4.19909c0.0508,-1.15475 0.09211,-0.20995 0.09211,2.09955M295.61215,200.35487c-0.3366,0.06502 -0.82424,0.06231 -1.08364,-0.00542c-0.25872,-0.06773 0.01693,-0.12123 0.61293,-0.11785c0.596,0.00271 0.80799,0.05825 0.4707,0.12326M304.96191,200.89195c-0.26075,0.06773 -0.68743,0.06773 -0.94818,0c-0.26075,-0.0684 -0.04741,-0.12394 0.47409,-0.12394c0.5215,0 0.73484,0.05554 0.47409,0.12394M311.5958,201.1676c-0.3366,0.06502 -0.82424,0.06231 -1.08364,-0.00542c-0.25872,-0.06773 0.01693,-0.12123 0.61293,-0.11785c0.596,0.00271 0.80799,0.05825 0.4707,0.12326M327.31193,202.52621c-0.48425,0.06028 -1.27666,0.06028 -1.76091,0c-0.48425,-0.0596 -0.08805,-0.10904 0.88046,-0.10904c0.9685,0 1.36471,0.04944 0.88046,0.10904M222.58448,204.90412c-0.00135,1.043 -0.05012,1.4365 -0.10904,0.87436c-0.05892,-0.56214 -0.05757,-1.4155 0.00203,-1.89637c0.06028,-0.48086 0.10836,-0.021 0.10701,1.02201M339.09039,212.08321c0,0.6705 -0.05283,0.9448 -0.11717,0.60955c-0.06502,-0.33525 -0.06502,-0.88384 0,-1.21909c0.06434,-0.33525 0.11717,-0.06095 0.11717,0.60955M376.48129,213.0314c-0.00271,0.596 -0.05825,0.80799 -0.12326,0.4707c-0.06502,-0.3366 -0.06231,-0.82424 0.00542,-1.08364c0.06773,-0.25872 0.12123,0.01693 0.11785,0.61293M364.81932,214.5214c0,0.8195 -0.0508,1.15475 -0.1131,0.745c-0.06163,-0.40975 -0.06163,-1.08025 0,-1.49c0.06231,-0.40975 0.1131,-0.0745 0.1131,0.745M222.83914,218.44958c-0.00068,1.937 -0.04402,2.69419 -0.09617,1.68167c-0.05215,-1.01185 -0.05215,-2.59667 0.00068,-3.52182c0.05283,-0.92448 0.0955,-0.09685 0.0955,1.84015M408.1831,216.68867c0,0.5215 -0.05554,0.73484 -0.12394,0.47409c-0.06773,-0.26075 -0.06773,-0.68743 0,-0.94818c0.0684,-0.26075 0.12394,-0.04741 0.12394,0.47409M339.09581,217.09504c-0.00271,0.596 -0.05825,0.80799 -0.12326,0.4707c-0.06502,-0.3366 -0.06231,-0.82424 0.00542,-1.08364c0.06773,-0.25872 0.12123,0.01693 0.11785,0.61293M407.90677,221.70049c-0.00271,0.596 -0.05825,0.80799 -0.12326,0.4707c-0.06502,-0.3366 -0.06231,-0.82424 0.00542,-1.08364c0.06773,-0.25872 0.12123,0.01693 0.11785,0.61293M339.35791,223.32595c-0.00203,0.745 -0.05486,1.01794 -0.11717,0.60616c-0.06231,-0.41246 -0.06095,-1.02201 0.00339,-1.35455c0.06434,-0.33322 0.11581,0.00339 0.11378,0.74839M407.64128,226.98323c0,0.5215 -0.05554,0.73484 -0.12394,0.47409c-0.06773,-0.26075 -0.06773,-0.68743 0,-0.94818c0.0684,-0.26075 0.12394,-0.04741 0.12394,0.47409M223.14662,231.99505c-0.00271,0.596 -0.05825,0.80799 -0.12326,0.4707c-0.06502,-0.3366 -0.06231,-0.82424 0.00542,-1.08364c0.06773,-0.25872 0.12123,0.01693 0.11785,0.61293M366.42988,237.41323c0.00068,1.341 -0.0447,1.92346 -0.10159,1.29495c-0.05689,-0.62851 -0.05757,-1.72569 -0.00203,-2.43818c0.05621,-0.71249 0.10295,-0.19776 0.10362,1.14324M390.1595,241.26218c-0.3366,0.06502 -0.82424,0.06231 -1.08364,-0.00542c-0.25872,-0.06773 0.01693,-0.12123 0.61293,-0.11785c0.596,0.00271 0.80799,0.05825 0.4707,0.12326M242.2464,242.8917c-0.48425,0.06028 -1.27666,0.06028 -1.76091,0c-0.48425,-0.0596 -0.08805,-0.10904 0.88046,-0.10904c0.9685,0 1.36471,0.04944 0.88046,0.10904M251.72823,243.15787c-0.33525,0.06502 -0.88384,0.06502 -1.21909,0c-0.33525,-0.06434 -0.06095,-0.11717 0.60955,-0.11717c0.6705,0 0.9448,0.05283 0.60955,0.11717M265.83244,243.70375c-0.51947,0.06434 -0.91161,0.29055 -0.98476,0.56552c-0.08601,0.32577 -0.13004,0.28175 -0.15239,-0.15103c-0.02709,-0.5364 0.09075,-0.60413 0.98476,-0.5662c0.97595,0.04199 0.98205,0.04741 0.15239,0.15171M272.45279,243.97398c-0.40975,0.06163 -1.08025,0.06163 -1.49,0c-0.40975,-0.06231 -0.0745,-0.1131 0.745,-0.1131c0.8195,0 1.15475,0.0508 0.745,0.1131M400.94305,249.80734c-0.66441,0.70775 -1.24347,1.28682 -1.28682,1.28682c-0.20386,0 0.01151,-0.24314 1.20758,-1.36606l1.28682,-1.20758l-1.20758,1.28682M390.97223,250.4731c-0.3366,0.06502 -0.82424,0.06231 -1.08364,-0.00542c-0.25872,-0.06773 0.01693,-0.12123 0.61293,-0.11785c0.596,0.00271 0.80799,0.05825 0.4707,0.12326M385.10027,252.51643l0.7958,0.88046l-0.88046,-0.7958c-0.82086,-0.74161 -1.00507,-0.96511 -0.7958,-0.96511c0.04673,0 0.44294,0.3962 0.88046,0.88046M361.10786,251.99154c0,0.04673 -0.3962,0.44294 -0.88046,0.88046l-0.88046,0.7958l0.7958,-0.88046c0.74161,-0.82086 0.96511,-1.00507 0.96511,-0.7958M287.14962,252.26245c0,0.04673 -0.3962,0.44294 -0.88046,0.88046l-0.88046,0.7958l0.7958,-0.88046c0.74161,-0.82086 0.96511,-1.00507 0.96511,-0.7958" data-paper-data="{&quot;index&quot;:null}" fill="#fbfbfb" stroke-width="1"/><path d="M400.27526,98.92778c0.77683,0.66847 0.91771,1.47781 0.55266,3.17573l-0.20589,0.95699l5.30373,-0.10904c5.54822,-0.11378 6.75106,0.06095 7.05719,1.02607c0.08195,0.2594 1.15678,0.97053 2.38807,1.58008c5.40532,2.67862 7.48522,6.79576 5.33082,10.5526c-0.68743,1.1981 -3.15542,3.57329 -3.74329,3.60174c-1.31188,0.06299 -1.22045,2.05417 0.77616,16.92303c3.3376,24.85932 5.1378,45.85885 4.22009,49.23235c-1.20487,4.42937 -8.10967,8.60679 -14.2268,8.60679c-0.82153,0 -0.96918,1.48255 -0.48086,4.82693c0.23298,1.59159 0.41923,3.44258 0.41381,4.11308c-0.00474,0.6705 0.07653,3.41346 0.18151,6.09546c0.29665,7.59765 -0.766,24.59924 -1.75143,28.0039c-0.14494,0.50186 -0.18964,1.45275 -0.09956,2.11242c0.14087,1.0281 0.06908,1.30375 -0.5066,1.93158c-0.36911,0.4023 -0.88858,1.34168 -1.15407,2.08668c-1.87537,5.26512 -5.79407,8.96642 -10.90139,10.29659c-6.15032,1.60243 -9.88345,-1.27395 -11.95997,-9.21295c-1.6539,-6.32506 -4.53164,-25.07266 -4.7829,-31.15457c-0.26752,-6.49911 -0.80866,-7.74327 -4.24312,-9.75612c-4.34945,-2.54926 -5.48591,-2.44563 -6.95695,0.63528l-0.99221,2.0772l0.04538,5.01182c0.02506,2.7565 0.23163,6.96237 0.45919,9.34637c1.78665,18.72525 1.52251,22.99885 -1.72434,27.85286c-6.10494,9.12693 -15.50753,9.93831 -19.25962,1.66203c-2.97594,-6.5621 -5.27257,-26.24502 -4.69215,-40.20362c0.33051,-7.94712 -0.00745,-8.20517 -10.59391,-8.09612c-4.10969,0.04267 -6.58648,-0.0833 -10.28914,-0.52218c-2.682,-0.31832 -6.5831,-0.65289 -8.6691,-0.74365c-2.086,-0.09075 -6.91767,-0.3427 -10.73681,-0.55875c-14.048,-0.79647 -14.23154,-0.37656 -10.39344,23.72488c3.18793,20.01817 2.19233,25.85288 -5.36875,31.47763c-10.53566,7.83741 -19.35647,5.27325 -21.61585,-6.28306c-0.94818,-4.8486 -0.77141,-4.8425 -2.22281,-0.07856c-3.67624,12.06495 -8.52281,16.72933 -17.38967,16.73678c-7.57462,0.0061 -11.96539,-4.16659 -15.39036,-14.62639c-2.65559,-8.10899 -3.29493,-13.28133 -3.56517,-28.85184c-0.52082,-30.00659 -0.70978,-35.82843 -1.28817,-39.68821c-1.22451,-8.17604 -0.96782,-41.87716 0.36573,-48.05322c3.84894,-17.81838 11.53667,-23.08689 21.09842,-14.45708c4.93665,4.4551 6.40159,11.67077 6.18418,30.46037c-0.04131,3.53063 -0.01625,6.47744 0.05486,6.54856c0.07111,0.07179 1.7135,-0.18557 3.64983,-0.57162c4.23702,-0.84388 8.70703,-0.91161 16.25253,-0.24517c6.19705,0.54724 11.8489,0.90416 20.04729,1.26582c3.576,0.1578 7.59901,0.40298 8.94001,0.54521c1.341,0.14223 4.87637,0.52692 7.85637,0.85472c9.97353,1.09854 24.05065,0.85811 35.57446,-0.60751c5.27257,-0.67118 5.26038,-0.66441 5.08023,-2.6434c-0.07721,-0.84795 -0.21131,-5.62611 -0.29868,-10.61761l-0.15848,-9.07546l-1.06738,-0.90281c-1.62275,-1.37283 -1.3173,-3.5672 0.49576,-3.5672c1.57534,0 0.98476,-1.30646 -1.02675,-2.2709c-3.02673,-1.4514 -4.61291,-3.65253 -4.04806,-5.62001c0.65018,-2.26819 4.54179,-5.7189 7.75342,-6.87568c0.7213,-0.26007 2.95765,-1.24076 4.96915,-2.17947c2.0115,-0.9387 4.36909,-2.01895 5.23871,-2.39958c0.8703,-0.3813 1.5347,-0.78631 1.47713,-0.90077c-1.80629,-3.57871 -1.88282,-4.39957 -0.54453,-5.82523c1.4365,-1.52996 3.39923,-1.21503 7.37415,1.1832c2.22891,1.34439 2.33795,1.37893 3.38637,1.08364c6.76731,-1.9072 13.54343,-3.30238 19.48651,-4.01217l4.04535,-0.4829l1.23738,-1.6302c2.67049,-3.51708 3.59158,-4.02097 5.05178,-2.76531M399.74766,107.30904c-0.09008,0.33525 -0.16525,1.0193 -0.16729,1.52048l-0.00339,0.91161l1.35455,-1.44259c1.62952,-1.73585 1.6153,-1.59904 0.16729,-1.59904c-1.00304,0 -1.213,0.09482 -1.35116,0.60955M394.94918,108.69677c-0.27904,0.61496 -0.50999,1.6092 -0.51337,2.20927c-0.00813,1.51506 -0.61429,2.29528 -1.78258,2.29528c-1.90111,0 -2.48627,-1.87605 -1.58279,-5.07955c0.26888,-0.95563 -2.831,-0.62986 -11.26305,1.1832c-5.27935,1.13511 -5.02469,1.01726 -4.30407,1.99254c1.86318,2.51946 -2.43141,3.94376 -4.66438,1.54689c-0.26143,-0.27971 -1.09583,-0.79715 -1.85437,-1.14866c-0.75922,-0.3515 -1.89704,-0.99288 -2.52894,-1.42634c-4.68605,-3.2096 -5.9573,-2.23974 -2.19911,1.67761c5.1019,5.31998 5.74666,6.44629 4.43682,7.75613c-1.29021,1.29021 -2.3989,0.65696 -4.76733,-2.72332c-0.82966,-1.18387 -1.53809,-2.15305 -1.57398,-2.15305c-0.37318,0 -4.76123,2.09481 -4.77816,2.28106c-0.01287,0.13749 0.52218,0.45648 1.18794,0.70911c5.34436,2.02911 7.63016,4.40837 5.69587,5.9302c-0.99153,0.77954 -1.3769,0.71723 -3.30509,-0.53572c-6.279,-4.07989 -13.70056,-4.7233 -15.4039,-1.33491c-1.58956,3.16287 -1.45952,3.4568 1.92142,4.32168c4.08599,1.04503 5.96542,3.86181 3.26243,4.88924c-1.1236,0.42736 -0.94412,2.60073 0.40027,4.86418c0.99356,1.67219 2.18962,4.67793 2.18962,5.50217c0,1.53335 0.90145,3.17506 2.79985,5.09784c2.92108,2.95901 3.2841,5.21297 1.42498,8.84993c-1.30104,2.54452 -4.52554,5.20755 -6.30812,5.20891c-1.21232,0.00068 0.35895,12.23901 2.39348,18.64262c0.25601,0.80663 0.33119,0.85811 0.73281,0.50592c2.62172,-2.29799 13.54547,2.37113 21.98429,9.39649l3.11546,2.59328l9.34637,0.00813c17.39035,0.01422 26.16239,-1.60243 28.68794,-5.28883c1.39518,-2.03588 1.17507,-7.20754 -1.24618,-29.31171c-0.18286,-1.6688 -0.47341,-1.82051 -0.8046,-0.42059c-0.70369,2.97458 -6.77883,5.30576 -11.49604,4.41108c-9.58613,-1.81848 -13.52041,-15.53597 -8.32843,-29.03674c3.58413,-9.32064 13.36057,-6.40768 17.70799,5.27596c0.7213,1.93768 0.74297,1.47984 0.14765,-3.08498c-0.29868,-2.29257 -0.73823,-5.99658 -0.97595,-8.23158c-0.50525,-4.75039 -0.38672,-4.54857 -2.29054,-3.90516c-2.99964,1.01388 -5.34843,-0.50999 -4.2018,-2.7267c0.40365,-0.78022 0.63867,-0.87368 3.11817,-1.24009c3.79883,-0.56214 6.40633,-4.40295 5.2658,-7.75749c-1.71621,-5.04907 -9.6376,-3.03486 -12.96504,3.29697c-0.54859,1.04368 -1.22654,2.02098 -1.50761,2.17134c-1.78055,0.95292 -3.6654,-0.92719 -2.71316,-2.70638c0.21673,-0.40501 0.16119,-0.54114 -0.27836,-0.67998c-1.07686,-0.34202 -1.43921,-1.33423 -1.24618,-3.41278c0.1998,-2.15034 -0.08872,-2.27699 -0.93599,-0.41246M232.9813,120.10273c-2.16931,1.12156 -5.66675,8.41173 -7.045,14.68396c-1.3261,6.03315 -1.5855,40.51042 -0.36234,48.17377c0.59668,3.73787 0.57771,3.15338 1.16017,35.62458c0.21266,11.85364 0.57026,19.62128 0.91974,19.97076c0.03928,0.03928 3.41481,0.13749 7.50148,0.21808c4.08599,0.07992 10.8892,0.26888 15.11742,0.41855c4.22889,0.15035 7.73852,0.22282 7.80016,0.16119c1.06535,-1.06535 1.61936,-9.78389 1.05248,-16.56949c-0.55062,-6.5919 -0.4084,-20.79432 0.22079,-22.0107c1.13714,-2.19911 3.38772,-1.80019 4.19909,0.74432c1.62139,5.08971 1.84896,15.48789 0.54453,24.92366c-0.57094,4.12934 -0.59397,8.16792 -0.06773,12.00535l0.16322,1.18997l3.55772,0.17135c9.70397,0.46732 18.86409,0.54182 18.89728,0.15374c0.1937,-2.2858 -0.32712,-6.95898 -1.79342,-16.09405c-2.49982,-15.57729 -2.63392,-19.12484 -0.85811,-22.71846c1.43717,-2.90686 3.29087,-4.25802 6.47135,-4.71585c1.1175,-0.16119 1.44598,-0.32103 1.52454,-0.74365c0.16119,-0.86894 0.5662,-1.20148 2.87096,-2.35488c3.42158,-1.7135 6.42529,-3.78799 9.08494,-6.27629c5.06465,-4.7382 7.66606,-4.92987 12.60406,-0.92922c4.75988,3.85707 6.17131,6.03383 6.32235,9.75138c0.11717,2.88315 -0.43075,2.68268 7.08631,2.58989c7.15268,-0.08805 9.88142,0.56417 11.77575,2.81543c1.26379,1.50219 1.29156,1.75956 1.362,12.69346c0.06976,10.96641 0.31832,15.13435 1.30036,21.8082l0.59736,4.06364l1.11682,0.08127c0.61361,0.04538 3.66134,-0.28649 6.77273,-0.73687c3.11072,-0.45039 6.48963,-0.90145 7.50825,-1.00169c1.26041,-0.12462 1.90178,-0.31222 2.00676,-0.58584c0.17,-0.44226 -0.22282,-6.42326 -1.03081,-15.7019c-0.99695,-11.44998 -0.74906,-16.18345 1.03149,-19.71136c2.31695,-4.59124 4.85605,-5.10461 10.76932,-2.1754c5.56583,2.7565 6.7111,4.81203 7.1642,12.85397c0.29732,5.29425 1.29901,12.84246 2.67862,20.1929l0.76058,4.05213l2.96104,0.07721c1.62884,0.04199 5.74463,0.20995 9.14725,0.3725c3.40194,0.16255 6.2255,0.25533 6.27426,0.20589c1.64984,-1.67896 2.79037,-29.86369 1.37486,-33.95374c-0.3068,-0.8852 -0.3129,-1.23331 -0.03454,-1.90111c0.27565,-0.65966 0.27294,-1.2069 -0.01355,-2.84455c-0.19573,-1.11479 -0.36031,-2.48966 -0.3664,-3.05518l-0.01084,-1.0281l-1.01591,0.21537c-1.17981,0.24991 -41.21479,0.19099 -43.36784,-0.06434c-0.83237,-0.09888 -1.6092,-0.36234 -1.83338,-0.62309c-2.21265,-2.57161 -2.92988,-3.96205 -5.25632,-10.19364c-1.14053,-3.05315 -2.51133,-8.20178 -3.4121,-12.8113c-0.35218,-1.80222 -3.86384,-0.0955 -7.21228,3.50489c-3.95799,4.25666 -6.02299,5.11612 -10.03448,4.17742c-6.07582,-1.42227 -9.40665,-5.99048 -7.62136,-10.45304c0.66102,-1.65187 -0.15035,-2.61089 -2.78292,-3.28952c-1.10463,-0.28513 -2.09752,-0.97663 -2.30815,-1.60785c-0.07044,-0.21131 -1.66812,-0.39756 -4.83641,-0.56349c-2.60208,-0.13613 -7.40666,-0.54521 -10.67654,-0.90958c-6.33183,-0.70504 -6.6664,-0.70436 -5.25429,0.01016c5.91395,2.99287 5.12696,10.153 -1.39721,12.71174c-0.8791,0.34473 -2.54045,0.54521 -5.96,0.71994c-6.03721,0.30816 -9.32267,0.83643 -12.80182,2.05823c-4.94613,1.73653 -8.8628,1.09244 -13.97079,-2.29799c-4.05145,-2.68945 -8.21871,-12.06088 -6.59055,-14.82077c0.69421,-1.17642 0.66915,-1.18049 -2.97662,-0.447c-1.39451,0.28107 -2.98068,0.58923 -3.52385,0.68472c-0.74432,0.13071 -1.02878,0.33525 -1.15204,0.8256c-0.35963,1.43243 -2.13951,2.0413 -3.00574,1.02742c-0.22282,-0.26075 -0.77141,-0.88858 -1.21909,-1.39451c-1.09718,-1.24076 -1.11276,-2.49982 -0.04131,-3.29223l0.77345,-0.57162l0.15916,-5.05788c0.26955,-8.55125 -0.617,-21.40048 -1.69251,-24.52542c-1.76362,-5.12696 -7.95457,-9.53127 -11.1066,-7.90107M383.5229,126.08508c5.14254,2.5628 8.41986,15.83262 6.9109,27.98222c-0.18828,1.5198 -0.16729,2.02031 0.08872,2.11851c1.85302,0.71114 0.58516,3.6119 -1.57805,3.6119c-1.74398,0 -0.39417,0.26685 6.03315,1.19403c12.39071,1.78732 16.44758,3.68843 18.90947,8.85941c2.81813,5.92072 1.07145,10.40224 -4.8276,12.38462c-2.16863,0.72875 -2.49372,0.95902 -2.81136,1.99592c-0.70707,2.30679 -13.88343,2.56077 -23.19661,0.44632c-9.77576,-2.21942 -18.986,-7.3816 -20.8546,-11.68771c-3.0843,-7.10866 4.89127,-13.35718 17.19732,-13.47435l1.62546,-0.01558l-1.81035,-0.92922c-5.38297,-2.76395 -8.34875,-9.53194 -8.34875,-19.05441c0,-9.83198 6.35621,-16.57423 12.6623,-13.43168M379.12333,129.42743c-5.17234,2.39484 -6.21534,13.71614 -2.02437,21.9721c1.50422,2.96307 4.15981,4.62171 7.71347,4.81744l2.16727,0.1192l-0.01896,-7.00639c-0.03793,-14.2268 -3.13103,-22.08114 -7.83741,-19.90235M400.64843,131.0942c-3.1737,3.39788 -4.2763,15.94301 -1.89027,21.5102c2.07652,4.84386 8.30066,6.59461 12.44557,3.50015l1.3769,-1.0281l-0.00135,-3.26039c-0.00406,-12.23359 -7.5753,-25.3842 -11.93085,-20.72185M408.1594,140.61395c1.3559,0.6556 3.03689,7.93222 2.14628,9.29084c-1.27192,1.94107 -2.90618,0.67321 -3.6654,-2.84319c-0.30477,-1.41347 -0.75381,-3.01996 -0.99762,-3.56923c-0.88587,-1.99592 0.66711,-3.77241 2.51675,-2.87841M379.06577,141.04131c0.2384,0.26346 0.55875,1.02539 0.71181,1.69318c0.15374,0.66847 0.58246,2.30612 0.95292,3.63899c0.94209,3.38908 -0.17338,5.28341 -2.21739,3.76564c-0.83169,-0.61767 -2.89873,-6.99014 -2.63866,-8.13473c0.31493,-1.3857 2.27361,-1.97696 3.19131,-0.96308M372.63641,163.99139c-4.16929,1.18184 -7.46491,3.8056 -7.46491,5.94307c0,3.60851 8.60679,8.72667 18.69274,11.11405c6.24785,1.47916 15.34972,1.8774 16.29316,0.71249c0.36099,-0.44565 1.77446,-1.04706 4.86147,-2.06772c6.75445,-2.23229 7.59765,-3.42429 5.64033,-7.97354c-1.92955,-4.48626 -5.92411,-5.84555 -23.81496,-8.10425c-3.23872,-0.40907 -12.28438,-0.17 -14.20784,0.37589M382.59504,165.43195c0.45513,0.50254 1.07957,3.07482 1.41482,5.82658c0.51879,4.25937 -3.05857,3.9397 -3.80424,-0.33999c-0.21944,-1.25905 -0.53098,-2.68945 -0.69217,-3.17912c-0.69488,-2.10429 1.66609,-3.87197 3.08159,-2.30747M230.12321,166.48647c1.89772,0.2472 2.84455,1.09515 2.84455,2.54722c0,0.298 0.30206,0.84321 0.67118,1.21232c2.18421,2.18488 0.5154,4.95493 -1.94648,3.23059c-0.52963,-0.37115 -0.67186,-0.35625 -1.55637,0.16593c-1.90449,1.1236 -3.62951,-0.55672 -2.61495,-2.54722c0.4531,-0.88723 0.45174,-0.95428 -0.01964,-1.53741c-0.99288,-1.22519 -0.08534,-3.35318 1.37148,-3.21773c0.24043,0.02235 0.80325,0.08805 1.25025,0.14629M403.77202,168.19184c0.61429,0.67863 1.12021,5.48591 0.69556,6.60477c-0.87233,2.29325 -3.53604,1.11953 -3.53604,-1.55773c0,-0.67321 -0.13004,-1.83135 -0.28987,-2.57432c-0.5364,-2.50049 1.58753,-4.1781 3.13036,-2.47272M393.34607,176.09697c2.49101,0.65899 3.03418,1.09583 2.92514,2.35285c-0.18828,2.17947 -0.90145,2.23636 -6.65218,0.5303c-0.96241,-0.28581 -1.42024,-0.90484 -1.42024,-1.92007c0,-1.5943 1.61665,-1.89637 5.14728,-0.96308M384.40674,241.00278c0.00677,2.01489 2.36572,7.8584 3.58684,8.88583c2.80053,2.35623 9.58071,-0.8256 11.98029,-5.62205c1.48729,-2.97323 1.89501,-2.78563 -6.89871,-3.16761c-7.12356,-0.30951 -8.6691,-0.32645 -8.66842,-0.09617M354.54305,242.68039c-3.01996,0.4382 -6.19163,0.87368 -7.04838,0.96782c-1.81916,0.19912 -1.80222,0.14155 -0.88994,3.02944c1.57601,4.9888 4.39821,6.84114 7.96135,5.22381c3.09649,-1.40466 6.58784,-5.65523 7.31862,-8.91021l0.24924,-1.10802h-1.05045c-0.57771,0 -3.52114,0.35895 -6.54043,0.79715M228.46321,243.71323c0.63257,4.77004 3.84759,12.58171 6.24107,15.16483c5.28544,5.70535 14.09067,4.1334 18.29044,-3.26581c1.27598,-2.24855 4.48219,-12.06698 4.07312,-12.47537c-0.14765,-0.14765 -16.35209,-0.60481 -23.66122,-0.66779l-5.11409,-0.04402l0.17067,1.28817M264.66618,244.38915c0.01151,4.88382 2.22958,9.96134 4.96103,11.35449c4.57363,2.33321 14.21055,-3.42836 16.28842,-9.73919c0.77074,-2.34133 1.23399,-2.20656 -7.89904,-2.29257c-4.43817,-0.04199 -9.25833,-0.10498 -10.71108,-0.13952l-2.64137,-0.06366l0.00203,0.88046" data-paper-data="{&quot;index&quot;:null}" fill="#080808" stroke-width="1"/><path d="M228.43429,243.69563l-0.16961,-1.28982l5.11878,0.03857c7.30913,0.06299 23.56522,0.52653 23.71288,0.67418c0.40907,0.4084 -2.79332,10.2553 -4.0693,12.50385c-4.19977,7.39921 -13.06357,8.98237 -18.34901,3.27702c-2.39348,-2.58312 -5.61116,-10.43376 -6.24374,-15.2038" data-paper-data="{&quot;noHover&quot;:false,&quot;origItem&quot;:[&quot;Path&quot;,{&quot;applyMatrix&quot;:true,&quot;segments&quot;:[[856.50199,639.804],[857.00599,636],[[841.90399,636.13],[0,0],[-21.584,0.186]],[[772.03199,638.102],[0.436,-0.436],[-1.208,1.206]],[[784.05999,674.942],[-3.768,-6.64],[12.402,21.85]],[[838.07199,684.586],[-15.608,16.848],[7.068,-7.628]],[[856.50199,639.804],[-1.868,14.086],[0,0]]],&quot;fillColor&quot;:[0,0,0,1],&quot;fillRule&quot;:&quot;evenodd&quot;}],&quot;index&quot;:null}" fill="#ff6cbf" stroke-width="0.5"/><path d="M264.636,244.37379l-0.00102,-0.8823l2.64374,0.06016c1.45275,0.03454 6.31257,0.08691 10.75074,0.12891c9.13303,0.08601 8.68864,-0.02926 7.9179,2.31208c-2.07787,6.31083 -11.77047,12.10816 -16.34409,9.77496c-2.73144,-1.39315 -4.95575,-6.50998 -4.96726,-11.3938" data-paper-data="{&quot;noHover&quot;:false,&quot;origItem&quot;:[&quot;Path&quot;,{&quot;applyMatrix&quot;:true,&quot;segments&quot;:[[749.59399,641.8],[749.59999,639.2],[[741.79999,639.388],[0,0],[-4.29,0.102]],[[710.16999,639.8],[13.106,-0.124],[-26.97,0.254]],[[686.84399,646.57],[-2.276,-6.914],[6.136,18.636]],[[734.94399,675.33],[-13.506,6.89],[8.066,-4.114]],[[749.59399,641.8],[-0.034,14.422],[0,0]]],&quot;fillColor&quot;:[0,0,0,1],&quot;fillRule&quot;:&quot;evenodd&quot;}],&quot;index&quot;:null}" fill="#ff6cbf" stroke-width="0.5"/><path d="M354.54662,242.64672c3.01928,-0.4382 5.98617,-0.78387 6.56389,-0.78387l1.05173,0.00182l-0.24769,1.11062c-0.73078,3.25498 -4.24841,7.5552 -7.34491,8.95987c-3.56313,1.61733 -6.42268,-0.27095 -7.9987,-5.25975c-0.91229,-2.88789 -0.92526,-2.84409 0.89389,-3.0432c0.85675,-0.09414 4.06182,-0.54728 7.08179,-0.98548" data-paper-data="{&quot;noHover&quot;:false,&quot;origItem&quot;:[&quot;Path&quot;,{&quot;applyMatrix&quot;:true,&quot;segments&quot;:[[[484.18599,636.754],[0,0],[-8.916,-1.294]],[[464.87199,634.4],[1.706,0],[0,0]],[461.76999,634.4],[[462.50599,637.672],[0,0],[2.158,9.612]],[[484.11799,663.984],[-9.144,-4.148],[10.522,4.776]],[[507.62799,648.558],[-4.654,14.732],[2.694,-8.528]],[[504.99999,639.612],[5.372,0.588],[-2.53,-0.278]],[[484.18599,636.754],[8.918,1.294],[0,0]]],&quot;fillColor&quot;:[0,0,0,1],&quot;fillRule&quot;:&quot;evenodd&quot;}],&quot;index&quot;:null}" fill="#ff6cbf" stroke-width="0.5"/><path d="M384.37746,240.98578c-0.00068,-0.23027 1.57754,-0.23002 8.7011,0.07949c8.79372,0.38198 8.41578,0.22132 6.92849,3.19455c-2.39958,4.79645 -9.23818,8.0076 -12.03871,5.65136c-1.22112,-1.02742 -3.58411,-6.91052 -3.59088,-8.92541" data-paper-data="{&quot;noHover&quot;:false,&quot;origItem&quot;:[&quot;Path&quot;,{&quot;applyMatrix&quot;:true,&quot;segments&quot;:[[[395.99799,631.8],[0,0],[0.002,-0.68]],[[370.39999,632.084],[21.036,-0.914],[-25.968,1.128]],[[350.02799,641.438],[-4.392,-8.78],[7.086,14.164]],[[385.40599,658.04],[-8.27,6.958],[3.606,-3.034]],[[395.99799,631.8],[-0.02,5.95],[0,0]]],&quot;fillColor&quot;:[0,0,0,1],&quot;fillRule&quot;:&quot;evenodd&quot;}],&quot;index&quot;:null}" fill="#ff6cbf" stroke-width="0.5"/></g></g></svg>