<svg version="1.1" xmlns="http://www.w3.org/2000/svg" xmlns:xlink="http://www.w3.org/1999/xlink" width="37" height="410" viewBox="0,0,37,410"><g transform="translate(-301.5,25.5)"><g data-paper-data="{&quot;isPaintingLayer&quot;:true}" fill="none" fill-rule="nonzero" stroke="#c11c1c" stroke-width="2" stroke-linecap="round" stroke-linejoin="miter" stroke-miterlimit="10" stroke-dasharray="" stroke-dashoffset="0" style="mix-blend-mode: normal"><path d="M302.5,-24.5v148.5086"/><path d="M302.5,124.49967v1.89075"/><path d="M302.5,126.89107v1.36099"/><path d="M302.5,128.98297v9.40783"/><path d="M302.5,139.0824v5.56961"/><path d="M302.5,145.16301v238.33699"/><path d="M337.5,-24.5v408"/><path d="M302.5,12.66667h35"/><path d="M302.5,30h35"/><path d="M303.16667,48.33333h33.66667"/><path d="M302.5,65h35"/><path d="M303.16667,83.33334h33.66667"/><path d="M302.5,100h35"/><path d="M303.16667,118.33334h10.46609"/><path d="M314.11181,118.33334h0.75503"/><path d="M315.9231,118.33334h20.91024"/><path d="M302.5,135h21.48447"/><path d="M324.48838,135h1.54361"/><path d="M326.5349,135h10.9651"/><path d="M303.16667,153.33334h12.14635"/><path d="M315.8122,153.33334h2.70421"/><path d="M319.01829,153.33334h8.91471"/><path d="M328.43275,153.33334h0.34883"/><path d="M329.28236,153.33334h7.55099"/><path d="M303.16667,173.33334h7.59198"/><path d="M311.32757,173.33334h14.71233"/><path d="M326.73796,173.33334h10.09538"/><path d="M302.5,190h35"/><path d="M303.16667,208.33334h33.66667"/><path d="M302.5,225h35"/><path d="M303.16667,243.33334h33.66667"/><path d="M303.16667,258.33334h33.66667"/><path d="M302.5,275h35"/><path d="M303.16667,293.33334h33.66667"/><path d="M302.5,310h35"/><path d="M303.16667,328.33334h33.66667"/><path d="M302.5,345h35"/></g></g></svg>