<svg version="1.1" xmlns="http://www.w3.org/2000/svg" xmlns:xlink="http://www.w3.org/1999/xlink" width="81" height="20.5" viewBox="0,0,81,20.5"><g transform="translate(-283.83335,-189.75)"><g data-paper-data="{&quot;isPaintingLayer&quot;:true}" fill-rule="nonzero" stroke-width="0.5" stroke-linejoin="miter" stroke-miterlimit="10" stroke-dasharray="" stroke-dashoffset="0" style="mix-blend-mode: normal"><path d="M284.08335,210v-20h80.5v20z" fill="#151515" stroke="#000000" stroke-linecap="butt"/><g fill="none" stroke="#ffffff" stroke-linecap="round"><path d="M353.39632,192.74331l0.49995,-0.85408l0.45828,2.64554l0.2708,0.02084l0.37496,0.22914l1.64565,-0.89574l0.12498,0.12498v0.6041l-1.06238,1.27069c0,0 2.45348,0.69463 3.06216,1.09364c0.55728,0.3653 3.16632,6.42639 3.16632,6.42639l0.39578,4.37451l-6.041,-0.99989l1.04154,-6.06183c0,0 -4.85841,2.18282 -5.74936,2.10394c-0.89095,-0.07888 -2.06226,-0.99989 -2.06226,-0.99989l-0.8124,-1.99978l-1.93729,-0.10416l-0.95824,-3.27048l-13.91513,-0.12498l-0.24997,-0.58327l0.16664,-0.47911l-0.3333,-0.56244l0.55203,-2.77052c0,0 0.5529,0.02737 0.90492,0.13673c0.59116,0.18366 2.31347,0.86315 2.31347,0.86315z" data-paper-data="{&quot;index&quot;:null}"/><path d="M345.27745,193.9704h-2.24974" data-paper-data="{&quot;index&quot;:null}"/><path d="M337.90325,193.93915h2.21851" data-paper-data="{&quot;index&quot;:null}"/><path d="M332.74756,193.93915l2.21851,-0.03125" data-paper-data="{&quot;index&quot;:null}"/><path d="M345.99612,194.53284v0.49995h-14.31093" data-paper-data="{&quot;index&quot;:null}"/><path d="M353.96397,199.90726c0,0 0.13117,1.66504 -0.84365,1.93729c-0.97483,0.27225 -2.19379,0.01652 -2.59346,0c-0.85653,-0.03541 -0.62493,-1.93729 -0.62493,-1.93729h2.09352c0,0 0.08697,0.55123 0.06693,0.8418c-0.02151,0.31198 -0.09818,0.783 -0.09818,0.783c0,0 0.79981,-0.43574 0.96865,-0.71867c0.16884,-0.28293 0.15623,-0.93739 0.15623,-0.93739l0.8749,0.03125z" data-paper-data="{&quot;index&quot;:null}"/></g></g></g></svg>