<svg version="1.1" xmlns="http://www.w3.org/2000/svg" xmlns:xlink="http://www.w3.org/1999/xlink" width="23.75" height="45" viewBox="0,0,23.75,45"><defs><radialGradient cx="413.04361" cy="171.3975" r="16.55264" gradientUnits="userSpaceOnUse" id="color-1"><stop offset="0" stop-color="#484e53"/><stop offset="1" stop-color="#161a1e"/></radialGradient><radialGradient cx="422.55782" cy="180.86688" r="6.375" gradientUnits="userSpaceOnUse" id="color-2"><stop offset="0" stop-color="#868789"/><stop offset="1" stop-color="#202020"/></radialGradient><radialGradient cx="422.55782" cy="202.26445" r="6.375" gradientUnits="userSpaceOnUse" id="color-3"><stop offset="0" stop-color="#868789"/><stop offset="1" stop-color="#202020"/></radialGradient></defs><g transform="translate(-410.55,-168.80003)"><g data-paper-data="{&quot;isPaintingLayer&quot;:true}" fill-rule="nonzero" stroke-linejoin="miter" stroke-miterlimit="10" stroke-dasharray="" stroke-dashoffset="0" style="mix-blend-mode: normal"><path d="M411.8,212.55004v-42.5h21.25v42.5z" fill="none" stroke="#000000" stroke-width="2.5" stroke-linecap="butt"/><path d="M412.59688,211.64831v-40.8014h19.65625v40.80141z" fill="#161a1e" stroke="url(#color-1)" stroke-width="1.5" stroke-linecap="butt"/><path d="M416.18282,180.86688c0,-3.52082 2.85418,-6.375 6.375,-6.375c3.52082,0 6.375,2.85418 6.375,6.375c0,3.52082 -2.85418,6.375 -6.375,6.375c-3.52082,0 -6.375,-2.85418 -6.375,-6.375z" fill="url(#color-2)" stroke="#252525" stroke-width="1.5" stroke-linecap="butt"/><path d="M422.44299,177.83904c0,0 3.25493,3.1971 3.34249,3.20548c0.09672,0.00925 -1.93948,0 -1.93948,0v2.81602h-2.67123v-2.84598c0,0 -2.02438,0.01952 -1.97721,0c-0.01034,-0.06697 3.24542,-3.17552 3.24542,-3.17552z" fill="none" stroke="#252525" stroke-width="0.75" stroke-linecap="round"/><path d="M422.55782,195.88945c3.52082,0 6.375,2.85419 6.375,6.375c0,3.52081 -2.85418,6.375 -6.375,6.375c-3.52082,0 -6.375,-2.85419 -6.375,-6.375c0,-3.52081 2.85418,-6.375 6.375,-6.375z" data-paper-data="{&quot;index&quot;:null}" fill="url(#color-3)" stroke="#252525" stroke-width="1.5" stroke-linecap="butt"/><path d="M422.44298,205.29229c0,0 -3.25576,-3.10854 -3.24542,-3.17551c-0.04717,-0.01952 1.97721,0 1.97721,0v-2.84599h2.67123v2.81602c0,0 2.0362,-0.00925 1.93948,0c-0.08756,0.00838 -3.34249,3.20548 -3.34249,3.20548z" data-paper-data="{&quot;index&quot;:null}" fill="none" stroke="#252525" stroke-width="0.75" stroke-linecap="round"/></g></g></svg>