<svg version="1.1" xmlns="http://www.w3.org/2000/svg" xmlns:xlink="http://www.w3.org/1999/xlink" width="479.07087" height="329.84416" viewBox="0,0,479.07087,329.84416"><defs><linearGradient x1="378.75" y1="196.90681" x2="378.75" y2="306.40681" gradientUnits="userSpaceOnUse" id="color-1"><stop offset="0" stop-color="#000000" stop-opacity="0.50196"/><stop offset="1" stop-color="#000000" stop-opacity="0"/></linearGradient></defs><g transform="translate(-78.22859,-18.15912)"><g data-paper-data="{&quot;isPaintingLayer&quot;:true}" fill-rule="nonzero" stroke-linejoin="miter" stroke-miterlimit="10" stroke-dasharray="" stroke-dashoffset="0" style="mix-blend-mode: normal"><path d="M248.5,27.3125l56,74l-52,142l-159,98z" fill="#0a1e03" stroke="#000000" stroke-width="5" stroke-linecap="round"/><path d="M240.83334,111.93144l-38,12l12,56l324,1l15.41666,-55.27519l-41,-13.5z" fill="#273006" stroke="#000000" stroke-width="5" stroke-linecap="round"/><path d="M204.25,124.15625l349.5,1.5" fill="none" stroke="#000000" stroke-width="5" stroke-linecap="round"/><path d="M214.25,339.90681v-159h325v159z" fill="#0f290a" stroke="#000000" stroke-width="5" stroke-linecap="butt"/><path d="M211.25,123.40681l26,-11.5l275,1.5l37,12z" fill="#244f1d" stroke="#000000" stroke-width="0" stroke-linecap="round"/><path d="M228.25,298.90681l-1,-102h303v102.5" fill="url(#color-1)" stroke="#000000" stroke-width="5" stroke-linecap="round"/><text transform="translate(295.75,252.28181) scale(0.64085,0.64085)" font-size="40" xml:space="preserve" fill="#a6af00" fill-rule="nonzero" stroke="none" stroke-width="1" stroke-linecap="butt" stroke-linejoin="miter" stroke-miterlimit="10" stroke-dasharray="" stroke-dashoffset="0" font-family="Sans Serif" font-weight="normal" text-anchor="start" style="mix-blend-mode: normal"><tspan x="0" dy="0">PROPERTY OF</tspan></text><text transform="translate(278.75,292.65681) scale(0.65168,0.65168)" font-size="40" xml:space="preserve" fill="#a6af00" fill-rule="nonzero" stroke="none" stroke-width="1" stroke-linecap="butt" stroke-linejoin="miter" stroke-miterlimit="10" stroke-dasharray="" stroke-dashoffset="0" font-family="Sans Serif" font-weight="normal" text-anchor="start" style="mix-blend-mode: normal"><tspan x="0" dy="0">THE FROG ARMY</tspan></text><path d="M236.5,21.3125l-155,315l12,7l156,-317z" fill="#0f2b05" stroke="#000000" stroke-width="5" stroke-linecap="round"/></g></g></svg>