<svg version="1.1" xmlns="http://www.w3.org/2000/svg" xmlns:xlink="http://www.w3.org/1999/xlink" width="687.17461" height="421.11982" viewBox="0,0,687.17461,421.11982"><defs><linearGradient x1="534.77395" y1="186.13826" x2="534.77395" y2="204.85888" gradientUnits="userSpaceOnUse" id="color-1"><stop offset="0" stop-color="#000000"/><stop offset="1" stop-color="#000000" stop-opacity="0"/></linearGradient><linearGradient x1="443.4223" y1="261.02563" x2="443.85699" y2="287.52206" gradientUnits="userSpaceOnUse" id="color-2"><stop offset="0" stop-color="#408cff"/><stop offset="1" stop-color="#0070cc"/></linearGradient></defs><g transform="translate(39.04862,39.50075)"><g data-paper-data="{&quot;isPaintingLayer&quot;:true}" fill-rule="nonzero" stroke-linejoin="miter" stroke-miterlimit="10" stroke-dasharray="" stroke-dashoffset="0" style="mix-blend-mode: normal"><path d="M423.4645,292.86352v-133.2371h218.34289c0,0 0,24.05455 0,40.23529c0,24.60029 0,93.00182 0,93.00182z" fill="#6b857b" stroke-opacity="0.50588" stroke="#000000" stroke-width="0" stroke-linecap="butt"/><path d="M421.42194,204.85888v-18.72062h226.70405v18.72062z" fill="url(#color-1)" stroke-opacity="0.50588" stroke="#000000" stroke-width="0" stroke-linecap="butt"/><g><path d="M460.39564,376.11405v-18.17955h47.07205v18.17955z" fill="#080000" stroke-opacity="0.50588" stroke="#000000" stroke-width="0" stroke-linecap="butt"/><path d="M420.88097,381.11907v-174.02983h86.33333v174.02983z" fill="#808080" stroke="#000000" stroke-width="1" stroke-linecap="butt"/><path d="M493.14142,220.16246v-3.99859h9.54211v3.99859z" fill="#313929" stroke="#000000" stroke-width="0" stroke-linecap="butt"/><path d="M479.50981,220.16246v-3.99859h9.54211v3.99859z" fill="#313929" stroke="#000000" stroke-width="0" stroke-linecap="butt"/><path d="M465.87824,220.16246v-3.99859h9.5421v3.99859z" fill="#313929" stroke="#000000" stroke-width="0" stroke-linecap="butt"/><path d="M421.62106,374.92632h85.42457" fill="none" stroke="#000000" stroke-width="1" stroke-linecap="round"/><path d="M506.59124,369.01931h-84.51579" fill="none" stroke="#000000" stroke-width="1" stroke-linecap="round"/><path d="M422.07544,363.56668h84.97017" fill="none" stroke="#000000" stroke-width="1" stroke-linecap="round"/><path d="M422.07545,359.02282h84.51579" fill="none" stroke="#000000" stroke-width="1" stroke-linecap="round"/><path d="M483.64474,218.16316c0,-0.37642 0.30516,-0.68158 0.68158,-0.68158c0.37642,0 0.68158,0.30516 0.68158,0.68158c0,0.37642 -0.30516,0.68157 -0.68158,0.68157c-0.37642,0 -0.68158,-0.30515 -0.68158,-0.68157z" fill="#008442" stroke="none" stroke-width="0.5" stroke-linecap="butt"/><path d="M481.00931,218.16316c0,-0.37642 0.30516,-0.68158 0.68158,-0.68158c0.37642,0 0.68158,0.30516 0.68158,0.68158c0,0.37642 -0.30516,0.68157 -0.68158,0.68157c-0.37642,0 -0.68158,-0.30515 -0.68158,-0.68157z" fill="#52d663" stroke="none" stroke-width="0.5" stroke-linecap="butt"/><path d="M486.37106,218.16316c0,-0.37642 0.30516,-0.68158 0.68158,-0.68158c0.37642,0 0.68158,0.30516 0.68158,0.68158c0,0.37642 -0.30516,0.68157 -0.68158,0.68157c-0.37642,0 -0.68158,-0.30515 -0.68158,-0.68157z" fill="#52d663" stroke="none" stroke-width="0.5" stroke-linecap="butt"/><path d="M494.55001,218.16316c0,-0.37642 0.30516,-0.68158 0.68158,-0.68158c0.37642,0 0.68158,0.30516 0.68158,0.68158c0,0.37642 -0.30516,0.68157 -0.68158,0.68157c-0.37642,0 -0.68158,-0.30515 -0.68158,-0.68157z" fill="#52d663" stroke="none" stroke-width="0.5" stroke-linecap="butt"/><path d="M497.36719,218.16316c0,-0.37642 0.30516,-0.68158 0.68158,-0.68158c0.37642,0 0.68158,0.30516 0.68158,0.68158c0,0.37642 -0.30516,0.68157 -0.68158,0.68157c-0.37642,0 -0.68158,-0.30515 -0.68158,-0.68157z" fill="#52d663" stroke="none" stroke-width="0.5" stroke-linecap="butt"/><path d="M500.09352,218.16316c0,-0.37642 0.30515,-0.68158 0.68157,-0.68158c0.37642,0 0.68158,0.30516 0.68158,0.68158c0,0.37642 -0.30516,0.68157 -0.68158,0.68157c-0.37642,0 -0.68157,-0.30515 -0.68157,-0.68157z" fill="#52d663" stroke="none" stroke-width="0.5" stroke-linecap="butt"/><path d="M472.83036,218.16316c0,-0.37642 0.30516,-0.68158 0.68158,-0.68158c0.37642,0 0.68158,0.30516 0.68158,0.68158c0,0.37642 -0.30516,0.68157 -0.68158,0.68157c-0.37642,0 -0.68158,-0.30515 -0.68158,-0.68157z" fill="#90b18c" stroke="none" stroke-width="0.5" stroke-linecap="butt"/><path d="M470.10405,218.16316c0,-0.37642 0.30516,-0.68158 0.68158,-0.68158c0.37642,0 0.68157,0.30516 0.68157,0.68158c0,0.37642 -0.30515,0.68157 -0.68157,0.68157c-0.37642,0 -0.68158,-0.30515 -0.68158,-0.68157z" fill="#90b18c" stroke="none" stroke-width="0.5" stroke-linecap="butt"/><path d="M467.37773,218.16316c0,-0.37642 0.30515,-0.68158 0.68157,-0.68158c0.37642,0 0.68158,0.30516 0.68158,0.68158c0,0.37642 -0.30516,0.68157 -0.68158,0.68157c-0.37642,0 -0.68157,-0.30515 -0.68157,-0.68157z" fill="#90b18c" stroke="none" stroke-width="0.5" stroke-linecap="butt"/><path d="M431.73115,227.02369v-4.08947h2.72631v4.08947z" fill="#313129" stroke="#000000" stroke-width="0" stroke-linecap="butt"/><path d="M436.04781,227.02369v-4.08947h2.72631v4.08947z" fill="#313129" stroke="#000000" stroke-width="0" stroke-linecap="butt"/><path d="M440.13728,227.02369v-4.08947h2.72631v4.08947z" fill="#313129" stroke="#000000" stroke-width="0" stroke-linecap="butt"/><path d="M431.73115,232.70352v-4.08948h2.72631v4.08948z" fill="#313129" stroke="#000000" stroke-width="0" stroke-linecap="butt"/><path d="M436.04781,232.70352v-4.08948h2.72631v4.08948z" fill="#313129" stroke="#000000" stroke-width="0" stroke-linecap="butt"/><path d="M440.13728,232.70352v-4.08948h2.72631v4.08948z" fill="#313129" stroke="#000000" stroke-width="0" stroke-linecap="butt"/><path d="M431.73115,237.92895v-4.08947h2.72631v4.08947z" fill="#313129" stroke="#000000" stroke-width="0" stroke-linecap="butt"/><path d="M436.04781,237.92895v-4.08947h2.72631v4.08947z" fill="#313129" stroke="#000000" stroke-width="0" stroke-linecap="butt"/><path d="M440.13728,237.92895v-4.08947h2.72631v4.08947z" fill="#313129" stroke="#000000" stroke-width="0" stroke-linecap="butt"/><path d="M431.73115,243.60878v-4.08947h2.72631v4.08947z" fill="#313129" stroke="#000000" stroke-width="0" stroke-linecap="butt"/><path d="M436.04781,243.60878v-4.08947h2.72631v4.08947z" fill="#313129" stroke="#000000" stroke-width="0" stroke-linecap="butt"/><path d="M440.13728,243.60878v-4.08947h2.72631v4.08947z" fill="#313129" stroke="#000000" stroke-width="0" stroke-linecap="butt"/><path d="M431.73115,248.60703v-4.08947h2.72631v4.08947z" fill="#313129" stroke="#000000" stroke-width="0" stroke-linecap="butt"/><path d="M436.04781,248.60703v-4.08947h2.72631v4.08947z" fill="#313129" stroke="#000000" stroke-width="0" stroke-linecap="butt"/><path d="M440.13728,248.60703v-4.08947h2.72631v4.08947z" fill="#313129" stroke="#000000" stroke-width="0" stroke-linecap="butt"/><path d="M431.95833,221.57106v-2.9535h2.95351v2.9535z" fill="#313129" stroke="#000000" stroke-width="0" stroke-linecap="butt"/><path d="M435.7449,221.57106v-2.9535h2.95352v2.9535z" fill="#313129" stroke="#000000" stroke-width="0" stroke-linecap="butt"/><path d="M439.98581,221.57106v-2.9535h2.95352v2.9535z" fill="#313129" stroke="#000000" stroke-width="0" stroke-linecap="butt"/><path d="M449.72484,227.02369v-4.08947h2.72631v4.08947z" fill="#313129" stroke="#000000" stroke-width="0" stroke-linecap="butt"/><path d="M454.04149,227.02369v-4.08947h2.72631v4.08947z" fill="#313129" stroke="#000000" stroke-width="0" stroke-linecap="butt"/><path d="M458.13096,227.02369v-4.08947h2.72631v4.08947z" fill="#313129" stroke="#000000" stroke-width="0" stroke-linecap="butt"/><path d="M449.72484,232.70352v-4.08948h2.72631v4.08948z" fill="#313129" stroke="#000000" stroke-width="0" stroke-linecap="butt"/><path d="M454.04149,232.70352v-4.08948h2.72631v4.08948z" fill="#313129" stroke="#000000" stroke-width="0" stroke-linecap="butt"/><path d="M458.13096,232.70352v-4.08948h2.72631v4.08948z" fill="#313129" stroke="#000000" stroke-width="0" stroke-linecap="butt"/><path d="M449.72484,237.92895v-4.08947h2.72631v4.08947z" fill="#313129" stroke="#000000" stroke-width="0" stroke-linecap="butt"/><path d="M454.04149,237.92895v-4.08947h2.72631v4.08947z" fill="#313129" stroke="#000000" stroke-width="0" stroke-linecap="butt"/><path d="M458.13096,237.92895v-4.08947h2.72631v4.08947z" fill="#313129" stroke="#000000" stroke-width="0" stroke-linecap="butt"/><path d="M449.72484,243.60878v-4.08947h2.72631v4.08947z" fill="#313129" stroke="#000000" stroke-width="0" stroke-linecap="butt"/><path d="M454.04149,243.60878v-4.08947h2.72631v4.08947z" fill="#313129" stroke="#000000" stroke-width="0" stroke-linecap="butt"/><path d="M458.13096,243.60878v-4.08947h2.72631v4.08947z" fill="#313129" stroke="#000000" stroke-width="0" stroke-linecap="butt"/><path d="M449.72484,248.60703v-4.08947h2.72631v4.08947z" fill="#313129" stroke="#000000" stroke-width="0" stroke-linecap="butt"/><path d="M454.04149,248.60703v-4.08947h2.72631v4.08947z" fill="#313129" stroke="#000000" stroke-width="0" stroke-linecap="butt"/><path d="M458.13096,248.60703v-4.08947h2.72631v4.08947z" fill="#313129" stroke="#000000" stroke-width="0" stroke-linecap="butt"/><path d="M449.95203,221.57106v-2.9535h2.9535v2.9535z" fill="#313129" stroke="#000000" stroke-width="0" stroke-linecap="butt"/><path d="M453.73857,221.57106v-2.9535h2.95351v2.9535z" fill="#313129" stroke="#000000" stroke-width="0" stroke-linecap="butt"/><path d="M457.97952,221.57106v-2.9535h2.9535v2.9535z" fill="#313129" stroke="#000000" stroke-width="0" stroke-linecap="butt"/><path d="M466.10957,225.85527v-2.85022h1.11531v2.85022z" fill="#9c7b31" stroke="#000000" stroke-width="0" stroke-linecap="butt"/><path d="M470.19906,225.85527v-2.85022h1.11531v2.85022z" fill="#9c7b31" stroke="#000000" stroke-width="0" stroke-linecap="butt"/><path d="M474.28853,225.85527v-2.85022h1.11531v2.85022z" fill="#9c7b31" stroke="#000000" stroke-width="0" stroke-linecap="butt"/><path d="M466.10957,231.43183v-2.85023h1.11531v2.85023z" fill="#9c7b31" stroke="#000000" stroke-width="0" stroke-linecap="butt"/><path d="M470.19906,231.43183v-2.85023h1.11531v2.85023z" fill="#9c7b31" stroke="#000000" stroke-width="0" stroke-linecap="butt"/><path d="M474.28853,231.43183v-2.85023h1.11531v2.85023z" fill="#9c7b31" stroke="#000000" stroke-width="0" stroke-linecap="butt"/><path d="M466.10957,236.63659v-2.85023h1.11531v2.85023z" fill="#9c7b31" stroke="#000000" stroke-width="0" stroke-linecap="butt"/><path d="M470.19906,236.63659v-2.85023h1.11531v2.85023z" fill="#9c7b31" stroke="#000000" stroke-width="0" stroke-linecap="butt"/><path d="M474.28853,236.63659v-2.85023h1.11531v2.85023z" fill="#9c7b31" stroke="#000000" stroke-width="0" stroke-linecap="butt"/><path d="M466.10957,242.33709v-2.85022h1.11531v2.85022z" fill="#9c7b31" stroke="#000000" stroke-width="0" stroke-linecap="butt"/><path d="M470.19906,242.33709v-2.85022h1.11531v2.85022z" fill="#9c7b31" stroke="#000000" stroke-width="0" stroke-linecap="butt"/><path d="M474.28853,242.33709v-2.85022h1.11531v2.85022z" fill="#9c7b31" stroke="#000000" stroke-width="0" stroke-linecap="butt"/><path d="M466.10957,247.78972v-2.85023h1.11531v2.85023z" fill="#9c7b31" stroke="#000000" stroke-width="0" stroke-linecap="butt"/><path d="M470.19906,247.78972v-2.85023h1.11531v2.85023z" fill="#9c7b31" stroke="#000000" stroke-width="0" stroke-linecap="butt"/><path d="M474.28853,247.78972v-2.85023h1.11531v2.85023z" fill="#9c7b31" stroke="#000000" stroke-width="0" stroke-linecap="butt"/><path d="M479.74116,225.85527v-2.85022h1.11531v2.85022z" fill="#9c7b31" stroke="#000000" stroke-width="0" stroke-linecap="butt"/><path d="M483.83064,225.85527v-2.85022h1.11531v2.85022z" fill="#9c7b31" stroke="#000000" stroke-width="0" stroke-linecap="butt"/><path d="M487.9201,225.85527v-2.85022h1.11531v2.85022z" fill="#9c7b31" stroke="#000000" stroke-width="0" stroke-linecap="butt"/><path d="M479.74116,231.43183v-2.85023h1.11531v2.85023z" fill="#9c7b31" stroke="#000000" stroke-width="0" stroke-linecap="butt"/><path d="M483.83064,231.43183v-2.85023h1.11531v2.85023z" fill="#9c7b31" stroke="#000000" stroke-width="0" stroke-linecap="butt"/><path d="M487.9201,231.43183v-2.85023h1.11531v2.85023z" fill="#9c7b31" stroke="#000000" stroke-width="0" stroke-linecap="butt"/><path d="M479.74116,236.63659v-2.85023h1.11531v2.85023z" fill="#9c7b31" stroke="#000000" stroke-width="0" stroke-linecap="butt"/><path d="M483.83064,236.63659v-2.85023h1.11531v2.85023z" fill="#9c7b31" stroke="#000000" stroke-width="0" stroke-linecap="butt"/><path d="M487.9201,236.63659v-2.85023h1.11531v2.85023z" fill="#9c7b31" stroke="#000000" stroke-width="0" stroke-linecap="butt"/><path d="M479.74116,242.33709v-2.85022h1.11531v2.85022z" fill="#9c7b31" stroke="#000000" stroke-width="0" stroke-linecap="butt"/><path d="M483.83064,242.33709v-2.85022h1.11531v2.85022z" fill="#9c7b31" stroke="#000000" stroke-width="0" stroke-linecap="butt"/><path d="M487.9201,242.33709v-2.85022h1.11531v2.85022z" fill="#9c7b31" stroke="#000000" stroke-width="0" stroke-linecap="butt"/><path d="M479.74116,247.78972v-2.85023h1.11531v2.85023z" fill="#9c7b31" stroke="#000000" stroke-width="0" stroke-linecap="butt"/><path d="M483.83064,247.78972v-2.85023h1.11531v2.85023z" fill="#9c7b31" stroke="#000000" stroke-width="0" stroke-linecap="butt"/><path d="M487.9201,247.78972v-2.85023h1.11531v2.85023z" fill="#9c7b31" stroke="#000000" stroke-width="0" stroke-linecap="butt"/><path d="M493.24881,225.85527v-2.85022h1.11531v2.85022z" fill="#9c7b31" stroke="#000000" stroke-width="0" stroke-linecap="butt"/><path d="M497.33829,225.85527v-2.85022h1.11531v2.85022z" fill="#9c7b31" stroke="#000000" stroke-width="0" stroke-linecap="butt"/><path d="M501.42777,225.85527v-2.85022h1.11531v2.85022z" fill="#9c7b31" stroke="#000000" stroke-width="0" stroke-linecap="butt"/><path d="M493.24881,231.43183v-2.85023h1.11531v2.85023z" fill="#9c7b31" stroke="#000000" stroke-width="0" stroke-linecap="butt"/><path d="M497.33829,231.43183v-2.85023h1.11531v2.85023z" fill="#9c7b31" stroke="#000000" stroke-width="0" stroke-linecap="butt"/><path d="M501.42777,231.43183v-2.85023h1.11531v2.85023z" fill="#9c7b31" stroke="#000000" stroke-width="0" stroke-linecap="butt"/><path d="M493.24881,236.63659v-2.85023h1.11531v2.85023z" fill="#9c7b31" stroke="#000000" stroke-width="0" stroke-linecap="butt"/><path d="M497.33829,236.63659v-2.85023h1.11531v2.85023z" fill="#9c7b31" stroke="#000000" stroke-width="0" stroke-linecap="butt"/><path d="M501.42777,236.63659v-2.85023h1.11531v2.85023z" fill="#9c7b31" stroke="#000000" stroke-width="0" stroke-linecap="butt"/><path d="M493.24881,242.33709v-2.85022h1.11531v2.85022z" fill="#9c7b31" stroke="#000000" stroke-width="0" stroke-linecap="butt"/><path d="M497.33829,242.33709v-2.85022h1.11531v2.85022z" fill="#9c7b31" stroke="#000000" stroke-width="0" stroke-linecap="butt"/><path d="M501.42777,242.33709v-2.85022h1.11531v2.85022z" fill="#9c7b31" stroke="#000000" stroke-width="0" stroke-linecap="butt"/><path d="M493.24881,247.78972v-2.85023h1.11531v2.85023z" fill="#9c7b31" stroke="#000000" stroke-width="0" stroke-linecap="butt"/><path d="M497.33829,247.78972v-2.85023h1.11531v2.85023z" fill="#9c7b31" stroke="#000000" stroke-width="0" stroke-linecap="butt"/><path d="M424.65966,354.92539v-4.08947h79.33509v4.08947z" fill="#000800" stroke="#000000" stroke-width="0" stroke-linecap="butt"/><path d="M503.875,252.75h-79.25" fill="none" stroke="#000000" stroke-width="1" stroke-linecap="round"/><path d="M466.5,273.86509v-15.88889h35.55556v15.88889z" fill="#a19678" stroke="#000000" stroke-width="1" stroke-linecap="butt"/><path d="M499.27778,263.53176h-29.66667" fill="none" stroke="#000000" stroke-width="1" stroke-linecap="round"/><path d="M493.72222,271.53176v-3.33334h6.11112v3.33334z" fill="#a18870" stroke="#000000" stroke-width="1" stroke-linecap="butt"/><path d="M466.5,289.86509v-15.88889h35.55556v15.88889z" fill="#a19678" stroke="#000000" stroke-width="1" stroke-linecap="butt"/><path d="M469.61111,279.53175h29.66667" fill="none" stroke="#000000" stroke-width="1" stroke-linecap="round"/><path d="M493.72222,287.53175v-3.33333h6.11112v3.33333z" fill="#a18870" stroke="#000000" stroke-width="1" stroke-linecap="butt"/><g><path d="M427.73416,287.78657c-3.40428,-2.82681 -1.94119,-24.32932 -0.43469,-26.49643c1.97491,-2.84091 29.43275,-3.21848 32.24566,-0.52901c2.28895,2.1885 3.27201,23.89841 0.43469,26.49644c-3.26487,2.98952 -29.83066,2.53435 -32.24566,0.529z" fill="url(#color-2)" stroke="#000000" stroke-width="0" stroke-linecap="butt"/><path d="M430.35318,273.42064c0,-6.74577 5.46852,-12.21429 12.21429,-12.21429c6.74577,0 12.21428,5.46852 12.21428,12.21429c0,6.74577 -5.46852,12.21429 -12.21428,12.21429c-6.74577,0 -12.21429,-5.46852 -12.21429,-12.21429z" fill="none" stroke="#ffffff" stroke-width="2" stroke-linecap="butt"/><path d="M452.67462,280.02778c0,0 -6.38157,5.3653 -9.43998,5.69192c-3.07248,0.32813 -8.95289,-3.72764 -8.95289,-3.72764l5.14286,-5.14286h10.07143l3.17857,3.17858z" fill="#ffffff" stroke="#ffffff" stroke-width="1" stroke-linecap="round"/><path d="M427.73416,287.78657c-3.40428,-2.82681 -1.94119,-24.32932 -0.43469,-26.49643c1.97491,-2.84091 29.43275,-3.21848 32.24566,-0.52901c2.28895,2.1885 3.27201,23.89841 0.43469,26.49644c-3.26487,2.98952 -29.83066,2.53435 -32.24566,0.529z" fill="none" stroke="#000000" stroke-width="1" stroke-linecap="butt"/><path d="M427.06746,263.0635h33.42857" fill="none" stroke-opacity="0.25098" stroke="#000000" stroke-width="1" stroke-linecap="round"/><path d="M458.92461,260.49207h-30.14286" fill="none" stroke-opacity="0.25098" stroke="#000000" stroke-width="1" stroke-linecap="round"/><path d="M461.21032,265.77778h-34.42857" fill="none" stroke-opacity="0.25098" stroke="#000000" stroke-width="1" stroke-linecap="round"/><path d="M426.21032,268.34921h34.71429" fill="none" stroke-opacity="0.25098" stroke="#000000" stroke-width="1" stroke-linecap="round"/><path d="M461.49604,271.20635h-35.42857" fill="none" stroke-opacity="0.25098" stroke="#000000" stroke-width="1" stroke-linecap="round"/><path d="M426.06746,274.20635h35.14286" fill="none" stroke-opacity="0.25098" stroke="#000000" stroke-width="1" stroke-linecap="round"/><path d="M426.21032,276.77778h35" fill="none" stroke-opacity="0.25098" stroke="#000000" stroke-width="1" stroke-linecap="round"/><path d="M426.06746,279.34921h35.42857" fill="none" stroke-opacity="0.25098" stroke="#000000" stroke-width="1" stroke-linecap="round"/><path d="M461.35318,281.96826h-35.28571" fill="none" stroke-opacity="0.25098" stroke="#000000" stroke-width="1" stroke-linecap="round"/><path d="M426.62302,284.55556h34.01587" fill="none" stroke-opacity="0.25098" stroke="#000000" stroke-width="1" stroke-linecap="round"/><path d="M427.35318,286.80953h33.14286" fill="none" stroke-opacity="0.25098" stroke="#000000" stroke-width="1" stroke-linecap="round"/></g><path d="M503.875,293.91667h-79.25" fill="none" stroke="#000000" stroke-width="1" stroke-linecap="round"/></g><path d="M544.06248,367.47272v-374.00699h102.9852v374.007z" fill="#000000" stroke="none" stroke-width="0" stroke-linecap="butt"/><path d="M-39.04862,267.75401v-88.44744h489.45946v88.44744z" fill="#262626" stroke="none" stroke-width="0" stroke-linecap="butt"/><path d="M-17.08708,179.71847v-219.21922h665.16517v219.21922z" fill="#000000" stroke="none" stroke-width="0" stroke-linecap="butt"/><path d="M-5.07507,368.4009v-100.6006h651.65166v100.6006z" fill="#000000" stroke="#000000" stroke-width="0" stroke-linecap="butt"/></g></g></svg>