<svg version="1.1" xmlns="http://www.w3.org/2000/svg" xmlns:xlink="http://www.w3.org/1999/xlink" width="112.7797" height="136.58684" viewBox="0,0,112.7797,136.58684"><g transform="translate(-263.61015,-111.70658)"><g data-paper-data="{&quot;isPaintingLayer&quot;:true}" fill="#000000" fill-rule="nonzero" stroke="none" stroke-width="0.5" stroke-linecap="butt" stroke-linejoin="miter" stroke-miterlimit="10" stroke-dasharray="" stroke-dashoffset="0" style="mix-blend-mode: normal"><path d="M303.53316,156.26464c-1.11803,2.23607 -3.3541,1.11803 -3.3541,1.11803l-2.28314,-1.65082c-1.547,-2.87973 -2.98309,-4.87425 -5.23081,-7.28412c0,0 -1.70113,-1.83198 0.13086,-3.53311c1.83198,-1.70113 3.53311,0.13086 3.53311,0.13086c2.49977,2.70287 4.23023,5.09333 5.96919,8.31588l0.11686,-0.45082c0,0 2.23607,1.11803 1.11803,3.3541z"/><path d="M308.38738,157.39806c-2.45145,0.49029 -2.94174,-1.96116 -2.94174,-1.96116l-0.13475,-0.7446c-1.16479,-3.81217 -3.1156,-6.88178 -5.5796,-10.00113c0,0 -1.54455,-1.9658 0.42124,-3.51035c1.9658,-1.54455 3.51035,0.42124 3.51035,0.42124c2.84438,3.63732 5.01581,7.18603 6.4204,11.59887l0.26525,1.2554c0,0 0.49029,2.45145 -1.96116,2.94174z"/><path d="M291.86486,131.91438c-1.76777,1.76777 -3.53553,0 -3.53553,0l-0.51236,-0.58102c-0.53821,-0.8074 -1.09329,-1.60381 -1.61463,-2.4222c-0.02548,-0.03999 -0.05182,-0.07968 -0.07885,-0.11915c-0.4947,1.37259 -1.65816,2.83318 -2.73414,3.28996c-0.4134,0.1755 -0.7926,0.32372 -1.14013,0.44696c0.223,1.8111 0.21529,3.63104 0.343,5.66174c0,0 0.15595,2.49513 -2.33919,2.65108c-2.49513,0.15595 -2.65108,-2.33919 -2.65108,-2.33919c-0.1848,-2.97458 0.15952,-5.5509 -1.04613,-8.27931l0.0041,-0.09758l-0.03455,0.01152l-0.8,-2.4l0.94813,-0.31604l0.10925,-2.60115c0.80698,0.34869 1.63102,0.66211 2.44536,0.9956l0.63674,-0.63674l1.86627,1.86627c0.45799,-1.92077 -2.04791,-3.94387 1.98474,-5.39789c4.05533,-1.46219 6.71751,4.59714 8.26135,6.91264l-0.11236,-0.18102c0,0 1.76777,1.76777 0,3.53553z"/><path d="M343.31102,237.22233l0.84315,-1.6685c-0.24429,-0.71214 -0.86719,-1.39191 -1.15966,-1.78626c-1.66409,-2.24382 -3.2809,-3.72646 -4.67521,-6.29276c-0.49866,-0.91781 -0.52316,-2.03813 -0.98666,-2.97418c-1.72661,-3.48691 -4.63723,-6.57285 -6.11736,-10.25878c-0.64482,-1.60579 -0.8399,-3.36911 -1.48939,-4.97302l-0.17881,-1.42848c0,0 0,-2.5 2.5,-2.5c2.5,0 2.5,2.5 2.5,2.5l-0.17881,-0.42848c0.64399,1.62686 0.86346,3.40138 1.51061,5.02698c1.39591,3.50645 4.21059,6.42599 5.88264,9.74122c0.47899,0.94971 0.51299,2.08719 1.01334,3.02582c0.94435,1.77155 2.53323,3.39775 3.90006,5.11041c2.17826,-3.79127 5.04471,-7.13805 8.83363,-9.44648c2.726,-2.73895 6.03132,-4.55781 8.77076,-7.29725c0.06694,-0.06694 3.75331,-3.31676 3.37504,-4.00777c-1.46419,-2.67472 -7.35382,-4.58757 -9.62475,-6.23769c-4.75023,-3.45163 -8.84446,-8.49768 -14.41099,-10.66557c0,0 -0.23356,-0.09342 -0.52286,-0.29508c-1.02791,1.16239 -2.21903,2.14006 -3.52824,2.75616c-5.33994,2.5129 -11.54185,2.29229 -16.61885,5.7879c-1.72464,1.18745 -3.3049,3.57317 -5.06469,5.64991c0.84935,0.86944 0.6291,2.19092 0.6291,2.19092c-0.77614,4.31224 0.09694,8.99017 0.52185,13.34266c0.37479,3.83915 0.01217,7.88918 0.01217,11.74634c0,0.3014 0.00369,5.08762 -0.01217,5.24634c-0.09265,0.92734 -0.25148,1.8566 -0.53638,2.74395c-0.12224,0.38073 -0.74215,0.60593 -0.66517,0.99833c0.05692,0.29012 0.5854,0.10092 0.88105,0.1021c1.37575,0.00547 2.75454,0.02046 4.12646,-0.08219c2.82113,-0.21108 5.3556,-1.47099 8.15642,-1.94732c3.39277,-0.97136 7.36636,-1.18459 10.64829,-2.39301c0.31394,-0.11559 0.94649,-0.44678 1.50697,-0.85639c0.07552,-0.26397 0.15845,-0.42984 0.15845,-0.42984zM364.31045,201.18307c2.37866,1.38226 7.30842,4.06696 8.12937,6.93283c0.78813,2.75133 -0.94167,5.01482 -2.5041,6.86246c-3.32386,3.93063 -7.76625,6.26492 -11.3501,9.83251c-4.44182,2.62031 -7.34818,6.88324 -9.34638,11.55961c-0.02394,0.56281 -0.12565,1.14826 -0.32044,1.76045c-1.97934,6.22053 -11.68874,6.18455 -16.82193,7.64823c-5.25885,0.85705 -15.19548,5.71046 -18.83607,-0.92742c-0.68675,-1.25216 0.79086,-6.72562 0.78629,-8.51138c-0.01156,-4.51608 0.47242,-9.26874 0.01217,-13.75366c-0.42156,-4.1079 -1.01603,-8.32955 -0.72412,-12.46146c-0.66431,0.20848 -1.36674,0.28627 -2.11584,0.19354c-4.10295,-0.50791 -3.5239,-4.19498 -6.1722,-5.97842c0,0 -0.62576,-0.46932 -0.91471,-1.23294c-1.679,0.2292 -3.7016,0.12967 -4.80393,0.12846c-3.35038,0.6404 -6.314,1.40076 -9.7696,1.2069c-3.65202,-0.20488 -4.17704,-0.4398 -7.60986,-1.51073c-3.60848,-1.12573 -7.52514,-2.64046 -7.75189,-7.18544c-0.05157,-1.03361 2.20979,-5.55111 2.73772,-6.45482c3.42719,-5.86657 7.85905,-11.06815 11.63642,-16.69832c1.87119,-2.789 4.12378,-5.46613 4.83119,-8.72503l-0.52808,-0.36966l-2.70327,-1.8496l-0.20993,-0.23659l-0.24603,-0.17086c-2.97543,1.67658 -6.26798,4.04014 -9.68174,4.74669l0.00002,-0.00001c-1.90506,0.39429 -8.65473,1.54344 -10.5194,0.6568c-3.53937,-1.68295 -4.70512,-7.14232 -5.28176,-10.48084c-0.54886,-3.17774 -0.85129,-7.1474 -0.41099,-10.36451c0.2506,-1.83103 1.19864,-3.48961 1.39189,-5.33614c0.37279,-3.562 -0.21482,-7.30961 -0.21056,-10.88268c0.49414,-3.34167 0.10669,-4.18936 2.52675,-6.8022c0.57213,-0.6177 1.55306,-0.73722 2.14146,-1.33945c1.25793,-1.28752 1.39055,-3.43405 2.68411,-4.68576c3.08019,-2.98053 9.17122,-3.25428 13.15661,-3.87711c6.01783,-0.94046 13.22841,-1.76986 19.26794,-0.58294c6.38891,1.25558 12.57093,4.11219 18.55329,6.57762c6.0269,3.09975 8.05087,7.37071 8.06436,14.0754c0.00363,1.80402 0.17112,5.00533 -0.58437,6.74226c-1.84598,4.24408 -5.75881,6.48548 -9.15389,9.20992l-1.80989,1.40799l0.2265,2.94452l-0.04125,0.24289l0.03108,0.24439l-0.02705,0.22722c7.33627,-0.48582 13.90011,-0.98473 20.93904,-3.74382c1.88923,-0.74053 7.46546,-3.01052 9.08996,-2.08461c1.76175,1.00413 2.17265,3.5367 2.5287,5.53302c0.1573,0.882 -1.40415,4.8296 -1.65668,6.01088c-1.14018,5.33357 -1.23385,10.74334 -2.65504,16.01354c-0.54946,0.14842 -1.09602,0.27927 -1.64002,0.39371c0.58025,1.14837 0.82553,2.51232 0.89073,4.49819c-0.392,2.00477 -0.45072,4.09347 -1.11038,6.02677c-0.17301,0.50705 -0.37969,1.02508 -0.61749,1.54417c6.95769,2.97192 12.00835,9.2511 18.5034,13.02543zM319.26085,172.69663l0.9829,-0.58974c-0.03022,-0.1712 -0.04667,-0.35752 -0.04667,-0.56027c0,-2.5 2.5,-2.5 2.5,-2.5l0.72382,0.05549c5.01874,1.07544 9.88753,1.88596 14.84219,2.46874c1.36784,-1.51254 3.17074,-0.31061 3.17074,-0.31061l1.13198,0.7579c0.71141,0.06441 1.4259,0.12447 2.14415,0.18028c-1.025,-3.90102 0.51296,-9.71196 1.34496,-13.58646c0.35213,-1.63983 1.13342,-3.16276 1.54332,-4.78912c0.10375,-0.41163 0.55258,-1.24415 0.1287,-1.26698c-0.73529,-0.03961 -1.20585,0.859 -1.87186,1.17307c-2.72907,1.28692 -6.06976,2.53997 -8.99349,3.25311c-5.89854,1.43875 -11.42838,1.63896 -17.42462,2.03418l-0.08599,0.72235l-0.45808,1.2043l-0.00743,0.00314l-0.00089,0.00802l-1.02302,0.78332l-1.42686,0.6176c-0.37943,3.86388 1.60752,6.80262 1.52167,10.81808l0.11635,0.1773c0.40373,-0.20333 0.80075,-0.41937 1.18812,-0.6537zM307.23739,172.79707c-0.91634,-2.04623 -2.52677,-3.70447 -3.77043,-5.56996c0,0 -0.32283,-0.48425 -0.42332,-1.14122h-4.6734l-0.01644,0.01154l-0.05845,-0.01154h-0.14114l-0.17849,-0.04462c-2.52192,8.32869 -10.10934,15.63777 -14.77554,22.857c-1.13355,1.75376 -3.62346,4.67097 -4.0031,6.84834c-0.15623,0.89602 2.12233,1.71969 2.15738,1.73462c2.6682,1.13627 5.59553,1.80059 8.48087,1.9692c3.1418,0.1836 5.9594,-0.62678 9.0304,-1.1931c1.50942,-0.00161 3.30445,0.97715 4.52732,0.0923c0.91863,-0.66471 0.34094,-2.24509 0.41008,-3.37688c0.28616,-4.68409 0.13632,-9.01102 -0.57698,-13.64601l-0.33288,-1.09334c0,0 -0.6868,-2.40381 1.71701,-3.09061c1.2678,-0.36223 2.05799,0.13524 2.52171,0.68633c0.70007,-0.04946 1.38562,-0.2236 2.05946,-0.46652c-0.73943,-1.47384 -1.27903,-3.05818 -1.95406,-4.56555zM311.05719,165.06487c-0.00988,-0.12522 -0.01506,-0.25032 -0.0162,-0.37534l-2.49057,1.07801l-0.00335,0.00585l-0.02411,0.00603l-0.00801,0.00347c1.2149,1.821 3.22152,4.83937 3.34183,5.10076c0.47288,1.02733 0.82319,2.12215 1.26359,3.16621c-0.19449,-3.34092 -1.80333,-5.69177 -2.06319,-8.98499zM298.29709,122.44661l1.20287,0.30526c1.41758,-0.24031 1.79743,-0.71132 -0.3989,-1.23538c-0.45858,-0.10942 -1.23978,-0.10285 -2.02306,-0.05851c0.2681,0.34289 0.53164,0.68729 0.79089,1.03418c0.2551,-0.04555 0.4282,-0.04555 0.4282,-0.04555zM305.09096,124.94533c-0.47527,1.20225 -2.13116,1.46401 -3.19674,2.19602l-0.83269,0.07066c0.40552,0.53663 1.18619,1.9195 -0.19668,3.30236c-1.76777,1.76777 -3.53553,0 -3.53553,0l-0.59168,-0.70809c-1.62937,-2.79961 -3.42669,-5.1721 -5.53869,-7.6327c0,0 -1.62698,-1.89814 0.27116,-3.52512c0.3077,-0.26374 0.60827,-0.43485 0.89595,-0.53643c0.2877,-0.71647 0.88295,-1.08388 1.37267,-1.27054c-3.64873,0.31298 -7.29568,0.96554 -10.59404,1.56472c-1.73978,0.31605 -5.90435,0.43875 -7.30541,1.93337c-1.17813,1.25681 -1.3493,3.2467 -2.51588,4.51424c-0.60714,0.65968 -1.58992,0.86327 -2.25855,1.46055c-1.1319,1.01112 -0.91929,2.1993 -1.07326,3.5978c0.00527,3.66463 0.58839,7.46154 0.18944,11.11732c-0.20404,1.8697 -1.1487,3.60104 -1.40811,5.46386c-0.04743,0.34058 -0.0841,0.69177 -0.11106,1.05084c6.00682,-1.93918 11.64724,-4.19869 17.31718,-7.03366l1.58977,-0.54971l0.12137,-0.30341l0.01075,-0.01489l0.00275,-0.01817l0.71429,-1.71429l0.29001,-0.38969l0.24992,-0.41654l2.14285,-2.14286l0.01219,-0.00731l0.01236,-0.04394l0.54787,-0.2922l0.53244,-0.31946l0.04403,0.01201l0.01254,-0.00669l2.28572,-0.57143h0.30776l0.29858,-0.07464h2c0.42611,0 0.82733,0.10661 1.17843,0.2946l0.07157,0.0179l0.01884,0.03296c0.1725,0.10181 0.33171,0.22374 0.47439,0.36257l0.17867,0.01489l0.11665,0.03971l0.12295,-0.00802l1.53335,0.27879l2.43803,0.3657c0.18743,-0.55349 0.50151,-0.92468 0.50151,-0.92468v0.00002c4.02157,-4.75114 8.2719,-9.28563 13.67755,-12.29403c-4.43966,-1.85627 -8.98261,-3.68427 -13.65144,-4.63809c-1.89604,-0.38736 -3.89729,-0.54551 -5.94035,-0.54627c4.58419,0.34199 9.6155,2.22352 7.21657,8.29195zM305.45452,161.0859h1.32475l1.99114,-0.86183c0.50575,-0.16858 1.0115,-0.33717 1.51726,-0.50575c0,0 0.48685,-0.16228 0.94586,-0.56037l3.32249,-1.43809l0.51538,-4.32919l-0.24755,-3.21813l-0.21627,-0.75696l-0.00142,-0.04274l-0.02012,-0.03773l-0.40528,-1.62114l-0.29234,-0.87702l-0.77856,-1.16784l-2.18108,-1.93874l-2.79208,-1.77678l-1.51058,-0.62941l-2.19971,-0.90577l-0.47673,-0.09535l-0.05509,-0.02609h-0.06095l-1.02625,-0.25656l-2.73827,-0.41074l-0.0367,-0.01526l-0.03966,0.00259l-1.4524,-0.26407l-1.59372,-0.13281l-0.09907,-0.03372l-0.10431,0.00835l-0.85714,-0.14286l-0.73101,-0.31783l-1.00844,0.25212l-1.30351,1.30351l-0.5172,1.24128l-1.13176,2.82941l-0.96792,2.48892l-1.0006,3.12687v2.30529l0.88776,1.77552l1.36447,1.61255l1.77789,2.03188l2.45302,1.67838l0.00911,0.01028l0.01283,0.00491l1.25315,0.87721l1.72917,0.81373h1.9057c0.73184,0.17053 1.49455,0.2607 2.27832,0.2607c1.3277,0 2.59496,-0.25875 3.75411,-0.72856l0.86084,-0.06943c-0.64958,0.3027 -1.3421,0.47234 -2.05752,0.53729z"/><path d="M304.04709,220.84036c0,2.5 -2.5,2.5 -2.5,2.5h-0.5c-3.43276,0 -8.37157,0.79849 -11.66733,-0.09071c-1.12253,-0.30286 -2.01367,-1.16346 -3.03569,-1.71777c-1.12314,-0.60916 -2.39689,-0.97929 -3.39885,-1.77214c-3.85705,-3.05209 -4.38346,-7.4026 -4.39813,-11.91938c0,0 0,-2.5 2.5,-2.5c2.5,0 2.5,2.5 2.5,2.5c-0.00214,0.57163 -0.20112,3.94183 0.28227,4.97958c3.1492,6.76075 11.12531,5.52042 17.21773,5.52042h0.5c0,0 2.5,0 2.5,2.5z"/><path d="M366.27932,188.10813c-1.76777,-1.76777 0,-3.53553 0,-3.53553l1.33929,-1.05342c0.90537,-0.35839 1.75971,-0.89232 2.71611,-1.07517c0.43098,-0.08239 1.04105,0.68005 1.27901,0.31139c0.27554,-0.42689 -0.50001,-0.91133 -0.56664,-1.41503c-0.20621,-1.55871 -0.30168,-3.16559 -0.84746,-4.64011c-0.45379,-1.22598 -1.49461,-4.86209 -2.22271,-5.95832c-2.22644,-3.35219 -5.59685,-4.83167 -9.34083,-5.43559c0,0 -2.46598,-0.411 -2.05499,-2.87698c0.411,-2.46598 2.87698,-2.05499 2.87698,-2.05499c5.07533,0.86872 9.65878,3.07597 12.65917,7.56441c1.2002,1.79544 2.02864,4.95073 2.77729,7.04168c0.95097,2.65599 2.49579,8.31837 0.58589,10.94487c-1.25617,1.72748 -4.02512,1.43454 -6.00488,2.23622l0.33929,-0.05342c0,0 -1.76777,1.76777 -3.53553,0z"/></g></g></svg>