<svg version="1.1" xmlns="http://www.w3.org/2000/svg" xmlns:xlink="http://www.w3.org/1999/xlink" width="155.09013" height="198.2008" viewBox="0,0,155.09013,198.2008"><defs><linearGradient x1="302.11111" y1="121.71528" x2="389.77778" y2="121.71528" gradientUnits="userSpaceOnUse" id="color-1"><stop offset="0" stop-color="#ff0000" stop-opacity="0.25882"/><stop offset="1" stop-color="#ff0000" stop-opacity="0"/></linearGradient></defs><g transform="translate(-256.10975,-90.74824)"><g data-paper-data="{&quot;isPaintingLayer&quot;:true}" fill-rule="nonzero" stroke-linejoin="miter" stroke-miterlimit="10" stroke-dasharray="" stroke-dashoffset="0" style="mix-blend-mode: normal"><path d="M318.29643,210.8337l0.09076,-0.32216c0,0 0.68603,-2.36519 -1.73933,-2.97153c-2.42536,-0.60634 -3.04379,1.83158 -3.04379,1.83158l-0.03499,0.19653c-0.70372,0.70116 -0.83231,1.42284 -0.73573,2.02027c-1.22681,3.01573 -1.81521,6.11579 -2.8643,9.26742c-2.39904,7.20709 -4.61794,14.49191 -7.02272,21.70169c-1.35679,4.41295 -2.86774,8.49932 -5.13629,12.53954c-1.44984,2.58211 -3.73189,4.79624 -5.05007,7.42117c-0.52175,1.03897 -0.84508,2.06983 -1.10419,3.2032c-0.10127,0.44295 0.413,1.2013 0.0385,1.4586c-0.34591,0.23766 -0.65874,-0.56542 -1.06389,-0.67492c-0.86478,-0.23372 -1.77967,-0.22279 -2.66856,-0.33389c-5.45312,-0.68158 -10.87826,-0.54335 -16.29165,-1.33074c-0.86195,-0.12537 -1.73631,-0.15812 -2.60326,-0.24218c-0.47159,-0.04573 -1.18322,0.26511 -1.41439,-0.14846c-0.19171,-0.34299 0.73863,-0.50821 0.97069,-0.8253c1.27206,-1.73818 1.52862,-2.91478 2.27908,-4.916c2.6893,-4.67118 5.67021,-9.42682 7.97958,-14.29336c1.35271,-2.85057 2.20027,-5.77761 3.88163,-8.45649c2.18034,-3.47388 4.93618,-6.24331 7.235,-9.51909c1.28691,-1.83382 1.37015,-4.30263 2.4855,-6.24558c1.56664,-2.72911 4.75974,-5.24495 6.80166,-7.69464c0,0 0.4781,-0.57585 0.55187,-1.43644c0.08421,-0.00543 0.16897,-0.01031 0.25319,-0.01564c-0.38153,-3.2209 -1.65868,-6.32668 -1.9832,-9.4935c0.08762,-0.01905 0.17535,-0.03945 0.26315,-0.06053c1.06423,-0.25549 1.93537,-1.05113 2.9612,-1.43262c3.72176,-1.38405 9.52621,-1.96242 11.95457,-5.65827c1.95922,-2.98184 0.66776,-8.33513 -1.02564,-10.9936c-2.36496,-3.71273 -5.48437,-3.67724 -8.72848,-5.21326c-0.26346,-0.33228 -0.59798,-0.54461 -0.91956,-0.67989c-0.53189,-1.27049 -1.07849,-2.686 -1.5302,-4.01751c0.3329,-4.76454 0.31201,-9.5523 -0.05227,-14.33047l0.02337,-1.70955c0,0 0.00214,-2.50038 -2.49786,-2.50038l-0.00001,-0.00004c-1.21966,0 -1.84185,0.59446 -2.16175,1.20393c-1.36872,0.60877 -1.3667,2.28131 -1.3667,2.28131c0,3.70951 -0.59726,8.03691 0.02877,11.67845c0.2433,1.41526 0.61813,2.84521 1.06958,4.26415c-0.08077,0.92645 -0.17829,1.84699 -0.29888,2.76148c0.07626,0.04131 0.15159,0.08374 0.2265,0.12701c-0.114,0.78924 0.18461,1.48363 0.18461,1.48363c0.51003,1.03877 0.67222,2.20293 1.48422,3.02745c1.7786,1.80601 6.13951,3.03998 8.51212,3.6523l0.17221,0.67571c0,0 0.94675,0.93963 2.14119,0.76341c0.82764,1.64209 1.30576,3.75494 0.49164,4.93525c-0.88259,1.27956 -5.20106,2.475 -6.57189,2.90216c-1.30491,0.40662 -2.52639,1.01422 -3.80367,1.49936c0.01698,-0.11001 0.03306,-0.21885 0.04968,-0.32889c-0.9289,0.66675 -1.97193,1.1683 -3.1008,1.48655c-0.49148,0.00235 -0.88494,0.09964 -1.20106,0.25762c-0.49483,0.07533 -1.0011,0.11271 -1.51698,0.11271c-1.65447,0 -3.3118,-0.42733 -4.68634,-1.13865c-1.04778,-0.54223 -1.98663,-1.26706 -2.77729,-2.12815c-3.07119,-4.73644 -0.8163,-9.71864 -0.78722,-15.4476c0,0 0.00083,-1.18021 -0.80921,-1.91887c0.02869,-0.73102 0.08229,-1.48452 0.16503,-2.28221c0.74031,-7.13686 1.94145,-14.13243 2.42032,-21.29714c0.20301,-3.03736 -0.00803,-5.8888 1.06447,-8.62954c1.3396,-0.90887 2.57037,-2.11109 3.14291,-2.99545c0.85288,-0.45002 1.73145,-0.82306 2.45871,-1.14729c1.54017,-0.68667 3.08102,-1.4085 4.69808,-1.88681l1.40082,-0.65867c0,0 1.00273,-0.50094 1.33007,-1.50252c3.77026,-0.24964 1.49457,3.65671 4.11857,6.11075c1.22906,1.14945 4.15246,1.8663 6.98216,2.11394c0.77067,0.03397 1.54395,0.0667 2.31597,0.09704c1.35911,-0.00904 2.56646,-0.1446 3.37454,-0.4124c1.88892,-0.62599 4.94952,-3.25792 5.66035,-5.13035c0.36164,-0.95262 -0.07073,-1.94143 -0.16243,-2.95625c-0.00172,-0.01901 0.017,-0.13614 0.01244,-0.15619c0.38338,0.21216 0.7066,0.28675 0.7066,0.28675c3.22048,0.7154 7.22646,1.96746 9.58979,4.43872c0.35018,1.56589 1.15005,3.25878 1.55627,4.98335c0.03776,7.34397 0.65988,14.67922 0.78569,22.03428l-0.0285,0.08129c0,0 -0.11458,0.57722 0.04629,1.22709c0.0031,0.35389 0.00555,0.70839 0.00599,1.06242c-0.42777,0.36749 -0.76551,0.9494 -0.76551,1.86914c0,2.5 2.50317,2.50314 2.50317,2.50314c0.32864,-0.00014 7.03741,-0.02051 7.52986,0.06245c0.95612,0.16108 0.17547,1.93639 0.34884,2.89036c0.61808,3.40103 1.95029,6.42452 1.34931,10.06141c-0.83545,5.05573 -7.08938,4.23576 -10.84019,4.04046c-0.90406,-0.04707 -3.44994,-0.20356 -4.37006,-0.88142c-0.84872,-0.62526 -2.79435,-3.95262 -3.13777,-4.4987c-1.12322,-1.13337 -2.69214,-1.96662 -3.3234,-3.43212c-0.85276,-1.97972 -0.12265,-5.65082 -0.49214,-7.77472c-1.22801,-7.05885 -0.40535,-14.35667 -1.30194,-21.52945l0.01957,-1.02317c0,0 0.00284,-2.49923 -2.49716,-2.49923c-2.5,0 -2.4982,2.5004 -2.4982,2.5004l0.03947,1.54548c0.90821,7.26563 0.08019,14.63846 1.36336,21.80197c0.50073,2.7954 -0.28859,6.24433 0.84316,8.89187c0.55779,1.30486 2.94866,3.51663 4.01404,4.57125c1.10427,1.77852 2.45231,4.28068 4.19758,5.50656c0.77974,0.54769 1.69505,0.88317 2.62237,1.14736c0.04176,0.42844 0.08958,0.86047 0.14157,1.29051c-0.09207,0.36933 -0.09184,0.64738 -0.09184,0.64738l0.26443,2.12258c1.32222,2.5603 2.96653,4.42743 4.93748,5.95956c0.29053,-0.10823 0.58679,-0.21841 0.88782,-0.32791c0.46142,0.669 1.17537,0.97636 1.17537,0.97636c3.5787,1.52042 5.50614,3.50507 8.21572,6.14227c0.72814,0.70868 2.18533,0.99583 1.94181,2.36782c-0.48903,2.7552 -3.5215,5.9064 -4.95935,8.20751c-4.14026,6.62597 -9.0185,12.99145 -12.50653,19.96815c-1.17177,2.74332 -2.77363,6.35771 -4.97349,8.44096c-0.95815,0.90736 -3.81788,0.45386 -4.43639,0.44874c-4.85516,-0.04021 -9.5471,-0.04276 -14.37031,-0.64566l-2.21837,-0.41774c0.99478,-2.41186 1.83574,-4.88002 2.62359,-7.43862c1.03445,-3.10526 2.02723,-6.22318 3.01966,-9.3426c0.34355,0.07981 0.59427,0.0799 0.59427,0.0799l0.39306,-0.07459c1.03508,0.24523 2.03754,0.7645 3.1009,0.73635c1.63439,-0.04326 3.5154,0.06019 4.80608,-0.9434c0.92525,-0.71944 1.81882,-6.05313 2.30466,-7.21044c0.83913,-1.99884 3.55963,-4.25029 3.52727,-6.49839c-0.01895,-1.31617 -1.43257,-2.2084 -2.14959,-3.31229c-1.5022,-2.31271 -3.19415,-4.50848 -5.01439,-6.58463z" data-paper-data="{&quot;noHover&quot;:false,&quot;origItem&quot;:[&quot;Path&quot;,{&quot;applyMatrix&quot;:true,&quot;segments&quot;:[[[646.69142,434.90829],[-3.0044,-4.62543],[1.43404,2.20777]],[[650.98842,441.53492],[-0.0379,-2.63235],[0.06473,4.49619]],[[643.91409,454.54583],[1.67825,-3.99767],[-0.97169,2.31462]],[[639.29029,468.97317],[1.85049,-1.43887],[-2.58138,2.00719]],[[629.66445,470.86373],[3.26877,-0.08653],[-2.12671,0.0563]],[[623.45399,469.39238],[2.07015,0.49045],[0,0]],[622.66667,469.54167],[[621.47638,469.38204],[0.68711,0.15962],[-1.98485,6.23883]],[[615.42814,488.06755],[2.06889,-6.21052],[-1.5757,5.11719]],[[610.17581,502.94461],[1.98956,-4.82371],[0,0]],[[614.62017,503.58028],[0,0],[9.64643,1.2058]],[[643.33333,504.875],[-9.71031,-0.08043],[1.23702,0.01025]],[[652.19824,503.97998],[-1.91631,1.81473],[4.39972,-4.16649]],[[662.13078,487.10459],[-2.34354,5.48665],[6.97605,-13.9534]],[[687.10684,447.20352],[-8.28051,13.25193],[2.87571,-4.60222]],[[697.01597,430.80898],[-0.97806,5.51041],[0.48704,-2.74399]],[[693.13113,426.0772],[1.45627,1.41736],[-5.41917,-5.2744]],[[676.69707,413.80406],[7.1574,3.04085],[0,0]],[[674.34593,411.85392],[0.92284,1.33801],[-0.60207,0.219]],[[672.57052,412.50819],[0.58107,-0.21645],[-3.9419,-3.06427]],[[662.69454,400.61108],[2.64444,5.12061],[0,0]],[662.16668,396.37502],[[662.35082,395.08288],[-0.18414,0.73866],[-0.10398,-0.86008]],[[662.06882,392.50722],[0.08352,0.85688],[-1.85464,-0.52836]],[[656.82628,390.22028],[1.55948,1.09538],[-3.49054,-2.45176]],[[648.44632,379.23616],[2.20854,3.55704],[-2.13076,-2.10924]],[[640.43938,370.11438],[1.11558,2.60972],[-2.2635,-5.29508]],[[638.7714,352.34116],[1.00146,5.5908],[-2.56634,-14.32702]],[[636.0645,308.74358],[1.81642,14.53126],[0,0]],[636.02588,305.45674],[[641.02588,300.45674],[-5,0],[5,0]],[646.02588,305.45674],[[645.98728,307.50324],[0,0],[1.79318,14.34556]],[[648.61372,350.57234],[-2.45602,-14.1177],[0.73898,4.2478]],[[649.6124,366.13246],[-1.70552,-3.95944],[1.26252,2.931]],[[656.27212,373.01066],[-2.24644,-2.26674],[0.68684,1.09216]],[[662.55882,382.02654],[-1.69744,-1.25052],[1.84024,1.3557]],[[671.30238,383.79774],[-1.80812,-0.09414],[7.50164,0.3906]],[[692.79466,375.78476],[-1.6709,10.11146],[1.20196,-7.27378]],[[690.10612,355.6822],[1.23616,6.80206],[-0.34674,-1.90794]],[[689.41172,349.90622],[1.91224,0.32216],[-0.9849,-0.16594]],[[674.35922,349.79008],[0.65728,-0.00028],[0,0]],[[669.35922,344.79008],[0,5],[0,-1.83948]],[[670.89148,341.05288],[-0.85554,0.73498],[-0.00088,-0.70806]],[[670.88074,338.92912],[0.0062,0.70778],[-0.32174,-1.29974]],[670.78964,336.47616],[[670.8467,336.31364],[0,0],[-0.25162,-14.71012]],[[669.29532,292.25772],[0.07552,14.68794],[-0.81244,-3.44914]],[[666.18772,282.29322],[0.70036,3.13178],[-4.72666,-4.94252]],[[647.0232,273.42064],[6.44096,1.4308],[0,0]],[[645.6111,272.84738],[0.76676,0.42432],[0.00912,0.0401]],[[645.63016,272.96466],[-0.00344,-0.03802],[0.1834,2.02964]],[[645.9098,279.07198],[0.72328,-1.90524],[-1.42166,3.74486]],[[634.59642,289.33414],[3.77784,-1.25198],[-1.61616,0.5356]],[[627.85302,290.15968],[2.71822,-0.01808],[-1.54404,-0.06068]],[[623.22514,289.96594],[1.54134,0.06794],[-5.6594,-0.49528]],[[609.27286,285.73808],[2.45812,2.2989],[-5.248,-4.90808]],[[601.04144,273.51608],[7.54052,-0.49928],[-0.65468,2.00316]],[598.3836,276.52082],[[595.58426,277.8378],[0,0],[-3.23412,0.95662]],[[586.1958,281.60986],[3.08034,-1.37334],[-1.4545,0.64846]],[[581.28252,283.90332],[1.70576,-0.90004],[-1.14508,1.76872]],[[575.00276,289.89224],[2.6792,-1.81774],[-2.145,5.48148]],[[572.88072,307.14854],[0.40602,-6.07472],[-0.95774,14.32942]],[[568.06574,349.72616],[1.48062,-14.27372],[-0.16548,1.59538]],[[567.73914,354.28734],[0.05738,-1.46204],[1.62008,1.47732]],[[569.35922,358.12342],[0,0],[-0.05818,11.45792]],[[570.95706,388.9797],[-6.14238,-9.47288],[1.58132,1.72218]],[[576.51324,393.23052],[-2.09556,-1.08446],[2.74908,1.42264]],[[585.69254,395.45674],[-3.30894,0],[1.03174,0]],[[588.72746,395.22796],[-0.98966,0.15066],[0.63224,-0.31596]],[[591.131,394.70844],[-0.98296,0.0047],[2.25774,-0.6365]],[[597.34226,391.71544],[-1.8578,1.3335],[-0.03324,0.22008]],[[597.24144,392.37558],[0.03396,-0.22002],[2.55458,-0.97028]],[[604.87264,389.34952],[-2.60982,0.81324],[2.74166,-0.85432]],[[618.08804,383.52396],[-1.76518,2.55912],[1.62824,-2.36062]],[[617.0923,373.85296],[1.65528,3.28418],[-2.38886,0.35244]],[612.82366,372.32562],[[612.47984,370.97412],[0,0],[-4.74522,-1.22464]],[[595.49032,363.65894],[3.5572,3.61202],[-1.624,-1.64902]],[[592.43012,357.42634],[1.02006,2.07754],[0,0]],[[592.06258,354.45822],[-0.228,1.57848],[-0.14982,-0.08654]],[[591.6091,354.20444],[0.15252,0.08262],[0.24118,-1.82898]],[[592.2114,348.67936],[-0.16154,1.8529],[-0.9029,-2.83788]],[[590.07418,340.15024],[0.4866,2.83052],[-1.25206,-7.28308]],[[590.02584,316.79006],[0,7.41902],[0,0]],[[592.76328,312.22632],[-2.73744,1.21754],[0.6398,-1.21894]],[[597.09166,309.81734],[-2.43932,0],[0,0]],[[597.09168,309.81742],[0,0],[5,0]],[602.09168,314.81742],[[602.07696,318.43394],[0,0],[0.72856,9.55634]],[[602.1892,347.09328],[0.6658,-9.52908],[0.90342,2.66302]],[[605.20354,354.93368],[-1.06378,-2.54098],[0.64314,0.27056]],[[607.0457,356.29282],[-0.52692,-0.66456],[6.4882,3.07202]],[[624.54372,366.71998],[-4.72992,-7.42546],[3.3868,5.31694]],[[626.63036,388.72286],[3.91844,-5.96368],[-4.85672,7.3917]],[[602.7606,400.14616],[7.44352,-2.7681],[-2.05166,0.76298]],[[596.8413,402.98964],[2.12846,-0.51098],[-0.1756,0.04216]],[[596.31502,403.11002],[0.17524,-0.0381],[0.64903,6.33363]],[[600.24689,422.01894],[-0.76306,-6.4418],[-0.16843,0.01065]],[[599.74162,422.05119],[0.16842,-0.01085],[-0.14754,1.72117]],[[598.50777,425.07592],[0,0],[-4.08383,4.89939]],[[585.03271,440.31174],[3.13329,-5.45821],[-2.2307,3.8859]],[[580.05621,452.79855],[2.57382,-3.66765],[-4.59763,6.55155]],[[565.58659,471.83699],[4.36067,-6.94777],[-3.36272,5.35775]],[[557.8203,488.74782],[2.70542,-5.70114],[-4.61873,9.73308]],[[541.85931,517.33332],[5.37859,-9.34235],[-1.50091,4.00243]],[[537.19264,527.33332],[2.54411,-3.47636],[-0.46412,0.63418]],[[535.35929,528.81561],[-0.38343,-0.68599],[0.46233,0.82715]],[[538.18662,529.11162],[-0.94317,-0.09145],[1.73391,0.16812]],[[543.39039,529.59432],[-1.7239,-0.25074],[10.82678,1.57477]],[[575.95351,532.24694],[-10.90623,-1.36316],[1.77778,0.2222]],[[581.28684,532.91361],[-1.72956,-0.46745],[0.8103,0.219]],[[583.41289,534.26301],[-0.69183,0.47531],[0.74902,-0.5146]],[[583.28666,531.53967],[-0.20253,0.8859],[0.51822,-2.26675]],[[585.54443,524.93945],[-1.04349,2.07794],[2.63635,-5.24986]],[[595.63902,510.09588],[-2.89967,5.16422],[4.53711,-8.08045]],[[605.90519,485.01578],[-2.71358,8.8259],[4.80956,-14.41955]],[[619.92831,441.6121],[-4.79808,14.41418],[2.09818,-6.30326]],[[625.62311,423.08678],[-2.45363,6.03145],[-0.19317,-1.19487]],[[627.08054,419.0545],[-1.40744,1.40232],[0,0]],[627.14929,418.66232],[[633.21268,415.02429],[-4.85071,-1.21268],[4.85071,1.21268]],[636.85071,421.08768],[[636.66772,421.73369],[0,0],[3.64048,4.1523]]],&quot;closed&quot;:true}]}" fill="#7b8a52" stroke="none" stroke-width="0.5" stroke-linecap="butt"/><path d="" data-paper-data="{&quot;noHover&quot;:false,&quot;origItem&quot;:[&quot;Path&quot;,{&quot;applyMatrix&quot;:true,&quot;segments&quot;:[[[687.48273,479.95977],[0,0],[1.03841,12.48111]],[[690.157,517.39765],[-0.77544,-12.49018],[0.22673,3.65209]],[[690.16667,528.375],[0.61364,-3.6073],[-0.13304,0.7821]],[[688.91506,530.39932],[-0.42663,-0.66885],[0.38542,0.60424]],[[690.81069,529.38466],[-0.70845,0.10844],[1.56383,-0.23938]],[[695.55683,529.38265],[-1.57916,0.09563],[5.80984,-0.35183]],[[713.01345,526.26776],[-5.56047,1.74053],[3.49597,-1.0943]],[[723.22535,522.20687],[-3.56204,0.85511],[2.25383,-0.54106]],[[729.81057,519.9736],[-1.48215,1.78207],[-0.13823,-2.23686]],[[727.2688,513.74918],[0.89176,2.05607],[-2.291,-5.28218]],[[724.17432,499.98484],[0.35619,5.64294],[-0.9737,-15.42604]],[[718.42831,453.97124],[4.90938,14.75851],[-0.05159,-0.15508]],[[715.58501,442.62643],[0.0344,0.22338],[-0.18628,-1.20955]],[[715.55049,438.95516],[0.75033,0.9668],[-2.74537,-3.5374]],[[701.49871,430.79648],[3.84368,2.13813],[-6.03841,-3.35899]],[[683.92097,419.32519],[5.61886,4.03349],[-9.29432,-4.62781]],[[662.69453,400.61107],[4.87137,9.43275],[0,0]],[662.16667,396.375],[[662.35081,395.08286],[-0.18415,0.73866],[-0.10399,-0.86008]],[[662.06882,392.5072],[0.08352,0.85687],[-1.85464,-0.52836]],[[656.82628,390.22026],[1.55948,1.09538],[-3.49054,-2.45176]],[[648.44632,379.23614],[2.20854,3.55704],[-2.13076,-2.10924]],[[640.43938,370.11436],[1.11558,2.60972],[-2.2635,-5.29508]],[[638.7714,352.34114],[1.00146,5.5908],[-2.56634,-14.32702]],[[636.0645,308.74356],[1.81642,14.53126],[0,0]],[636.02588,305.45672],[[641.02588,300.45672],[-5,0],[5,0]],[646.02588,305.45672],[[645.98728,307.50322],[0,0],[1.79318,14.34556]],[[648.61372,350.57232],[-2.45602,-14.1177],[0.73898,4.2478]],[[649.6124,366.13244],[-1.70552,-3.95944],[1.26252,2.931]],[[656.27212,373.01064],[-2.24644,-2.26674],[0.68684,1.09216]],[[662.55882,382.02652],[-1.69744,-1.25052],[1.84024,1.3557]],[[671.30238,383.79772],[-1.80812,-0.09414],[7.50164,0.3906]],[[692.79466,375.78474],[-1.6709,10.11146],[1.20196,-7.27378]],[[690.10612,355.68218],[1.23616,6.80206],[-0.34674,-1.90794]],[[689.41172,349.9062],[1.91224,0.32216],[-0.9849,-0.16594]],[[674.35922,349.79006],[0.65728,-0.00028],[0,0]],[[669.35922,344.79006],[0,5],[0,-1.83948]],[[670.89148,341.05286],[-0.85554,0.73498],[-0.00088,-0.70806]],[[670.88074,338.9291],[0.0062,0.70778],[-0.32174,-1.29974]],[670.78964,336.47614],[[670.8467,336.31362],[0,0],[-0.25162,-14.71012]],[[669.29532,292.2577],[0.07552,14.68794],[-0.81244,-3.44914]],[[666.18772,282.2932],[0.70036,3.13178],[-4.72666,-4.94252]],[[647.0232,273.42062],[6.44096,1.4308],[0,0]],[[645.6111,272.84736],[0.76676,0.42432],[0.00912,0.0401]],[[645.63016,272.96464],[-0.00344,-0.03802],[0.1834,2.02964]],[[645.9098,279.07196],[0.72328,-1.90524],[-1.42166,3.74486]],[[634.59642,289.33412],[3.77784,-1.25198],[-1.61616,0.5356]],[[627.85302,290.15966],[2.71822,-0.01808],[-1.54404,-0.06068]],[[623.22514,289.96592],[1.54134,0.06794],[-5.6594,-0.49528]],[[609.27286,285.73806],[2.45812,2.2989],[-5.248,-4.90808]],[[601.04144,273.51606],[7.54052,-0.49928],[-0.65468,2.00316]],[598.3836,276.5208],[[595.58426,277.83778],[0,0],[-3.23412,0.95662]],[[586.1958,281.60984],[3.08034,-1.37334],[-1.4545,0.64846]],[[581.28252,283.9033],[1.70576,-0.90004],[-1.14508,1.76872]],[[575.00276,289.89222],[2.6792,-1.81774],[-2.145,5.48148]],[[572.88072,307.14852],[0.40602,-6.07472],[-0.95774,14.32942]],[[568.06574,349.72614],[1.48062,-14.27372],[-0.16548,1.59538]],[[567.73914,354.28732],[0.05738,-1.46204],[1.62008,1.47732]],[[569.35922,358.1234],[0,0],[-0.05818,11.45792]],[[570.95706,388.97968],[-6.14238,-9.47288],[1.58132,1.72218]],[[576.51324,393.2305],[-2.09556,-1.08446],[2.74908,1.42264]],[[585.69254,395.45672],[-3.30894,0],[1.03175,0]],[[588.72746,395.22794],[-0.98966,0.15066],[0.63224,-0.31596]],[[591.13101,394.70842],[-0.98297,0.0047],[2.25773,-0.63651]],[[597.34226,391.71542],[-1.85779,1.33351],[-0.03324,0.22008]],[[597.24144,392.37556],[0.03396,-0.22002],[2.55458,-0.97028]],[[604.87264,389.3495],[-2.60982,0.81324],[2.74166,-0.85432]],[[618.08804,383.52394],[-1.76518,2.55912],[1.62824,-2.36062]],[[617.0923,373.85294],[1.65528,3.28418],[-2.38886,0.35244]],[612.82366,372.3256],[[612.47984,370.9741],[0,0],[-4.74522,-1.22464]],[[595.49032,363.65892],[3.5572,3.61202],[-1.624,-1.64902]],[[592.43012,357.42632],[1.02006,2.07754],[0,0]],[[592.06258,354.4582],[-0.228,1.57848],[-0.14982,-0.08654]],[[591.6091,354.20442],[0.15252,0.08262],[0.24118,-1.82898]],[[592.2114,348.67934],[-0.16154,1.8529],[-0.9029,-2.83788]],[[590.07418,340.15022],[0.4866,2.83052],[-1.25206,-7.28308]],[[590.02584,316.79004],[0,7.41902],[0,0]],[[592.76328,312.2263],[-2.73744,1.21754],[0.6398,-1.21894]],[[597.09166,309.81732],[-2.43932,0],[0,0]],[[597.09168,309.8174],[0,0],[5,0]],[602.09168,314.8174],[[602.07696,318.43392],[0,0],[0.72856,9.55634]],[[602.1892,347.09326],[0.6658,-9.52908],[0.90342,2.66302]],[[605.20354,354.93366],[-1.06378,-2.54098],[0.64314,0.27056]],[[607.0457,356.2928],[-0.52692,-0.66456],[6.4882,3.07202]],[[624.54372,366.71996],[-4.72992,-7.42546],[3.3868,5.31694]],[[626.63036,388.72284],[3.91844,-5.96368],[-4.85672,7.3917]],[[602.7606,400.14614],[7.44352,-2.7681],[-2.05166,0.76298]],[[596.8413,402.98962],[2.12846,-0.51098],[-0.1756,0.04216]],[[596.31502,403.11001],[0.17525,-0.03811],[0.90878,8.86839]],[[600.08643,429.93379],[1.71389,-9.47941],[-1.76505,9.76233]],[[582.93481,450.29684],[7.13398,-5.60527],[-9.67087,7.59854]],[[551.47988,469.76278],[11.8025,-3.99114],[-3.81766,1.29098]],[[535.6459,473.26348],[4.10666,1.03715],[3.02672,2.52771]],[[542.12477,483.14249],[-2.00141,-3.33634],[4.37341,7.29044]],[[554.82455,505.1987],[-4.30447,-7.31782],[1.87273,3.18373]],[[562.3636,518.06249],[-3.12245,-2.23365],[3.22083,2.30403]],[[574.32645,512.92667],[-2.15729,1.48815],[13.66573,-9.42699]],[[611.49806,480.97775],[-10.90686,12.75369],[3.63407,-3.63865]],[[622.39302,469.52321],[-2.92999,4.27353],[3.49749,-5.10126]],[[632.79925,455.24977],[-4.01006,4.25338],[-0.1157,-0.77542]],[[633.19095,452.51805],[-0.41972,1.0493],[1.85695,-4.64238]],[[639.69029,449.73262],[0,0],[0.35074,0.1403]],[[640.74653,450.15118],[-0.35335,-0.13882],[0,0]],[641.16667,450.04167],[[645.166,451.8521],[-1.45927,-1.81044],[6.54144,2.49667]],[[664.04691,460.95459],[-5.6614,-4.01467],[6.0751,4.30803]],[[682.4696,472.44594],[-6.9706,-2.96149],[0,0]],[684.08114,472.96492],[[687.3108,479.07661],[1.37149,-4.57797],[0.14175,0.52096]]],&quot;closed&quot;:true}]}" fill="#7b8a52" stroke="none" stroke-width="0.5" stroke-linecap="butt"/><path d="M347.77417,226.35149c-3.72215,5.16836 -8.5367,10.22377 -11.26031,15.92389c-1.31673,2.75469 -4.45321,7.65389 -8.26615,5.64639c-1.86665,-0.9828 -1.67969,-4.6619 -3.23372,-6.26902c-1.66758,-1.68967 -5.22174,-3.42261 -6.1658,-5.67927c-0.43017,-1.02828 0.90164,-2.01211 1.19396,-2.86967c0.54668,-1.60379 0.60701,-2.67309 0.64974,-4.34805c0.08427,-3.30242 2.27932,-3.1759 4.57463,-4.81597c2.40032,-1.71512 4.48467,-3.69306 7.05257,-5.26169c4.56937,-1.78155 3.09743,-6.06109 5.52168,-9.17356c1.46413,-1.87978 4.60658,-2.04892 6.75162,-2.30494c3.58682,-0.1209 7.25176,13.84507 3.18176,19.1519z" data-paper-data="{&quot;index&quot;:null}" fill="#363c1a" stroke="none" stroke-width="0.5" stroke-linecap="butt"/><path d="" data-paper-data="{&quot;index&quot;:null}" fill="#363c1a" stroke="none" stroke-width="0.5" stroke-linecap="butt"/><path d="M305.37961,195.80047c0.00111,3.00894 1.28158,6.53184 0.58523,9.4845c-0.21231,0.90023 -0.57186,1.57185 -1.03284,2.05393c-1.63723,0.2629 -3.30006,0.46034 -5.00192,0.54737c-1.26679,-0.47311 -2.45949,-1.24467 -3.27667,-2.05752c-0.78929,-2.30157 -0.34969,-4.53378 -0.13167,-6.8944c0.41719,-4.51717 9.30164,-5.36327 8.85787,-3.13388z" data-paper-data="{&quot;index&quot;:null}" fill="#3b4208" stroke="none" stroke-width="0.5" stroke-linecap="butt"/><path d="M333.71511,194.26653l0.32079,0.39544c0.23592,0.77384 0.73323,1.39928 1.0058,2.21859c0.09826,0.39444 0.19515,0.79021 0.2907,1.18719c-1.60305,-0.34794 -3.95456,-0.6514 -5.86934,-0.80847c1.01646,-0.78643 2.87612,-1.98399 2.79852,-3.23918c0,0 0,-0.5 0.5,-0.5c0.5,0 0.5,0.5 0.5,0.5c-0.00118,0.03347 -0.00293,0.0667 -0.00522,0.09971c0.25384,-0.0582 0.45876,0.14673 0.45876,0.14673z" data-paper-data="{&quot;index&quot;:null}" fill="#363c1a" stroke="none" stroke-width="0.5" stroke-linecap="butt"/><path d="M319.13396,158.45486c0.01744,-0.00145 0.02761,-0.00145 0.02761,-0.00145l0.00892,0.00157c0.04549,0.00148 0.11026,0.00839 0.17796,0.03131l0.29047,0.0511c2.58679,1.73636 1.4292,7.85769 1.72066,10.77124c0.40729,4.08666 3.32581,14.34479 -3.59801,14.34479c-0.95947,-0.04615 -1.12354,-0.37491 -1.87689,-0.9119c-1.35014,-0.96239 -2.54152,-1.77798 -3.00166,-3.44321c-0.92653,-3.35307 1.47126,-6.24471 -1.30813,-9.0279c-3.57359,-5.32389 2.30021,-11.23269 7.53146,-11.81394c0,0 0.01011,-0.00113 0.0276,-0.00161z" data-paper-data="{&quot;index&quot;:null}" fill="#40770e" stroke="none" stroke-width="0.5" stroke-linecap="butt"/><path d="M302.88874,148.42618c5.23061,0.03127 7.16633,4.96235 7.16667,9.5c0.00012,1.73221 0.44218,3.67848 -0.78,4.98366c-1.9994,3.00729 -7.62085,7.13103 -11.6226,4.79051c-1.85804,-1.08672 -2.60447,-3.40809 -3.03627,-5.35526c-0.72032,-3.30387 -0.91488,-9.61746 1.91518,-12.10229c1.46305,-1.28459 3.96753,-1.46112 5.87832,-1.48102c0.0954,-0.3356 0.4787,-0.3356 0.4787,-0.3356z" data-paper-data="{&quot;index&quot;:null}" fill="#629200" stroke="none" stroke-width="0.5" stroke-linecap="butt"/><path d="M312.93967,229.84548c0.7427,0.19922 1.48328,0.40655 2.22811,0.59766c0.39369,0.10101 0.90724,0.57338 1.18708,0.27861c0.32598,-0.34337 -0.19413,-0.95098 -0.10696,-1.41635c0.25723,-1.37324 0.58513,-2.74946 1.12839,-4.03665c0.4548,-1.07759 1.13404,-2.0548 1.83705,-2.98958c0.34951,-0.46473 1.25883,-0.59112 1.29245,-1.17163c0.02639,-0.45571 -0.89812,-0.33148 -1.18483,-0.68669c-1.03355,-1.28044 -1.9888,-2.62645 -2.97168,-3.94861c-0.56381,1.95737 -0.99288,3.97097 -1.64677,5.93005c-0.82251,2.46424 -1.6212,4.93715 -2.41231,7.41301zM323.34571,217.45415c0.71702,1.10388 2.12955,1.99714 2.1485,3.31331c0.03237,2.2481 -2.69804,4.50662 -3.53717,6.50546c-0.48584,1.15731 -1.38665,6.49423 -2.3119,7.21367c-1.29069,1.00359 -3.17854,0.90202 -4.81292,0.94528c-1.06336,0.02815 -2.07015,-0.49045 -3.10523,-0.73567l-0.39366,0.07465c0,0 -0.25159,0 -0.59515,-0.07981c-0.99243,3.11942 -1.98967,6.23749 -3.02412,9.34275c-0.78785,2.55859 -1.63139,5.02668 -2.62617,7.43853l2.22218,0.31784c4.82322,0.6029 9.50142,0.60715 14.35658,0.64736c0.61851,0.00512 3.4743,0.45986 4.43246,-0.44751c2.19986,-2.08325 3.7945,-5.69437 4.96627,-8.4377c3.48802,-6.9767 8.34778,-13.32457 12.48803,-19.95053c1.43786,-2.30111 4.46553,-5.44207 4.95457,-8.19727c0.24352,-1.37199 -1.21429,-1.65721 -1.94242,-2.36589c-2.70959,-2.6372 -4.63833,-4.61615 -8.21703,-6.13657c0,0 -0.71415,-0.30606 -1.17557,-0.97507c-0.30104,0.1095 -0.59717,0.21891 -0.8877,0.32713c-1.97095,-1.53214 -3.61577,-3.38825 -4.93799,-5.94855l-0.26393,-2.11803c0,0 0,-0.27674 0.09207,-0.64607c-0.05199,-0.43004 -0.09924,-0.85939 -0.141,-1.28783c-0.92732,-0.26418 -1.84153,-0.59578 -2.62127,-1.14347c-1.74527,-1.22588 -3.08571,-3.71354 -4.18998,-5.49206c-1.06538,-1.05462 -3.44568,-3.25603 -4.00347,-4.56089c-1.13175,-2.64754 -0.33326,-6.09121 -0.83399,-8.88661c-1.28317,-7.16351 -0.44524,-14.53316 -1.35345,-21.79879l-0.01931,-1.64342c0,0 0,-2.5 2.5,-2.5c2.5,0 2.5,2.5 2.5,2.5l-0.0193,1.02325c0.89659,7.17278 0.08521,14.4757 1.31322,21.53455c0.36949,2.1239 -0.35342,5.80034 0.49934,7.78006c0.63126,1.4655 2.20664,2.30573 3.32986,3.4391c0.34342,0.54608 2.29463,3.88268 3.14335,4.50794c0.92012,0.67785 3.46772,0.83853 4.37178,0.8856c3.75082,0.1953 9.91069,1.04924 10.74614,-4.00649c0.60098,-3.63689 -0.72619,-6.65025 -1.34427,-10.05128c-0.17337,-0.95397 0.60892,-2.72691 -0.3472,-2.88799c-0.49245,-0.08297 -7.19761,-0.05821 -7.52625,-0.05807c0,0 -2.5,0 -2.5,-2.5c0,-0.91974 0.33836,-1.50111 0.76613,-1.8686c-0.00044,-0.35403 -0.00227,-0.70799 -0.00537,-1.06188c-0.16087,-0.64987 -0.04555,-1.22648 -0.04555,-1.22648l0.02853,-0.08126c-0.12581,-7.35506 -0.73793,-14.68399 -0.77569,-22.02796c-0.40622,-1.72457 -1.20362,-3.41636 -1.5538,-4.98225c-2.36333,-2.47126 -6.36178,-3.72089 -9.58226,-4.43629c0,0 -0.32267,-0.07447 -0.70605,-0.28663c0.00456,0.02005 0.00781,0.03963 0.00953,0.05864c0.0917,1.01482 0.50146,2.10104 0.13982,3.05366c-0.71083,1.87243 -3.76777,4.50509 -5.65669,5.13108c-0.80808,0.2678 -2.01259,0.40373 -3.3717,0.41277c-0.77202,-0.03034 -1.54327,-0.0629 -2.31394,-0.09687c-2.8297,-0.24764 -5.74708,-0.96448 -6.97614,-2.11393c-2.624,-2.45404 -0.34545,-6.36064 -4.11571,-6.111c-0.32734,1.00158 -1.32892,1.50237 -1.32892,1.50237l-1.39967,0.65849c-1.61706,0.47831 -3.15406,1.19936 -4.69423,1.88603c-0.72725,0.32423 -1.60376,0.69671 -2.45664,1.14673c-0.57254,0.88436 -1.80028,2.08559 -3.13988,2.99446c-1.0725,2.74074 -0.85801,5.59079 -1.06102,8.62815c-0.47887,7.16471 -1.66718,14.15195 -2.40749,21.28881c-0.08274,0.79769 -0.13461,1.54957 -0.1633,2.28059c0.81004,0.73866 0.81004,1.91804 0.81004,1.91804c-0.02909,5.72896 -2.27227,10.6917 0.79892,15.42814c0.79066,0.86109 1.73031,1.58318 2.77809,2.12541c1.37454,0.71132 2.93518,1.11311 4.58965,1.11311c0.51587,0 1.02263,-0.03906 1.51746,-0.11439c0.31612,-0.15798 0.71029,-0.25741 1.20177,-0.25976c1.12887,-0.31825 2.17673,-0.82975 3.10563,-1.4965c-0.01662,0.11004 -0.03343,0.22006 -0.05041,0.33007c1.27729,-0.48514 2.51069,-1.10641 3.8156,-1.51303c1.37083,-0.42716 5.72511,-1.63322 6.6077,-2.91278c0.81412,-1.18031 0.32977,-3.19341 -0.49787,-4.8355c-1.19443,0.17622 -2.13432,-0.76367 -2.13432,-0.76367l-0.17191,-0.67575c-2.37261,-0.61232 -6.71616,-1.85158 -8.49476,-3.65759c-0.812,-0.82451 -1.02007,-2.07753 -1.5301,-3.1163c0,0 -0.29777,-0.69482 -0.18377,-1.48406c-0.07491,-0.04327 -0.15048,-0.08558 -0.22674,-0.12689c0.12059,-0.91449 0.22038,-1.83609 0.30115,-2.76254c-0.45145,-1.41894 -0.82531,-2.8493 -1.06861,-4.26456c-0.62603,-3.64154 -0.02417,-7.97058 -0.02417,-11.68009c0,0 0,-1.6731 1.36872,-2.28187c0.3199,-0.60947 0.94453,-1.20449 2.16419,-1.20449l0.00001,0.00004c2.5,0 2.5,2.5 2.5,2.5l-0.00736,1.80826c0.36428,4.77817 0.38902,9.56513 0.05612,14.32967c0.45171,1.33151 0.97528,2.64971 1.50717,3.9202c0.32157,0.13528 0.65762,0.34729 0.92108,0.67957c3.2441,1.53601 6.38405,1.50085 8.74901,5.21358c1.6934,2.65847 3.00254,8.0196 1.04332,11.00144c-2.42836,3.69585 -8.21312,4.3276 -11.93488,5.71165c-1.02583,0.38149 -1.89542,1.16625 -2.95965,1.42174c-0.0878,0.02108 -0.17552,0.04114 -0.26314,0.06019c0.32452,3.16682 1.58441,6.23356 1.96594,9.45446c-0.08421,0.00532 -0.16843,0.0107 -0.25263,0.01613c-0.07377,0.86058 -0.61692,1.51236 -0.61692,1.51236c-2.04192,2.44969 -5.17089,4.8888 -6.73753,7.61791c-1.11535,1.94295 -1.20134,4.40958 -2.48825,6.2434c-2.29881,3.27578 -5.05447,6.04534 -7.23481,9.51922c-1.68136,2.67888 -2.53044,5.60484 -3.88315,8.45541c-2.30937,4.86654 -5.2912,9.62157 -7.98049,14.29275c-0.75045,2.00122 -1.06128,3.26182 -2.33334,5c-0.23206,0.31709 -1.10839,0.39815 -0.91667,0.74115c0.23116,0.41357 0.94208,0.10228 1.41366,0.14801c0.86696,0.08406 1.73994,0.11598 2.60189,0.24135c5.41339,0.78738 10.82844,0.64473 16.28156,1.32631c0.88889,0.1111 1.80188,0.09961 2.66666,0.33333c0.40515,0.1095 0.71711,0.91236 1.06302,0.6747c0.37451,-0.2573 -0.16438,-0.91872 -0.06311,-1.36167c0.25911,-1.13338 0.60714,-2.26114 1.12889,-3.30011c1.31817,-2.62493 3.59746,-4.83967 5.04729,-7.42178c2.26855,-4.04022 3.7763,-8.1271 5.13308,-12.54005c2.40478,-7.20978 4.61252,-14.49475 7.01156,-21.70184c1.04909,-3.15163 1.62059,-6.24694 2.8474,-9.26266c-0.09659,-0.59743 0.025,-1.31498 0.72872,-2.01614l0.03437,-0.19609c0,0 0.60634,-2.42535 3.0317,-1.81902c2.42536,0.60634 1.81902,3.03169 1.81902,3.03169l-0.0915,0.32301c1.82024,2.07615 3.50965,4.27459 5.01185,6.5873zM263.67451,248.52183c-0.27976,-0.68843 0.36081,-5.43187 0.51146,-6.56108c0.6941,-5.20252 4.36764,-13.38685 9.36266,-15.92598c2.74543,-1.39559 6.5378,-1.10435 9.5117,-1.85595c0,0 1.19213,-0.29803 2.11375,0.35959c0.26887,-0.34998 0.53516,-0.70372 0.79781,-1.06267c1.21154,-1.65575 1.14532,-3.98401 2.17842,-5.7566c1.64855,-2.82856 4.64591,-5.37649 6.86564,-7.91739c-0.29172,-1.79081 -0.81315,-3.55498 -1.24114,-5.32634c-0.15818,0.20596 -0.30483,0.42577 -0.43894,0.66011c-0.12507,-0.68603 -0.22144,-1.37568 -0.27866,-2.07035l-0.31375,-0.0112c0.01281,-0.37153 0.0185,-0.74084 0.01652,-1.10682c0,0 0,-0.15615 0.03903,-0.3904c-0.25006,-0.05127 -0.49887,-0.10907 -0.74636,-0.17302h-0.3878c-0.0734,0.78035 -0.41325,1.28111 -0.81919,1.60246l-2.06004,-0.07358l-1.26581,0.26884c-4.35256,-2.58481 -7.73156,-6.41504 -8.67038,-11.48196c-0.09376,-0.16246 -0.18113,-0.30236 -0.26021,-0.40883c0.04735,-0.10686 0.09517,-0.21351 0.14333,-0.3199c-0.01219,-0.08972 -0.02362,-0.17981 -0.0343,-0.27027c-0.07732,-0.6551 -0.10223,-1.30249 -0.08994,-1.94443c-0.1606,-0.89126 -0.24526,-1.87081 -0.26213,-3.02769v-2c0,0 0,-0.69514 0.36656,-1.35231c-0.19214,-1.86703 -0.13653,-3.74634 -0.0615,-4.9329c0.22387,-3.54045 0.91075,-6.99482 1.51033,-10.4638c-0.26731,-0.17368 -0.42437,-0.33074 -0.42437,-0.33074l-1.6638,-2.40855c-1.13017,-9.06133 -0.79818,-17.77408 0.4668,-26.65267c-0.09804,-2.08974 -0.36565,-4.09185 0.18527,-5.78475c0.03023,-0.0929 0.06293,-0.18486 0.09825,-0.27586c-0.00001,-0.00081 -0.00003,-0.00163 -0.00004,-0.00245l-0.00001,0.00002c-0.10588,-6.31595 4.39974,-8.60447 9.71697,-9.12768c-0.91044,-1.99366 -1.71839,-4.03535 -2.36154,-6.15395c0,0 -0.05388,-0.17959 -0.08294,-0.45517c-2.19501,0.0049 -5.46835,-0.07213 -6.04026,-0.74544c-3.52594,-4.15104 1.34503,-7.03226 3.22692,-9.71169c1.57868,-2.24772 3.20638,-4.56132 4.67127,-6.88173c1.05734,-1.67485 1.96149,-4.17176 3.73871,-5.25838c4.69246,-2.86906 12.42849,-2.41597 17.63087,-2.41597c6.38507,0 12.47016,-0.20547 18.74029,1.04855l1.00971,-0.04855c0,0 2.5,0 2.5,2.5c0,0.74923 -0.22454,1.27392 -0.53904,1.64137c2.98154,3.86372 6.57761,8.16349 7.86296,12.43701c0.42277,1.4056 1.40748,3.02557 0.75177,4.33877c-1.16038,2.32394 -3.34637,3.0433 -5.56626,3.40022c-0.01453,0.03298 -0.02337,0.05066 -0.02337,0.05066c-1.22321,2.44641 -2.27654,4.88349 -3.25521,7.34584c2.61334,-0.57773 6.22157,-1.2331 8.33048,-0.32856c3.29398,1.41283 4.802,4.87335 4.86121,8.3389c0.39452,1.02122 0.36054,3.6206 0.35884,4.54174c-0.00334,1.80314 -0.01435,3.60634 -0.01404,5.40948c0.05987,1.51579 0.14495,3.02771 0.25915,4.54152c0.03807,0.15086 0.07833,0.30231 0.11906,0.45418c0.01551,-0.02458 0.0312,-0.04909 0.04708,-0.07351c0.07125,0.50647 0.16019,1.00918 0.26641,1.50251c-0.50489,1.81392 -0.48134,4.04379 -1.07541,5.40945c-0.94074,2.16261 -2.54075,3.12513 -3.61912,5.2974c0.00802,0.09268 0.00802,0.14705 0.00802,0.14705c0,1.7425 -0.01205,3.42753 0.0687,5.12276c0.4045,0.52012 0.89422,1.02683 1.37983,1.54001c-0.29716,0.28728 -0.69943,0.54586 -1.21964,0.62141c0.02547,0.2455 0.05375,0.49179 0.08514,0.73907l-0.23407,1.59266c0.0083,0.51433 0.01416,1.02878 0.0172,1.54335c2.51831,0.01691 5.48455,0.12568 6.54325,0.61601c4.14242,1.91854 2.408,3.44584 2.98613,6.44534c0.95252,4.94187 2.87151,10.14914 0.05217,15.00544c-0.63773,1.09849 -1.29397,2.25145 -2.27784,3.0548c-2.49029,2.03338 -7.46456,2.45394 -11.59089,2.13611c0.03302,0.27145 0.06818,0.54316 0.10525,0.81509c0.30195,0.72571 0.62424,1.43199 0.96134,2.12495c-0.06167,-0.00151 -0.12336,-0.00303 -0.18506,-0.00455c0.58589,0.77383 1.24565,1.43457 1.96703,2.02308c0.71607,-0.05359 1.31338,0.2024 1.31338,0.2024c4.10361,1.77183 6.71333,4.05893 9.78297,7.19676c2.38702,2.44004 3.51554,1.9436 3.39092,6.30078c-0.09978,3.4886 -3.95853,7.66436 -5.71211,10.46939c-4.02251,6.43447 -8.79316,12.61254 -12.17863,19.3828c-1.39263,3.23916 -3.52108,8.00166 -6.36706,10.22897c-2.58569,2.02361 -4.49872,1.53063 -7.56754,1.55249c-5.05639,0.03601 -9.9578,-0.0586 -14.97675,-0.68597l-2.3768,-0.33916c0,0 -0.66812,-0.09544 -1.26048,-0.53429c-0.27927,0.54026 -0.5696,1.07866 -0.87214,1.61564c-1.41058,2.50365 -3.68789,4.70126 -4.95271,7.24489c-0.47505,0.95536 -0.76448,2.46877 -1.20588,3.84474c3.43482,1.39767 8.44713,3.98039 9.66211,7.50308c1.00376,2.91028 -0.07524,4.44389 -1.08274,6.90294c-0.62874,1.14457 -0.94716,2.52621 -1.88619,3.43372c-3.60773,3.48663 -10.87556,2.34864 -15.38215,2.34774c-8.77479,-0.00175 -16.67349,-0.57698 -24.90279,-3.83552c-2.5317,-1.00248 -5.13351,-1.47727 -6.17275,-4.66381c-0.75298,-2.30881 1.57771,-7.04272 2.40581,-9.22245c0.7684,-2.02258 1.72143,-4.03046 3.08292,-5.71201c0,0 0.45623,-0.54748 1.17382,-0.81423c0.47832,-2.52015 2.87113,-6.34746 3.48375,-7.98113c0.75142,-1.32352 1.52976,-2.64954 2.31191,-3.98063c-1.68313,-0.94201 -4.35005,-2.33874 -5.04109,-4.03922zM275.7847,230.5069c-3.41715,1.65888 -6.24546,8.66397 -6.63734,12.07402c-0.15934,1.38655 -1.23589,2.77273 -0.82187,4.10559c0.3264,1.05076 1.81341,1.13484 2.88905,1.57518c1.14204,-2.01088 2.23731,-4.0393 3.20864,-6.09392c1.42316,-3.01037 2.34923,-6.03878 4.11686,-8.87792c0.84447,-1.35638 1.76284,-2.61212 2.71032,-3.82945c-1.9324,0.17453 -3.95089,0.31116 -5.46566,1.04651zM261.75869,277.54384c-0.16397,0.49041 -0.75116,0.88044 -0.68273,1.39299c0.15136,1.13375 2.09306,0.92545 3.16057,1.33619c1.48261,0.57045 2.89237,1.34601 4.41978,1.78253c6.13835,1.75428 12.3685,1.71404 18.67742,1.71529c4.01248,0.00079 10.93286,1.49295 12.73165,-2.8852c0.26277,-0.57243 1.266,-2.21173 0.91727,-3.09706c-0.86908,-2.20632 -5.53447,-4.1155 -7.52713,-4.84357l-1.71734,-0.6863c0,0 -0.59397,-0.23759 -1.0608,-0.77286c-1.34548,-0.12986 -2.68614,-0.32163 -3.32081,-0.40097c-5.48814,-0.68608 -10.93338,-0.50149 -16.38511,-1.34035c-1.75998,-0.27082 -3.8274,-0.25702 -5.51245,-1.05593c-2.13067,2.55316 -2.65825,5.73853 -3.70033,8.85527zM325.15103,96.38666c-5.26188,-0.79932 -10.4335,-0.61234 -15.82725,-0.61234c-4.2554,0 -10.94009,-0.59344 -14.86913,1.58403c-0.40033,0.22186 -2.2444,3.71489 -2.26129,3.74162c-1.63404,2.58612 -3.87358,7.14553 -6.53201,9.54307c1.58062,-0.11593 3.18904,0.05912 4.77571,0.13384c4.81126,0.22657 9.59221,1.01408 14.38671,0.99743c7.34688,0 15.0018,0.9002 22.30937,0.25728c2.1381,-0.18811 4.25558,-0.56435 6.37977,-0.87213c0.49998,-0.07244 1.17824,0.09899 1.48516,-0.3023c0.20221,-0.26439 -0.56706,-0.38201 -0.74823,-0.66123c-0.44474,-0.68547 -0.69438,-1.48145 -1.10158,-2.18987c-2.31081,-4.02026 -5.32247,-7.81458 -7.99723,-11.6194zM319.55626,131.53756c0.83666,-0.70409 2.05343,-0.53275 3.21515,-0.48818l0.20285,-0.87942c1.66508,-4.57387 3.2423,-8.96855 5.22292,-13.34068c-7.70528,0.73591 -15.65482,-0.05496 -23.37343,-0.05496c-4.52388,-0.01377 -8.99875,-0.64136 -13.51983,-0.89515c1.86065,5.64789 5.01055,10.73408 7.90575,15.89515h1.11408c3.45993,0.16356 4.27692,-0.49478 6.66371,2.99766c0.85105,1.24528 -0.09326,3.39394 1.02362,4.40764c0.34702,0.31496 0.93359,0.08989 1.39637,0.16379c1.74507,0.27868 4.67219,1.04 6.44184,0.53817c4.16366,-1.18072 0.54938,-5.68676 3.70698,-8.34403zM283.38563,141.35529c1.19039,-1.8934 3.25803,-3.60631 4.88277,-3.99864c0.00975,-0.01444 0.01945,-0.02888 0.0291,-0.04334c0.01178,0.00952 0.0235,0.019 0.03516,0.02846c0.0424,-0.00939 0.08447,-0.01786 0.12621,-0.02538c2.13297,-1.2123 4.52081,-2.10599 6.57199,-2.7716c-1.3486,-2.42669 -2.7418,-4.83358 -4.05362,-7.27904c-0.09661,0.00858 -0.15349,0.00858 -0.15349,0.00858c-2.07424,-0.03702 -4.78672,0.25388 -6.62757,1.40203c-0.73662,0.45944 -0.40013,2.25909 -0.37374,2.775c-0.02179,0.02221 -0.04235,0.04502 -0.06175,0.06824c-0.03928,0.92993 -0.32117,2.03642 -0.34616,2.46805c-0.06857,1.18423 0.41388,4.69239 -0.0289,7.36764zM338.16222,140.56714c0.1433,0.71451 0.72161,2.33877 1.19317,4.14225c-0.00012,-0.00912 -0.00021,-0.01819 -0.00027,-0.0272c-0.0107,-1.5357 0.00053,-3.07151 0.00732,-4.60728c-0.06582,-0.34739 -0.12885,-0.69656 -0.18758,-1.04835c-0.04438,-0.2658 0.02327,-1.10232 0.08557,-1.89425c0.03429,-0.09704 0.05694,-0.19959 0.06627,-0.30595l0.03135,-0.31346c-0.00089,-0.08702 -0.00187,-0.17403 -0.00293,-0.26105c-0.01548,-1.27017 -0.16491,-2.21627 -0.17991,-2.99945c-0.13195,-0.15565 -0.30132,-0.27859 -0.49422,-0.35491c0.10168,-0.69866 0.09025,-1.47815 -0.06289,-2.4044c-0.16697,-1.00991 0.3052,-2.30936 -1.10568,-2.60409c-2.13385,-0.44576 -5.10345,0.34321 -7.12651,0.82129l-0.00001,0.00002c0,0 -0.75806,0.17494 -1.52601,-0.09325c-0.39474,1.07729 -0.78779,2.16359 -1.18665,3.26163l-0.15371,0.72827c2.74669,0.81814 5.75435,1.98471 7.86666,3.56741c0.97914,0.03848 1.81362,0.6401 2.18854,1.48998c0.11012,0.24962 0.1806,0.52066 0.20345,0.80513c0.17701,0.8338 0.34121,1.88415 0.38404,2.09768zM339.92641,149.82844c-0.04516,0.25842 -0.11036,0.5 -0.19863,0.72065c0.0698,2.29632 0.17594,4.59228 0.28535,6.8889c0.04782,0.0916 0.08876,0.18348 0.12384,0.27368c0.36923,-0.7066 0.74156,-1.41174 1.1067,-2.12446c-1.06594,-0.70059 -1.06594,-2.11683 -1.06594,-2.11683l0.01931,-1.27469c-0.0986,-0.79093 -0.18866,-1.57978 -0.27063,-2.36725zM339.98285,148.13163c0.01059,0.14752 0.01797,0.29304 0.02182,0.43612c0.03425,-0.01974 0.06649,-0.04091 0.09684,-0.06327c-0.04108,-0.12374 -0.08065,-0.24818 -0.11866,-0.37285z" fill="#000000" stroke="none" stroke-width="0.5" stroke-linecap="butt"/><path d="M275.7909,230.4573c1.51477,-0.73535 3.55553,-0.86347 5.48793,-1.038c-0.94748,1.21733 -1.86614,2.47287 -2.71061,3.82925c-1.76763,2.83914 -2.72665,5.95863 -4.14981,8.969c-0.97133,2.05462 -2.07938,4.08008 -3.22142,6.09096c-1.07564,-0.44034 -2.57679,-0.53257 -2.90319,-1.58333c-0.41402,-1.33286 0.6526,-2.73002 0.81194,-4.11657c0.39188,-3.41005 3.26802,-10.49244 6.68517,-12.15132z" data-paper-data="{&quot;noHover&quot;:false,&quot;origItem&quot;:[&quot;Path&quot;,{&quot;applyMatrix&quot;:true,&quot;segments&quot;:[[[275.7847,230.5069],[0,0],[-3.41715,1.65888]],[[269.14736,242.58092],[0.39188,-3.41005],[-0.15934,1.38655]],[[268.32549,246.68651],[-0.41402,-1.33286],[0.3264,1.05076]],[[271.21454,248.26169],[-1.07564,-0.44034],[1.14204,-2.01088]],[[274.42318,242.16777],[-0.97133,2.05462],[1.42316,-3.01037]],[[278.54004,233.28985],[-1.76763,2.83914],[0.84447,-1.35638]],[[281.25036,229.4604],[-0.94748,1.21733],[-1.9324,0.17453]],[[275.7847,230.50691],[1.51477,-0.73535],[0,0]]],&quot;closed&quot;:true,&quot;fillColor&quot;:[0,0,0,1]}]}" fill="#1b130b" stroke="none" stroke-width="0.5" stroke-linecap="butt"/><path d="M261.70878,277.54695c1.04208,-3.11674 1.57469,-6.32723 3.70536,-8.88039c1.68505,0.79891 3.75552,0.77976 5.5155,1.05058c5.45173,0.83886 10.97714,0.64957 16.46528,1.33565c0.63467,0.07934 1.9816,0.28062 3.32708,0.41048c0.46683,0.53527 1.06287,0.77754 1.06287,0.77754l1.71887,0.69095c1.99266,0.72807 6.65971,2.6541 7.52879,4.86042c0.34873,0.88533 -0.65574,2.53264 -0.91851,3.10507c-1.79879,4.37815 -8.73553,2.91257 -12.74801,2.91178c-6.30892,-0.00125 -12.61678,0.02169 -18.75513,-1.73259c-1.52741,-0.43652 -2.94044,-1.22162 -4.42305,-1.79207c-1.06751,-0.41074 -3.0101,-0.20737 -3.16146,-1.34112c-0.06843,-0.51255 0.51844,-0.90591 0.68241,-1.39632z" data-paper-data="{&quot;noHover&quot;:false,&quot;origItem&quot;:[&quot;Path&quot;,{&quot;applyMatrix&quot;:true,&quot;segments&quot;:[[[261.75869,277.54384],[0,0],[-0.16397,0.49041]],[[261.07596,278.93683],[-0.06843,-0.51255],[0.15136,1.13375]],[[264.23653,280.27302],[-1.06751,-0.41074],[1.48261,0.57045]],[[268.65631,282.05555],[-1.52741,-0.43652],[6.13835,1.75428]],[[287.33373,283.77084],[-6.30892,-0.00125],[4.01248,0.00079]],[[300.06538,280.88564],[-1.79879,4.37815],[0.26277,-0.57243]],[[300.98265,277.78858],[0.34873,0.88533],[-0.86908,-2.20632]],[[293.45552,272.94501],[1.99266,0.72807],[0,0]],[291.73818,272.25871],[[290.67738,271.48585],[0.46683,0.53527],[-1.34548,-0.12986]],[[287.35657,271.08488],[0.63467,0.07934],[-5.48814,-0.68608]],[[270.97146,269.74453],[5.45173,0.83886],[-1.75998,-0.27082]],[[265.45901,268.6886],[1.68505,0.79891],[-2.13067,2.55316]],[[261.75868,277.54387],[1.04208,-3.11674],[0,0]]],&quot;closed&quot;:true,&quot;fillColor&quot;:[0,0,0,1]}]}" fill="#1b130b" stroke="none" stroke-width="0.5" stroke-linecap="butt"/><path d="" fill="#000000" stroke="none" stroke-width="0.5" stroke-linecap="butt"/><path d="" fill="#000000" stroke="none" stroke-width="0.5" stroke-linecap="butt"/><path d="M366.62845,247.2271c-0.25542,-0.08182 -0.82716,-0.24473 -0.66258,-0.4565c0.23763,-0.30576 0.57811,-0.49559 0.93399,-0.67029c0.0197,0.40761 0.0392,0.81494 0.0589,1.2219c-0.11107,-0.02875 -0.22127,-0.06018 -0.33031,-0.09511z" fill="#000000" stroke="none" stroke-width="0.5" stroke-linecap="butt"/><path d="" data-paper-data="{&quot;noHover&quot;:false,&quot;origItem&quot;:[&quot;Path&quot;,{&quot;applyMatrix&quot;:true,&quot;segments&quot;:[[[345.82912,276.08912],[0,0],[1.61993,3.19914]],[[353.58333,279.02083],[-2.95539,0.05317],[5.31843,-0.09568]],[[369.12184,277.73046],[-5.24021,0.95265],[2.03741,-0.37039]],[[375.25426,276.73671],[-1.86827,0.8932],[1.00046,-0.4783]],[[376.08815,274.03215],[-0.02256,0.77316],[0.06527,-2.23649]],[[375.24047,268.37566],[1.36537,1.76178],[-2.61811,-1.40856]],[[367.02524,264.93899],[2.75806,1.11121],[-0.18908,0.16812]],[[366.41863,265.39753],[0.21656,-0.13614],[-1.00815,0.63379]],[[362.88731,265.93823],[1.15276,-0.29867],[-5.08425,1.31729]],[[348.05491,269.68367],[5.44626,-0.31251],[-0.51996,0.02984]],[[345.93963,269.71526],[0.83805,0.01899],[-0.29909,1.93659]],[[345.82911,276.08912],[-0.72775,-1.4372],[0,0]]],&quot;closed&quot;:true,&quot;fillColor&quot;:[0,0,0,1]}]}" fill="#1b130b" stroke="none" stroke-width="0.5" stroke-linecap="butt"/><path d="" data-paper-data="{&quot;noHover&quot;:false,&quot;origItem&quot;:[&quot;Path&quot;,{&quot;applyMatrix&quot;:true,&quot;segments&quot;:[[[257.19959,244.99989],[0,0],[-1.48591,0.89195]],[[252.58062,247.38665],[1.34126,-1.0975],[-2.44621,2.00165]],[[252.87493,255.18821],[-0.89317,-2.02422],[2.84402,6.44551]],[[266.93178,270.08234],[-6.10738,-3.48993],[3.35222,2.42904]],[[279.47061,273.39428],[-4.20644,0.55126],[4.97262,-0.65166]],[[280.14891,264.95526],[2.34145,2.25347],[0,0]],[280.12611,265.22587],[[278.38484,262.90946],[-0.05434,1.71787],[-1.61011,-1.14896]],[[274.44158,257.81035],[1.24056,2.06165],[-2.16939,-3.60528]],[[268.40286,246.74372],[2.0647,3.66757],[-1.05079,-1.86653]],[[264.51984,240.62054],[1.03467,2.11186],[-2.53146,1.3248]],[[257.1996,244.99988],[2.52304,-1.51451],[0,0]]],&quot;closed&quot;:true,&quot;fillColor&quot;:[0,0,0,1]}]}" fill="#1b130b" stroke="none" stroke-width="0.5" stroke-linecap="butt"/><path d="" fill="#000000" stroke="none" stroke-width="0.5" stroke-linecap="butt"/><path d="" data-paper-data="{&quot;noHover&quot;:false,&quot;origItem&quot;:[&quot;Path&quot;,{&quot;applyMatrix&quot;:true,&quot;segments&quot;:[[[283.32747,267.56329],[0.82828,-2.05628],[-0.35616,0.88419]],[[285.21101,269.71506],[-0.8292,-0.47018],[1.52463,0.8645]],[[290.08737,271.68177],[-1.67482,-0.51657],[2.33238,0.71938]],[[297.22094,272.07997],[-2.39243,-0.0997],[4.48433,0.18688]],[[310.625,272.82813],[-4.50069,0.0008],[2.56843,-0.00046]],[[318.14071,271.80741],[-2.18099,1.55439],[1.09878,-3.01374]],[[315.58876,266.97186],[2.739,1.5991],[0,0]],[314.58443,266.69984],[[313.39663,265.90141],[0.51012,0.57254],[-1.7572,0.44316]],[[307.50972,265.35772],[1.63528,0.32318],[-5.2119,-1.03004]],[[291.75366,261.8941],[5.27326,0.46922],[-0.95067,-0.08459]],[[288.20559,261.88166],[1.28093,0.05145],[-1.64997,1.82361]]],&quot;closed&quot;:true,&quot;fillColor&quot;:[0,0,0,1]}]}" fill="#1b130b" stroke="none" stroke-width="0.5" stroke-linecap="butt"/><path d="" data-paper-data="{&quot;noHover&quot;:false,&quot;origItem&quot;:[&quot;Path&quot;,{&quot;applyMatrix&quot;:true,&quot;segments&quot;:[[[271.94072,223.95547],[0,0],[-1.59455,0.04123]],[[267.15704,224.07792],[1.5942,0.05289],[-0.44646,-0.01481]],[[265.85674,223.75363],[0.39465,-0.2093],[-0.37976,0.2014]],[[265.4568,224.97962],[0.1012,-0.41777],[-0.52725,2.17646]],[[265.125,231.57813],[0,-2.22097],[0,4.22377]],[[264.625,244.07813],[0.00244,-4.21876],[-0.00211,3.65879]],[[266.68318,251.69771],[-3.07656,-2.32252],[1.28946,0.61303]],[[270.875,252.57813],[-1.42769,0.0143],[4.78108,-0.0479]],[[281.1515,246.2151],[-0.66433,6.00648],[0.11495,-1.03936]],[[281.125,243.07813],[0.00883,1.04566],[0,0]],[281.125,242.07813],[[281.6272,240.51005],[-0.5022,0.71059],[-0.22544,-1.3569]],[[281.50002,236.40625],[0.0077,1.30145],[-0.02375,-4.01208]],[[282.08736,224.15747],[-0.30571,4.06901],[-3.38618,-0.18042]],[[271.94073,223.95547],[3.45667,-0.08939],[0,0]]],&quot;closed&quot;:true,&quot;fillColor&quot;:[0,0,0,1]}]}" fill="#1b130b" stroke="none" stroke-width="0.5" stroke-linecap="butt"/><path d="" data-paper-data="{&quot;noHover&quot;:false,&quot;origItem&quot;:[&quot;Path&quot;,{&quot;applyMatrix&quot;:true,&quot;segments&quot;:[[[632,488.8125],[0.32433,0],[-13.33333,0]],[[592,488.8125],[13.33333,0],[-1.06669,0]],[[588.77567,488.84569],[1.08168,-0.01951],[-1.87209,4.26871]],[[583.58319,501.81109],[1.6212,-4.32319],[-1.05827,2.12023]],[[580.40837,508.17179],[1.16295,-2.06468],[-1.05603,1.87486]],[[576.93544,513.61341],[1.15265,-1.81705],[-0.13833,0.21807]],[[576.53553,514.27697],[-0.25563,-0.03668],[6.42035,0.92114]],[[596.20526,515.95994],[-6.68521,-1.66595],[6.94761,1.73134]],[[616.98058,520.9096],[-7.05493,-1.42939],[0.75896,0.15377]],[[624.41886,522.06908],[-1.45442,0.26465],[2.65992,-0.48401]],[[627.03746,515.20158],[-0.0609,0.59591],[0.74118,-7.2523]],[[631.43547,491.77165],[-2.98072,6.91201],[0.43609,-1.01125]],[[632.98655,488.81916],[-0.55457,0.97096],[-0.33322,-0.00433]]],&quot;closed&quot;:true}]}" fill="#7b8a52" stroke="none" stroke-width="0.5" stroke-linecap="butt"/><path d="" data-paper-data="{&quot;noHover&quot;:false,&quot;origItem&quot;:[&quot;Path&quot;,{&quot;applyMatrix&quot;:true,&quot;segments&quot;:[[[324.09533,253.91176],[0,0],[0.85651,3.61029]],[[330.57041,262.99001],[-3.75187,-1.20045],[1.54264,0.49358]],[[335.42874,262.90626],[-1.61968,-0.00375],[3.40326,0.00788]],[[345.50666,261.44215],[-3.33793,0.66673],[5.10574,-0.64832]],[[359.53992,254.32752],[-4.22277,2.85575],[2.50144,-1.69166]],[[366.7143,248.24599],[-1.4317,2.8402],[2.2577,-4.47883]],[[360.40152,234.36115],[6.60882,-1.38345],[-3.5675,0.7468]],[[350.01585,240.78249],[2.55555,-2.47506],[-1.10838,2.65785]],[[344.10839,247.61045],[2.60899,-1.4752],[-0.78962,0.44648]],[[341.44917,248.18853],[0.82925,-0.36768],[-2.1557,0.95582]],[[335.15356,252.08568],[2.09082,-1.13332],[-2.98407,1.61748]],[[325.92875,253.90627],[3.30471,0.01081],[-0.59799,-0.00196]],[[324.09534,253.91178],[0.61933,0.00637],[0,0]]],&quot;closed&quot;:true,&quot;fillColor&quot;:[0,0,0,1]}]}" fill="#1b130b" stroke="none" stroke-width="0.5" stroke-linecap="butt"/><path d="" data-paper-data="{&quot;noHover&quot;:false,&quot;origItem&quot;:[&quot;Path&quot;,{&quot;applyMatrix&quot;:true,&quot;segments&quot;:[[[264.42874,219.40625],[0,0],[-1.34876,-0.03644]],[[260.38545,219.21595],[1.30765,-0.33247],[-0.67222,0.17091]],[[259.01584,220.78248],[0.37093,-0.5861],[-1.63062,2.57655]],[[258.42022,229.61245],[0.25908,-2.86779],[-0.18243,2.01936]],[[257.42022,235.61245],[0.18489,-2.01914],[-0.17939,1.95913]],[[257.38363,241.37902],[0.34606,-1.97774],[-0.26988,1.54233]],[[256.23844,247.44954],[-0.70954,-1.75258],[0.67413,1.66513]],[[260.80157,250.31691],[-1.50438,-0.98181],[0.92438,0.60328]],[[263.92874,251.40625],[-1.10073,0.08261],[6.13977,0.46079]],[[269.46102,239.00579],[-0.69952,3.80089],[0.21496,-1.16801]],[[270.55703,235.61568],[-0.36534,1.13003],[0,0]],[270.42874,234.40625],[[270.61805,233.44245],[-0.18931,0.51632],[-1.27471,-3.18909]],[[269.9409,222.6599],[-0.29248,3.56714],[0.08526,-1.03984]],[[269.97253,219.42036],[-0.04719,1.07284],[-1.84822,0.01653]],[[264.42873,219.40625],[1.84733,0.04991],[0,0]]],&quot;closed&quot;:true,&quot;fillColor&quot;:[0,0,0,1]}]}" fill="#1b130b" stroke="none" stroke-width="0.5" stroke-linecap="butt"/><path d="" fill="#000000" stroke="none" stroke-width="0.5" stroke-linecap="butt"/><path d="" fill="#000000" stroke="none" stroke-width="0.5" stroke-linecap="butt"/><path d="" fill="#000000" stroke="none" stroke-width="0.5" stroke-linecap="butt"/><path d="" data-paper-data="{&quot;noHover&quot;:false,&quot;origItem&quot;:[&quot;Path&quot;,{&quot;applyMatrix&quot;:true,&quot;segments&quot;:[[[301.02,284.43509],[0,0],[-0.48649,1.35086]],[[300.35678,288.69109],[-0.52267,-1.33728],[1.11613,2.85562]],[[308.45427,291.76454],[-2.24218,-0.42883],[3.74562,0.71638]],[[319.42965,293.09357],[-3.74915,-0.64317],[5.62646,0.96524]],[[336.01207,295.39178],[-5.76157,0.00622],[1.33333,0]],[[340.01207,295.39178],[-1.32656,-0.1342],[0.50986,0.05158]],[[341.44775,295.94168],[-0.42888,0.28049],[0.37573,-0.24574]],[[341.19366,294.61899],[0.03304,0.44774],[-0.21324,-2.89017]],[[338.49458,286.87855],[2.58696,1.91253],[-3.11025,-2.2994]],[[329.5094,284.67406],[3.45411,0.76575],[-2.70322,-0.59928]],[[324.07827,281.479],[1.99996,1.6369],[0,0]],[322.8454,280.55845],[[322.12528,279.72773],[0.30958,0.52281],[-0.68443,-0.00016]],[[320.67873,279.72511],[0.21452,0],[-4.35445,0]],[[308.54686,278.26081],[4.13278,1.46737],[-1.00529,-0.35693]],[[305.61331,277.34436],[0.91428,0.32012],[-1.65526,2.28608]],[[301.02,284.43508],[0.94333,-2.61939],[0,0]]],&quot;closed&quot;:true,&quot;fillColor&quot;:[0,0,0,1]}]}" fill="#1b130b" stroke="none" stroke-width="0.5" stroke-linecap="butt"/><path d="" data-paper-data="{&quot;noHover&quot;:false,&quot;origItem&quot;:[&quot;Path&quot;,{&quot;applyMatrix&quot;:true,&quot;segments&quot;:[[[262.34541,239.05845],[0,0],[-0.32826,-0.00287]],[[258.34269,239.42427],[0.77949,-0.75758],[-1.51727,1.47463]],[[256.33047,248.18522],[0.2052,-1.38223],[-0.42913,2.89071]],[[254.4564,256.74976],[0.69192,-2.83931],[-0.58439,2.39805]],[[254.08724,264.44429],[-0.1104,-2.59643],[0.66079,0.32787]],[[256.10654,265.36956],[-0.68186,-0.2935],[-0.71289,-0.16422]],[[254.099,264.72065],[0.61646,0.27296],[0.04118,0.9696]],[[254.17873,267.55845],[0,-0.91516],[0,2.65116]],[[255.25295,273.60918],[-1.65742,-2.05579],[1.39686,1.40923]],[[260.04949,277.13442],[-1.66322,-1.08204],[0.69886,0.45466]],[[262.06018,278.6221],[-0.74758,-0.36911],[7.62023,3.7625]],[[269.28806,266.60293],[0.25885,6.02446],[-0.33205,0.03141]],[[268.2657,266.62741],[0.34767,0.01294],[0.33082,-0.13584]],[[269.27026,266.19713],[-0.33957,0.15017],[-0.04654,-1.04389]],[[269.17873,263.55846],[0,0.68247],[0,0]],[269.17873,262.22513],[[269.36562,261.26796],[-0.18689,0.51352],[-0.9949,-2.34074]],[[268.84539,253.55846],[-0.00211,2.4075],[0.00398,-4.53963]],[[269.72042,239.3032],[-1.64723,4.26841],[-2.45342,-0.09127]],[[262.34539,239.05846],[2.47075,0.02163],[0,0]]],&quot;closed&quot;:true,&quot;fillColor&quot;:[0,0,0,1]}]}" fill="#1b130b" stroke="none" stroke-width="0.5" stroke-linecap="butt"/><path d="" data-paper-data="{&quot;noHover&quot;:false,&quot;origItem&quot;:[&quot;Path&quot;,{&quot;applyMatrix&quot;:true,&quot;segments&quot;:[[[685.18502,872.61899],[0,0],[1.43662,5.98084]],[[693.01062,884.03649],[-3.70218,-4.86454],[2.24742,2.23678]],[[699.59264,890.90413],[-2.72186,-1.62654],[0.9722,0.58098]],[[706.82094,891.32953],[-0.601,0.05898],[7.406,-0.72658]],[[726.8086,885.51977],[-6.97654,1.96418],[1.2142,-0.34184]],[[730.56748,885.08245],[-1.10602,0.60652],[2.30702,-1.26512]],[[734.3671,878.16373],[-0.68386,2.5407],[1.11344,-4.13668]],[[732.57348,864.12511],[1.20564,3.77476],[-0.59548,-1.8644]],[[730.63334,858.58331],[1.54934,1.19592],[-1.12408,-0.86766]],[[726.45242,859.40035],[1.41022,-0.16646],[-4.7625,0.5622]],[[712.46942,862.78461],[4.25664,-2.20872],[0,0]],[[709.1243,863.27397],[1.7568,0.3048],[-2.88902,2.03706]],[[699.0903,867.95487],[2.74046,-1.09482],[-4.28754,1.7129]],[[685.1907,871.99437],[4.76756,-0.4218],[0,0]]],&quot;closed&quot;:true,&quot;fillColor&quot;:[0,0,0,1]}]}" fill="#1b130b" stroke="none" stroke-width="0.5" stroke-linecap="butt"/><path d="" data-paper-data="{&quot;noHover&quot;:false,&quot;origItem&quot;:[&quot;Path&quot;,{&quot;applyMatrix&quot;:true,&quot;segments&quot;:[[[534.24752,820.15827],[0,0],[-4.04368,0.08802]],[[522.21394,821.21539],[3.95246,-0.81222],[-1.3621,0.26626]],[[510.4634,822.97835],[0.57882,-1.35172],[-1.33586,3.11964]],[[510.23336,835.31249],[0,-3.25428],[0,12.11958]],[[513.15144,871.41109],[-2.19068,-11.90282],[0.6726,3.65454]],[[517.2748,887.34391],[-3.32516,-2.37646],[3.6453,2.60526]],[[534.72606,889.33683],[-4.32258,0],[2.74784,0.54956]],[[542.9973,890.84037],[-2.70528,0.73084],[1.66574,-0.45002]],[[544.2577,885.81981],[-0.12208,1.72114],[0.32888,-4.6368]],[[543.33046,872.29307],[0.85138,4.52884],[-1.1888,-6.32378]],[[537.2817,856.00599],[1.2386,6.98638],[-0.92902,-5.24016]],[[537.2577,839.80517],[0.52952,5.28946],[-0.67414,-6.7343]],[[534.24754,820.15827],[0.19656,6.80238],[0,0]]],&quot;closed&quot;:true,&quot;fillColor&quot;:[0,0,0,1]}]}" fill="#1b130b" stroke="none" stroke-width="0.5" stroke-linecap="butt"/><path d="" data-paper-data="{&quot;noHover&quot;:false,&quot;origItem&quot;:[&quot;Path&quot;,{&quot;applyMatrix&quot;:true,&quot;segments&quot;:[[[644.56667,520.3125],[-10.74954,-0.02493],[3.36267,0.0078]],[[657.3306,521.84036],[-3.05094,0.66835],[1.47633,-0.32341]],[[657.56667,517.3125],[0.04604,1.51064],[-0.05077,-1.66589]],[[657.56667,512.3125],[0,1.66667],[0,0]],[[657.57078,512.18913],[-0.00411,0.07951],[-0.21417,-0.00276]],[[656.92826,512.1811],[0.21417,0.00259],[-0.00293,-2.76013]],[[656.93459,503.90085],[-0.01017,2.75998],[0.00586,-1.58768]],[[656.31577,495.58781],[1.02114,1.9155],[-2.49278,-4.6761]],[[639.82937,490.48677],[4.30574,0.4726],[0,0]],[[636.57153,488.90069],[1.32098,1.37088],[-1.41416,0.32306]],[[632.36463,489.80929],[1.36322,-0.31648],[-8.22084,1.90848]],[[605.46581,490.57783],[8.81122,0.25452],[2.4454,3.91253]],[[608.7703,504.32455],[-0.39088,-4.77593],[1.79637,1.46105]],[610.56667,508.3125],[[610.49864,510.49051],[0,0],[0.54381,3.26283]],[[612.31763,520.30909],[-0.32664,-3.21574],[10.74968,-0.00723]]],&quot;closed&quot;:true}]}" fill="#1b130b" stroke="none" stroke-width="0.5" stroke-linecap="butt"/><path d="" data-paper-data="{&quot;noHover&quot;:false,&quot;origItem&quot;:[&quot;Path&quot;,{&quot;applyMatrix&quot;:true,&quot;segments&quot;:[[[543.54233,513.80519],[0.25435,-1.57199],[-0.16076,0.99353]],[[542.23738,516.52799],[-0.14982,-0.99524],[0.09076,0.60292]],[[544.01629,516.95368],[-0.5763,-0.19908],[5.62853,1.94431]],[[559.05935,520.33683],[-5.90527,-0.5454],[5.35726,0.49479]],[[574.97907,523.32954],[-5.37617,-0.48875],[6.39739,0.58159]],[[594.56667,523.3125],[-6.42799,0],[1.05347,0]],[[597.74939,523.77999],[-1.06184,-0.22693],[0.76557,-2.95002]],[[602.32798,520.32402],[-0.86334,0.0657],[-0.39267,-2.8469]],[[600.73923,512.56397],[0.30508,1.24115],[-0.24825,0.0023]],[[599.99448,512.57075],[0.24825,-0.00221],[-0.31463,-0.78554]],[[599.28701,510.22629],[0.09634,0.77071],[-0.45798,-3.66384]],[[595.03927,494.42693],[5.15054,1.68118],[-2.34118,-0.76418]],[[587.69343,493.63671],[2.44862,0.2634],[0,0]],[[583.42357,489.59489],[0.44428,3.4953],[-12.37122,-1.33364]],[[546.30477,487.31331],[12.5632,0.22344],[-0.52082,7.35291]],[[544.01475,509.09149],[0.31456,-7.29039],[-0.14615,-0.02114]],[[543.57608,509.02896],[0.14629,0.02054],[0.04478,1.5967]]],&quot;closed&quot;:true}]}" fill="#1b130b" stroke="none" stroke-width="0.5" stroke-linecap="butt"/><path d="M338.6487,140.24248c-0.04283,-0.21353 -0.21464,-1.25298 -0.39165,-2.08678c-0.02285,-0.28447 -0.09614,-0.54895 -0.20626,-0.79857c-0.37492,-0.84988 -1.21213,-1.43363 -2.19127,-1.47211c-2.11231,-1.5827 -5.02735,-2.72467 -7.77404,-3.54281l0.07117,-0.78451c0.39886,-1.09804 0.80604,-2.19706 1.20078,-3.27435c0.76795,0.26819 1.53297,0.08977 1.53297,0.08977l0.00001,-0.00002c2.02306,-0.47808 5.0334,-1.26566 7.16725,-0.8199c1.41088,0.29473 0.95027,1.60199 1.11724,2.6119c0.15314,0.92625 0.17326,1.71602 0.07158,2.41468c0.1929,0.07632 0.36446,0.20305 0.49641,0.3587c0.015,0.78318 0.17007,1.7525 0.18555,3.02267c0.00106,0.08702 0.00198,0.17623 0.00287,0.26325l-0.03155,0.31611c-0.00933,0.10636 -0.03231,0.21153 -0.0666,0.30857c-0.0623,0.79193 -0.13441,1.64271 -0.09003,1.90851c0.05873,0.35179 0.11876,0.70628 0.18458,1.05367c-0.00679,1.53577 -0.03129,3.08533 -0.02059,4.62103c0.00006,0.00901 -0.05713,-0.06389 -0.05701,-0.05477c-0.47156,-1.80348 -1.05809,-3.42055 -1.20139,-4.13506z" data-paper-data="{&quot;noHover&quot;:false,&quot;origItem&quot;:[&quot;Path&quot;,{&quot;applyMatrix&quot;:true,&quot;segments&quot;:[[[283.03655,137.62096],[0,0],[0.04283,-0.21353]],[[283.42059,135.52328],[-0.17701,0.8338],[0.02285,-0.28447]],[[283.62404,134.71815],[-0.11012,0.24962],[0.37492,-0.84988]],[[285.81258,133.22817],[-0.97914,0.03848],[2.11231,-1.5827]],[[293.67924,129.66076],[-2.74669,0.81814],[0,0]],[[293.52553,128.93249],[0,0],[-0.39886,-1.09804]],[[292.33888,125.67086],[0.39474,1.07729],[-0.76795,0.26819]],[290.81287,125.76411],[[290.81286,125.76409],[0,0],[-2.02306,-0.47808]],[[283.68635,124.9428],[2.13385,-0.44576],[-1.41088,0.29473]],[[282.58067,127.54689],[0.16697,-1.00991],[-0.15314,0.92625]],[[282.51778,129.95129],[-0.10168,-0.69866],[-0.1929,0.07632]],[[282.02356,130.3062],[0.13195,-0.15565],[-0.015,0.78318]],[[281.84365,133.30565],[0.01548,-1.27017],[-0.00106,0.08702]],[[281.84072,133.5667],[0.00089,-0.08702],[0,0]],[[281.87207,133.88016],[0,0],[0.00933,0.10636]],[[281.93834,134.18611],[-0.03429,-0.09704],[0.0623,0.79193]],[[282.02391,136.08036],[0.04438,-0.2658],[-0.05873,0.35179]],[[281.83633,137.12871],[0.06582,-0.34739],[0.00679,1.53577]],[[281.84365,141.73599],[0.0107,-1.5357],[-0.00006,0.00901]],[[281.84338,141.76319],[0.00012,-0.00912],[0.47156,-1.80348]],[[283.03655,137.62094],[-0.1433,0.71451],[0,0]]],&quot;closed&quot;:true,&quot;fillColor&quot;:[0,0,0,1]}],&quot;index&quot;:null}" fill="#385130" stroke="none" stroke-width="0.5" stroke-linecap="butt"/><path d="M283.8771,141.10297c0.44278,-2.67525 -0.05774,-6.22473 0.01083,-7.40896c0.02499,-0.43163 0.3123,-1.55814 0.35158,-2.48807c0.0194,-0.02322 0.0403,-0.04668 0.06209,-0.06889c-0.02639,-0.51591 -0.35195,-2.32947 0.38467,-2.78891c1.84085,-1.14815 4.59775,-1.45042 6.67199,-1.4134c0,0 0.05787,0.00024 0.15448,-0.00834c1.31182,2.44546 2.7428,4.90285 4.0914,7.32954c-2.05118,0.66561 -4.50107,1.6058 -6.63404,2.8181c-0.04174,0.00752 -0.08559,0.01551 -0.12799,0.0249c-0.01166,-0.00946 -0.02402,-0.01913 -0.0358,-0.02865c-0.00965,0.01446 -0.01958,0.02883 -0.02933,0.04327c-1.62474,0.39233 -3.70949,2.096 -4.89988,3.9894z" data-paper-data="{&quot;noHover&quot;:false,&quot;origItem&quot;:[&quot;Path&quot;,{&quot;applyMatrix&quot;:true,&quot;segments&quot;:[[[337.78423,131.04145],[0.06857,1.18423],[-0.02499,-0.43163]],[[337.43807,128.5734],[0.03928,0.92993],[-0.0194,-0.02322]],[[337.37632,128.50516],[0.02179,0.02221],[0.02639,-0.51591]],[[337.00258,125.73016],[0.73662,0.45944],[-1.84085,-1.14815]],[[330.37501,124.32813],[2.07424,-0.03702],[0,0]],[[330.22152,124.31955],[0.09661,0.00858],[-1.31182,2.44546]],[[326.1679,131.59859],[1.3486,-2.42669],[2.05118,0.66561]],[[332.73989,134.37019],[-2.13297,-1.2123],[0.04174,0.00752]],[[332.8661,134.39557],[-0.0424,-0.00939],[0.01166,-0.00946]],[[332.90126,134.36711],[-0.01178,0.00952],[0.00965,0.01446]],[[332.93036,134.41045],[-0.00975,-0.01444],[1.62474,0.39233]],[[337.81313,138.40909],[-1.19039,-1.8934],[-0.44278,-2.67525]]],&quot;closed&quot;:true,&quot;fillColor&quot;:[0,0,0,1]}],&quot;index&quot;:null}" fill="#385130" stroke="none" stroke-width="0.5" stroke-linecap="butt"/><path d="" data-paper-data="{&quot;index&quot;:null}" fill="#000000" stroke="none" stroke-width="0.5" stroke-linecap="butt"/><path d="M325.71882,96.073c2.67476,3.80482 5.69117,7.63066 8.00198,11.65092c0.4072,0.70842 0.65599,1.50829 1.10073,2.19376c0.18117,0.27922 0.95021,0.39769 0.748,0.66208c-0.30692,0.40129 -0.98558,0.23123 -1.48556,0.30367c-2.12419,0.30778 -4.24435,0.69084 -6.38245,0.87895c-7.30757,0.64292 -15.03649,-0.23811 -22.38337,-0.23811c-4.7945,0.01664 -9.59386,-0.79551 -14.40512,-1.02208c-1.58667,-0.07472 -3.19604,-0.2529 -4.77666,-0.13697c2.65843,-2.39755 4.89686,-6.97782 6.5309,-9.56394c0.01689,-0.02673 1.86419,-3.53115 2.26452,-3.75301c3.92904,-2.17747 10.6537,-1.61441 14.9091,-1.61441c5.39375,0 10.61605,-0.16019 15.87794,0.63913z" data-paper-data="{&quot;noHover&quot;:false,&quot;origItem&quot;:[&quot;Path&quot;,{&quot;applyMatrix&quot;:true,&quot;segments&quot;:[[[592.09546,186.88092],[0,0],[-5.34952,7.60966]],[[576.101,210.11974],[4.62162,-8.04052],[-0.8144,1.41684]],[[573.89784,214.49948],[0.88948,-1.37094],[-0.36234,0.55844]],[[572.40138,215.82194],[-0.40442,-0.52878],[0.61384,0.80258]],[[575.3717,216.42654],[-0.99996,-0.14488],[4.24838,0.61556]],[[588.13124,218.1708],[-4.2762,-0.37622],[14.61514,1.28584]],[[632.74998,217.65624],[-14.69376,0],[9.589,0.0333]],[[661.5234,215.66138],[-9.62252,0.45314],[3.17334,-0.14944]],[[671.07482,215.3937],[-3.16124,-0.23186],[-5.31686,-4.79508]],[[658.0108,196.30756],[3.26808,5.17224],[-0.03378,-0.05346]],[[653.48822,188.82432],[0.80066,0.44372],[-7.85808,-4.35494]],[[623.74996,185.65626],[8.5108,0],[-10.7875,0]],[[592.09542,186.88094],[10.52378,-1.59864],[0,0]]],&quot;closed&quot;:true,&quot;fillColor&quot;:[0,0,0,1]}],&quot;index&quot;:null}" fill="#385130" stroke="none" stroke-width="0.5" stroke-linecap="butt"/><path d="M323.34337,130.77005c-1.16172,-0.04457 -2.38016,-0.21033 -3.21682,0.49376c-3.1576,2.65728 0.43248,7.19071 -3.73118,8.37143c-1.76964,0.50184 -4.72105,-0.25403 -6.46612,-0.53271c-0.46278,-0.07391 -1.05551,0.15061 -1.40253,-0.16436c-1.11688,-1.0137 -0.18372,-3.16544 -1.03476,-4.41072c-2.38679,-3.49244 -3.23133,-2.8617 -6.69126,-3.02526l-1.11474,-0.00173c-2.8952,-5.16107 -6.0399,-10.29166 -7.90055,-15.93955c4.52108,0.25379 9.01762,0.86302 13.5415,0.87679c7.71861,0 15.73111,0.81079 23.43639,0.07488c-1.98062,4.37213 -3.55133,8.80087 -5.21641,13.37474l-0.20352,0.88272z" data-paper-data="{&quot;noHover&quot;:false,&quot;origItem&quot;:[&quot;Path&quot;,{&quot;applyMatrix&quot;:true,&quot;segments&quot;:[[[603.28497,257.18272],[-1.67332,-1.40818],[6.31519,5.31455]],[[610.69892,273.87079],[-8.32731,-2.36145],[3.53929,1.00367]],[[623.5826,272.79444],[-3.49013,0.55736],[0.92557,-0.14781]],[[626.37534,272.46685],[-0.69405,0.62993],[2.23376,-2.0274]],[[628.42258,263.65157],[-1.70209,2.49057],[4.77358,-6.98488]],[[641.75,257.65625],[-6.91986,0.32711],[0,0]],[[643.97816,257.65625],[0,0],[5.79041,-10.32215]],[[659.78966,225.86595],[-3.7213,11.29577],[-9.04216,0.50758]],[[632.75,227.65625],[9.04776,-0.02754],[-15.43723,0]],[[586.00313,227.76618],[15.41056,1.47182],[3.96123,8.74426]],[[596.44897,254.44753],[-3.33017,-9.14774],[0,0]],[[596.85468,256.20637],[0,0],[2.32343,-0.08913]]],&quot;closed&quot;:true}],&quot;index&quot;:null}" fill="#131313" stroke="none" stroke-width="0.5" stroke-linecap="butt"/><path d="M306.08319,127.62411h-4.38889l-2.33333,-4.5l2.22222,-4.33334h4.05556l2.44444,4.16667z" data-paper-data="{&quot;index&quot;:null}" fill="#9d0201" stroke="#323231" stroke-width="2" stroke-linecap="round"/><path d="M310.44428,133.35672h0.11111c2.00799,0 3.99231,0.11111 6,0.11111c0,0 0.25,0 0.25,0.25c0,0.25 -0.25,0.25 -0.25,0.25c-2.00778,0 -3.99202,-0.11111 -6,-0.11111h-0.11111c0,0 -0.25,0 -0.25,-0.25c0,-0.25 0.25,-0.25 0.25,-0.25z" data-paper-data="{&quot;index&quot;:null}" fill="#000000" stroke="none" stroke-width="0.5" stroke-linecap="butt"/><path d="M310.69856,135.14735l0.37234,-0.12071c1.71688,-0.01144 3.44822,-0.10993 5.15116,-0.11434c0,0 0.25,0 0.25,0.25c0,0.25 -0.25,0.25 -0.25,0.25c-1.67671,-0.00486 -3.37895,0.12139 -5.07106,0.10788l-0.29433,0.10151c0,0 -0.23718,0.07906 -0.31623,-0.15811c-0.07905,-0.23717 0.15812,-0.31623 0.15812,-0.31623z" data-paper-data="{&quot;index&quot;:null}" fill="#000000" stroke="none" stroke-width="0.5" stroke-linecap="butt"/><path d="M309.66246,136.91232l0.33687,-0.00546c1.98494,-0.09118 3.99733,-0.43624 6.00053,-0.43902c0,0 0.25,0 0.25,0.25c0,0.25 -0.25,0.25 -0.25,0.25c-1.99721,-0.00304 -4.00534,0.3446 -5.98478,0.43878l-0.34449,0.00563c0,0 -0.24996,0.00407 -0.25403,-0.2459c-0.00407,-0.24997 0.2459,-0.25403 0.2459,-0.25403z" data-paper-data="{&quot;index&quot;:null}" fill="#000000" stroke="none" stroke-width="0.5" stroke-linecap="butt"/><path d="M306.08319,127.62411h-4.38889l-2.33333,-4.5l2.22222,-4.33334h4.05556l2.44444,4.16667z" data-paper-data="{&quot;index&quot;:null}" fill="none" stroke="#1a1a1a" stroke-width="0.5" stroke-linecap="round"/><g data-paper-data="{&quot;index&quot;:null}" fill="#000000" stroke="none" stroke-width="1" stroke-linecap="butt" font-family="&quot; Pro W3&quot;, &quot;Hiragino Kaku Gothic Pro&quot;, Osaka, &quot;&quot;, Meiryo, &quot; &quot;, &quot;MS PGothic&quot;" font-weight="normal" font-size="40" text-anchor="start"><text transform="translate(333.34708,108.25848) rotate(-180) scale(0.03846,-0.03846)" font-size="40" xml:space="preserve" fill="#000000" fill-rule="nonzero" stroke="none" stroke-width="1" stroke-linecap="butt" stroke-linejoin="miter" stroke-miterlimit="10" stroke-dasharray="" stroke-dashoffset="0" font-family="&quot; Pro W3&quot;, &quot;Hiragino Kaku Gothic Pro&quot;, Osaka, &quot;&quot;, Meiryo, &quot; &quot;, &quot;MS PGothic&quot;" font-weight="normal" text-anchor="start" style="mix-blend-mode: normal"><tspan x="0" dy="0">The Black Mesa</tspan><tspan x="0" dy="46.150000000000006px">Pivovar13</tspan></text><text transform="translate(326.93683,109.21777) rotate(-180) scale(0.01021,-0.01021)" font-size="40" xml:space="preserve" fill="#000000" fill-rule="nonzero" stroke="none" stroke-width="1" stroke-linecap="butt" stroke-linejoin="miter" stroke-miterlimit="10" stroke-dasharray="" stroke-dashoffset="0" font-family="&quot; Pro W3&quot;, &quot;Hiragino Kaku Gothic Pro&quot;, Osaka, &quot;&quot;, Meiryo, &quot; &quot;, &quot;MS PGothic&quot;" font-weight="normal" text-anchor="start" style="mix-blend-mode: normal"><tspan x="0" dy="0">TM</tspan></text></g><g data-paper-data="{&quot;index&quot;:null}"><path d="M320.23524,188.70146l9,-1.44445l2.55555,14.33334l-7.88889,2.44444z" fill="#121212" stroke="#000000" stroke-width="0" stroke-linecap="round"/><path d="M331.42713,192.11937c-2.33132,-1.13033 -1.55937,-5.03636 -2.36364,-4.54545c-0.90163,0.55034 0.63636,5.09091 0.63636,5.09091l2.27273,9.09091l-8.09091,2.18182l-2.81818,-8.54546l-0.72727,-6.72727h-0.81818l-0.54546,-0.54546l-8.54546,0.09091l0.18182,3l-0.72727,0.72728l-0.90341,-0.14844l-1.875,3.375l0.625,0.75l-1.375,1.25l-7.25,-2.375l5.875,-9.25v-2.125l-4,-2.5l-34,9.375l-2.375,-15.25l38.125,-2.25l-0.02841,-1.12428h1.18182l1.36364,-3.09091l0.90909,-0.09091l0.09091,-2l1.54546,-1.18182l3.27273,-0.27273c0,0 17.51031,0.40434 19.36364,1.18181c1.4205,0.5959 0.63636,4.72728 0.63636,4.72728l2.81819,0.63636l0.18182,-1.27273l28.54545,-0.36363l1,-3.63637l5.09091,-0.18181l0.45454,0.45454l10.54546,0.09091l4.45454,-5.72728l3.54546,-0.09091l-0.72727,11.72728h13.27273l1.09091,-1.09091h9.36364v4.81818l-9.45455,0.09091l-0.90909,-1l-13.81818,0.18182l1,1.45455l-0.09091,1.63637h-2.90909v-3h-5l-0.27273,0.81818l-1.54545,0.09091l-0.63637,3h-0.81818l0.18182,1l11.45455,0.18182l2,2v2.45454l-1.27273,2.18182l-20.27273,0.09091l-1.09091,1.36364h-27.63637c0,0 -0.29326,2.59003 -1.54545,3.09091c-1.25219,0.50088 -4.30503,1.31216 -6.63636,0.18182z" fill="#121111" stroke="#000000" stroke-width="1" stroke-linecap="round"/><path d="M313.60899,167.3921l15.18182,-0.18182l0.90909,1.18182l-0.09091,2.18182l-16.90909,0.63636l-0.18182,-1.45454z" fill="#000000" stroke="#000000" stroke-width="1" stroke-linecap="round"/><path d="M313.52414,185.08758c0,0 0.86066,1.06363 1.46667,1.33334c0.50661,0.22546 -0.73334,-1.53334 -0.73334,-1.53334l0.26667,-1.26667c0,0 2.85332,-0.30143 3.86666,0.6c0.694,0.61736 1.63086,2.42854 0.06666,3c-1.48294,0.54178 -4.26666,-0.06667 -4.26666,-0.06667c0,0 -1.79093,-0.64872 -1.93334,-1.53333c-0.22487,-1.39674 1,-2.06667 1,-2.06667z" fill="#000000" stroke="#000000" stroke-width="0.5" stroke-linecap="round"/><path d="M340.61222,176.23667l0.57143,-1h1.28571l0.57143,0.85715l-0.5,1.07143l-1.28571,0.07143z" fill="#000000" stroke="#000000" stroke-width="0.5" stroke-linecap="round"/><path d="M343.46937,173.12954l0.57142,-1.10714h1.28572l0.57143,0.94898l-0.5,1.18622l-1.28572,0.07908z" fill="#000000" stroke="#000000" stroke-width="0.5" stroke-linecap="round"/><path d="M347.0408,176.27238l0.57142,-1.10714h1.28572l0.57143,0.94898l-0.5,1.18623l-1.28571,0.07908z" fill="#000000" stroke="#000000" stroke-width="0.5" stroke-linecap="round"/><path d="M349.7551,172.98667l0.57142,-1.32143h1.28571l0.57143,1.13266l-0.5,1.41581l-1.28571,0.09439z" fill="#000000" stroke="#000000" stroke-width="0.5" stroke-linecap="round"/><path d="M356.11224,172.98666l0.60504,-1.32142h1.36134l0.60504,1.13266l-0.52941,1.41581l-1.36135,0.09439z" fill="#000000" stroke="#000000" stroke-width="0.5" stroke-linecap="round"/><path d="M353.32653,176.27239l0.57142,-1.32142h1.28571l0.57143,1.13265l-0.5,1.41581l-1.28571,0.09439z" fill="#000000" stroke="#000000" stroke-width="0.5" stroke-linecap="round"/><path d="M359.75508,176.41525l0.57143,-1.32142h1.28572l0.57143,1.13265l-0.5,1.41582l-1.28571,0.09438z" fill="#000000" stroke="#000000" stroke-width="0.5" stroke-linecap="round"/><path d="M362.68366,172.98667l0.57143,-1.32143h1.28571l0.57143,1.13266l-0.5,1.41581l-1.28572,0.09439z" fill="#000000" stroke="#000000" stroke-width="0.5" stroke-linecap="round"/><path d="M366.11224,176.12954l0.57142,-1.32143h1.28571l0.57143,1.13265l-0.5,1.41582l-1.28572,0.09438z" fill="#000000" stroke="#000000" stroke-width="0.5" stroke-linecap="round"/><path d="M383.33246,167.69278l0.75,0.08333l-0.33333,2.83333l-2.91667,-0.16667l0.08334,-1l2.41666,-3.41667z" fill="#000000" stroke="#000000" stroke-width="0.5" stroke-linecap="round"/><path d="M380.58246,172.85945v-1h3.16667v1z" fill="#000000" stroke="none" stroke-width="0" stroke-linecap="butt"/><path d="M369.0289,172.90335l0.60504,-1.32143h1.36135l0.60504,1.13265l-0.52941,1.41582l-1.36135,0.09438z" fill="#000000" stroke="#000000" stroke-width="0.5" stroke-linecap="round"/><path d="M372.67175,176.33191l0.57143,-1.32143h1.28571l0.57143,1.13266l-0.5,1.41582l-1.28571,0.09438z" fill="#000000" stroke="#000000" stroke-width="0.5" stroke-linecap="round"/><path d="M375.60033,172.90334l0.57143,-1.32142h1.28571l0.57143,1.13265l-0.5,1.41581l-1.28571,0.09439z" fill="#000000" stroke="#000000" stroke-width="0.5" stroke-linecap="round"/><path d="M331.9143,188.78277c0,0 0.93012,1.14948 1.58504,1.44095c0.5475,0.24366 -0.79253,-1.6571 -0.79253,-1.6571l0.28819,-1.3689c0,0 3.08362,-0.32575 4.17876,0.64843c0.75003,0.66719 1.76251,2.62455 0.07205,3.24214c-1.60264,0.58551 -4.61104,-0.07205 -4.61104,-0.07205c0,0 -1.93547,-0.70108 -2.08938,-1.65709c-0.24302,-1.50948 1.08071,-2.23348 1.08071,-2.23348z" fill="#000000" stroke="#000000" stroke-width="0.5" stroke-linecap="round"/></g><path d="M302.22222,126.49306l87.55556,23.88889v-57.33334l-87.66667,26.88889l-1.61235,3.26104z" fill="url(#color-1)" stroke="#323231" stroke-width="0" stroke-linecap="round"/></g></g></svg>