<svg version="1.1" xmlns="http://www.w3.org/2000/svg" xmlns:xlink="http://www.w3.org/1999/xlink" width="81" height="20.5" viewBox="0,0,81,20.5"><g transform="translate(-292.2,-169.75)"><g data-paper-data="{&quot;isPaintingLayer&quot;:true}" fill-rule="nonzero" stroke-linejoin="miter" stroke-miterlimit="10" stroke-dasharray="" stroke-dashoffset="0" style="mix-blend-mode: normal"><path d="M292.45,190v-20h80.5v20z" fill="#151515" stroke="#000000" stroke-width="0.5" stroke-linecap="butt"/><path d="" data-paper-data="{&quot;index&quot;:null}" fill="none" stroke="#ffffff" stroke-width="0.25" stroke-linecap="butt"/><path d="" data-paper-data="{&quot;index&quot;:null}" fill="none" stroke="#ffffff" stroke-width="0.25" stroke-linecap="butt"/><g fill="none" stroke="#ffffff" stroke-width="0.5" stroke-linecap="round"><path d="M352.71481,182.00148l2.78553,1.60809l12.99124,-3.13989l1.68769,6.94698l-14.71819,-1.60918l-5.69103,1.29519l-2.15866,-3.25959" data-paper-data="{&quot;index&quot;:null}"/><path d="M347.80763,173.71895h4.74907v10.04761h-22.41089l-0.78498,-4.70982l-0.03924,-1.02047l0.78498,-4.35657l5.1023,0.03925l1.2952,-1.72693h10.20459z" data-paper-data="{&quot;index&quot;:null}"/><path d="M304.90907,178.11475h5.65178l0.86347,-2.47265h8.43843l-0.31399,-3.61086l0.51022,-0.66721h15.97413l0.35323,0.35322l0.19625,0.25513l-0.43173,0.29436h-15.77789v3.41462h1.05971l0.98121,0.98121l0.23549,1.45219h6.67224v0.98121h-6.5545l-0.39248,1.88393l-0.78498,0.78498l-1.68769,0.23549h-8.32068l-1.17744,-2.86513h-5.65178l-0.11774,-0.66722z" data-paper-data="{&quot;index&quot;:null}"/></g></g></g></svg>