<svg version="1.1" xmlns="http://www.w3.org/2000/svg" xmlns:xlink="http://www.w3.org/1999/xlink" width="10.89715" height="16.45553" viewBox="0,0,10.89715,16.45553"><g transform="translate(-315.01952,-171.76174)"><g data-paper-data="{&quot;isPaintingLayer&quot;:true}" fill-rule="nonzero" stroke-linejoin="miter" stroke-miterlimit="10" stroke-dasharray="" stroke-dashoffset="0" style="mix-blend-mode: normal"><path d="M323.95237,178.63393l-0.04762,5.71429l-1.14285,2.38095l-1.09524,1.14286l-2.85714,0.23809l-1.90476,-1.04762c0,0 -0.61997,-0.46688 -1.57143,-3.23809c-1.02406,-2.98267 0.7439,-7.25698 1.23655,-7.95348c0.41438,-0.58585 1.43012,-0.9989 1.43012,-0.9989h3.52381l1.04762,0.7619z" fill="#484a39" stroke="#000000" stroke-width="0" stroke-linecap="round"/><path d="M316.95238,175.77679v-0.66666h5.52381v0.66666z" fill="#9fa49b" stroke="#000000" stroke-width="0" stroke-linecap="butt"/><path d="M315.42857,178.44345v-0.47619h8.19048v0.47619z" fill="#888f86" stroke="#000000" stroke-width="0" stroke-linecap="butt"/><path d="M315.76191,178.11012v-0.85715h7.76191v0.85715z" fill="#1f2319" stroke="#000000" stroke-width="0" stroke-linecap="butt"/><path d="M316.38095,186.58631v-0.7619h6.61905v0.7619z" fill="#1f2319" stroke="none" stroke-width="0" stroke-linecap="butt"/><path d="M315.38095,183.01488v-0.61905h8.71429v0.61905z" fill="#60655f" stroke="none" stroke-width="0" stroke-linecap="butt"/><path d="M315.43018,182.63393v-1.28571h8.46812v1.28571z" fill="#161912" stroke="none" stroke-width="0" stroke-linecap="butt"/><path d="M318.14286,187.63393c0,0 -2.82967,-6.2533 0.09524,-12.61905" fill="none" stroke="#000000" stroke-width="0.5" stroke-linecap="round"/><path d="M319.76191,174.91965l0.14285,12.90476" fill="none" stroke="#000000" stroke-width="0.5" stroke-linecap="round"/><path d="M321.15107,175.11012c2.92491,6.36575 0.09524,12.61905 0.09524,12.61905" data-paper-data="{&quot;index&quot;:null}" fill="none" stroke="#000000" stroke-width="0.5" stroke-linecap="round"/><path d="M323.90476,184.34822c-0.15004,1.0203 -1.32095,3.15345 -2.38095,3.52381c-1.06,0.37036 -2.47105,0.24183 -3.33333,0.09524c-0.86228,-0.14659 -2.3711,-2.18879 -2.76191,-4.14286c-0.39081,-1.95407 -0.34704,-3.67096 -0.04762,-5.09524c0.29942,-1.42428 1.25397,-3.68471 2.61905,-3.85714c1.36508,-0.17243 5.57143,-0.71429 5.57143,-0.71429c0,0 0.48337,9.17018 0.33333,10.19048z" fill="none" stroke="#000000" stroke-width="0.5" stroke-linecap="round"/><path d="M323.85713,184.63394c0,0 0.22958,-4.373 -0.19048,-6.09524c-0.42005,-1.72223 -0.86867,-3.45796 -2.19047,-3.66666c-1.3218,-0.2087 -3.42857,0.04762 -3.42857,0.04762l-0.19047,-1.52381l-0.90476,-0.04762l-0.23809,-1.19048l5.57143,-0.14286c0,0 1.4711,1.88749 2.19047,3.7619c0.71937,1.87441 1.13899,3.3741 1.19048,5.04762c0.05149,1.67351 -0.66667,4.23809 -0.66667,4.23809l-1.14285,-0.42857z" fill="#161912" stroke="#000000" stroke-width="0.5" stroke-linecap="round"/></g></g></svg>