<svg version="1.1" xmlns="http://www.w3.org/2000/svg" xmlns:xlink="http://www.w3.org/1999/xlink" width="121.54649" height="95.16278" viewBox="0,0,121.54649,95.16278"><g transform="translate(-256.1897,-146.25564)"><g data-paper-data="{&quot;isPaintingLayer&quot;:true}" fill-rule="nonzero" stroke="none" stroke-linecap="butt" stroke-linejoin="miter" stroke-miterlimit="10" stroke-dasharray="" stroke-dashoffset="0" style="mix-blend-mode: normal"><path d="M335.10186,199.96845c1.31376,0.43792 2.14202,-0.09193 2.61984,-0.65403c8.21011,0.06804 16.38014,0.66732 24.48889,2.07744c2.7421,0.47686 6.82578,0.53232 8.83467,2.87592c2.20945,2.57757 1.97506,6.84554 1.48702,9.92376c-0.40902,0.43137 -3.22918,3.42138 -3.41049,3.54398c-5.53033,3.73991 -12.25067,2.74747 -18.50294,2.46597c-2.34158,-0.10542 -5.92968,0.67328 -8.20854,0.0822c-2.78658,-0.72277 -6.44643,-4.55478 -9.70813,-1.52998c-1.19276,1.10613 -0.92323,3.14401 -1.0831,4.76285c-0.45425,4.59985 1.46967,7.79081 4.1511,10.58211c-5.30473,0.38532 -10.7362,1.82723 -15.87979,2.22575c-8.70159,0.67419 -17.17221,-0.95742 -25.76583,-1.28138c1.8837,-4.13226 4.52706,-8.20524 6.85119,-12.11878c0.92367,-1.55534 2.33133,-2.81786 2.70797,-4.58715c0.0298,-0.13999 0.05279,-0.28052 0.07026,-0.4212l0.04918,0.00987l0.5158,-2.58897c0.03842,-0.17418 0.05818,-0.35552 0.05818,-0.54125c0,-1.38071 -1.12555,-2.50522 -2.50626,-2.50522c-0.63486,0 -1.21558,0.2355 -1.6565,0.62539l-1.95051,1.70641c-10.49382,5.73537 -29.39341,11.50645 -37.23012,-0.89758c0.22459,-1.55901 0.62911,-3.09374 0.81706,-4.65758c0.07412,-0.61666 -0.28444,-1.31978 0.01335,-1.86483c0.33786,-0.6184 1.21475,-0.7485 1.6946,-1.26455c0.59862,-0.64378 0.82797,-1.60306 1.49805,-2.17208c0.62152,-0.52777 2.90233,0.86525 2.92962,0.87706c1.20828,0.523 2.37923,1.18422 3.66395,1.47225c4.39468,0.98526 10.91082,0.22833 15.2281,-0.7897c5.63518,-1.3288 7.74713,-5.6281 10.6619,-9.96054c1.4286,-0.19341 1.939,-1.7277 1.939,-1.7277c0.98724,-3.35756 1.60919,-3.41371 -0.17795,-7.02938c-1.12004,-2.26602 -3.23107,-4.37381 -4.40734,-6.71963c-0.81976,-1.63484 -0.56022,-2.42478 -0.55056,-4.2163c0.0191,-3.54293 -0.07631,-7.05661 0.26023,-10.58669c0.07713,-0.80908 -0.38005,-4.91466 0.84629,-5.31781c1.63483,-0.53744 3.62713,1.26216 4.80624,2.31062l0.23709,2.02119c0.11199,1.27707 1.14105,2.18854 2.4472,2.18854c1.18975,0 2.18945,-0.83274 2.4421,-1.94604l0.78111,-3.11613l-0.01866,-0.00465c0.01245,-0.02482 0.02489,-0.04972 0.03717,-0.07464c0.4261,-0.86465 0.35461,-1.89581 0.51636,-2.84608c0.04769,-0.28015 0.11553,-0.55965 0.1663,-0.84023c0.78264,3.10165 3.20452,5.32799 6.56736,5.89783c2.19953,0.37271 4.45257,-0.50722 6.68346,-0.50433c2.53533,0.00329 8.27837,0.84593 10.21168,-1.24483c0.56251,-0.60833 0.89263,-1.38337 1.09735,-2.21367c0.6657,1.44817 1.58201,2.90172 1.98651,3.553c0.80066,1.2891 1.01374,3.55259 2.51033,3.80371c1.66783,0.27986 2.96051,-1.65524 4.32546,-2.65368c0.3148,-0.23027 0.4287,-0.6517 0.64307,-0.97754c1.66544,2.26202 1.24839,5.18103 1.03552,7.88711c-0.67133,8.53432 -5.94467,15.83694 -7.87325,24.13414c-0.32594,0.36854 -0.5607,0.90489 -0.5607,1.67144c0,0.16371 0.01071,0.31809 0.03075,0.46106c-0.09798,0.72979 -0.03925,2.13838 1.67801,2.7108z" data-paper-data="{&quot;noHover&quot;:false,&quot;origItem&quot;:[&quot;Path&quot;,{&quot;applyMatrix&quot;:true,&quot;segments&quot;:[[[335.1512,199.97657],[0,0],[-1.71726,-0.57242]],[[333.47253,197.273],[-0.09798,0.72979],[-0.02004,-0.14297]],[[333.44177,196.81333],[0,0.16371],[0,-0.76655]],[[334.00275,195.14673],[-0.32594,0.36854],[1.92858,-8.2972]],[[341.89105,171.0433],[-0.67133,8.53432],[0.21287,-2.70608]],[[340.86132,163.16098],[1.66544,2.26202],[-0.21437,0.32584]],[[340.21821,164.13849],[0.3148,-0.23027],[-1.36495,0.99844]],[[335.89508,166.79372],[1.66783,0.27986],[-1.49659,-0.25112]],[[333.38956,162.99267],[0.80066,1.2891],[-0.4045,-0.65128]],[[331.40685,159.44132],[0.6657,1.44817],[-0.20472,0.8303]],[[330.30978,161.6551],[0.56251,-0.60833],[-1.93331,2.09076]],[[320.11117,162.90295],[2.53533,0.00329],[-2.23089,-0.00289]],[[313.43753,163.40722],[2.19953,0.37271],[-3.36284,-0.56984]],[[306.87733,157.50811],[0.78264,3.10165],[-0.05077,0.28058]],[[306.71148,158.34822],[0.04769,-0.28015],[-0.16175,0.95027]],[[306.1967,161.19385],[0.4261,-0.86465],[-0.01228,0.02492]],[[306.1596,161.26847],[0.01245,-0.02482],[0,0]],[306.17824,161.27313],[[305.39939,164.38852],[0,0],[-0.25265,1.1133]],[[302.96135,166.33292],[1.18975,0],[-1.30615,0]],[[300.47101,164.05418],[0.11199,1.27707],[0,0]],[[300.27787,162.12281],[0,0],[-1.17911,-1.04846]],[[295.47507,159.81038],[1.63483,-0.53744],[-1.22634,0.40315]],[[294.63246,165.12585],[0.07713,-0.80908],[-0.33654,3.53008]],[[294.37993,175.70588],[0.0191,-3.54293],[-0.00966,1.79152]],[[294.93363,179.91851],[-0.81976,-1.63484],[1.17627,2.34582]],[[299.34456,186.63284],[-1.12004,-2.26602],[1.78714,3.61567]],[[299.52851,193.64627],[0.98724,-3.35756],[0,0]],[[297.59023,195.36872],[1.4286,-0.19341],[-2.91477,4.33244]],[[286.92668,205.31175],[5.63518,-1.3288],[-4.31728,1.01803]],[[271.60139,206.12473],[4.39468,0.98526],[-1.28472,-0.28803]],[[267.93705,204.65033],[1.20828,0.523],[-0.02729,-0.01181]],[[265.1064,203.75904],[0.62152,-0.52777],[-0.67008,0.56902]],[[263.60808,205.92933],[0.59862,-0.64378],[-0.47985,0.51605]],[[261.91333,207.19303],[0.33786,-0.6184],[-0.29779,0.54505]],[[261.89966,209.05627],[0.07412,-0.61666],[-0.18795,1.56384]],[[261.08166,213.71022],[0.22459,-1.55901],[7.83671,12.40403]],[[298.30023,214.58781],[-10.49382,5.73537],[0,0]],[[300.25059,212.88124],[0,0],[0.44092,-0.38989]],[[301.90596,212.25471],[-0.63486,0],[1.38071,0]],[[304.40596,214.75471],[0,-1.38071],[0,0.18573]],[[304.34729,215.29562],[0.03842,-0.17418],[0,0]],[303.82973,217.88343],[[303.78063,217.87361],[0,0],[-0.01747,0.14068]],[[303.71009,218.29464],[0.0298,-0.13999],[-0.37664,1.76929]],[[300.94954,222.96685],[0.92367,-1.55534],[-2.32413,3.91354]],[[294.15026,235.00016],[1.8837,-4.13226],[8.59362,0.32396]],[[319.88665,236.27456],[-8.70159,0.67419],[5.14359,-0.39852]],[[335.74756,234.05408],[-5.30473,0.38532],[-2.68143,-2.7913]],[[331.59488,223.47281],[-0.45425,4.59985],[0.15987,-1.61884]],[[332.67286,218.71321],[-1.19276,1.10613],[3.2617,-3.0248]],[[342.37342,220.24994],[-2.78658,-0.72277],[2.27886,0.59108]],[[350.57768,220.17311],[-2.34158,-0.10542],[6.25227,0.2815]],[[369.07532,217.71704],[-5.53033,3.73991],[0.18131,-0.1226]],[[372.48451,214.17675],[-0.40902,0.43137],[0.48804,-3.07822]],[[370.9957,204.2611],[2.20945,2.57757],[-2.00889,-2.3436]],[[362.16082,201.387],[2.7421,0.47686],[-8.10875,-1.41012]],[[337.77138,199.32002],[8.21011,0.06804],[-0.47782,0.5621]],[[335.15119,199.97659],[1.31376,0.43792],[0,0]]],&quot;closed&quot;:true,&quot;fillColor&quot;:[0,0,0],&quot;strokeWidth&quot;:0.5}]}" fill="#ffffff" stroke-width="0.25"/><path d="M344.19777,235.6357c0.49029,2.45145 -1.96116,2.94174 -1.96116,2.94174l-1.80951,0.31239c-0.87948,0 -1.75896,0 -2.63843,0c0,0 -0.17748,0 -0.43787,-0.04729c-5.63933,0.09669 -11.72474,2.00753 -17.01509,2.4118c-9.80093,0.74897 -19.27296,-1.30912 -28.98344,-1.30912c0,0 -1.35652,0 -2.07108,-0.99924c-0.1011,-0.04942 -0.20422,-0.10663 -0.30929,-0.1723c-2.12,-1.325 -0.79499,-3.44499 -0.79499,-3.44499l1.15468,-1.8011c1.89365,-4.21434 4.40604,-8.32382 6.82975,-12.30914c-8.44868,3.80841 -16.99131,5.21819 -26.58083,3.65541c-2.34886,-0.38279 -4.90071,-0.64673 -6.85031,-2.01155c-3.09327,-2.16546 -4.83674,-4.85428 -6.5405,-8.11852c0.14988,-2.40211 0.1282,-7.62933 1.27908,-9.8411c0.5394,-1.03662 1.7227,-1.58215 2.52674,-2.43011c0.9475,-0.99926 1.5034,-2.46751 2.72318,-3.10658c4.08666,-2.14106 6.29743,1.02988 9.8633,1.85581c1.55446,0.36004 3.19097,-0.04946 4.78658,-0.04855c3.70524,0.00213 9.08482,0.29931 12.00181,-2.48226c1.00302,-0.95645 1.83741,-2.26366 2.62196,-3.599c-1.61368,-0.03868 -3.3226,-0.22198 -4.40964,-0.95323h-0.00002c-1.15421,-0.77643 -1.54276,-2.31864 -2.40204,-3.41258c-0.67958,-0.86517 -1.87368,-1.4059 -2.2065,-2.45451c-1.21051,-3.81395 0.08099,-9.30821 3.78787,-11.3503c0.71142,-0.39192 1.53207,-0.49105 2.35396,-0.58686c-0.29812,-3.95343 0.21749,-8.30332 0.53912,-11.68378c0.18982,-1.99511 -0.49083,-4.22268 0.44283,-5.99602c2.64127,-5.01665 7.79969,-4.44142 11.81372,-1.69424c0.75734,-2.70539 1.77173,-6.61375 6.30305,-5.26888c3.50026,1.03886 2.33573,4.18817 4.2815,6.01533c1.54361,1.4495 2.64393,0.37608 4.52208,0.20331c0.0984,-0.00905 5.77966,-0.00775 5.99518,-0.00728c0.88532,0.00194 1.77176,-0.0328 2.65593,0.01217c0.38066,0.01936 0.95102,0.51728 1.12916,0.18031c0.86256,-1.63156 -1.54692,-6.75916 2.7643,-6.72169c5.10805,0.0444 5.60398,4.13487 7.05369,7.16423c0.22411,0.46831 0.58247,0.88713 0.87555,1.3263c0.90393,-0.69275 2.04823,-1.09211 3.02851,-1.69167c1.43758,0.68188 3.12117,0.99123 4.31273,2.04564c2.65441,2.34887 2.02182,5.01575 2.05145,8.10001c0.09182,9.55641 -5.13744,17.19566 -7.546,26.0251c7.95896,0.13608 15.80189,0.74757 23.68031,2.11783c4.11435,0.71559 8.77952,1.1124 11.7449,4.51352c3.69248,4.23505 3.31586,10.38871 2.205,15.41331c-1.20085,1.43935 -3.49986,4.37804 -5.03379,5.43039c-6.53413,4.4827 -14.16694,3.69 -21.60655,3.34848c-2.82264,-0.12957 -6.46897,0.59082 -9.2094,-0.07682c-0.9676,-0.23573 -1.74523,-0.95877 -2.64086,-1.39733c-0.04846,-0.02116 -0.09533,-0.04322 -0.14051,-0.06584c-0.56101,-0.24863 -1.19917,-0.31176 -1.74115,-0.59993c-0.24471,-0.13011 -0.55092,-0.89881 -0.55213,-0.62166c-0.00171,0.39366 0.45903,0.66201 0.55028,1.04496c0.43118,1.80938 0.26274,3.79546 1.05079,5.48032c0.90974,1.945 3.32383,3.48787 5.1551,4.89061c0.34721,0.13682 0.69222,0.36745 0.96185,0.7488c0.15016,0.03653 0.30006,0.0749 0.44968,0.11517c0.15622,0.01014 0.49435,0.04739 0.86923,0.18435c-0.32466,0.081 -0.66991,0.17174 -1.02319,0.26845c0.05604,0.1507 0.10312,0.31614 0.13944,0.49772zM318.15677,193.61721c4.56439,1.34161 8.97856,5.94406 8.97667,10.71127c1.01903,-2.89103 3.20661,-5.35477 6.3106,-6.57613c-0.0031,-0.17721 0.00985,-0.34045 0.0285,-0.47935c-0.02004,-0.14297 -0.03076,-0.29596 -0.03076,-0.45967c0,-0.76655 0.23504,-1.29806 0.56098,-1.6666c1.92858,-8.2972 7.21697,-15.56911 7.8883,-24.10343c0.21287,-2.70608 0.63571,-5.6203 -1.02973,-7.88232c-0.21437,0.32584 -0.32831,0.74724 -0.64311,0.97751c-1.36495,0.99844 -2.6553,2.93509 -4.32313,2.65523c-1.49659,-0.25112 -1.70486,-2.51195 -2.50552,-3.80105c-0.4045,-0.65128 -1.31701,-2.10318 -1.98271,-3.55135c-0.20472,0.8303 -0.53456,1.60545 -1.09707,2.21378c-1.93331,2.09076 -7.66328,1.25114 -10.19861,1.24785c-2.23089,-0.00289 -4.47411,0.87698 -6.67364,0.50427c-3.36284,-0.56984 -5.77756,-2.79746 -6.5602,-5.89911c-0.05077,0.28058 -0.11816,0.55996 -0.16585,0.84011c-0.16175,0.95027 -0.08868,1.98098 -0.51478,2.84563c-0.01228,0.02492 -0.02465,0.0498 -0.0371,0.07462l0.01864,0.00466l-0.77885,3.11539c-0.25265,1.1133 -1.24829,1.9444 -2.43804,1.9444c-1.30615,0 -2.37835,-1.00167 -2.49034,-2.27874l-0.19314,-1.93137c-1.17911,-1.04846 -3.16797,-2.84987 -4.8028,-2.31243c-1.22634,0.40315 -0.76548,4.50639 -0.84261,5.31547c-0.33654,3.53008 -0.23343,7.0371 -0.25253,10.58003c-0.00966,1.79152 -0.26606,2.57779 0.5537,4.21263c1.17627,2.34582 3.29089,4.44831 4.41093,6.71433c1.76065,3.56208 1.18892,3.65389 0.2276,6.86629c5.94325,-0.19408 12.98626,-1.52744 18.58461,0.11808zM313.88381,220.19169c2.27291,1.17281 2.63354,2.99307 4.28573,4.65274c0.69443,0.69757 1.76912,1.0086 2.32416,1.82147c2.0425,2.99129 2.05382,4.75216 2.61113,7.99373c0,0 0.101,0.60599 -0.09754,1.26723c4.18726,-0.58424 8.49825,-1.56465 12.74028,-1.87278c-2.68143,-2.7913 -4.60693,-5.98142 -4.15268,-10.58127c0.14688,-1.48734 -0.07303,-3.32567 0.81534,-4.47239c-1.585,-1.44911 -3.02743,-3.07585 -4.06996,-4.6773c-1.42214,-2.18456 -1.99265,-4.64494 -1.82553,-7.01255c-0.18044,0.41704 -0.40266,0.83029 -0.66962,1.23757c-1.23932,1.89073 -4.18413,3.29913 -6.00281,4.3581c-3.95307,0.46435 -8.00804,0.57543 -11.99248,0.38769c-1.32509,-0.06244 -2.80855,-0.2884 -4.27166,-0.39767c0.50824,0.45761 0.8278,1.12071 0.8278,1.85845c0,0.18573 -0.02025,0.36673 -0.05867,0.54091l-0.51756,2.58781l-0.0491,-0.00982c-0.01747,0.14068 -0.04074,0.28104 -0.07054,0.42103c-0.02126,0.09985 -0.04596,0.19835 -0.07383,0.29563c3.38387,0.02318 7.54181,0.20529 10.24754,1.60143zM286.8844,217.50636c-5.04683,-0.50076 -11.01847,-5.13392 -7.38938,-10.97576c0.01679,-0.02703 0.03384,-0.05377 0.05114,-0.08022c-2.82554,0.22097 -5.67981,0.18213 -7.94476,-0.32566c-1.28472,-0.28803 -2.45606,-0.9514 -3.66434,-1.4744c-0.02729,-0.01181 -2.20913,-1.41906 -2.83065,-0.89129c-0.67008,0.56902 -0.8997,1.52651 -1.49832,2.17029c-0.47985,0.51605 -1.35689,0.6453 -1.69475,1.2637c-0.29779,0.54505 0.06045,1.24658 -0.01367,1.86324c-0.18795,1.56384 -0.59341,3.09494 -0.818,4.65395c7.83671,12.40403 26.72475,6.61296 37.21857,0.87759l1.78857,-1.565c-4.8824,0.98858 -7.69597,5.03012 -13.20441,4.48356zM356.54703,205.54073c2.15743,3.87949 1.20347,10.55291 1.15702,14.96494c3.98522,0.03509 7.91025,-0.4481 11.37128,-2.78863c0.18131,-0.1226 3.00017,-3.10892 3.40919,-3.54029c0.48804,-3.07822 0.72064,-7.33808 -1.48881,-9.91565c-2.00889,-2.3436 -6.09278,-2.39724 -8.83488,-2.8741c-4.12592,-0.7175 -8.24196,-1.22237 -12.37153,-1.55419c2.12225,1.35366 6.01971,4.38081 6.75773,5.70792zM287.59355,186.35827c0.22195,0.60595 1.09511,0.72683 1.48731,1.23929c0.55073,0.71961 0.59391,1.81394 1.29177,2.39197c1.06458,0.88177 2.76342,0.10809 4.14574,0.10231h0.52769c0,0 0.07902,0 0.20896,0.01405c-0.08541,-0.97254 -0.96827,-1.35312 -2.05185,-3.028c-1.04196,-1.61054 -2.00101,-3.28423 -2.79386,-5.03092c-0.10552,-0.23247 -0.20376,-0.47097 -0.29512,-0.71498c-1.98524,0.66504 -3.49318,2.37109 -2.52063,5.02628z" fill="#000000" stroke-width="0.5"/><path d="M287.54398,186.36483c-0.97255,-2.65519 0.57259,-4.41624 2.55783,-5.08128c0.09136,0.24401 0.19095,0.48218 0.29647,0.71465c0.79285,1.74669 1.80531,3.49565 2.84727,5.10619c1.08358,1.67488 1.95829,2.06539 2.0437,3.03793c-0.12994,-0.01405 -0.20989,-0.0132 -0.20989,-0.0132l-0.53054,0.00236c-1.38232,0.00578 -3.12232,0.78867 -4.1869,-0.0931c-0.69786,-0.57803 -0.76965,-1.69027 -1.32038,-2.40988c-0.3922,-0.51246 -1.27565,-0.65772 -1.4976,-1.26367z" data-paper-data="{&quot;noHover&quot;:false,&quot;origItem&quot;:[&quot;Path&quot;,{&quot;applyMatrix&quot;:true,&quot;segments&quot;:[[[287.59354,186.35827],[0,0],[0.22195,0.60595]],[[289.08085,187.59756],[-0.3922,-0.51246],[0.55073,0.71961]],[[290.37262,189.98953],[-0.69786,-0.57803],[1.06458,0.88177]],[[294.51836,190.09184],[-1.38232,0.00578],[0,0]],[295.04605,190.09184],[[295.25501,190.10589],[-0.12994,-0.01405],[-0.08541,-0.97254]],[[293.20315,187.07789],[1.08358,1.67488],[-1.04196,-1.61054]],[[290.4093,182.04697],[0.79285,1.74669],[-0.10552,-0.23247]],[[290.11418,181.33199],[0.09136,0.24401],[-1.98524,0.66504]],[[287.59355,186.35827],[-0.97255,-2.65519],[0,0]]],&quot;closed&quot;:true,&quot;fillColor&quot;:[0,0,0],&quot;strokeWidth&quot;:0.5}]}" fill="#ff6cbf" stroke-width="0.25"/><path d="M270.14725,237.87203c-1.48219,2.01323 -3.49542,0.53104 -3.49542,0.53104l-1.83558,-2.16075c-0.32686,-1.6343 -0.65372,-3.2686 -0.98058,-4.9029c0,0 -0.49029,-2.45145 1.96116,-2.94174c2.45145,-0.49029 2.94174,1.96116 2.94174,1.96116c0.32686,1.6343 0.65372,3.2686 0.98058,4.9029l-0.10294,-0.88514c0,0 2.01323,1.48219 0.53104,3.49542z" fill="#000000" stroke-width="0.5"/><path d="M275.91558,236.95484c-2.41191,0.65779 -3.0697,-1.75412 -3.0697,-1.75412l-0.8575,-3.22824c-0.00737,-0.99009 -0.01475,-1.98018 -0.02212,-2.97027c0,0 0,-2.5 2.5,-2.5c2.5,0 2.5,2.5 2.5,2.5c-0.00737,0.76887 -0.01475,1.53773 -0.02212,2.3066l0.72556,2.57632c0,0 0.65779,2.41191 -1.75412,3.0697z" fill="#000000" stroke-width="0.5"/><path d="M354.67464,161.58374c-2.5,0 -2.5,-2.5 -2.5,-2.5l0.15052,-0.99255c-0.337,-1.18311 -1.17209,-2.38716 -2.29459,-2.89046c0,0 -2.18539,-1.21411 -0.97129,-3.3995c1.21411,-2.18539 3.3995,-0.97129 3.3995,-0.97129c1.02084,0.62739 2.30152,0.95664 3.06251,1.88218c0.83962,1.02118 1.00189,2.4469 1.50283,3.67035l0.15052,2.70126c0,0 0,2.5 -2.5,2.5z" fill="#000000" stroke-width="0.5"/><path d="M358.30578,163.16671c-2.23607,-1.11803 -1.11803,-3.3541 -1.11803,-3.3541l0.83286,-1.66216c2.10363,-3.82753 3.51271,-4.77994 -0.33106,-7.33476c0,0 -2.02184,-1.47043 -0.55141,-3.49227c1.47043,-2.02184 3.49227,-0.55141 3.49227,-0.55141c1.14972,0.88531 2.59674,1.48162 3.44915,2.65594c2.79563,3.85142 0.19316,7.67915 -1.66947,11.11677l-0.7502,1.50396c0,0 -1.11803,2.23607 -3.3541,1.11803z" fill="#000000" stroke-width="0.5"/></g></g></svg>