<svg version="1.1" xmlns="http://www.w3.org/2000/svg" xmlns:xlink="http://www.w3.org/1999/xlink" width="32.80895" height="37.74936" viewBox="0,0,32.80895,37.74936"><g transform="translate(-308.84552,-167.12532)"><g data-paper-data="{&quot;isPaintingLayer&quot;:true}" fill-opacity="0.50196" fill="#ff1414" fill-rule="nonzero" stroke="none" stroke-width="0.5" stroke-linecap="butt" stroke-linejoin="miter" stroke-miterlimit="10" stroke-dasharray="" stroke-dashoffset="0" style="mix-blend-mode: normal"><path d="M325.37842,168.6642c2.16435,-1.54153 13.09382,-2.98869 13.66087,1.28305c0.33936,2.55648 -0.98833,3.59633 -2.72445,3.99517c0.36396,0.617 0.57276,1.33643 0.57276,2.10465c0,0.17143 -0.0104,0.34043 -0.0306,0.5064l0.80879,0.04494l1.39142,1.62332l1.30125,2.60252l0.04046,0.02311l0.02891,0.11559l0.05169,0.10339l0.20677,0.93049l0.16341,0.65369l0.09193,0.14446l0.23706,0.71115l0.05114,0.66489l0.16174,0.64695v5.2122l0.00587,0.02642l0.23118,0.92473v0.11559l0.02585,0.1163l-0.02585,0.03876v2.30327l0.02585,0.03876l-0.02585,0.1163v0.11559l-0.23118,0.92473l-0.20677,0.93049l-0.05169,0.10339l-0.02891,0.11559l-0.04046,0.02311l-0.22121,0.44242l-0.14382,0.43147l-0.16031,0.25191l-0.06476,0.29148l-0.04741,0.09482l-0.18965,0.85339l-0.05169,0.10339l-0.02891,0.11559l-0.04046,0.02311l-0.82716,1.65431l-0.22043,0.25717l-0.01148,0.20664l-0.62435,0.53516l-0.53516,0.62435l-0.02439,0.00136l-0.00136,0.02439l-0.62435,0.53516l-0.53516,0.62435l-0.17777,0.00987l-0.1561,0.1561l-0.57183,0.34309l-0.50632,0.43399l-0.4741,0.23706l-0.21913,0.0487l-0.06198,0.03719l-0.03048,-0.00831l-0.2318,0.1475l-0.71115,0.23706l-0.66489,0.05114l-0.64695,0.16174h-2.33689l-0.03876,0.02585l-0.1163,-0.02585h-0.11559l-0.92375,-0.23093l-0.0296,0.01973l-0.1163,-0.02585h-0.11559l-0.92473,-0.23118l-0.86333,-0.19186l-0.26015,0.07095l-0.45707,-0.27424l-0.51712,-0.12928l-0.15739,-0.27542l-0.6922,-0.41532l-0.35374,-0.17687l-0.50632,-0.43399l-0.57183,-0.34309l-0.4741,-0.4741l-0.34309,-0.57183l-0.04993,-0.05824l-0.12674,-0.12674l-0.0457,-0.00914l-0.06397,-0.10052l-0.08174,-0.08174l-0.49041,-0.81735l-0.51175,-0.80418l-0.03656,-0.10967l-0.0613,-0.10217l0.01226,-0.04495l-0.15145,-0.45437l-0.05114,-0.66489l-0.16174,-0.64695v-8.02612l-0.02585,-0.03876l0.02585,-0.1163v-0.11559l0.23118,-0.92473l0.20677,-0.93049l0.05169,-0.10339l0.26595,-1.0638l0.14222,-0.08128l0.00909,-0.16356l0.62226,-0.53337l0.85261,-1.70521l0.18965,-0.85339l0.05169,-0.10339l0.02891,-0.11559l0.03393,-0.0194l0.37155,-1.11466l0.43938,-0.69046l0.01258,-0.22654c-0.31184,0.16628 -0.57047,0.22376 -0.57047,0.22376c-4.12608,0.42551 -4.30556,10.1739 -4.30461,13.48686l-0.24477,2.47357c0,0 -0.20639,2.06391 -2.2703,1.85752c-2.06391,-0.20639 -1.85752,-2.2703 -1.85752,-2.2703l0.22934,-2.26745c0.00078,-2.80145 0.16099,-6.24024 0.96892,-9.3376l-1.44962,-0.20684c-14.00277,-4.89604 1.20816,-21.58606 9.39898,-13.5147c0.41874,-0.72655 0.76798,-1.52208 1.43795,-1.99925zM322.1131,175.07826c-2.92761,-6.88123 -14.57971,2.58303 -6.25977,5.16437l1.49777,0.14662c0,0 0.08081,0.01011 0.20843,0.04231c1.12022,-1.9187 2.72332,-3.39948 5.01063,-4.03881c0,0 0.14081,-0.0313 0.35641,-0.04024c0.01615,-0.11423 0.0373,-0.22795 0.06327,-0.34097c-0.58449,-0.3488 -0.87674,-0.93331 -0.87674,-0.93331z"/></g></g></svg>