<svg version="1.1" xmlns="http://www.w3.org/2000/svg" xmlns:xlink="http://www.w3.org/1999/xlink" width="137.2891" height="44.4322" viewBox="0,0,137.2891,44.4322"><defs><radialGradient cx="252.8041" cy="177.99741" r="9.22801" gradientUnits="userSpaceOnUse" id="color-1"><stop offset="0" stop-color="#4a4a4a"/><stop offset="1" stop-color="#000000"/></radialGradient><linearGradient x1="261.02447" y1="179.12123" x2="364.39341" y2="179.12123" gradientUnits="userSpaceOnUse" id="color-2"><stop offset="0" stop-color="#282c1e"/><stop offset="1" stop-color="#17170f"/></linearGradient><radialGradient cx="318.82917" cy="183.49386" r="2.17975" gradientUnits="userSpaceOnUse" id="color-3"><stop offset="0" stop-color="#208800"/><stop offset="1" stop-color="#000000"/></radialGradient></defs><g transform="translate(-251.35478,-160.29999)"><g data-paper-data="{&quot;isPaintingLayer&quot;:true}" fill-rule="nonzero" stroke-linejoin="miter" stroke-miterlimit="10" stroke-dasharray="" stroke-dashoffset="0" style="mix-blend-mode: normal"><path d="M377.21193,170.46051l5.38351,-0.88093l5.77503,5.08985l-1.66398,8.31995l-4.11103,2.74069l-0.92987,0.14682l2.20234,-3.13221l1.46823,-7.58585z" fill="#525244" stroke="#000000" stroke-width="0.5" stroke-linecap="round"/><path d="M370.33574,182.10847l13.70346,-0.04893l-0.2882,0.8356l-2.9419,4.15639l-16.00369,0.39152z" fill="#48443a" stroke="#000000" stroke-width="0.5" stroke-linecap="round"/><path d="M316.5986,171.01111l0.0367,-1.06446l3.00987,-1.54164v2.6428" fill="#1a1f1a" stroke="#000000" stroke-width="0.5" stroke-linecap="round"/><path d="M359.5932,186.80679l-1.76187,-3.32798l1.56612,-9.2009l2.34916,-2.83857l5.77503,-1.17459l3.91528,4.50255l-1.07671,7.63479l-5.38351,4.99196z" fill="#41483a" stroke="#000000" stroke-width="0.5" stroke-linecap="round"/><path d="M281.21431,174.27791l2.78964,-3.2301h48.59834l2.78964,3.52376" fill="#40422b" stroke="#000000" stroke-width="0.5" stroke-linecap="round"/><path d="M251.62953,174.66945l4.72173,-4.17791l2.13001,-0.9267l6.75385,1.46823c0,0 4.38968,4.51536 4.73696,7.71021c0.59083,5.43525 -2.15365,8.5611 -2.15365,8.5611l-6.19827,0.71647l-2.61126,-0.49007l-5.61751,-4.54136z" fill="url(#color-1)" stroke="#000000" stroke-width="0.5" stroke-linecap="butt"/><path d="M269.5419,183.77245l-0.48504,1.17091l-3.88729,-0.15299l-3.56327,-3.41116l-0.58184,-5.04524l2.84029,-3.03488l3.32798,0.68518l95.23903,0.39152l1.96164,2.44619l-0.5928,4.90699l-2.73919,2.04347z" fill="url(#color-2)" stroke="#000000" stroke-width="0.5" stroke-linecap="butt"/><path d="M324.15997,190.20818l2.12894,12.03948l0.51389,1.248l-6.23997,0.95434l-0.22023,-0.95434l0.29364,-7.19431l-3.00987,-4.77174" fill="#0e0e0e" stroke="#000000" stroke-width="0.5" stroke-linecap="round"/><path d="M331.57451,189.10702l-1.61505,4.03762l-5.28562,1.10116" fill="none" stroke="#000000" stroke-width="0.5" stroke-linecap="round"/><path d="M326.58255,190.64866l0.73411,1.76187l-1.10116,-1.32141" fill="#000000" stroke="#000000" stroke-width="0.5" stroke-linecap="round"/><path d="M328.895,176.90604l4.25787,2.27575l-0.51389,10.05736l-8.44231,2.71623h-7.34115l-6.90067,-2.86305l-0.07341,-12.2597" fill="#444437" stroke="#000000" stroke-width="0.5" stroke-linecap="round"/><path d="M332.86971,183.09778l-3.16718,-0.01049l-0.22023,5.1388l-7.34115,-0.14682l0.27267,-6.90067l7.2887,0.07341l0.07341,1.54164h3.13572z" fill="#24241d" stroke="#000000" stroke-width="0.5" stroke-linecap="round"/><path d="M322.3142,180.10887v-1.76187h1.46823v1.76187z" fill="#24241d" stroke="#000000" stroke-width="0.5" stroke-linecap="butt"/><path d="M324.957,180.15083v-1.84577h1.88772v1.84577z" fill="#24241d" stroke="#000000" stroke-width="0.5" stroke-linecap="butt"/><path d="M328.14515,180.19278v-1.84577h2.01357v1.84577z" fill="#24241d" stroke="#000000" stroke-width="0.5" stroke-linecap="butt"/><path d="M323.32099,180.69617l-4.53052,7.50893l-1.67799,-1.21652l4.27884,-7.13139z" fill="#24241d" stroke="#000000" stroke-width="0.5" stroke-linecap="round"/><path d="M317.11248,187.03051l-0.25171,-1.00679l3.3979,-5.70511l1.09069,-0.41949" fill="#2c2c25" stroke="#000000" stroke-width="0.5" stroke-linecap="round"/><path d="M320.54587,181.16729l-2.66539,4.40469l-0.38401,-0.51952l2.34916,-3.90774z" fill="url(#color-3)" stroke="#000000" stroke-width="0" stroke-linecap="round"/><path d="M313.92642,177.80166c0,-0.20271 0.16434,-0.36705 0.36705,-0.36705c0.20271,0 0.36705,0.16434 0.36705,0.36705c0,0.20271 -0.16434,0.36705 -0.36705,0.36705c-0.20271,0 -0.36705,-0.16434 -0.36705,-0.36705z" fill="#000000" stroke="none" stroke-width="0.5" stroke-linecap="butt"/><path d="M310.22648,177.86038c0,-0.20271 0.16434,-0.36705 0.36705,-0.36705c0.20271,0 0.36705,0.16434 0.36705,0.36705c0,0.20271 -0.16434,0.36705 -0.36705,0.36705c-0.20271,0 -0.36705,-0.16434 -0.36705,-0.36705z" fill="#000000" stroke="none" stroke-width="0.5" stroke-linecap="butt"/><path d="M309.94751,179.03497v-2.2317h5.52054v2.2317z" fill="none" stroke="#000000" stroke-width="0.5" stroke-linecap="butt"/><path d="M319.64517,160.54999v7.92842" fill="none" stroke="#000000" stroke-width="0.5" stroke-linecap="round"/><path d="M285.0317,173.54379v-1.02775h21.72977v1.02775z" fill="#000000" stroke="#000000" stroke-width="0.5" stroke-linecap="butt"/><path d="M318.80094,173.69063v-1.02775h13.21405v1.02775z" fill="#000000" stroke="#000000" stroke-width="0.5" stroke-linecap="butt"/><path d="M367.42373,170.26476l12.82252,0.19575l5.1388,4.60044l-0.14682,0.48941l-13.89923,-0.09789z" fill="#48443a" stroke="#000000" stroke-width="0.5" stroke-linecap="round"/><path d="M385.23824,175.06098l-14.29075,-0.09789" fill="none" stroke="#000000" stroke-width="0.5" stroke-linecap="round"/><path d="M379.3898,171.53722c0,-0.20271 0.16434,-0.36705 0.36705,-0.36705c0.20271,0 0.36705,0.16434 0.36705,0.36705c0,0.20271 -0.16434,0.36705 -0.36705,0.36705c-0.20271,0 -0.36705,-0.16434 -0.36705,-0.36705z" fill="#000000" stroke="none" stroke-width="0.5" stroke-linecap="butt"/><path d="M381.15167,173.69063c0,-0.20271 0.16434,-0.36705 0.36705,-0.36705c0.20271,0 0.36705,0.16434 0.36705,0.36705c0,0.20271 -0.16434,0.36705 -0.36705,0.36705c-0.20271,0 -0.36705,-0.16434 -0.36705,-0.36705z" fill="#000000" stroke="none" stroke-width="0.5" stroke-linecap="butt"/><path d="M381.12719,183.62563c0,-0.20271 0.16434,-0.36705 0.36705,-0.36705c0.20271,0 0.36705,0.16434 0.36705,0.36705c0,0.20271 -0.16434,0.36705 -0.36705,0.36705c-0.20271,0 -0.36705,-0.16434 -0.36705,-0.36705z" fill="#000000" stroke="none" stroke-width="0.5" stroke-linecap="butt"/><path d="M379.51214,186.36631c0,-0.20271 0.16434,-0.36705 0.36705,-0.36705c0.20271,0 0.36705,0.16434 0.36705,0.36705c0,0.20271 -0.16434,0.36705 -0.36705,0.36705c-0.20271,0 -0.36705,-0.16434 -0.36705,-0.36705z" fill="#000000" stroke="none" stroke-width="0.5" stroke-linecap="butt"/><path d="M369.99315,182.79313h13.80134" fill="none" stroke="#000000" stroke-width="0.5" stroke-linecap="round"/><path d="M374.58309,190.15574l-2.32137,-0.36715l-1.05555,-2.88393l1.29411,-1.77784l13.72939,0.16279l1.10116,2.48549l-2.12894,2.52746z" fill="#000000" stroke="#000000" stroke-width="0.5" stroke-linecap="butt"/><path d="M361.02798,183.51102c0.06566,-0.13131 0.19699,-0.06566 0.19699,-0.06566l0.21595,0.11009c0.07125,0.07035 0.14249,0.14069 0.21374,0.21104c0.33497,0.37071 0.92091,0.63349 1.31415,1.04238c0.14196,0.14761 0.16778,0.37467 0.27304,0.55036c0.21288,0.35531 0.61524,0.637 0.87209,0.96608c0.3936,0.50427 0.62619,1.06844 0.94244,1.62188c0.85924,1.50541 2.13444,3.48078 4.10574,2.82568c1.274,-0.00143 2.2004,-1.40917 3.18286,-2.08129c0.30968,-0.21185 0.50348,-0.53528 0.85382,-0.56342c0,0 0.14682,0 0.14682,0.14682c0,0.14682 -0.14682,0.14682 -0.14682,0.14682c-0.14673,-0.02713 -0.72204,0.53543 -0.93036,0.67794c-0.98415,0.6733 -1.7533,1.96447 -3.05929,1.96297c-2.09339,0.69996 -3.49478,-1.37398 -4.40773,-2.96984c-0.31032,-0.54303 -0.5335,-1.09362 -0.91959,-1.5877c-0.26488,-0.33897 -0.66454,-0.62612 -0.88978,-0.99156c-0.09632,-0.15628 -0.1035,-0.36887 -0.23288,-0.49913c-0.41613,-0.41889 -0.93132,-0.68426 -1.31214,-1.04034c-0.05925,-0.06015 -0.11853,-0.12031 -0.17778,-0.18048l-0.17558,-0.08566c0,0 -0.13131,-0.06566 -0.06566,-0.19699z" fill="#000000" stroke="none" stroke-width="0.5" stroke-linecap="butt"/><text transform="translate(268.36731,175.52796) scale(0.02174,0.02174)" font-size="40" xml:space="preserve" fill="#ffffff" fill-rule="nonzero" stroke="none" stroke-width="1" stroke-linecap="butt" stroke-linejoin="miter" stroke-miterlimit="10" stroke-dasharray="" stroke-dashoffset="0" font-family="Pixel" font-weight="normal" text-anchor="start" style="mix-blend-mode: normal"><tspan x="0" dy="0">PROPERTY OF THE FROG ARMY</tspan></text><text transform="translate(267.77303,176.61165) scale(0.02174,0.02174)" font-size="40" xml:space="preserve" fill="#ffffff" fill-rule="nonzero" stroke="none" stroke-width="1" stroke-linecap="butt" stroke-linejoin="miter" stroke-miterlimit="10" stroke-dasharray="" stroke-dashoffset="0" font-family="Pixel" font-weight="normal" text-anchor="start" style="mix-blend-mode: normal"><tspan x="0" dy="0">USE THIS RPG PROPERLY, YOU RASCAL!</tspan></text><text transform="translate(266.93405,177.66039) scale(0.02174,0.02174)" font-size="40" xml:space="preserve" fill="#ffffff" fill-rule="nonzero" stroke="none" stroke-width="1" stroke-linecap="butt" stroke-linejoin="miter" stroke-miterlimit="10" stroke-dasharray="" stroke-dashoffset="0" font-family="Pixel" font-weight="normal" text-anchor="start" style="mix-blend-mode: normal"><tspan x="0" dy="0">...unless you're a cow.</tspan></text></g></g></svg>