<svg version="1.1" xmlns="http://www.w3.org/2000/svg" xmlns:xlink="http://www.w3.org/1999/xlink" width="142.01609" height="190.68384" viewBox="0,0,142.01609,190.68384"><g transform="translate(-253.33391,-83.15628)"><g data-paper-data="{&quot;isPaintingLayer&quot;:true}" fill-rule="nonzero" stroke="none" stroke-linecap="butt" stroke-linejoin="miter" stroke-miterlimit="10" stroke-dasharray="" stroke-dashoffset="0" style="mix-blend-mode: normal"><path d="M289.07313,192.90612c-3.14319,-1.74456 -5.68953,-5.29149 -6.69491,-8.64882c0.05109,-4.12059 -0.14658,-8.34863 0.24378,-12.44712c0.36131,-3.79349 1.59916,-7.38281 2.24951,-11.11799c0.89168,-5.12121 3.45842,-11.33398 9.05227,-13.02451c0.51035,-0.15423 2.74911,-0.15282 3.98612,-0.144c0.31491,0.38428 0.683,0.73975 1.10772,1.05743c0.23971,0.17929 0.51323,0.34094 0.80992,0.48612l-0.07839,0.47439c-1.4049,7.02446 -2.93796,14.01684 -4.22327,21.06881c-0.8253,4.13941 -1.20882,8.35071 -1.57391,12.54951c-0.20016,2.30197 -0.08818,5.18623 -0.88022,7.40662c-0.36429,1.02124 -0.99423,1.96954 -1.41645,2.94848c-0.93565,-0.03952 -1.83804,-0.19591 -2.58214,-0.60891z" data-paper-data="{&quot;noHover&quot;:false,&quot;origItem&quot;:[&quot;Path&quot;,{&quot;applyMatrix&quot;:true,&quot;segments&quot;:[[[348.47889,239.85633],[0,0],[3.14319,-1.74456]],[[355.15151,231.2151],[-1.00538,3.35733],[-0.05109,-4.12059]],[[354.88511,218.80265],[0.39036,4.09849],[-0.36131,-3.79349]],[[352.65824,207.73441],[0.65035,3.73518],[-0.89168,-5.12121]],[[343.63888,194.71731],[5.59385,1.69053],[-0.51035,-0.15423]],[[339.66083,194.57163],[1.23701,-0.00882],[-0.31491,0.38428]],[[338.55589,195.62815],[0.42472,-0.31768],[-0.23971,0.17929]],[[337.74784,196.11355],[0.29669,-0.14518],[0,0]],[[337.82645,196.58785],[0,0],[1.4049,7.02446]],[[342.08066,217.60937],[-1.28531,-7.05197],[0.8253,4.13941]],[[343.61556,230.11116],[-0.36509,-4.1988],[0.20016,2.30197]],[[344.48968,237.5168],[-0.79204,-2.22039],[0.36429,1.02124]],[[345.90245,240.46506],[-0.42222,-0.97894],[0.93565,-0.03952]],[[348.47887,239.85634],[-0.7441,0.413],[0,0]]],&quot;closed&quot;:true,&quot;fillColor&quot;:[0,0,0],&quot;strokeWidth&quot;:0.5}],&quot;index&quot;:null}" fill="#385130" stroke-width="0.25"/><path d="M298.72323,174.60416v0.66667c0,3.82171 0.23357,8.34556 -1.08702,11.9872c-0.48659,1.34182 -0.78732,3.07651 -2.03675,3.76657c-5.74694,3.17404 -8.11057,-2.65407 -8.20956,-6.75377c-0.14897,-6.1699 0.64871,-10.20262 6.25965,-13.50394c0,0 2.17061,-1.24035 3.41096,0.93026c0.12258,0.21452 0.21185,0.41996 0.27319,0.61601c1.38953,0.60098 1.38953,2.291 1.38953,2.291z" data-paper-data="{&quot;index&quot;:null}" fill="#363c1a" stroke-width="0.5"/><path d="M290.43438,148.59667c1.07873,0.43413 2.30856,0.60122 3.23618,1.30238c3.29049,2.48719 3.08087,5.71742 3.05268,9.37178c-0.01879,2.43555 0.34193,5.00018 -1.87907,6.90331c-1.86759,1.60031 -9.74757,2.19763 -11.49512,0.08453c-3.52863,-4.26673 2.33897,-7.69649 2.04086,-11.32117v-2.66667c0,0 0,-2.10081 1.92579,-2.45084c0.9428,-2.03927 3.11868,-1.22332 3.11868,-1.22332z" data-paper-data="{&quot;index&quot;:null}" fill="#162710" stroke-width="0.5"/><path d="M330.59191,161.81642c2.23465,7.20822 3.19694,14.91628 5.21284,22.17762c0.98998,3.56594 1.48767,6.548 3.45813,9.63804c0.08816,0.13825 -0.32086,-0.0844 -0.48483,-0.08487c-1.40277,-0.004 -2.81059,0.01705 -4.21215,0.07551c-2.28442,0.09528 -4.57873,0.25262 -6.86513,0.25155c-4.24885,0 -8.1928,0.84146 -12.37974,1.00557c-4.47071,0.17523 -8.75043,-0.75185 -13.16879,-0.7612c-0.6121,-0.00129 -2.34951,-0.25043 -3.83796,-0.19636c-0.09746,-0.42339 -0.31141,-0.8846 -0.74846,-1.23897c0.07097,-0.16734 0.136,-0.33711 0.19495,-0.50858c0.54399,-1.58222 0.71739,-3.91819 0.87045,-5.58825c0.4606,-5.02568 0.71122,-10.08238 1.70596,-15.03977c1.27673,-7.04002 2.86615,-14.00896 4.26839,-21.02013l0.03642,-0.2161c1.11308,0.16643 2.17981,0.29675 3.02025,0.46104c4.12957,0.01548 8.65599,0.47186 12.73947,-0.28691c1.89208,-0.35157 3.91602,-1.18633 5.58763,-2.16511c0.56603,5.08954 3.1129,8.69179 4.60255,13.49692z" data-paper-data="{&quot;noHover&quot;:false,&quot;origItem&quot;:[&quot;Path&quot;,{&quot;applyMatrix&quot;:true,&quot;segments&quot;:[[[307.00359,208.84777],[0,0],[-2.23465,7.20822]],[[301.79252,230.96503],[2.0159,-7.26134],[-0.98998,3.56594]],[[298.32804,240.59577],[1.97046,-3.09004],[-0.08816,0.13825]],[[298.81251,240.51056],[-0.16397,0.00047],[1.40277,-0.004]],[[303.02022,240.5824],[-1.40156,-0.05846],[2.28442,0.09528]],[[309.87502,240.82812],[-2.2864,0.00107],[4.24885,0]],[[322.22892,241.83028],[-4.18694,-0.16411],[4.47071,0.17523]],[[335.37502,241.07812],[-4.41836,0.00935],[0.6121,-0.00129]],[[339.2088,240.88514],[-1.48845,-0.05407],[0.09746,-0.42339]],[[339.95556,239.64777],[-0.43705,0.35437],[-0.07097,-0.16734]],[[339.76034,239.13946],[0.05895,0.17147],[-0.54399,-1.58222]],[[338.88546,233.55631],[0.15306,1.67006],[-0.4606,-5.02568]],[[337.16937,218.54689],[0.99474,4.95739],[-1.27673,-7.04002]],[[332.92358,197.56841],[1.40224,7.01117],[0,0]],[[332.88741,197.35247],[0,0],[-1.11308,0.16643]],[[329.87138,197.81596],[0.84044,-0.16429],[-4.12957,0.01548]],[[317.15952,197.5344],[4.08348,0.75877],[-1.89208,-0.35157]],[[311.58267,195.36706],[1.67161,0.97878],[-0.56603,5.08954]],[[307.00362,208.84777],[1.48965,-4.80513],[0,0]]],&quot;closed&quot;:true,&quot;fillColor&quot;:[0,0,0],&quot;strokeWidth&quot;:0.5}],&quot;index&quot;:null}" fill="#7b8a52" stroke-width="0.25"/><path d="M326.01703,157.8885c0.95657,-0.37949 1.91474,-0.77881 2.81363,-0.43358c4.05509,1.55742 3.88259,7.84471 2.88764,11.02962c-0.17267,0.55273 -1.16151,0.74724 -1.12346,1.32507c0.03496,0.53099 0.93137,0.55478 1.27405,0.96189c2.42932,2.88611 4.03631,4.40373 0.11964,7.91508c-3.54768,3.18055 -9.15319,0.1592 -11.22851,-2.89097c-3.39987,-4.99693 -2.62152,-10.96584 0.43823,-15.68131l3.08192,-1.96374c0,0 0.82853,-0.43251 1.73687,-0.26204z" data-paper-data="{&quot;index&quot;:null}" fill="#6c7834" stroke-width="0.5"/><path d="M312.68291,150.99029c0.39368,2.16969 1.1422,4.28026 1.35493,6.47509c0.58478,6.03357 -2.73648,10.13378 -8.96995,9.46729c-1.35881,-0.14529 -2.93794,0.01067 -4.01458,-0.83095c-4.46102,-3.4872 -1.10833,-9.08024 0.13155,-12.78812c0.73744,-2.20532 1.25573,-5.05296 3.31132,-6.14007c1.10043,-0.58197 2.48471,-0.15735 3.72706,-0.23603h0.33333c0,0 2.21174,0 2.47457,2.08033c1.3667,0.4046 1.65177,1.97246 1.65177,1.97246z" data-paper-data="{&quot;index&quot;:null}" fill="#385130" stroke-width="0.5"/><path d="M297.06029,180.76493c0.16023,-1.91661 2.22019,-2.14549 2.22019,-2.14549c2.99165,-0.32996 7.19902,-1.93636 10.14344,-0.86c2.46254,0.9002 4.00698,3.57894 6.76996,4.26065c4.98323,1.2295 9.93661,0.02282 14.80293,2.50914c4.2768,2.18512 8.39854,6.31182 2.86084,10.37634c-3.1816,2.33521 -9.0279,0.67795 -12.75262,1.63768c-6.01408,1.19994 -12.408,2.10945 -18.54847,2.06091c-2.37456,-0.01877 -5.26177,0.35397 -7.0078,-2.01046c-2.462,-3.33399 -0.25375,-10.2087 0.19378,-13.79963l1.31776,-2.02913z" data-paper-data="{&quot;index&quot;:null}" fill="#a8c675" stroke-width="0.5"/><path d="M274.90878,248.55519c-1.35502,-0.97906 -1.60683,-2.97576 -2.42745,-4.44777c-0.21615,-1.71691 -0.90633,-3.34025 -1.33775,-5.01607c-0.66694,-2.59068 -0.54506,-5.67884 -0.73438,-8.34378c-0.06496,-0.91446 -0.38319,-1.89379 -0.38397,-2.80606c-2.59352,0.68812 -5.71316,1.93517 -7.40278,3.6316c-3.30193,3.31522 -4.23255,8.81886 -4.23255,13.19771c0,3.17984 0.38017,8.89122 3.32672,10.99506c2.51519,1.79585 7.0089,2.13612 9.99529,2.50978c4.7805,0.41604 3.75083,-6.02192 3.42726,-9.20084zM270.73294,222.65275c0,0 2.01833,-0.40366 2.75852,1.35292c1.1493,-0.56778 2.37188,-0.98495 3.32183,-1.28842c4.66393,-1.48995 9.34986,-2.89895 14,-4.33334c3.28636,-1.01372 6.29457,-2.42467 6.56319,-5.82071c-0.06926,0.00266 -0.13852,0.00533 -0.20778,0.00802c0.07551,-0.1832 0.15126,-0.36617 0.22714,-0.54897c-0.00046,-0.08271 -0.00243,-0.1665 -0.00594,-0.2514v-1c0,0 0,-1.75557 1.47116,-2.32441c0.87711,-2.23466 1.65086,-4.5142 2.09487,-6.96654l0.23519,-2.37187c-2.40253,0.10639 -6.70851,0.4028 -8.43446,-0.72756c-2.04218,0.02026 -4.05715,-0.10547 -5.97123,-1.0805c-4.74255,-2.41585 -7.86449,-7.4874 -9.32738,-12.35877c-0.0417,-4.50478 -0.1933,-9.10473 0.2336,-13.58755c0.3732,-3.91892 1.60376,-7.5784 2.27313,-11.43176c1.21503,-6.99455 5.01198,-14.7527 12.48064,-16.9829c0.87573,-0.2615 2.25728,-0.34133 3.58538,-0.3621c-0.18524,-1.37212 -0.2392,-2.77252 -0.34198,-4.0581c-0.65745,-8.22348 -1.92082,-16.2441 -2.74487,-24.44187l-0.00823,-1.32628c-1.64401,-1.44081 -2.92492,-3.22761 -3.53846,-5.42702c-1.62899,-5.83956 2.42256,-12.30345 6.09315,-16.38538c1.97128,-2.1922 4.68298,-3.15666 7.15227,-4.49452c1.13466,-0.61477 2.04607,-1.6336 3.24452,-2.11227c3.05039,-1.21833 8.13935,-1.16064 11.41935,-1.17517h1.5c0,0 0.72865,0 1.3992,0.39337c2.52383,-0.28722 5.7473,-0.73151 8.06543,0.30023c3.84265,1.71026 4.64935,5.71058 4.02685,9.5126c-0.06539,0.39937 -0.10564,0.82014 -0.14796,1.24412c0.6696,-0.0411 1.33391,-0.05646 1.94705,0.17797c3.59625,1.37504 3.02825,2.41754 4.44905,5.26081c1.69895,3.39985 3.1721,7.18307 0.20172,10.68609c-1.27279,1.50102 -3.23685,2.1839 -5.05865,3.02448c0.19667,0.45665 0.23206,0.84586 0.23206,0.84586c0.88346,10.04047 3.28646,23.20061 -4.31722,30.95559c1.18417,0.58088 1.31722,2.04441 1.31722,2.04441c0.41663,4.78372 2.98573,8.18986 4.38885,12.70669c1.88906,6.08112 2.39796,12.53344 3.99769,18.6746c1.00933,3.87472 2.1241,7.83563 3.43343,11.63834c0.45342,1.31686 1.7714,2.59862 1.39333,3.93906c-0.80386,2.85007 -3.60457,3.94224 -6.79971,4.30991c0.57853,4.59482 2.65186,8.90405 3.89794,13.38207c0.76236,1.53318 1.67799,2.99565 2.31015,4.58629c1.00745,2.53497 0.99493,5.47418 2,8c1.00578,2.5276 3.03275,4.97812 4.46692,7.27376c0.92828,1.48588 1.51789,3.27181 2.83741,4.42437c1.9092,1.66763 4.79597,1.23386 7.04259,1.40062c0.60498,0.0449 1.26782,-0.02047 1.91227,-0.03699c1.27392,-1.62748 2.25446,-3.54443 3.89884,-4.77949c2.48633,-1.86743 8.97441,-3.35822 11.61117,-1.13003c0.02145,0.01812 1.48812,5.73283 1.6775,6.53878c0.6073,2.58448 1.62961,6.11387 1.729,8.75703c0.07961,2.11706 -1.05431,4.11625 -1.84238,6.08278c-2.57292,6.42038 -3.82273,11.00497 -9.81093,15.27432c-3.11548,1.08241 -3.8136,3.42888 -7.06784,4.50399c-7.75622,2.56244 -15.9055,-2.54878 -22.34799,-6.20646l-1.50645,-1.78386c0,0 -1.0339,-1.55085 0.02285,-2.8671c-4.04348,-2.8492 -4.74646,-7.93389 -7.38189,-11.83894c-3.30759,-4.90103 -6.77214,-9.22014 -9.24591,-14.28861c-5.78964,4.32744 -12.2989,7.39229 -19.42856,9.04597c-3.52665,0.81798 -7.17455,-0.17844 -10.66667,0.66666c-3.81384,0.92296 -7.44937,2.28719 -11.38526,2.64844c0.58072,5.15018 1.00012,12.32782 -4.98336,14.5975c-1.14565,0.43457 -2.44871,0.09633 -3.67307,0.14449c-3.95493,-0.49398 -9.38254,-1.0417 -12.67137,-3.49022c-2.90108,-2.15984 -3.83442,-5.46547 -4.60641,-8.7639c-1.76091,-7.52367 -0.78168,-17.24247 5.0339,-23.04334c2.77875,-2.77173 7.91865,-4.55208 11.5756,-5.31583zM370.63317,236.4911c-2.43823,0.70805 -3.46389,2.69238 -5.01657,4.64365c0.93726,3.76173 -0.67905,9.38913 -1.38199,12.1701c-0.68029,1.33483 -1.14463,2.80394 -2.04086,4.0045c-3.37121,4.51593 -10.45162,7.48892 -16.73982,7.22829c4.58948,2.63214 9.96939,5.26859 14.995,3.85612c2.19398,-0.61662 1.309,-1.60085 3.32699,-2.99471c0.86726,-0.59903 1.959,-0.77864 2.9385,-1.16796c4.82661,-3.45757 5.46533,-7.57361 7.52241,-12.72568c0.80365,-2.01277 1.70654,-1.81667 1.49096,-3.91722c-0.26025,-2.53585 -1.01692,-5.41652 -1.60433,-7.90964c-0.21913,-0.93005 -0.61662,-1.82939 -0.69104,-2.782c-0.03623,-0.46373 0.64377,-0.9709 0.36854,-1.34588c-0.22527,-0.3069 -0.71165,0.27285 -1.07661,0.3812c-0.69172,0.20535 -1.39824,0.35803 -2.09117,0.55925zM301.00356,240.33276c6.91016,-1.65538 13.08496,-4.63219 18.60057,-8.9892c-0.18424,-0.58615 -0.35404,-1.18471 -0.50813,-1.79719c-0.35657,-3.19331 -0.37275,-6.23108 -0.37275,-9.44221v-1c0,0 0,-2.5 2.5,-2.5c2.5,0 2.5,2.5 2.5,2.5v1c0,2.90264 -0.02453,5.67433 0.29391,8.55779c1.87636,7.56919 6.81056,12.77572 10.97859,19.09482c1.54002,2.33481 2.57876,5.01312 4.02571,7.37439c0.67021,1.09372 1.06802,2.52629 2.17477,3.17477c6.36292,3.72821 15.47983,-0.82607 18.34897,-6.73581c0.67857,-2.75678 0.73003,-5.4931 1.18464,-8.28449c0.04949,-0.30391 0.57266,-0.75973 0.28821,-0.87763c-0.38375,-0.15906 -0.71554,0.48125 -1.12814,0.52949c-1.08356,0.12669 -2.18944,0.11354 -3.27279,-0.01493c-2.24764,-0.26655 -5.23289,-1.10105 -7.01795,-2.58445c-0.92615,-0.76964 -3.16127,-4.5073 -3.82925,-5.57563c-1.60112,-2.56072 -3.73631,-5.24547 -4.86642,-8.05957c-1.01595,-2.52984 -0.98421,-5.48054 -2,-8c-0.73198,-1.81554 -1.83475,-3.46198 -2.63145,-5.25007c0,0 -0.24548,-0.55233 -0.22345,-1.23454c-1.29394,-4.42517 -3.10937,-8.64522 -3.68502,-13.21321c-1.78846,-0.05734 -3.444,-0.17749 -4.68203,-0.17695c-4.1895,0 -8.00136,0.81614 -12.1461,0.99784c-3.17752,0.1393 -6.26267,-0.28852 -9.36173,-0.55378c0.00721,0.18689 -0.00457,0.3047 -0.00457,0.3047l-0.26197,2.5995c-0.66564,3.64815 -1.97181,6.92612 -3.31072,10.21852c-0.06603,0.00167 -0.13205,0.00335 -0.19808,0.00506c0.03877,0.90385 0.15714,1.82004 -0.09223,2.67919c-1.70286,5.86689 -7.73007,6.8924 -12.54888,8.70305c-2.07581,0.77998 -4.06944,1.80138 -6.20484,2.39923c-2.53078,0.70855 -5.01819,1.21171 -7.48705,2.12913c-0.40756,0.15145 -1.06381,0.05777 -1.21911,0.46388c-0.17276,0.45175 0.42541,0.87951 0.52432,1.35296c0.19378,0.92756 0.28787,1.87572 0.3478,2.82141c0.22373,3.53031 1.15103,6.36138 1.58006,9.81874c0.02696,0.26106 -0.04697,0.58341 -0.06303,0.87061c0.30836,0.08664 0.56972,0.23801 0.78657,0.41187c0.18121,-0.17362 0.36975,-0.37996 0.57481,-0.42864c0.94074,-0.22332 1.92954,-0.15793 2.88329,-0.31676c3.04458,-0.50703 5.87922,-1.62127 8.85678,-2.30521c3.52834,-0.81045 7.1723,0.17044 10.66667,-0.66667zM330.55295,161.84777c-1.48965,-4.80513 -4.01302,-8.39117 -4.57905,-13.48071c-1.67161,0.97878 -3.68477,1.81577 -5.57685,2.16734c-4.08348,0.75877 -8.58229,0.29704 -12.71186,0.28156c-0.84044,-0.16429 -1.90295,-0.29706 -3.01603,-0.46349l-0.03617,0.21594c-1.40224,7.01117 -2.96906,13.93846 -4.24579,20.97848c-0.99474,4.95739 -1.25549,9.98374 -1.71609,15.00942c-0.15306,1.67006 -0.33089,4.00093 -0.87488,5.58315c-0.05895,0.17147 -0.12425,0.34097 -0.19522,0.50831c0.43705,0.35437 0.6493,0.81398 0.74676,1.23737c1.48845,-0.05407 3.22168,0.19169 3.83378,0.19298c4.41836,0.00935 8.67539,0.92739 13.1461,0.75216c4.18694,-0.16411 8.10505,-1.00216 12.3539,-1.00216c2.2864,0.00107 4.57038,-0.15044 6.8548,-0.24572c1.40156,-0.05846 2.80494,-0.07584 4.20771,-0.07184c0.16397,0.00047 0.57263,0.22346 0.48447,0.08521c-1.97046,-3.09004 -2.4745,-6.0648 -3.46448,-9.63074c-2.0159,-7.26134 -2.97642,-14.90904 -5.21107,-22.11726zM330.80656,99.65623c0,0 -1.10733,0 -1.84806,-0.73696c-2.51239,0.68299 -6.29255,0.9094 -7.9056,1.2248l-2.74635,0.01217c0,0 -2.5,0 -2.5,-2.5c0,-2.5 2.5,-2.5 2.5,-2.5l2.25365,0.01217c1.20469,-0.24728 4.28292,-0.90877 5.33535,-0.97815c0.55052,-0.03629 1.22775,0.56122 1.64323,0.19822c0.36541,-0.31926 -0.19299,-0.95416 -0.22372,-1.43843c-0.03141,-0.49518 0.08145,-3.43735 -0.14475,-3.99515c-0.38219,-0.9425 -1.94023,-0.77977 -2.95691,-0.75239c-1.56659,0.04218 -3.12034,0.29565 -4.68051,0.44347c0,0 -1.01575,0.09235 -1.80866,-0.48973h-0.41768c-2.58097,-0.01393 -7.21116,-0.2189 -9.58065,0.82483c-1.0189,0.44881 -1.77975,1.35153 -2.75548,1.88773c-1.9493,1.07121 -4.29493,1.73253 -5.84773,3.50548c-2.41288,2.75497 -5.96518,7.55516 -4.90685,11.61462c1.12116,4.30046 6.97367,5.99427 10.54141,6.7083c6.03143,1.02342 12.30641,0.44095 18.3431,-0.03244c0.8748,-0.0686 1.77704,0.25671 2.63182,0.05836c1.83337,-0.42543 2.79245,-1.88044 4.34957,-2.74629c1.68418,-0.93651 3.36471,-0.95018 4.78348,-2.39578c1.68439,-1.71624 -0.08677,-3.89206 -0.79828,-5.31391c-0.25955,-0.51867 -0.44882,-2.51106 -1.55095,-2.73919c-0.55955,-0.11582 -1.13962,0.08552 -1.70943,0.12829zM289.0777,192.85634c0.7441,0.413 1.64077,0.5692 2.57642,0.60872c0.42222,-0.97894 1.04848,-1.92702 1.41277,-2.94826c0.79204,-2.22039 0.67396,-5.10367 0.87412,-7.40564c0.36509,-4.1988 0.7096,-8.36238 1.5349,-12.50179c1.28531,-7.05197 2.84931,-13.99706 4.25421,-21.02152l0.07861,-0.4743c-0.29669,-0.14518 -0.56834,-0.30611 -0.80805,-0.4854c-0.42472,-0.31768 -0.79003,-0.67224 -1.10494,-1.05652c-1.23701,-0.00882 -3.4677,-0.00855 -3.97805,0.14568c-5.59385,1.69053 -8.12768,7.89589 -9.01936,13.0171c-0.65035,3.73518 -1.86556,7.27475 -2.22687,11.06824c-0.39036,4.09849 -0.21531,8.29186 -0.2664,12.41245c1.00538,3.35733 3.52943,6.89667 6.67262,8.64123zM311.49162,142.3088c-2.48069,0.31008 -2.79078,-2.17061 -2.79078,-2.17061l-0.20791,-1.75943c-1.05358,-4.66585 -2.1171,-8.41815 -1.31565,-12.91592c-2.51416,-0.70829 -5.20588,-1.10464 -7.79359,-1.55913c0.59241,3.75087 1.14169,7.50704 1.296,11.32847c0.08166,2.0221 0.26918,4.03962 0.48449,6.05189c0.05795,0.54167 -0.33384,2.69221 0.69824,3.24404c1.66756,0.89161 4.47263,0.93348 6.31546,1.31218c3.67295,-0.01623 7.65339,0.42283 11.28814,-0.21844c3.2685,-0.57666 7.94671,-3.43375 9.12589,-6.67473c0.3765,-1.03481 0.50183,-4.39842 0.61418,-5.21852c0.11595,-0.84636 0.9004,-4.23158 0.98555,-5.12499c0.39362,-4.13027 -0.56081,-8.01122 -1.07819,-12.02142c-0.70456,0.43183 -1.43592,0.79819 -2.23253,1.00718c-1.08614,0.28496 -2.24957,-0.03972 -3.36818,0.05836c-6.47796,0.56799 -13.18732,1.02926 -19.6569,-0.03244c-1.8002,-0.3598 -3.77111,-0.91023 -5.67198,-1.70397c0.12376,0.97965 0.26142,1.95679 0.40684,2.93247l1.03806,0.02466c2.96618,0.53941 6.08973,0.97406 8.9866,1.80501c2.18378,0.62641 4.04434,2.22563 6.27363,2.66328c0.89136,0.17499 3.40754,-1.8674 3.67034,-1.9926c2.23993,-1.06711 4.65906,-1.70859 6.97476,-2.59938c0,0 2.33337,-0.89745 3.23082,1.43591c0.89745,2.33336 -1.43592,3.23081 -1.43592,3.23081c-0.4618,0.17759 -0.92861,0.34304 -1.39756,0.5032c-0.00913,4.84197 -0.45508,9.59497 -0.01015,14.43709l0.01027,0.47634c0,0 0,2.5 -2.5,2.5c-2.5,0 -2.5,-2.5 -2.5,-2.5l0.01027,-0.02366c-0.39439,-4.38168 -0.10586,-8.68513 -0.02807,-13.0447c-0.03672,0.01732 -0.07338,0.03477 -0.10999,0.05235c-2.63552,1.26564 -2.66857,2.83354 -6.32966,2.5074c-0.89685,-0.07989 -1.74313,-0.36192 -2.5703,-0.72556c-0.30122,3.27285 0.68169,6.20857 1.46636,9.68353l0.29209,2.24057c0,0 0.31009,2.4807 -2.17061,2.79078z" data-paper-data="{&quot;index&quot;:null}" fill="#000000" stroke-width="0.5"/><path d="M275.17965,249.10416c0.32357,3.17892 1.32782,9.63521 -3.45268,9.21917c-2.98639,-0.37366 -7.5142,-0.71537 -10.02939,-2.51122c-2.94655,-2.10384 -3.35677,-7.85195 -3.35677,-11.03179c0,-4.37885 0.96225,-9.93885 4.26418,-13.25407c1.68962,-1.69643 4.83673,-2.94562 7.43025,-3.63374c0.00078,0.91227 0.32256,1.89246 0.38752,2.80692c0.18932,2.66494 0.09005,5.76671 0.75699,8.35739c0.43142,1.67582 1.13466,3.34245 1.35081,5.05936c0.82062,1.47201 1.06453,3.48809 2.41955,4.46715z" data-paper-data="{&quot;noHover&quot;:false,&quot;origItem&quot;:[&quot;Path&quot;,{&quot;applyMatrix&quot;:true,&quot;segments&quot;:[[[362.4174,296.07482],[0,0],[-0.32357,3.17892]],[[365.84466,305.27566],[-4.7805,0.41604],[2.98639,-0.37366]],[[375.83995,302.76588],[-2.51519,1.79585],[2.94655,-2.10384]],[[379.16667,291.77082],[0,3.17984],[0,-4.37885]],[[374.93412,278.57311],[3.30193,3.31522],[-1.68962,-1.69643]],[[367.53134,274.94151],[2.59352,0.68812],[-0.00078,0.91227]],[[367.14737,277.74757],[0.06496,-0.91446],[-0.18932,2.66494]],[[366.41299,286.09135],[0.66694,-2.59068],[-0.43142,1.67582]],[[365.07524,291.10742],[0.21615,-1.71691],[-0.82062,1.47201]],[[362.64779,295.55519],[1.35502,-0.97906],[0,0]]],&quot;closed&quot;:true,&quot;fillColor&quot;:[0,0,0,1]}],&quot;index&quot;:null}" fill="#1b130b" stroke-width="0.5"/><path d="M370.66018,236.44904c0.69293,-0.20122 1.40241,-0.35184 2.09413,-0.55719c0.36496,-0.10835 0.85252,-0.68719 1.07779,-0.38029c0.27523,0.37498 -0.4037,0.88302 -0.36747,1.34675c0.07442,0.95261 0.47648,1.85632 0.69561,2.78637c0.58741,2.49312 1.35519,5.39329 1.61544,7.92914c0.21558,2.10055 -0.68525,1.91655 -1.4889,3.92932c-2.05708,5.15207 -2.72323,9.31502 -7.54984,12.77259c-0.9795,0.38932 -2.08215,0.57292 -2.94941,1.17195c-2.01799,1.39386 -1.14511,2.37945 -3.33909,2.99607c-5.02561,1.41247 -10.44371,-1.24229 -15.03319,-3.87443c6.2882,0.26063 13.39266,-2.79185 16.76387,-7.30778c0.89623,-1.20056 1.32765,-2.63732 2.00794,-3.97215c0.70294,-2.78097 2.34606,-8.34741 1.4088,-12.10914c1.55268,-1.95127 2.62607,-4.02319 5.0643,-4.73124z" data-paper-data="{&quot;noHover&quot;:false,&quot;origItem&quot;:[&quot;Path&quot;,{&quot;applyMatrix&quot;:true,&quot;segments&quot;:[[[266.92339,283.49112],[0,0],[-0.69293,-0.20122]],[[264.83222,282.93187],[0.69172,0.20535],[-0.36496,-0.10835]],[[263.75561,282.55067],[0.22527,-0.3069],[-0.27523,0.37498]],[[264.12415,283.89655],[0.03623,-0.46373],[-0.07442,0.95261]],[[263.43311,286.67855],[0.21913,-0.93005],[-0.58741,2.49312]],[[261.82878,294.58819],[0.26025,-2.53585],[-0.21558,2.10055]],[[263.31974,298.50541],[-0.80365,-2.01277],[2.05708,5.15207]],[[270.84215,311.23109],[-4.82661,-3.45757],[0.9795,0.38932]],[[273.78065,312.39905],[-0.86726,-0.59903],[2.01799,1.39386]],[[277.10764,315.39376],[-2.19398,-0.61662],[5.02561,1.41247]],[[292.10264,311.53764],[-4.58948,2.63214],[-6.2882,0.26063]],[[275.36282,304.30935],[3.37121,4.51593],[-0.89623,-1.20056]],[[273.32196,300.30485],[0.68029,1.33483],[-0.70294,-2.78097]],[[271.93997,288.13475],[-0.93726,3.76173],[-1.55268,-1.95127]],[[266.9234,283.4911],[2.43823,0.70805],[0,0]]],&quot;closed&quot;:true,&quot;fillColor&quot;:[0,0,0,1]}],&quot;index&quot;:null}" fill="#1b130b" stroke-width="0.5"/><path d="M311.50338,142.26019c2.4807,-0.31008 2.16221,-2.79206 2.16221,-2.79206l-0.30217,-2.14114c-0.78467,-3.47496 -1.78939,-6.50126 -1.48817,-9.77411c0.82717,0.36364 1.70657,0.63691 2.60342,0.7168c3.66109,0.32614 3.72899,-1.22274 6.36451,-2.48838c0.03661,-0.01758 0.07337,-0.03491 0.11009,-0.05223c-0.07779,4.35957 -0.37338,8.73171 0.02101,13.11339l-0.01036,0.02373c0,0 -0.06551,2.42446 2.43449,2.42446c2.5,0 2.49169,-2.49052 2.49169,-2.49052l-0.01104,-0.47516c-0.44493,-4.84212 0.00039,-9.5426 0.00952,-14.38457c0.46895,-0.16016 0.93528,-0.32643 1.39708,-0.50402c0,0 2.33653,-0.89262 1.43908,-3.22598c-0.89745,-2.33336 -3.22462,-1.42899 -3.22462,-1.42899c-2.3157,0.89079 -4.72139,1.54118 -6.96132,2.60829c-0.2628,0.1252 -2.76273,2.17182 -3.65409,1.99683c-2.22929,-0.43765 -4.06156,-2.04282 -6.24534,-2.66923c-2.89687,-0.83095 -6.00588,-1.27761 -8.97206,-1.81702l-1.11615,-0.0871c-0.14542,-0.97568 -0.28002,-1.95641 -0.40378,-2.93606c1.90087,0.79374 3.87755,1.3389 5.67775,1.6987c6.46958,1.0617 13.23828,0.59888 19.71624,0.03089c1.11861,-0.09808 2.28781,0.2313 3.37395,-0.05366c0.79661,-0.20899 1.52956,-0.57377 2.23412,-1.0056c0.51738,4.0102 1.4853,7.91862 1.09168,12.04889c-0.08515,0.89341 -0.86992,4.29503 -0.98587,5.14139c-0.11235,0.8201 -0.24317,4.19891 -0.61967,5.23372c-1.17918,3.24098 -5.88428,6.12082 -9.15278,6.69748c-3.63475,0.64127 -7.6508,0.20143 -11.32375,0.21766c-1.84283,-0.3787 -4.66274,-0.42992 -6.3303,-1.32153c-1.03208,-0.55183 -0.64584,-2.70831 -0.70379,-3.24998c-0.21531,-2.01227 -0.41129,-4.04573 -0.49295,-6.06783c-0.15431,-3.82143 -0.7011,-7.6141 -1.29351,-11.36497c2.58771,0.45449 5.36411,0.90292 7.87827,1.61121c-0.80145,4.49777 0.25313,8.17983 1.30671,12.84568l0.20313,1.75617c0,0 0.29604,2.47493 2.77673,2.16485z" data-paper-data="{&quot;noHover&quot;:false,&quot;origItem&quot;:[&quot;Path&quot;,{&quot;applyMatrix&quot;:true,&quot;segments&quot;:[[[326.06493,189.30882],[0,0],[-2.4807,-0.31008]],[323.89432,186.51804],[[324.18641,184.27747],[0,0],[0.78467,-3.47496]],[[325.65277,174.59394],[0.30122,3.27285],[-0.82717,0.36364]],[[323.08247,175.3195],[0.89685,-0.07989],[-3.66109,0.32614]],[[316.75281,172.8121],[2.63552,1.26564],[-0.03661,-0.01758]],[[316.64282,172.75975],[0.03672,0.01732],[0.07779,4.35957]],[[316.61475,185.80445],[0.39439,-4.38168],[0,0]],[316.62502,185.82811],[[314.12502,188.32811],[2.5,0],[-2.5,0]],[311.62502,185.82811],[[311.63529,185.35177],[0,0],[0.44493,-4.84212]],[[311.62514,170.91468],[0.00913,4.84197],[-0.46895,-0.16016]],[[310.22758,170.41148],[0.4618,0.17759],[0,0]],[[308.79166,167.18067],[-0.89745,2.33336],[0.89745,-2.33336]],[[312.02248,165.74476],[0,0],[2.3157,0.89079]],[[318.99724,168.34414],[-2.23993,-1.06711],[0.2628,0.1252]],[[322.66758,170.33674],[-0.89136,0.17499],[2.22929,-0.43765]],[[328.94121,167.67346],[-2.18378,0.62641],[2.89687,-0.83095]],[[337.92781,165.86845],[-2.96618,0.53941],[0,0]],[[338.96587,165.84379],[0,0],[0.14542,-0.97568]],[[339.37271,162.91132],[-0.12376,0.97965],[-1.90087,0.79374]],[[333.70073,164.61529],[1.8002,-0.3598],[-6.46958,1.0617]],[[314.04383,164.64773],[6.47796,0.56799],[-1.11861,-0.09808]],[[310.67565,164.58937],[1.08614,0.28496],[-0.79661,-0.20899]],[[308.44312,163.58219],[0.70456,0.43183],[-0.51738,4.0102]],[[307.36493,175.60361],[-0.39362,-4.13027],[0.08515,0.89341]],[[308.35048,180.7286],[-0.11595,-0.84636],[0.11235,0.8201]],[[308.96466,185.94712],[-0.3765,-1.03481],[1.17918,3.24098]],[[318.09055,192.62185],[-3.2685,-0.57666],[3.63475,0.64127]],[[329.37869,192.84029],[-3.67295,-0.01623],[1.84283,-0.3787]],[[335.69415,191.52811],[-1.66756,0.89161],[1.03208,-0.55183]],[[336.39239,188.28407],[-0.05795,0.54167],[0.21531,-2.01227]],[[336.87688,182.23218],[-0.08166,2.0221],[0.15431,-3.82143]],[[338.17288,170.90371],[-0.59241,3.75087],[-2.58771,0.45449]],[[330.37929,172.46284],[2.51416,-0.70829],[0.80145,4.49777]],[[329.06364,185.37876],[1.05358,-4.66585],[0,0]],[328.85573,187.13819],[[326.06495,189.3088],[2.48069,0.31008],[0,0]]],&quot;closed&quot;:true,&quot;fillColor&quot;:[0,0,0,1]}],&quot;index&quot;:null}" fill="#ffb26e" stroke-width="0.5"/><path d="M300.96169,240.36014c-3.49437,0.83711 -7.14249,-0.15157 -10.67083,0.65888c-2.97756,0.68394 -5.81285,1.79658 -8.85743,2.30361c-0.95375,0.15883 -1.94286,0.09261 -2.8836,0.31593c-0.20506,0.04868 -0.39352,0.25525 -0.57473,0.42887c-0.21685,-0.17386 -0.47847,-0.32595 -0.78683,-0.41259c0.01606,-0.2872 0.08969,-0.61043 0.06273,-0.87149c-0.42903,-3.45736 -1.35869,-6.29984 -1.58242,-9.83015c-0.05993,-0.94569 -0.1542,-1.89718 -0.34798,-2.82474c-0.09891,-0.47345 -0.69709,-0.90279 -0.52433,-1.35454c0.1553,-0.40611 0.81156,-0.313 1.21912,-0.46445c2.46886,-0.91742 4.95645,-1.4239 7.48723,-2.13245c2.1354,-0.59785 4.12974,-1.62432 6.20555,-2.4043c4.81881,-1.81065 10.85803,-2.8602 12.56089,-8.72709c0.24937,-0.85915 0.13415,-1.77852 0.09538,-2.68237c0.06603,-0.00171 0.13229,-0.00361 0.19832,-0.00528c1.33891,-3.2924 2.65843,-6.5791 3.32407,-10.22725l0.26384,-2.60029c0,0 0.01195,-0.11788 0.00474,-0.30477c3.09906,0.26526 6.1984,0.68978 9.37592,0.55048c4.14474,-0.1817 7.97593,-0.99563 12.16543,-0.99563c1.23803,-0.00054 2.89985,0.1221 4.68831,0.17944c0.57565,4.56799 2.40599,8.79891 3.69993,13.22408c-0.02203,0.68221 0.22491,1.23616 0.22491,1.23616c0.7967,1.78809 1.90627,3.4447 2.63825,5.26024c1.01579,2.51946 0.98908,5.48713 2.00503,8.01697c1.13011,2.8141 3.26465,5.51408 4.86577,8.0748c0.66798,1.06833 2.90124,4.8128 3.82739,5.58244c1.78506,1.4834 4.67599,2.28467 6.92363,2.55122c1.08335,0.12847 2.18884,0.14278 3.2724,0.01609c0.4126,-0.04824 0.83973,-0.65841 1.22348,-0.49935c0.28445,0.1179 -0.23903,0.5747 -0.28852,0.87861c-0.45461,2.79139 -0.50952,5.53576 -1.18809,8.29254c-2.86914,5.90974 -11.99888,10.47942 -18.3618,6.75121c-1.10675,-0.64848 -1.56734,-2.15889 -2.23755,-3.25261c-1.44695,-2.36127 -2.48799,-5.03759 -4.02801,-7.3724c-4.16803,-6.3191 -9.11814,-11.48407 -10.9945,-19.05326c-0.31844,-2.88346 -0.27081,-5.61763 -0.27081,-8.52027l0.00196,-0.99882c0,0 0.01221,-2.49505 -2.48779,-2.49505c-2.5,0 -2.49126,2.50145 -2.49126,2.50145l0.00793,0.90032c0,3.21113 0.06032,6.31162 0.41689,9.50493c0.15409,0.61248 0.30641,1.23751 0.49065,1.82366c-5.51561,4.35701 -11.76308,7.32183 -18.67324,8.97721z" data-paper-data="{&quot;noHover&quot;:false,&quot;origItem&quot;:[&quot;Path&quot;,{&quot;applyMatrix&quot;:true,&quot;segments&quot;:[[[336.55302,287.33277],[0,0],[3.49437,0.83711]],[[347.21969,287.99944],[-3.52834,-0.81045],[2.97756,0.68394]],[[356.07647,290.30465],[-3.04458,-0.50703],[0.95375,0.15883]],[[358.95976,290.62141],[-0.94074,-0.22332],[0.20506,0.04868]],[[359.53457,291.05005],[-0.18121,-0.17362],[0.21685,-0.17386]],[[360.32114,290.63818],[-0.30836,0.08664],[-0.01606,-0.2872]],[[360.25811,289.76757],[-0.02696,0.26106],[0.42903,-3.45736]],[[361.83817,279.94883],[-0.22373,3.53031],[0.05993,-0.94569]],[[362.18597,277.12742],[-0.19378,0.92756],[0.09891,-0.47345]],[[362.71029,275.77446],[0.17276,0.45175],[-0.1553,-0.40611]],[[361.49118,275.31058],[0.40756,0.15145],[-2.46886,-0.91742]],[[354.00413,273.18145],[2.53078,0.70855],[-2.1354,-0.59785]],[[347.79929,270.78222],[2.07581,0.77998],[-4.81881,-1.81065]],[[335.25041,262.07917],[1.70286,5.86689],[-0.24937,-0.85915]],[[335.15818,259.39998],[-0.03877,0.90385],[-0.06603,-0.00171]],[[334.9601,259.39492],[0.06603,0.00167],[-1.33891,-3.2924]],[[331.64938,249.1764],[0.66564,3.64815],[0,0]],[331.38741,246.5769],[[331.38284,246.2722],[-0.00721,0.18689],[-3.09906,0.26526]],[[322.02111,246.82598],[3.17752,0.1393],[-4.14474,-0.1817]],[[309.87501,245.82814],[4.1895,0],[-1.23803,-0.00054]],[[305.19298,246.00509],[1.78846,-0.05734],[-0.57565,4.56799]],[[301.50796,259.2183],[1.29394,-4.42517],[0.02203,0.68221]],[[301.28451,260.45284],[0,0],[-0.7967,1.78809]],[[298.65306,265.70291],[0.73198,-1.81554],[-1.01579,2.51946]],[[296.65306,273.70291],[1.01595,-2.52984],[-1.13011,2.8141]],[[291.78664,281.76248],[1.60112,-2.56072],[-0.66798,1.06833]],[[287.95739,287.33811],[0.92615,-0.76964],[-1.78506,1.4834]],[[280.93944,289.92256],[2.24764,-0.26655],[-1.08335,0.12847]],[[277.66665,289.93749],[1.08356,0.12669],[-0.4126,-0.04824]],[[276.53851,289.408],[0.38375,-0.15906],[-0.28445,0.1179]],[[276.82672,290.28563],[-0.04949,-0.30391],[0.45461,2.79139]],[[278.01136,298.57012],[-0.67857,-2.75678],[2.86914,5.90974]],[[296.36033,305.30593],[-6.36292,3.72821],[1.10675,-0.64848]],[[298.5351,302.13116],[-0.67021,1.09372],[1.44695,-2.36127]],[[302.56081,294.75677],[-1.54002,2.33481],[4.16803,-6.3191]],[[313.5394,275.66195],[-1.87636,7.56919],[0.31844,-2.88346]],[[313.83331,267.10416],[0,2.90264],[0,0]],[313.83331,266.10416],[[316.33331,263.60416],[-2.5,0],[2.5,0]],[318.83331,266.10416],[[318.83331,267.10416],[0,0],[0,3.21113]],[[318.46056,276.54637],[0.35657,-3.19331],[-0.15409,0.61248]],[[317.95243,278.34356],[0.18424,-0.58615],[5.51561,4.35701]],[[336.553,287.33276],[-6.91016,-1.65538],[0,0]]],&quot;closed&quot;:true,&quot;fillColor&quot;:[0,0,0],&quot;strokeWidth&quot;:0.5}],&quot;index&quot;:null}" fill="#7b8a52" stroke-width="0.25"/><path d="M330.75665,99.65948c0.56981,-0.04277 1.24967,-0.25065 1.80922,-0.13483c1.10213,0.22813 1.29134,2.22787 1.55089,2.74654c0.71151,1.42185 2.48013,3.60983 0.79574,5.32607c-1.41877,1.4456 -3.10385,1.46899 -4.78803,2.4055c-1.55712,0.86585 -2.5253,2.33191 -4.35867,2.75734c-0.85478,0.19835 -1.76216,-0.12287 -2.63696,-0.05427c-6.03669,0.47339 -12.37226,1.05313 -18.40369,0.02971c-3.56774,-0.71403 -9.43659,-2.43374 -10.55775,-6.7342c-1.05833,-4.05946 2.49603,-8.89081 4.90891,-11.64578c1.5528,-1.77295 3.90945,-2.45092 5.85875,-3.52213c0.97573,-0.5362 1.7461,-1.44637 2.765,-1.89518c2.36949,-1.04373 7.03533,-0.84498 9.6163,-0.83105l0.41923,0.00034c0.79291,0.58208 1.81558,0.49189 1.81558,0.49189c1.56017,-0.14782 3.12573,-0.39468 4.69232,-0.43686c1.01668,-0.02738 2.5809,-0.1846 2.96309,0.7579c0.2262,0.5578 0.11959,3.50808 0.151,4.00326c0.03073,0.48427 0.59142,1.1233 0.22601,1.44256c-0.41548,0.363 -1.18065,-0.18703 -1.73117,-0.15074c-1.05243,0.06938 -4.12361,0.7402 -5.3283,0.98748l-2.24432,-0.00454c0,0 -2.4575,-0.0897 -2.4575,2.4103c0,2.5 2.53366,2.53983 2.53366,2.53983l2.64713,-0.00014c1.61305,-0.3154 5.49263,-0.55245 8.00502,-1.23544c0.74073,0.73696 1.84834,0.73994 1.84834,0.73994z" data-paper-data="{&quot;noHover&quot;:false,&quot;origItem&quot;:[&quot;Path&quot;,{&quot;applyMatrix&quot;:true,&quot;segments&quot;:[[[306.75001,146.65625],[0,0],[-0.56981,-0.04277]],[[305.04058,146.52796],[0.55955,-0.11582],[-1.10213,0.22813]],[[303.48963,149.26715],[0.25955,-0.51867],[-0.71151,1.42185]],[[302.69135,154.58106],[-1.68439,-1.71624],[1.41877,1.4456]],[[307.47483,156.97684],[-1.68418,-0.93651],[1.55712,0.86585]],[[311.8244,159.72313],[-1.83337,-0.42543],[0.85478,0.19835]],[[314.45622,159.66477],[-0.8748,-0.0686],[6.03669,0.47339]],[[332.79932,159.69721],[-6.03143,1.02342],[3.56774,-0.71403]],[[343.34073,152.98891],[-1.12116,4.30046],[1.05833,-4.05946]],[[338.43388,141.37429],[2.41288,2.75497],[-1.5528,-1.77295]],[[332.58615,137.86881],[1.9493,1.07121],[-0.97573,-0.5362]],[[329.83067,135.98108],[1.0189,0.44881],[-2.36949,-1.04373]],[[320.25002,135.15625],[2.58097,-0.01393],[0,0]],[[319.83234,135.15625],[0,0],[-0.79291,0.58208]],[[318.02368,135.64598],[0,0],[-1.56017,-0.14782]],[[313.34317,135.20251],[1.56659,0.04218],[-1.01668,-0.02738]],[[310.38626,135.9549],[0.38219,-0.9425],[-0.2262,0.5578]],[[310.24151,139.95005],[0.03141,-0.49518],[-0.03073,0.48427]],[[310.01779,141.38848],[-0.36541,-0.31926],[0.41548,0.363]],[[311.66102,141.19026],[-0.55052,-0.03629],[1.05243,0.06938]],[[316.99637,142.16841],[-1.20469,-0.24728],[0,0]],[319.25002,142.15624],[[321.75002,144.65624],[0,-2.5],[0,2.5]],[319.25002,147.15624],[[316.50367,147.14407],[0,0],[-1.61305,-0.3154]],[[308.59807,145.91927],[2.51239,0.68299],[-0.74073,0.73696]],[306.75001,146.65623]],&quot;closed&quot;:true,&quot;fillColor&quot;:[0,0,0],&quot;strokeWidth&quot;:0.5}],&quot;index&quot;:null}" fill="#c00000" stroke-width="0.25"/><path d="M323.76688,160.9988c0.29957,-2.35126 -0.17098,-5.37972 -0.45999,-6.73501c-0.05149,-0.24147 -0.10314,-0.72739 -0.18293,-1.2647c1.308,-0.20573 2.61168,-0.38679 4.03944,-0.4264c0.64573,1.09714 1.2781,2.20431 2.10581,3.16494c1.68606,1.95679 4.38998,3.11377 5.81536,5.26787c1.88602,2.85022 2.67754,7.69432 3.70597,10.94785c0.38815,1.22795 0.31551,2.70426 1.21198,3.62884c2.2602,2.33107 4.33889,1.6708 6.97899,1.81633c3.50133,0.193 7.21062,1.35859 10.7097,1.98619c1.45096,0.26024 2.88173,0.62182 4.32557,0.91907c0.38724,0.07972 1.04911,-0.08829 1.26154,0.24515c0.8172,1.28268 0.25658,3.03933 0.42464,4.5509c-0.00239,1.79102 -0.14766,3.59538 -0.00409,5.38064c0.03206,0.39864 0.54052,0.8534 0.28987,1.16503c-0.23233,0.28886 -0.73145,-0.13944 -1.10179,-0.15573c-0.86834,-0.03821 -1.74648,-0.10243 -2.61007,-0.00396c-1.23591,0.14093 -2.45596,0.44097 -3.66681,0.72589c-3.19534,0.75187 -6.62685,2.51862 -9.84778,2.97422c-5.03427,0.71209 -11.44968,0.2718 -16.36132,-0.96524l-0.15533,-0.14429c0,0 -0.51771,-0.25923 -1.17773,-0.27957c0.75647,-0.50208 1.53616,-1.15326 2.21679,-1.79946l0.68272,-0.19895c0,0 1.76843,-0.82891 1.29791,-2.65296l0.91655,-0.08365c1.20779,-0.06343 2.57105,0.41615 3.61503,-0.1945c1.62944,-0.9531 3.24274,-2.27224 3.80422,-4.07453c0.83011,-2.66458 -4.36884,-8.77668 -6.19212,-9.98392c-0.97213,-0.64368 -2.24274,-0.64466 -3.364,-0.96423c0,0 -0.98572,-0.24554 -1.85744,0.2042c-0.29606,-0.52169 -0.66912,-0.97728 -1.17151,-1.28427c-0.05613,-0.03429 -0.11312,-0.06591 -0.17098,-0.09447c-0.08393,-0.97151 -0.05915,-1.98664 -0.49216,-2.84429c-0.54489,-1.07927 -1.84634,-1.61386 -2.50036,-2.63072c-1.06498,-1.65583 -1.51086,-3.99019 -1.98055,-5.89103c0,0 -0.03032,-0.12255 -0.10514,-0.30524z" data-paper-data="{&quot;noHover&quot;:false,&quot;origItem&quot;:[&quot;Path&quot;,{&quot;applyMatrix&quot;:true,&quot;segments&quot;:[[[311.47931,199.79867],[-0.28901,1.35529],[0.05149,-0.24147]],[[311.66318,198.53491],[-0.07979,0.53731],[-1.308,-0.20573]],[[307.62822,198.11238],[1.42776,0.03961],[-0.64573,1.09714]],[[305.52198,201.27699],[0.82771,-0.96063],[-1.68606,1.95679]],[[299.76474,206.4636],[1.42538,-2.1541],[-1.88602,2.85022]],[[296.07729,217.43334],[1.02843,-3.25353],[-0.38815,1.22795]],[[294.86544,221.10185],[0.89647,-0.92458],[-2.2602,2.33107]],[[287.80493,222.93364],[2.6401,-0.14553],[-3.50133,0.193]],[[277.08403,224.90239],[3.49908,-0.6276],[-1.45096,0.26024]],[[272.75788,225.81983],[1.44384,-0.29725],[-0.38724,0.07972]],[[271.59116,226.03322],[0.21243,-0.33344],[-0.8172,1.28268]],[[271.16286,230.57572],[0.16806,-1.51157],[0.00239,1.79102]],[[271.16185,235.9488],[0.14357,-1.78526],[-0.03206,0.39864]],[[270.87112,237.11281],[-0.25065,-0.31163],[0.23233,0.28886]],[[271.97214,236.95621],[-0.37034,0.01629],[0.86834,-0.03821]],[[274.57969,236.94965],[-0.86359,-0.09847],[1.23591,0.14093]],[[278.24106,237.67103],[-1.21085,-0.28492],[3.19534,0.75187]],[[288.06713,240.63644],[-3.22093,-0.4556],[5.03427,0.71209]],[[304.39367,239.6788],[-4.91164,1.23704],[0,0]],[304.54864,239.53475],[[305.72447,239.25651],[-0.66002,0.02034],[-0.75647,-0.50208]],[[303.56557,237.53858],[0.68063,0.6462],[0,0]],[302.88197,237.34022],[[301.52845,234.60415],[-0.47052,1.82405],[0,0]],[[300.66667,234.60415],[0,0],[-1.20779,-0.06343]],[[297.04329,234.41385],[1.04398,0.61065],[-1.62944,-0.9531]],[[293.21177,230.24358],[0.56148,1.80229],[-0.83011,-2.66458]],[[299.3632,220.30418],[-1.82328,1.20724],[0.97213,-0.64368]],[[302.72699,219.34546],[-1.12126,0.31957],[0,0]],[[304.58442,219.54878],[-0.87172,-0.44974],[0.29606,-0.52169]],[[305.75612,218.2689],[-0.50239,0.30699],[0.05613,-0.03429]],[[305.92712,218.1747],[-0.05786,0.02856],[0.08393,-0.97151]],[[306.42088,215.33911],[-0.43301,0.85765],[0.54489,-1.07927]],[[308.92278,212.71306],[-0.65402,1.01686],[1.06498,-1.65583]],[[310.90798,206.83115],[-0.46969,1.90084],[0,0]],[[311.01335,206.52626],[-0.07482,0.18269],[-0.29957,-2.35126]]],&quot;closed&quot;:true,&quot;fillColor&quot;:[0,0,0,1]}],&quot;index&quot;:null}" fill="#7b8a52" stroke-width="0.5"/><path d="M353.88224,176.12697c1.28637,0.7368 2.82255,1.15059 3.85909,2.21039c6.77759,6.92961 -2.33776,14.70325 -9.41645,14.23781c-7.09049,-0.46623 -9.75329,-7.94011 -12.58914,-13.33067c-1.02414,-1.94674 -2.20508,-3.62494 -2.72116,-5.83898c-0.28291,-1.21368 -0.70664,-7.71309 0.41465,-8.59513c1.46547,-1.15277 3.72139,-0.23924 5.58209,-0.35886c1.74347,2.83396 3.10762,5.58245 4.46627,8.60249c0.56391,1.25347 0.49579,2.92875 1.53667,3.8264c1.10902,0.95642 4.68908,-0.06743 5.73551,-0.26194l0.09818,-0.00274c1.2212,-1.46505 3.03429,-0.48877 3.03429,-0.48877z" data-paper-data="{&quot;index&quot;:null}" fill="#363c1a" stroke-width="0.5"/><g data-paper-data="{&quot;index&quot;:null}" stroke-width="0.5"><path d="M395.35,178.50625c0,1.37072 -1.10315,2.48379 -2.47007,2.49983c-0.0115,0.19453 -0.02179,0.36291 -0.02993,0.50017c-0.08848,1.49293 0.45408,3.28737 -0.4719,4.46178c-2.12126,2.69037 -7.39872,2.02965 -10.0281,2.03822c-3.993,0.01302 -7.98618,0.00769 -11.9793,0.00341c0.91868,2.00015 1.91989,3.95258 3.10593,5.93227c1.32704,2.21504 3.46579,3.4292 2.84109,6.71478c-0.29751,1.56475 -1.89979,2.55708 -2.84969,3.83562c-4.02574,0.29368 -8.07986,0.39294 -12.11803,0.26393c-1.15339,-0.03685 -2.41403,0.30416 -3.45671,-0.1903c-2.61286,-1.23908 -3.66137,-3.58737 -4.43965,-6.09733c-0.92642,-2.98773 -0.6088,-6.13724 -0.60364,-9.21237c0.00238,-1.41789 -0.10359,-2.84049 0.01216,-4.25365c0.02469,-0.30143 0.67542,-0.6819 0.40287,-0.81299c-0.32331,-0.15551 -0.55997,0.51525 -0.91503,0.56664c-0.66593,0.09638 -1.33652,0.12792 -2.00943,0.12732l-0.00274,0.61903c-0.26121,1.14443 -0.19793,2.416 -0.78365,3.4333c-2.48465,4.31544 -6.96078,4.34175 -11.224,4.32344c-0.60186,1.94426 -1.26578,3.90527 -3.14726,5.11193c-3.8016,2.43811 -10.21287,0.37835 -14.33293,0.38499c-1.5517,0.0025 -6.75163,0.22978 -7.57017,-1.09843c-1.41569,-2.29716 1.9382,-6.72897 2.81887,-8.48859c1.35646,-2.71027 3.03901,-4.61561 4.59129,-7.17168c2.13984,-3.52358 2.57364,-8.13087 4.42395,-11.85933c0,0 0.50358,-1.00716 1.51074,-1.33164c0.61667,-0.30032 1.22532,-0.30033 1.22532,-0.30033c8.79656,0 17.98182,-0.76901 26.74634,0.01217c4.49783,0.40089 8.91463,1.61835 13.43088,1.99412c4.85606,0.40405 9.95582,-0.00629 14.82278,-0.00629c2.00103,0 7.8802,-0.65533 9.26776,0.73224c0.64053,0.64053 0.85652,2.66009 0.89711,4.77311c1.30385,0.08489 2.33513,1.16934 2.33513,2.49465zM361.35,185.50625c0,-1.83101 1.34103,-2.32098 2.05875,-2.45209l-0.05875,-0.79791c0,0 0,-2.5 2.5,-2.5c2.5,0 2.5,2.5 2.5,2.5l-0.17881,0.57153c0.02361,0.0591 0.04722,0.1181 0.07083,0.17702c4.70265,-0.00423 9.40546,-0.01523 14.10798,0.00145c1.53321,0.00544 3.06635,0.02247 4.59954,0.03228c0.45745,0.00293 1.14058,0.40034 1.37235,0.00594c0.27173,-0.46239 -0.42188,-1.00424 -0.47189,-1.53823c-0.10879,-1.16159 0,-2.33334 0,-3.5c0,-0.83334 -0.18412,-1.68726 0,-2.5c-1.62548,0.36823 -3.33333,0 -5,0c-4.98577,0 -10.20246,0.40883 -15.17723,-0.00629c-4.56694,-0.38109 -9.02627,-1.58404 -13.56912,-2.00587c-8.18703,-0.76021 -16.7977,-0.05925 -25.05505,0.00721c-2.13173,4.7215 -2.92278,9.55229 -6.22228,13.78601c-1.44414,1.85304 -2.00742,4.16619 -3.19036,6.14157c2.95814,-0.21641 6.48616,0.82518 9.21403,0.82737c1.22296,0.00098 2.6078,0.4962 3.66707,-0.11501c1.07745,-0.6217 1.01677,-2.27586 1.39981,-3.45936c0.30271,-2.08731 0.83865,-4.14773 1.53676,-6.13799c0.41156,-1.17332 0.21685,-2.70995 1.1286,-3.5554c1.02717,-0.95246 2.64032,-0.98591 4.02142,-1.22007c3.45245,-0.58535 8.26044,-0.29096 11.74635,-0.01217c1.37032,0.1096 3.04589,-0.33342 4.08497,0.56664c1.11257,0.96373 1.17258,2.73321 1.40286,4.18701c0.73627,4.64822 -1.25942,9.98231 1.09927,14.37011c0.92944,1.729 3.2258,0.87623 4.91289,0.87623c2.46058,0 4.95872,-0.19887 7.38196,0.26393c0.55692,-0.60905 -1.90185,-3.27198 -2.00859,-3.4496c-1.70099,-2.83059 -3.05967,-5.6316 -4.32081,-8.56433h-1.05257c0,0 -2.5,0 -2.5,-2.5zM340.85,186.25625c-0.22458,0 -0.44225,-0.02962 -0.64931,-0.08515c-0.16665,0.72144 -0.37261,1.43467 -0.57873,2.14763c2.66125,0.06761 5.3025,-0.13918 5.74021,-3.30882l-0.00137,-0.25332c-0.62835,0.00011 -1.45764,0 -2.2185,-0.00107c-0.38561,0.88334 -1.26686,1.50073 -2.2923,1.50073z" fill="#000000"/><path d="M363.89949,188.01342l1.05266,-0.00068c1.26114,2.93274 2.61204,5.75469 4.31302,8.58528c0.10674,0.17762 2.56313,2.84387 2.00621,3.45292c-2.42324,-0.4628 -4.93088,-0.25463 -7.39146,-0.25463c-1.6871,0 -3.99479,0.85913 -4.92423,-0.86988c-2.3587,-4.3878 -0.42557,-9.74451 -1.16183,-14.39273c-0.23028,-1.4538 -0.26438,-3.20046 -1.37695,-4.16419c-1.03908,-0.90007 -2.68477,-0.45509 -4.05509,-0.56468c-3.48591,-0.2788 -8.26114,-0.59912 -11.71359,-0.01377c-1.3811,0.23416 -2.99122,0.26023 -4.01839,1.21269c-0.91175,0.84545 -0.71493,2.37226 -1.12649,3.54558c-0.69811,1.99026 -1.23476,4.03522 -1.53748,6.12253c-0.38304,1.1835 -0.32418,2.83107 -1.40163,3.45277c-1.05926,0.61121 -2.53911,0.14718 -3.76206,0.1462c-2.72787,-0.00219 -6.25711,-1.04861 -9.21525,-0.8322c1.18293,-1.97538 1.74527,-4.29717 3.18941,-6.1502c3.29949,-4.23372 4.09625,-9.08885 6.22798,-13.81034c8.25736,-0.06646 16.91266,-0.79422 25.09969,-0.03401c4.54285,0.42183 9.04066,1.64329 13.6076,2.02438c4.97476,0.41512 10.19929,0.01986 15.18507,0.01986c1.66667,0 3.37536,0.3706 5.00084,0.00237c-0.18412,0.81274 0.00095,1.66994 0.00095,2.50328c0,1.16666 -0.10782,2.34328 0.00097,3.50487c0.05001,0.53399 0.74392,1.07811 0.47219,1.54051c-0.23177,0.3944 -1.01436,0.00746 -1.4718,0.00454c-1.53319,-0.00982 -3.06622,-0.02593 -4.59943,-0.03137c-4.70252,-0.01668 -9.40422,0.00025 -14.10687,0.00448c-0.02361,-0.05892 -0.04706,-0.11731 -0.07067,-0.1764l0.17927,-0.5699c0,0 0.00455,-2.48947 -2.49545,-2.48947c-2.5,0 -2.41131,2.45402 -2.41131,2.45402l0.06019,0.80134c-0.71771,0.13111 -2.05609,0.63141 -2.05609,2.46241c0,2.5 2.50002,2.51442 2.50002,2.51442z" data-paper-data="{&quot;noHover&quot;:false,&quot;origItem&quot;:[&quot;Path&quot;,{&quot;applyMatrix&quot;:true,&quot;segments&quot;:[[[787.5,265.8125],[0,5],[0,-3.66202]],[[791.6175,260.90831],[-1.43543,0.26223],[0,0]],[791.5,259.3125],[[796.5,254.3125],[-5,0],[5,0]],[801.5,259.3125],[[801.14238,260.45555],[0,0],[0.04722,0.11819]],[[801.28404,260.8096],[-0.04722,-0.11785],[9.4053,-0.00846]],[[829.5,260.8125],[-9.40503,-0.03337],[3.06642,0.01088]],[[838.69909,260.87706],[-3.06638,-0.01963],[0.91489,0.00586]],[[841.44379,260.88895],[-0.46354,0.78879],[0.54346,-0.92479]],[[840.5,257.8125],[0.10003,1.06798],[-0.21759,-2.32317]],[[840.5,250.8125],[0,2.33333],[0,-1.66667]],[[840.5,245.8125],[-0.36824,1.62548],[-3.25096,0.73647]],[[830.5,245.8125],[3.33333,0],[-9.97155,0]],[[800.14555,245.79992],[9.94953,0.83024],[-9.13387,-0.76217]],[[773.00731,241.78817],[9.0857,0.84366],[-16.37407,-1.52043]],[[722.8972,241.80259],[16.51471,-0.13292],[-4.26345,9.44299]],[[710.45265,269.37461],[6.59899,-8.46744],[-2.88828,3.70607]],[[704.07194,281.65775],[2.36587,-3.95077],[5.91628,-0.43282]],[[722.5,283.3125],[-5.45574,-0.00438],[2.44591,0.00196]],[[729.83414,283.08247],[-2.11853,1.22242],[2.15489,-1.24341]],[[732.63376,276.16374],[-0.76608,2.36701],[0.60543,-4.17462]],[[735.70728,263.88777],[-1.39622,3.98052],[0.82312,-2.34664]],[[737.96447,256.77697],[-1.8235,1.69089],[2.05434,-1.90493]],[[746.00731,254.33683],[-2.7622,0.46832],[6.90489,-1.17071]],[[769.5,254.3125],[-6.97181,-0.55759],[2.74064,0.21919]],[[777.66994,255.44579],[-2.07815,-1.80013],[2.22513,1.92745]],[[780.47567,263.81981],[-0.46056,-2.9076],[1.47254,9.29644]],[[782.67421,292.56004],[-4.71739,-8.77561],[1.85887,3.458]],[[792.5,294.3125],[-3.3742,0],[4.92117,0]],[[807.26393,294.84036],[-4.84648,-0.9256],[1.11383,-1.2181]],[[803.24675,287.94116],[0.21348,0.35524],[-3.40197,-5.66119]],[[794.60513,270.8125],[2.52227,5.86547],[0,0]],[792.5,270.8125]],&quot;closed&quot;:true}]}" fill="#262626"/></g><path d="M308.98618,153.18693c-0.00254,4.9002 -0.0004,9.89998 0.00914,14.80013c0.00225,1.15677 -0.0362,2.79543 0.10809,4.42425l-0.32763,0.04534c0,0 -2.41604,-0.05191 -2.41604,2.44809c0,2.5 2.46907,2.48323 2.46907,2.48323c0.87172,0 1.97073,0.00335 2.90744,0.00335c2.82,1.57145 7.16997,1.27349 9.9325,1.0131c1.28827,-0.12143 2.56944,-0.33984 3.81818,-0.679c0.39322,-0.1068 0.63599,-0.64865 1.04317,-0.63335c0.23257,0.00874 -0.09163,0.46529 -0.10966,0.69733c-0.06293,0.80991 -0.13249,1.63568 -0.03848,2.44258c0.16904,1.4508 0.50256,2.8849 0.75631,4.3236c-0.14175,0.53922 -0.09755,0.99446 -0.09755,0.99446l0.32736,3.30961c0.002,0.02276 0.00424,0.0455 0.00684,0.06808c-1.98633,1.89795 -3.97542,1.80956 -6.88323,2.64993c-4.48395,1.29588 -9.00754,0.9094 -13.67638,0.9094c-2.59688,0 -5.26852,0.14238 -7.86108,-0.00038c-0.16582,-0.00913 -3.42721,-0.31153 -3.82249,-0.7002c-1.10179,-1.08336 -1.058,-2.92353 -1.7868,-4.28605c-0.4651,-0.86952 -1.14419,-1.6312 -1.61549,-2.49317c0.21867,-0.54788 0.2177,-1.04189 0.2177,-1.04189c-0.00497,-2.92463 0.64461,-5.19932 0.97402,-8.04467c0.22245,-1.92146 -0.38228,-3.91741 -0.0332,-5.81994c0.2752,-1.4999 1.25292,-2.79573 1.85246,-4.19786c2.19437,-5.13192 5.53205,-9.51788 8.422,-14.18721c1.86237,0.63164 3.83091,1.12576 5.82374,1.47124z" data-paper-data="{&quot;noHover&quot;:false,&quot;origItem&quot;:[&quot;Path&quot;,{&quot;applyMatrix&quot;:true,&quot;segments&quot;:[[[325.83335,213.4375],[0.00954,-4.90015],[-0.00225,1.15677]],[[325.76117,217.9375],[0.14429,-1.62882],[0,0]],[326.00002,217.9375],[[328.50002,220.4375],[0,-2.5],[0,2.5]],[[326.00002,222.9375],[0,0],[-0.87172,0]],[[323.06657,222.9375],[0.93671,0],[-2.82,1.57145]],[[313.10883,223.9274],[2.76253,0.26039],[-1.28827,-0.12143]],[[309.28788,223.24197],[1.24874,0.33916],[-0.39322,-0.1068]],[[308.24389,222.60608],[0.40718,-0.0153],[-0.23257,0.00874]],[[308.44895,223.2735],[-0.01803,-0.23204],[0.06293,0.80991]],[[308.48508,225.71029],[0.09401,-0.8069],[-0.16904,1.4508]],[[307.72455,230.02672],[0.25375,-1.4387],[0.14175,0.53922]],[307.82093,231.01959],[[307.49035,234.32541],[0,0],[-0.002,0.02276]],[[307.48345,234.39342],[0.0026,-0.02258],[1.98633,1.89795]],[[314.35481,237.03406],[-2.90781,-0.84037],[4.48395,1.29588]],[[328.00001,237.93749],[-4.66884,0],[2.59688,0]],[[335.84466,237.94232],[-2.59256,0.14276],[0.16582,-0.00913]],[[339.66066,237.24616],[-0.39528,0.38867],[1.10179,-1.08336]],[[341.44076,232.96602],[-0.7288,1.36252],[0.4651,-0.86952]],[[343.052,230.47798],[-0.4713,0.86197],[-0.21867,-0.54788]],[[342.83333,229.43748],[0,0],[0.00497,-2.92463]],[[341.85206,221.4096],[0.32941,2.84535],[-0.22245,-1.92146]],[[341.88438,215.60681],[0.34908,1.90253],[-0.2752,-1.4999]],[[340.03546,211.42228],[0.59954,1.40213],[-2.19437,-5.13192]],[[331.64461,197.2634],[2.88995,4.66933],[-1.86237,0.63164]],[[325.83431,198.7369],[1.99283,-0.34548],[0.00254,4.9002]]],&quot;closed&quot;:true,&quot;fillColor&quot;:[0,0,0,1]}],&quot;index&quot;:null}" fill="#7b8a52" stroke-width="0.5"/><path d="M298.28243,164.38852c0.95657,-0.37949 1.91474,-0.77881 2.81363,-0.43358c4.05509,1.55742 3.88259,7.84471 2.88764,11.02962c-0.17267,0.55273 -1.16151,0.74724 -1.12346,1.32507c0.03496,0.53099 0.93137,0.55478 1.27405,0.96189c2.42932,2.88611 4.03631,4.40373 0.11964,7.91508c-3.54768,3.18055 -9.15319,0.1592 -11.22851,-2.89097c-3.39987,-4.99693 -2.62152,-10.96584 0.43823,-15.68131l3.08192,-1.96374c0,0 0.82853,-0.43251 1.73687,-0.26204z" data-paper-data="{&quot;index&quot;:null}" fill="#6c7834" stroke-width="0.5"/><path d="M313.99109,155.41913c0.00292,4.17281 0.00637,8.34564 -0.00245,12.51839c-0.0036,1.70195 -0.84629,3.70236 0.11846,5.10446c0.49608,0.72096 3.86412,0.397 4.04821,0.39554c1.86677,-0.01481 3.71782,-0.32059 5.57469,-0.53156c0.0599,-0.25963 0.15289,-0.48185 0.2682,-0.67204c-0.02271,-0.06803 -0.05181,-0.13418 -0.08868,-0.19802c-0.49591,-0.85875 -1.64157,-1.19822 -2.16476,-2.04062c-1.5381,-2.47652 -1.94876,-4.50299 -2.5886,-7.08034c-0.26553,-0.30775 -0.21498,-0.80571 -0.27862,-1.21353c-0.20845,-1.33575 -0.6471,-3.58505 -0.87199,-5.71025c-0.62418,-1.48615 -0.80693,-3.45482 -0.34002,-5.18489c0.36434,-1.34999 1.12425,-2.5547 2.37868,-3.27152l0.79583,0.45476c2.19429,-0.18565 4.42133,-0.36752 6.71418,-0.38414c1.86269,-0.84704 3.03737,0.98024 3.03737,0.98024c0.83109,1.30805 1.47935,2.7521 2.49326,3.92416c1.65872,1.91746 4.70564,3.51856 6.16852,5.73495c1.55035,2.3489 2.37857,6.21272 3.27097,8.89425c0.38127,1.14566 0.77481,2.29174 1.04158,3.46934c0.12293,0.54267 -0.20724,1.21589 0.12149,1.66482c0.24891,0.33993 0.82644,0.18486 1.2473,0.20449c1.93565,0.09029 3.91309,-0.07053 5.80201,0.36177c4.0752,0.93265 8.88555,1.381 12.84312,2.71576c1.24117,0.41861 2.68902,0.75795 3.49994,1.78661c0.18557,0.2354 0.34783,0.55631 0.49033,0.93555c0.49693,-0.17314 0.91853,-0.17314 0.91853,-0.17314c3.30843,0.03852 8.40799,0.44259 10.22292,4.02272c0.67175,1.32509 0.42935,2.97365 0.25835,4.44941c-0.64031,5.52602 -4.43007,6.12154 -9.14793,6.19455h-1.22602c-0.16924,0.90155 -0.45081,1.66503 -0.90288,2.158c-1.94403,2.11991 -7.35703,1.47964 -9.96339,2.10846c-3.31299,0.7993 -6.82645,2.55258 -10.17392,3.03459c-5.68981,0.81929 -12.79805,0.33393 -18.34013,-1.04236l-1.17836,-0.52263c0,0 -2.23608,-1.11803 -1.11804,-3.3541c0.04091,-0.0818 0.0833,-0.15911 0.12703,-0.23215c-6.02875,2.90487 -13.65704,2.51685 -20.22429,2.51685c-4.32762,0 -11.45655,1.18118 -15.00601,-1.97534c-1.27818,-1.13668 -2.05238,-4.12903 -2.88656,-5.71986c-0.65551,-1.2501 -1.64427,-2.33305 -2.13725,-3.65571c-0.32383,-0.86882 -0.51996,-1.80942 -0.62699,-2.79116c0.2716,0.14018 0.54681,0.26824 0.82542,0.38215c0.03957,-2.96889 0.66852,-5.47302 1.0168,-8.37887c0.28418,-2.37109 -0.43618,-3.7349 0.03232,-6.19721c1.52112,-7.99463 8.08334,-14.91814 11.945,-21.73768l1.66294,-0.83657c1.27041,0.58438 2.68432,0.91026 4.17434,0.91026c0.07877,0 0.15733,-0.00091 0.23566,-0.00272c0.86137,0.24295 1.71637,0.43121 2.56696,0.57426c1.35636,0.82176 3.67647,1.08894 4.64182,1.30346c0.20534,0.04563 0.59033,-0.05196 0.61111,0.15736c0.02388,0.24049 0.01847,0.49812 -0.00439,0.76575c0.07887,0.09693 0.15063,0.19988 0.21448,0.30806c1.25745,0.71854 0.93931,3.24156 -0.09654,4.87544zM308.98768,153.23691c-1.99283,-0.34548 -3.94793,-0.84186 -5.8103,-1.4735c-2.88995,4.66933 -6.19648,9.02696 -8.39085,14.15888c-0.59954,1.40213 -1.57372,2.68463 -1.84892,4.18453c-0.34908,1.90253 0.25477,3.88133 0.03232,5.80279c-0.32941,2.84535 -0.98624,5.10325 -0.98127,8.02788c0,0 0,0.49262 -0.21867,1.0405c0.4713,0.86197 1.14614,1.61852 1.61124,2.48804c0.7288,1.36252 0.67831,3.19678 1.7801,4.28014c0.39528,0.38867 3.65018,0.68703 3.816,0.69616c2.59256,0.14276 5.24777,-0.00483 7.84465,-0.00483c4.66884,0 9.16125,0.39245 13.6452,-0.90343c2.90781,-0.84037 4.88503,-0.74269 6.87136,-2.64064c-0.0026,-0.02258 -0.0049,-0.04525 -0.0069,-0.06801l-0.33058,-3.30582c0,0 -0.04537,-0.45365 0.09638,-0.99287c-0.25375,-1.4387 -0.59149,-2.86563 -0.76053,-4.31643c-0.09401,-0.8069 -0.0268,-1.62688 0.03613,-2.43679c0.01803,-0.23204 0.43763,-0.65868 0.20506,-0.66742c-0.40718,-0.0153 -0.65077,0.52909 -1.04399,0.63589c-1.24874,0.33916 -2.53268,0.564 -3.82095,0.68543c-2.76253,0.26039 -7.13774,0.58155 -9.95774,-0.9899c-0.93671,0 -2.06173,0 -2.93345,0c0,0 -2.5,0 -2.5,-2.5c0,-2.5 2.5,-2.5 2.5,-2.5h0.23885c-0.14429,-1.62882 -0.06993,-3.34323 -0.07218,-4.5c-0.00954,-4.90015 -0.0035,-9.8004 -0.00096,-14.7006zM323.80863,161.02627c0.07482,0.18269 0.10537,0.30489 0.10537,0.30489c0.46969,1.90084 0.92022,4.22608 1.9852,5.88191c0.65402,1.01686 1.95701,1.54678 2.5019,2.62605c0.43301,0.85765 0.40983,1.86408 0.49376,2.83559c0.05786,0.02856 0.11487,0.05991 0.171,0.0942c0.50239,0.30699 0.87564,0.75819 1.1717,1.27988c0.87172,-0.44974 1.85743,-0.20332 1.85743,-0.20332c1.12126,0.31957 2.39166,0.31504 3.36379,0.95872c1.82328,1.20724 6.98154,7.27482 6.15143,9.9394c-0.56148,1.80229 -2.20208,3.21717 -3.83152,4.17027c-1.04398,0.61065 -2.41559,0.12687 -3.62338,0.1903h-0.86178c0.47052,1.82405 -1.35352,2.73607 -1.35352,2.73607l-0.6836,0.19836c-0.68063,0.6462 -1.40243,1.21585 -2.1589,1.71793c0.66002,0.02034 1.17583,0.27824 1.17583,0.27824l0.15497,0.14405c4.91164,1.23704 11.29227,1.66973 16.32654,0.95764c3.22093,-0.4556 6.63073,-2.21354 9.82607,-2.96541c1.21085,-0.28492 2.42546,-0.58045 3.66137,-0.72138c0.86359,-0.09847 1.73921,-0.03165 2.60755,0.00656c0.37034,0.01629 0.86869,0.44546 1.10102,0.1566c0.25065,-0.31163 -0.25867,-0.76537 -0.29073,-1.16401c-0.14357,-1.78526 -0.0034,-3.58206 -0.00101,-5.37308c-0.16806,-1.51157 0.3889,-3.25982 -0.4283,-4.5425c-0.21243,-0.33344 -0.77948,-0.13367 -1.16672,-0.21339c-1.44384,-0.29725 -2.87519,-0.6572 -4.32615,-0.91744c-3.49908,-0.6276 -7.21957,-1.77575 -10.7209,-1.96875c-2.6401,-0.14553 -4.80031,0.49928 -7.06051,-1.83179c-0.89647,-0.92458 -0.8237,-2.44056 -1.21185,-3.66851c-1.02843,-3.25353 -1.80143,-8.11952 -3.68745,-10.96974c-1.42538,-2.1541 -4.07118,-3.22982 -5.75724,-5.18661c-0.82771,-0.96063 -1.46051,-2.06747 -2.10624,-3.16461c-1.42776,0.03961 -2.72696,0.2168 -4.03496,0.42253c0.07979,0.53731 0.13238,1.02229 0.18387,1.26376c0.28901,1.35529 0.76553,4.37633 0.46596,6.72759zM368.48867,183.10419c0,0 -0.00372,0.00001 -0.01087,-0.00014c0.07031,0.66226 0.12472,1.25413 0.17371,1.69522c0.00089,0.73303 0.07461,1.7961 0.12563,2.97159h1.04485c2.27051,0.04984 3.88375,0.65147 4.1854,-1.80546c0.06385,-0.52008 0.48389,-1.07763 0.25835,-1.55059c-0.69803,-1.46382 -4.70608,-1.32745 -5.77708,-1.31062zM332.85185,179.07083c-0.43713,-0.29487 -1.00188,-0.2799 -1.5432,-0.3218c-0.0248,0.30787 -0.03733,0.61477 -0.0016,0.91571c0.17703,1.49077 0.50811,2.95992 0.76412,4.43945h2.08415c0.84924,0.09451 2.4614,0.54428 2.54511,-0.3061c0.03143,-0.31931 -0.52008,-0.38666 -0.72383,-0.63452c-0.45615,-0.55492 -2.56701,-3.7165 -3.12474,-4.09274z" data-paper-data="{&quot;index&quot;:null}" fill="#000000" stroke-width="0.5"/><path d="M332.8308,179.02546c0.55773,0.37624 2.72823,3.61498 3.18438,4.1699c0.20375,0.24786 0.755,0.31553 0.72357,0.63484c-0.08371,0.85038 -1.73105,0.41839 -2.58029,0.32388l-2.11719,-0.00983c-0.25601,-1.47953 -0.59827,-3.01725 -0.7753,-4.50802c-0.03573,-0.30094 -0.01686,-0.6153 0.00794,-0.92317c0.54132,0.0419 1.11975,0.01754 1.55688,0.31241z" data-paper-data="{&quot;noHover&quot;:false,&quot;origItem&quot;:[&quot;Path&quot;,{&quot;applyMatrix&quot;:true,&quot;segments&quot;:[[[603.94025,449.14161],[0,0],[-1.11546,0.75248]],[[597.69077,457.32709],[0.9123,-1.10984],[-0.4075,0.49572]],[[596.24311,458.59613],[-0.06286,-0.63862],[0.16742,1.70076]],[[601.33333,459.20833],[-1.69848,0.18902],[0,0]],[[605.50163,459.20833],[0,0],[0.51202,-2.95906]],[[607.02987,450.32943],[-0.35406,2.98154],[0.07146,-0.60188]],[[607.02667,448.49801],[0.0496,0.61574],[-1.08264,0.0838]],[[603.94027,449.14161],[0.87426,-0.58974],[0,0]]],&quot;closed&quot;:true,&quot;fillColor&quot;:[0,0,0],&quot;strokeWidth&quot;:0.5}],&quot;index&quot;:null}" fill="#ffb26e" stroke-width="0.25"/><path d="M368.44991,183.07259c1.071,-0.01683 5.16464,-0.13908 5.86267,1.32474c0.22554,0.47296 -0.19218,1.05711 -0.25603,1.57719c-0.30165,2.45693 -1.99249,1.8873 -4.263,1.83746l-1.05411,-0.00828c-0.05102,-1.17549 -0.13556,-2.28344 -0.13645,-3.01647c-0.04899,-0.44109 -0.09368,-1.05245 -0.16399,-1.71471c0.00715,0.00015 0.01093,0.00007 0.01093,0.00007z" data-paper-data="{&quot;noHover&quot;:false,&quot;origItem&quot;:[&quot;Path&quot;,{&quot;applyMatrix&quot;:true,&quot;segments&quot;:[[[532.66665,457.20833],[0,0],[-2.142,-0.03366]],[[521.11249,459.82957],[1.39606,-2.92764],[-0.45108,0.94592]],[[521.62919,462.93075],[-0.1277,-1.04016],[0.6033,4.91386]],[[529.99999,466.54167],[-4.54102,0.09968],[0,0]],[[532.08969,466.54167],[0,0],[0.10204,-2.35098]],[[532.34095,460.59849],[-0.00178,1.46606],[0.09798,-0.88218]],[[532.68837,457.20805],[-0.14062,1.32452],[-0.0143,0.0003]],[532.66663,457.20833]],&quot;closed&quot;:true,&quot;fillColor&quot;:[0,0,0],&quot;strokeWidth&quot;:0.5}],&quot;index&quot;:null}" fill="#ffb26e" stroke-width="0.25"/></g></g></svg>