<svg version="1.1" xmlns="http://www.w3.org/2000/svg" xmlns:xlink="http://www.w3.org/1999/xlink" width="81" height="20.5" viewBox="0,0,81,20.5"><g transform="translate(-292.2,-189.75)"><g data-paper-data="{&quot;isPaintingLayer&quot;:true}" fill-rule="nonzero" stroke-width="0.5" stroke-linejoin="miter" stroke-miterlimit="10" stroke-dasharray="" stroke-dashoffset="0" style="mix-blend-mode: normal"><path d="M292.45,210v-20h80.5v20z" fill="#151515" stroke="#000000" stroke-linecap="butt"/><g data-paper-data="{&quot;index&quot;:null}" fill="none" stroke="#ffffff"><path d="M327.46706,206.01214v-14.17858h17.67857l4.10715,4.10715v6.07143l-4,4z" stroke-linecap="round"/><path d="M345.68136,192.22642l-2.03571,2.03572h-15.96429v-2.39286" stroke-linecap="round"/><path d="M327.46706,206.01214v-14.17858h17.67857l4.10715,4.10715v6.07143l-4,4z" stroke-linecap="round"/><path d="M325.82419,204.86928v-12.07143h1.28572v12.07143z" stroke-linecap="butt"/><path d="M332.0426,201.8639v-6.40693h12.37501v6.40693z" stroke-linecap="butt"/><path d="M317.75275,200.01214h-5.57143v-2.5h5.85715" stroke-linecap="round"/><path d="M325.60991,192.22642v13.42857l-7.71429,-5.64285v-2.42858z" stroke-linecap="round"/><path d="M304.18135,201.70499v-5.99285h7.92858v5.99285z" stroke-linecap="butt"/><path d="M327.68135,205.72642v-1.53572h16.53572l1.53571,1.53572" stroke-linecap="round"/><path d="M349.46706,196.01214h12.07143l1.35714,4.35714l5.64286,-2.07143l2.71429,6l-11.85715,3.14285l-1.5,-6.78571l-6,0.21428z" stroke-linecap="round"/><path d="M351.39564,199.86928c0,0 -0.3904,0.66922 -0.78571,0.64286c-0.39531,-0.02635 -1.35715,-0.78572 -1.35715,-0.78572" stroke-linecap="round"/><path d="M350.32421,199.65499l0.21429,-1.5" stroke-linecap="round"/></g></g></g></svg>