<svg version="1.1" xmlns="http://www.w3.org/2000/svg" xmlns:xlink="http://www.w3.org/1999/xlink" width="86.28375" height="200.79886" viewBox="0,0,86.28375,200.79886"><g transform="translate(-276.85813,-79.60057)"><g data-paper-data="{&quot;isPaintingLayer&quot;:true}" fill-rule="nonzero" stroke="none" stroke-linecap="butt" stroke-linejoin="miter" stroke-miterlimit="10" stroke-dasharray="" stroke-dashoffset="0" style="mix-blend-mode: normal"><path d="M330.66588,158.26074c2.23465,7.20823 3.19694,14.91628 5.21284,22.17762c0.98998,3.56594 1.48767,6.548 3.45813,9.63804c0.08816,0.13825 -0.32086,-0.0844 -0.48483,-0.08487c-1.40277,-0.004 -2.81059,0.01705 -4.21215,0.07551c-2.28443,0.09528 -4.57874,0.25262 -6.86514,0.25155c-4.24885,0 -8.1928,0.84146 -12.37974,1.00557c-4.47071,0.17523 -8.75043,-0.75185 -13.16879,-0.7612c-0.6121,-0.00129 -2.34951,-0.25043 -3.83796,-0.19636c-0.09746,-0.42339 -0.31141,-0.8846 -0.74846,-1.23897c0.07096,-0.16734 0.136,-0.33711 0.19495,-0.50858c0.54399,-1.58222 0.71739,-3.91819 0.87045,-5.58825c0.4606,-5.02568 0.71122,-10.08238 1.70596,-15.03977c1.27673,-7.04002 2.86614,-14.00896 4.26838,-21.02013l0.03642,-0.2161c1.11308,0.16643 2.17981,0.29675 3.02025,0.46104c4.12957,0.01548 8.65598,0.47186 12.73946,-0.28691c1.89208,-0.35157 3.91603,-1.18633 5.58764,-2.16511c0.56603,5.08954 3.1129,8.69179 4.60255,13.49692z" data-paper-data="{&quot;noHover&quot;:false,&quot;origItem&quot;:[&quot;Path&quot;,{&quot;applyMatrix&quot;:true,&quot;segments&quot;:[[[614.00717,417.69554],[0,0],[-4.4693,14.41644]],[[603.58503,461.93006],[4.0318,-14.52268],[-1.97996,7.13188]],[[596.65607,481.19154],[3.94092,-6.18008],[-0.17632,0.2765]],[[597.62501,481.02112],[-0.32794,0.00094],[2.80554,-0.008]],[[606.04043,481.1648],[-2.80312,-0.11692],[4.56884,0.19056]],[[619.75003,481.65624],[-4.5728,0.00214],[8.4977,0]],[[644.45783,483.66056],[-8.37388,-0.32822],[8.94142,0.35046]],[[670.75003,482.15624],[-8.83672,0.0187],[1.2242,-0.00258]],[[678.41759,481.77028],[-2.9769,-0.10814],[0.19492,-0.84678]],[[679.91111,479.29554],[-0.8741,0.70874],[-0.14194,-0.33468]],[[679.52067,478.27892],[0.1179,0.34294],[-1.08798,-3.16444]],[[677.77091,467.11262],[0.30612,3.34012],[-0.9212,-10.05136]],[[674.33873,437.09378],[1.98948,9.91478],[-2.55346,-14.08004]],[[665.84715,395.13682],[2.80448,14.02234],[0,0]],[[665.77481,394.70494],[0,0],[-2.22616,0.33286]],[[659.74275,395.63192],[1.68088,-0.32858],[-8.25914,0.03096]],[[634.31903,395.0688],[8.16696,1.51754],[-3.78416,-0.70314]],[[623.16533,390.73412],[3.34322,1.95756],[-1.13206,10.17908]],[[614.00723,417.69554],[2.9793,-9.61026],[0,0]]],&quot;closed&quot;:true,&quot;fillColor&quot;:[0,0,0],&quot;strokeWidth&quot;:0.5}],&quot;index&quot;:null}" fill="#7b8a52" stroke-width="0.25"/><path d="M313.75684,149.4346c0.39368,2.16969 1.1422,4.28026 1.35493,6.47509c0.58478,6.03357 -2.73648,10.13378 -8.96995,9.46729c-1.35881,-0.14529 -2.93794,0.01067 -4.01458,-0.83095c-4.46102,-3.4872 -1.10833,-9.08024 0.13155,-12.78812c0.73744,-2.20532 1.25573,-5.05296 3.31132,-6.14007c1.10043,-0.58197 2.48471,-0.15735 3.72706,-0.23603h0.33333c0,0 2.21174,0 2.47457,2.08033c1.3667,0.4046 1.65177,1.97246 1.65177,1.97246z" data-paper-data="{&quot;index&quot;:null}" fill="#385130" stroke-width="0.5"/><path d="M325.59097,154.83281c0.95657,-0.37949 1.91474,-0.77881 2.81363,-0.43358c4.05509,1.55742 3.88259,7.84471 2.88764,11.02962c-0.17267,0.55273 -1.16151,0.74724 -1.12346,1.32507c0.03496,0.53099 0.93137,0.55478 1.27405,0.96189c2.42932,2.88611 4.03631,4.40373 0.11964,7.91508c-3.54768,3.18055 -9.15319,0.1592 -11.22851,-2.89097c-3.39987,-4.99693 -2.62152,-10.96584 0.43823,-15.68131l3.08192,-1.96374c0,0 0.82853,-0.43251 1.73687,-0.26204z" data-paper-data="{&quot;index&quot;:null}" fill="#6c7834" stroke-width="0.5"/><path d="M297.13422,175.70924c0.16023,-1.91661 2.22019,-2.14549 2.22019,-2.14549c2.99165,-0.32996 7.19902,-1.93636 10.14344,-0.86c2.46254,0.9002 4.00698,3.57894 6.76996,4.26065c4.98323,1.2295 9.93661,0.02282 14.80293,2.50914c4.2768,2.18512 8.39854,6.31182 2.86084,10.37634c-3.1816,2.33521 -9.0279,0.67795 -12.75262,1.63768c-6.01408,1.19994 -12.408,2.10945 -18.54847,2.06091c-2.37456,-0.01877 -5.26177,0.35397 -7.0078,-2.01046c-2.462,-3.33399 -0.25375,-10.2087 0.19378,-13.79963l1.31776,-2.02913z" data-paper-data="{&quot;index&quot;:null}" fill="#a8c675" stroke-width="0.5"/><path d="M289.14709,189.35045c-3.14319,-1.74456 -5.68953,-5.29149 -6.69491,-8.64882c0.05109,-4.12059 -0.14658,-8.34863 0.24378,-12.44712c0.36131,-3.79349 1.59916,-7.38281 2.24951,-11.11799c0.89168,-5.12121 3.45842,-11.33398 9.05227,-13.02451c0.51035,-0.15423 2.7491,-0.15282 3.98611,-0.144c0.31491,0.38428 0.683,0.73975 1.10772,1.05743c0.23971,0.17929 0.51323,0.34093 0.80992,0.48611l-0.0784,0.47439c-1.4049,7.02446 -2.93796,14.01684 -4.22327,21.06881c-0.8253,4.13941 -1.20882,8.35071 -1.57391,12.54951c-0.20016,2.30197 -0.08818,5.18623 -0.88022,7.40662c-0.36428,1.02124 -0.99423,1.96954 -1.41645,2.94848c-0.93565,-0.03952 -1.83803,-0.19591 -2.58213,-0.60891z" data-paper-data="{&quot;noHover&quot;:false,&quot;origItem&quot;:[&quot;Path&quot;,{&quot;applyMatrix&quot;:true,&quot;segments&quot;:[[[696.95777,479.71266],[0,0],[6.28638,-3.48912]],[[710.30301,462.4302],[-2.01076,6.71466],[-0.10218,-8.24118]],[[709.77021,437.6053],[0.78072,8.19698],[-0.72262,-7.58698]],[[705.31647,415.46882],[1.3007,7.47036],[-1.78336,-10.24242]],[[687.27775,389.43462],[11.1877,3.38106],[-1.0207,-0.30846]],[[679.32165,389.14326],[2.47402,-0.01764],[-0.62982,0.76856]],[[677.11177,391.2563],[0.84944,-0.63536],[-0.47942,0.35858]],[[675.49567,392.2271],[0.59338,-0.29036],[0,0]],[[675.65289,393.1757],[0,0],[2.8098,14.04892]],[[684.16131,435.21874],[-2.57062,-14.10394],[1.6506,8.27882]],[[687.23111,460.22232],[-0.73018,-8.3976],[0.40032,4.60394]],[[688.97935,475.0336],[-1.58408,-4.44078],[0.72858,2.04248]],[[691.80489,480.93012],[-0.84444,-1.95788],[1.8713,-0.07904]],[[696.95773,479.71268],[-1.4882,0.826],[0,0]]],&quot;closed&quot;:true,&quot;fillColor&quot;:[0,0,0],&quot;strokeWidth&quot;:0.5}],&quot;index&quot;:null}" fill="#385130" stroke-width="0.25"/><path d="M298.29715,170.54847v0.66667c0,3.82171 0.23357,8.34556 -1.08702,11.9872c-0.48659,1.34182 -0.78732,3.07651 -2.03675,3.76657c-5.74694,3.17404 -8.11057,-2.65407 -8.20956,-6.75377c-0.14897,-6.1699 0.64871,-10.20262 6.25965,-13.50394c0,0 2.17061,-1.24035 3.41096,0.93026c0.12258,0.21452 0.21185,0.41996 0.27319,0.61601c1.38953,0.60098 1.38953,2.291 1.38953,2.291z" data-paper-data="{&quot;index&quot;:null}" fill="#363c1a" stroke-width="0.5"/><path d="M290.00829,146.04098c1.07873,0.43413 2.30856,0.60122 3.23618,1.30238c3.29049,2.48719 3.08087,5.71742 3.05268,9.37178c-0.01879,2.43555 0.34193,5.00018 -1.87907,6.90331c-1.86759,1.60031 -9.74757,2.19763 -11.49512,0.08453c-3.52863,-4.26673 2.33897,-7.69649 2.04086,-11.32117v-2.66667c0,0 0,-2.10081 1.92579,-2.45084c0.9428,-2.03927 3.11868,-1.22332 3.11868,-1.22332z" data-paper-data="{&quot;index&quot;:null}" fill="#162710" stroke-width="0.5"/><path d="M324.00548,279.89746c0,0 -1.7727,0 -2.33263,-1.49274c-1.28959,0.19396 -2.58352,0.04737 -5.09987,0.12341c-7.22392,0.21828 -14.47603,-0.28322 -21.67139,-0.88283c-1.81255,-0.00549 -4.73157,0.16292 -6.30637,-0.78339c-1.32208,-0.79444 -2.59583,-1.93001 -3.1872,-3.35455c-0.52001,-1.25265 0.0377,-2.71294 0.1061,-4.06751c0.18737,-3.7109 0.49136,-7.31625 0.49136,-11.04239l0.26529,-2.52608c0,0 0.1889,-1.70009 1.66047,-2.13147c0.32151,-2.03833 1.34248,-5.73147 1.63515,-7.01592c1.65608,-7.26799 2.87837,-14.71766 4.21347,-22.0498c0.34773,-3.50686 0.51569,-7.24845 1.58441,-10.6312c1.74655,-5.52824 4.62011,-10.34452 5.66559,-16.1188l0.23519,-2.37187c-2.40253,0.10639 -6.70851,0.4028 -8.43446,-0.72756c-2.04218,0.02026 -4.05715,-0.10547 -5.97123,-1.0805c-4.74255,-2.41585 -7.86449,-7.4874 -9.32738,-12.35877c-0.0417,-4.50478 -0.1933,-9.10473 0.2336,-13.58755c0.3732,-3.91892 1.60376,-7.5784 2.27313,-11.43176c1.21503,-6.99455 5.01198,-14.7527 12.48064,-16.9829c0.87573,-0.2615 2.25728,-0.34133 3.58538,-0.3621c-0.18524,-1.37212 -0.2392,-2.77252 -0.34198,-4.0581c-0.65745,-8.22348 -1.92082,-16.2441 -2.74487,-24.44187l-0.00823,-1.32628c-1.64401,-1.44081 -2.92492,-3.22761 -3.53846,-5.42702c-1.62899,-5.83956 2.42256,-12.30345 6.09315,-16.38538c1.97128,-2.1922 4.68298,-3.15666 7.15227,-4.49452c1.13466,-0.61477 2.04607,-1.6336 3.24452,-2.11227c3.05039,-1.21833 8.13935,-1.16064 11.41935,-1.17517h1.5c0,0 0.72865,0 1.3992,0.39337c2.52383,-0.28722 5.7473,-0.73151 8.06543,0.30023c3.84265,1.71026 4.64935,5.71058 4.02685,9.5126c-0.06539,0.39937 -0.10564,0.82014 -0.14796,1.24412c0.6696,-0.0411 1.33391,-0.05646 1.94705,0.17797c3.59625,1.37504 3.02825,2.41754 4.44905,5.26081c1.69895,3.39985 3.1721,7.18307 0.20172,10.68609c-1.27279,1.50102 -3.23685,2.1839 -5.05865,3.02448c0.19667,0.45665 0.23206,0.84586 0.23206,0.84586c0.88346,10.04047 3.28646,23.20061 -4.31722,30.95559c1.18417,0.58088 1.31722,2.04441 1.31722,2.04441c0.41663,4.78372 2.98573,8.18986 4.38885,12.70669c1.88906,6.08112 2.39796,12.53344 3.99769,18.6746c1.00933,3.87472 2.1241,7.83563 3.43343,11.63834c0.45342,1.31686 1.7714,2.59862 1.39333,3.93906c-0.80386,2.85007 -3.60457,3.94224 -6.79971,4.30991c0.64358,5.11141 3.13696,9.86942 4.28356,14.89951c3.01664,13.23388 6.81741,25.7877 11.45376,38.57689c0.36097,1.43867 1.70431,4.9051 2.03403,7.46317c1.80205,0.30119 3.59686,0.72077 5.09281,1.9064c1.12298,0.89003 2.10592,2.07938 2.5972,3.42543c0.46441,1.27243 0.10739,2.7071 0.13532,4.06134c0.05525,2.67871 0.55739,6.48783 -0.79581,8.92964c-0.62358,1.12522 -1.66384,1.98382 -2.66566,2.79087c-3.55443,2.86338 -7.95882,3.02699 -12.28853,3.02949c-5.70442,0.00329 -11.40888,0.00255 -17.11329,-0.00257c-1.79592,-0.16167 -3.59123,-0.33043 -5.38547,-0.50984l-0.75124,0.01241zM352.34452,260.86343c0,0 -0.25892,-0.04315 -0.59498,-0.18539c-0.34677,0.10561 -0.69176,0.20229 -1.02126,0.2993c-1.15427,0.33982 -2.4075,-0.01235 -3.60949,0.04254c-3.74454,0.17099 -7.2399,0.43 -10.98782,0.24946c-3.37027,-0.16235 -6.77437,-0.10142 -10.16828,-0.04646c1.10544,0.67769 2.05362,1.46093 2.74151,2.35849c3.19438,4.16803 2.43807,8.56579 -0.77641,11.58988c0.81352,0.07777 1.62719,0.15399 2.44099,0.22876c4.79556,-0.00467 9.59114,-0.00257 14.38671,-0.00257c3.17184,0 6.76408,0.403 9.79329,-0.8097c4.20556,-1.68364 4.45978,-7.40677 3.59203,-11.37896c-0.4393,-2.01097 -4.44343,-2.12818 -5.79631,-2.34536zM313.32737,262.64108c0,0 -2.01886,-0.14421 -2.29377,-1.98964c-3.70204,-0.74955 -7.41085,-1.71064 -11.14139,-1.88158c-2.05352,-0.09409 -6.51237,0.7684 -8.27516,-0.16062c-0.19737,-0.10401 -0.39754,-0.21349 -0.59763,-0.32883l-0.01392,0.11703c0,2.84983 -0.00339,5.63934 -0.26044,8.47819c-0.1489,1.6445 -0.90694,3.28205 -0.6421,4.91191c0.2215,1.36313 4.42839,0.86398 5.00643,0.86205c8.34463,0.69539 17.55663,1.8997 25.89108,0.79938c3.40721,-0.44982 6.17899,-3.61791 3.80632,-6.73547c-0.65799,-0.86457 -2.79102,-1.4512 -3.53305,-1.7669c-3.06906,-1.30576 -4.5764,-2.09712 -7.94636,-2.30552zM300.11877,253.77503c3.78351,0.1861 7.51535,1.11156 11.25377,1.86336c-0.52994,-4.05869 1.03604,-9.20647 1.90711,-12.21268c-0.04019,-5.61344 0.70654,-11.16347 0.478,-16.79935c-0.12195,-3.00721 -0.74345,-5.83321 -0.75216,-8.8539v-1.75c0,0 0,-2.5 2.5,-2.5c2.5,0 2.5,2.5 2.5,2.5v1.75c-0.00986,2.94564 0.62226,5.70331 0.74784,8.6461c0.25329,5.93579 -0.48532,11.7847 -0.522,17.70065c-0.8032,2.849 -1.41289,5.70734 -1.738,8.64959c-0.12734,1.15245 -0.82213,2.95995 0.21837,3.47154c1.28445,0.63153 2.86249,0.03461 4.2938,0.03211c5.10169,-0.00892 10.2771,-0.23694 15.37453,0.00311c3.59168,0.16914 6.92167,-0.11658 10.51218,-0.25054c0.96294,-0.03593 1.93025,-0.03781 2.89051,0.04254c0.27184,0.02275 0.74555,0.53537 0.77457,0.26413c0.0359,-0.33559 -0.58524,-0.39817 -0.72749,-0.70424c-0.38051,-0.81877 -1.29277,-4.68234 -1.46495,-5.37367c-4.70136,-12.88431 -8.54755,-25.56968 -11.54624,-38.92311c-1.21915,-5.42896 -3.691,-10.40509 -4.3811,-15.88127c-1.78846,-0.05734 -3.444,-0.17749 -4.68203,-0.17695c-4.1895,0 -8.00136,0.81614 -12.1461,0.99784c-3.17752,0.1393 -6.26267,-0.28852 -9.36173,-0.55378c0.00721,0.18689 -0.00457,0.3047 -0.00457,0.3047l-0.26197,2.5995c-1.10587,6.06092 -3.97969,11.10006 -5.83441,16.8812c-0.99878,3.11318 -1.09017,6.63968 -1.41559,9.8688c-1.35602,7.46786 -2.60785,15.04609 -4.28653,22.4502c-0.44153,1.94746 -1.61385,3.72555 -1.80045,5.71371c-0.07392,0.78764 1.57088,0.2692 2.36136,0.23782c0.07735,-0.00307 5.10967,0.00239 5.11329,0.00257zM289.15164,189.30065c0.7441,0.413 1.64077,0.5692 2.57642,0.60872c0.42222,-0.97894 1.04848,-1.92702 1.41277,-2.94826c0.79204,-2.22039 0.67396,-5.10367 0.87412,-7.40564c0.36509,-4.1988 0.7096,-8.36238 1.5349,-12.50179c1.28531,-7.05197 2.84931,-13.99706 4.25421,-21.02152l0.07861,-0.4743c-0.29669,-0.14518 -0.56834,-0.30611 -0.80805,-0.4854c-0.42472,-0.31768 -0.79003,-0.67224 -1.10494,-1.05652c-1.23701,-0.00882 -3.4677,-0.00855 -3.97805,0.14568c-5.59385,1.69053 -8.12768,7.89589 -9.01936,13.0171c-0.65035,3.73518 -1.86556,7.27475 -2.22687,11.06824c-0.39036,4.09849 -0.21531,8.29186 -0.2664,12.41245c1.00538,3.35733 3.52943,6.89667 6.67262,8.64123zM330.62689,158.29208c-1.48965,-4.80513 -4.01302,-8.39117 -4.57905,-13.48071c-1.67161,0.97878 -3.68477,1.81577 -5.57685,2.16734c-4.08348,0.75877 -8.58229,0.29704 -12.71186,0.28156c-0.84044,-0.16429 -1.90295,-0.29706 -3.01603,-0.46349l-0.03617,0.21594c-1.40224,7.01117 -2.96906,13.93846 -4.24579,20.97848c-0.99474,4.95739 -1.25549,9.98374 -1.71609,15.00942c-0.15306,1.67006 -0.33089,4.00093 -0.87488,5.58315c-0.05895,0.17147 -0.12425,0.34097 -0.19522,0.50831c0.43705,0.35437 0.6493,0.81398 0.74676,1.23737c1.48845,-0.05407 3.22168,0.19169 3.83378,0.19298c4.41836,0.00935 8.67539,0.92739 13.1461,0.75216c4.18694,-0.16411 8.10505,-1.00216 12.3539,-1.00216c2.2864,0.00107 4.57038,-0.15044 6.8548,-0.24572c1.40156,-0.05846 2.80494,-0.07584 4.20771,-0.07184c0.16397,0.00047 0.57263,0.22346 0.48447,0.08521c-1.97046,-3.09004 -2.4745,-6.0648 -3.46448,-9.63074c-2.0159,-7.26134 -2.97642,-14.90904 -5.21107,-22.11726zM311.56556,138.75311c-2.48069,0.31008 -2.79078,-2.17061 -2.79078,-2.17061l-0.20791,-1.75943c-1.05358,-4.66585 -2.1171,-8.41815 -1.31565,-12.91592c-2.51416,-0.70829 -5.20588,-1.10464 -7.79359,-1.55913c0.59241,3.75087 1.14169,7.50704 1.296,11.32847c0.08166,2.0221 0.26918,4.03962 0.48449,6.05189c0.05795,0.54167 -0.33384,2.69221 0.69824,3.24404c1.66756,0.89161 4.47263,0.93348 6.31546,1.31218c3.67295,-0.01623 7.65339,0.42283 11.28814,-0.21844c3.2685,-0.57666 7.94671,-3.43375 9.12589,-6.67473c0.3765,-1.03481 0.50183,-4.39842 0.61418,-5.21852c0.11595,-0.84636 0.9004,-4.23158 0.98555,-5.12499c0.39362,-4.13027 -0.56081,-8.01122 -1.07819,-12.02142c-0.70456,0.43183 -1.43592,0.79819 -2.23253,1.00718c-1.08614,0.28496 -2.24957,-0.03972 -3.36818,0.05836c-6.47796,0.56799 -13.18732,1.02926 -19.6569,-0.03244c-1.8002,-0.3598 -3.77111,-0.91023 -5.67198,-1.70397c0.12376,0.97965 0.26142,1.95679 0.40684,2.93247l1.03806,0.02466c2.96618,0.53941 6.08973,0.97406 8.9866,1.80501c2.18378,0.62641 4.04434,2.22563 6.27363,2.66328c0.89136,0.17499 3.40754,-1.8674 3.67034,-1.9926c2.23993,-1.06711 4.65906,-1.70859 6.97476,-2.59938c0,0 2.33337,-0.89745 3.23082,1.43591c0.89745,2.33336 -1.43592,3.23081 -1.43592,3.23081c-0.4618,0.17759 -0.92861,0.34304 -1.39756,0.5032c-0.00913,4.84197 -0.45508,9.59497 -0.01015,14.43709l0.01027,0.47634c0,0 0,2.5 -2.5,2.5c-2.5,0 -2.5,-2.5 -2.5,-2.5l0.01027,-0.02366c-0.39439,-4.38168 -0.10586,-8.68513 -0.02807,-13.0447c-0.03672,0.01732 -0.07338,0.03477 -0.10999,0.05235c-2.63552,1.26564 -2.66857,2.83354 -6.32966,2.5074c-0.89685,-0.07989 -1.74313,-0.36192 -2.5703,-0.72556c-0.30122,3.27285 0.68169,6.20857 1.46636,9.68353l0.29209,2.24057c0,0 0.31009,2.4807 -2.17061,2.79078zM330.8805,96.10054c0,0 -1.10733,0 -1.84806,-0.73696c-2.51239,0.68299 -6.29255,0.9094 -7.9056,1.2248l-2.74635,0.01217c0,0 -2.5,0 -2.5,-2.5c0,-2.5 2.5,-2.5 2.5,-2.5l2.25365,0.01217c1.20469,-0.24728 4.28292,-0.90877 5.33535,-0.97815c0.55052,-0.03629 1.22775,0.56122 1.64323,0.19822c0.36541,-0.31926 -0.19299,-0.95416 -0.22372,-1.43843c-0.03141,-0.49518 0.08145,-3.43735 -0.14475,-3.99515c-0.38219,-0.9425 -1.94023,-0.77977 -2.95691,-0.75239c-1.56659,0.04218 -3.12034,0.29565 -4.68051,0.44347c0,0 -1.01575,0.09235 -1.80866,-0.48973h-0.41768c-2.58097,-0.01393 -7.21116,-0.2189 -9.58065,0.82483c-1.0189,0.44881 -1.77975,1.35153 -2.75548,1.88773c-1.9493,1.07121 -4.29493,1.73253 -5.84773,3.50548c-2.41288,2.75497 -5.96518,7.55516 -4.90685,11.61462c1.12116,4.30046 6.97367,5.99427 10.54141,6.7083c6.03143,1.02342 12.30641,0.44095 18.3431,-0.03244c0.8748,-0.0686 1.77704,0.25671 2.63182,0.05836c1.83337,-0.42543 2.79245,-1.88044 4.34957,-2.74629c1.68418,-0.93651 3.36471,-0.95018 4.78348,-2.39578c1.68439,-1.71624 -0.08677,-3.89206 -0.79828,-5.31391c-0.25955,-0.51867 -0.44882,-2.51106 -1.55095,-2.73919c-0.55955,-0.11582 -1.13962,0.08552 -1.70943,0.12829z" data-paper-data="{&quot;index&quot;:null}" fill="#000000" stroke-width="0.5"/><path d="M352.40224,260.39005c1.35288,0.21718 5.36413,0.34882 5.80343,2.35979c0.86775,3.97219 0.60989,9.73337 -3.59567,11.41701c-3.02921,1.2127 -6.64947,0.8336 -9.82131,0.8336c-4.79557,0 -9.64986,-0.02317 -14.44542,-0.0185c-0.8138,-0.07477 -1.62971,-0.15503 -2.44323,-0.2328c3.21448,-3.02409 3.96812,-7.45978 0.77374,-11.62781c-0.68789,-0.89756 -1.6347,-1.68445 -2.74014,-2.36214c3.39391,-0.05496 6.81065,-0.13368 10.18092,0.02867c3.74792,0.18054 7.30513,-0.08246 11.04967,-0.25345c1.20199,-0.05489 2.46516,0.30634 3.61943,-0.03348c0.3295,-0.09701 0.6756,-0.19231 1.02237,-0.29792c0.33606,0.14224 0.59621,0.18704 0.59621,0.18704z" data-paper-data="{&quot;noHover&quot;:false,&quot;origItem&quot;:[&quot;Path&quot;,{&quot;applyMatrix&quot;:true,&quot;segments&quot;:[[[285.28601,311.41911],[0,0],[-1.35288,0.21718]],[[279.4897,313.76447],[0.4393,-2.01097],[-0.86775,3.97219]],[[283.08173,325.14343],[-4.20556,-1.68364],[3.02921,1.2127]],[[292.87502,325.95313],[-3.17184,0],[4.79557,0]],[[307.26173,325.9557],[-4.79556,-0.00467],[0.8138,-0.07477]],[[309.70272,325.72694],[-0.81352,0.07777],[-3.21448,-3.02409]],[[308.92631,314.13706],[-3.19438,4.16803],[0.68789,-0.89756]],[[311.66782,311.77857],[-1.10544,0.67769],[-3.39391,-0.05496]],[[301.49953,311.82503],[3.37027,-0.16235],[-3.74792,0.18054]],[[290.51171,311.57557],[3.74454,0.17099],[-1.20199,-0.05489]],[[286.90223,311.53303],[1.15427,0.33982],[-0.3295,-0.09701]],[[285.88097,311.23373],[0.34677,0.10561],[-0.33606,0.14224]],[285.28599,311.41912]],&quot;closed&quot;:true,&quot;fillColor&quot;:[0,0,0],&quot;strokeWidth&quot;:0.5}],&quot;index&quot;:null}" fill="#1b130b" stroke-width="0.25"/><path d="M312.72001,263.17007c3.36996,0.2084 4.88484,1.02222 7.9539,2.32798c0.74203,0.3157 2.87521,0.90842 3.5332,1.77299c2.37267,3.11756 -0.40546,6.30825 -3.81267,6.75807c-8.33445,1.10032 -17.63453,-0.10558 -25.97916,-0.80097c-0.57804,0.00193 -4.78807,0.49349 -5.00957,-0.86964c-0.26484,-1.62986 0.49086,-3.28039 0.63976,-4.92489c0.25705,-2.83885 0.26489,-5.6514 0.26489,-8.50123l0.01405,-0.1173c0.20009,0.11534 0.4002,0.22494 0.59757,0.32895c1.76279,0.92902 6.23021,0.05363 8.28373,0.14772c3.73054,0.17094 7.50135,1.12261 11.20339,1.87216c0.27491,1.84543 2.3109,2.00616 2.3109,2.00616z" data-paper-data="{&quot;noHover&quot;:false,&quot;origItem&quot;:[&quot;Path&quot;,{&quot;applyMatrix&quot;:true,&quot;segments&quot;:[[[324.30313,313.19677],[0,0],[-3.36996,0.2084]],[[316.35677,315.50229],[3.06906,-1.30576],[-0.74203,0.3157]],[[312.82372,317.26919],[0.65799,-0.86457],[-2.37267,3.11756]],[[316.63004,324.00466],[-3.40721,-0.44982],[8.33445,1.10032]],[[342.52112,323.20528],[-8.34463,0.69539],[0.57804,0.00193]],[[347.52755,322.34323],[-0.2215,1.36313],[0.26484,-1.62986]],[[346.88545,317.43132],[0.1489,1.6445],[-0.25705,-2.83885]],[[346.62501,308.95313],[0,2.84983],[0,0]],[[346.61109,308.8361],[0,0],[-0.20009,0.11534]],[[346.01346,309.16493],[0.19737,-0.10401],[-1.76279,0.92902]],[[337.7383,309.32555],[2.05352,-0.09409],[-3.73054,0.17094]],[[326.59691,311.20713],[3.70204,-0.74955],[-0.27491,1.84543]],[324.30314,313.19677]],&quot;closed&quot;:true,&quot;fillColor&quot;:[0,0,0],&quot;strokeWidth&quot;:0.5}],&quot;index&quot;:null}" fill="#1b130b" stroke-width="0.25"/><path d="M300.08822,253.81462c-0.00362,-0.00018 -5.03994,-0.00907 -5.11729,-0.006c-0.79048,0.03138 -2.43693,0.54816 -2.36301,-0.23948c0.1866,-1.98816 1.35618,-3.76936 1.79771,-5.71682c1.67868,-7.40411 2.91943,-15.01491 4.27545,-22.48277c0.32542,-3.22912 0.42181,-6.77627 1.42059,-9.88945c1.85472,-5.78114 4.74869,-10.84186 5.85456,-16.90278l0.26396,-2.60058c0,0 0.01197,-0.11791 0.00476,-0.3048c3.09906,0.26526 6.19697,0.68864 9.37449,0.54934c4.14474,-0.1817 7.97635,-0.99785 12.16585,-0.99785c1.23803,-0.00054 2.90049,0.12153 4.68895,0.17887c0.6901,5.47618 3.1813,10.46484 4.40045,15.8938c2.99869,13.35343 6.84575,26.10703 11.54711,38.99134c0.17219,0.69133 1.08189,4.55751 1.4624,5.37628c0.14225,0.30607 0.76343,0.36862 0.72753,0.70421c-0.02902,0.27123 -0.50306,-0.24107 -0.7749,-0.26382c-0.96026,-0.08035 -1.92955,-0.07671 -2.89249,-0.04078c-3.59051,0.13396 -6.93077,0.42634 -10.52245,0.2572c-5.09743,-0.24005 -10.2957,-0.007 -15.39739,0.00192c-1.43131,0.0025 -3.01632,0.59879 -4.30077,-0.03274c-1.0405,-0.5116 -0.34709,-2.31934 -0.21975,-3.47179c0.32511,-2.94225 0.93505,-5.80054 1.73825,-8.64954c0.03668,-5.91595 0.73518,-11.80509 0.48189,-17.74088c-0.12558,-2.94279 -0.72872,-5.75513 -0.71886,-8.70077l0.00313,-1.75126c0,0 0.03918,-2.40815 -2.46082,-2.40815c-2.5,0 -2.48926,2.49286 -2.48926,2.49286l0.00351,1.74664c0.00872,3.02069 0.64368,5.80773 0.76563,8.81494c0.22854,5.63588 -0.54654,11.14535 -0.50635,16.75879c-0.87107,3.00621 -2.47476,8.24643 -1.94482,12.30512c-3.73842,-0.7518 -7.48452,-1.68494 -11.26803,-1.87104z" data-paper-data="{&quot;noHover&quot;:false,&quot;origItem&quot;:[&quot;Path&quot;,{&quot;applyMatrix&quot;:true,&quot;segments&quot;:[[[675.02345,608.6614],[0,0],[0.00724,-0.00036]],[[685.25003,608.65626],[-0.1547,-0.00614],[1.58096,0.06276]],[[689.97275,608.18062],[0.14784,1.57528],[-0.3732,-3.97632]],[[686.37185,596.7532],[0.88306,3.89492],[-3.35736,-14.80822]],[[677.79879,551.8528],[2.71204,14.93572],[-0.65084,-6.45824]],[[674.96761,532.1152],[1.99756,6.22636],[-3.70944,-11.56228]],[[663.29879,498.3528],[2.21174,12.12184],[0,0]],[662.77485,493.1538],[[662.76571,492.5444],[-0.01442,0.37378],[-6.19812,0.53052]],[[644.04225,493.65196],[6.35504,0.2786],[-8.28948,-0.3634]],[[619.75005,491.65628],[8.379,0],[-2.47606,-0.00108]],[[610.38599,492.01018],[3.57692,-0.11468],[-1.3802,10.95236]],[[601.62379,523.77272],[2.4383,-10.85792],[-5.99738,26.70686]],[[578.53131,601.61894],[9.40272,-25.76862],[-0.34436,1.38266]],[[575.60141,612.36628],[0.76102,-1.63754],[-0.2845,0.61214]],[[574.14643,613.77476],[-0.0718,-0.67118],[0.05804,0.54248]],[[575.69557,613.2465],[-0.54368,0.0455],[1.92052,-0.1607]],[[581.47659,613.16142],[-1.92588,-0.07186],[7.18102,0.26792]],[[602.50095,613.6625],[-7.18336,0.33828],[10.19486,-0.4801]],[[633.25001,613.65628],[-10.20338,-0.01784],[2.86262,0.005]],[[641.83761,613.59206],[-2.5689,1.26306],[2.081,-1.02318]],[[642.27435,606.64898],[0.25468,2.3049],[-0.65022,-5.8845]],[[638.79835,589.3498],[1.6064,5.698],[-0.07336,-11.8319]],[[637.75435,553.9485],[-0.50658,11.87158],[0.25116,-5.88558]],[[639.25003,536.6563],[0.01972,5.89128],[0,0]],[639.25003,533.1563],[[644.25003,528.1563],[-5,0],[5,0]],[649.25003,533.1563],[[649.25003,536.6563],[0,0],[-0.01742,6.04138]],[[647.74571,554.3641],[0.2439,-6.01442],[-0.45708,11.27176]],[[648.70171,587.9628],[0.08038,-11.22688],[1.74214,6.01242]],[[652.51593,612.38816],[1.05988,-8.11738],[7.47684,-1.5036]],[[675.02347,608.66144],[-7.56702,0.3722],[0,0]]],&quot;closed&quot;:true,&quot;fillColor&quot;:[0,0,0],&quot;strokeWidth&quot;:0.5}],&quot;index&quot;:null}" fill="#7b8a52" stroke-width="0.25"/><path d="M311.57732,138.70453c2.4807,-0.31008 2.16221,-2.79206 2.16221,-2.79206l-0.30217,-2.14114c-0.78467,-3.47496 -1.78939,-6.50125 -1.48817,-9.7741c0.82718,0.36364 1.70658,0.63691 2.60343,0.7168c3.66109,0.32614 3.72899,-1.22274 6.36451,-2.48838c0.03661,-0.01758 0.07336,-0.03491 0.11008,-0.05223c-0.07779,4.35957 -0.37337,8.73171 0.02102,13.11339l-0.01036,0.02373c0,0 -0.06551,2.42445 2.43449,2.42445c2.5,0 2.49169,-2.49051 2.49169,-2.49051l-0.01104,-0.47517c-0.44493,-4.84212 0.00038,-9.5426 0.00951,-14.38457c0.46895,-0.16016 0.93528,-0.32643 1.39708,-0.50402c0,0 2.33653,-0.89262 1.43908,-3.22598c-0.89745,-2.33336 -3.22462,-1.42898 -3.22462,-1.42898c-2.3157,0.89079 -4.72139,1.54117 -6.96132,2.60828c-0.2628,0.1252 -2.76273,2.17182 -3.65409,1.99683c-2.22929,-0.43765 -4.06155,-2.04282 -6.24533,-2.66923c-2.89687,-0.83095 -6.00589,-1.27761 -8.97207,-1.81702l-1.11615,-0.08711c-0.14542,-0.97568 -0.28002,-1.9564 -0.40378,-2.93605c1.90087,0.79374 3.87755,1.33889 5.67775,1.69869c6.46958,1.0617 13.23828,0.59888 19.71624,0.03089c1.1186,-0.09808 2.2878,0.2313 3.37394,-0.05366c0.79661,-0.20899 1.52957,-0.57377 2.23413,-1.0056c0.51738,4.0102 1.4853,7.91862 1.09168,12.04889c-0.08515,0.89341 -0.86992,4.29503 -0.98587,5.14139c-0.11234,0.8201 -0.24316,4.19891 -0.61966,5.23372c-1.17918,3.24098 -5.88428,6.12082 -9.15278,6.69748c-3.63475,0.64127 -7.6508,0.20143 -11.32375,0.21766c-1.84283,-0.3787 -4.66274,-0.42992 -6.3303,-1.32153c-1.03208,-0.55183 -0.64584,-2.70831 -0.70379,-3.24998c-0.21531,-2.01227 -0.41129,-4.04573 -0.49295,-6.06783c-0.15431,-3.82143 -0.7011,-7.6141 -1.29351,-11.36497c2.58771,0.45449 5.3641,0.90292 7.87826,1.61121c-0.80145,4.49777 0.25313,8.17982 1.30671,12.84567l0.20313,1.75617c0,0 0.29604,2.47493 2.77673,2.16485z" data-paper-data="{&quot;noHover&quot;:false,&quot;origItem&quot;:[&quot;Path&quot;,{&quot;applyMatrix&quot;:true,&quot;segments&quot;:[[[652.12985,378.61764],[0,0],[-4.9614,-0.62016]],[647.78863,373.03608],[[648.37281,368.55494],[0,0],[1.56934,-6.94992]],[[651.30553,349.18788],[0.60244,6.5457],[-1.65434,0.72728]],[[646.16493,350.639],[1.7937,-0.15978],[-7.32218,0.65228]],[[633.50561,345.6242],[5.27104,2.53128],[-0.07322,-0.03516]],[[633.28563,345.5195],[0.07344,0.03464],[0.15558,8.71914]],[[633.22949,371.6089],[0.78878,-8.76336],[0,0]],[633.25003,371.65622],[[628.25003,376.65622],[5,0],[-5,0]],[623.25003,371.65622],[[623.27057,370.70354],[0,0],[0.88986,-9.68424]],[[623.25027,341.82936],[0.01826,9.68394],[-0.9379,-0.32032]],[[620.45515,340.82296],[0.9236,0.35518],[0,0]],[[617.58331,334.36134],[-1.7949,4.66672],[1.7949,-4.66672]],[[624.04495,331.48952],[0,0],[4.6314,1.78158]],[[637.99447,336.68828],[-4.47986,-2.13422],[0.5256,0.2504]],[[645.33515,340.67348],[-1.78272,0.34998],[4.45858,-0.8753]],[[657.88241,335.34692],[-4.36756,1.25282],[5.79374,-1.6619]],[[675.85561,331.7369],[-5.93236,1.07882],[0,0]],[[677.93173,331.68758],[0,0],[0.29084,-1.95136]],[[678.74541,325.82264],[-0.24752,1.9593],[-3.80174,1.58748]],[[667.40145,329.23058],[3.6004,-0.7196],[-12.93916,2.1234]],[[628.08765,329.29546],[12.95592,1.13598],[-2.23722,-0.19616]],[[621.35129,329.17874],[2.17228,0.56992],[-1.59322,-0.41798]],[[616.88623,327.16438],[1.40912,0.86366],[-1.03476,8.0204]],[[614.72985,351.20722],[-0.78724,-8.26054],[0.1703,1.78682]],[[616.70095,361.4572],[-0.2319,-1.69272],[0.2247,1.6402]],[[617.92931,371.89424],[-0.753,-2.06962],[2.35836,6.48196]],[[636.18109,385.2437],[-6.537,-1.15332],[7.2695,1.28254]],[[658.75737,385.68058],[-7.3459,-0.03246],[3.68566,-0.7574]],[[671.38829,383.05622],[-3.33512,1.78322],[2.06416,-1.10366]],[[672.78477,376.56814],[-0.1159,1.08334],[0.43062,-4.02454]],[[673.75375,364.46436],[-0.16332,4.0442],[0.30862,-7.64286]],[[676.34575,341.80742],[-1.18482,7.50174],[-5.17542,0.90898]],[[660.75857,344.92568],[5.02832,-1.41658],[1.6029,8.99554]],[[658.12727,370.75752],[2.10716,-9.3317],[0,0]],[657.71145,374.27638],[[652.12989,378.6176],[4.96138,0.62016],[0,0]]],&quot;closed&quot;:true,&quot;fillColor&quot;:[0,0,0],&quot;strokeWidth&quot;:0.5}],&quot;index&quot;:null}" fill="#ffb26e" stroke-width="0.25"/><path d="M330.83063,96.10384c0.56981,-0.04277 1.24967,-0.25065 1.80922,-0.13483c1.10213,0.22812 1.29134,2.22787 1.55089,2.74654c0.71151,1.42185 2.48013,3.60983 0.79574,5.32607c-1.41877,1.4456 -3.10385,1.46899 -4.78803,2.4055c-1.55712,0.86585 -2.5253,2.33191 -4.35867,2.75734c-0.85479,0.19835 -1.76216,-0.12287 -2.63696,-0.05427c-6.03669,0.47339 -12.37226,1.05313 -18.40369,0.02971c-3.56774,-0.71403 -9.43659,-2.43374 -10.55775,-6.7342c-1.05833,-4.05946 2.49602,-8.89081 4.9089,-11.64578c1.5528,-1.77295 3.90945,-2.45092 5.85875,-3.52213c0.97572,-0.5362 1.74609,-1.44637 2.76499,-1.89518c2.36949,-1.04373 7.03532,-0.84498 9.61629,-0.83105l0.41924,0.00034c0.79291,0.58207 1.81558,0.49188 1.81558,0.49188c1.56018,-0.14782 3.12573,-0.39469 4.69232,-0.43687c1.01668,-0.02738 2.58089,-0.1846 2.96308,0.7579c0.2262,0.55779 0.11959,3.50807 0.151,4.00325c0.03073,0.48427 0.59142,1.1233 0.22601,1.44256c-0.41548,0.363 -1.18065,-0.18704 -1.73117,-0.15075c-1.05243,0.06938 -4.12361,0.74019 -5.3283,0.98747l-2.24432,-0.00455c0,0 -2.4575,-0.08969 -2.4575,2.41031c0,2.5 2.53366,2.53983 2.53366,2.53983l2.64713,-0.00014c1.61305,-0.3154 5.49263,-0.55245 8.00502,-1.23544c0.74072,0.73697 1.84834,0.73995 1.84834,0.73995z" data-paper-data="{&quot;noHover&quot;:false,&quot;origItem&quot;:[&quot;Path&quot;,{&quot;applyMatrix&quot;:true,&quot;segments&quot;:[[[613.50001,293.3125],[0,0],[-1.13962,-0.08554]],[[610.08115,293.05592],[1.1191,-0.23164],[-2.20426,0.45626]],[[606.97925,298.5343],[0.5191,-1.03734],[-1.42302,2.8437]],[[605.38269,309.16212],[-3.36878,-3.43248],[2.83754,2.8912]],[[614.94965,313.95368],[-3.36836,-1.87302],[3.11424,1.7317]],[[623.64879,319.44626],[-3.66674,-0.85086],[1.70956,0.3967]],[[628.91243,319.32954],[-1.7496,-0.1372],[12.07338,0.94678]],[[665.59863,319.39442],[-12.06286,2.04684],[7.13548,-1.42806]],[[686.68145,305.97782],[-2.24232,8.60092],[2.11666,-8.11892]],[[676.86775,282.74858],[4.82576,5.50994],[-3.1056,-3.5459]],[[665.17229,275.73762],[3.8986,2.14242],[-1.95146,-1.0724]],[[659.66133,271.96216],[2.0378,0.89762],[-4.73898,-2.08746]],[[640.50003,270.3125],[5.16194,-0.02786],[0,0]],[[639.66467,270.3125],[0,0],[-1.58582,1.16416]],[[636.04735,271.29196],[0,0],[-3.12034,-0.29564]],[[626.68633,270.40502],[3.13318,0.08436],[-2.03336,-0.05476]],[[620.77251,271.9098],[0.76438,-1.885],[-0.4524,1.1156]],[[620.48301,279.9001],[0.06282,-0.99036],[-0.06146,0.96854]],[[620.03557,282.77696],[-0.73082,-0.63852],[0.83096,0.726]],[[623.32203,282.38052],[-1.10104,-0.07258],[2.10486,0.13876]],[[633.99273,284.33682],[-2.40938,-0.49456],[0,0]],[638.50003,284.31248],[[643.50003,289.31248],[0,-5],[0,5]],[638.50003,294.31248],[[633.00733,294.28814],[0,0],[-3.2261,-0.6308]],[[617.19613,291.83854],[5.02478,1.36598],[-1.48146,1.47392]],[613.50001,293.31246]],&quot;closed&quot;:true,&quot;fillColor&quot;:[0,0,0],&quot;strokeWidth&quot;:0.5}],&quot;index&quot;:null}" fill="#c00000" stroke-width="0.25"/><path d="M324.5394,154.77243c0,0 0,-0.0225 0.00213,-0.06324c-0.37757,-0.80707 -0.20358,-1.67704 -0.20358,-1.67704l0.20145,-0.75971c0,-1.75 0,-3.5 0,-5.25c0,0 0,-2.5 2.5,-2.5h0.00001c0.35099,0 0.6527,0.04928 0.91206,0.134c0.25214,-0.72087 0.90643,-1.77443 2.56428,-1.62372c2.48973,0.22634 2.26339,2.71607 2.26339,2.71607c-0.02195,0.23079 -0.04872,0.46041 -0.0798,0.68898h0.00003c0.5234,0.23248 0.85783,0.56691 0.85783,0.56691l1.66763,1.80366c0.92413,1.73411 1.31289,3.71382 1.74555,5.63058c0.78644,3.48411 3.66321,6.3863 4.71541,9.87116c1.39249,4.61192 2.10872,9.74972 3.05509,14.47208c0.73601,3.67271 2.84747,8.04961 -0.73968,11.2684c-0.63574,0.57045 -5.23445,0.47189 -6.46178,0.47189c-1.61474,-0.00175 -5.6122,0.18648 -6.84039,-0.8211c-0.71141,-0.58362 -1.93373,-4.97554 -2.30418,-6.21053c-2.3444,-7.81572 -4.33121,-16.70021 -3.64108,-24.93871c-0.21438,-0.54353 -0.21438,-1.02967 -0.21438,-1.02967v-0.25c0,-0.83333 0,-1.66667 0,-2.5z" data-paper-data="{&quot;index&quot;:null}" fill="#7b8a52" stroke-width="0.5"/><path d="M329.92798,160.65347c0.35513,-0.31069 0.68923,-0.45222 0.68923,-0.45222c2.46948,-1.00314 3.8063,-1.96252 6.70015,-1.0881c8.87758,2.68247 7.04885,18.14842 1.04917,22.88762c-2.29122,1.80986 -7.68554,3.11347 -10.13578,0.59923c-1.31519,-1.34955 -1.60034,-5.3135 -1.69166,-7.21428c-0.13191,-2.74576 0.0228,-5.49116 0.25808,-8.22211c0.16451,-0.87715 0.32901,-1.75431 0.49352,-2.63146l1.49327,-2.83471c0,0 0.41298,-0.69979 1.14403,-1.04398z" data-paper-data="{&quot;index&quot;:null}" fill="#363c1a" stroke-width="0.5"/><path d="M316.03939,152.27245c0,0 0,0.77405 -0.43071,1.46074c0.24272,2.21116 0.18071,4.49327 0.18071,6.78926c0,4.34446 0.4304,8.92703 -0.01217,13.24634c-0.29156,2.84552 -1.642,5.16062 -2.30954,7.84813c-0.51103,2.05742 -0.88965,4.16134 -1.63395,6.14632c-1.46462,0.57564 -2.8608,1.37174 -4.39388,1.72693c-2.59442,0.60108 -3.25424,-0.24046 -5.6468,-0.47989c-2.36989,-0.23716 -3.79235,0.53055 -6.23715,-0.68941c-1.3084,-0.65289 -2.82787,-1.48128 -3.33131,-2.85414c-1.59694,-4.35476 3.62565,-11.11429 5.26825,-14.9321c3.1258,-7.26511 4.14776,-16.12543 4.93774,-24.03844l0.23428,0.02315c1.73265,-0.00457 3.47384,0.14614 5.17732,0.46278c0,0 0.14422,0.02622 0.36917,0.03104c0.7125,0.50928 1.57804,0.50928 1.57804,0.50928l2.69721,-0.04033c0.91667,-0.16667 1.83333,-0.33333 2.75,-0.5c0,0 0.02937,-0.00534 0.08111,-0.01806c0.25891,0.33651 0.44383,0.79328 0.46879,1.41328c0.08088,0.88959 0.16175,1.77918 0.24262,2.66877l0.01027,1.22634z" data-paper-data="{&quot;index&quot;:null}" fill="#7b8a52" stroke-width="0.5"/><path d="M329.36305,192.79104c-2.80665,-2.05004 -2.42271,-4.62094 -2.44868,-7.40918c-0.04863,-5.22033 -0.8014,-10.36168 -1.94047,-15.45767l-0.63,-2.18886c0,0 -0.68681,-2.40381 1.717,-3.09061c2.40382,-0.6868 3.09062,1.71701 3.09062,1.71701l0.70333,2.47781c0.90744,4.10552 1.83918,8.53134 2.0557,12.7374c0.06521,1.26663 0.01739,2.53668 0.00383,3.80492c-0.01144,1.06997 -0.81965,2.74922 0.14766,3.2067c0.42275,0.19994 0.8867,-0.33011 1.35234,-0.37337c3.03285,-0.28176 6.29308,0 9.33333,0c0.7876,0.32049 1.53632,0.76162 2.36282,0.96147c0.43209,0.10448 -0.97266,-0.26306 -1.15365,-0.66909c-0.36473,-0.8182 -0.15772,-1.78825 -0.33333,-2.66667c-0.81095,-4.05634 -1.33366,-7.42432 -1.69425,-11.51959c-0.16359,-1.858 -1.18933,-3.54162 -1.61305,-5.35805c-0.41694,-1.78731 -0.00132,-3.74097 -0.61164,-5.47181c-0.7418,-2.10373 -2.12951,-2.99499 -3.16331,-4.93411c-0.87802,-1.64691 -1.20274,-3.57519 -2.21919,-5.14045c-2.00369,-3.08553 -4.23048,-5.89424 -6.07835,-9.12803c0,0 -1.24034,-2.17062 0.93027,-3.41096c2.17062,-1.24034 3.41096,0.93026 3.41096,0.93026c1.79907,3.14837 3.99691,5.85352 5.92165,8.87197c1.08319,1.69869 1.49909,3.74876 2.44748,5.52622c1.05421,1.97578 2.7576,3.62093 3.50335,5.73255c0.58078,1.6445 0.31672,4.15736 0.72169,5.86152c0.85704,3.60652 1.39308,6.24968 1.72305,10.00173c0.29282,3.3295 1.73456,6.42778 1.96966,9.78729c0.10862,1.55211 1.32552,3.61168 0.17969,4.66425c-0.22536,0.20702 -0.47293,0.36771 -0.73792,0.49209c0.16678,1.57497 0.48885,3.1585 0.2314,4.71009c-1.17948,7.10831 -12.26297,6.42755 -16.07817,2.16017c-1.2464,-1.39412 -1.62602,-3.37169 -2.55643,-4.99386zM343.42646,193.14724c-0.23093,0.01289 -0.4578,0.03423 -0.67874,0.06793c-2.59727,0 -5.25247,0.12271 -7.86642,0.05818c1.80263,3.2963 2.27303,4.40232 6.92696,4.29008c0.5593,-0.01349 1.1793,0.15462 1.67514,-0.10449c1.29367,-0.67603 0.36862,-2.66006 -0.05694,-4.3117z" data-paper-data="{&quot;index&quot;:null}" fill="#000000" stroke-width="0.5"/><path d="M343.46992,193.12249c0.42556,1.65164 1.35144,3.68365 0.05777,4.35968c-0.49584,0.25911 -1.12393,0.10227 -1.68323,0.11576c-4.65393,0.11224 -5.20605,-1.04895 -7.00868,-4.34525c2.61395,0.06453 5.35625,-0.06529 7.95352,-0.06529c0.22094,-0.0337 0.44968,-0.05201 0.68061,-0.0649z" data-paper-data="{&quot;noHover&quot;:false,&quot;origItem&quot;:[&quot;Path&quot;,{&quot;applyMatrix&quot;:true,&quot;segments&quot;:[[[294.93099,248.51462],[-1.29367,-0.67603],[0.49584,0.25911]],[[296.60613,248.61911],[-0.5593,-0.01349],[4.65393,0.11224]],[[303.53309,244.32903],[-1.80263,3.2963],[-2.61395,0.06453]],[[295.66667,244.27085],[2.59727,0],[-0.22094,-0.0337]],[[294.98793,244.20292],[0.23093,0.01289],[-0.42556,1.65164]]],&quot;closed&quot;:true,&quot;fillColor&quot;:[0,0,0,1],&quot;strokeWidth&quot;:0.5}],&quot;index&quot;:null}" fill="#ffb26e" stroke-width="0.25"/><path d="M293.24772,189.0485c0,0 0,-0.10524 0.02159,-0.27253c-1.2731,-0.45393 -2.4698,-1.00471 -3.1582,-2.08872c-0.8098,-1.27517 0.53551,-2.98924 1.05871,-4.40631c1.07194,-2.90329 3.03592,-5.10812 3.8223,-8.18438c1.3668,-5.34684 1.66363,-10.97635 3.00047,-16.33518c0.95977,-3.84734 2.0881,-7.57707 2.87249,-11.41989l1.79977,0.17784c1.09656,-0.0029 2.19654,0.0564 3.28821,0.1806c-1.42482,8.59056 -4.01641,17.05796 -5.56748,25.62443c-0.6076,3.35575 -1.4958,6.19532 -3.09329,9.22382c-0.52231,0.99018 -0.93091,2.06286 -1.63336,2.93454c-0.20427,0.25348 -1.25458,0.17187 -0.94129,0.26036c4.6299,1.30769 9.6209,1.6109 14.33552,2.82415c1.29423,1.15349 0.06455,-2.29752 0.20306,-3.72493c0.43502,-4.48316 1.85804,-8.84241 3.08767,-13.14727l0.99035,-1.69995c0,0 1.38675,-2.08013 3.46688,-0.69338c2.08013,1.38675 0.69338,3.46688 0.69338,3.46688l-0.34298,0.30005c-1.13386,3.96742 -2.52648,8.04791 -2.91233,12.18607c-0.19544,2.09603 0.57455,6.06147 -1.15751,7.65662c-0.83024,0.76461 -2.07797,0.6387 -3.29015,0.58863c-0.08026,1.06446 -0.02759,2.1912 -0.66964,2.99248c-2.19326,2.73717 -11.80788,4.35915 -14.49838,1.63376c-1.66102,-1.68257 -1.36601,-5.59724 -1.3758,-7.74436v-0.33333zM301.44227,192.90056c2.06594,-0.26038 3.36977,0.69898 3.49908,-1.03893c-2.28994,-0.36145 -4.63198,-0.66404 -6.81787,-1.3096c-0.18201,1.08487 -0.44565,2.19044 0.08177,3.08544c0.56182,0.95338 2.13909,-0.59853 3.23701,-0.73691z" data-paper-data="{&quot;index&quot;:null}" fill="#000000" stroke-width="0.5"/><path d="M301.44414,192.95052c-1.09792,0.13838 -2.72296,1.66017 -3.28478,0.70679c-0.52742,-0.895 -0.26234,-2.0433 -0.08033,-3.12817c2.18589,0.64556 4.62208,0.96558 6.91202,1.32703c-0.12931,1.73791 -1.48096,0.83397 -3.5469,1.09435z" data-paper-data="{&quot;noHover&quot;:false,&quot;origItem&quot;:[&quot;Path&quot;,{&quot;applyMatrix&quot;:true,&quot;segments&quot;:[[[336.97213,243.95624],[0,0],[1.09792,0.13838]],[[340.20914,244.69315],[-0.56182,0.95338],[0.52742,-0.895]],[[340.29091,241.60771],[0.18201,1.08487],[-2.18589,0.64556]],[[333.47304,242.91731],[2.28994,-0.36145],[0.12931,1.73791]],[[336.97212,243.95624],[-2.06594,-0.26038],[0,0]]],&quot;closed&quot;:true,&quot;fillColor&quot;:[0,0,0,1],&quot;strokeWidth&quot;:0.5}],&quot;index&quot;:null}" fill="#ffb26e" stroke-width="0.25"/><g stroke-width="0.5"><path d="M303.18872,264.8872c-1.37072,0 -2.48379,-1.10315 -2.49982,-2.47007c-0.19453,-0.0115 -0.36291,-0.02179 -0.50017,-0.02993c-1.49294,-0.08848 -3.28737,0.45409 -4.46178,-0.4719c-2.69037,-2.12125 -2.02965,-7.39872 -2.03822,-10.0281c-0.01302,-3.993 -0.00769,-7.98618 -0.00341,-11.9793c-2.00015,0.91868 -3.95258,1.91988 -5.93226,3.10592c-2.21504,1.32704 -3.4292,3.46579 -6.71479,2.84109c-1.56475,-0.29751 -2.55708,-1.89979 -3.83562,-2.84968c-0.29368,-4.02574 -0.39294,-8.07986 -0.26393,-12.11803c0.03685,-1.15339 -0.30416,-2.41403 0.1903,-3.45671c1.23909,-2.61287 3.58737,-3.66137 6.09734,-4.43965c2.98773,-0.92642 6.13724,-0.6088 9.21237,-0.60364c1.41789,0.00238 2.8405,-0.10359 4.25365,0.01216c0.30144,0.02469 0.6819,0.67542 0.81299,0.40287c0.15551,-0.32331 -0.51526,-0.55997 -0.56664,-0.91503c-0.09639,-0.66593 -0.12791,-1.33652 -0.12732,-2.00942l-0.61902,-0.00274c-1.14444,-0.26121 -2.416,-0.19793 -3.4333,-0.78365c-4.31544,-2.48465 -4.34175,-6.96078 -4.32344,-11.224c-1.94426,-0.60186 -3.90527,-1.26578 -5.11193,-3.14726c-2.4381,-3.8016 -0.37836,-10.21287 -0.38499,-14.33293c-0.00249,-1.5517 -0.22978,-6.75162 1.09843,-7.57017c2.29715,-1.41569 6.72898,1.9382 8.4886,2.81887c2.71027,1.35646 4.6156,3.03901 7.17168,4.59129c3.52358,2.13984 8.13087,2.57364 11.85933,4.42395c0,0 1.00716,0.50358 1.33164,1.51075c0.30032,0.61667 0.30032,1.22532 0.30032,1.22532c0,8.79656 0.76901,17.98183 -0.01217,26.74634c-0.40089,4.49783 -1.61835,8.91463 -1.99412,13.43088c-0.40405,4.85605 0.00629,9.95581 0.00629,14.82277c0,2.00103 0.65533,7.8802 -0.73224,9.26776c-0.64053,0.64054 -2.66009,0.85652 -4.77311,0.89711c-0.08489,1.30386 -1.16934,2.33513 -2.49465,2.33513zM296.18872,230.8872c1.83101,0 2.32098,1.34104 2.45209,2.05875l0.7979,-0.05875c0,0 2.5,0 2.5,2.5c0,2.5 -2.5,2.5 -2.5,2.5l-0.57152,-0.17881c-0.05909,0.02361 -0.1181,0.04722 -0.17703,0.07083c0.00423,4.70265 0.01524,9.40546 -0.00145,14.10798c-0.00544,1.53321 -0.02246,3.06635 -0.03228,4.59954c-0.00293,0.45744 -0.40034,1.14058 -0.00595,1.37235c0.4624,0.27173 1.00424,-0.42188 1.53823,-0.4719c1.16158,-0.10879 2.33333,0 3.5,0c0.83333,0 1.68726,-0.18412 2.5,0c-0.36823,-1.62548 0,-3.33333 0,-5c0,-4.98578 -0.40883,-10.20246 0.00629,-15.17723c0.38108,-4.56694 1.58405,-9.02627 2.00587,-13.56912c0.76022,-8.18703 0.05925,-16.7977 -0.00721,-25.05505c-4.7215,-2.13172 -9.55229,-2.92278 -13.78601,-6.22228c-1.85303,-1.44414 -4.16618,-2.00742 -6.14157,-3.19035c0.21641,2.95814 -0.82518,6.48616 -0.82738,9.21403c-0.00098,1.22296 -0.49619,2.60781 0.11502,3.66707c0.6217,1.07744 2.27586,1.01677 3.45937,1.39981c2.08731,0.30272 4.14772,0.83865 6.13799,1.53676c1.17332,0.41156 2.70995,0.21684 3.5554,1.12859c0.95247,1.02717 0.98591,2.64032 1.22007,4.02142c0.58535,3.45245 0.29096,8.26044 0.01217,11.74634c-0.1096,1.37032 0.33342,3.0459 -0.56665,4.08497c-0.96372,1.11256 -2.73321,1.17259 -4.18701,1.40286c-4.64822,0.73627 -9.98231,-1.25942 -14.37012,1.09927c-1.729,0.92944 -0.87623,3.2258 -0.87623,4.9129c0,2.46059 0.19887,4.95872 -0.26393,7.38197c0.60905,0.55692 3.27198,-1.90185 3.4496,-2.00859c2.8306,-1.70099 5.6316,-3.05967 8.56433,-4.32081v-1.05257c0,0 0,-2.5 2.5,-2.5zM295.43872,210.3872c0,-0.22458 0.02962,-0.44225 0.08515,-0.6493c-0.72145,-0.16666 -1.43467,-0.37261 -2.14763,-0.57874c-0.06761,2.66125 0.13918,5.30249 3.30882,5.74021l0.25332,-0.00137c-0.00012,-0.62835 -0.00001,-1.45764 0.00106,-2.2185c-0.88334,-0.38561 -1.50073,-1.26685 -1.50073,-2.2923z" fill="#000000"/><path d="M293.68156,233.43669l0.00068,1.05266c-2.93273,1.26113 -5.75469,2.61204 -8.58528,4.31302c-0.17762,0.10674 -2.84387,2.56313 -3.45292,2.00622c0.4628,-2.42324 0.25463,-4.93088 0.25463,-7.39146c0,-1.6871 -0.85912,-3.99479 0.86988,-4.92423c4.3878,-2.3587 9.74451,-0.42557 14.39273,-1.16183c1.4538,-0.23028 3.20046,-0.26438 4.16419,-1.37695c0.90006,-1.03908 0.45509,-2.68477 0.56468,-4.05509c0.2788,-3.4859 0.59912,-8.26114 0.01376,-11.71359c-0.23416,-1.3811 -0.26022,-2.99122 -1.21269,-4.01839c-0.84544,-0.91175 -2.37226,-0.71493 -3.54558,-1.12649c-1.99026,-0.69811 -4.03522,-1.23476 -6.12253,-1.53748c-1.18351,-0.38304 -2.83107,-0.32418 -3.45278,-1.40163c-0.61121,-1.05926 -0.14717,-2.53911 -0.14619,-3.76206c0.00219,-2.72787 1.04861,-6.2571 0.8322,-9.21525c1.97538,1.18293 4.29717,1.74527 6.1502,3.18941c4.23372,3.29949 9.08885,4.09625 13.81034,6.22797c0.06646,8.25736 0.79422,16.91266 0.03401,25.0997c-0.42183,4.54285 -1.64329,9.04066 -2.02438,13.6076c-0.41512,4.97477 -0.01986,10.19929 -0.01986,15.18506c0,1.66667 -0.3706,3.37536 -0.00237,5.00085c-0.81274,-0.18412 -1.66994,0.00095 -2.50327,0.00095c-1.16667,0 -2.34328,-0.10782 -3.50486,0.00097c-0.53399,0.05001 -1.07812,0.74391 -1.54051,0.47218c-0.39439,-0.23177 -0.00746,-1.01435 -0.00454,-1.4718c0.00982,-1.53319 0.02593,-3.06622 0.03137,-4.59943c0.01668,-4.70252 -0.00025,-9.40422 -0.00448,-14.10687c0.05892,-0.02361 0.11731,-0.04706 0.1764,-0.07067l0.5699,0.17927c0,0 2.48947,0.00455 2.48947,-2.49545c0,-2.5 -2.45402,-2.41131 -2.45402,-2.41131l-0.80135,0.06019c-0.13111,-0.71771 -0.6314,-2.05609 -2.46241,-2.05609c-2.5,0 -2.51441,2.50001 -2.51441,2.50001z" data-paper-data="{&quot;noHover&quot;:false,&quot;origItem&quot;:[&quot;Path&quot;,{&quot;applyMatrix&quot;:true,&quot;segments&quot;:[[[787.5,265.8125],[0,5],[0,-3.66202]],[[791.6175,260.90831],[-1.43543,0.26223],[0,0]],[791.5,259.3125],[[796.5,254.3125],[-5,0],[5,0]],[801.5,259.3125],[[801.14238,260.45555],[0,0],[0.04722,0.11819]],[[801.28404,260.8096],[-0.04722,-0.11785],[9.4053,-0.00846]],[[829.5,260.8125],[-9.40503,-0.03337],[3.06642,0.01088]],[[838.69909,260.87706],[-3.06638,-0.01963],[0.91489,0.00586]],[[841.44379,260.88895],[-0.46354,0.78879],[0.54346,-0.92479]],[[840.5,257.8125],[0.10003,1.06798],[-0.21759,-2.32317]],[[840.5,250.8125],[0,2.33333],[0,-1.66667]],[[840.5,245.8125],[-0.36824,1.62548],[-3.25096,0.73647]],[[830.5,245.8125],[3.33333,0],[-9.97155,0]],[[800.14555,245.79992],[9.94953,0.83024],[-9.13387,-0.76217]],[[773.00731,241.78817],[9.0857,0.84366],[-16.37407,-1.52043]],[[722.8972,241.80259],[16.51471,-0.13292],[-4.26345,9.44299]],[[710.45265,269.37461],[6.59899,-8.46744],[-2.88828,3.70607]],[[704.07194,281.65775],[2.36587,-3.95077],[5.91628,-0.43282]],[[722.5,283.3125],[-5.45574,-0.00438],[2.44591,0.00196]],[[729.83414,283.08247],[-2.11853,1.22242],[2.15489,-1.24341]],[[732.63376,276.16374],[-0.76608,2.36701],[0.60543,-4.17462]],[[735.70728,263.88777],[-1.39622,3.98052],[0.82312,-2.34664]],[[737.96447,256.77697],[-1.8235,1.69089],[2.05434,-1.90493]],[[746.00731,254.33683],[-2.7622,0.46832],[6.90489,-1.17071]],[[769.5,254.3125],[-6.97181,-0.55759],[2.74064,0.21919]],[[777.66994,255.44579],[-2.07815,-1.80013],[2.22513,1.92745]],[[780.47567,263.81981],[-0.46056,-2.9076],[1.47254,9.29644]],[[782.67421,292.56004],[-4.71739,-8.77561],[1.85887,3.458]],[[792.5,294.3125],[-3.3742,0],[4.92117,0]],[[807.26393,294.84036],[-4.84648,-0.9256],[1.11383,-1.2181]],[[803.24675,287.94116],[0.21348,0.35524],[-3.40197,-5.66119]],[[794.60513,270.8125],[2.52227,5.86547],[0,0]],[792.5,270.8125]],&quot;closed&quot;:true}]}" fill="#262626"/></g></g></g></svg>