<svg version="1.1" xmlns="http://www.w3.org/2000/svg" xmlns:xlink="http://www.w3.org/1999/xlink" width="101.19963" height="100.99646" viewBox="0,0,101.19963,100.99646"><g transform="translate(-269.52553,-130.83166)"><g data-paper-data="{&quot;isPaintingLayer&quot;:true}" fill="#000000" fill-rule="nonzero" stroke="none" stroke-width="0.5" stroke-linecap="butt" stroke-linejoin="miter" stroke-miterlimit="10" stroke-dasharray="" stroke-dashoffset="0" style="mix-blend-mode: normal"><path d="M316.975,211.32813c-3.6,0 -3.6,-2.5 -3.6,-2.5l0.01787,-1.99876c0.63344,-4.39895 1.8015,-8.84383 1.78213,-13.25124c0,0 0,-2.5 3.6,-2.5c3.6,0 3.6,2.5 3.6,2.5c-0.01754,4.58662 -1.15912,9.17414 -1.81787,13.74876l0.01787,1.50124c0,0 0,2.5 -3.6,2.5z"/><path d="M336.875,211.32813c-3.5,0 -3.5,-2.5 -3.5,-2.5c0,-4.58334 0,-11.16666 0,-15.75c0,0 0,-2.5 3.5,-2.5c3.5,0 3.5,2.5 3.5,2.5c0,4.58334 0,9.16666 0,13.75v2c0,0 0,2.5 -3.5,2.5z"/><path d="M309.46092,225.25193c4.22402,0.09788 8.2259,-0.31117 12.72345,-0.66653c7.675,-0.60641 15.08322,0.24625 22.72186,-1.21294c3.4538,-0.65977 13.40291,-0.08439 12.50847,-5.35057c-1.39333,-5.13039 -4.56057,-9.62528 -7.20457,-14.19343c-3.38926,-5.85578 -7.01708,-11.60586 -10.27665,-17.54732c-2.01886,-3.67991 -3.00608,-8.59326 -6.69524,-10.8729c0,0 -0.04102,-0.02735 -0.10771,-0.08013c-0.00185,0 -0.0037,0 -0.00554,0c-4.99996,0 -10.00004,0.00957 -15,0c-1.07666,-0.00206 -4.77599,-0.37746 -5.55227,0.81727c-0.35324,0.54366 -0.15585,1.30175 -0.39438,1.90461c-0.59317,1.49919 -1.56492,2.8838 -1.84306,4.47189c-0.63679,3.63593 0.14812,7.3371 0.28832,10.97303c0.206,5.34271 0.00138,10.73633 0.00138,16.08319c0,2.91852 0.24414,6.04853 -0.00852,8.9562c-0.21988,2.5305 -0.84805,4.54039 -1.15556,6.71761zM340.18349,175.75559c1.55508,2.49889 2.58966,5.32121 4.13303,8.11951c5.91551,10.72547 14.75942,21.34419 18.01878,33.25925c0.07093,1.26969 0.55673,2.58479 0.2128,3.80907c-1.74171,6.19993 -9.05948,5.94098 -13.97589,6.84438c-3.80083,0.69841 -7.64057,1.45186 -11.49101,1.78181c-4.80534,0.41177 -9.71025,-0.38839 -14.51557,0.00124c-4.50342,0.36515 -8.58365,0.75707 -12.83122,0.68922c-0.52757,1.56805 -2.35941,1.56805 -2.35941,1.56805l-2.46584,-1.85809c-0.43063,-0.04601 -0.86487,-0.09801 -1.30325,-0.15644c-7.98516,-0.66938 -16.09596,-0.91263 -24.10544,-1.23858c-3.01952,-0.12288 -7.63234,-0.08366 -9.32965,-3.31725c-1.61057,-3.06836 0.12169,-5.47812 1.61937,-7.80933c1.87183,-2.91359 5.32898,-5.563 6.88199,-8.55248c0.8925,-1.71803 0.88466,-3.79188 1.66058,-5.56562c1.11296,-2.5442 1.74583,-3.17988 3.29225,-5.25222c2.49722,-3.32963 4.71663,-6.46933 6.46866,-10.2725c1.9003,-4.12502 2.62734,-8.82445 4.18387,-13.0874c2.41271,-6.6078 7.27917,-12.50629 8.90413,-19.41936c0.40933,-1.74141 0.07864,-3.60803 0.52155,-5.3412c0.7632,-2.98652 1.83397,-6.0189 2.80862,-8.9453c0.53704,-1.50335 2.85349,-9.57708 4.5161,-10.03637c3.40521,-0.94068 5.50018,2.95065 6.89514,4.91847c2.92517,4.12641 5.47473,8.35803 8.46289,12.4484c0.30704,0.4203 1.77366,2.6673 2.55037,2.87057c2.25644,0.59052 5.62596,0.033 8.03257,0.38845c6.49163,0.9588 12.70307,1.22235 19.26937,1.2288c3.99089,0.35921 9.66726,-0.25181 12.56551,3.15691c2.02384,2.3803 1.86869,6.44626 1.82121,9.34052c-0.02037,1.24183 0.29898,2.55078 -0.10727,3.72446c-0.46621,1.34689 -1.2992,2.63643 -2.40551,3.53506c-1.91774,1.55774 -6.41695,1.76869 -8.79,2.20015c-2.77949,0.50536 -5.79547,1.41228 -8.61538,1.53899c-3.44504,0.15479 -6.98748,-0.23432 -10.52335,-0.57119zM304.06748,224.83639c0.01371,-0.32537 0.04217,-0.63169 0.0898,-0.90872c0.33834,-1.96796 1.31902,-3.81511 1.47624,-5.80575c0.21991,-2.7844 -0.00852,-5.75278 -0.00852,-8.5438c0,-5.29146 0.2042,-10.62948 0.00138,-15.91681c-0.25363,-6.61213 -0.78448,-11.35876 1.94526,-17.55508c0.44171,-1.00265 0.3868,-2.26851 1.10562,-3.09539c1.65531,-1.90414 4.40706,-2.42701 6.72322,-2.67263c5.75809,-0.61063 11.93466,-0.0101 17.72451,-0.0101c5.74837,0 11.73768,1.26338 17.41816,1.00134c2.56832,-0.11847 5.35706,-1.00146 7.88462,-1.46101c1.75949,-0.31991 5.12026,-0.36655 6.71,-1.29985c1.04777,-0.61512 0.50178,-2.59018 0.48722,-3.24048c-0.03617,-1.61486 0.40972,-4.7211 -0.67879,-6.15948c-1.29852,-1.71588 -7.04087,-1.16909 -8.93449,-1.34309c-6.71697,0.00723 -13.09004,-0.28434 -19.73063,-1.2712c-2.53355,-0.37651 -6.68921,0.18238 -8.96743,-0.61155c-2.32782,-0.81122 -3.59905,-2.81085 -4.94963,-4.62943c-3.05035,-4.10734 -5.63899,-8.34717 -8.53711,-12.5516c-0.18231,-0.26448 -0.38932,-0.51677 -0.59241,-0.77119c-0.46545,1.59374 -1.43326,3.07624 -1.99634,4.65329c-0.93759,2.81027 -1.92712,5.69449 -2.69138,8.5547c-0.44581,1.66844 -0.07486,3.47964 -0.47845,5.1588c-1.72673,7.18413 -6.61549,13.22806 -9.09587,20.08064c-1.58817,4.38763 -2.3765,9.16144 -4.31613,13.4126c-1.88688,4.13555 -4.3215,7.61439 -7.03134,11.2275c-2.48737,3.29723 -2.70059,6.70412 -4.54716,10.18217c-1.1761,2.21519 -3.67908,4.25042 -5.19186,6.30309c-0.17941,0.24344 -3.83112,4.39225 -3.30679,5.3351c0.45837,0.82423 1.85472,0.36374 2.79457,0.44205c2.02694,0.16889 4.06455,0.16592 6.09718,0.23943c3.08238,0.11147 6.04165,0.73575 9.09469,1.00544c3.80728,0.33631 7.67349,-0.05688 11.50186,0.25099z"/></g></g></svg>