<svg version="1.1" xmlns="http://www.w3.org/2000/svg" xmlns:xlink="http://www.w3.org/1999/xlink" width="705.90523" height="372" viewBox="0,0,705.90523,372"><defs><linearGradient x1="566.10477" y1="255.32345" x2="566.10477" y2="317.17798" gradientUnits="userSpaceOnUse" id="color-1"><stop offset="0" stop-color="#0a0a0a"/><stop offset="1" stop-color="#353432"/></linearGradient><linearGradient x1="549.2249" y1="264.12104" x2="549.2249" y2="282.75504" gradientUnits="userSpaceOnUse" id="color-2"><stop offset="0" stop-color="#71716e"/><stop offset="1" stop-color="#5b5c5d"/></linearGradient><linearGradient x1="548.76479" y1="269.0671" x2="548.76479" y2="280.56957" gradientUnits="userSpaceOnUse" id="color-3"><stop offset="0" stop-color="#71716e"/><stop offset="1" stop-color="#5b5c5d"/></linearGradient><linearGradient x1="567.97392" y1="264.12104" x2="567.97392" y2="282.75504" gradientUnits="userSpaceOnUse" id="color-4"><stop offset="0" stop-color="#71716e"/><stop offset="1" stop-color="#5b5c5d"/></linearGradient><linearGradient x1="567.51381" y1="269.0671" x2="567.51381" y2="280.56957" gradientUnits="userSpaceOnUse" id="color-5"><stop offset="0" stop-color="#71716e"/><stop offset="1" stop-color="#5b5c5d"/></linearGradient><radialGradient cx="583.71587" cy="290.45964" r="30.73624" gradientUnits="userSpaceOnUse" id="color-6"><stop offset="0" stop-color="#5bde14" stop-opacity="0.2549"/><stop offset="1" stop-color="#5bde14" stop-opacity="0"/></radialGradient></defs><g transform="translate(32,6)"><g data-paper-data="{&quot;isPaintingLayer&quot;:true}" fill-rule="nonzero" stroke-linejoin="miter" stroke-miterlimit="10" stroke-dasharray="" stroke-dashoffset="0" style="mix-blend-mode: normal"><path d="M-32,366v-372h704v372z" fill="#333333" stroke="none" stroke-width="0" stroke-linecap="butt"/><g><path d="M533.23675,322.00001v-99.38132h66.25422v99.38133z" fill="#aba79d" stroke="#000000" stroke-width="2" stroke-linecap="butt"/><path d="M538.80078,317.17798v-61.85452h54.60797v61.85452z" fill="url(#color-1)" stroke="#000000" stroke-width="2" stroke-linecap="butt"/><path d="M576.80207,305.89297c0,-3.85923 3.12851,-6.98776 6.98775,-6.98776c3.85923,0 6.98775,3.12852 6.98775,6.98776c0,3.85923 -3.12852,6.98774 -6.98775,6.98774c-3.85923,0 -6.98775,-3.12851 -6.98775,-6.98774z" fill="#72736f" stroke="#000000" stroke-width="1" stroke-linecap="butt"/><path d="M579.27509,305.89297c0,-2.42989 1.96981,-4.3997 4.39969,-4.3997c2.42989,0 4.3997,1.96981 4.3997,4.3997c0,2.42989 -1.96981,4.39969 -4.3997,4.39969c-2.42989,0 -4.39969,-1.96981 -4.39969,-4.39969z" fill="none" stroke="#000000" stroke-width="1" stroke-linecap="butt"/><path d="M581.69061,306.008c0,-1.09584 0.88835,-1.98418 1.98418,-1.98418c1.09583,0 1.98417,0.88835 1.98417,1.98418c0,1.09584 -0.88834,1.98417 -1.98417,1.98417c-1.09584,0 -1.98418,-0.88835 -1.98418,-1.98417z" fill="none" stroke="#000000" stroke-width="1" stroke-linecap="butt"/><path d="M543.41615,248.46042v-20.91148h21.73966v20.91148z" fill="#dedede" stroke="#000000" stroke-width="0" stroke-linecap="butt"/><path d="M550.89275,246.82744v-18.01897h7.24655v18.01897z" fill="#dd0202" stroke="none" stroke-width="0" stroke-linecap="butt"/><path d="M545.71664,241.11611v-7.13154h17.48375v7.13154z" fill="#dd0202" stroke="none" stroke-width="0" stroke-linecap="butt"/><path d="M589.08095,229.9587h-20.47439" fill="none" stroke="#000000" stroke-width="2" stroke-linecap="round"/><path d="M589.08094,233.98456h-20.47439" fill="none" stroke="#000000" stroke-width="2" stroke-linecap="round"/><path d="M568.60655,238.12546h20.47439" fill="none" stroke="#000000" stroke-width="2" stroke-linecap="round"/><path d="M589.08095,242.38137h-20.47439" fill="none" stroke="#000000" stroke-width="2" stroke-linecap="round"/><path d="M568.60655,246.40724h20.47439" fill="none" stroke="#000000" stroke-width="2" stroke-linecap="round"/><path d="M592.30164,290.28916c-0.0504,4.46388 -3.55338,4.54348 -7.93669,4.54348c-4.38332,0 -7.87368,-0.42271 -7.93671,-4.54348c-0.07003,-4.57875 3.55339,-4.54348 7.93671,-4.54348c4.38333,0 7.98712,0.07757 7.93669,4.54348z" fill="#59df13" stroke="#000000" stroke-width="1" stroke-linecap="butt"/><path d="M562.34592,311.64266v-27.951h11.09167v27.951z" fill="#9b7618" stroke="#000000" stroke-width="0" stroke-linecap="butt"/><path d="M592.0531,228.23334c0,-1.07202 0.86904,-1.94104 1.94104,-1.94104c1.07201,0 1.94104,0.86903 1.94104,1.94104c0,1.07202 -0.86904,1.94104 -1.94104,1.94104c-1.07201,0 -1.94104,-0.86903 -1.94104,-1.94104z" fill="#000000" stroke="none" stroke-width="0.5" stroke-linecap="butt"/><path d="M537.03844,228.52912c0,-1.07202 0.86902,-1.94104 1.94104,-1.94104c1.07202,0 1.94104,0.86903 1.94104,1.94104c0,1.07202 -0.86903,1.94104 -1.94104,1.94104c-1.07202,0 -1.94104,-0.86903 -1.94104,-1.94104z" fill="#000000" stroke="none" stroke-width="0.5" stroke-linecap="butt"/><path d="M543.71193,311.64266v-27.951h11.09166v27.951z" fill="#9b7618" stroke="#000000" stroke-width="0" stroke-linecap="butt"/><path d="M542.49596,313.80143v-2.18547h13.45788v2.18547z" fill="#4d5156" stroke="#000000" stroke-width="0" stroke-linecap="butt"/><path d="M547.67206,268.65929v-10.81233h2.41552v10.81233z" fill="#a8a8a2" stroke="#000000" stroke-width="0" stroke-linecap="butt"/><path d="M561.12995,313.80143v-2.30049h13.45788v2.30049z" fill="#4d5156" stroke="none" stroke-width="0" stroke-linecap="butt"/><path d="M542.38093,282.75504v-18.634h13.68794v18.634z" fill="none" stroke="url(#color-2)" stroke-width="2" stroke-linecap="butt"/><path d="M544.5664,280.56957v-11.50246h8.3968v11.50247z" fill="url(#color-3)" stroke="#5b5c5d" stroke-width="0" stroke-linecap="butt"/><path d="M552.73315,272.40281h-8.16675" fill="none" stroke="#000000" stroke-width="1" stroke-linecap="round"/><path d="M566.42109,268.56518v-10.81233h2.41552v10.81233z" fill="#a8a8a2" stroke="#000000" stroke-width="0" stroke-linecap="butt"/><path d="M547.80277,259.98015v-2.3005h44.542v2.3005z" fill="#a8a8a2" stroke="#000000" stroke-width="0" stroke-linecap="butt"/><path d="M561.12995,282.75504v-18.634h13.68794v18.634z" fill="none" stroke="url(#color-4)" stroke-width="2" stroke-linecap="butt"/><path d="M563.31542,280.56957v-11.50246h8.3968v11.50247z" fill="url(#color-5)" stroke="#5b5c5d" stroke-width="0" stroke-linecap="butt"/><path d="M563.31542,272.40281h8.16675" fill="none" stroke="#000000" stroke-width="1" stroke-linecap="round"/><path d="M552.97963,290.45964c0,-16.97515 13.76108,-30.73624 30.73624,-30.73624c16.97515,0 30.73624,13.76108 30.73624,30.73624c0,16.97515 -13.76108,30.73624 -30.73624,30.73624c-16.97516,0 -30.73624,-13.76108 -30.73624,-30.73624z" fill="url(#color-6)" stroke="#000000" stroke-width="0" stroke-linecap="butt"/></g><path d="M414.5,364.31253v-77.5h258.40523v77.5z" fill="#1a1a1a" stroke="#000000" stroke-width="2" stroke-linecap="butt"/></g></g></svg>