<svg version="1.1" xmlns="http://www.w3.org/2000/svg" xmlns:xlink="http://www.w3.org/1999/xlink" width="81" height="20.5" viewBox="0,0,81,20.5"><g transform="translate(-288.03335,-189.75)"><g data-paper-data="{&quot;isPaintingLayer&quot;:true}" fill-rule="nonzero" stroke-width="0.5" stroke-linejoin="miter" stroke-miterlimit="10" stroke-dasharray="" stroke-dashoffset="0" style="mix-blend-mode: normal"><path d="M288.28335,210v-20h80.5v20z" fill="#151515" stroke="#000000" stroke-linecap="butt"/><path d="M365.14287,199.36608l2.42857,3.85715l-0.28571,5l-4.42857,0.42857l-2,-1.71428l0.58053,-0.9651l-1.86625,-5.46347c0,0 -0.90795,0.11024 -1.69464,-0.19371c-1.15994,-0.44816 -4.59107,-2.23487 -4.59107,-2.23487l-4.71429,-0.42857l-8.57142,1.71429l-0.71429,-1.28572h-5.57142l-5.42858,1.14286l-2.14285,-0.42857v-0.85715h-9.42857l0.28571,-2h8.71429h-10.14286l0.28572,-2.57143l2,-0.14285l0.42857,-1.28572l1.14286,0.28572l0.14285,0.85714l18.85715,-0.28571l2,-1l6.71429,-0.14286l0.42857,1l2.57143,0.14286l0.14285,-1h1.14286l0.28572,1l7.57142,-0.14286l4.85715,1.42857l1.85715,1.14286l0.57142,2.28571z" data-paper-data="{&quot;index&quot;:null}" fill="none" stroke="#ffffff" stroke-linecap="round"/></g></g></svg>