<svg version="1.1" xmlns="http://www.w3.org/2000/svg" xmlns:xlink="http://www.w3.org/1999/xlink" width="81" height="22.52959" viewBox="0,0,81,22.52959"><g transform="translate(-292.2,-207.84541)"><g data-paper-data="{&quot;isPaintingLayer&quot;:true}" fill-rule="nonzero" stroke-linejoin="miter" stroke-miterlimit="10" stroke-dasharray="" stroke-dashoffset="0" style="mix-blend-mode: normal"><path d="M292.45,230.125v-20h80.5v20z" fill="#151515" stroke="#000000" stroke-width="0.5" stroke-linecap="butt"/><path d="" data-paper-data="{&quot;index&quot;:null}" fill="none" stroke="#ffffff" stroke-width="0.25" stroke-linecap="butt"/><path d="" data-paper-data="{&quot;index&quot;:null}" fill="none" stroke="#ffffff" stroke-width="0.25" stroke-linecap="butt"/><path d="" data-paper-data="{&quot;index&quot;:null}" fill="none" stroke="#ffffff" stroke-width="0.25" stroke-linecap="butt"/><path d="" data-paper-data="{&quot;index&quot;:null}" fill="none" stroke="#ffffff" stroke-width="0.25" stroke-linecap="butt"/><g stroke="#ffffff"><path d="M295.14558,216.4523l0.83988,4.33942l1.25983,1.79175l-0.53192,-0.08398l-2.35169,-1.56779l-0.95187,-4.75937l3.30356,-2.91161l3.07959,0.50393z" data-paper-data="{&quot;index&quot;:null}" fill="none" stroke-width="0.5" stroke-linecap="round"/><path d="M306.89004,223.47939l-9.15478,-0.22397l-1.68289,-2.37763l-0.16485,-0.47799l7.83896,0.02799z" data-paper-data="{&quot;index&quot;:null}" fill="none" stroke-width="0.5" stroke-linecap="round"/><path d="M332.72361,214.10062v-1.51179l1.72177,0.88189l0.02099,0.60891" data-paper-data="{&quot;index&quot;:null}" fill="none" stroke-width="0.5" stroke-linecap="round"/><path d="M306.79205,223.45137l-3.07959,-2.85562l-0.61593,-4.36742l2.23971,-2.57564l3.30356,0.67192l1.34382,1.62378l0.89589,5.2633l-1.00786,1.90375z" data-paper-data="{&quot;index&quot;:null}" fill="none" stroke-width="0.5" stroke-linecap="round"/><path d="M323.7158,215.97461l1.59579,-1.87399h27.80031l1.59579,1.84776" data-paper-data="{&quot;index&quot;:null}" fill="none" stroke-width="0.5" stroke-linecap="round"/><path d="M370.6236,220.93173l-3.21346,2.59785l-1.49375,0.28034l-3.54567,-0.40985c0,0 -1.56997,-1.78812 -1.23198,-4.89731c0.19866,-1.82759 2.70974,-4.41057 2.70974,-4.41057l3.8635,-0.83989l1.21845,0.53012l2.70103,2.38995z" data-paper-data="{&quot;index&quot;:null}" fill="none" stroke-width="0.5" stroke-linecap="butt"/><path d="M309.03177,221.37964l-1.56693,-1.16895l-0.33911,-2.80701l1.12215,-1.39932l54.48077,-0.22397l1.90376,-0.39194l1.62477,1.73608l-0.33284,2.8861l-2.03833,1.95132l-2.2237,0.08751l-0.27746,-0.66982z" data-paper-data="{&quot;index&quot;:null}" fill="none" stroke-width="0.5" stroke-linecap="butt"/><path d="M333.79974,221.73317l-1.42617,2.89507l0.59843,4.07517l-0.06807,0.55612l-3.60709,-0.16876l0.21751,-0.74079l0.48924,-6.97681" data-paper-data="{&quot;index&quot;:null}" fill="none" stroke-width="0.5" stroke-linecap="round"/><path d="M329.42178,224.81948l-2.31488,-0.77166l-0.92388,-2.30969" data-paper-data="{&quot;index&quot;:null}" fill="none" stroke-width="0.5" stroke-linecap="round"/><path d="M330.01431,221.97576l-0.81299,0.55428l0.68013,-0.85414" data-paper-data="{&quot;index&quot;:null}" fill="none" stroke-width="0.5" stroke-linecap="round"/><path d="M332.72361,208.09541v4.53539" data-paper-data="{&quot;index&quot;:null}" fill="none" stroke-width="0.5" stroke-linecap="round"/><path d="M340.09363,215.30164v-0.58791h12.43036v0.58791z" data-paper-data="{&quot;index&quot;:null}" fill="none" stroke-width="0.25" stroke-linecap="butt"/><path d="M325.64755,215.38564v-0.58791h7.559v0.58791z" data-paper-data="{&quot;index&quot;:null}" fill="none" stroke-width="0.25" stroke-linecap="butt"/><path d="M303.15255,216.62027l-7.95095,0.05599l-0.08398,-0.27996l2.93962,-2.63165l7.33503,-0.11198z" data-paper-data="{&quot;index&quot;:null}" fill="none" stroke-width="0.5" stroke-linecap="round"/><path d="M303.3765,216.34034l-8.17491,0.05599" data-paper-data="{&quot;index&quot;:null}" fill="none" stroke-width="0.5" stroke-linecap="round"/><path d="M296.02747,220.81944h7.89495" data-paper-data="{&quot;index&quot;:null}" fill="none" stroke-width="0.5" stroke-linecap="round"/><path d="M295.22239,225.11516l-1.21784,-1.44581l0.62991,-1.4218l7.8538,-0.09312l0.74029,1.017l-0.60382,1.64973l-1.32792,0.21003z" data-paper-data="{&quot;index&quot;:null}" fill="#ffffff" stroke-width="0.5" stroke-linecap="butt"/><path d="M309.05086,221.23011c0.03755,0.07512 -0.03757,0.11269 -0.03757,0.11269l-0.10044,0.049c-0.03389,0.03442 -0.0678,0.06884 -0.1017,0.10325c-0.21785,0.2037 -0.51256,0.35549 -0.7506,0.59511c-0.07401,0.07452 -0.07812,0.19613 -0.13322,0.28553c-0.12884,0.20904 -0.35747,0.37332 -0.509,0.56722c-0.22086,0.28264 -0.34853,0.5976 -0.52604,0.90824c-0.52225,0.9129 -1.32389,2.09928 -2.52141,1.69888c-0.74708,0.00086 -1.18707,-0.73775 -1.75004,-1.12291c-0.11916,-0.08152 -0.44828,-0.40333 -0.53221,-0.38782c0,0 -0.08398,0 -0.08398,-0.08398c0,-0.08398 0.08398,-0.08398 0.08398,-0.08398c0.2004,0.0161 0.31127,0.20111 0.48842,0.3223c0.562,0.38448 1.09195,1.18977 1.82074,1.19059c1.12766,0.37475 1.85713,-0.75524 2.34866,-1.61641c0.18091,-0.31659 0.31396,-0.63932 0.53911,-0.92779c0.14693,-0.18825 0.37709,-0.34939 0.49887,-0.55265c0.06021,-0.1005 0.07499,-0.23038 0.15619,-0.31483c0.22495,-0.2339 0.56012,-0.38423 0.75174,-0.59629c0.04076,-0.04025 0.08151,-0.08048 0.12227,-0.12073l0.12353,-0.06298c0,0 0.07512,-0.03755 0.11269,0.03757z" data-paper-data="{&quot;index&quot;:null}" fill="none" stroke-width="0.5" stroke-linecap="butt"/></g></g></g></svg>