<svg version="1.1" xmlns="http://www.w3.org/2000/svg" xmlns:xlink="http://www.w3.org/1999/xlink" width="27.07621" height="14.3958" viewBox="0,0,27.07621,14.3958"><defs><linearGradient x1="319.66596" y1="179.81694" x2="319.66596" y2="183.81416" gradientUnits="userSpaceOnUse" id="color-1"><stop offset="0" stop-color="#c7ccd0"/><stop offset="1" stop-color="#000101"/></linearGradient><linearGradient x1="317.97574" y1="185.08355" x2="317.97574" y2="186.78507" gradientUnits="userSpaceOnUse" id="color-2"><stop offset="0" stop-color="#030202"/><stop offset="1" stop-color="#2a2a29"/></linearGradient></defs><g transform="translate(-308.72189,-177.82195)"><g data-paper-data="{&quot;isPaintingLayer&quot;:true}" fill-rule="nonzero" stroke-linejoin="miter" stroke-miterlimit="10" stroke-dasharray="" stroke-dashoffset="0" style="mix-blend-mode: normal"><path d="M332.40715,179.0804c0,0 1.48869,-0.58732 1.99967,-0.74607c0.30427,-0.09453 0.78218,-0.11819 0.78218,-0.11819l0.47715,2.39473l-0.28809,0.48615l0.14404,0.41413l-0.21607,0.50415l-12.02767,0.10803l-0.82826,2.82687l-1.67451,0.09003l-0.70221,1.72853c0,0 -1.01244,0.79608 -1.78254,0.86426c-0.7701,0.06818 -4.96951,-1.81856 -4.96951,-1.81856l0.90027,5.2396l-5.22159,0.86426l0.3421,-3.78115c0,0 2.25515,-5.23895 2.73684,-5.5547c0.52612,-0.34488 2.64681,-0.94529 2.64681,-0.94529l-0.91828,-1.09834v-0.52216l0.10803,-0.10803l1.42243,0.77424l0.3241,-0.19806l0.23407,-0.01801l0.39612,-2.2867l0.43213,0.73823z" fill="#6d7072" stroke="#000000" stroke-width="0.25" stroke-linecap="round"/><path d="M313.32132,185.81446l0.90027,5.2396l-5.22159,0.86426l0.3421,-3.78115c0,0 2.25515,-5.23895 2.73684,-5.5547c0.52612,-0.34487 1.24238,3.23199 1.24238,3.23199z" fill="none" stroke="#000000" stroke-width="0.5" stroke-linecap="round"/><path d="M314.87357,183.76443c0.61414,1.18631 0.28053,2.23851 0.28053,2.23851l-1.85979,-0.21549l0.92728,5.26661l-5.22159,0.86426l0.3421,-3.78115c0,0 2.25515,-5.23895 2.73684,-5.5547c0.14893,-0.09762 1.90745,-0.53176 2.79463,1.18196z" fill="#0e0c0c" stroke="#000000" stroke-width="0" stroke-linecap="round"/><path d="M325.68659,179.97899h-1.94459" fill="none" stroke="#000000" stroke-width="0.25" stroke-linecap="round"/><path d="M330.11595,179.95198h-1.91759" fill="none" stroke="#000000" stroke-width="0.25" stroke-linecap="round"/><path d="M334.57232,179.95198l-1.91759,-0.02701" fill="none" stroke="#000000" stroke-width="0.25" stroke-linecap="round"/><path d="M335.49059,180.89727h-12.36978v-0.43213" fill="none" stroke="#000000" stroke-width="0.25" stroke-linecap="round"/><path d="M317.34105,183.81416v-3.99722c0,0 3.66255,-0.18453 4.29872,0.08102c0.54431,0.22721 0.2783,3.95727 -0.02701,3.97021c-1.54338,0.06542 -4.27171,-0.05402 -4.27171,-0.05402z" fill="url(#color-1)" stroke="#000000" stroke-width="0.25" stroke-linecap="butt"/><path d="M321.7704,180.6542l-3.21398,-0.05402" fill="none" stroke="#000000" stroke-width="0.5" stroke-linecap="round"/><path d="M321.4463,183.24699h-3.07894" fill="none" stroke="#ffffff" stroke-width="0.5" stroke-linecap="round"/><path d="M316.23371,185.11056l0.75623,-0.02701c0,0 -0.0109,0.5657 0.13504,0.81025c0.14594,0.24455 0.83726,0.62119 0.83726,0.62119c0,0 -0.06626,-0.40713 -0.08486,-0.6768c-0.01732,-0.25116 0.05785,-0.72762 0.05785,-0.72762h1.80955c0,0 0.20019,1.64391 -0.54016,1.67451c-0.34545,0.01428 -1.39908,0.23532 -2.24168,0c-0.8426,-0.23532 -0.72922,-1.67451 -0.72922,-1.67451z" fill="url(#color-2)" stroke="#000000" stroke-width="0.25" stroke-linecap="round"/></g></g></svg>