<svg version="1.1" xmlns="http://www.w3.org/2000/svg" xmlns:xlink="http://www.w3.org/1999/xlink" width="10.18435" height="10.36572" viewBox="0,0,10.18435,10.36572"><g transform="translate(-315.04835,-174.94745)"><g data-paper-data="{&quot;isPaintingLayer&quot;:true}" fill-rule="nonzero" stroke-linecap="butt" stroke-linejoin="miter" stroke-miterlimit="10" stroke-dasharray="" stroke-dashoffset="0" style="mix-blend-mode: normal"><path d="M315.94444,184.14584c-1.01011,-1.28112 -0.69886,-7.59067 0,-8.22223c1.12287,-1.01474 7.18224,-0.92055 8.22222,0c1.06482,0.94255 1.11102,7.04793 0,8.22223c-1.13681,1.20155 -7.241,1.24448 -8.22222,0z" fill="#808080" stroke="#000000" stroke-width="0.5"/><text transform="translate(321.23684,179.34539) scale(0.07918,0.07918)" font-size="40" xml:space="preserve" fill="#000000" fill-rule="nonzero" stroke="none" stroke-width="1" stroke-linecap="butt" stroke-linejoin="miter" stroke-miterlimit="10" stroke-dasharray="" stroke-dashoffset="0" font-family="Sans Serif" font-weight="normal" text-anchor="start" style="mix-blend-mode: normal"><tspan x="0" dy="0">E</tspan></text><path d="M316.22816,183.80348c-0.93162,-1.18156 -0.64455,-7.0008 0,-7.58327c1.03562,-0.93588 6.62411,-0.84902 7.58327,0c0.98208,0.8693 1.02468,6.50023 0,7.58327c-1.04846,1.10818 -6.6783,1.14777 -7.58327,0z" fill="none" stroke="#404040" stroke-width="0.5"/></g></g></svg>