<svg version="1.1" xmlns="http://www.w3.org/2000/svg" xmlns:xlink="http://www.w3.org/1999/xlink" width="9.40909" height="8.77273" viewBox="0,0,9.40909,8.77273"><g transform="translate(-315.3652,-175.77841)"><g data-paper-data="{&quot;isPaintingLayer&quot;:true}" fill="#ffffff" fill-rule="nonzero" stroke="none" stroke-width="0.5" stroke-linecap="butt" stroke-linejoin="miter" stroke-miterlimit="10" stroke-dasharray="" stroke-dashoffset="0" style="mix-blend-mode: normal"><path d="M321.9525,177.64601c0.21297,0.38687 0.53688,0.73734 0.73404,1.12941c0.15799,0.00234 0.31603,0.00341 0.47411,0.00299h0.36364c0,0 1.25,0 1.25,1.25c0,1.25 -1.25,1.25 -1.25,1.25h-0.36364c-0.19481,-0.00045 -0.38946,-0.003 -0.58399,-0.00726c-0.2798,0.5759 -0.72833,1.004 -1.25692,1.2861c0,0.00554 0.00001,0.01108 0.00001,0.01662v0.72727c0,0 0,1.25 -1.25,1.25c-1.25,0 -1.25,-1.25 -1.25,-1.25v-0.42424c-0.96828,-0.22157 -1.80465,-0.84808 -2.08862,-1.87103c-0.03863,-0.00014 -0.07728,-0.0002 -0.11593,-0.00018c0,0 -1.25,0 -1.25,-1.25c0,-1.25 1.25,-1.25 1.25,-1.25c0.17093,0.00009 0.34174,0.00186 0.51244,0.00504c0.26359,-0.28932 0.61823,-0.52845 0.8764,-0.82075l0.72578,-0.32256c-0.00064,-0.11297 -0.00098,-0.22597 -0.00098,-0.33901c0,0 0,-1.25 1.25,-1.25c1.25,0 1.25,1.25 1.25,1.25c0,0.01487 0.00001,0.02973 0.00002,0.0446c0.46173,0.14739 0.72365,0.57301 0.72365,0.57301z"/></g></g></svg>