<svg version="1.1" xmlns="http://www.w3.org/2000/svg" xmlns:xlink="http://www.w3.org/1999/xlink" width="15.66068" height="17.46697" viewBox="0,0,15.66068,17.46697"><g transform="translate(-312.16749,-171.26794)"><g data-paper-data="{&quot;isPaintingLayer&quot;:true}" fill-rule="nonzero" stroke-linejoin="miter" stroke-miterlimit="10" stroke-dasharray="" stroke-dashoffset="0" style="mix-blend-mode: normal"><path d="M318.29545,171.59903l-5.79545,12.41883l9.44805,4.38312l5.55195,-12.56494z" fill="#c1c1c2" stroke="#000000" stroke-width="0.5" stroke-linecap="round"/><path d="M315.61688,185.43019l1.12013,-2.33766c0,0 -1.65828,-2.16081 -0.92532,-3.26299c1.03924,-1.56274 2.27302,-1.96819 3.7987,-1.36364c2.50656,0.99323 2.47351,2.29633 2.38636,4.28571c-0.045,1.0273 -2.87338,1.60714 -2.87338,1.60714l-1.02273,2.24026" fill="none" stroke="#000000" stroke-width="0.5" stroke-linecap="round"/><path d="M320.34091,176.17695l1.02273,-2.48377l5.21104,2.48377l-1.07143,2.53247z" fill="#7c8c29" stroke="#000000" stroke-width="0" stroke-linecap="butt"/><path d="M323.20702,175.40808c-0.05906,0.23624 -0.29529,0.17718 -0.29529,0.17718l-0.28185,-0.09013c-0.10127,-0.07597 -0.39393,-0.29187 -0.46439,-0.36353c-0.05977,-0.06078 -0.08153,-0.15587 -0.14922,-0.20768c-0.09546,-0.07307 -0.2402,-0.01385 -0.36042,-0.01321c0,0 -0.24351,0 -0.24351,-0.24351c0,-0.24351 0.24351,-0.24351 0.24351,-0.24351c0.18569,0.00082 0.4475,-0.01843 0.61361,0.0842c0.10451,0.06457 0.15287,0.19314 0.24039,0.27933c0.05026,0.0495 0.34398,0.26712 0.41223,0.31829l0.10776,0.00727c0,0 0.23624,0.05906 0.17718,0.29529z" fill="#949495" stroke="none" stroke-width="0.5" stroke-linecap="butt"/><path d="M324.62662,176.90747c0,0.24351 -0.24351,0.24351 -0.24351,0.24351l-0.28956,-0.00439c-0.30445,-0.12178 -0.56409,-0.08099 -0.87879,-0.21053c-0.31799,-0.13089 -0.65133,-0.40768 -0.92581,-0.613c0,0 -0.19481,-0.1461 -0.0487,-0.34091c0.1461,-0.19481 0.34091,-0.0487 0.34091,-0.0487c0.24634,0.18529 0.54247,0.43505 0.82744,0.55583c0.26565,0.11259 0.50908,0.07189 0.77705,0.17908l0.19746,-0.00439c0,0 0.24351,0 0.24351,0.24351z" fill="#949495" stroke="none" stroke-width="0.5" stroke-linecap="butt"/><path d="M325.69805,176.81006c-0.06646,0 -0.11478,-0.01814 -0.14991,-0.04451c-0.05825,0.00217 -0.11592,0.00111 -0.1706,-0.01669c-0.26743,-0.087 -0.50024,-0.37577 -0.75291,-0.49572c-0.08806,-0.0418 -0.30715,-0.02793 -0.38762,-0.02749c0,0 -0.24351,0 -0.24351,-0.24351c0,-0.24351 0.24351,-0.24351 0.24351,-0.24351c0.20987,0.00093 0.38323,-0.0167 0.5864,0.06991c0.30215,0.1288 0.53816,0.49106 0.87463,0.46581l0.24351,0.29221c0,0 0,0.24351 -0.24351,0.24351z" fill="#949495" stroke="none" stroke-width="0.5" stroke-linecap="butt"/></g></g></svg>