<svg version="1.1" xmlns="http://www.w3.org/2000/svg" xmlns:xlink="http://www.w3.org/1999/xlink" width="705" height="372" viewBox="0,0,705,372"><defs><linearGradient x1="565.81747" y1="232.11202" x2="565.81747" y2="267.8898" gradientUnits="userSpaceOnUse" id="color-1"><stop offset="0" stop-color="#0011ff"/><stop offset="1" stop-color="#4070ff"/></linearGradient><radialGradient cx="593.40368" cy="233.9352" r="1.94444" gradientUnits="userSpaceOnUse" id="color-2"><stop offset="0" stop-color="#e4ffbd"/><stop offset="1" stop-color="#95ff00"/></radialGradient><radialGradient cx="592.43399" cy="234.51096" r="1.6131" gradientUnits="userSpaceOnUse" id="color-3"><stop offset="0" stop-color="#caff7f"/><stop offset="1" stop-color="#95ff00"/></radialGradient></defs><g transform="translate(31.45,7.05462)"><g data-paper-data="{&quot;isPaintingLayer&quot;:true}" fill-rule="nonzero" stroke-linejoin="miter" stroke-miterlimit="10" stroke-dasharray="" stroke-dashoffset="0" style="mix-blend-mode: normal"><path d="M-31.45,364.94539v-372h705v372z" fill="#808080" stroke="none" stroke-width="0" stroke-linecap="butt"/><path d="M472.65417,239.54692l-1.5,-28.875l48.125,0.125l-1.1875,28.9375" fill="#ffffff" stroke="#000000" stroke-width="5" stroke-linecap="round"/><path d="M471,358.76568v-68h12v68z" fill="#523108" stroke="#000000" stroke-width="5" stroke-linecap="butt"/><path d="M607,358.76568v-68h12v68z" fill="#523108" stroke="#000000" stroke-width="5" stroke-linecap="butt"/><path d="M458.6,290.75372v-16.5h171v16.5z" fill="#523108" stroke="#000000" stroke-width="5" stroke-linecap="butt"/><path d="M466.5,272.55368v-32.5h59.5v32.5z" fill="#dac6ae" stroke="#000000" stroke-width="5" stroke-linecap="butt"/><path d="M517.31794,258.30814c7.38186,3.2425 6.625,22.375 6.625,22.375h-55.25c0,0 -0.33474,-20.07239 7.875,-22.625" fill="#ffffff" stroke="#000000" stroke-width="5" stroke-linecap="round"/><path d="M518.75,257.67868h-45" fill="none" stroke="#000000" stroke-width="5" stroke-linecap="round"/><text transform="translate(476.5,262.93746) scale(0.07724,0.07724)" font-size="40" xml:space="preserve" fill="#000000" fill-rule="nonzero" stroke="none" stroke-width="1" stroke-linecap="butt" stroke-linejoin="miter" stroke-miterlimit="10" stroke-dasharray="" stroke-dashoffset="0" font-family="Marker" font-weight="normal" text-anchor="start" style="mix-blend-mode: normal"><tspan x="0" dy="0">my ho</tspan><tspan x="0" dy="46.15px">use in</tspan><tspan x="0" dy="46.15px">mine</tspan><tspan x="0" dy="46.15px">craft beta</tspan><tspan x="0" dy="46.15px">1.7.3!!11</tspan></text><path d="M477.375,251.56412v-5.5h36.5v5.5z" fill="#b4a490" stroke="#000000" stroke-width="2" stroke-linecap="butt"/><path d="M538.5,273.35159v-46.16666h75v46.16666z" fill="#ffe8cc" stroke="#000000" stroke-width="5" stroke-linecap="butt"/><path d="M543.97222,267.8898v-35.77778h43.69051v35.77778z" fill="url(#color-1)" stroke="none" stroke-width="0" stroke-linecap="butt"/><g stroke="#000000"><path d="M607.72222,263.55647h-16" fill="none" stroke-width="2" stroke-linecap="round"/><path d="M596.38889,262.72314c0,-0.03249 6.55556,-0.03249 6.55556,0c0,1.81027 -1.46751,3.27778 -3.27778,3.27778c-1.81026,0 -3.27778,-1.46751 -3.27778,-3.27778z" fill="#000000" stroke-width="0" stroke-linecap="butt"/></g><g stroke="#000000"><path d="M607.72222,254.33425h-16" fill="none" stroke-width="2" stroke-linecap="round"/><path d="M596.38889,253.50092c0,-0.03249 6.55556,-0.03249 6.55556,0c0,1.81026 -1.46751,3.27778 -3.27778,3.27778c-1.81026,0 -3.27778,-1.46752 -3.27778,-3.27778z" fill="#000000" stroke-width="0" stroke-linecap="butt"/></g><path d="M589.27778,267.8898v-16.55556h20.11111v16.55556z" fill="none" stroke="#000000" stroke-width="0.5" stroke-linecap="butt"/><path d="M609.16666,259.22314h-19.88888" fill="none" stroke="#000000" stroke-width="0.5" stroke-linecap="round"/><path d="M593.96619,232.55648h15.39855" fill="none" stroke="#000000" stroke-width="0.25" stroke-linecap="round"/><path d="M609.34541,233.23128h-15.11352" fill="none" stroke="#000000" stroke-width="0.25" stroke-linecap="round"/><path d="M594.44928,233.88347h14.89613" fill="none" stroke="#000000" stroke-width="0.25" stroke-linecap="round"/><path d="M594.27536,234.53563h15.07005" fill="none" stroke="#000000" stroke-width="0.25" stroke-linecap="round"/><path d="M594.01449,235.18782h15.33092" fill="none" stroke="#000000" stroke-width="0.25" stroke-linecap="round"/><path d="M589.61111,234.05648c0,-1.07388 0.87056,-1.94445 1.94444,-1.94445c1.07389,0 1.94444,0.87056 1.94444,1.94445c0,1.07388 -0.87056,1.94445 -1.94444,1.94445c-1.07389,0 -1.94444,-0.87056 -1.94444,-1.94445z" fill="none" stroke="url(#color-2)" stroke-width="0.5" stroke-linecap="butt"/><path d="M593.66667,235.83998h15.67874" fill="none" stroke="#000000" stroke-width="0.25" stroke-linecap="round"/><path d="M591.70185,236.00616l-1.67641,-0.71753l0.96051,-1.14123h1.31763l0.94805,0.84253z" fill="url(#color-3)" stroke="#000000" stroke-width="0" stroke-linecap="round"/><text transform="translate(544.29349,235.19924) scale(0.07877,0.07877)" font-size="40" xml:space="preserve" fill="#000000" fill-rule="nonzero" stroke="none" stroke-width="1" stroke-linecap="butt" stroke-linejoin="miter" stroke-miterlimit="10" stroke-dasharray="" stroke-dashoffset="0" font-family="Serif" font-weight="normal" text-anchor="start" style="mix-blend-mode: normal"><tspan x="0" dy="0">Installing Windows 95</tspan></text><text transform="translate(544.12204,235.02781) scale(0.07877,0.07877)" font-size="40" xml:space="preserve" fill="#ffffff" fill-rule="nonzero" stroke="none" stroke-width="1" stroke-linecap="butt" stroke-linejoin="miter" stroke-miterlimit="10" stroke-dasharray="" stroke-dashoffset="0" font-family="Serif" font-weight="normal" text-anchor="start" style="mix-blend-mode: normal"><tspan x="0" dy="0">Installing Windows 95</tspan></text><path d="M552.16667,257.24208v-14.63095h27.16667v14.63096z" fill="#bfbfbf" stroke="#000000" stroke-width="0.5" stroke-linecap="butt"/><path d="M552.16176,245.39303v-2.7647h27.11765v2.7647z" fill="#0011ff" stroke="#000000" stroke-width="0.5" stroke-linecap="butt"/><text transform="translate(552.82692,244.57444) scale(0.04036,0.04036)" font-size="40" xml:space="preserve" fill="#ffffff" fill-rule="nonzero" stroke="none" stroke-width="1" stroke-linecap="butt" stroke-linejoin="miter" stroke-miterlimit="10" stroke-dasharray="" stroke-dashoffset="0" font-family="Serif" font-weight="normal" text-anchor="start" style="mix-blend-mode: normal"><tspan x="0" dy="0">Warning</tspan></text><path d="M577.01074,244.89357v-1.76471h1.76471v1.76471z" fill="#ffffff" stroke="#000000" stroke-width="0.25" stroke-linecap="butt"/><path d="M578.36761,243.5112l-0.93726,0.97059" fill="none" stroke="#000000" stroke-width="0.25" stroke-linecap="round"/><path d="M578.36369,244.48181l-0.95883,-0.95883" fill="none" stroke="#000000" stroke-width="0.25" stroke-linecap="round"/><text transform="translate(552.8,248.08467) scale(0.05621,0.05621)" font-size="40" xml:space="preserve" fill="#000000" fill-rule="nonzero" stroke="none" stroke-width="1" stroke-linecap="butt" stroke-linejoin="miter" stroke-miterlimit="10" stroke-dasharray="" stroke-dashoffset="0" font-family="Serif" font-weight="normal" text-anchor="start" style="mix-blend-mode: normal"><tspan x="0" dy="0">wtf bro, 4 kb of memory,</tspan><tspan x="0" dy="46.15px">is this a fucking commodore</tspan><tspan x="0" dy="46.15px">pet? wtf? you, fucking idiot,</tspan><tspan x="0" dy="46.15px">buy me at least 256 mb bruh</tspan></text><g><path d="M491.37699,276.20859v-14.87991h25.60837v14.87991z" fill="#2b666f" stroke="#445934" stroke-width="0.05" stroke-linecap="butt"/><path d="M491.35755,276.20859v-7.09011h25.65501v7.09011z" fill="#445934" stroke="#445934" stroke-width="0.05" stroke-linecap="butt"/><path d="M507.70679,272.15043l-0.482,-3.96486l0.74633,0.09329l0.24878,3.84048z" fill="#3e311d" stroke="#000000" stroke-width="0" stroke-linecap="butt"/><path d="M504.39952,266.9478l-0.05584,5.36136l-4.04896,-0.25131l0.47471,-3.8535" fill="#967a4e" stroke="#000000" stroke-width="0.05" stroke-linecap="round"/><path d="M501.16037,272.05785l0.11169,-1.92674l1.11695,-0.13963l-0.05585,2.15014z" fill="#574122" stroke="#000000" stroke-width="0.05" stroke-linecap="butt"/><path d="M507.61078,267.98097l0.27924,4.16066l-2.51314,0.19229l0.02793,-5.21859" fill="#967a4e" stroke="#000000" stroke-width="0.05" stroke-linecap="round"/><path d="M505.68403,266.97571l0.16754,5.33345l-0.8098,0.08378l-1.00525,-0.08378l0.02792,-5.27761" fill="#3e311d" stroke="#000000" stroke-width="0.05" stroke-linecap="round"/><path d="M500.85321,268.37192l-0.30716,3.71386l-0.39092,-0.02792l0.27923,-3.54633" fill="#413521" stroke="#000000" stroke-width="0.05" stroke-linecap="round"/><path d="M500.43435,268.56737l0.11169,-0.78187l0.39094,-0.05584l0.33508,0.08377l2.79238,-1.14487l0.05131,-0.4162l0.85517,-0.30786l0.69809,0.42095l-0.0129,0.44273l1.45203,0.86564l0.44678,-0.05586l0.36301,0.16753l0.08377,0.8098l-3.01577,-1.56374z" fill="#4e4e4e" stroke="#000000" stroke-width="0.05" stroke-linecap="round"/><path d="M506.52173,270.9688l-0.05584,-1.0611l0.94941,0.22339l0.02792,0.92149z" fill="#392e1e" stroke="#8fabaf" stroke-width="0.05" stroke-linecap="butt"/><path d="M506.99645,270.9688l-0.05585,-0.94941" fill="none" stroke="#8fabaf" stroke-width="0.05" stroke-linecap="round"/><path d="M506.74513,270.21486l-0.11169,0.25131" fill="none" stroke="#8fabaf" stroke-width="0.05" stroke-linecap="round"/><path d="M507.164,270.54994l0.08377,-0.25131" fill="none" stroke="#8fabaf" stroke-width="0.05" stroke-linecap="round"/><path d="M506.77305,270.85713l0.16755,-0.33509" fill="none" stroke="#8fabaf" stroke-width="0.05" stroke-linecap="round"/><path d="M507.27568,270.68958c0,0 -0.06221,0.06221 -0.08763,0.08763c-0.01958,0.01958 -0.052,0.052 -0.052,0.052" fill="none" stroke="#8fabaf" stroke-width="0.05" stroke-linecap="round"/><path d="M505.73988,262.78713l-0.33508,-0.36302l-0.02793,-0.19546l0.53056,-0.39094l0.19547,0.41886l-0.16755,0.08376l0.08377,0.19547z" fill="#7c5e48" stroke="#91be6e" stroke-width="0.05" stroke-linecap="round"/><path d="M497.27896,264.18334l0.47471,-0.72603l2.42937,1.22865l-0.47471,0.61433z" fill="#cfdcff" stroke="none" stroke-width="0" stroke-linecap="butt"/><path d="M491.44288,272.64423l0.41885,0.12574h2.40146l22.78012,0.49484l-0.01968,2.30285l-8.29592,-1.22596l-0.64223,0.40866l-2.98784,-0.56583l-0.97734,0.25147l-1.11696,-0.31435l-1.2845,0.37722l-1.59166,-0.56583l-1.56373,0.28292l-0.44678,-0.22003l-1.78712,0.22003l-0.39093,-0.22003l-2.06635,0.25147l-0.05586,-0.22005l-2.40145,0.25147" fill="#3e2b1d" stroke="#000000" stroke-width="0.05" stroke-linecap="round"/><path d="M491.38865,272.68253v-3.96486h0.58307v3.96486z" fill="#413521" stroke="#000000" stroke-width="0" stroke-linecap="butt"/><path d="M491.39166,263.06636l2.77486,1.0611l-0.22424,0.78187l1.45749,0.50263l0.02803,0.55847l0.95299,0.16754l0.3924,1.7592l0.84086,0.22339l-0.36438,1.8709l-0.86889,0.36302l-2.10217,-0.13962l0.08408,-0.36301l-1.6537,-0.13962l-0.33635,1.00526l-0.98101,-0.08377" fill="#0f1609" stroke="#000000" stroke-width="0.05" stroke-linecap="round"/></g></g></g></svg>