<svg version="1.1" xmlns="http://www.w3.org/2000/svg" xmlns:xlink="http://www.w3.org/1999/xlink" width="43.17692" height="11.55449" viewBox="0,0,43.17692,11.55449"><g transform="translate(-298.47373,-174.22287)"><g data-paper-data="{&quot;isPaintingLayer&quot;:true}" fill-rule="nonzero" stroke-linejoin="miter" stroke-miterlimit="10" stroke-dasharray="" stroke-dashoffset="0" style="mix-blend-mode: normal"><path d="M304.16232,177.9381l3.05961,-0.13303l12.37146,-3.32566l20.22002,3.99079l1.46329,1.33026l-1.19724,1.06421l-20.35305,4.65593l-12.77054,-3.05961l-3.37,0.22171l-3.94645,2.03974c0,0 -0.89255,-3.30281 -0.91572,-4.83219c-0.02094,-1.38231 0.78269,-3.94756 0.78269,-3.94756z" fill="#1a1811" stroke="#000000" stroke-width="0" stroke-linecap="round"/><path d="M304.07363,182.72704v-4.8333h1.685v4.65593z" fill="#292929" stroke="none" stroke-width="0" stroke-linecap="butt"/><path d="M328.10708,183.56954v-7.3608l3.01527,0.57645l0.04434,6.11922z" fill="#ad7f15" stroke="#000000" stroke-width="0" stroke-linecap="butt"/><path d="M334.71406,181.92888v-4.47856l5.09935,0.97553l1.46329,1.46329l-1.19486,0.98318z" fill="#292929" stroke="#000000" stroke-width="0" stroke-linecap="butt"/><path d="M304.16232,177.9381l3.05961,-0.13303l12.37146,-3.32566l20.22002,3.99079l1.46329,1.33026l-1.19724,1.06421l-20.35305,4.65593l-12.77054,-3.05961l-3.37,0.22171l-3.94645,2.03974c0,0 -0.89255,-3.30281 -0.91572,-4.83219c-0.02094,-1.38231 0.78269,-3.94756 0.78269,-3.94756z" fill="none" stroke="#000000" stroke-width="0.5" stroke-linecap="round"/></g></g></svg>