<svg version="1.1" xmlns="http://www.w3.org/2000/svg" xmlns:xlink="http://www.w3.org/1999/xlink" width="35.52861" height="18.83464" viewBox="0,0,35.52861,18.83464"><g transform="translate(-302.23718,-170.5867)"><g data-paper-data="{&quot;isPaintingLayer&quot;:true}" fill-rule="nonzero" stroke-linejoin="miter" stroke-miterlimit="10" stroke-dasharray="" stroke-dashoffset="0" style="mix-blend-mode: normal"><path d="M318.99204,170.83671l-2.65735,5.8645l6.23103,-3.48205l14.93616,-2.01592l-0.73306,15.48595l-8.15532,-0.45816l0.09163,2.93225l-17.86841,-0.5498l-0.07331,-2.58405l-8.26528,0.2749l0.64143,-15.46763z" fill="#5a6111" stroke="#000000" stroke-width="0" stroke-linecap="round"/><path d="M302.85549,183.02388l0.10996,-1.64939l11.94416,-0.0595l0.00476,-2.43292h2.05258v4.43503z" fill="#cccccc" stroke="#000000" stroke-width="0.25" stroke-linecap="butt"/><path d="M314.73111,180.23825l2.19919,0.07331" fill="none" stroke="#000000" stroke-width="0.25" stroke-linecap="round"/><path d="M314.91438,181.77768l2.05258,0.03665" fill="none" stroke="#000000" stroke-width="0.25" stroke-linecap="round"/><path d="M332.08602,183.96312l0.18327,-11.82064" fill="none" stroke="#000000" stroke-width="1" stroke-linecap="round"/><path d="M335.20154,184.69618l0.45816,-12.8286" fill="none" stroke="#000000" stroke-width="1" stroke-linecap="round"/><path d="M329.5203,183.59659l0.18327,-10.26288" fill="none" stroke="#000000" stroke-width="1" stroke-linecap="round"/><path d="M310.80429,188.59058l0.04582,-1.23704l17.86841,0.50398l-0.04582,1.28286z" fill="#c8cbb3" stroke="#000000" stroke-width="0" stroke-linecap="butt"/><path d="M303.18925,177.02193v-6.1394h1.69376l-0.18182,6.1394z" fill="#cccccc" stroke="#000000" stroke-width="0" stroke-linecap="butt"/><path d="M307.14286,178.96429c-0.25,0 -0.25,-0.25 -0.25,-0.25v-0.19048c0,-0.78531 -0.12435,-1.5318 -0.18961,-2.31257c0,0 -0.02076,-0.24914 0.22838,-0.2699c0.24914,-0.02076 0.2699,0.22838 0.2699,0.22838c0.06598,0.79412 0.19134,1.55422 0.19134,2.35409v0.19048c0,0 0,0.25 -0.25,0.25z" fill="#37454c" stroke="none" stroke-width="0.5" stroke-linecap="butt"/><path d="M320.65297,177.89106c-0.13179,0.13179 -0.26358,0.06708 -0.32212,0.0256c-0.06266,0 -0.12532,0 -0.18799,0c-2.49432,0 -4.98198,0.09524 -7.47619,0.09524c-0.90923,0 -4.19697,0.4952 -4.88854,-0.11836c-0.27203,-0.24135 -0.15337,-1.24381 -0.2152,-1.61435c0,0 -0.0411,-0.2466 0.2055,-0.2877c0.2466,-0.0411 0.2877,0.2055 0.2877,0.2055c0.02755,0.16548 0.0636,1.33353 0.07052,1.33803c0.70364,0.45753 3.67081,-0.02312 4.54003,-0.02312c2.49421,0 4.98185,-0.09524 7.47619,-0.09524c0.09524,0 0.19048,0 0.28571,0l0.2244,0.12084c0,0 0.17678,0.17678 0,0.35355z" fill="#37454c" stroke="none" stroke-width="0.5" stroke-linecap="butt"/><path d="M320.63095,177c0,0.25 -0.25,0.25 -0.25,0.25h-0.04762c-1.94905,0 -3.89888,0.01616 -5.84783,-0.00266c-1.3241,-0.1205 -6.25571,0.5837 -6.25932,-0.91401c0,0 0,-0.25 0.25,-0.25c0.25,0 0.25,0.25 0.25,0.25c-0.00194,0.71231 4.76242,0.32184 5.7842,0.41463c1.94075,0.0157 3.88212,0.00204 5.82295,0.00204h0.04762c0,0 0.25,0 0.25,0.25z" fill="#37454c" stroke="none" stroke-width="0.5" stroke-linecap="butt"/><path d="M316.82143,175.71429c0,0.25 -0.25,0.25 -0.25,0.25c-1.39683,0 -3.07937,0 -4.47619,0c0,0 -0.25,0 -0.25,-0.25c0,-0.25 0.25,-0.25 0.25,-0.25c1.39683,0 2.79365,0 4.19048,0h0.28571c0,0 0.25,0 0.25,0.25z" fill="#37454c" stroke="none" stroke-width="0.5" stroke-linecap="butt"/><path d="M314.29873,184.9092c-0.24254,0.06063 -0.30317,-0.1819 -0.30317,-0.1819l-0.05168,-0.21001c-0.05539,-0.33236 -0.11467,-0.65756 -0.18792,-0.98687c0,0 -0.05423,-0.24405 0.18981,-0.29828c0.24405,-0.05423 0.29828,0.18981 0.29828,0.18981c0.07504,0.33799 0.13618,0.67204 0.19303,1.01313l0.04356,0.17094c0,0 0.06063,0.24254 -0.1819,0.30317z" fill="#37454c" stroke="none" stroke-width="0.5" stroke-linecap="butt"/><path d="M321.61253,185.29422c-0.2466,0.0411 -0.2877,-0.2055 -0.2877,-0.2055l-0.05017,-0.30619c0,-0.7801 -0.26399,-1.30681 -0.46823,-2.05008c0,0 -0.06578,-0.24119 0.17541,-0.30697c0.24119,-0.06578 0.30697,0.17541 0.30697,0.17541c0.2062,0.76237 0.48415,1.33599 0.48415,2.1404l0.04507,0.26523c0,0 0.0411,0.2466 -0.2055,0.2877z" fill="#37454c" stroke="none" stroke-width="0.5" stroke-linecap="butt"/><path d="M322.22619,185.42857c0,-0.25 0.25,-0.25 0.25,-0.25l0.22583,0.00251c0.58993,0.10312 0.37258,-1.23447 0.20366,-1.72107c0,0 -0.07906,-0.23717 0.15811,-0.31623c0.23717,-0.07906 0.31623,0.15811 0.31623,0.15811c0.27017,0.83681 0.44162,2.51862 -0.74872,2.37416l-0.15512,0.00251c0,0 -0.25,0 -0.25,-0.25z" fill="#37454c" stroke="none" stroke-width="0.5" stroke-linecap="butt"/><path d="M322.32483,186.13634c-0.0411,-0.2466 0.2055,-0.2877 0.2055,-0.2877l0.30619,-0.05017c0.16849,0.00238 0.3407,-0.029 0.49715,-0.09158c2.13399,-0.025 3.38438,0.08957 2.52439,-2.48498c0,0 -0.07906,-0.23717 0.15811,-0.31623c0.23717,-0.07906 0.31623,0.15811 0.31623,0.15811c0.92117,2.76898 -0.48586,3.16823 -2.90418,3.13407c-0.17309,0.06924 -0.36405,0.09671 -0.55047,0.0989l-0.26523,0.04507c0,0 -0.2466,0.0411 -0.2877,-0.2055z" fill="#37454c" stroke="none" stroke-width="0.5" stroke-linecap="butt"/><path d="M319.60598,183.28046l0.01833,-8.4119l2.21752,-1.22788v9.63978z" fill="#b5b5b5" stroke="#000000" stroke-width="0.25" stroke-linecap="butt"/><path d="M322.53823,183.61033v-10.04296h1.61274v10.04296z" fill="#b5b5b5" stroke="#000000" stroke-width="0.25" stroke-linecap="butt"/><path d="M325.0673,183.42707v-9.89635h2.3458v9.89635z" fill="#b5b5b5" stroke="#000000" stroke-width="0.25" stroke-linecap="butt"/><path d="M320.58211,186.23103v-1.51194h2.0333v1.51194z" fill="#37454c" stroke="#000000" stroke-width="0.25" stroke-linecap="butt"/><path d="M302.9288,181.81433v-3.40874h12.02223v3.40874z" fill="#37454c" stroke="#000000" stroke-width="0.25" stroke-linecap="butt"/><path d="M306.51164,176.42632v-2.93225h5.42466v2.93225z" data-paper-data="{&quot;index&quot;:null}" fill="#193232" stroke="#000000" stroke-width="0.25" stroke-linecap="butt"/><text transform="translate(308.22905,175.22364) scale(0.02115,0.02115)" font-size="40" xml:space="preserve" fill="#ffffff" fill-rule="nonzero" stroke="none" stroke-width="1" stroke-linecap="butt" stroke-linejoin="miter" stroke-miterlimit="10" stroke-dasharray="" stroke-dashoffset="0" font-family="Sans Serif" font-weight="normal" text-anchor="start" style="mix-blend-mode: normal"><tspan x="0" dy="0">6502</tspan></text><path d="M311.37644,186.18522v-1.46613h5.40634v1.46613z" fill="#a6a784" stroke="#000000" stroke-width="0.25" stroke-linecap="butt"/><path d="M318.99204,170.83671l-2.65735,5.8645l6.23103,-3.48205l14.93616,-2.01592l-0.73306,15.48595l-8.15532,-0.45816l0.09163,2.93225l-17.86841,-0.5498l-0.07331,-2.58405l-8.26528,0.2749l0.64143,-15.46763z" fill="none" stroke="#000000" stroke-width="0.5" stroke-linecap="round"/></g></g></svg>