<svg version="1.1" xmlns="http://www.w3.org/2000/svg" xmlns:xlink="http://www.w3.org/1999/xlink" width="678.67868" height="393.57506" viewBox="0,0,678.67868,393.57506"><defs><linearGradient x1="319.82025" y1="184.56772" x2="319.82025" y2="199.98265" gradientUnits="userSpaceOnUse" id="color-1"><stop offset="0" stop-color="#000000"/><stop offset="1" stop-color="#000000" stop-opacity="0"/></linearGradient></defs><g transform="translate(18.31356,31.38698)"><g data-paper-data="{&quot;isPaintingLayer&quot;:true}" fill-rule="nonzero" stroke-linejoin="miter" stroke-miterlimit="10" stroke-dasharray="" stroke-dashoffset="0" style="mix-blend-mode: normal"><path d="M-1.46076,184.23352v-12.97111h645.56203v12.97111z" fill="#595959" stroke="#000000" stroke-width="0" stroke-linecap="butt"/><path d="M-9.55721,354.53585v-172.19612h651.1708v172.19612z" fill="#878787" stroke="#b5adad" stroke-width="0" stroke-linecap="butt"/><path d="M442.97993,360.29313v-71h70.48949v71z" fill="#000000" stroke="none" stroke-width="0" stroke-linecap="butt"/><path d="M4.17885,262.20635c0,-1.03822 0.84165,-1.87987 1.87987,-1.87987c1.03822,0 1.87987,0.84165 1.87987,1.87987c0,1.03822 -0.84165,1.87987 -1.87987,1.87987c-1.03822,0 -1.87987,-0.84165 -1.87987,-1.87987z" fill="#080000" stroke="none" stroke-width="0.5" stroke-linecap="butt"/><path d="M4.17885,240.02388c0,-1.03822 0.84165,-1.87987 1.87987,-1.87987c1.03822,0 1.87987,0.84165 1.87987,1.87987c0,1.03822 -0.84165,1.87987 -1.87987,1.87987c-1.03822,0 -1.87987,-0.84165 -1.87987,-1.87987z" fill="#080000" stroke="none" stroke-width="0.5" stroke-linecap="butt"/><path d="M3.99086,216.5255c0,-1.03822 0.84165,-1.87987 1.87987,-1.87987c1.03822,0 1.87987,0.84165 1.87987,1.87987c0,1.03822 -0.84165,1.87987 -1.87987,1.87987c-1.03822,0 -1.87987,-0.84165 -1.87987,-1.87987z" fill="#080000" stroke="none" stroke-width="0.5" stroke-linecap="butt"/><path d="M3.99086,193.59109c0,-1.03822 0.84165,-1.87987 1.87987,-1.87987c1.03822,0 1.87987,0.84165 1.87987,1.87987c0,1.03822 -0.84165,1.87987 -1.87987,1.87987c-1.03822,0 -1.87987,-0.84165 -1.87987,-1.87987z" fill="#080000" stroke="none" stroke-width="0.5" stroke-linecap="butt"/><path d="M3.4269,284.7648c0,-1.03822 0.84165,-1.87987 1.87987,-1.87987c1.03822,0 1.87987,0.84165 1.87987,1.87987c0,1.03822 -0.84165,1.87987 -1.87987,1.87987c-1.03822,0 -1.87987,-0.84165 -1.87987,-1.87987z" fill="#080000" stroke="none" stroke-width="0.5" stroke-linecap="butt"/><path d="M3.99086,306.75928c0,-1.03822 0.84165,-1.87987 1.87987,-1.87987c1.03822,0 1.87987,0.84165 1.87987,1.87987c0,1.03822 -0.84165,1.87987 -1.87987,1.87987c-1.03822,0 -1.87987,-0.84165 -1.87987,-1.87987z" fill="#080000" stroke="none" stroke-width="0.5" stroke-linecap="butt"/><path d="M4.55481,330.06967c0,-1.03822 0.84165,-1.87987 1.87987,-1.87987c1.03822,0 1.87987,0.84165 1.87987,1.87987c0,1.03822 -0.84165,1.87987 -1.87987,1.87987c-1.03822,0 -1.87987,-0.84165 -1.87987,-1.87987z" fill="#080000" stroke="none" stroke-width="0.5" stroke-linecap="butt"/><path d="M134.01522,262.20635c0,-1.03822 0.84165,-1.87987 1.87987,-1.87987c1.03822,0 1.87987,0.84165 1.87987,1.87987c0,1.03822 -0.84165,1.87987 -1.87987,1.87987c-1.03822,0 -1.87987,-0.84165 -1.87987,-1.87987z" fill="#080000" stroke="none" stroke-width="0.5" stroke-linecap="butt"/><path d="M134.01522,240.02388c0,-1.03822 0.84165,-1.87987 1.87987,-1.87987c1.03822,0 1.87987,0.84165 1.87987,1.87987c0,1.03822 -0.84165,1.87987 -1.87987,1.87987c-1.03822,0 -1.87987,-0.84165 -1.87987,-1.87987z" fill="#080000" stroke="none" stroke-width="0.5" stroke-linecap="butt"/><path d="M-1.46076,199.98265v-15.41494h642.56203v15.41494z" fill="url(#color-1)" stroke="#000000" stroke-width="0" stroke-linecap="butt"/><path d="M133.82724,216.5255c0,-1.03822 0.84165,-1.87987 1.87987,-1.87987c1.03822,0 1.87987,0.84165 1.87987,1.87987c0,1.03822 -0.84165,1.87987 -1.87987,1.87987c-1.03822,0 -1.87987,-0.84165 -1.87987,-1.87987z" fill="#080000" stroke="none" stroke-width="0.5" stroke-linecap="butt"/><path d="M133.82724,193.59109c0,-1.03822 0.84165,-1.87987 1.87987,-1.87987c1.03822,0 1.87987,0.84165 1.87987,1.87987c0,1.03822 -0.84165,1.87987 -1.87987,1.87987c-1.03822,0 -1.87987,-0.84165 -1.87987,-1.87987z" fill="#080000" stroke="none" stroke-width="0.5" stroke-linecap="butt"/><path d="M133.26328,284.7648c0,-1.03822 0.84165,-1.87987 1.87987,-1.87987c1.03822,0 1.87987,0.84165 1.87987,1.87987c0,1.03822 -0.84165,1.87987 -1.87987,1.87987c-1.03822,0 -1.87987,-0.84165 -1.87987,-1.87987z" fill="#080000" stroke="none" stroke-width="0.5" stroke-linecap="butt"/><path d="M133.82724,306.75928c0,-1.03822 0.84165,-1.87987 1.87987,-1.87987c1.03822,0 1.87987,0.84165 1.87987,1.87987c0,1.03822 -0.84165,1.87987 -1.87987,1.87987c-1.03822,0 -1.87987,-0.84165 -1.87987,-1.87987z" fill="#080000" stroke="none" stroke-width="0.5" stroke-linecap="butt"/><path d="M134.3912,330.06967c0,-1.03822 0.84165,-1.87987 1.87987,-1.87987c1.03822,0 1.87987,0.84165 1.87987,1.87987c0,1.03822 -0.84165,1.87987 -1.87987,1.87987c-1.03822,0 -1.87987,-0.84165 -1.87987,-1.87987z" fill="#080000" stroke="none" stroke-width="0.5" stroke-linecap="butt"/><path d="M-1.46076,362.18808v-15.47111h645.56203v15.47111z" fill="#595959" stroke="#000000" stroke-width="0" stroke-linecap="butt"/><path d="M641.90928,349.42398h-642.48392" fill="none" stroke="#b5adad" stroke-width="1" stroke-linecap="round"/><path d="M261.51523,262.20635c0,-1.03822 0.84165,-1.87987 1.87987,-1.87987c1.03822,0 1.87987,0.84165 1.87987,1.87987c0,1.03822 -0.84165,1.87987 -1.87987,1.87987c-1.03822,0 -1.87987,-0.84165 -1.87987,-1.87987z" fill="#080000" stroke="none" stroke-width="0.5" stroke-linecap="butt"/><path d="M261.51523,240.02388c0,-1.03822 0.84165,-1.87987 1.87987,-1.87987c1.03822,0 1.87987,0.84165 1.87987,1.87987c0,1.03822 -0.84165,1.87987 -1.87987,1.87987c-1.03822,0 -1.87987,-0.84165 -1.87987,-1.87987z" fill="#080000" stroke="none" stroke-width="0.5" stroke-linecap="butt"/><path d="M261.32723,216.5255c0,-1.03822 0.84166,-1.87987 1.87988,-1.87987c1.03822,0 1.87987,0.84165 1.87987,1.87987c0,1.03822 -0.84165,1.87987 -1.87987,1.87987c-1.03822,0 -1.87988,-0.84165 -1.87988,-1.87987z" fill="#080000" stroke="none" stroke-width="0.5" stroke-linecap="butt"/><path d="M261.32723,193.5911c0,-1.03822 0.84166,-1.87987 1.87988,-1.87987c1.03822,0 1.87987,0.84165 1.87987,1.87987c0,1.03822 -0.84165,1.87987 -1.87987,1.87987c-1.03822,0 -1.87988,-0.84165 -1.87988,-1.87987z" fill="#080000" stroke="none" stroke-width="0.5" stroke-linecap="butt"/><path d="M260.76328,284.7648c0,-1.03822 0.84165,-1.87987 1.87987,-1.87987c1.03822,0 1.87987,0.84165 1.87987,1.87987c0,1.03822 -0.84165,1.87987 -1.87987,1.87987c-1.03822,0 -1.87987,-0.84165 -1.87987,-1.87987z" fill="#080000" stroke="none" stroke-width="0.5" stroke-linecap="butt"/><path d="M261.32723,306.75928c0,-1.03822 0.84166,-1.87987 1.87988,-1.87987c1.03822,0 1.87987,0.84165 1.87987,1.87987c0,1.03822 -0.84165,1.87987 -1.87987,1.87987c-1.03822,0 -1.87988,-0.84165 -1.87988,-1.87987z" fill="#080000" stroke="none" stroke-width="0.5" stroke-linecap="butt"/><path d="M261.89121,330.06967c0,-1.03822 0.84165,-1.87987 1.87987,-1.87987c1.03822,0 1.87987,0.84165 1.87987,1.87987c0,1.03822 -0.84165,1.87987 -1.87987,1.87987c-1.03822,0 -1.87987,-0.84165 -1.87987,-1.87987z" fill="#080000" stroke="none" stroke-width="0.5" stroke-linecap="butt"/><path d="M382.51523,262.20635c0,-1.03822 0.84165,-1.87987 1.87987,-1.87987c1.03822,0 1.87987,0.84165 1.87987,1.87987c0,1.03822 -0.84165,1.87987 -1.87987,1.87987c-1.03822,0 -1.87987,-0.84165 -1.87987,-1.87987z" fill="#080000" stroke="none" stroke-width="0.5" stroke-linecap="butt"/><path d="M382.51523,240.02388c0,-1.03822 0.84165,-1.87987 1.87987,-1.87987c1.03822,0 1.87987,0.84165 1.87987,1.87987c0,1.03822 -0.84165,1.87987 -1.87987,1.87987c-1.03822,0 -1.87987,-0.84165 -1.87987,-1.87987z" fill="#080000" stroke="none" stroke-width="0.5" stroke-linecap="butt"/><path d="M382.32724,216.5255c0,-1.03822 0.84166,-1.87987 1.87988,-1.87987c1.03822,0 1.87987,0.84165 1.87987,1.87987c0,1.03822 -0.84165,1.87987 -1.87987,1.87987c-1.03822,0 -1.87988,-0.84165 -1.87988,-1.87987z" fill="#080000" stroke="none" stroke-width="0.5" stroke-linecap="butt"/><path d="M382.32724,193.5911c0,-1.03822 0.84166,-1.87987 1.87988,-1.87987c1.03822,0 1.87987,0.84165 1.87987,1.87987c0,1.03822 -0.84165,1.87987 -1.87987,1.87987c-1.03822,0 -1.87988,-0.84165 -1.87988,-1.87987z" fill="#080000" stroke="none" stroke-width="0.5" stroke-linecap="butt"/><path d="M381.76328,284.7648c0,-1.03822 0.84165,-1.87987 1.87987,-1.87987c1.03822,0 1.87987,0.84165 1.87987,1.87987c0,1.03822 -0.84165,1.87987 -1.87987,1.87987c-1.03822,0 -1.87987,-0.84165 -1.87987,-1.87987z" fill="#080000" stroke="none" stroke-width="0.5" stroke-linecap="butt"/><path d="M382.32724,306.75928c0,-1.03822 0.84166,-1.87987 1.87988,-1.87987c1.03822,0 1.87987,0.84165 1.87987,1.87987c0,1.03822 -0.84165,1.87987 -1.87987,1.87987c-1.03822,0 -1.87988,-0.84165 -1.87988,-1.87987z" fill="#080000" stroke="none" stroke-width="0.5" stroke-linecap="butt"/><path d="M382.89121,330.06967c0,-1.03822 0.84165,-1.87987 1.87987,-1.87987c1.03822,0 1.87987,0.84165 1.87987,1.87987c0,1.03822 -0.84165,1.87987 -1.87987,1.87987c-1.03822,0 -1.87987,-0.84165 -1.87987,-1.87987z" fill="#080000" stroke="none" stroke-width="0.5" stroke-linecap="butt"/><path d="M506.51523,262.20635c0,-1.03822 0.84165,-1.87987 1.87987,-1.87987c1.03822,0 1.87987,0.84165 1.87987,1.87987c0,1.03822 -0.84165,1.87987 -1.87987,1.87987c-1.03822,0 -1.87987,-0.84165 -1.87987,-1.87987z" fill="#080000" stroke="none" stroke-width="0.5" stroke-linecap="butt"/><path d="M506.51523,240.02388c0,-1.03822 0.84165,-1.87987 1.87987,-1.87987c1.03822,0 1.87987,0.84165 1.87987,1.87987c0,1.03822 -0.84165,1.87987 -1.87987,1.87987c-1.03822,0 -1.87987,-0.84165 -1.87987,-1.87987z" fill="#080000" stroke="none" stroke-width="0.5" stroke-linecap="butt"/><path d="M506.32724,216.5255c0,-1.03822 0.84166,-1.87987 1.87988,-1.87987c1.03822,0 1.87987,0.84165 1.87987,1.87987c0,1.03822 -0.84165,1.87987 -1.87987,1.87987c-1.03822,0 -1.87988,-0.84165 -1.87988,-1.87987z" fill="#080000" stroke="none" stroke-width="0.5" stroke-linecap="butt"/><path d="M506.32724,193.5911c0,-1.03822 0.84166,-1.87987 1.87988,-1.87987c1.03822,0 1.87987,0.84165 1.87987,1.87987c0,1.03822 -0.84165,1.87987 -1.87987,1.87987c-1.03822,0 -1.87988,-0.84165 -1.87988,-1.87987z" fill="#080000" stroke="none" stroke-width="0.5" stroke-linecap="butt"/><path d="M505.76328,284.7648c0,-1.03822 0.84165,-1.87987 1.87987,-1.87987c1.03822,0 1.87987,0.84165 1.87987,1.87987c0,1.03822 -0.84165,1.87987 -1.87987,1.87987c-1.03822,0 -1.87987,-0.84165 -1.87987,-1.87987z" fill="#080000" stroke="none" stroke-width="0.5" stroke-linecap="butt"/><path d="M506.32724,306.75928c0,-1.03822 0.84166,-1.87987 1.87988,-1.87987c1.03822,0 1.87987,0.84165 1.87987,1.87987c0,1.03822 -0.84165,1.87987 -1.87987,1.87987c-1.03822,0 -1.87988,-0.84165 -1.87988,-1.87987z" fill="#080000" stroke="none" stroke-width="0.5" stroke-linecap="butt"/><path d="M506.89121,330.06967c0,-1.03822 0.84165,-1.87987 1.87987,-1.87987c1.03822,0 1.87987,0.84165 1.87987,1.87987c0,1.03822 -0.84165,1.87987 -1.87987,1.87987c-1.03822,0 -1.87987,-0.84165 -1.87987,-1.87987z" fill="#080000" stroke="none" stroke-width="0.5" stroke-linecap="butt"/><path d="M628.51523,262.20635c0,-1.03822 0.84165,-1.87987 1.87987,-1.87987c1.03822,0 1.87987,0.84165 1.87987,1.87987c0,1.03822 -0.84165,1.87987 -1.87987,1.87987c-1.03822,0 -1.87987,-0.84165 -1.87987,-1.87987z" fill="#080000" stroke="none" stroke-width="0.5" stroke-linecap="butt"/><path d="M628.51523,240.02388c0,-1.03822 0.84165,-1.87987 1.87987,-1.87987c1.03822,0 1.87987,0.84165 1.87987,1.87987c0,1.03822 -0.84165,1.87987 -1.87987,1.87987c-1.03822,0 -1.87987,-0.84165 -1.87987,-1.87987z" fill="#080000" stroke="none" stroke-width="0.5" stroke-linecap="butt"/><path d="M628.32724,216.5255c0,-1.03822 0.84165,-1.87987 1.87987,-1.87987c1.03822,0 1.87987,0.84165 1.87987,1.87987c0,1.03822 -0.84165,1.87987 -1.87987,1.87987c-1.03822,0 -1.87987,-0.84165 -1.87987,-1.87987z" fill="#080000" stroke="none" stroke-width="0.5" stroke-linecap="butt"/><path d="M628.32724,193.5911c0,-1.03822 0.84165,-1.87987 1.87987,-1.87987c1.03822,0 1.87987,0.84165 1.87987,1.87987c0,1.03822 -0.84165,1.87987 -1.87987,1.87987c-1.03822,0 -1.87987,-0.84165 -1.87987,-1.87987z" fill="#080000" stroke="none" stroke-width="0.5" stroke-linecap="butt"/><path d="M627.76328,284.7648c0,-1.03822 0.84165,-1.87987 1.87987,-1.87987c1.03822,0 1.87987,0.84165 1.87987,1.87987c0,1.03822 -0.84165,1.87987 -1.87987,1.87987c-1.03822,0 -1.87987,-0.84165 -1.87987,-1.87987z" fill="#080000" stroke="none" stroke-width="0.5" stroke-linecap="butt"/><path d="M628.32724,306.75928c0,-1.03822 0.84165,-1.87987 1.87987,-1.87987c1.03822,0 1.87987,0.84165 1.87987,1.87987c0,1.03822 -0.84165,1.87987 -1.87987,1.87987c-1.03822,0 -1.87987,-0.84165 -1.87987,-1.87987z" fill="#080000" stroke="none" stroke-width="0.5" stroke-linecap="butt"/><path d="M628.89121,330.06967c0,-1.03822 0.84165,-1.87987 1.87987,-1.87987c1.03822,0 1.87987,0.84165 1.87987,1.87987c0,1.03822 -0.84165,1.87987 -1.87987,1.87987c-1.03822,0 -1.87987,-0.84165 -1.87987,-1.87987z" fill="#080000" stroke="none" stroke-width="0.5" stroke-linecap="butt"/><path d="M-18.31356,171.81872v-203.2057h678.67868v203.2057z" fill="#000000" stroke="#b5adad" stroke-width="0" stroke-linecap="butt"/></g></g></svg>